%TF.GenerationSoftware,Altium Limited,Altium Designer,23.3.1 (30)*%
G04 Layer_Physical_Order=1*
G04 Layer_Color=39423*
%FSLAX45Y45*%
%MOMM*%
%TF.SameCoordinates,0C5D6AAF-6D96-44C9-A3D7-384C79DD4A31*%
%TF.FilePolarity,Positive*%
%TF.FileFunction,Copper,L1,Top,Signal*%
%TF.Part,Single*%
G01*
G75*
%TA.AperFunction,Conductor*%
%ADD10C,0.29210*%
%TA.AperFunction,SMDPad,CuDef*%
%ADD11R,1.52400X1.01600*%
%ADD12R,1.01600X1.52400*%
%ADD13R,0.91981X1.90415*%
G04:AMPARAMS|DCode=14|XSize=1.90415mm|YSize=0.91981mm|CornerRadius=0.4599mm|HoleSize=0mm|Usage=FLASHONLY|Rotation=90.000|XOffset=0mm|YOffset=0mm|HoleType=Round|Shape=RoundedRectangle|*
%AMROUNDEDRECTD14*
21,1,1.90415,0.00000,0,0,90.0*
21,1,0.98435,0.91981,0,0,90.0*
1,1,0.91981,0.00000,0.49217*
1,1,0.91981,0.00000,-0.49217*
1,1,0.91981,0.00000,-0.49217*
1,1,0.91981,0.00000,0.49217*
%
%ADD14ROUNDEDRECTD14*%
G04:AMPARAMS|DCode=15|XSize=1.90415mm|YSize=3.21981mm|CornerRadius=0.457mm|HoleSize=0mm|Usage=FLASHONLY|Rotation=90.000|XOffset=0mm|YOffset=0mm|HoleType=Round|Shape=RoundedRectangle|*
%AMROUNDEDRECTD15*
21,1,1.90415,2.30581,0,0,90.0*
21,1,0.99016,3.21981,0,0,90.0*
1,1,0.91399,1.15291,0.49508*
1,1,0.91399,1.15291,-0.49508*
1,1,0.91399,-1.15291,-0.49508*
1,1,0.91399,-1.15291,0.49508*
%
%ADD15ROUNDEDRECTD15*%
%ADD16R,1.35000X0.95000*%
%ADD17R,1.31583X0.90606*%
%ADD18R,1.55000X1.50000*%
%ADD19R,1.45000X1.20000*%
%ADD20R,1.20000X1.45000*%
%ADD21R,1.75000X1.50000*%
%ADD22R,2.41300X5.08000*%
%ADD23R,2.28600X5.08000*%
%ADD24R,0.53000X4.57200*%
%TA.AperFunction,NonConductor*%
%ADD25C,1.00000*%
%TA.AperFunction,Conductor*%
%ADD26C,0.29300*%
%ADD27C,0.50000*%
%ADD28C,0.29200*%
%TA.AperFunction,NonConductor*%
%ADD29C,0.25400*%
%TA.AperFunction,ComponentPad*%
%ADD30R,1.60020X1.60020*%
%ADD31C,1.60020*%
%ADD32C,1.53000*%
%ADD33R,1.53000X1.53000*%
%TA.AperFunction,ViaPad*%
%ADD34C,1.27000*%
%ADD35C,1.00000*%
%ADD36C,0.63500*%
%ADD37C,0.44400*%
G36*
X3524833Y8482793D02*
X3518546D01*
Y8526799D01*
X3480826D01*
Y8533086D01*
X3424247D01*
Y8539373D01*
X3430533D01*
Y8545659D01*
X3487113D01*
Y8551946D01*
X3518546D01*
Y8595952D01*
X3524833D01*
Y8646245D01*
X3531119D01*
Y8633672D01*
X3537406D01*
Y8577092D01*
X3543692D01*
Y8551946D01*
X3575125D01*
Y8545659D01*
X3631705D01*
Y8533086D01*
X3581412D01*
Y8526799D01*
X3543692D01*
Y8501653D01*
X3537406D01*
Y8445073D01*
X3531119D01*
Y8426214D01*
X3524833D01*
Y8476506D01*
Y8482793D01*
D02*
G37*
G36*
X4417531Y8237615D02*
X4442678D01*
Y8231328D01*
X4467824D01*
Y8225042D01*
X4423818D01*
Y8218755D01*
X4417531D01*
Y8187322D01*
X4411245D01*
Y8181036D01*
X4404958D01*
Y8218755D01*
X4398671D01*
Y8225042D01*
X4354665D01*
Y8231328D01*
X4379812D01*
Y8237615D01*
X4404958D01*
Y8275335D01*
X4411245D01*
Y8269048D01*
X4417531D01*
Y8243902D01*
Y8237615D01*
D02*
G37*
G36*
X5926318Y8652532D02*
X5882312D01*
Y8658818D01*
X5857165D01*
Y8665105D01*
X5901172D01*
Y8671391D01*
X5932605D01*
Y8690251D01*
X5938891D01*
Y8746831D01*
X5945178D01*
Y8734257D01*
X5951464D01*
Y8683965D01*
X5957751D01*
Y8671391D01*
X5989184D01*
Y8665105D01*
X6033190D01*
Y8658818D01*
X6001757D01*
Y8652532D01*
X5957751D01*
Y8639958D01*
X5951464D01*
Y8589665D01*
X5945178D01*
Y8577092D01*
X5938891D01*
Y8627385D01*
X5932605D01*
Y8652532D01*
X5926318D01*
D02*
G37*
G36*
X6844163Y7879278D02*
Y7872992D01*
X6793870D01*
Y7866705D01*
X6787584D01*
Y7860419D01*
X6781297D01*
Y7810126D01*
X6775010D01*
Y7803839D01*
X6768724D01*
Y7854132D01*
X6762437D01*
Y7866705D01*
X6756151D01*
Y7872992D01*
X6705858D01*
Y7879278D01*
X6693285D01*
Y7885565D01*
X6743577D01*
Y7891852D01*
X6762437D01*
Y7904425D01*
X6768724D01*
Y7954718D01*
X6781297D01*
Y7898138D01*
X6787584D01*
Y7891852D01*
X6800157D01*
Y7885565D01*
X6856736D01*
Y7879278D01*
X6850450D01*
X6844163D01*
D02*
G37*
D10*
X8198862Y4583637D02*
G03*
X8235861Y4533001I178482J91579D01*
G01*
X8236180Y4532686D02*
G03*
X8281237Y4501263I113814J115179D01*
G01*
X8219316Y4660684D02*
G03*
X8265130Y4563001I158028J14532D01*
G01*
X8265130Y4563001D02*
G03*
X8344291Y4527985I84863J84863D01*
G01*
X8380790Y3769821D02*
G03*
X8378080Y3769316I3984J-28937D01*
G01*
X5199500Y6159500D02*
X5477500Y6437500D01*
X4030000Y6159500D02*
X5199500D01*
X5477500Y6437500D02*
X6615000D01*
X5810000Y6032500D02*
X6750000D01*
X8350000Y4394000D02*
Y4432499D01*
X8281237Y4501262D02*
X8341445Y4441055D01*
X6758555Y6023945D02*
X8198862Y4583637D01*
X6750000Y6032500D02*
X6758555Y6023945D01*
X8235861Y4533001D02*
X8236180Y4532686D01*
X8341445Y4441054D02*
X8350000Y4432499D01*
X6615000Y6437500D02*
X7896500Y5156000D01*
X6797500Y4932500D02*
X7402500D01*
X6576495Y5153505D02*
X6797500Y4932500D01*
X7402500D02*
X7785000Y4550000D01*
X7896500Y5156000D02*
X8350000D01*
X5507505Y6380005D02*
X6584995D01*
X7929015Y5035985D02*
X8425985D01*
X6584995Y6380005D02*
X7929015Y5035985D01*
X7153695Y5361305D02*
X7920000Y4595000D01*
X5846195Y5361305D02*
X7153695D01*
X7920000Y4400274D02*
Y4595000D01*
X7785000Y4365067D02*
X8229985Y3920082D01*
X7785000Y4365067D02*
Y4550000D01*
X8374749Y3765985D02*
X8378080Y3769316D01*
X8229985Y3836288D02*
Y3886000D01*
X8350000Y3765985D02*
X8374749D01*
X8229985Y3836288D02*
X8265137Y3801137D01*
X8300288Y3765985D01*
X8229985Y3886000D02*
Y3920082D01*
X8300288Y3765985D02*
X8350000D01*
X7857500Y4378500D02*
X8350000Y3886000D01*
X7857500Y4378500D02*
Y4560000D01*
X7425590Y4991910D02*
X7857500Y4560000D01*
X7920000Y4400274D02*
X8300288Y4019985D01*
X6848090Y4991910D02*
X7425590D01*
X6820695Y5869305D02*
X8074162Y4615839D01*
Y4500112D02*
Y4615839D01*
X5846195Y5869305D02*
X6820695D01*
X5810000Y5778500D02*
X6824000D01*
X8032252Y4457749D02*
Y4570248D01*
X6824000Y5778500D02*
X8032252Y4570248D01*
X6756695Y6123305D02*
X8219316Y4660684D01*
X5846195Y6123305D02*
X6756695D01*
X8219316Y4660684D02*
Y4660684D01*
X8344291Y4527985D02*
X8483985D01*
X4790000Y3367500D02*
Y3746500D01*
X6544605Y2840395D02*
X6759605D01*
X5536495Y3848505D02*
Y4956495D01*
Y3848505D02*
X6544605Y2840395D01*
X5436495Y3831005D02*
X6705796Y2561704D01*
X6768296D02*
X6820000Y2510000D01*
X6705796Y2561704D02*
X6768296D01*
X5436495Y3831005D02*
Y5151738D01*
X5160000Y6032500D02*
X5507505Y6380005D01*
X4030000Y6032500D02*
X5160000D01*
X8350000Y5410000D02*
X8480000Y5540000D01*
Y5709727D01*
X8554288Y5784015D01*
X8150000Y3410000D02*
X8690000D01*
X8828625Y3548625D01*
X7432501Y4127500D02*
X8150000Y3410000D01*
X5810000Y4127500D02*
X7432501D01*
X8407180Y3773454D02*
X8470015Y3836288D01*
X8554288D02*
X8604000Y3886000D01*
X8470015Y3836288D02*
X8554288D01*
X8380790Y3769821D02*
X8407180Y3773454D01*
X5810000Y5270500D02*
X6569500D01*
X6848090Y4991910D01*
X5810000Y5143500D02*
X5820005Y5153505D01*
X6576495D01*
X5436495Y5151738D02*
X5510000Y5225243D01*
Y5230000D01*
X5536495Y4956495D02*
X5540000Y4960000D01*
X5651795Y3848129D02*
Y4718204D01*
X5640000Y4730000D02*
X5651795Y4718204D01*
X5687305Y5052695D02*
X5773805D01*
X5510000Y5230000D02*
X5687305Y5052695D01*
X5550766Y4960000D02*
X5621266Y4889500D01*
X5540000Y4960000D02*
X5550766D01*
X5621266Y4889500D02*
X5810000D01*
X5777500Y4730000D02*
X5810000Y4762500D01*
X5640000Y4730000D02*
X5777500D01*
X5773805Y5052695D02*
X5810000Y5016500D01*
X5651795Y3848129D02*
X6379530Y3120395D01*
X8828625Y3548625D02*
Y5609102D01*
X8786715Y3581721D02*
Y5481285D01*
X8706904Y3501910D02*
X8786715Y3581721D01*
X8197360Y3501910D02*
X8706904D01*
X7444770Y4254500D02*
X8197360Y3501910D01*
X5810000Y4254500D02*
X7444770D01*
X8032252Y4457749D02*
X8350000Y4140000D01*
X8074162Y4500112D02*
X8300288Y4273985D01*
X8483985D01*
X8653712Y5784015D02*
X8828625Y5609102D01*
X8604000Y5664000D02*
X8786715Y5481285D01*
X8483985Y4019985D02*
X8604000Y4140000D01*
X8300288Y4019985D02*
X8483985D01*
X8554288Y5784015D02*
X8653712D01*
X8425985Y5035985D02*
X8483985Y5093985D01*
Y5289985D01*
X8604000Y5410000D01*
X5810000Y6159500D02*
X5846195Y6123305D01*
X8483985Y4527985D02*
X8604000Y4648000D01*
X5810000Y5905500D02*
X5846195Y5869305D01*
X8483985Y4273985D02*
X8604000Y4394000D01*
X5810000Y5397500D02*
X5846195Y5361305D01*
X1756900Y4724900D02*
Y4979100D01*
X6379530Y3120395D02*
X6759605D01*
Y2840395D02*
X6820000Y2780000D01*
X6759605Y3120395D02*
X6820000Y3060000D01*
X7090000Y3947500D02*
Y3960000D01*
Y3947500D02*
X7364415Y3673085D01*
Y2666915D02*
Y3673085D01*
X7207500Y2510000D02*
X7364415Y2666915D01*
X7195000Y2510000D02*
X7207500D01*
X7322505Y2895005D02*
Y3444995D01*
X7195000Y2780000D02*
X7207500D01*
X7090000Y3677500D02*
Y3690000D01*
Y3677500D02*
X7322505Y3444995D01*
X7207500Y2780000D02*
X7322505Y2895005D01*
X7090000Y3397500D02*
X7195000Y3292500D01*
Y3060000D02*
Y3292500D01*
X7090000Y3397500D02*
Y3410000D01*
X6626778Y4381500D02*
X6835797Y4590518D01*
X5810000Y4381500D02*
X6626778D01*
X6835797Y4590518D02*
Y4722300D01*
X6750489Y4807608D02*
X6835797Y4722300D01*
X6730000Y4807608D02*
X6750489D01*
D11*
X5810000Y6286500D02*
D03*
Y6159500D02*
D03*
Y6032500D02*
D03*
Y5905500D02*
D03*
Y5778500D02*
D03*
Y5651500D02*
D03*
Y5524500D02*
D03*
Y5397500D02*
D03*
Y5270500D02*
D03*
Y5143500D02*
D03*
Y5016500D02*
D03*
Y4889500D02*
D03*
Y4762500D02*
D03*
Y4635500D02*
D03*
Y4508500D02*
D03*
Y4381500D02*
D03*
Y4254500D02*
D03*
Y4127500D02*
D03*
Y4000500D02*
D03*
Y3873500D02*
D03*
X4030000Y6286500D02*
D03*
Y6159500D02*
D03*
Y6032500D02*
D03*
Y5905500D02*
D03*
Y5778500D02*
D03*
Y5651500D02*
D03*
Y5524500D02*
D03*
Y5397500D02*
D03*
Y5270500D02*
D03*
Y5143500D02*
D03*
Y5016500D02*
D03*
Y4889500D02*
D03*
Y4762500D02*
D03*
Y4635500D02*
D03*
Y4508500D02*
D03*
Y4381500D02*
D03*
Y4254500D02*
D03*
Y4127500D02*
D03*
Y4000500D02*
D03*
Y3873500D02*
D03*
D12*
X5300000Y3746500D02*
D03*
X5180000D02*
D03*
X5050000D02*
D03*
X4920000D02*
D03*
X4790000D02*
D03*
X4670000D02*
D03*
X4540000D02*
D03*
D13*
X1800000Y7065000D02*
D03*
D14*
X2030000D02*
D03*
X2260000D02*
D03*
D15*
X2030000Y7675000D02*
D03*
D16*
X3810000Y4885000D02*
D03*
Y4735000D02*
D03*
X6040000Y4645000D02*
D03*
Y4795000D02*
D03*
D17*
X6730000Y4807608D02*
D03*
Y4652392D02*
D03*
D18*
X6310000Y4870000D02*
D03*
Y4690000D02*
D03*
D19*
X4787500Y3192500D02*
D03*
Y3392500D02*
D03*
D20*
X6890000Y3960000D02*
D03*
X7090000D02*
D03*
X6890000Y3690000D02*
D03*
X7090000D02*
D03*
X6890000Y3410000D02*
D03*
X7090000D02*
D03*
D21*
X6820000Y2510000D02*
D03*
X7195000D02*
D03*
X6820000Y2780000D02*
D03*
X7195000D02*
D03*
X6820000Y3060000D02*
D03*
X7195000D02*
D03*
D22*
X4451850Y1270000D02*
D03*
X5328150D02*
D03*
D23*
X4890000D02*
D03*
D24*
X2317650Y9760000D02*
D03*
X2444650D02*
D03*
X2571650D02*
D03*
X2698650D02*
D03*
X2825650D02*
D03*
X2952650D02*
D03*
X3079650D02*
D03*
X3206650D02*
D03*
X3333650D02*
D03*
X3460650D02*
D03*
X3587650D02*
D03*
X3714650D02*
D03*
X3841650D02*
D03*
X3968650D02*
D03*
X4095650D02*
D03*
X4222650D02*
D03*
X4349650D02*
D03*
X4476650D02*
D03*
X4603650D02*
D03*
X4730650D02*
D03*
X4857650D02*
D03*
X4984650D02*
D03*
X5111650D02*
D03*
X5238650D02*
D03*
X5492650D02*
D03*
X5619650D02*
D03*
X5746650D02*
D03*
X5873650D02*
D03*
X6000650D02*
D03*
X6127650D02*
D03*
X6254650D02*
D03*
X6381650D02*
D03*
X6508650D02*
D03*
X6635650D02*
D03*
X6762650D02*
D03*
X6889650D02*
D03*
X7016650D02*
D03*
X7143650D02*
D03*
X7270650D02*
D03*
D25*
X8690000Y7370000D02*
Y7970000D01*
X8480000Y7350000D02*
Y8280000D01*
X8450000Y6490000D02*
Y7180000D01*
X7962500Y7165000D02*
X7970000Y6497500D01*
X7790000Y6500000D02*
Y7200000D01*
X7795000Y7352500D02*
Y8292500D01*
X8620000Y6510000D02*
X9080000D01*
D26*
X4437500Y1284350D02*
Y1645000D01*
Y1284350D02*
X4451850Y1270000D01*
X5328150D02*
X5330000Y1271850D01*
Y1652500D01*
X6512500Y4617500D02*
Y4660000D01*
X6403500Y4508500D02*
X6512500Y4617500D01*
X5810000Y4508500D02*
X6403500D01*
X4191500Y6286500D02*
X4415000Y6510000D01*
X3562500Y5392500D02*
X3902350Y5052650D01*
X3993850D02*
X4030000Y5016500D01*
X3902350Y5052650D02*
X3993850D01*
X3805000Y5395000D02*
X3807500Y5397500D01*
X4030000D01*
X5180000Y3547500D02*
Y3746500D01*
X5429000Y3617500D02*
X5467836D01*
X5485000Y3600336D01*
Y3575000D02*
Y3600336D01*
X5300000Y3721100D02*
Y3746500D01*
Y3721100D02*
X5336150Y3684950D01*
X5361550D01*
X5429000Y3617500D01*
X4417500Y3567500D02*
X4455000Y3605000D01*
X4522837D02*
X4540000Y3622163D01*
X4455000Y3605000D02*
X4522837D01*
X4540000Y3622163D02*
Y3746500D01*
X4670000Y3605000D02*
Y3746500D01*
X4925000Y3622500D02*
Y3741500D01*
X4920000Y3746500D02*
X4925000Y3741500D01*
X4787500Y3192500D02*
X4790000Y3190000D01*
Y2967500D02*
Y3190000D01*
X4890000Y1409700D02*
X5050000Y1569700D01*
Y3746500D01*
X5810000Y5524500D02*
X6022000D01*
X6247500Y3410000D02*
X6890000D01*
X6882500Y3952500D02*
X6890000Y3960000D01*
X6237500Y3952500D02*
X6882500D01*
X6265000Y3690000D02*
X6890000D01*
X3540000Y9187500D02*
X3542500Y9185000D01*
X3540000Y9187500D02*
Y9250836D01*
X4537500Y3744000D02*
X4540000Y3746500D01*
X6040000Y4795000D02*
Y5010000D01*
X4030000Y6286500D02*
X4191500D01*
X6300000Y4880000D02*
X6310000Y4870000D01*
X6300000Y4880000D02*
Y5050000D01*
X3780000Y4705000D02*
X3810000Y4735000D01*
X3720350Y3909650D02*
X3993850D01*
X3720000Y3910000D02*
X3720350Y3909650D01*
X3993850D02*
X4030000Y3873500D01*
X1800000Y7015783D02*
Y7065000D01*
X1614217Y6830000D02*
X1800000Y7015783D01*
X4730675Y9410025D02*
X4730700Y9410000D01*
X4730675Y9410025D02*
Y9759975D01*
X5746675Y9410025D02*
X5746700Y9410000D01*
X4984675Y9410025D02*
X4984700Y9410000D01*
X6000675Y9410025D02*
X6000700Y9410000D01*
X5746650Y9760000D02*
X5746675Y9759975D01*
X4984675Y9410025D02*
Y9759975D01*
X6254675Y9410025D02*
X6254700Y9410000D01*
X6000675Y9410025D02*
Y9759975D01*
X6254675Y9410025D02*
Y9759975D01*
X4730650Y9760000D02*
X4730675Y9759975D01*
X5746675Y9410025D02*
Y9759975D01*
X6254650Y9760000D02*
X6254675Y9759975D01*
X6000650Y9760000D02*
X6000675Y9759975D01*
X4984650Y9760000D02*
X4984675Y9759975D01*
X5773850Y3909650D02*
X5810000Y3873500D01*
X5773850Y4472350D02*
X5810000Y4508500D01*
Y6286500D02*
X5983500D01*
X5928900Y3780000D02*
X6030000D01*
X5810000Y3873500D02*
X5835400D01*
X5928900Y3780000D01*
X5810000Y3873500D02*
X5846150Y3909650D01*
X4890000Y1270000D02*
Y1409700D01*
X4476675Y9410025D02*
Y9759975D01*
X4476650Y9760000D02*
X4476675Y9759975D01*
Y9410025D02*
X4476700Y9410000D01*
X4349650Y9760000D02*
X4349675Y9759975D01*
Y9410025D02*
Y9759975D01*
Y9410025D02*
X4349700Y9410000D01*
X3206675Y9410025D02*
Y9759975D01*
X3206650Y9760000D02*
X3206675Y9759975D01*
Y9410025D02*
X3206700Y9410000D01*
X2952675Y9410025D02*
X2952700Y9410000D01*
X2952650Y9760000D02*
X2952675Y9759975D01*
Y9410025D02*
Y9759975D01*
X2698675Y9410025D02*
Y9759975D01*
Y9410025D02*
X2698700Y9410000D01*
X2698650Y9760000D02*
X2698675Y9759975D01*
X2317650Y9760000D02*
X2317675Y9759975D01*
Y9410025D02*
Y9759975D01*
Y9410025D02*
X2317700Y9410000D01*
D27*
X1884000Y5641872D02*
Y5868000D01*
Y5614000D02*
Y5641872D01*
X1345000Y3775000D02*
Y5577500D01*
Y3775000D02*
X1570000Y3550000D01*
X1345000Y5577500D02*
X1508400Y5740900D01*
X2897500Y6627500D02*
X5485000D01*
X1884000Y5614000D02*
X2897500Y6627500D01*
X1508400Y5740900D02*
X1784972D01*
X1884000Y5641872D01*
X1340000Y7740000D02*
X2444700Y8844700D01*
X1340000Y5915255D02*
Y7740000D01*
X3692750Y4892250D02*
X4027250D01*
X1503100Y5994900D02*
X1630000Y5868000D01*
X7143675Y9460025D02*
X7143700Y9460000D01*
X7143675Y9460025D02*
Y9759975D01*
X7143650Y9760000D02*
X7143675Y9759975D01*
X5075000Y7065000D02*
X7270650Y9260650D01*
X2260000Y7065000D02*
X5075000D01*
X7270650Y9260650D02*
Y9603885D01*
X4030000Y5143500D02*
X4614000D01*
X4781400Y4976100D01*
X5120000D01*
X5133900Y4990000D01*
X4055800Y5244700D02*
X4704464D01*
X4739164Y5210000D02*
X4760000D01*
X4704464Y5244700D02*
X4739164Y5210000D01*
X5313750Y4758750D02*
X5317500Y4755000D01*
X4033750Y4758750D02*
X5313750D01*
X4030000Y4762500D02*
X4033750Y4758750D01*
X7620000Y4270000D02*
Y4556600D01*
Y4270000D02*
X8180000Y3710000D01*
X5004500Y4635500D02*
X5170000Y4470000D01*
X4030000Y4635500D02*
X5004500D01*
X2444700Y8844700D02*
Y9460000D01*
X6360000Y4740000D02*
X6450000D01*
X6310000Y4690000D02*
X6360000Y4740000D01*
X6450000D02*
X6520000Y4810000D01*
X6709697Y4672695D02*
X6730000Y4652392D01*
X6520000Y4810000D02*
X6657305Y4672695D01*
X6520000Y4810000D02*
Y4997322D01*
X6657305Y4672695D02*
X6709697D01*
X8180000Y3710000D02*
X8659296D01*
X8734410Y3785114D01*
X8604000Y4902000D02*
X8734410Y4771590D01*
Y3785114D02*
Y4771590D01*
X6040000Y4645000D02*
X6265000D01*
X6310000Y4690000D01*
X5814750Y4640250D02*
X6035250D01*
X6040000Y4645000D01*
X5810000Y4635500D02*
X5814750Y4640250D01*
X3780000Y4450000D02*
Y4705000D01*
X1570000Y3550000D02*
X2145000D01*
X3490000Y4895000D02*
X3690000D01*
X2145000Y3550000D02*
X3490000Y4895000D01*
X4027250Y4892250D02*
X4030000Y4889500D01*
X3690000Y4895000D02*
X3692750Y4892250D01*
X2030000Y7065000D02*
Y7675000D01*
X7270650Y9603885D02*
Y9760000D01*
Y9603885D02*
X7275950D01*
X4030000Y5270500D02*
X4055800Y5244700D01*
X1630000Y6122000D02*
X1884000D01*
X2260000Y6498000D01*
Y7065000D01*
X1503100Y6488883D02*
X2030000Y7015783D01*
Y7065000D01*
X1503100Y5994900D02*
Y6488883D01*
X3714650Y9760000D02*
X3716150Y9758500D01*
X2444675Y9460025D02*
X2444700Y9460000D01*
X2444675Y9460025D02*
Y9759975D01*
X2571675Y9460025D02*
Y9759975D01*
X2571650Y9760000D02*
X2571675Y9759975D01*
Y9460025D02*
X2571700Y9460000D01*
X2444650Y9760000D02*
X2444675Y9759975D01*
D28*
X1757100Y5487100D02*
X1936564D01*
X1630000Y5360000D02*
X1757100Y5487100D01*
X1936564D02*
X2100964Y5651500D01*
X1503100Y5233100D02*
X1630000Y5360000D01*
X3968650Y9401350D02*
Y9760000D01*
X4120000Y8690000D02*
Y9250000D01*
X3968650Y9401350D02*
X4120000Y9250000D01*
X3735000Y9412500D02*
Y9537550D01*
X3845000Y8682500D02*
Y9302500D01*
X3735000Y9412500D02*
X3845000Y9302500D01*
X3587650Y9557900D02*
X3670000Y9475550D01*
Y8850000D02*
Y9475550D01*
X3716150Y9556400D02*
X3735000Y9537550D01*
X3716150Y9556400D02*
Y9758500D01*
X3841650Y9413350D02*
X3977500Y9277500D01*
Y8860000D02*
Y9277500D01*
X3841650Y9413350D02*
Y9760000D01*
X3460650Y9557900D02*
X3540000Y9478550D01*
Y9250836D02*
Y9478550D01*
X3333650Y9193650D02*
Y9760000D01*
X3330000Y9190000D02*
X3333650Y9193650D01*
X3587650Y9557900D02*
Y9760000D01*
X3460650Y9557900D02*
Y9760000D01*
X2100964Y5651500D02*
X4030000D01*
X1757100Y5233100D02*
X1936564D01*
X2227964Y5524500D01*
X4030000D01*
X1756900Y4216900D02*
Y4471100D01*
X1630000Y4090000D02*
X1756900Y4216900D01*
X1630000Y4598000D02*
X1756900Y4471100D01*
X1630000Y4598000D02*
X1756900Y4724900D01*
X1630000Y5106000D02*
X1756900Y4979100D01*
X1503100Y4470900D02*
X1630000Y4344000D01*
X1503100Y4470900D02*
Y4725100D01*
X1630000Y4852000D01*
Y5106000D02*
X1757100Y5233100D01*
X1503100Y4978900D02*
Y5233100D01*
Y4978900D02*
X1630000Y4852000D01*
D29*
X9588500Y8580500D02*
G03*
X9088500Y9080500I-500000J0D01*
G01*
X500000D02*
G03*
X0Y8580500I0J-500000D01*
G01*
X9088500Y0D02*
G03*
X9588500Y500000I0J500000D01*
G01*
X7838500Y700000D02*
G03*
X7588500Y950000I-250000J0D01*
G01*
X7838500Y250000D02*
G03*
X8088500Y0I250000J0D01*
G01*
X2000000Y950000D02*
G03*
X1750000Y700000I0J-250000D01*
G01*
X1500000Y0D02*
G03*
X1750000Y250000I-0J250000D01*
G01*
X0Y500000D02*
G03*
X500000Y0I500000J0D01*
G01*
X5228700Y10101500D02*
X5303700Y10026500D01*
X5303700D02*
X5303750Y9385500D01*
X5427700D02*
Y10026500D01*
X5502700Y10101500D01*
X5303700Y9385500D02*
X5427700D01*
X2326700Y10101500D02*
X5228700D01*
X2176700Y9951700D02*
X2326700Y10101500D01*
X7261700D02*
X7411700Y9951700D01*
X500000Y9080500D02*
X2176700D01*
X5502700Y10101500D02*
X7261700D01*
X7411700Y9080500D02*
Y9951700D01*
X2176700D02*
X2176750Y9080500D01*
X7411700D02*
X9088500D01*
X8088500Y0D02*
X9088500D01*
X2000000Y950000D02*
X7588500D01*
X7838500Y250000D02*
Y700000D01*
X1750000Y250000D02*
Y700000D01*
X9588500Y500000D02*
Y8580500D01*
X500000Y0D02*
X1500000D01*
X0Y500000D02*
Y8580500D01*
D30*
X8604000Y3886000D02*
D03*
D31*
X8350000D02*
D03*
X8604000Y4140000D02*
D03*
X8350000D02*
D03*
X8604000Y4394000D02*
D03*
X8350000D02*
D03*
X8604000Y4648000D02*
D03*
X8350000D02*
D03*
X8604000Y4902000D02*
D03*
X8350000D02*
D03*
X8604000Y5156000D02*
D03*
X8350000D02*
D03*
X8604000Y5410000D02*
D03*
X8350000D02*
D03*
X8604000Y5664000D02*
D03*
X8350000D02*
D03*
D32*
X1630000Y6122000D02*
D03*
X1884000D02*
D03*
X1630000Y5868000D02*
D03*
X1884000D02*
D03*
X1630000Y5614000D02*
D03*
X1884000D02*
D03*
X1630000Y5360000D02*
D03*
X1884000D02*
D03*
X1630000Y5106000D02*
D03*
X1884000D02*
D03*
X1630000Y4852000D02*
D03*
X1884000D02*
D03*
X1630000Y4598000D02*
D03*
X1884000D02*
D03*
X1630000Y4344000D02*
D03*
X1884000D02*
D03*
X1630000Y4090000D02*
D03*
X1884000D02*
D03*
X1630000Y3836000D02*
D03*
D33*
X1884000D02*
D03*
D34*
X4437500Y1645000D02*
D03*
X5330000Y1652500D02*
D03*
X3562500Y5392500D02*
D03*
X1340000Y5915255D02*
D03*
X5485000Y6627500D02*
D03*
X5180000Y3547500D02*
D03*
X5485000Y3575000D02*
D03*
X4417500Y3567500D02*
D03*
X4665000Y3562500D02*
D03*
X4920000Y3567500D02*
D03*
X6022000Y5524500D02*
D03*
X6247500Y3410000D02*
D03*
X6237500Y3952500D02*
D03*
Y3692500D02*
D03*
X4120000Y8690000D02*
D03*
X3977500Y8860000D02*
D03*
X3845000Y8682500D02*
D03*
X3542500Y9185000D02*
D03*
X3805000Y5395000D02*
D03*
X4790000Y2967500D02*
D03*
X5317500Y4755000D02*
D03*
X4760000Y5210000D02*
D03*
X5510000Y5230000D02*
D03*
X5540000Y4960000D02*
D03*
X5640000Y4730000D02*
D03*
X6040000Y5010000D02*
D03*
X3330000Y9190000D02*
D03*
X3670000Y8850000D02*
D03*
X5170000Y4470000D02*
D03*
X5133900Y4990000D02*
D03*
X7620000Y4556600D02*
D03*
X6300000Y5050000D02*
D03*
X3780000Y4450000D02*
D03*
X6520000Y4997322D02*
D03*
X3720000Y3910000D02*
D03*
X1614217Y6830000D02*
D03*
X6030000Y3780000D02*
D03*
D35*
X6512500Y4660000D02*
D03*
X4415000Y6510000D02*
D03*
X6010000Y6290000D02*
D03*
D36*
X7143700Y9460000D02*
D03*
X7275950Y9603885D02*
D03*
X2444700Y9460000D02*
D03*
X2571700D02*
D03*
D37*
X7016700Y9410000D02*
D03*
X4730700D02*
D03*
X4984700D02*
D03*
X6000700D02*
D03*
X6254700D02*
D03*
X5746700D02*
D03*
X5873700D02*
D03*
X5238700D02*
D03*
X3460700D02*
D03*
X4476700D02*
D03*
X4349700D02*
D03*
X3206700D02*
D03*
X2952700D02*
D03*
X2698700D02*
D03*
X2317700D02*
D03*
%TF.MD5,b4c63db6525d30d1307520a5eec895f9*%
M02*
