%TF.GenerationSoftware,Altium Limited,Altium Designer,23.3.1 (30)*%
G04 Layer_Color=65535*
%FSLAX45Y45*%
%MOMM*%
%TF.SameCoordinates,0C5D6AAF-6D96-44C9-A3D7-384C79DD4A31*%
%TF.FilePolarity,Positive*%
%TF.FileFunction,Legend,Top*%
%TF.Part,Single*%
G01*
G75*
%TA.AperFunction,NonConductor*%
%ADD29C,0.25400*%
%ADD46C,0.25000*%
%ADD47C,0.50800*%
%ADD48C,0.20000*%
%ADD49C,0.15240*%
%ADD50C,0.12700*%
%ADD51C,0.40000*%
G36*
X6360094Y8363348D02*
X6341234D01*
Y8369634D01*
X6360094D01*
Y8363348D01*
D02*
G37*
G36*
X6322374Y8357061D02*
X6290941D01*
Y8363348D01*
X6322374D01*
Y8357061D01*
D02*
G37*
G36*
X6290941Y8350774D02*
X6259508D01*
Y8344488D01*
X6221789D01*
Y8338201D01*
X6190356D01*
Y8331914D01*
X6158923D01*
Y8325628D01*
X6127489D01*
Y8319341D01*
X6096056D01*
Y8313054D01*
X6064623D01*
Y8306768D01*
X6039477D01*
Y8300481D01*
X6008044D01*
Y8294195D01*
X5982897D01*
Y8287908D01*
X5951464D01*
Y8281621D01*
X5926318D01*
Y8275335D01*
X5894885D01*
Y8269048D01*
X5869738D01*
Y8262762D01*
X5844592D01*
Y8256475D01*
X5819446D01*
Y8250188D01*
X5794299D01*
Y8243902D01*
X5769153D01*
Y8237615D01*
X5744006D01*
Y8231328D01*
X5718860D01*
Y8225042D01*
X5693713D01*
Y8218755D01*
X5668567D01*
Y8212469D01*
X5643421D01*
Y8206182D01*
X5624561D01*
Y8199895D01*
X5599414D01*
Y8193609D01*
X5580554D01*
Y8187322D01*
X5555408D01*
Y8181036D01*
X5530261D01*
Y8174749D01*
X5511402D01*
Y8168462D01*
X5492542D01*
Y8162176D01*
X5467395D01*
Y8155889D01*
X5448535D01*
Y8149603D01*
X5429676D01*
Y8143316D01*
X5410816D01*
Y8137029D01*
X5391956D01*
Y8130743D01*
X5366810D01*
Y8124456D01*
X5347950D01*
Y8118170D01*
X5329090D01*
Y8111883D01*
X5310230D01*
Y8105596D01*
X5291370D01*
Y8099310D01*
X5272510D01*
Y8093023D01*
X5259937D01*
Y8086736D01*
X5241077D01*
Y8080450D01*
X5222217D01*
Y8074163D01*
X5203358D01*
Y8067877D01*
X5184498D01*
Y8061590D01*
X5171925D01*
Y8055303D01*
X5153065D01*
Y8049017D01*
X5134205D01*
Y8042730D01*
X5115345D01*
Y8036444D01*
X5102772D01*
Y8030157D01*
X5083912D01*
Y8023870D01*
X5071339D01*
Y8017584D01*
X5052479D01*
Y8011297D01*
X5039906D01*
Y8005011D01*
X5027333D01*
Y7998724D01*
X5008473D01*
Y7992437D01*
X4995900D01*
Y7986151D01*
X4977040D01*
Y7979864D01*
X4964467D01*
Y7973577D01*
X4951893D01*
Y7967291D01*
X4939320D01*
Y7961004D01*
X5090199D01*
Y7954718D01*
X5253651D01*
Y7948431D01*
X5354236D01*
Y7942144D01*
X5429676D01*
Y7935858D01*
X5498828D01*
Y7929571D01*
X5555408D01*
Y7923285D01*
X5605701D01*
Y7916998D01*
X5655994D01*
Y7910711D01*
X5700000D01*
Y7904425D01*
X5744006D01*
Y7898138D01*
X5781726D01*
Y7891852D01*
X5819446D01*
Y7885565D01*
X5857165D01*
Y7879278D01*
X5894885D01*
Y7872992D01*
X5926318D01*
Y7866705D01*
X5957751D01*
Y7860419D01*
X5989184D01*
Y7854132D01*
X6020617D01*
Y7847845D01*
X6045764D01*
Y7841559D01*
X6077197D01*
Y7835272D01*
X6102343D01*
Y7828985D01*
X6127489D01*
Y7822699D01*
X6158923D01*
Y7816412D01*
X6184069D01*
Y7810126D01*
X6209215D01*
Y7803839D01*
X6234362D01*
Y7797552D01*
X6253222D01*
Y7791266D01*
X6278368D01*
Y7784979D01*
X6303515D01*
Y7778693D01*
X6322374D01*
Y7772406D01*
X6347521D01*
Y7766119D01*
X6366381D01*
Y7759833D01*
X6385240D01*
Y7753546D01*
X6410387D01*
Y7747260D01*
X6429247D01*
Y7740973D01*
X6448107D01*
Y7734686D01*
X6466966D01*
Y7728400D01*
X6492113D01*
Y7722113D01*
X6510973D01*
Y7715827D01*
X6529833D01*
Y7709540D01*
X6548693D01*
Y7703253D01*
X6561266D01*
Y7696967D01*
X6580126D01*
Y7690680D01*
X6598985D01*
Y7684393D01*
X6617845D01*
Y7678107D01*
X6636705D01*
Y7671820D01*
X6649278D01*
Y7665534D01*
X6668138D01*
Y7659247D01*
X6686998D01*
Y7652960D01*
X6699571D01*
Y7646674D01*
X6718431D01*
Y7640387D01*
X6737291D01*
Y7634101D01*
X6749864D01*
Y7627814D01*
X6768724D01*
Y7621527D01*
X6781297D01*
Y7615241D01*
X6793870D01*
Y7608954D01*
X6812730D01*
Y7602668D01*
X6825303D01*
Y7596381D01*
X6844163D01*
Y7590094D01*
X6856736D01*
Y7583808D01*
X6869310D01*
Y7577521D01*
X6888169D01*
Y7571235D01*
X6900743D01*
Y7564948D01*
X6913316D01*
Y7558661D01*
X6925889D01*
Y7552375D01*
X6938462D01*
Y7546088D01*
X6957322D01*
Y7539801D01*
X6969895D01*
Y7533515D01*
X6982469D01*
Y7527228D01*
X6995042D01*
Y7520942D01*
X7007615D01*
Y7514655D01*
X7020188D01*
Y7508368D01*
X7032761D01*
Y7502082D01*
X7045335D01*
Y7495795D01*
X7057908D01*
Y7489509D01*
X7070481D01*
Y7483222D01*
X7083054D01*
Y7476935D01*
X7095628D01*
Y7470649D01*
X7108201D01*
Y7464362D01*
X7120774D01*
Y7458076D01*
X7133347D01*
Y7451789D01*
X7145920D01*
Y7445502D01*
X7158494D01*
Y7439215D01*
X7171067D01*
Y7432929D01*
X7177353D01*
Y7426642D01*
X7189927D01*
Y7414069D01*
X6523546D01*
Y7420356D01*
X6510973D01*
Y7426642D01*
X6498399D01*
Y7432929D01*
X6485826D01*
Y7439215D01*
X6473253D01*
Y7445502D01*
X6460680D01*
Y7451789D01*
X6448107D01*
Y7458076D01*
X6435533D01*
Y7464362D01*
X6422960D01*
Y7470649D01*
X6404100D01*
Y7476935D01*
X6391527D01*
Y7483222D01*
X6378954D01*
Y7489509D01*
X6366381D01*
Y7495795D01*
X6347521D01*
Y7502082D01*
X6334948D01*
Y7508368D01*
X6316088D01*
Y7514655D01*
X6303515D01*
Y7520942D01*
X6290941D01*
Y7527228D01*
X6272081D01*
Y7533515D01*
X6259508D01*
Y7539801D01*
X6240648D01*
Y7546088D01*
X6221789D01*
Y7552375D01*
X6209215D01*
Y7558661D01*
X6190356D01*
Y7564948D01*
X6177782D01*
Y7571235D01*
X6158923D01*
Y7577521D01*
X6140063D01*
Y7583808D01*
X6121203D01*
Y7590094D01*
X6102343D01*
Y7596381D01*
X6083483D01*
Y7602668D01*
X6070910D01*
Y7608954D01*
X6045764D01*
Y7615241D01*
X6026904D01*
Y7621527D01*
X6008044D01*
Y7627814D01*
X5989184D01*
Y7634101D01*
X5970324D01*
Y7640387D01*
X5951464D01*
Y7646674D01*
X5926318D01*
Y7652960D01*
X5907458D01*
Y7659247D01*
X5888598D01*
Y7665534D01*
X5863452D01*
Y7671820D01*
X5838305D01*
Y7678107D01*
X5813159D01*
Y7684393D01*
X5794299D01*
Y7690680D01*
X5769153D01*
Y7696967D01*
X5744006D01*
Y7703253D01*
X5718860D01*
Y7709540D01*
X5693713D01*
Y7715827D01*
X5662280D01*
Y7722113D01*
X5637134D01*
Y7728400D01*
X5605701D01*
Y7734686D01*
X5580554D01*
Y7740973D01*
X5549121D01*
Y7747260D01*
X5523975D01*
Y7753546D01*
X5492542D01*
Y7759833D01*
X5454822D01*
Y7766119D01*
X5423389D01*
Y7772406D01*
X5385669D01*
Y7778693D01*
X5347950D01*
Y7784979D01*
X5303943D01*
Y7791266D01*
X5259937D01*
Y7797552D01*
X5215931D01*
Y7803839D01*
X5159351D01*
Y7810126D01*
X5102772D01*
Y7816412D01*
X5033619D01*
Y7822699D01*
X4958180D01*
Y7828985D01*
X4863881D01*
Y7835272D01*
X4675282D01*
Y7828985D01*
X4662709D01*
Y7822699D01*
X4650136D01*
Y7816412D01*
X4643849D01*
Y7810126D01*
X4631276D01*
Y7803839D01*
X4624989D01*
Y7797552D01*
X4612416D01*
Y7791266D01*
X4599843D01*
Y7784979D01*
X4593556D01*
Y7778693D01*
X4580983D01*
Y7772406D01*
X4574697D01*
Y7766119D01*
X4562123D01*
Y7759833D01*
X4555837D01*
Y7753546D01*
X4543263D01*
Y7747260D01*
X4536977D01*
Y7740973D01*
X4524404D01*
Y7734686D01*
X4518117D01*
Y7728400D01*
X4511830D01*
Y7722113D01*
X4499257D01*
Y7715827D01*
X4492971D01*
Y7709540D01*
X4480397D01*
Y7703253D01*
X4474111D01*
Y7696967D01*
X4467824D01*
Y7690680D01*
X4461538D01*
Y7684393D01*
X4448964D01*
Y7678107D01*
X4442678D01*
Y7671820D01*
X4436391D01*
Y7665534D01*
X4430104D01*
Y7659247D01*
X4423818D01*
Y7652960D01*
X4411245D01*
Y7646674D01*
X4404958D01*
Y7640387D01*
X4398671D01*
Y7634101D01*
X4392385D01*
Y7627814D01*
X4386098D01*
Y7621527D01*
X4379812D01*
Y7615241D01*
X4373525D01*
Y7608954D01*
X4367238D01*
Y7602668D01*
X4360952D01*
Y7596381D01*
X4354665D01*
Y7590094D01*
X4348379D01*
Y7583808D01*
X4342092D01*
Y7577521D01*
X4335805D01*
Y7571235D01*
X4329519D01*
Y7564948D01*
X4323232D01*
Y7558661D01*
X4316946D01*
Y7552375D01*
X4310659D01*
Y7546088D01*
X4304372D01*
Y7539801D01*
X4298086D01*
Y7527228D01*
X4291799D01*
Y7520942D01*
X4285512D01*
Y7514655D01*
X4279226D01*
Y7508368D01*
X4272939D01*
Y7495795D01*
X4266653D01*
Y7489509D01*
X4260366D01*
Y7483222D01*
X4254079D01*
Y7470649D01*
X4247793D01*
Y7464362D01*
X4241506D01*
Y7451789D01*
X4235220D01*
Y7439215D01*
X4228933D01*
Y7432929D01*
X4222646D01*
Y7420356D01*
X3820303D01*
Y7426642D01*
X3826590D01*
Y7432929D01*
X3832877D01*
Y7445502D01*
X3839163D01*
Y7458076D01*
X3845450D01*
Y7464362D01*
X3851736D01*
Y7476935D01*
X3858023D01*
Y7483222D01*
X3864310D01*
Y7495795D01*
X3870596D01*
Y7502082D01*
X3876883D01*
Y7508368D01*
X3883170D01*
Y7520942D01*
X3889456D01*
Y7527228D01*
X3895743D01*
Y7533515D01*
X3902029D01*
Y7539801D01*
X3908316D01*
Y7546088D01*
X3914603D01*
Y7552375D01*
X3920889D01*
Y7558661D01*
X3927176D01*
Y7564948D01*
X3933462D01*
Y7577521D01*
X3939749D01*
Y7583808D01*
X3946036D01*
Y7590094D01*
X3952322D01*
Y7596381D01*
X3958609D01*
Y7602668D01*
X3971182D01*
Y7608954D01*
X3977469D01*
Y7615241D01*
X3983755D01*
Y7621527D01*
X3990042D01*
Y7627814D01*
X3996328D01*
Y7634101D01*
X4002615D01*
Y7640387D01*
X4008902D01*
Y7646674D01*
X4015188D01*
Y7652960D01*
X4027762D01*
Y7659247D01*
X4034048D01*
Y7665534D01*
X4040335D01*
Y7671820D01*
X4046621D01*
Y7678107D01*
X4059195D01*
Y7684393D01*
X4065481D01*
Y7690680D01*
X4071768D01*
Y7696967D01*
X4084341D01*
Y7703253D01*
X4090628D01*
Y7709540D01*
X4096914D01*
Y7715827D01*
X4109487D01*
Y7722113D01*
X4115774D01*
Y7728400D01*
X4128347D01*
Y7734686D01*
X4134634D01*
Y7740973D01*
X4147207D01*
Y7747260D01*
X4153494D01*
Y7753546D01*
X4166067D01*
Y7759833D01*
X4178640D01*
Y7766119D01*
X4184927D01*
Y7772406D01*
X4197500D01*
Y7778693D01*
X4203787D01*
Y7784979D01*
X4216360D01*
Y7791266D01*
X4228933D01*
Y7797552D01*
X4241506D01*
Y7803839D01*
X4247793D01*
Y7810126D01*
X4260366D01*
Y7816412D01*
X4272939D01*
Y7822699D01*
X4235220D01*
Y7816412D01*
X4172354D01*
Y7810126D01*
X4122061D01*
Y7803839D01*
X4078054D01*
Y7797552D01*
X4027762D01*
Y7791266D01*
X3990042D01*
Y7784979D01*
X3952322D01*
Y7778693D01*
X3914603D01*
Y7772406D01*
X3883170D01*
Y7766119D01*
X3851736D01*
Y7759833D01*
X3814017D01*
Y7753546D01*
X3788870D01*
Y7747260D01*
X3757437D01*
Y7740973D01*
X3732291D01*
Y7734686D01*
X3700858D01*
Y7728400D01*
X3675711D01*
Y7722113D01*
X3650565D01*
Y7715827D01*
X3631705D01*
Y7709540D01*
X3606558D01*
Y7703253D01*
X3581412D01*
Y7696967D01*
X3556266D01*
Y7690680D01*
X3537406D01*
Y7684393D01*
X3512259D01*
Y7678107D01*
X3493399D01*
Y7671820D01*
X3474540D01*
Y7665534D01*
X3455680D01*
Y7659247D01*
X3430533D01*
Y7652960D01*
X3411674D01*
Y7646674D01*
X3392814D01*
Y7640387D01*
X3373954D01*
Y7634101D01*
X3355094D01*
Y7627814D01*
X3342521D01*
Y7621527D01*
X3323661D01*
Y7615241D01*
X3304801D01*
Y7608954D01*
X3285941D01*
Y7602668D01*
X3267082D01*
Y7596381D01*
X3254508D01*
Y7590094D01*
X3235649D01*
Y7583808D01*
X3216789D01*
Y7577521D01*
X3204215D01*
Y7571235D01*
X3185356D01*
Y7564948D01*
X3172782D01*
Y7558661D01*
X3153923D01*
Y7552375D01*
X3141349D01*
Y7546088D01*
X3128776D01*
Y7539801D01*
X3109916D01*
Y7533515D01*
X3097343D01*
Y7527228D01*
X3084770D01*
Y7520942D01*
X3065910D01*
Y7514655D01*
X3053337D01*
Y7508368D01*
X3040764D01*
Y7502082D01*
X3028190D01*
Y7495795D01*
X3015617D01*
Y7489509D01*
X3003044D01*
Y7483222D01*
X2984184D01*
Y7476935D01*
X2971611D01*
Y7470649D01*
X2959038D01*
Y7464362D01*
X2946464D01*
Y7458076D01*
X2933891D01*
Y7451789D01*
X2921318D01*
Y7445502D01*
X2908745D01*
Y7439215D01*
X2896171D01*
Y7432929D01*
X2883598D01*
Y7426642D01*
X2871025D01*
Y7420356D01*
X2858452D01*
Y7414069D01*
X2795586D01*
Y7426642D01*
X2801872D01*
Y7432929D01*
X2814445D01*
Y7439215D01*
X2827019D01*
Y7445502D01*
X2839592D01*
Y7451789D01*
X2852165D01*
Y7458076D01*
X2864738D01*
Y7464362D01*
X2877312D01*
Y7470649D01*
X2883598D01*
Y7476935D01*
X2896171D01*
Y7483222D01*
X2908745D01*
Y7489509D01*
X2921318D01*
Y7495795D01*
X2933891D01*
Y7502082D01*
X2946464D01*
Y7508368D01*
X2959038D01*
Y7514655D01*
X2971611D01*
Y7520942D01*
X2984184D01*
Y7527228D01*
X3003044D01*
Y7533515D01*
X3015617D01*
Y7539801D01*
X3028190D01*
Y7546088D01*
X3040764D01*
Y7552375D01*
X3053337D01*
Y7558661D01*
X3065910D01*
Y7564948D01*
X3084770D01*
Y7571235D01*
X3097343D01*
Y7577521D01*
X3109916D01*
Y7583808D01*
X3122490D01*
Y7590094D01*
X3141349D01*
Y7596381D01*
X3153923D01*
Y7602668D01*
X3166496D01*
Y7608954D01*
X3185356D01*
Y7615241D01*
X3197929D01*
Y7621527D01*
X3216789D01*
Y7627814D01*
X3229362D01*
Y7634101D01*
X3248222D01*
Y7640387D01*
X3260795D01*
Y7646674D01*
X3279655D01*
Y7652960D01*
X3292228D01*
Y7659247D01*
X3311088D01*
Y7665534D01*
X3329948D01*
Y7671820D01*
X3342521D01*
Y7678107D01*
X3361381D01*
Y7684393D01*
X3380241D01*
Y7690680D01*
X3399100D01*
Y7696967D01*
X3411674D01*
Y7703253D01*
X3430533D01*
Y7709540D01*
X3449393D01*
Y7715827D01*
X3468253D01*
Y7722113D01*
X3487113D01*
Y7728400D01*
X3505973D01*
Y7734686D01*
X3524833D01*
Y7740973D01*
X3549979D01*
Y7747260D01*
X3568839D01*
Y7753546D01*
X3587699D01*
Y7759833D01*
X3612845D01*
Y7766119D01*
X3631705D01*
Y7772406D01*
X3650565D01*
Y7778693D01*
X3675711D01*
Y7784979D01*
X3700858D01*
Y7791266D01*
X3719717D01*
Y7797552D01*
X3744864D01*
Y7803839D01*
X3770010D01*
Y7810126D01*
X3795157D01*
Y7816412D01*
X3820303D01*
Y7822699D01*
X3845450D01*
Y7828985D01*
X3870596D01*
Y7835272D01*
X3902029D01*
Y7841559D01*
X3927176D01*
Y7847845D01*
X3958609D01*
Y7854132D01*
X3983755D01*
Y7860419D01*
X4015188D01*
Y7866705D01*
X4046621D01*
Y7872992D01*
X4084341D01*
Y7879278D01*
X4115774D01*
Y7885565D01*
X4153494D01*
Y7891852D01*
X4191213D01*
Y7898138D01*
X4228933D01*
Y7904425D01*
X4272939D01*
Y7910711D01*
X4316946D01*
Y7916998D01*
X4367238D01*
Y7923285D01*
X4423818D01*
Y7929571D01*
X4480397D01*
Y7935858D01*
X4524404D01*
Y7942144D01*
X4543263D01*
Y7948431D01*
X4555837D01*
Y7954718D01*
X4574697D01*
Y7961004D01*
X4587270D01*
Y7967291D01*
X4606130D01*
Y7973577D01*
X4618703D01*
Y7979864D01*
X4637563D01*
Y7986151D01*
X4656422D01*
Y7992437D01*
X4668996D01*
Y7998724D01*
X4687855D01*
Y8005011D01*
X4706716D01*
Y8011297D01*
X4725575D01*
Y8017584D01*
X4744435D01*
Y8023870D01*
X4763295D01*
Y8030157D01*
X4782155D01*
Y8036444D01*
X4794728D01*
Y8042730D01*
X4819875D01*
Y8049017D01*
X4838734D01*
Y8055303D01*
X4857594D01*
Y8061590D01*
X4876454D01*
Y8067877D01*
X4895314D01*
Y8074163D01*
X4920460D01*
Y8080450D01*
X4939320D01*
Y8086736D01*
X4958180D01*
Y8093023D01*
X4983326D01*
Y8099310D01*
X5002186D01*
Y8105596D01*
X5027333D01*
Y8111883D01*
X5046192D01*
Y8118170D01*
X5071339D01*
Y8124456D01*
X5090199D01*
Y8130743D01*
X5115345D01*
Y8137029D01*
X5140492D01*
Y8143316D01*
X5165638D01*
Y8149603D01*
X5190784D01*
Y8155889D01*
X5215931D01*
Y8162176D01*
X5241077D01*
Y8168462D01*
X5266224D01*
Y8174749D01*
X5291370D01*
Y8181036D01*
X5316517D01*
Y8187322D01*
X5347950D01*
Y8193609D01*
X5373096D01*
Y8199895D01*
X5398243D01*
Y8206182D01*
X5429676D01*
Y8212469D01*
X5461109D01*
Y8218755D01*
X5486255D01*
Y8225042D01*
X5517688D01*
Y8231328D01*
X5549121D01*
Y8237615D01*
X5580554D01*
Y8243902D01*
X5611988D01*
Y8250188D01*
X5643421D01*
Y8256475D01*
X5674854D01*
Y8262762D01*
X5706287D01*
Y8269048D01*
X5744006D01*
Y8275335D01*
X5775439D01*
Y8281621D01*
X5813159D01*
Y8287908D01*
X5844592D01*
Y8294195D01*
X5882312D01*
Y8300481D01*
X5920031D01*
Y8306768D01*
X5957751D01*
Y8313054D01*
X5995471D01*
Y8319341D01*
X6033190D01*
Y8325628D01*
X6077197D01*
Y8331914D01*
X6121203D01*
Y8338201D01*
X6158923D01*
Y8344488D01*
X6202929D01*
Y8350774D01*
X6246935D01*
Y8357061D01*
X6290941D01*
Y8350774D01*
D02*
G37*
G36*
X3619132Y7344916D02*
X3612845D01*
Y7313483D01*
X3606558D01*
Y7282050D01*
X3600272D01*
Y7250617D01*
X3593985D01*
Y7219184D01*
X3587699D01*
Y7187751D01*
X3581412D01*
Y7156318D01*
X3575125D01*
Y7124885D01*
X3568839D01*
Y7093452D01*
X3562552D01*
Y7062019D01*
X3556266D01*
Y7030586D01*
X3549979D01*
Y6999153D01*
X3543692D01*
Y6974006D01*
X3537406D01*
Y6967720D01*
X3531119D01*
Y6955147D01*
X3518546D01*
Y6948860D01*
X3512259D01*
Y6942573D01*
X3499686D01*
Y6936287D01*
X3480826D01*
Y6930000D01*
X3424247D01*
Y6936287D01*
X3399100D01*
Y6942573D01*
X3386527D01*
Y6948860D01*
X3373954D01*
Y6955147D01*
X3367667D01*
Y6961433D01*
X3361381D01*
Y6967720D01*
X3355094D01*
Y6974006D01*
X3348807D01*
Y6980293D01*
X3336234D01*
Y6986580D01*
X3329948D01*
Y6992866D01*
X3323661D01*
Y6999153D01*
X3317374D01*
Y7005439D01*
X3311088D01*
Y7011726D01*
X3304801D01*
Y7018013D01*
X3292228D01*
Y7024299D01*
X3285941D01*
Y7030586D01*
X3279655D01*
Y7036872D01*
X3273368D01*
Y7043159D01*
X3267082D01*
Y7049446D01*
X3260795D01*
Y7055732D01*
X3254508D01*
Y7062019D01*
X3248222D01*
Y7068306D01*
X3241935D01*
Y7074592D01*
X3235649D01*
Y7080879D01*
X3229362D01*
Y7087165D01*
X3223075D01*
Y7093452D01*
X3210502D01*
Y7099739D01*
X3204215D01*
Y7106025D01*
X3197929D01*
Y7112312D01*
X3191642D01*
Y7118598D01*
X3185356D01*
Y7124885D01*
X3179069D01*
Y7131172D01*
X3172782D01*
Y7137458D01*
X3166496D01*
Y7143745D01*
X3160209D01*
Y7150031D01*
X3153923D01*
Y7156318D01*
X3147636D01*
Y7162605D01*
X3141349D01*
Y7168891D01*
X3135063D01*
Y7175178D01*
X3128776D01*
Y7181464D01*
X3122490D01*
Y7187751D01*
X3116203D01*
Y7194038D01*
X3109916D01*
Y7200324D01*
X3103630D01*
Y7206611D01*
X3097343D01*
Y7212898D01*
X3091057D01*
Y7219184D01*
X3084770D01*
Y7225471D01*
X3078483D01*
Y7231757D01*
X3072197D01*
Y7238044D01*
X3065910D01*
Y7244331D01*
X3053337D01*
Y7219184D01*
X3047050D01*
Y7187751D01*
X3040764D01*
Y7156318D01*
X3034477D01*
Y7124885D01*
X3028190D01*
Y7093452D01*
X3021904D01*
Y7062019D01*
X3015617D01*
Y7030586D01*
X3009331D01*
Y6999153D01*
X3003044D01*
Y6967720D01*
X2996757D01*
Y6936287D01*
X2864738D01*
Y6955147D01*
X2871025D01*
Y6986580D01*
X2877312D01*
Y7018013D01*
X2883598D01*
Y7049446D01*
X2889885D01*
Y7087165D01*
X2896171D01*
Y7118598D01*
X2902458D01*
Y7150031D01*
X2908745D01*
Y7181464D01*
X2915031D01*
Y7212898D01*
X2921318D01*
Y7244331D01*
X2927605D01*
Y7275764D01*
X2933891D01*
Y7294623D01*
X2940178D01*
Y7300910D01*
Y7307197D01*
Y7313483D01*
X2946464D01*
Y7319770D01*
X2952751D01*
Y7326057D01*
X2959038D01*
Y7332343D01*
X2965324D01*
Y7338630D01*
X2971611D01*
Y7344916D01*
X2977898D01*
Y7351203D01*
X2990471D01*
Y7357490D01*
X3009331D01*
Y7363776D01*
X3078483D01*
Y7357490D01*
X3091057D01*
Y7351203D01*
X3103630D01*
Y7344916D01*
X3109916D01*
Y7338630D01*
X3116203D01*
Y7332343D01*
X3122490D01*
Y7326057D01*
X3128776D01*
Y7319770D01*
X3135063D01*
Y7313483D01*
X3147636D01*
Y7307197D01*
X3153923D01*
Y7300910D01*
X3160209D01*
Y7294623D01*
X3166496D01*
Y7288337D01*
X3172782D01*
Y7282050D01*
X3179069D01*
Y7275764D01*
X3185356D01*
Y7269477D01*
X3191642D01*
Y7263190D01*
X3197929D01*
Y7256904D01*
X3204215D01*
Y7250617D01*
X3210502D01*
Y7244331D01*
X3223075D01*
Y7238044D01*
X3229362D01*
Y7231757D01*
X3235649D01*
Y7225471D01*
X3241935D01*
Y7219184D01*
X3248222D01*
Y7212898D01*
X3254508D01*
Y7206611D01*
X3260795D01*
Y7200324D01*
X3267082D01*
Y7194038D01*
X3273368D01*
Y7187751D01*
X3279655D01*
Y7181464D01*
X3285941D01*
Y7175178D01*
X3298515D01*
Y7168891D01*
X3304801D01*
Y7162605D01*
X3311088D01*
Y7156318D01*
X3317374D01*
Y7150031D01*
X3323661D01*
Y7143745D01*
X3329948D01*
Y7137458D01*
X3336234D01*
Y7131172D01*
X3342521D01*
Y7124885D01*
X3348807D01*
Y7118598D01*
X3355094D01*
Y7112312D01*
X3361381D01*
Y7106025D01*
X3367667D01*
Y7099739D01*
X3380241D01*
Y7093452D01*
X3386527D01*
Y7087165D01*
X3392814D01*
Y7080879D01*
X3399100D01*
Y7074592D01*
X3405387D01*
Y7068306D01*
X3411674D01*
Y7062019D01*
X3417960D01*
Y7074592D01*
X3424247D01*
Y7099739D01*
X3430533D01*
Y7131172D01*
X3436820D01*
Y7156318D01*
X3443107D01*
Y7187751D01*
X3449393D01*
Y7212898D01*
X3455680D01*
Y7244331D01*
X3461966D01*
Y7275764D01*
X3468253D01*
Y7300910D01*
X3474540D01*
Y7332343D01*
X3480826D01*
Y7357490D01*
X3487113D01*
Y7363776D01*
X3619132D01*
Y7344916D01*
D02*
G37*
G36*
X7045335Y7181464D02*
X7039048D01*
Y7150031D01*
X7032761D01*
Y7118598D01*
X7026475D01*
Y7106025D01*
X6636705D01*
Y7080879D01*
X6630418D01*
Y7049446D01*
X6624132D01*
Y7030586D01*
X7158494D01*
Y7018013D01*
X7152207D01*
Y6986580D01*
X7145920D01*
Y6955147D01*
X7139634D01*
Y6936287D01*
X6466966D01*
Y6942573D01*
X6473253D01*
Y6974006D01*
X6479540D01*
Y7005439D01*
X6485826D01*
Y7036872D01*
X6492113D01*
Y7068306D01*
X6498399D01*
Y7099739D01*
X6504686D01*
Y7131172D01*
X6510973D01*
Y7162605D01*
X6517259D01*
Y7194038D01*
X6523546D01*
Y7200324D01*
X7045335D01*
Y7181464D01*
D02*
G37*
G36*
X7202500Y7351203D02*
X7196213D01*
Y7326057D01*
X7189927D01*
Y7294623D01*
X7183640D01*
Y7275764D01*
X5894885D01*
Y7244331D01*
X5888598D01*
Y7212898D01*
X5882312D01*
Y7181464D01*
X5876025D01*
Y7150031D01*
X5869738D01*
Y7118598D01*
X5863452D01*
Y7087165D01*
X5857165D01*
Y7055732D01*
X5850879D01*
Y7024299D01*
X6441820D01*
Y6999153D01*
X6435533D01*
Y6967720D01*
X6429247D01*
Y6942573D01*
X6422960D01*
Y6936287D01*
X5737720D01*
Y6942573D01*
X5725146D01*
Y6948860D01*
X5712573D01*
Y6961433D01*
X5706287D01*
Y7011726D01*
X5712573D01*
Y7043159D01*
X5718860D01*
Y7074592D01*
X5725146D01*
Y7106025D01*
X5731433D01*
Y7137458D01*
X5737720D01*
Y7168891D01*
X5744006D01*
Y7200324D01*
X5750293D01*
Y7231757D01*
X5756580D01*
Y7263190D01*
X5762866D01*
Y7294623D01*
X5769153D01*
Y7313483D01*
X5775439D01*
Y7326057D01*
X5781726D01*
Y7338630D01*
X5788013D01*
Y7344916D01*
X5794299D01*
Y7351203D01*
X5806872D01*
Y7357490D01*
X5819446D01*
Y7363776D01*
X7202500D01*
Y7351203D01*
D02*
G37*
G36*
X5693713Y7357490D02*
X5706287D01*
Y7351203D01*
X5718860D01*
Y7344916D01*
X5725146D01*
Y7332343D01*
X5731433D01*
Y7282050D01*
X5725146D01*
Y7250617D01*
X5718860D01*
Y7219184D01*
X5712573D01*
Y7187751D01*
X5706287D01*
Y7156318D01*
X5700000D01*
Y7124885D01*
X5693713D01*
Y7093452D01*
X5687427D01*
Y7062019D01*
X5681140D01*
Y7030586D01*
X5674854D01*
Y6999153D01*
X5668567D01*
Y6967720D01*
X5662280D01*
Y6942573D01*
X5655994D01*
Y6936287D01*
X5530261D01*
Y6955147D01*
X5536548D01*
Y6986580D01*
X5542835D01*
Y7011726D01*
Y7018013D01*
X5549121D01*
Y7049446D01*
X5555408D01*
Y7080879D01*
X5561694D01*
Y7106025D01*
X5184498D01*
Y7137458D01*
X5190784D01*
Y7168891D01*
X5197071D01*
Y7194038D01*
X5580554D01*
Y7200324D01*
X5586841D01*
Y7238044D01*
X5593127D01*
Y7275764D01*
X5146778D01*
Y7288337D01*
X5153065D01*
Y7319770D01*
X5159351D01*
Y7351203D01*
X5165638D01*
Y7363776D01*
X5693713D01*
Y7357490D01*
D02*
G37*
G36*
X5090199D02*
X5102772D01*
Y7351203D01*
X5109059D01*
Y7344916D01*
X5115345D01*
Y7326057D01*
X5121632D01*
Y7307197D01*
X5115345D01*
Y7269477D01*
X5109059D01*
Y7238044D01*
X5102772D01*
Y7206611D01*
X5096485D01*
Y7175178D01*
X5090199D01*
Y7156318D01*
X5083912D01*
Y7143745D01*
X5077625D01*
Y7137458D01*
X5071339D01*
Y7131172D01*
X5065052D01*
Y7124885D01*
X5058766D01*
Y7118598D01*
X5046192D01*
Y7112312D01*
X5021046D01*
Y7106025D01*
X4536977D01*
Y7080879D01*
X4530690D01*
Y7049446D01*
X4524404D01*
Y7018013D01*
X4518117D01*
Y6986580D01*
X4511830D01*
Y6961433D01*
X4505544D01*
Y6936287D01*
X4373525D01*
Y6948860D01*
X4379812D01*
Y6980293D01*
X4386098D01*
Y7011726D01*
X4392385D01*
Y7043159D01*
X4398671D01*
Y7074592D01*
X4404958D01*
Y7106025D01*
X4411245D01*
Y7137458D01*
X4417531D01*
Y7168891D01*
X4423818D01*
Y7194038D01*
X4430104D01*
Y7200324D01*
X4970753D01*
Y7225471D01*
X4977040D01*
Y7256904D01*
X4983326D01*
Y7275764D01*
X3770010D01*
Y7250617D01*
X3763724D01*
Y7219184D01*
X3757437D01*
Y7200324D01*
X4291799D01*
Y7187751D01*
X4285512D01*
Y7156318D01*
X4279226D01*
Y7124885D01*
X4272939D01*
Y7093452D01*
X4266653D01*
Y7062019D01*
X4260366D01*
Y7030586D01*
X4254079D01*
Y6999153D01*
X4247793D01*
Y6980293D01*
X4241506D01*
Y6967720D01*
X4235220D01*
Y6961433D01*
X4228933D01*
Y6955147D01*
X4222646D01*
Y6948860D01*
X4210073D01*
Y6942573D01*
X4191213D01*
Y6936287D01*
X3568839D01*
Y6955147D01*
X3575125D01*
Y6986580D01*
X3581412D01*
Y7018013D01*
X3587699D01*
Y7024299D01*
X4128347D01*
Y7049446D01*
X4134634D01*
Y7080879D01*
X4140920D01*
Y7106025D01*
X3606558D01*
Y7137458D01*
X3612845D01*
Y7168891D01*
X3619132D01*
Y7200324D01*
X3625418D01*
Y7231757D01*
X3631705D01*
Y7263190D01*
X3637991D01*
Y7294623D01*
X3644278D01*
Y7319770D01*
X3650565D01*
Y7326057D01*
X3656851D01*
Y7338630D01*
X3663138D01*
Y7344916D01*
X3669425D01*
Y7351203D01*
X3681998D01*
Y7357490D01*
X3694571D01*
Y7363776D01*
X5090199D01*
Y7357490D01*
D02*
G37*
G36*
X2915031Y7344916D02*
X2908745D01*
Y7313483D01*
X2902458D01*
Y7282050D01*
X2896171D01*
Y7250617D01*
X2889885D01*
Y7219184D01*
X2883598D01*
Y7187751D01*
X2877312D01*
Y7156318D01*
X2871025D01*
Y7124885D01*
X2864738D01*
Y7093452D01*
X2858452D01*
Y7062019D01*
X2852165D01*
Y7030586D01*
X2845878D01*
Y6999153D01*
X2839592D01*
Y6967720D01*
X2833305D01*
Y6936287D01*
X2695000D01*
Y6955147D01*
X2701286D01*
Y6986580D01*
X2707573D01*
Y7018013D01*
X2713860D01*
Y7043159D01*
X2720146D01*
Y7074592D01*
X2726433D01*
Y7106025D01*
X2732720D01*
Y7137458D01*
X2739006D01*
Y7168891D01*
X2745293D01*
Y7200324D01*
X2751579D01*
Y7231757D01*
X2757866D01*
Y7263190D01*
X2764153D01*
Y7294623D01*
X2770439D01*
Y7326057D01*
X2776726D01*
Y7357490D01*
X2783012D01*
Y7363776D01*
X2915031D01*
Y7344916D01*
D02*
G37*
D29*
X6350000Y2340000D02*
X7460000D01*
X6350000Y4100000D02*
X7460000D01*
Y2340000D02*
Y4100000D01*
X6350000Y2340000D02*
Y4100000D01*
X2060400Y5902868D02*
X2077061Y5919529D01*
X2110384D01*
X2127045Y5902868D01*
Y5886206D01*
X2110384Y5869545D01*
X2093723D01*
X2110384D01*
X2127045Y5852884D01*
Y5836223D01*
X2110384Y5819561D01*
X2077061D01*
X2060400Y5836223D01*
X2160368Y5819561D02*
Y5836223D01*
X2177029D01*
Y5819561D01*
X2160368D01*
X2243674Y5902868D02*
X2260336Y5919529D01*
X2293658D01*
X2310319Y5902868D01*
Y5886206D01*
X2293658Y5869545D01*
X2276997D01*
X2293658D01*
X2310319Y5852884D01*
Y5836223D01*
X2293658Y5819561D01*
X2260336D01*
X2243674Y5836223D01*
X2343642Y5919529D02*
Y5852884D01*
X2376965Y5819561D01*
X2410287Y5852884D01*
Y5919529D01*
X2443610Y5802900D02*
X2510255D01*
X2593561Y5919529D02*
X2560239D01*
X2543578Y5902868D01*
Y5836223D01*
X2560239Y5819561D01*
X2593561D01*
X2610223Y5836223D01*
Y5902868D01*
X2593561Y5919529D01*
X2643545D02*
Y5836223D01*
X2660207Y5819561D01*
X2693529D01*
X2710190Y5836223D01*
Y5919529D01*
X2743513D02*
X2810158D01*
X2776836D01*
Y5819561D01*
X2060400Y5640368D02*
X2077061Y5657029D01*
X2110384D01*
X2127045Y5640368D01*
Y5623706D01*
X2110384Y5607045D01*
X2093723D01*
X2110384D01*
X2127045Y5590384D01*
Y5573723D01*
X2110384Y5557061D01*
X2077061D01*
X2060400Y5573723D01*
X2160368Y5557061D02*
Y5573723D01*
X2177029D01*
Y5557061D01*
X2160368D01*
X2243674Y5640368D02*
X2260336Y5657029D01*
X2293658D01*
X2310319Y5640368D01*
Y5623706D01*
X2293658Y5607045D01*
X2276997D01*
X2293658D01*
X2310319Y5590384D01*
Y5573723D01*
X2293658Y5557061D01*
X2260336D01*
X2243674Y5573723D01*
X2343642Y5657029D02*
Y5590384D01*
X2376965Y5557061D01*
X2410287Y5590384D01*
Y5657029D01*
X2443610Y5540400D02*
X2510255D01*
X2593561Y5657029D02*
X2560239D01*
X2543578Y5640368D01*
Y5573723D01*
X2560239Y5557061D01*
X2593561D01*
X2610223Y5573723D01*
Y5640368D01*
X2593561Y5657029D01*
X2643545D02*
Y5573723D01*
X2660207Y5557061D01*
X2693529D01*
X2710190Y5573723D01*
Y5657029D01*
X2743513D02*
X2810158D01*
X2776836D01*
Y5557061D01*
X617900Y5900368D02*
X634561Y5917029D01*
X667884D01*
X684545Y5900368D01*
Y5883706D01*
X667884Y5867045D01*
X651222D01*
X667884D01*
X684545Y5850384D01*
Y5833723D01*
X667884Y5817061D01*
X634561D01*
X617900Y5833723D01*
X717868Y5917029D02*
Y5850384D01*
X751190Y5817061D01*
X784513Y5850384D01*
Y5917029D01*
X817836Y5800400D02*
X884481D01*
X917803Y5817061D02*
Y5917029D01*
X967787D01*
X984448Y5900368D01*
Y5867045D01*
X967787Y5850384D01*
X917803D01*
X951126D02*
X984448Y5817061D01*
X1084416Y5917029D02*
X1017771D01*
Y5817061D01*
X1084416D01*
X1017771Y5867045D02*
X1051094D01*
X1184384Y5900368D02*
X1167723Y5917029D01*
X1134400D01*
X1117739Y5900368D01*
Y5833723D01*
X1134400Y5817061D01*
X1167723D01*
X1184384Y5833723D01*
Y5867045D01*
X1151061D01*
X495400Y5647868D02*
X512061Y5664529D01*
X545384D01*
X562045Y5647868D01*
Y5631206D01*
X545384Y5614545D01*
X528723D01*
X545384D01*
X562045Y5597884D01*
Y5581223D01*
X545384Y5564561D01*
X512061D01*
X495400Y5581223D01*
X595368Y5564561D02*
Y5581223D01*
X612029D01*
Y5564561D01*
X595368D01*
X678674Y5647868D02*
X695336Y5664529D01*
X728658D01*
X745319Y5647868D01*
Y5631206D01*
X728658Y5614545D01*
X711997D01*
X728658D01*
X745319Y5597884D01*
Y5581223D01*
X728658Y5564561D01*
X695336D01*
X678674Y5581223D01*
X778642Y5664529D02*
Y5597884D01*
X811965Y5564561D01*
X845287Y5597884D01*
Y5664529D01*
X878610Y5547900D02*
X945255D01*
X978578Y5664529D02*
Y5564561D01*
X1028562D01*
X1045223Y5581223D01*
Y5597884D01*
X1028562Y5614545D01*
X978578D01*
X1028562D01*
X1045223Y5631206D01*
Y5647868D01*
X1028562Y5664529D01*
X978578D01*
X1128529D02*
X1095207D01*
X1078545Y5647868D01*
Y5581223D01*
X1095207Y5564561D01*
X1128529D01*
X1145190Y5581223D01*
Y5647868D01*
X1128529Y5664529D01*
X1178513Y5564561D02*
Y5631206D01*
X1211836Y5664529D01*
X1245158Y5631206D01*
Y5564561D01*
Y5614545D01*
X1178513D01*
X1278481Y5564561D02*
Y5664529D01*
X1328465D01*
X1345126Y5647868D01*
Y5614545D01*
X1328465Y5597884D01*
X1278481D01*
X1311804D02*
X1345126Y5564561D01*
X1378449Y5664529D02*
Y5564561D01*
X1428433D01*
X1445094Y5581223D01*
Y5647868D01*
X1428433Y5664529D01*
X1378449D01*
X2060400Y4157029D02*
Y4073723D01*
X2077061Y4057061D01*
X2110384D01*
X2127045Y4073723D01*
Y4157029D01*
X2160368Y4057061D02*
Y4123707D01*
X2193690Y4157029D01*
X2227013Y4123707D01*
Y4057061D01*
Y4107045D01*
X2160368D01*
X2260336Y4057061D02*
Y4157029D01*
X2310319D01*
X2326981Y4140368D01*
Y4107045D01*
X2310319Y4090384D01*
X2260336D01*
X2293658D02*
X2326981Y4057061D01*
X2360303Y4157029D02*
X2426948D01*
X2393626D01*
Y4057061D01*
X2526916D02*
X2460271D01*
X2526916Y4123707D01*
Y4140368D01*
X2510255Y4157029D01*
X2476933D01*
X2460271Y4140368D01*
X2560239Y4040400D02*
X2626884D01*
X2660207Y4157029D02*
X2726852D01*
X2693529D01*
Y4057061D01*
X2760175Y4157029D02*
X2826820Y4057061D01*
Y4157029D02*
X2760175Y4057061D01*
X2060400Y4909529D02*
Y4826223D01*
X2077061Y4809561D01*
X2110384D01*
X2127045Y4826223D01*
Y4909529D01*
X2160368Y4809561D02*
Y4876206D01*
X2193690Y4909529D01*
X2227013Y4876206D01*
Y4809561D01*
Y4859545D01*
X2160368D01*
X2260336Y4809561D02*
Y4909529D01*
X2310319D01*
X2326981Y4892868D01*
Y4859545D01*
X2310319Y4842884D01*
X2260336D01*
X2293658D02*
X2326981Y4809561D01*
X2360303Y4909529D02*
X2426948D01*
X2393626D01*
Y4809561D01*
X2460271D02*
X2493594D01*
X2476933D01*
Y4909529D01*
X2460271Y4892868D01*
X2543578Y4792900D02*
X2610223D01*
X2643545Y4809561D02*
Y4909529D01*
X2693529D01*
X2710190Y4892868D01*
Y4859545D01*
X2693529Y4842884D01*
X2643545D01*
X2676868D02*
X2710190Y4809561D01*
X2743513Y4909529D02*
X2810158Y4809561D01*
Y4909529D02*
X2743513Y4809561D01*
X2060400Y4392029D02*
Y4308723D01*
X2077061Y4292061D01*
X2110384D01*
X2127045Y4308723D01*
Y4392029D01*
X2160368Y4292061D02*
Y4358706D01*
X2193690Y4392029D01*
X2227013Y4358706D01*
Y4292061D01*
Y4342045D01*
X2160368D01*
X2260336Y4292061D02*
Y4392029D01*
X2310319D01*
X2326981Y4375368D01*
Y4342045D01*
X2310319Y4325384D01*
X2260336D01*
X2293658D02*
X2326981Y4292061D01*
X2360303Y4392029D02*
X2426948D01*
X2393626D01*
Y4292061D01*
X2526916D02*
X2460271D01*
X2526916Y4358706D01*
Y4375368D01*
X2510255Y4392029D01*
X2476933D01*
X2460271Y4375368D01*
X2560239Y4275400D02*
X2626884D01*
X2660207Y4292061D02*
Y4392029D01*
X2710191D01*
X2726852Y4375368D01*
Y4342045D01*
X2710191Y4325384D01*
X2660207D01*
X2693529D02*
X2726852Y4292061D01*
X2760175Y4392029D02*
X2826820Y4292061D01*
Y4392029D02*
X2760175Y4292061D01*
X2060400Y4654529D02*
Y4571223D01*
X2077061Y4554561D01*
X2110384D01*
X2127045Y4571223D01*
Y4654529D01*
X2160368Y4554561D02*
Y4621206D01*
X2193690Y4654529D01*
X2227013Y4621206D01*
Y4554561D01*
Y4604545D01*
X2160368D01*
X2260336Y4554561D02*
Y4654529D01*
X2310319D01*
X2326981Y4637868D01*
Y4604545D01*
X2310319Y4587884D01*
X2260336D01*
X2293658D02*
X2326981Y4554561D01*
X2360303Y4654529D02*
X2426948D01*
X2393626D01*
Y4554561D01*
X2460271D02*
X2493594D01*
X2476933D01*
Y4654529D01*
X2460271Y4637868D01*
X2543578Y4537900D02*
X2610223D01*
X2643545Y4654529D02*
X2710190D01*
X2676868D01*
Y4554561D01*
X2743513Y4654529D02*
X2810158Y4554561D01*
Y4654529D02*
X2743513Y4554561D01*
X2060400Y5164529D02*
Y5081223D01*
X2077061Y5064561D01*
X2110384D01*
X2127045Y5081223D01*
Y5164529D01*
X2160368Y5064561D02*
Y5131206D01*
X2193690Y5164529D01*
X2227013Y5131206D01*
Y5064561D01*
Y5114545D01*
X2160368D01*
X2260336Y5064561D02*
Y5164529D01*
X2310319D01*
X2326981Y5147868D01*
Y5114545D01*
X2310319Y5097884D01*
X2260336D01*
X2293658D02*
X2326981Y5064561D01*
X2360303Y5164529D02*
X2426948D01*
X2393626D01*
Y5064561D01*
X2460271Y5147868D02*
X2476933Y5164529D01*
X2510255D01*
X2526916Y5147868D01*
Y5081223D01*
X2510255Y5064561D01*
X2476933D01*
X2460271Y5081223D01*
Y5147868D01*
X2560239Y5047900D02*
X2626884D01*
X2660207Y5164529D02*
X2726852D01*
X2693529D01*
Y5064561D01*
X2760175Y5164529D02*
X2826820Y5064561D01*
Y5164529D02*
X2760175Y5064561D01*
X2060400Y5399529D02*
Y5316223D01*
X2077061Y5299561D01*
X2110384D01*
X2127045Y5316223D01*
Y5399529D01*
X2160368Y5299561D02*
Y5366206D01*
X2193690Y5399529D01*
X2227013Y5366206D01*
Y5299561D01*
Y5349545D01*
X2160368D01*
X2260336Y5299561D02*
Y5399529D01*
X2310319D01*
X2326981Y5382868D01*
Y5349545D01*
X2310319Y5332884D01*
X2260336D01*
X2293658D02*
X2326981Y5299561D01*
X2360303Y5399529D02*
X2426948D01*
X2393626D01*
Y5299561D01*
X2460271Y5382868D02*
X2476933Y5399529D01*
X2510255D01*
X2526916Y5382868D01*
Y5316223D01*
X2510255Y5299561D01*
X2476933D01*
X2460271Y5316223D01*
Y5382868D01*
X2560239Y5282900D02*
X2626884D01*
X2660207Y5299561D02*
Y5399529D01*
X2710191D01*
X2726852Y5382868D01*
Y5349545D01*
X2710191Y5332884D01*
X2660207D01*
X2693529D02*
X2726852Y5299561D01*
X2760175Y5399529D02*
X2826820Y5299561D01*
Y5399529D02*
X2760175Y5299561D01*
X1078545Y5419529D02*
Y5319561D01*
X1145190D01*
X1178513Y5302900D02*
X1245158D01*
X1278481Y5419529D02*
X1345126D01*
X1311804D01*
Y5319561D01*
X1378449Y5419529D02*
X1445094Y5319561D01*
Y5419529D02*
X1378449Y5319561D01*
X1078545Y5157029D02*
Y5057061D01*
X1145190D01*
X1178513Y5040400D02*
X1245158D01*
X1278481Y5057061D02*
Y5157029D01*
X1328465D01*
X1345126Y5140368D01*
Y5107045D01*
X1328465Y5090384D01*
X1278481D01*
X1311804D02*
X1345126Y5057061D01*
X1378449Y5157029D02*
X1445094Y5057061D01*
Y5157029D02*
X1378449Y5057061D01*
X1078545Y4889529D02*
Y4789561D01*
X1145190D01*
X1178513Y4772900D02*
X1245158D01*
X1278481Y4889529D02*
X1345126D01*
X1311804D01*
Y4789561D01*
X1378449Y4889529D02*
X1445094Y4789561D01*
Y4889529D02*
X1378449Y4789561D01*
X1078545Y4657029D02*
Y4557061D01*
X1145190D01*
X1178513Y4540400D02*
X1245158D01*
X1278481Y4557061D02*
Y4657029D01*
X1328465D01*
X1345126Y4640368D01*
Y4607045D01*
X1328465Y4590384D01*
X1278481D01*
X1311804D02*
X1345126Y4557061D01*
X1378449Y4657029D02*
X1445094Y4557061D01*
Y4657029D02*
X1378449Y4557061D01*
X1078545Y4147029D02*
Y4047062D01*
X1145190D01*
X1178513Y4030400D02*
X1245158D01*
X1278481Y4047062D02*
Y4147029D01*
X1328465D01*
X1345126Y4130368D01*
Y4097045D01*
X1328465Y4080384D01*
X1278481D01*
X1311804D02*
X1345126Y4047062D01*
X1378449Y4147029D02*
X1445094Y4047062D01*
Y4147029D02*
X1378449Y4047062D01*
X1078545Y4389529D02*
Y4289561D01*
X1145190D01*
X1178513Y4272900D02*
X1245158D01*
X1278481Y4389529D02*
X1345126D01*
X1311804D01*
Y4289561D01*
X1378449Y4389529D02*
X1445094Y4289561D01*
Y4389529D02*
X1378449Y4289561D01*
X8792900Y5435368D02*
Y5352061D01*
X8809562Y5335400D01*
X8842884D01*
X8859545Y5352061D01*
Y5435368D01*
X8892868Y5335400D02*
Y5402045D01*
X8926190Y5435368D01*
X8959513Y5402045D01*
Y5335400D01*
Y5385384D01*
X8892868D01*
X8992836Y5335400D02*
Y5435368D01*
X9042820D01*
X9059481Y5418706D01*
Y5385384D01*
X9042820Y5368723D01*
X8992836D01*
X9026158D02*
X9059481Y5335400D01*
X9092804Y5435368D02*
X9159449D01*
X9126126D01*
Y5335400D01*
X9259416Y5418706D02*
X9242755Y5435368D01*
X9209433D01*
X9192771Y5418706D01*
Y5352061D01*
X9209433Y5335400D01*
X9242755D01*
X9259416Y5352061D01*
X9292739Y5435368D02*
X9359384D01*
X9326062D01*
Y5335400D01*
X9459352Y5418706D02*
X9442691Y5435368D01*
X9409368D01*
X9392707Y5418706D01*
Y5402045D01*
X9409368Y5385384D01*
X9442691D01*
X9459352Y5368723D01*
Y5352061D01*
X9442691Y5335400D01*
X9409368D01*
X9392707Y5352061D01*
X8937045Y3913706D02*
X8920384Y3930368D01*
X8887061D01*
X8870400Y3913706D01*
Y3847061D01*
X8887061Y3830400D01*
X8920384D01*
X8937045Y3847061D01*
Y3880384D01*
X8903723D01*
X8970368Y3830400D02*
Y3930368D01*
X9020352D01*
X9037013Y3913706D01*
Y3880384D01*
X9020352Y3863723D01*
X8970368D01*
X9070336Y3930368D02*
X9103658D01*
X9086997D01*
Y3830400D01*
X9070336D01*
X9103658D01*
X9203626Y3930368D02*
X9170303D01*
X9153642Y3913706D01*
Y3847061D01*
X9170303Y3830400D01*
X9203626D01*
X9220287Y3847061D01*
Y3913706D01*
X9203626Y3930368D01*
X9353578Y3913706D02*
X9370239Y3930368D01*
X9403562D01*
X9420223Y3913706D01*
Y3897045D01*
X9403562Y3880384D01*
X9386900D01*
X9403562D01*
X9420223Y3863723D01*
Y3847061D01*
X9403562Y3830400D01*
X9370239D01*
X9353578Y3847061D01*
X7685351Y3913706D02*
X7668690Y3930368D01*
X7635368D01*
X7618706Y3913706D01*
Y3847061D01*
X7635368Y3830400D01*
X7668690D01*
X7685351Y3847061D01*
Y3880384D01*
X7652029D01*
X7718674Y3830400D02*
Y3930368D01*
X7768658D01*
X7785319Y3913706D01*
Y3880384D01*
X7768658Y3863723D01*
X7718674D01*
X7818642Y3930368D02*
X7851964D01*
X7835303D01*
Y3830400D01*
X7818642D01*
X7851964D01*
X7951932Y3930368D02*
X7918610D01*
X7901948Y3913706D01*
Y3847061D01*
X7918610Y3830400D01*
X7951932D01*
X7968593Y3847061D01*
Y3913706D01*
X7951932Y3930368D01*
X8151868Y3830400D02*
Y3930368D01*
X8101884Y3880384D01*
X8168529D01*
X8937045Y4178706D02*
X8920384Y4195368D01*
X8887061D01*
X8870400Y4178706D01*
Y4112061D01*
X8887061Y4095400D01*
X8920384D01*
X8937045Y4112061D01*
Y4145384D01*
X8903723D01*
X8970368Y4095400D02*
Y4195368D01*
X9020352D01*
X9037013Y4178706D01*
Y4145384D01*
X9020352Y4128723D01*
X8970368D01*
X9070336Y4195368D02*
X9103658D01*
X9086997D01*
Y4095400D01*
X9070336D01*
X9103658D01*
X9203626Y4195368D02*
X9170303D01*
X9153642Y4178706D01*
Y4112061D01*
X9170303Y4095400D01*
X9203626D01*
X9220287Y4112061D01*
Y4178706D01*
X9203626Y4195368D01*
X9420223D02*
X9353578D01*
Y4145384D01*
X9386900Y4162045D01*
X9403562D01*
X9420223Y4145384D01*
Y4112061D01*
X9403562Y4095400D01*
X9370239D01*
X9353578Y4112061D01*
X7685351Y4178706D02*
X7668690Y4195368D01*
X7635368D01*
X7618706Y4178706D01*
Y4112061D01*
X7635368Y4095400D01*
X7668690D01*
X7685351Y4112061D01*
Y4145384D01*
X7652029D01*
X7718674Y4095400D02*
Y4195368D01*
X7768658D01*
X7785319Y4178706D01*
Y4145384D01*
X7768658Y4128723D01*
X7718674D01*
X7818642Y4195368D02*
X7851964D01*
X7835303D01*
Y4095400D01*
X7818642D01*
X7851964D01*
X7951932Y4195368D02*
X7918610D01*
X7901948Y4178706D01*
Y4112061D01*
X7918610Y4095400D01*
X7951932D01*
X7968593Y4112061D01*
Y4178706D01*
X7951932Y4195368D01*
X8168529D02*
X8135206Y4178706D01*
X8101884Y4145384D01*
Y4112061D01*
X8118545Y4095400D01*
X8151868D01*
X8168529Y4112061D01*
Y4128723D01*
X8151868Y4145384D01*
X8101884D01*
X7685351Y4408706D02*
X7668690Y4425368D01*
X7635368D01*
X7618706Y4408706D01*
Y4342061D01*
X7635368Y4325400D01*
X7668690D01*
X7685351Y4342061D01*
Y4375384D01*
X7652029D01*
X7718674Y4325400D02*
Y4425368D01*
X7768658D01*
X7785319Y4408706D01*
Y4375384D01*
X7768658Y4358723D01*
X7718674D01*
X7818642Y4425368D02*
X7851964D01*
X7835303D01*
Y4325400D01*
X7818642D01*
X7851964D01*
X7951932Y4425368D02*
X7918610D01*
X7901948Y4408706D01*
Y4342061D01*
X7918610Y4325400D01*
X7951932D01*
X7968593Y4342061D01*
Y4408706D01*
X7951932Y4425368D01*
X8101884Y4408706D02*
X8118545Y4425368D01*
X8151868D01*
X8168529Y4408706D01*
Y4392045D01*
X8151868Y4375384D01*
X8168529Y4358723D01*
Y4342061D01*
X8151868Y4325400D01*
X8118545D01*
X8101884Y4342061D01*
Y4358723D01*
X8118545Y4375384D01*
X8101884Y4392045D01*
Y4408706D01*
X8118545Y4375384D02*
X8151868D01*
X7602045Y4678706D02*
X7585384Y4695368D01*
X7552061D01*
X7535400Y4678706D01*
Y4612061D01*
X7552061Y4595400D01*
X7585384D01*
X7602045Y4612061D01*
Y4645384D01*
X7568722D01*
X7635368Y4595400D02*
Y4695368D01*
X7685352D01*
X7702013Y4678706D01*
Y4645384D01*
X7685352Y4628723D01*
X7635368D01*
X7735336Y4695368D02*
X7768658D01*
X7751997D01*
Y4595400D01*
X7735336D01*
X7768658D01*
X7868626Y4695368D02*
X7835303D01*
X7818642Y4678706D01*
Y4612061D01*
X7835303Y4595400D01*
X7868626D01*
X7885287Y4612061D01*
Y4678706D01*
X7868626Y4695368D01*
X8018578Y4595400D02*
X8051900D01*
X8035239D01*
Y4695368D01*
X8018578Y4678706D01*
X8101884D02*
X8118545Y4695368D01*
X8151868D01*
X8168529Y4678706D01*
Y4612061D01*
X8151868Y4595400D01*
X8118545D01*
X8101884Y4612061D01*
Y4678706D01*
X7602045Y4928706D02*
X7585384Y4945368D01*
X7552061D01*
X7535400Y4928706D01*
Y4862061D01*
X7552061Y4845400D01*
X7585384D01*
X7602045Y4862061D01*
Y4895384D01*
X7568722D01*
X7635368Y4845400D02*
Y4945368D01*
X7685352D01*
X7702013Y4928706D01*
Y4895384D01*
X7685352Y4878723D01*
X7635368D01*
X7735336Y4945368D02*
X7768658D01*
X7751997D01*
Y4845400D01*
X7735336D01*
X7768658D01*
X7868626Y4945368D02*
X7835303D01*
X7818642Y4928706D01*
Y4862061D01*
X7835303Y4845400D01*
X7868626D01*
X7885287Y4862061D01*
Y4928706D01*
X7868626Y4945368D01*
X8018578Y4845400D02*
X8051900D01*
X8035239D01*
Y4945368D01*
X8018578Y4928706D01*
X8168529Y4845400D02*
X8101884D01*
X8168529Y4912045D01*
Y4928706D01*
X8151868Y4945368D01*
X8118545D01*
X8101884Y4928706D01*
X7502077Y5205368D02*
Y5122061D01*
X7518739Y5105400D01*
X7552061D01*
X7568722Y5122061D01*
Y5205368D01*
X7602045Y5105400D02*
Y5172045D01*
X7635368Y5205368D01*
X7668690Y5172045D01*
Y5105400D01*
Y5155384D01*
X7602045D01*
X7702013Y5105400D02*
Y5205368D01*
X7751997D01*
X7768658Y5188706D01*
Y5155384D01*
X7751997Y5138723D01*
X7702013D01*
X7735335D02*
X7768658Y5105400D01*
X7801981Y5205368D02*
X7868626D01*
X7835303D01*
Y5105400D01*
X7901948D02*
Y5205368D01*
X7951932D01*
X7968593Y5188706D01*
Y5155384D01*
X7951932Y5138723D01*
X7901948D01*
X7935271D02*
X7968593Y5105400D01*
X8001916Y5205368D02*
X8068561D01*
X8035239D01*
Y5105400D01*
X8168529Y5188706D02*
X8151868Y5205368D01*
X8118545D01*
X8101884Y5188706D01*
Y5172045D01*
X8118545Y5155384D01*
X8151868D01*
X8168529Y5138723D01*
Y5122061D01*
X8151868Y5105400D01*
X8118545D01*
X8101884Y5122061D01*
X7518739Y5352061D02*
Y5452029D01*
X7568722D01*
X7585384Y5435368D01*
Y5402045D01*
X7568722Y5385384D01*
X7518739D01*
X7685351Y5435368D02*
X7668690Y5452029D01*
X7635368D01*
X7618706Y5435368D01*
Y5368723D01*
X7635368Y5352061D01*
X7668690D01*
X7685351Y5368723D01*
Y5402045D01*
X7652029D01*
X7785319Y5435368D02*
X7768658Y5452029D01*
X7735336D01*
X7718674Y5435368D01*
Y5368723D01*
X7735336Y5352061D01*
X7768658D01*
X7785319Y5368723D01*
X7818642Y5335400D02*
X7885287D01*
X7918610Y5452029D02*
X7951932D01*
X7935271D01*
Y5352061D01*
X7918610D01*
X7951932D01*
X8001916D02*
Y5452029D01*
X8068561Y5352061D01*
Y5452029D01*
X8101884D02*
X8168529D01*
X8135206D01*
Y5352061D01*
X8792900Y5607061D02*
Y5707029D01*
X8842884D01*
X8859545Y5690368D01*
Y5657045D01*
X8842884Y5640384D01*
X8792900D01*
X8959513Y5690368D02*
X8942852Y5707029D01*
X8909529D01*
X8892868Y5690368D01*
Y5623723D01*
X8909529Y5607061D01*
X8942852D01*
X8959513Y5623723D01*
Y5657045D01*
X8926190D01*
X8992836Y5707029D02*
Y5607061D01*
X9042820D01*
X9059481Y5623723D01*
Y5690368D01*
X9042820Y5707029D01*
X8992836D01*
X9092804Y5590400D02*
X9159449D01*
X9192771Y5707029D02*
X9226094D01*
X9209433D01*
Y5607061D01*
X9192771D01*
X9226094D01*
X9276078D02*
Y5707029D01*
X9342723Y5607061D01*
Y5707029D01*
X9376046D02*
X9442691D01*
X9409368D01*
Y5607061D01*
X8937045Y5188706D02*
X8920384Y5205368D01*
X8887061D01*
X8870400Y5188706D01*
Y5122061D01*
X8887061Y5105400D01*
X8920384D01*
X8937045Y5122061D01*
Y5155384D01*
X8903723D01*
X8970368Y5105400D02*
Y5205368D01*
X9020352D01*
X9037013Y5188706D01*
Y5155384D01*
X9020352Y5138723D01*
X8970368D01*
X9070336Y5205368D02*
X9103658D01*
X9086997D01*
Y5105400D01*
X9070336D01*
X9103658D01*
X9203626Y5205368D02*
X9170303D01*
X9153642Y5188706D01*
Y5122061D01*
X9170303Y5105400D01*
X9203626D01*
X9220287Y5122061D01*
Y5188706D01*
X9203626Y5205368D01*
X9353578Y5105400D02*
X9386900D01*
X9370239D01*
Y5205368D01*
X9353578Y5188706D01*
X9436884D02*
X9453545Y5205368D01*
X9486868D01*
X9503529Y5188706D01*
Y5172045D01*
X9486868Y5155384D01*
X9470207D01*
X9486868D01*
X9503529Y5138723D01*
Y5122061D01*
X9486868Y5105400D01*
X9453545D01*
X9436884Y5122061D01*
X8937045Y4928706D02*
X8920384Y4945368D01*
X8887061D01*
X8870400Y4928706D01*
Y4862061D01*
X8887061Y4845400D01*
X8920384D01*
X8937045Y4862061D01*
Y4895384D01*
X8903723D01*
X8970368Y4845400D02*
Y4945368D01*
X9020352D01*
X9037013Y4928706D01*
Y4895384D01*
X9020352Y4878723D01*
X8970368D01*
X9070336Y4945368D02*
X9103658D01*
X9086997D01*
Y4845400D01*
X9070336D01*
X9103658D01*
X9203626Y4945368D02*
X9170303D01*
X9153642Y4928706D01*
Y4862061D01*
X9170303Y4845400D01*
X9203626D01*
X9220287Y4862061D01*
Y4928706D01*
X9203626Y4945368D01*
X9353578Y4845400D02*
X9386900D01*
X9370239D01*
Y4945368D01*
X9353578Y4928706D01*
X9436884Y4845400D02*
X9470207D01*
X9453545D01*
Y4945368D01*
X9436884Y4928706D01*
X8937045Y4678706D02*
X8920384Y4695368D01*
X8887061D01*
X8870400Y4678706D01*
Y4612061D01*
X8887061Y4595400D01*
X8920384D01*
X8937045Y4612061D01*
Y4645384D01*
X8903723D01*
X8970368Y4595400D02*
Y4695368D01*
X9020352D01*
X9037013Y4678706D01*
Y4645384D01*
X9020352Y4628723D01*
X8970368D01*
X9070336Y4695368D02*
X9103658D01*
X9086997D01*
Y4595400D01*
X9070336D01*
X9103658D01*
X9203626Y4695368D02*
X9170303D01*
X9153642Y4678706D01*
Y4612061D01*
X9170303Y4595400D01*
X9203626D01*
X9220287Y4612061D01*
Y4678706D01*
X9203626Y4695368D01*
X9353578Y4678706D02*
X9370239Y4695368D01*
X9403562D01*
X9420223Y4678706D01*
Y4662045D01*
X9403562Y4645384D01*
X9420223Y4628723D01*
Y4612061D01*
X9403562Y4595400D01*
X9370239D01*
X9353578Y4612061D01*
Y4628723D01*
X9370239Y4645384D01*
X9353578Y4662045D01*
Y4678706D01*
X9370239Y4645384D02*
X9403562D01*
X8937045Y4408706D02*
X8920384Y4425368D01*
X8887061D01*
X8870400Y4408706D01*
Y4342061D01*
X8887061Y4325400D01*
X8920384D01*
X8937045Y4342061D01*
Y4375384D01*
X8903723D01*
X8970368Y4325400D02*
Y4425368D01*
X9020352D01*
X9037013Y4408706D01*
Y4375384D01*
X9020352Y4358723D01*
X8970368D01*
X9070336Y4425368D02*
X9103658D01*
X9086997D01*
Y4325400D01*
X9070336D01*
X9103658D01*
X9203626Y4425368D02*
X9170303D01*
X9153642Y4408706D01*
Y4342061D01*
X9170303Y4325400D01*
X9203626D01*
X9220287Y4342061D01*
Y4408706D01*
X9203626Y4425368D01*
X9353578D02*
X9420223D01*
Y4408706D01*
X9353578Y4342061D01*
Y4325400D01*
X7525400Y2593143D02*
Y2440792D01*
X7601575D01*
X7626967Y2466184D01*
Y2567751D01*
X7601575Y2593143D01*
X7525400D01*
X7779318D02*
X7677751D01*
Y2440792D01*
X7779318D01*
X7677751Y2516967D02*
X7728534D01*
X7830101Y2593143D02*
Y2440792D01*
X7906277D01*
X7931669Y2466184D01*
Y2491575D01*
X7906277Y2516967D01*
X7830101D01*
X7906277D01*
X7931669Y2542359D01*
Y2567751D01*
X7906277Y2593143D01*
X7830101D01*
X7982452D02*
Y2466184D01*
X8007844Y2440792D01*
X8058628D01*
X8084019Y2466184D01*
Y2593143D01*
X8236370Y2567751D02*
X8210978Y2593143D01*
X8160195D01*
X8134803Y2567751D01*
Y2466184D01*
X8160195Y2440792D01*
X8210978D01*
X8236370Y2466184D01*
Y2516967D01*
X8185586D01*
X8287154Y2415400D02*
X8388721D01*
X8541072Y2440792D02*
X8439504D01*
X8541072Y2542359D01*
Y2567751D01*
X8515680Y2593143D01*
X8464896D01*
X8439504Y2567751D01*
X7515400Y2853143D02*
Y2700792D01*
X7591575D01*
X7616967Y2726184D01*
Y2827751D01*
X7591575Y2853143D01*
X7515400D01*
X7769318D02*
X7667751D01*
Y2700792D01*
X7769318D01*
X7667751Y2776967D02*
X7718534D01*
X7820101Y2853143D02*
Y2700792D01*
X7896277D01*
X7921669Y2726184D01*
Y2751575D01*
X7896277Y2776967D01*
X7820101D01*
X7896277D01*
X7921669Y2802359D01*
Y2827751D01*
X7896277Y2853143D01*
X7820101D01*
X7972452D02*
Y2726184D01*
X7997844Y2700792D01*
X8048628D01*
X8074019Y2726184D01*
Y2853143D01*
X8226370Y2827751D02*
X8200978Y2853143D01*
X8150195D01*
X8124803Y2827751D01*
Y2726184D01*
X8150195Y2700792D01*
X8200978D01*
X8226370Y2726184D01*
Y2776967D01*
X8175586D01*
X8277154Y2675400D02*
X8378721D01*
X8429504Y2700792D02*
X8480288D01*
X8454896D01*
Y2853143D01*
X8429504Y2827751D01*
X7515400Y3113143D02*
Y2960792D01*
X7591575D01*
X7616967Y2986184D01*
Y3087751D01*
X7591575Y3113143D01*
X7515400D01*
X7769318D02*
X7667751D01*
Y2960792D01*
X7769318D01*
X7667751Y3036967D02*
X7718534D01*
X7820101Y3113143D02*
Y2960792D01*
X7896277D01*
X7921669Y2986184D01*
Y3011575D01*
X7896277Y3036967D01*
X7820101D01*
X7896277D01*
X7921669Y3062359D01*
Y3087751D01*
X7896277Y3113143D01*
X7820101D01*
X7972452D02*
Y2986184D01*
X7997844Y2960792D01*
X8048628D01*
X8074019Y2986184D01*
Y3113143D01*
X8226370Y3087751D02*
X8200978Y3113143D01*
X8150195D01*
X8124803Y3087751D01*
Y2986184D01*
X8150195Y2960792D01*
X8200978D01*
X8226370Y2986184D01*
Y3036967D01*
X8175586D01*
X8277154Y2935400D02*
X8378721D01*
X8429504Y3087751D02*
X8454896Y3113143D01*
X8505680D01*
X8531072Y3087751D01*
Y2986184D01*
X8505680Y2960792D01*
X8454896D01*
X8429504Y2986184D01*
Y3087751D01*
X1694180Y8033979D02*
X1719572Y8059371D01*
X1770355D01*
X1795747Y8033979D01*
Y8008587D01*
X1770355Y7983195D01*
X1744963D01*
X1770355D01*
X1795747Y7957803D01*
Y7932412D01*
X1770355Y7907020D01*
X1719572D01*
X1694180Y7932412D01*
X1846531Y8059371D02*
Y7957803D01*
X1897314Y7907020D01*
X1948098Y7957803D01*
Y8059371D01*
X1998881Y7881628D02*
X2100449D01*
X2151232Y7907020D02*
Y8059371D01*
X2227408D01*
X2252799Y8033979D01*
Y7983195D01*
X2227408Y7957803D01*
X2151232D01*
X2202016D02*
X2252799Y7907020D01*
X2405150Y8059371D02*
X2303583D01*
Y7907020D01*
X2405150D01*
X2303583Y7983195D02*
X2354366D01*
X2557501Y8033979D02*
X2532109Y8059371D01*
X2481325D01*
X2455934Y8033979D01*
Y7932412D01*
X2481325Y7907020D01*
X2532109D01*
X2557501Y7932412D01*
Y7983195D01*
X2506717D01*
X4523340Y6466325D02*
Y6618675D01*
X4599515D01*
X4624907Y6593283D01*
Y6542500D01*
X4599515Y6517108D01*
X4523340D01*
X4574123D02*
X4624907Y6466325D01*
X4675690D02*
Y6618675D01*
X4777258Y6466325D01*
Y6618675D01*
X4929608Y6466325D02*
X4828041D01*
X4929608Y6567892D01*
Y6593283D01*
X4904217Y6618675D01*
X4853433D01*
X4828041Y6593283D01*
X5056567Y6466325D02*
Y6618675D01*
X4980392Y6542500D01*
X5081959D01*
X5132743Y6593283D02*
X5158134Y6618675D01*
X5208918D01*
X5234310Y6593283D01*
Y6567892D01*
X5208918Y6542500D01*
X5234310Y6517108D01*
Y6491717D01*
X5208918Y6466325D01*
X5158134D01*
X5132743Y6491717D01*
Y6517108D01*
X5158134Y6542500D01*
X5132743Y6567892D01*
Y6593283D01*
X5158134Y6542500D02*
X5208918D01*
X5285093Y6593283D02*
X5310485Y6618675D01*
X5361269D01*
X5386661Y6593283D01*
Y6567892D01*
X5361269Y6542500D01*
X5335877D01*
X5361269D01*
X5386661Y6517108D01*
Y6491717D01*
X5361269Y6466325D01*
X5310485D01*
X5285093Y6491717D01*
X4365541Y3116325D02*
Y3268675D01*
X4441717D01*
X4467108Y3243284D01*
Y3192500D01*
X4441717Y3167108D01*
X4365541D01*
X4416325D02*
X4467108Y3116325D01*
X4619459Y3268675D02*
X4517892D01*
Y3192500D01*
X4568675Y3217892D01*
X4594067D01*
X4619459Y3192500D01*
Y3141717D01*
X4594067Y3116325D01*
X4543284D01*
X4517892Y3141717D01*
X6903041Y4663825D02*
Y4816175D01*
X6979216D01*
X7004608Y4790783D01*
Y4740000D01*
X6979216Y4714608D01*
X6903041D01*
X6953825D02*
X7004608Y4663825D01*
X7131567D02*
Y4816175D01*
X7055392Y4740000D01*
X7156959D01*
X6463041Y3883825D02*
Y4036175D01*
X6539217D01*
X6564608Y4010783D01*
Y3960000D01*
X6539217Y3934608D01*
X6463041D01*
X6513825D02*
X6564608Y3883825D01*
X6615392Y4010783D02*
X6640784Y4036175D01*
X6691567D01*
X6716959Y4010783D01*
Y3985392D01*
X6691567Y3960000D01*
X6666175D01*
X6691567D01*
X6716959Y3934608D01*
Y3909216D01*
X6691567Y3883825D01*
X6640784D01*
X6615392Y3909216D01*
X6463041Y3613825D02*
Y3766175D01*
X6539217D01*
X6564608Y3740783D01*
Y3690000D01*
X6539217Y3664608D01*
X6463041D01*
X6513825D02*
X6564608Y3613825D01*
X6716959D02*
X6615392D01*
X6716959Y3715392D01*
Y3740783D01*
X6691567Y3766175D01*
X6640784D01*
X6615392Y3740783D01*
X6498433Y3343825D02*
Y3496175D01*
X6574608D01*
X6600000Y3470784D01*
Y3420000D01*
X6574608Y3394608D01*
X6498433D01*
X6549217D02*
X6600000Y3343825D01*
X6650784D02*
X6701567D01*
X6676176D01*
Y3496175D01*
X6650784Y3470784D01*
X6294608Y4510783D02*
X6269217Y4536175D01*
X6218433D01*
X6193041Y4510783D01*
Y4409216D01*
X6218433Y4383825D01*
X6269217D01*
X6294608Y4409216D01*
X6345392Y4510783D02*
X6370784Y4536175D01*
X6421567D01*
X6446959Y4510783D01*
Y4485392D01*
X6421567Y4460000D01*
X6396175D01*
X6421567D01*
X6446959Y4434608D01*
Y4409216D01*
X6421567Y4383825D01*
X6370784D01*
X6345392Y4409216D01*
X3754608Y5140783D02*
X3729217Y5166175D01*
X3678433D01*
X3653041Y5140783D01*
Y5039216D01*
X3678433Y5013825D01*
X3729217D01*
X3754608Y5039216D01*
X3906959Y5013825D02*
X3805392D01*
X3906959Y5115392D01*
Y5140783D01*
X3881567Y5166175D01*
X3830784D01*
X3805392Y5140783D01*
X6040000Y4520783D02*
X6014608Y4546175D01*
X5963825D01*
X5938433Y4520783D01*
Y4419216D01*
X5963825Y4393825D01*
X6014608D01*
X6040000Y4419216D01*
X6090784Y4393825D02*
X6141567D01*
X6116176D01*
Y4546175D01*
X6090784Y4520783D01*
D46*
X3911300Y6286500D02*
G03*
X3911300Y6286500I-12500J0D01*
G01*
X1805000Y6850000D02*
G03*
X1805000Y6850000I-12500J0D01*
G01*
X7357500Y2510000D02*
G03*
X7357500Y2510000I-12500J0D01*
G01*
Y2780000D02*
G03*
X7357500Y2780000I-12500J0D01*
G01*
Y3060000D02*
G03*
X7357500Y3060000I-12500J0D01*
G01*
X4902500Y1578990D02*
G03*
X4902500Y1578990I-12500J0D01*
G01*
D47*
X8819900Y3886000D02*
G03*
X8819900Y3886000I-25400J0D01*
G01*
X8153300Y383300D02*
Y683203D01*
X8303251D01*
X8353235Y633219D01*
Y533251D01*
X8303251Y483268D01*
X8153300D01*
X8253267D02*
X8353235Y383300D01*
X8653138Y683203D02*
X8453203D01*
Y533251D01*
X8553170D01*
X8453203D01*
Y383300D01*
X399556Y380800D02*
Y680703D01*
X549507D01*
X599491Y630719D01*
Y530752D01*
X549507Y480768D01*
X399556D01*
X499524D02*
X599491Y380800D01*
X899394Y680703D02*
X699459D01*
Y380800D01*
X899394D01*
X699459Y530752D02*
X799426D01*
X999362Y680703D02*
Y480768D01*
X1099329Y380800D01*
X1199297Y480768D01*
Y680703D01*
X1499200D02*
X1299265D01*
Y380800D01*
X1499200D01*
X1299265Y530752D02*
X1399232D01*
D48*
X1894000Y3644000D02*
G03*
X1894000Y3644000I-10000J0D01*
G01*
X5390800Y3746500D02*
X5810000D01*
X4030000D02*
X4449200D01*
X4030000Y6413500D02*
X5810000D01*
Y3746500D02*
Y3782700D01*
X4030000Y3746500D02*
Y3782700D01*
X5810000Y6377300D02*
Y6413500D01*
X4030000Y6377300D02*
Y6413500D01*
X1705000Y7195000D02*
Y7545000D01*
X2228490D02*
X2355000D01*
X1705000D02*
X1831510D01*
X2355000Y7195000D02*
Y7545000D01*
X2343490Y7195000D02*
X2355000D01*
X2113490D02*
X2176510D01*
X1883491D02*
X1946510D01*
X1705000D02*
X1716510D01*
X3917500Y4700000D02*
Y4920000D01*
X3702500Y4700000D02*
Y4920000D01*
X6620000Y4607089D02*
Y4852911D01*
X6840000Y4607089D02*
Y4852911D01*
X5932500Y4610000D02*
Y4830000D01*
X6147500Y4610000D02*
Y4830000D01*
X4725000Y3282500D02*
Y3302500D01*
X4850000Y3282500D02*
Y3302500D01*
X6980000Y4022500D02*
X7000000D01*
X6980000Y3897500D02*
X7000000D01*
X6980000Y3752500D02*
X7000000D01*
X6980000Y3627500D02*
X7000000D01*
X6980000Y3472500D02*
X7000000D01*
X6980000Y3347500D02*
X7000000D01*
X6945000Y2600000D02*
X7070000D01*
X6945000Y2420000D02*
X7070000D01*
X6945000Y2870000D02*
X7070000D01*
X6945000Y2690000D02*
X7070000D01*
X6945000Y3150000D02*
X7070000D01*
X6945000Y2970000D02*
X7070000D01*
D49*
X8731000Y3746300D02*
Y5803700D01*
X8223000D02*
X8731000D01*
X8223000Y3746300D02*
Y5803700D01*
Y3746300D02*
X8731000D01*
D50*
X1998500Y3709000D02*
Y6249000D01*
X1515500Y3709000D02*
Y6249000D01*
X1998500D01*
X1515500Y3709000D02*
X1998500D01*
D51*
X7808290Y1606613D02*
X7774968Y1639936D01*
X7708322D01*
X7675000Y1606613D01*
Y1573290D01*
X7708322Y1539968D01*
X7774968D01*
X7808290Y1506645D01*
Y1473322D01*
X7774968Y1440000D01*
X7708322D01*
X7675000Y1473322D01*
X8008226Y1639936D02*
X7874935D01*
Y1440000D01*
X8008226D01*
X7874935Y1539968D02*
X7941581D01*
X8074871Y1440000D02*
Y1573290D01*
X8141516Y1639936D01*
X8208161Y1573290D01*
Y1440000D01*
Y1539968D01*
X8074871D01*
X8274807Y1440000D02*
Y1639936D01*
X8408097Y1440000D01*
Y1639936D01*
X910193Y1010000D02*
X776903D01*
X910193Y1143290D01*
Y1176613D01*
X876871Y1209936D01*
X810225D01*
X776903Y1176613D01*
X976839D02*
X1010161Y1209936D01*
X1076806D01*
X1110129Y1176613D01*
Y1043323D01*
X1076806Y1010000D01*
X1010161D01*
X976839Y1043323D01*
Y1176613D01*
X1310064Y1010000D02*
X1176774D01*
X1310064Y1143290D01*
Y1176613D01*
X1276742Y1209936D01*
X1210097D01*
X1176774Y1176613D01*
X1376710D02*
X1410032Y1209936D01*
X1476678D01*
X1510000Y1176613D01*
Y1143290D01*
X1476678Y1109968D01*
X1443355D01*
X1476678D01*
X1510000Y1076645D01*
Y1043323D01*
X1476678Y1010000D01*
X1410032D01*
X1376710Y1043323D01*
X7675000Y1339936D02*
Y1140000D01*
X7774968D01*
X7808290Y1173323D01*
Y1306613D01*
X7774968Y1339936D01*
X7675000D01*
X7874935Y1140000D02*
Y1273290D01*
X7941581Y1339936D01*
X8008226Y1273290D01*
Y1140000D01*
Y1239968D01*
X7874935D01*
X8074871Y1339936D02*
Y1173323D01*
X8108194Y1140000D01*
X8174839D01*
X8208161Y1173323D01*
Y1339936D01*
X8274807Y1140000D02*
Y1339936D01*
X8374774D01*
X8408097Y1306613D01*
Y1239968D01*
X8374774Y1206645D01*
X8274807D01*
X8474742Y1339936D02*
Y1140000D01*
Y1239968D01*
X8608033D01*
Y1339936D01*
Y1140000D01*
X8674678Y1339936D02*
X8741323D01*
X8708000D01*
Y1140000D01*
X8674678D01*
X8741323D01*
X8841291D02*
Y1339936D01*
X8974581Y1140000D01*
Y1339936D01*
X9174517D02*
X9041226D01*
Y1140000D01*
X9174517D01*
X9041226Y1239968D02*
X9107871D01*
X9374452Y1339936D02*
X9241162D01*
Y1140000D01*
X9374452D01*
X9241162Y1239968D02*
X9307807D01*
%TF.MD5,b085431a0c705123c4c3e732720f0f0c*%
M02*
