%TF.GenerationSoftware,Altium Limited,Altium Designer,23.3.1 (30)*%
G04 Layer_Color=8421504*
%FSLAX45Y45*%
%MOMM*%
%TF.SameCoordinates,0C5D6AAF-6D96-44C9-A3D7-384C79DD4A31*%
%TF.FilePolarity,Positive*%
%TF.FileFunction,Paste,Top*%
%TF.Part,Single*%
G01*
G75*
%TA.AperFunction,SMDPad,CuDef*%
%ADD11R,1.52400X1.01600*%
%ADD12R,1.01600X1.52400*%
%ADD13R,0.91981X1.90415*%
G04:AMPARAMS|DCode=14|XSize=1.90415mm|YSize=0.91981mm|CornerRadius=0.4599mm|HoleSize=0mm|Usage=FLASHONLY|Rotation=90.000|XOffset=0mm|YOffset=0mm|HoleType=Round|Shape=RoundedRectangle|*
%AMROUNDEDRECTD14*
21,1,1.90415,0.00000,0,0,90.0*
21,1,0.98435,0.91981,0,0,90.0*
1,1,0.91981,0.00000,0.49217*
1,1,0.91981,0.00000,-0.49217*
1,1,0.91981,0.00000,-0.49217*
1,1,0.91981,0.00000,0.49217*
%
%ADD14ROUNDEDRECTD14*%
G04:AMPARAMS|DCode=15|XSize=1.90415mm|YSize=3.21981mm|CornerRadius=0.457mm|HoleSize=0mm|Usage=FLASHONLY|Rotation=90.000|XOffset=0mm|YOffset=0mm|HoleType=Round|Shape=RoundedRectangle|*
%AMROUNDEDRECTD15*
21,1,1.90415,2.30581,0,0,90.0*
21,1,0.99016,3.21981,0,0,90.0*
1,1,0.91399,1.15291,0.49508*
1,1,0.91399,1.15291,-0.49508*
1,1,0.91399,-1.15291,-0.49508*
1,1,0.91399,-1.15291,0.49508*
%
%ADD15ROUNDEDRECTD15*%
%ADD16R,1.35000X0.95000*%
%ADD17R,1.31583X0.90606*%
%ADD18R,1.55000X1.50000*%
%ADD19R,1.45000X1.20000*%
%ADD20R,1.20000X1.45000*%
%ADD21R,1.75000X1.50000*%
%ADD22R,2.41300X5.08000*%
%ADD23R,2.28600X5.08000*%
%ADD24R,0.53000X4.57200*%
%TA.AperFunction,Conductor*%
%ADD28C,0.29200*%
D11*
X5810000Y6286500D02*
D03*
Y6159500D02*
D03*
Y6032500D02*
D03*
Y5905500D02*
D03*
Y5778500D02*
D03*
Y5651500D02*
D03*
Y5524500D02*
D03*
Y5397500D02*
D03*
Y5270500D02*
D03*
Y5143500D02*
D03*
Y5016500D02*
D03*
Y4889500D02*
D03*
Y4762500D02*
D03*
Y4635500D02*
D03*
Y4508500D02*
D03*
Y4381500D02*
D03*
Y4254500D02*
D03*
Y4127500D02*
D03*
Y4000500D02*
D03*
Y3873500D02*
D03*
X4030000Y6286500D02*
D03*
Y6159500D02*
D03*
Y6032500D02*
D03*
Y5905500D02*
D03*
Y5778500D02*
D03*
Y5651500D02*
D03*
Y5524500D02*
D03*
Y5397500D02*
D03*
Y5270500D02*
D03*
Y5143500D02*
D03*
Y5016500D02*
D03*
Y4889500D02*
D03*
Y4762500D02*
D03*
Y4635500D02*
D03*
Y4508500D02*
D03*
Y4381500D02*
D03*
Y4254500D02*
D03*
Y4127500D02*
D03*
Y4000500D02*
D03*
Y3873500D02*
D03*
D12*
X5300000Y3746500D02*
D03*
X5180000D02*
D03*
X5050000D02*
D03*
X4920000D02*
D03*
X4790000D02*
D03*
X4670000D02*
D03*
X4540000D02*
D03*
D13*
X1800000Y7065000D02*
D03*
D14*
X2030000D02*
D03*
X2260000D02*
D03*
D15*
X2030000Y7675000D02*
D03*
D16*
X3810000Y4885000D02*
D03*
Y4735000D02*
D03*
X6040000Y4645000D02*
D03*
Y4795000D02*
D03*
D17*
X6730000Y4807608D02*
D03*
Y4652392D02*
D03*
D18*
X6310000Y4870000D02*
D03*
Y4690000D02*
D03*
D19*
X4787500Y3192500D02*
D03*
Y3392500D02*
D03*
D20*
X6890000Y3960000D02*
D03*
X7090000D02*
D03*
X6890000Y3690000D02*
D03*
X7090000D02*
D03*
X6890000Y3410000D02*
D03*
X7090000D02*
D03*
D21*
X6820000Y2510000D02*
D03*
X7195000D02*
D03*
X6820000Y2780000D02*
D03*
X7195000D02*
D03*
X6820000Y3060000D02*
D03*
X7195000D02*
D03*
D22*
X4451850Y1270000D02*
D03*
X5328150D02*
D03*
D23*
X4890000D02*
D03*
D24*
X2317650Y9760000D02*
D03*
X2444650D02*
D03*
X2571650D02*
D03*
X2698650D02*
D03*
X2825650D02*
D03*
X2952650D02*
D03*
X3079650D02*
D03*
X3206650D02*
D03*
X3333650D02*
D03*
X3460650D02*
D03*
X3587650D02*
D03*
X3714650D02*
D03*
X3841650D02*
D03*
X3968650D02*
D03*
X4095650D02*
D03*
X4222650D02*
D03*
X4349650D02*
D03*
X4476650D02*
D03*
X4603650D02*
D03*
X4730650D02*
D03*
X4857650D02*
D03*
X4984650D02*
D03*
X5111650D02*
D03*
X5238650D02*
D03*
X5492650D02*
D03*
X5619650D02*
D03*
X5746650D02*
D03*
X5873650D02*
D03*
X6000650D02*
D03*
X6127650D02*
D03*
X6254650D02*
D03*
X6381650D02*
D03*
X6508650D02*
D03*
X6635650D02*
D03*
X6762650D02*
D03*
X6889650D02*
D03*
X7016650D02*
D03*
X7143650D02*
D03*
X7270650D02*
D03*
D28*
X2100964Y5651500D02*
X4030000D01*
%TF.MD5,e1c24f9332a6339116cad4ab06ae5012*%
M02*
