%TF.GenerationSoftware,Altium Limited,Altium Designer,23.3.1 (30)*%
G04 Layer_Color=128*
%FSLAX45Y45*%
%MOMM*%
%TF.SameCoordinates,0C5D6AAF-6D96-44C9-A3D7-384C79DD4A31*%
%TF.FilePolarity,Positive*%
%TF.FileFunction,Paste,Bot*%
%TF.Part,Single*%
G01*
G75*
%TA.AperFunction,SMDPad,CuDef*%
%ADD22R,2.41300X5.08000*%
%ADD24R,0.53000X4.57200*%
D22*
X5328150Y1270000D02*
D03*
X4451850D02*
D03*
D24*
X5238700Y9760000D02*
D03*
X7270700D02*
D03*
X7143700D02*
D03*
X7016700D02*
D03*
X6889700D02*
D03*
X6762700D02*
D03*
X6635700D02*
D03*
X6508700D02*
D03*
X6381700D02*
D03*
X6254700D02*
D03*
X6127700D02*
D03*
X6000700D02*
D03*
X5873700D02*
D03*
X5746700D02*
D03*
X5619700D02*
D03*
X5492700D02*
D03*
X5111700D02*
D03*
X4984700D02*
D03*
X4857700D02*
D03*
X4730700D02*
D03*
X4603700D02*
D03*
X4476700D02*
D03*
X4349700D02*
D03*
X4222700D02*
D03*
X4095700D02*
D03*
X3968700D02*
D03*
X3841700D02*
D03*
X3714700D02*
D03*
X3587700D02*
D03*
X3460700D02*
D03*
X3333700D02*
D03*
X3206700D02*
D03*
X3079700D02*
D03*
X2952700D02*
D03*
X2825700D02*
D03*
X2698700D02*
D03*
X2571700D02*
D03*
X2444700D02*
D03*
X2317700D02*
D03*
%TF.MD5,13a234e8d092b2bd771a3c82c1754710*%
M02*
