%TF.GenerationSoftware,Altium Limited,Altium Designer,23.3.1 (30)*%
G04 Layer_Color=8388736*
%FSLAX45Y45*%
%MOMM*%
%TF.SameCoordinates,1C6A76D4-FC78-4FE7-9AFF-FEA26D458E01*%
%TF.FilePolarity,Negative*%
%TF.FileFunction,Soldermask,Top*%
%TF.Part,Single*%
G01*
G75*
%TA.AperFunction,SMDPad,CuDef*%
%ADD13R,0.91981X1.90415*%
G04:AMPARAMS|DCode=14|XSize=1.90415mm|YSize=0.91981mm|CornerRadius=0.4599mm|HoleSize=0mm|Usage=FLASHONLY|Rotation=90.000|XOffset=0mm|YOffset=0mm|HoleType=Round|Shape=RoundedRectangle|*
%AMROUNDEDRECTD14*
21,1,1.90415,0.00000,0,0,90.0*
21,1,0.98435,0.91981,0,0,90.0*
1,1,0.91981,0.00000,0.49217*
1,1,0.91981,0.00000,-0.49217*
1,1,0.91981,0.00000,-0.49217*
1,1,0.91981,0.00000,0.49217*
%
%ADD14ROUNDEDRECTD14*%
G04:AMPARAMS|DCode=15|XSize=1.90415mm|YSize=3.21981mm|CornerRadius=0.457mm|HoleSize=0mm|Usage=FLASHONLY|Rotation=90.000|XOffset=0mm|YOffset=0mm|HoleType=Round|Shape=RoundedRectangle|*
%AMROUNDEDRECTD15*
21,1,1.90415,2.30581,0,0,90.0*
21,1,0.99016,3.21981,0,0,90.0*
1,1,0.91399,1.15291,0.49508*
1,1,0.91399,1.15291,-0.49508*
1,1,0.91399,-1.15291,-0.49508*
1,1,0.91399,-1.15291,0.49508*
%
%ADD15ROUNDEDRECTD15*%
%ADD16R,1.35000X0.95000*%
%ADD17R,1.31583X0.90606*%
%ADD21R,1.75000X1.50000*%
%TA.AperFunction,ComponentPad*%
%ADD29R,1.60020X1.60020*%
%ADD30C,1.60020*%
%TA.AperFunction,SMDPad,CuDef*%
%ADD52R,1.72400X1.21600*%
%ADD53R,1.21600X1.72400*%
%ADD54R,1.75320X1.70320*%
%ADD55R,1.65320X1.40320*%
%ADD56R,1.40320X1.65320*%
%ADD57R,2.61620X5.28320*%
%ADD58R,2.48920X5.28320*%
%ADD59R,0.73320X4.77520*%
%TA.AperFunction,ComponentPad*%
%ADD60C,1.73320*%
%ADD61R,1.73320X1.73320*%
%TA.AperFunction,ViaPad*%
%ADD62C,1.20320*%
%ADD63C,1.47320*%
%ADD64C,0.83820*%
%ADD65C,0.64720*%
D13*
X1800000Y7065000D02*
D03*
D14*
X2030000D02*
D03*
X2260000D02*
D03*
D15*
X2030000Y7675000D02*
D03*
D16*
X3810000Y4885000D02*
D03*
Y4735000D02*
D03*
X6040000Y4645000D02*
D03*
Y4795000D02*
D03*
D17*
X6730000Y4807608D02*
D03*
Y4652392D02*
D03*
D21*
X6820000Y2510000D02*
D03*
X7195000D02*
D03*
X6820000Y2780000D02*
D03*
X7195000D02*
D03*
X6820000Y3060000D02*
D03*
X7195000D02*
D03*
D29*
X8604000Y3886000D02*
D03*
D30*
X8350000D02*
D03*
X8604000Y4140000D02*
D03*
X8350000D02*
D03*
X8604000Y4394000D02*
D03*
X8350000D02*
D03*
X8604000Y4648000D02*
D03*
X8350000D02*
D03*
X8604000Y4902000D02*
D03*
X8350000D02*
D03*
X8604000Y5156000D02*
D03*
X8350000D02*
D03*
X8604000Y5410000D02*
D03*
X8350000D02*
D03*
X8604000Y5664000D02*
D03*
X8350000D02*
D03*
D52*
X5810000Y6286500D02*
D03*
Y6159500D02*
D03*
Y6032500D02*
D03*
Y5905500D02*
D03*
Y5778500D02*
D03*
Y5651500D02*
D03*
Y5524500D02*
D03*
Y5397500D02*
D03*
Y5270500D02*
D03*
Y5143500D02*
D03*
Y5016500D02*
D03*
Y4889500D02*
D03*
Y4762500D02*
D03*
Y4635500D02*
D03*
Y4508500D02*
D03*
Y4381500D02*
D03*
Y4254500D02*
D03*
Y4127500D02*
D03*
Y4000500D02*
D03*
Y3873500D02*
D03*
X4030000Y6286500D02*
D03*
Y6159500D02*
D03*
Y6032500D02*
D03*
Y5905500D02*
D03*
Y5778500D02*
D03*
Y5651500D02*
D03*
Y5524500D02*
D03*
Y5397500D02*
D03*
Y5270500D02*
D03*
Y5143500D02*
D03*
Y5016500D02*
D03*
Y4889500D02*
D03*
Y4762500D02*
D03*
Y4635500D02*
D03*
Y4508500D02*
D03*
Y4381500D02*
D03*
Y4254500D02*
D03*
Y4127500D02*
D03*
Y4000500D02*
D03*
Y3873500D02*
D03*
D53*
X5300000Y3746500D02*
D03*
X5180000D02*
D03*
X5050000D02*
D03*
X4920000D02*
D03*
X4790000D02*
D03*
X4670000D02*
D03*
X4540000D02*
D03*
D54*
X6310000Y4870000D02*
D03*
Y4690000D02*
D03*
D55*
X4787500Y3192500D02*
D03*
Y3392500D02*
D03*
D56*
X6890000Y3960000D02*
D03*
X7090000D02*
D03*
X6890000Y3690000D02*
D03*
X7090000D02*
D03*
X6890000Y3410000D02*
D03*
X7090000D02*
D03*
D57*
X4451850Y1270000D02*
D03*
X5328150D02*
D03*
D58*
X4890000D02*
D03*
D59*
X2317650Y9760000D02*
D03*
X2444650D02*
D03*
X2571650D02*
D03*
X2698650D02*
D03*
X2825650D02*
D03*
X2952650D02*
D03*
X3079650D02*
D03*
X3206650D02*
D03*
X3333650D02*
D03*
X3460650D02*
D03*
X3587650D02*
D03*
X3714650D02*
D03*
X3841650D02*
D03*
X3968650D02*
D03*
X4095650D02*
D03*
X4222650D02*
D03*
X4349650D02*
D03*
X4476650D02*
D03*
X4603650D02*
D03*
X4730650D02*
D03*
X4857650D02*
D03*
X4984650D02*
D03*
X5111650D02*
D03*
X5238650D02*
D03*
X5492650D02*
D03*
X5619650D02*
D03*
X5746650D02*
D03*
X5873650D02*
D03*
X6000650D02*
D03*
X6127650D02*
D03*
X6254650D02*
D03*
X6381650D02*
D03*
X6508650D02*
D03*
X6635650D02*
D03*
X6762650D02*
D03*
X6889650D02*
D03*
X7016650D02*
D03*
X7143650D02*
D03*
X7270650D02*
D03*
D60*
X1630000Y6122000D02*
D03*
X1884000D02*
D03*
X1630000Y5868000D02*
D03*
X1884000D02*
D03*
X1630000Y5614000D02*
D03*
X1884000D02*
D03*
X1630000Y5360000D02*
D03*
X1884000D02*
D03*
X1630000Y5106000D02*
D03*
X1884000D02*
D03*
X1630000Y4852000D02*
D03*
X1884000D02*
D03*
X1630000Y4598000D02*
D03*
X1884000D02*
D03*
X1630000Y4344000D02*
D03*
X1884000D02*
D03*
X1630000Y4090000D02*
D03*
X1884000D02*
D03*
X1630000Y3836000D02*
D03*
D61*
X1884000D02*
D03*
D62*
X6512500Y4660000D02*
D03*
X4415000Y6510000D02*
D03*
X6010000Y6290000D02*
D03*
D63*
X3562500Y5392500D02*
D03*
X1340000Y5915255D02*
D03*
X5485000Y6627500D02*
D03*
X5180000Y3547500D02*
D03*
X5485000Y3575000D02*
D03*
X4417500Y3567500D02*
D03*
X4665000Y3562500D02*
D03*
X4920000Y3567500D02*
D03*
X6022000Y5524500D02*
D03*
X6247500Y3410000D02*
D03*
X6237500Y3952500D02*
D03*
Y3692500D02*
D03*
X4120000Y8690000D02*
D03*
X3977500Y8860000D02*
D03*
X3845000Y8682500D02*
D03*
X3542500Y9185000D02*
D03*
X3805000Y5395000D02*
D03*
X4790000Y2967500D02*
D03*
X5317500Y4755000D02*
D03*
X4760000Y5210000D02*
D03*
X5510000Y5230000D02*
D03*
X5540000Y4960000D02*
D03*
X5640000Y4730000D02*
D03*
X6040000Y5010000D02*
D03*
X3330000Y9190000D02*
D03*
X3670000Y8850000D02*
D03*
X5170000Y4470000D02*
D03*
X5133900Y4990000D02*
D03*
X7620000Y4556600D02*
D03*
X6300000Y5050000D02*
D03*
X3780000Y4450000D02*
D03*
X6520000Y4997322D02*
D03*
X3720000Y3910000D02*
D03*
X1614217Y6830000D02*
D03*
X5570000Y1290000D02*
D03*
X4190000Y1330000D02*
D03*
X6030000Y3780000D02*
D03*
D64*
X7143700Y9460000D02*
D03*
X7275950Y9603885D02*
D03*
X2444700Y9460000D02*
D03*
X2571700D02*
D03*
D65*
X7016700Y9410000D02*
D03*
X4730700D02*
D03*
X4984700D02*
D03*
X6000700D02*
D03*
X6254700D02*
D03*
X5746700D02*
D03*
X5873700D02*
D03*
X5238700D02*
D03*
X3460700D02*
D03*
X4476700D02*
D03*
X4349700D02*
D03*
X3206700D02*
D03*
X2952700D02*
D03*
X2698700D02*
D03*
X2317700D02*
D03*
%TF.MD5,dbedac423b321dbe3e280e9f7856436e*%
M02*
