%TF.GenerationSoftware,Altium Limited,Altium Designer,23.3.1 (30)*%
G04 Layer_Physical_Order=2*
G04 Layer_Color=32768*
%FSLAX45Y45*%
%MOMM*%
%TF.SameCoordinates,0C5D6AAF-6D96-44C9-A3D7-384C79DD4A31*%
%TF.FilePolarity,Negative*%
%TF.FileFunction,Copper,L2,Inr,Plane*%
%TF.Part,Single*%
G01*
G75*
%TA.AperFunction,NonConductor*%
%ADD38C,1.01600*%
%TA.AperFunction,ComponentPad*%
%ADD39C,2.10820*%
G04:AMPARAMS|DCode=40|XSize=2.6162mm|YSize=2.6162mm|CornerRadius=0mm|HoleSize=0mm|Usage=FLASHONLY|Rotation=0.000|XOffset=0mm|YOffset=0mm|HoleType=Round|Shape=Relief|Width=0.254mm|Gap=0.254mm|Entries=4|*
%AMTHD40*
7,0,0,2.61620,2.10820,0.25400,45*
%
%ADD40THD40*%
%ADD41C,2.03600*%
G04:AMPARAMS|DCode=42|XSize=2.544mm|YSize=2.544mm|CornerRadius=0mm|HoleSize=0mm|Usage=FLASHONLY|Rotation=0.000|XOffset=0mm|YOffset=0mm|HoleType=Round|Shape=Relief|Width=0.254mm|Gap=0.254mm|Entries=4|*
%AMTHD42*
7,0,0,2.54400,2.03600,0.25400,45*
%
%ADD42THD42*%
%TA.AperFunction,ViaPad*%
%ADD43C,1.72720*%
%ADD44C,1.37200*%
%ADD45C,1.72700*%
D38*
Y500000D02*
G03*
X500000Y0I500000J0D01*
G01*
Y9080500D02*
G03*
X0Y8580500I0J-500000D01*
G01*
X9588500D02*
G03*
X9088500Y9080500I-500000J0D01*
G01*
Y0D02*
G03*
X9588500Y500000I0J500000D01*
G01*
X7838500Y250000D02*
G03*
X8088500Y0I250000J0D01*
G01*
X7838500Y700000D02*
G03*
X7588500Y950000I-250000J0D01*
G01*
X2000000D02*
G03*
X1750000Y700000I0J-250000D01*
G01*
X1500000Y0D02*
G03*
X1750000Y250000I-0J250000D01*
G01*
X500000Y9080500D02*
X2176750D01*
X2176700Y9951700D02*
X2176750Y9080500D01*
X2176700Y9951700D02*
X2326700Y10101500D01*
X5228700D01*
X5303700Y10026500D01*
X5303750Y9385500D01*
X5427700D01*
Y10026500D01*
X5502700Y10101500D01*
X7261700D01*
X7411700Y9951700D01*
Y9080500D02*
Y9951700D01*
Y9080500D02*
X9088500D01*
X0Y500000D02*
Y8580500D01*
X9588500Y500000D02*
Y8580500D01*
X8088500Y0D02*
X9088500D01*
X7838500Y250000D02*
Y700000D01*
X2000000Y950000D02*
X7588500D01*
X1750000Y250000D02*
X1750000Y700000D01*
X500000Y0D02*
X1500000D01*
D39*
X8604000Y3886000D02*
D03*
X8350000D02*
D03*
X8604000Y4140000D02*
D03*
X8350000D02*
D03*
X8604000Y4394000D02*
D03*
X8350000D02*
D03*
X8604000Y4648000D02*
D03*
X8350000D02*
D03*
X8604000Y4902000D02*
D03*
X8350000D02*
D03*
X8604000Y5156000D02*
D03*
X8350000D02*
D03*
X8604000Y5410000D02*
D03*
X8350000D02*
D03*
X8604000Y5664000D02*
D03*
D40*
X8350000D02*
D03*
D41*
X1630000Y6122000D02*
D03*
X1884000D02*
D03*
X1630000Y5868000D02*
D03*
X1884000D02*
D03*
X1630000Y5614000D02*
D03*
X1884000D02*
D03*
X1630000Y5360000D02*
D03*
X1884000D02*
D03*
X1630000Y5106000D02*
D03*
X1884000D02*
D03*
X1630000Y4852000D02*
D03*
X1884000D02*
D03*
X1630000Y4598000D02*
D03*
X1884000D02*
D03*
X1630000Y4344000D02*
D03*
X1884000D02*
D03*
X1630000Y4090000D02*
D03*
X1884000D02*
D03*
D42*
X1630000Y3836000D02*
D03*
X1884000D02*
D03*
D43*
X1340000Y5915255D02*
D03*
X5485000Y6627500D02*
D03*
X4120000Y8690000D02*
D03*
X3977500Y8860000D02*
D03*
X3845000Y8682500D02*
D03*
X3542500Y9185000D02*
D03*
X5317500Y4755000D02*
D03*
X4760000Y5210000D02*
D03*
X5640000Y4730000D02*
D03*
X3330000Y9190000D02*
D03*
X3670000Y8850000D02*
D03*
X5170000Y4470000D02*
D03*
X5133900Y4990000D02*
D03*
X7620000Y4556600D02*
D03*
X6520000Y4997322D02*
D03*
D44*
X7143700Y9460000D02*
D03*
X7275950Y9603885D02*
D03*
X2444700Y9460000D02*
D03*
X2571700D02*
D03*
D45*
X5510000Y5230000D02*
D03*
X5540000Y4960000D02*
D03*
%TF.MD5,4200b5fa5ee6216b5105dfb360f1814f*%
M02*
