%TF.GenerationSoftware,Altium Limited,Altium Designer,22.9.1 (49)*%
G04 Layer_Color=2752767*
%FSLAX45Y45*%
%MOMM*%
%TF.SameCoordinates,682DF52B-C038-4893-B781-CD12F227844D*%
%TF.FilePolarity,Positive*%
%TF.FileFunction,Drawing*%
%TF.Part,Single*%
G01*
G75*
%TA.AperFunction,NonConductor*%
%ADD78C,0.12700*%
%ADD79C,0.16933*%
D78*
X2449200Y1669200D02*
Y1770800D01*
X2550800D01*
Y1669200D01*
X2449200D01*
X2710000Y2399200D02*
X2735400Y2424600D01*
X2760800D01*
X2735400Y2450000D01*
X2760800Y2475400D01*
X2735400D01*
X2710000Y2500800D01*
X2684600Y2475400D01*
X2659200D01*
X2684600Y2450000D01*
X2659200Y2424600D01*
X2684600D01*
X2710000Y2399200D01*
X2290000D02*
X2315400Y2424600D01*
X2340800D01*
X2315400Y2450000D01*
X2340800Y2475400D01*
X2315400D01*
X2290000Y2500800D01*
X2264600Y2475400D01*
X2239200D01*
X2264600Y2450000D01*
X2239200Y2424600D01*
X2264600D01*
X2290000Y2399200D01*
X5519200Y5029200D02*
X5544600Y5080000D01*
X5519200Y5130800D01*
X5570000Y5105400D01*
X5620800Y5130800D01*
X5595400Y5080000D01*
X5620800Y5029200D01*
X5570000Y5054600D01*
X5519200Y5029200D01*
X5669200Y5169200D02*
X5694600Y5220000D01*
X5669200Y5270800D01*
X5720000Y5245400D01*
X5770800Y5270800D01*
X5745400Y5220000D01*
X5770800Y5169200D01*
X5720000Y5194600D01*
X5669200Y5169200D01*
X2009200Y5759200D02*
X2034600Y5810000D01*
X2009200Y5860800D01*
X2060000Y5835400D01*
X2110800Y5860800D01*
X2085400Y5810000D01*
X2110800Y5759200D01*
X2060000Y5784600D01*
X2009200Y5759200D01*
X1819200D02*
X1844600Y5810000D01*
X1819200Y5860800D01*
X1870000Y5835400D01*
X1920800Y5860800D01*
X1895400Y5810000D01*
X1920800Y5759200D01*
X1870000Y5784600D01*
X1819200Y5759200D01*
X2229200Y2829200D02*
X2254600Y2880000D01*
X2229200Y2930800D01*
X2280000Y2905400D01*
X2330800Y2930800D01*
X2305400Y2880000D01*
X2330800Y2829200D01*
X2280000Y2854600D01*
X2229200Y2829200D01*
X3019200Y3629200D02*
X3044600Y3680000D01*
X3019200Y3730800D01*
X3070000Y3705400D01*
X3120800Y3730800D01*
X3095400Y3680000D01*
X3120800Y3629200D01*
X3070000Y3654600D01*
X3019200Y3629200D01*
X2799200Y4709200D02*
X2824600Y4760000D01*
X2799200Y4810800D01*
X2850000Y4785400D01*
X2900800Y4810800D01*
X2875400Y4760000D01*
X2900800Y4709200D01*
X2850000Y4734600D01*
X2799200Y4709200D01*
X1499200Y4449200D02*
X1524600Y4500000D01*
X1499200Y4550800D01*
X1550000Y4525400D01*
X1600800Y4550800D01*
X1575400Y4500000D01*
X1600800Y4449200D01*
X1550000Y4474600D01*
X1499200Y4449200D01*
X1339200Y4609200D02*
X1364600Y4660000D01*
X1339200Y4710800D01*
X1390000Y4685400D01*
X1440800Y4710800D01*
X1415400Y4660000D01*
X1440800Y4609200D01*
X1390000Y4634600D01*
X1339200Y4609200D01*
X2269200Y5239200D02*
X2294600Y5290000D01*
X2269200Y5340800D01*
X2320000Y5315400D01*
X2370800Y5340800D01*
X2345400Y5290000D01*
X2370800Y5239200D01*
X2320000Y5264600D01*
X2269200Y5239200D01*
X4449200Y4439200D02*
X4474600Y4490000D01*
X4449200Y4540800D01*
X4500000Y4515400D01*
X4550800Y4540800D01*
X4525400Y4490000D01*
X4550800Y4439200D01*
X4500000Y4464600D01*
X4449200Y4439200D01*
X3169200Y5069200D02*
X3194600Y5120000D01*
X3169200Y5170800D01*
X3220000Y5145400D01*
X3270800Y5170800D01*
X3245400Y5120000D01*
X3270800Y5069200D01*
X3220000Y5094600D01*
X3169200Y5069200D01*
X3849200Y4439200D02*
X3874600Y4490000D01*
X3849200Y4540800D01*
X3900000Y4515400D01*
X3950800Y4540800D01*
X3925400Y4490000D01*
X3950800Y4439200D01*
X3900000Y4464600D01*
X3849200Y4439200D01*
X4393426Y4813733D02*
X4342626Y4915333D01*
X4444226D01*
X4393426Y4813733D01*
X3340000Y4779200D02*
X3289200Y4880800D01*
X3390800D01*
X3340000Y4779200D01*
X1940000Y4939200D02*
X1889200Y5040800D01*
X1990800D01*
X1940000Y4939200D01*
X1830000Y5329200D02*
X1779200Y5430800D01*
X1880800D01*
X1830000Y5329200D01*
X1630000Y4609200D02*
X1579200Y4710800D01*
X1680800D01*
X1630000Y4609200D01*
X2070000Y5339200D02*
X2019200Y5440800D01*
X2120800D01*
X2070000Y5339200D01*
X1750000Y4479200D02*
X1699200Y4580800D01*
X1800800D01*
X1750000Y4479200D01*
Y4679200D02*
X1699200Y4780800D01*
X1800800D01*
X1750000Y4679200D01*
X2220000Y4599200D02*
X2169200Y4700800D01*
X2270800D01*
X2220000Y4599200D01*
X7016700Y9359200D02*
X6965900Y9460800D01*
X7067500D01*
X7016700Y9359200D01*
X2698700D02*
X2647900Y9460800D01*
X2749500D01*
X2698700Y9359200D01*
X2350000Y4719200D02*
X2299200Y4820800D01*
X2400800D01*
X2350000Y4719200D01*
X3070000Y3409200D02*
X3019200Y3510800D01*
X3120800D01*
X3070000Y3409200D01*
X6254700Y9359200D02*
X6203900Y9460800D01*
X6305500D01*
X6254700Y9359200D01*
X6000700D02*
X5949900Y9460800D01*
X6051500D01*
X6000700Y9359200D01*
X5873700D02*
X5822900Y9460800D01*
X5924500D01*
X5873700Y9359200D01*
X5746700D02*
X5695900Y9460800D01*
X5797500D01*
X5746700Y9359200D01*
X5238700D02*
X5187900Y9460800D01*
X5289500D01*
X5238700Y9359200D01*
X4984700D02*
X4933900Y9460800D01*
X5035500D01*
X4984700Y9359200D01*
X4730700D02*
X4679900Y9460800D01*
X4781500D01*
X4730700Y9359200D01*
X4476700D02*
X4425900Y9460800D01*
X4527500D01*
X4476700Y9359200D01*
X4349700D02*
X4298900Y9460800D01*
X4400500D01*
X4349700Y9359200D01*
X3460700D02*
X3409900Y9460800D01*
X3511500D01*
X3460700Y9359200D01*
X3206700D02*
X3155900Y9460800D01*
X3257500D01*
X3206700Y9359200D01*
X2952700D02*
X2901900Y9460800D01*
X3003500D01*
X2952700Y9359200D01*
X2317700D02*
X2266900Y9460800D01*
X2368500D01*
X2317700Y9359200D01*
D79*
X2495500Y9460000D02*
G03*
X2495500Y9460000I-50800J0D01*
G01*
X2622500D02*
G03*
X2622500Y9460000I-50800J0D01*
G01*
X7321500D02*
G03*
X7321500Y9460000I-50800J0D01*
G01*
X7194500D02*
G03*
X7194500Y9460000I-50800J0D01*
G01*
%TF.MD5,da58458f024957b2eb80db1d08a61bc5*%
M02*
