%TF.GenerationSoftware,Altium Limited,Altium Designer,22.9.1 (49)*%
G04 Layer_Color=32768*
%FSLAX45Y45*%
%MOMM*%
%TF.SameCoordinates,682DF52B-C038-4893-B781-CD12F227844D*%
%TF.FilePolarity,Positive*%
%TF.FileFunction,Other,Top_Courtyard*%
%TF.Part,Single*%
G01*
G75*
%TA.AperFunction,NonConductor*%
%ADD57C,0.20000*%
%ADD66C,0.10000*%
%ADD69C,0.05000*%
%ADD70C,0.15240*%
G36*
X2090970Y4463960D02*
X1809030D01*
Y4596040D01*
X2090970D01*
Y4463960D01*
D02*
G37*
G36*
X2546040Y4980970D02*
Y4699030D01*
X2413960D01*
Y4980970D01*
X2546040D01*
D02*
G37*
G36*
X2716040D02*
Y4699030D01*
X2583960D01*
Y4980970D01*
X2716040D01*
D02*
G37*
D57*
X1991000Y1031000D02*
Y2597500D01*
Y1031000D02*
X3009000D01*
Y2597500D01*
X1991000D02*
X3009000D01*
X4072190Y4504690D02*
X4327810D01*
Y4935310D01*
X4072190D02*
X4327810D01*
X4072190Y4504690D02*
Y4935310D01*
X2221791Y4451497D02*
X2391497Y4281791D01*
X2618209Y4508504D01*
X2448504Y4678209D02*
X2618209Y4508504D01*
X2221791Y4451497D02*
X2448504Y4678209D01*
X1992500Y5325310D02*
X2147500D01*
X1992500Y5054690D02*
Y5325310D01*
Y5054690D02*
X2147500D01*
Y5325310D01*
X1715000Y5050000D02*
X1885000D01*
Y5330000D01*
X1715000D02*
X1885000D01*
X1715000Y5050000D02*
Y5330000D01*
X1542500Y4754690D02*
X1697500D01*
Y5025310D01*
X1542500D02*
X1697500D01*
X1542500Y4754690D02*
Y5025310D01*
X2220731Y4564393D02*
Y5005606D01*
X1779518D02*
X2220731D01*
X1779518Y4564393D02*
Y5005606D01*
Y4564393D02*
X2220731D01*
X2575607Y3380000D02*
Y3720000D01*
X2204393D02*
X2575607D01*
X2204393Y3380000D02*
Y3720000D01*
Y3380000D02*
X2575607D01*
X2965310Y3382500D02*
Y3537500D01*
X2694690D02*
X2965310D01*
X2694690Y3382500D02*
Y3537500D01*
Y3382500D02*
X2965310D01*
D66*
X3390000Y5020000D02*
Y5820000D01*
X4290000Y5020000D02*
Y5820000D01*
X3390000D02*
X4290000D01*
X3390000Y5020000D02*
X4290000D01*
X3790000Y5420000D02*
X3890000D01*
X3840000Y5370000D02*
Y5470000D01*
X3830000Y4760000D02*
Y4860000D01*
X3780000Y4810000D02*
X3880000D01*
X3494645Y4675355D02*
X3565356Y4604645D01*
X3494645Y4604645D02*
X3565355Y4675355D01*
X2650000Y3850000D02*
Y3950000D01*
X2600000Y3900000D02*
X2700000D01*
D69*
X3667500Y4675000D02*
X3992500D01*
X3667500Y4945000D02*
X3992500D01*
Y4675000D02*
Y4945000D01*
X3667500Y4675000D02*
Y4945000D01*
X3600711Y4427868D02*
X3742132Y4569289D01*
X3317868Y4710711D02*
X3459289Y4852132D01*
X3317868Y4710711D02*
X3600711Y4427868D01*
X3459289Y4852132D02*
X3742132Y4569289D01*
X2431000Y3810000D02*
X2869000D01*
X2431000D02*
Y3990000D01*
X2869000Y3810000D02*
Y3990000D01*
X2431000D02*
X2869000D01*
D70*
X2546040Y4699030D02*
Y4980970D01*
X2413960D02*
X2546040D01*
X2413960Y4699030D02*
Y4980970D01*
Y4699030D02*
X2546040D01*
X2716040D02*
Y4980970D01*
X2583960D02*
X2716040D01*
X2583960Y4699030D02*
Y4980970D01*
Y4699030D02*
X2716040D01*
X1809030Y4463960D02*
X2090970D01*
Y4596040D01*
X1809030D02*
X2090970D01*
X1809030Y4463960D02*
Y4596040D01*
%TF.MD5,39a0541975439f72a947e4c7c44759df*%
M02*
