%TF.GenerationSoftware,Altium Limited,Altium Designer,22.9.1 (49)*%
G04 Layer_Physical_Order=1*
G04 Layer_Color=255*
%FSLAX45Y45*%
%MOMM*%
%TF.SameCoordinates,682DF52B-C038-4893-B781-CD12F227844D*%
%TF.FilePolarity,Positive*%
%TF.FileFunction,Copper,L1,Top,Signal*%
%TF.Part,Single*%
G01*
G75*
%TA.AperFunction,SMDPad,CuDef*%
%ADD10R,1.55620X1.45464*%
%ADD11R,3.00000X7.50000*%
%ADD12R,0.90000X0.35000*%
G04:AMPARAMS|DCode=13|XSize=1.15mm|YSize=1.55mm|CornerRadius=0mm|HoleSize=0mm|Usage=FLASHONLY|Rotation=225.000|XOffset=0mm|YOffset=0mm|HoleType=Round|Shape=Rectangle|*
%AMROTATEDRECTD13*
4,1,4,-0.14142,0.95459,0.95459,-0.14142,0.14142,-0.95459,-0.95459,0.14142,-0.14142,0.95459,0.0*
%
%ADD13ROTATEDRECTD13*%

G04:AMPARAMS|DCode=14|XSize=1.1549mm|YSize=2.1062mm|CornerRadius=0mm|HoleSize=0mm|Usage=FLASHONLY|Rotation=45.000|XOffset=0mm|YOffset=0mm|HoleType=Round|Shape=Rectangle|*
%AMROTATEDRECTD14*
4,1,4,0.33634,-1.15297,-1.15297,0.33634,-0.33634,1.15297,1.15297,-0.33634,0.33634,-1.15297,0.0*
%
%ADD14ROTATEDRECTD14*%

%ADD15R,1.26213X0.95464*%
%ADD16R,1.35000X0.95000*%
G04:AMPARAMS|DCode=17|XSize=0.24247mm|YSize=1.00964mm|CornerRadius=0.12124mm|HoleSize=0mm|Usage=FLASHONLY|Rotation=180.000|XOffset=0mm|YOffset=0mm|HoleType=Round|Shape=RoundedRectangle|*
%AMROUNDEDRECTD17*
21,1,0.24247,0.76716,0,0,180.0*
21,1,0.00000,1.00964,0,0,180.0*
1,1,0.24247,0.00000,0.38358*
1,1,0.24247,0.00000,0.38358*
1,1,0.24247,0.00000,-0.38358*
1,1,0.24247,0.00000,-0.38358*
%
%ADD17ROUNDEDRECTD17*%
G04:AMPARAMS|DCode=18|XSize=1.00964mm|YSize=0.24247mm|CornerRadius=0.12124mm|HoleSize=0mm|Usage=FLASHONLY|Rotation=180.000|XOffset=0mm|YOffset=0mm|HoleType=Round|Shape=RoundedRectangle|*
%AMROUNDEDRECTD18*
21,1,1.00964,0.00000,0,0,180.0*
21,1,0.76716,0.24247,0,0,180.0*
1,1,0.24247,-0.38358,0.00000*
1,1,0.24247,0.38358,0.00000*
1,1,0.24247,0.38358,0.00000*
1,1,0.24247,-0.38358,0.00000*
%
%ADD18ROUNDEDRECTD18*%
%ADD19R,1.00964X0.24247*%
%ADD20R,0.91000X1.22000*%
G04:AMPARAMS|DCode=21|XSize=1.35872mm|YSize=0.58684mm|CornerRadius=0.29342mm|HoleSize=0mm|Usage=FLASHONLY|Rotation=180.000|XOffset=0mm|YOffset=0mm|HoleType=Round|Shape=RoundedRectangle|*
%AMROUNDEDRECTD21*
21,1,1.35872,0.00000,0,0,180.0*
21,1,0.77188,0.58684,0,0,180.0*
1,1,0.58684,-0.38594,0.00000*
1,1,0.58684,0.38594,0.00000*
1,1,0.58684,0.38594,0.00000*
1,1,0.58684,-0.38594,0.00000*
%
%ADD21ROUNDEDRECTD21*%
%ADD22R,1.35872X0.58684*%
%ADD23R,0.95464X1.26213*%
%ADD24R,0.81280X0.86360*%
%ADD25R,0.86360X0.81280*%
%ADD26R,0.53000X4.57200*%
%TA.AperFunction,Conductor*%
%ADD27C,0.60000*%
%ADD28C,0.50000*%
%ADD29C,1.00000*%
%ADD30C,0.40000*%
%ADD31C,0.24500*%
%ADD32C,0.29300*%
%ADD33C,0.25400*%
%ADD34R,1.50000X1.10000*%
%TA.AperFunction,NonConductor*%
%ADD35C,0.25400*%
%TA.AperFunction,ComponentPad*%
%ADD36C,3.00000*%
%ADD37R,2.75000X2.75000*%
%ADD38C,2.75000*%
%TA.AperFunction,ViaPad*%
%ADD39C,1.27000*%
%ADD40C,0.44450*%
%ADD41C,0.44400*%
%ADD42C,0.50000*%
%ADD43C,0.63500*%
G36*
X2371687Y8645363D02*
X2368518Y8671773D01*
X2362180Y8680223D01*
X2312530Y8685505D01*
X2299853Y8687618D01*
X2271331Y8690787D01*
X2232245Y8693956D01*
X2221681Y8696069D01*
X2217456Y8698182D01*
X2218512Y8703464D01*
X2233302Y8707689D01*
X2254429Y8709802D01*
X2281895Y8711915D01*
X2303023Y8714028D01*
X2311474Y8716140D01*
X2331545Y8719309D01*
X2352672Y8721422D01*
X2363236Y8723535D01*
X2367462Y8725648D01*
X2369574Y8734099D01*
X2371687Y8761565D01*
X2374856Y8787974D01*
X2379082Y8813327D01*
X2381195Y8842906D01*
X2383307Y8870372D01*
X2386477Y8877766D01*
X2387533Y8878823D01*
X2390702Y8875654D01*
X2394927Y8858752D01*
X2399153Y8829173D01*
X2404435Y8775298D01*
X2408660Y8749945D01*
X2410773Y8733042D01*
X2412886Y8724591D01*
X2419224Y8722479D01*
X2460423Y8717197D01*
X2470987Y8715084D01*
X2487889Y8712971D01*
X2515355Y8710859D01*
X2538595Y8708746D01*
X2551272Y8706633D01*
X2561835Y8702408D01*
X2560779Y8697126D01*
X2552328Y8695013D01*
X2537539Y8692900D01*
X2494227Y8689731D01*
X2466761Y8685505D01*
X2438239Y8682336D01*
X2414999Y8678111D01*
X2411830Y8674942D01*
X2406548Y8640081D01*
X2404435Y8627405D01*
X2402322Y8608390D01*
X2400209Y8580924D01*
X2398097Y8561909D01*
X2395984Y8549233D01*
X2393871Y8538669D01*
X2391758Y8530218D01*
X2387533Y8523880D01*
X2384364Y8524936D01*
X2382251Y8546063D01*
X2376969Y8602051D01*
X2374856Y8612615D01*
X2372744Y8629517D01*
X2371687Y8643250D01*
Y8645363D01*
D02*
G37*
G36*
X3771389Y8211191D02*
X3791461Y8214361D01*
X3798855Y8217530D01*
X3800968Y8238657D01*
X3803081Y8264010D01*
X3805193Y8274574D01*
X3809419Y8280912D01*
X3814701Y8275630D01*
X3817870Y8261897D01*
X3822095Y8219642D01*
X3824208Y8215417D01*
X3832659Y8213304D01*
X3856956Y8210135D01*
X3884422Y8205909D01*
X3894986Y8203797D01*
X3901324Y8199571D01*
X3898155Y8196402D01*
X3870689Y8194289D01*
X3833716Y8191120D01*
X3826321Y8187951D01*
X3821039Y8182669D01*
X3817870Y8141470D01*
X3815757Y8133019D01*
X3811532Y8122455D01*
X3807306Y8124568D01*
X3804137Y8134076D01*
X3802024Y8148865D01*
X3798855Y8183725D01*
X3792517Y8190064D01*
X3771389Y8192176D01*
X3762938Y8194289D01*
X3722796Y8196402D01*
X3719627Y8199571D01*
X3722796Y8202740D01*
X3731247Y8204853D01*
X3746036Y8206966D01*
X3754487Y8209079D01*
X3769276Y8211191D01*
X3771389D01*
D02*
G37*
G36*
X6362687Y8886217D02*
X6316206Y8881992D01*
X6307755Y8879879D01*
X6303530Y8875654D01*
X6299304Y8860864D01*
X6297191Y8846075D01*
X6291909Y8794312D01*
X6289797Y8781636D01*
X6287684Y8771072D01*
X6284515Y8763677D01*
X6281346Y8760508D01*
X6278176Y8763677D01*
X6276064Y8791143D01*
X6273951Y8812271D01*
X6271838Y8839737D01*
X6269726Y8846075D01*
X6267613Y8860864D01*
X6264444Y8874597D01*
X6260218Y8880936D01*
X6239090Y8883048D01*
X6204230Y8886217D01*
X6191554Y8888330D01*
X6174651Y8890443D01*
X6147186Y8894669D01*
X6139791Y8897838D01*
X6138734Y8898894D01*
X6141904Y8902063D01*
X6150355Y8904176D01*
X6201061Y8906289D01*
X6207399Y8908401D01*
X6227470Y8911570D01*
X6244372Y8913683D01*
X6263387Y8915796D01*
X6265500Y8922134D01*
X6272895Y8967559D01*
X6275008Y8997137D01*
X6277120Y9022490D01*
X6279233Y9033054D01*
X6281346Y9035167D01*
X6286628Y9029885D01*
X6290853Y9004532D01*
X6292966Y8996081D01*
X6298248Y8940093D01*
X6300361Y8927416D01*
X6302473Y8918965D01*
X6306699Y8914740D01*
X6339447Y8911570D01*
X6364800Y8907345D01*
X6385927Y8905232D01*
X6421844Y8903120D01*
X6428182Y8901007D01*
X6426070Y8896781D01*
X6414449Y8893612D01*
X6363743Y8887274D01*
X6362687Y8886217D01*
D02*
G37*
G36*
X7638793Y7673494D02*
X7640905Y7660818D01*
X7644075Y7657649D01*
X7652525Y7655536D01*
X7667315Y7653423D01*
X7675766Y7651310D01*
X7690555Y7649198D01*
X7718021Y7647085D01*
X7747600Y7644972D01*
X7754994Y7641803D01*
X7752882Y7637578D01*
X7741261Y7634408D01*
X7732810Y7632296D01*
X7718021Y7630183D01*
X7666258Y7624901D01*
X7648300Y7621732D01*
X7643018Y7618563D01*
X7640905Y7614337D01*
X7638793Y7607999D01*
X7635624Y7587928D01*
X7633511Y7566800D01*
X7631398Y7541447D01*
X7627172Y7518207D01*
X7624003Y7510812D01*
X7620834Y7509756D01*
X7617665Y7512925D01*
X7615552Y7534052D01*
X7613439Y7542503D01*
X7611327Y7584759D01*
X7609214Y7591097D01*
X7607101Y7605886D01*
X7604989Y7614337D01*
X7599707Y7621732D01*
X7570128Y7625957D01*
X7542662Y7628070D01*
X7521535Y7630183D01*
X7513084Y7632296D01*
X7499351Y7635465D01*
X7491956Y7638634D01*
X7490900Y7641803D01*
X7500407Y7644972D01*
X7534211Y7647085D01*
X7564846Y7650254D01*
X7575410Y7652367D01*
X7600763Y7656592D01*
X7604989Y7660818D01*
X7607101Y7675607D01*
X7609214Y7684058D01*
X7611327Y7705186D01*
X7613439Y7713637D01*
X7615552Y7755892D01*
X7617665Y7762230D01*
X7619778Y7766456D01*
X7622947Y7767512D01*
X7626116Y7764343D01*
X7629285Y7750610D01*
X7632454Y7722088D01*
X7635624Y7689340D01*
X7637736Y7676664D01*
X7638793Y7675607D01*
Y7673494D01*
D02*
G37*
D10*
X4200000Y4812578D02*
D03*
Y4627422D02*
D03*
D11*
X3590000Y5420000D02*
D03*
X4090000D02*
D03*
D12*
X3925000Y4875000D02*
D03*
Y4810000D02*
D03*
Y4745000D02*
D03*
X3735000D02*
D03*
Y4810000D02*
D03*
Y4875000D02*
D03*
D13*
X3607782Y4562218D02*
D03*
X3452218Y4717782D02*
D03*
D14*
X2485453Y4545453D02*
D03*
X2354547Y4414547D02*
D03*
D15*
X2070000Y5112422D02*
D03*
Y5267578D02*
D03*
X1620000Y4967578D02*
D03*
Y4812422D02*
D03*
D16*
X1800000Y5265000D02*
D03*
Y5115000D02*
D03*
D17*
X2025125Y4664875D02*
D03*
X1975125D02*
D03*
Y4905125D02*
D03*
X2025125D02*
D03*
D18*
X1880000Y4710000D02*
D03*
Y4760000D02*
D03*
Y4810000D02*
D03*
Y4860000D02*
D03*
X2120250D02*
D03*
Y4810000D02*
D03*
Y4760000D02*
D03*
D19*
Y4710000D02*
D03*
D20*
X2813500Y3900000D02*
D03*
X2486500D02*
D03*
D21*
X2297329Y3550000D02*
D03*
X2482671Y3641500D02*
D03*
D22*
Y3458500D02*
D03*
D23*
X2752422Y3460000D02*
D03*
X2907578D02*
D03*
D24*
X2480000Y4912390D02*
D03*
Y4767610D02*
D03*
X2650000Y4912390D02*
D03*
Y4767610D02*
D03*
D25*
X2022390Y4530000D02*
D03*
X1877610D02*
D03*
D26*
X2317650Y9760000D02*
D03*
X2444650D02*
D03*
X2571650D02*
D03*
X2698650D02*
D03*
X2825650D02*
D03*
X2952650D02*
D03*
X3079650D02*
D03*
X3206650D02*
D03*
X3333650D02*
D03*
X3460650D02*
D03*
X3587650D02*
D03*
X3714650D02*
D03*
X3841650D02*
D03*
X3968650D02*
D03*
X4095650D02*
D03*
X4222650D02*
D03*
X4349650D02*
D03*
X4476650D02*
D03*
X4603650D02*
D03*
X4730650D02*
D03*
X4857650D02*
D03*
X4984650D02*
D03*
X5111650D02*
D03*
X5238650D02*
D03*
X5492650D02*
D03*
X5619650D02*
D03*
X5746650D02*
D03*
X5873650D02*
D03*
X6000650D02*
D03*
X6127650D02*
D03*
X6254650D02*
D03*
X6381650D02*
D03*
X6508650D02*
D03*
X6635650D02*
D03*
X6762650D02*
D03*
X6889650D02*
D03*
X7016650D02*
D03*
X7143650D02*
D03*
X7270650D02*
D03*
D27*
X5460000Y5190000D02*
X7270700Y7000700D01*
X4940154Y4670154D02*
X5460000Y5190000D01*
X5570000Y5080000D01*
X2650000Y4912390D02*
Y5680000D01*
Y9234699D01*
X7270700Y7000700D02*
Y9460000D01*
X4242732Y4670154D02*
X4940154D01*
X4200000Y4627422D02*
X4242732Y4670154D01*
X3355000Y4985000D02*
X3445000Y5075000D01*
X3172353Y4802353D02*
X3355000Y4985000D01*
X4000147Y5330148D02*
X4090000Y5420000D01*
X4000147Y4990147D02*
Y5330148D01*
X3930000Y4920000D02*
X4000147Y4990147D01*
X3930000Y4890000D02*
Y4920000D01*
X3172353Y4752648D02*
X3497500Y4427500D01*
X3445000Y5075000D02*
X3470000D01*
X3590000Y5195000D02*
Y5420000D01*
X3172353Y4752648D02*
Y4802353D01*
X3470000Y5075000D02*
X3590000Y5195000D01*
X3200000Y4130000D02*
X3497500Y4427500D01*
X3607782Y4537782D01*
X3730000Y4660000D02*
Y4730000D01*
X3632218Y4562218D02*
X3730000Y4660000D01*
X3607782Y4562218D02*
X3632218D01*
X3607782Y4537782D02*
Y4562218D01*
X2120000Y4130000D02*
X3200000D01*
X2482671Y3900000D02*
X2484585Y3898085D01*
X1973758Y4663508D02*
X1975125Y4664875D01*
X2447283Y9437417D02*
X2567350Y9317350D01*
X2571700Y9321700D02*
Y9460000D01*
X2567350Y9317350D02*
X2650000Y9234699D01*
X7143700Y9293700D02*
Y9460000D01*
X7104700Y9254700D02*
X7143700Y9293700D01*
X2650000Y9254700D02*
X7104700D01*
X2145000Y4912390D02*
X2480000D01*
X2650000D01*
X2022390Y4530000D02*
X2023757Y4531368D01*
Y4663508D01*
X2025125Y4664875D01*
X1975125D02*
X2025125D01*
D28*
X1870000Y5680000D02*
X2650000D01*
X1740000D02*
X1870000D01*
Y5810000D01*
X4197422Y4630000D02*
X4200000Y4627422D01*
X3960000Y4630000D02*
X4197422D01*
X3925000Y4665000D02*
Y4737000D01*
Y4665000D02*
X3960000Y4630000D01*
X1620000Y4967578D02*
Y5560000D01*
X1740000Y5680000D01*
X2650000Y9234699D02*
Y9254700D01*
X2447283Y9437417D02*
Y9457417D01*
X2444675Y9460025D02*
X2447283Y9457417D01*
X2140000Y4917390D02*
Y4920000D01*
Y4917390D02*
X2145000Y4912390D01*
X2907578Y3460000D02*
X3070000D01*
X2293665Y3546335D02*
X2297329Y3550000D01*
X2482671Y3641500D02*
X2484585Y3643415D01*
X2752422Y3639148D02*
X2813500Y3700226D01*
Y3900000D01*
X2752422Y3460000D02*
Y3639148D01*
X2482671Y3458500D02*
X2483421Y3459250D01*
X2751672D01*
X2752422Y3460000D01*
X2444675Y9460025D02*
Y9759975D01*
X2571675Y9460025D02*
Y9759975D01*
X2571650Y9760000D02*
X2571675Y9759975D01*
Y9460025D02*
X2571700Y9460000D01*
X2444650Y9760000D02*
X2444675Y9759975D01*
X7270675Y9460025D02*
Y9759975D01*
Y9460025D02*
X7270700Y9460000D01*
X7270650Y9760000D02*
X7270675Y9759975D01*
X7143675Y9460025D02*
Y9759975D01*
Y9460025D02*
X7143700Y9460000D01*
X7143650Y9760000D02*
X7143675Y9759975D01*
D29*
X2293665Y3168185D02*
X2710000Y2751850D01*
Y2450000D02*
Y2751850D01*
X2293665Y3168185D02*
Y3546335D01*
X2022390Y4227610D02*
X2120000Y4130000D01*
X2350000Y3900000D01*
X2482671D01*
X2022390Y4227610D02*
Y4530000D01*
X2484585Y3643415D02*
Y3898085D01*
D30*
X4392222Y4864533D02*
X4393426D01*
X4200000Y4812578D02*
X4340267D01*
X4392222Y4864533D01*
X3735000Y4810000D02*
X3925000D01*
X4197422D02*
X4200000Y4812578D01*
X3925000Y4810000D02*
X4197422D01*
X3340000Y4830000D02*
X3452218Y4717782D01*
X3340000Y4830000D02*
X3340000D01*
X3452218Y4717782D02*
X3544436Y4810000D01*
X3735000D01*
D31*
X3465000Y4875000D02*
X3735000D01*
X3355000Y4985000D02*
X3465000Y4875000D01*
X1975125Y4905125D02*
Y4943230D01*
X1940000Y4978355D02*
X1975125Y4943230D01*
X1940000Y4978355D02*
Y4990000D01*
X1800000Y5349250D02*
X1830000Y5379250D01*
X1800000Y5265000D02*
Y5349250D01*
X1830000Y5379250D02*
Y5380000D01*
X1630000Y4660000D02*
X1791895D01*
X2070000Y5267578D02*
Y5390000D01*
Y4950000D02*
Y5112422D01*
X1800000Y4901895D02*
Y5135000D01*
X1750000Y4530000D02*
X1877610D01*
X1791895Y4660000D02*
X1841895Y4710000D01*
X1880000D01*
X1750000Y4730000D02*
X1755398D01*
X1785398Y4760000D02*
X1880000D01*
X1755398Y4730000D02*
X1785398Y4760000D01*
X2220000Y4650000D02*
Y4726100D01*
X2186227Y4759873D02*
X2220000Y4726100D01*
X1800000Y4901895D02*
X1841895Y4860000D01*
X1880000D01*
X1620000Y4812422D02*
X1622422Y4810000D01*
X1880000D01*
X2220906D02*
X2485453Y4545453D01*
X2120250Y4810000D02*
X2220906D01*
X2485453Y4545453D02*
X2485453D01*
X2120376Y4759873D02*
X2186227D01*
X2120250Y4760000D02*
X2120376Y4759873D01*
X2120250Y4648844D02*
Y4710000D01*
Y4648844D02*
X2354547Y4414547D01*
D32*
X2698650Y9760000D02*
X2698675Y9759975D01*
Y9410025D02*
Y9759975D01*
Y9410025D02*
X2698700Y9410000D01*
X2480000Y4767610D02*
X2650000D01*
X2478805Y4768805D02*
X2480000Y4767610D01*
X2351195Y4768805D02*
X2478805D01*
X2350000Y4770000D02*
X2351195Y4768805D01*
X6254675Y9410025D02*
Y9759975D01*
Y9410025D02*
X6254700Y9410000D01*
X6254650Y9760000D02*
X6254675Y9759975D01*
X6000675Y9410025D02*
X6000700Y9410000D01*
X6000650Y9760000D02*
X6000675Y9759975D01*
Y9410025D02*
Y9759975D01*
X5746675Y9410025D02*
X5746700Y9410000D01*
X5746650Y9760000D02*
X5746675Y9759975D01*
Y9410025D02*
Y9759975D01*
X4984675Y9410025D02*
Y9759975D01*
Y9410025D02*
X4984700Y9410000D01*
X4984650Y9760000D02*
X4984675Y9759975D01*
X4730675Y9410025D02*
Y9759975D01*
Y9410025D02*
X4730700Y9410000D01*
X4730650Y9760000D02*
X4730675Y9759975D01*
X4476675Y9410025D02*
Y9759975D01*
X4476650Y9760000D02*
X4476675Y9759975D01*
Y9410025D02*
X4476700Y9410000D01*
X4349650Y9760000D02*
X4349675Y9759975D01*
Y9410025D02*
Y9759975D01*
Y9410025D02*
X4349700Y9410000D01*
X3206675Y9410025D02*
Y9759975D01*
X3206650Y9760000D02*
X3206675Y9759975D01*
Y9410025D02*
X3206700Y9410000D01*
X2952675Y9410025D02*
X2952700Y9410000D01*
X2952650Y9760000D02*
X2952675Y9759975D01*
Y9410025D02*
Y9759975D01*
X2317650Y9760000D02*
X2317675Y9759975D01*
Y9410025D02*
Y9759975D01*
Y9410025D02*
X2317700Y9410000D01*
D33*
X2354547Y4414547D02*
Y4414547D01*
D34*
X2095000Y4905000D02*
D03*
D35*
X9588500Y8580500D02*
G03*
X9088500Y9080500I-500000J0D01*
G01*
X500000D02*
G03*
X0Y8580500I0J-500000D01*
G01*
X9088500Y0D02*
G03*
X9588500Y500000I0J500000D01*
G01*
X7838500Y700000D02*
G03*
X7588500Y950000I-250000J0D01*
G01*
X7838500Y250000D02*
G03*
X8088500Y0I250000J0D01*
G01*
X2000000Y950000D02*
G03*
X1750000Y700000I0J-250000D01*
G01*
X1500000Y0D02*
G03*
X1750000Y250000I-0J250000D01*
G01*
X0Y500000D02*
G03*
X500000Y0I500000J0D01*
G01*
X5228700Y10101500D02*
X5303700Y10026500D01*
X5303700D02*
X5303750Y9385500D01*
X5427700D02*
Y10026500D01*
X5502700Y10101500D01*
X5303700Y9385500D02*
X5427700D01*
X2326700Y10101500D02*
X5228700D01*
X2176700Y9951700D02*
X2326700Y10101500D01*
X7261700D02*
X7411700Y9951700D01*
X500000Y9080500D02*
X2176700D01*
X5502700Y10101500D02*
X7261700D01*
X7411700Y9080500D02*
Y9951700D01*
X2176700D02*
X2176750Y9080500D01*
X7411700D02*
X9088500D01*
X8088500Y0D02*
X9088500D01*
X2000000Y950000D02*
X7588500D01*
X7838500Y250000D02*
Y700000D01*
X1750000Y250000D02*
Y700000D01*
X9588500Y500000D02*
Y8580500D01*
X500000Y0D02*
X1500000D01*
X0Y500000D02*
Y8580500D01*
D36*
X2500000Y1720000D02*
D03*
D37*
X2710000Y2450000D02*
D03*
D38*
X2290000D02*
D03*
D39*
X5570000Y5080000D02*
D03*
X5720000Y5220000D02*
D03*
X2060000Y5810000D02*
D03*
X1870000D02*
D03*
X2280000Y2880000D02*
D03*
X3070000Y3680000D02*
D03*
X2850000Y4760000D02*
D03*
X1550000Y4500000D02*
D03*
X1390000Y4660000D02*
D03*
X2320000Y5290000D02*
D03*
X4500000Y4490000D02*
D03*
X3220000Y5120000D02*
D03*
X3900000Y4490000D02*
D03*
D40*
X4393426Y4864533D02*
D03*
X3340000Y4830000D02*
D03*
X1940000Y4990000D02*
D03*
X1830000Y5380000D02*
D03*
X1630000Y4660000D02*
D03*
X2070000Y5390000D02*
D03*
X1750000Y4530000D02*
D03*
Y4730000D02*
D03*
X2220000Y4650000D02*
D03*
X3070000Y3460000D02*
D03*
D41*
X7016700Y9410000D02*
D03*
X2698700D02*
D03*
X6254700D02*
D03*
X6000700D02*
D03*
X5873700D02*
D03*
X5746700D02*
D03*
X5238700D02*
D03*
X4984700D02*
D03*
X4730700D02*
D03*
X4476700D02*
D03*
X4349700D02*
D03*
X3460700D02*
D03*
X3206700D02*
D03*
X2952700D02*
D03*
X2317700D02*
D03*
D42*
X2350000Y4770000D02*
D03*
D43*
X2444700Y9460000D02*
D03*
X2571700D02*
D03*
X7270700D02*
D03*
X7143700D02*
D03*
%TF.MD5,43aef9f9c22d4dc111ac7f8f692ce1a6*%
M02*
