%TF.GenerationSoftware,Altium Limited,Altium Designer,22.9.1 (49)*%
G04 Layer_Physical_Order=2*
G04 Layer_Color=32768*
%FSLAX45Y45*%
%MOMM*%
%TF.SameCoordinates,682DF52B-C038-4893-B781-CD12F227844D*%
%TF.FilePolarity,Negative*%
%TF.FileFunction,Copper,L2,Inr,Plane*%
%TF.Part,Single*%
G01*
G75*
%TA.AperFunction,ViaPad*%
%ADD39C,1.27000*%
%TA.AperFunction,NonConductor*%
%ADD44C,1.01600*%
%TA.AperFunction,ComponentPad*%
%ADD45C,4.01600*%
%ADD46C,2.81600*%
G04:AMPARAMS|DCode=47|XSize=3.324mm|YSize=3.324mm|CornerRadius=0mm|HoleSize=0mm|Usage=FLASHONLY|Rotation=0.000|XOffset=0mm|YOffset=0mm|HoleType=Round|Shape=Relief|Width=0.254mm|Gap=0.254mm|Entries=4|*
%AMTHD47*
7,0,0,3.32400,2.81600,0.25400,45*
%
%ADD47THD47*%
%TA.AperFunction,ViaPad*%
%ADD48C,1.72720*%
%ADD49C,1.37200*%
D39*
X1630000Y4660000D02*
D03*
X2070000Y5390000D02*
D03*
D44*
X0Y500000D02*
G03*
X500000Y0I500000J0D01*
G01*
Y9080500D02*
G03*
X0Y8580500I0J-500000D01*
G01*
X9588500D02*
G03*
X9088500Y9080500I-500000J0D01*
G01*
Y0D02*
G03*
X9588500Y500000I0J500000D01*
G01*
X7838500Y250000D02*
G03*
X8088500Y0I250000J0D01*
G01*
X7838500Y700000D02*
G03*
X7588500Y950000I-250000J0D01*
G01*
X2000000D02*
G03*
X1750000Y700000I0J-250000D01*
G01*
X1500000Y0D02*
G03*
X1750000Y250000I-0J250000D01*
G01*
X500000Y9080500D02*
X2176750D01*
X2176700Y9951700D02*
X2176750Y9080500D01*
X2176700Y9951700D02*
X2326700Y10101500D01*
X5228700D01*
X5303700Y10026500D01*
X5303750Y9385500D01*
X5427700D01*
Y10026500D01*
X5502700Y10101500D01*
X7261700D01*
X7411700Y9951700D01*
Y9080500D02*
Y9951700D01*
Y9080500D02*
X9088500D01*
X0Y500000D02*
Y8580500D01*
X9588500Y500000D02*
Y8580500D01*
X8088500Y0D02*
X9088500D01*
X7838500Y250000D02*
Y700000D01*
X2000000Y950000D02*
X7588500D01*
X1750000Y250000D02*
X1750000Y700000D01*
X500000Y0D02*
X1500000D01*
D45*
X2500000Y1720000D02*
D03*
D46*
X2710000Y2450000D02*
D03*
D47*
X2290000D02*
D03*
D48*
X5570000Y5080000D02*
D03*
X1870000Y5810000D02*
D03*
X2280000Y2880000D02*
D03*
D49*
X2444700Y9460000D02*
D03*
X2571700D02*
D03*
X7270700D02*
D03*
X7143700D02*
D03*
%TF.MD5,dd6f70a1cc617ad0c8e0ae247c8daa85*%
M02*
