%TF.GenerationSoftware,Altium Limited,Altium Designer,22.9.1 (49)*%
G04 Layer_Color=16711935*
%FSLAX45Y45*%
%MOMM*%
%TF.SameCoordinates,682DF52B-C038-4893-B781-CD12F227844D*%
%TF.FilePolarity,Positive*%
%TF.FileFunction,Other,Top_3D_Body*%
%TF.Part,Single*%
G01*
G75*
%TA.AperFunction,NonConductor*%
%ADD57C,0.20000*%
%ADD66C,0.10000*%
%ADD67C,0.02540*%
G04:AMPARAMS|DCode=68|XSize=0.4573mm|YSize=1.8mm|CornerRadius=0mm|HoleSize=0mm|Usage=FLASHONLY|Rotation=135.000|XOffset=0mm|YOffset=0mm|HoleType=Round|Shape=Rectangle|*
%AMROTATEDRECTD68*
4,1,4,0.79808,0.47472,-0.47472,-0.79808,-0.79808,-0.47472,0.47472,0.79808,0.79808,0.47472,0.0*
%
%ADD68ROTATEDRECTD68*%

D57*
X2001000Y1041000D02*
Y2359000D01*
Y1041000D02*
X2999000D01*
Y2359000D01*
X2001000D02*
X2999000D01*
X4137500Y4620000D02*
X4262500D01*
Y4820000D01*
X4137500D02*
X4262500D01*
X4137500Y4620000D02*
Y4820000D01*
X2260901Y4462322D02*
X2402322Y4320901D01*
X2579099Y4497678D01*
X2437678Y4639099D02*
X2579099Y4497678D01*
X2260901Y4462322D02*
X2437678Y4639099D01*
X2007500Y5290000D02*
X2132500D01*
X2007500Y5090000D02*
Y5290000D01*
Y5090000D02*
X2132500D01*
Y5290000D01*
X1727500Y5080000D02*
X1872500D01*
Y5300000D01*
X1727500D02*
X1872500D01*
X1727500Y5080000D02*
Y5300000D01*
X1557500Y4790000D02*
X1682500D01*
Y4990000D01*
X1557500D02*
X1682500D01*
X1557500Y4790000D02*
Y4990000D01*
X2125125Y4660000D02*
Y4910000D01*
X1875125D02*
X2125125D01*
X1875125Y4660000D02*
Y4910000D01*
Y4660000D02*
X2125125D01*
X2455000Y3405000D02*
Y3695000D01*
X2325000D02*
X2455000D01*
X2325000Y3405000D02*
Y3695000D01*
Y3405000D02*
X2455000D01*
X2930000Y3397500D02*
Y3522500D01*
X2730000D02*
X2930000D01*
X2730000Y3397500D02*
Y3522500D01*
Y3397500D02*
X2930000D01*
D66*
X3420000Y5020000D02*
Y5820000D01*
X4260000Y5020000D02*
Y5820000D01*
X3420000D02*
X4260000D01*
X3420000Y5020000D02*
X4260000D01*
X3762500Y4700000D02*
X3897500D01*
X3762500Y4920000D02*
X3897500D01*
Y4700000D02*
Y4920000D01*
X3762500Y4700000D02*
Y4920000D01*
X3586568Y4456152D02*
X3713848Y4583432D01*
X3346152Y4696568D02*
X3473432Y4823848D01*
X3346152Y4696568D02*
X3586568Y4456152D01*
X3473432Y4823848D02*
X3713848Y4583432D01*
X2515500Y3820000D02*
X2784500D01*
X2515500D02*
Y3980000D01*
X2784500Y3820000D02*
Y3980000D01*
X2515500D02*
X2784500D01*
D67*
X2439360Y4759990D02*
X2520640D01*
X2439360D02*
Y4920010D01*
X2520640D01*
Y4759990D02*
Y4920010D01*
X2439360Y4869210D02*
Y4920010D01*
X2520640D01*
Y4869210D02*
Y4920010D01*
X2439360Y4869210D02*
X2520640D01*
Y4759990D02*
Y4810790D01*
X2439360Y4759990D02*
X2520640D01*
X2439360D02*
Y4810790D01*
X2520640D01*
X2609360Y4759990D02*
X2690640D01*
X2609360D02*
Y4920010D01*
X2690640D01*
Y4759990D02*
Y4920010D01*
X2609360Y4869210D02*
Y4920010D01*
X2690640D01*
Y4869210D02*
Y4920010D01*
X2609360Y4869210D02*
X2690640D01*
Y4759990D02*
Y4810790D01*
X2609360Y4759990D02*
X2690640D01*
X2609360D02*
Y4810790D01*
X2690640D01*
X1869990Y4489360D02*
Y4570640D01*
X2030010D01*
Y4489360D02*
Y4570640D01*
X1869990Y4489360D02*
X2030010D01*
X1979210Y4570640D02*
X2030010D01*
Y4489360D02*
Y4570640D01*
X1979210Y4489360D02*
X2030010D01*
X1979210D02*
Y4570640D01*
X1869990Y4489360D02*
X1920790D01*
X1869990D02*
Y4570640D01*
X1920790D01*
Y4489360D02*
Y4570640D01*
D68*
X3634040Y4535953D02*
D03*
%TF.MD5,29d04504d13b4688ed5be07e19aa6a8e*%
M02*
