%TF.GenerationSoftware,Altium Limited,Altium Designer,22.9.1 (49)*%
G04 Layer_Color=255*
%FSLAX45Y45*%
%MOMM*%
%TF.SameCoordinates,682DF52B-C038-4893-B781-CD12F227844D*%
%TF.FilePolarity,Positive*%
%TF.FileFunction,Pads,Top*%
%TF.Part,Single*%
G01*
G75*
%TA.AperFunction,SMDPad,CuDef*%
%ADD10R,1.55620X1.45464*%
%ADD11R,3.00000X7.50000*%
%ADD12R,0.90000X0.35000*%
G04:AMPARAMS|DCode=13|XSize=1.15mm|YSize=1.55mm|CornerRadius=0mm|HoleSize=0mm|Usage=FLASHONLY|Rotation=225.000|XOffset=0mm|YOffset=0mm|HoleType=Round|Shape=Rectangle|*
%AMROTATEDRECTD13*
4,1,4,-0.14142,0.95459,0.95459,-0.14142,0.14142,-0.95459,-0.95459,0.14142,-0.14142,0.95459,0.0*
%
%ADD13ROTATEDRECTD13*%

G04:AMPARAMS|DCode=14|XSize=1.1549mm|YSize=2.1062mm|CornerRadius=0mm|HoleSize=0mm|Usage=FLASHONLY|Rotation=45.000|XOffset=0mm|YOffset=0mm|HoleType=Round|Shape=Rectangle|*
%AMROTATEDRECTD14*
4,1,4,0.33634,-1.15297,-1.15297,0.33634,-0.33634,1.15297,1.15297,-0.33634,0.33634,-1.15297,0.0*
%
%ADD14ROTATEDRECTD14*%

%ADD15R,1.26213X0.95464*%
%ADD16R,1.35000X0.95000*%
G04:AMPARAMS|DCode=17|XSize=0.24247mm|YSize=1.00964mm|CornerRadius=0.12124mm|HoleSize=0mm|Usage=FLASHONLY|Rotation=180.000|XOffset=0mm|YOffset=0mm|HoleType=Round|Shape=RoundedRectangle|*
%AMROUNDEDRECTD17*
21,1,0.24247,0.76716,0,0,180.0*
21,1,0.00000,1.00964,0,0,180.0*
1,1,0.24247,0.00000,0.38358*
1,1,0.24247,0.00000,0.38358*
1,1,0.24247,0.00000,-0.38358*
1,1,0.24247,0.00000,-0.38358*
%
%ADD17ROUNDEDRECTD17*%
G04:AMPARAMS|DCode=18|XSize=1.00964mm|YSize=0.24247mm|CornerRadius=0.12124mm|HoleSize=0mm|Usage=FLASHONLY|Rotation=180.000|XOffset=0mm|YOffset=0mm|HoleType=Round|Shape=RoundedRectangle|*
%AMROUNDEDRECTD18*
21,1,1.00964,0.00000,0,0,180.0*
21,1,0.76716,0.24247,0,0,180.0*
1,1,0.24247,-0.38358,0.00000*
1,1,0.24247,0.38358,0.00000*
1,1,0.24247,0.38358,0.00000*
1,1,0.24247,-0.38358,0.00000*
%
%ADD18ROUNDEDRECTD18*%
%ADD19R,1.00964X0.24247*%
%ADD20R,0.91000X1.22000*%
G04:AMPARAMS|DCode=21|XSize=1.35872mm|YSize=0.58684mm|CornerRadius=0.29342mm|HoleSize=0mm|Usage=FLASHONLY|Rotation=180.000|XOffset=0mm|YOffset=0mm|HoleType=Round|Shape=RoundedRectangle|*
%AMROUNDEDRECTD21*
21,1,1.35872,0.00000,0,0,180.0*
21,1,0.77188,0.58684,0,0,180.0*
1,1,0.58684,-0.38594,0.00000*
1,1,0.58684,0.38594,0.00000*
1,1,0.58684,0.38594,0.00000*
1,1,0.58684,-0.38594,0.00000*
%
%ADD21ROUNDEDRECTD21*%
%ADD22R,1.35872X0.58684*%
%ADD23R,0.95464X1.26213*%
%ADD24R,0.81280X0.86360*%
%ADD25R,0.86360X0.81280*%
%ADD26R,0.53000X4.57200*%
%TA.AperFunction,ComponentPad*%
%ADD36C,3.00000*%
%ADD37R,2.75000X2.75000*%
%ADD38C,2.75000*%
D10*
X4200000Y4812578D02*
D03*
Y4627422D02*
D03*
D11*
X3590000Y5420000D02*
D03*
X4090000D02*
D03*
D12*
X3925000Y4875000D02*
D03*
Y4810000D02*
D03*
Y4745000D02*
D03*
X3735000D02*
D03*
Y4810000D02*
D03*
Y4875000D02*
D03*
D13*
X3607782Y4562218D02*
D03*
X3452218Y4717782D02*
D03*
D14*
X2485453Y4545453D02*
D03*
X2354547Y4414547D02*
D03*
D15*
X2070000Y5112422D02*
D03*
Y5267578D02*
D03*
X1620000Y4967578D02*
D03*
Y4812422D02*
D03*
D16*
X1800000Y5265000D02*
D03*
Y5115000D02*
D03*
D17*
X2025125Y4664875D02*
D03*
X1975125D02*
D03*
Y4905125D02*
D03*
X2025125D02*
D03*
D18*
X1880000Y4710000D02*
D03*
Y4760000D02*
D03*
Y4810000D02*
D03*
Y4860000D02*
D03*
X2120250D02*
D03*
Y4810000D02*
D03*
Y4760000D02*
D03*
D19*
Y4710000D02*
D03*
D20*
X2813500Y3900000D02*
D03*
X2486500D02*
D03*
D21*
X2297329Y3550000D02*
D03*
X2482671Y3641500D02*
D03*
D22*
Y3458500D02*
D03*
D23*
X2752422Y3460000D02*
D03*
X2907578D02*
D03*
D24*
X2480000Y4912390D02*
D03*
Y4767610D02*
D03*
X2650000Y4912390D02*
D03*
Y4767610D02*
D03*
D25*
X2022390Y4530000D02*
D03*
X1877610D02*
D03*
D26*
X2317650Y9760000D02*
D03*
X2444650D02*
D03*
X2571650D02*
D03*
X2698650D02*
D03*
X2825650D02*
D03*
X2952650D02*
D03*
X3079650D02*
D03*
X3206650D02*
D03*
X3333650D02*
D03*
X3460650D02*
D03*
X3587650D02*
D03*
X3714650D02*
D03*
X3841650D02*
D03*
X3968650D02*
D03*
X4095650D02*
D03*
X4222650D02*
D03*
X4349650D02*
D03*
X4476650D02*
D03*
X4603650D02*
D03*
X4730650D02*
D03*
X4857650D02*
D03*
X4984650D02*
D03*
X5111650D02*
D03*
X5238650D02*
D03*
X5492650D02*
D03*
X5619650D02*
D03*
X5746650D02*
D03*
X5873650D02*
D03*
X6000650D02*
D03*
X6127650D02*
D03*
X6254650D02*
D03*
X6381650D02*
D03*
X6508650D02*
D03*
X6635650D02*
D03*
X6762650D02*
D03*
X6889650D02*
D03*
X7016650D02*
D03*
X7143650D02*
D03*
X7270650D02*
D03*
D36*
X2500000Y1720000D02*
D03*
D37*
X2710000Y2450000D02*
D03*
D38*
X2290000D02*
D03*
%TF.MD5,3eec1240f3a095292cb105ef5543a6ea*%
M02*
