%TF.GenerationSoftware,Altium Limited,Altium Designer,22.9.1 (49)*%
G04 Layer_Color=255*
%FSLAX45Y45*%
%MOMM*%
%TF.SameCoordinates,682DF52B-C038-4893-B781-CD12F227844D*%
%TF.FilePolarity,Positive*%
%TF.FileFunction,Pads,Bot*%
%TF.Part,Single*%
G01*
G75*
%TA.AperFunction,SMDPad,CuDef*%
%ADD26R,0.53000X4.57200*%
%TA.AperFunction,ComponentPad*%
%ADD36C,3.00000*%
%ADD37R,2.75000X2.75000*%
%ADD38C,2.75000*%
D26*
X5238700Y9760000D02*
D03*
X7270700D02*
D03*
X7143700D02*
D03*
X7016700D02*
D03*
X6889700D02*
D03*
X6762700D02*
D03*
X6635700D02*
D03*
X6508700D02*
D03*
X6381700D02*
D03*
X6254700D02*
D03*
X6127700D02*
D03*
X6000700D02*
D03*
X5873700D02*
D03*
X5746700D02*
D03*
X5619700D02*
D03*
X5492700D02*
D03*
X5111700D02*
D03*
X4984700D02*
D03*
X4857700D02*
D03*
X4730700D02*
D03*
X4603700D02*
D03*
X4476700D02*
D03*
X4349700D02*
D03*
X4222700D02*
D03*
X4095700D02*
D03*
X3968700D02*
D03*
X3841700D02*
D03*
X3714700D02*
D03*
X3587700D02*
D03*
X3460700D02*
D03*
X3333700D02*
D03*
X3206700D02*
D03*
X3079700D02*
D03*
X2952700D02*
D03*
X2825700D02*
D03*
X2698700D02*
D03*
X2571700D02*
D03*
X2444700D02*
D03*
X2317700D02*
D03*
D36*
X2500000Y1720000D02*
D03*
D37*
X2710000Y2450000D02*
D03*
D38*
X2290000D02*
D03*
%TF.MD5,74c449be7d9ecf598565be38bf85f3b2*%
M02*
