%TF.GenerationSoftware,Altium Limited,Altium Designer,22.9.1 (49)*%
G04 Layer_Color=65535*
%FSLAX45Y45*%
%MOMM*%
%TF.SameCoordinates,682DF52B-C038-4893-B781-CD12F227844D*%
%TF.FilePolarity,Positive*%
%TF.FileFunction,Legend,Top*%
%TF.Part,Single*%
G01*
G75*
%TA.AperFunction,NonConductor*%
%ADD35C,0.25400*%
%ADD56C,0.25000*%
%ADD57C,0.20000*%
%ADD58C,0.40000*%
%ADD59C,0.50800*%
%ADD60R,0.55000X7.30000*%
G36*
X6950034Y8423523D02*
X6938413Y8420354D01*
X6922568Y8421411D01*
Y8423523D01*
X6948977Y8424580D01*
X6950034Y8423523D01*
D02*
G37*
G36*
X6894045Y8416129D02*
X6897215Y8412960D01*
X6883482Y8407678D01*
X6849677Y8405565D01*
X6834888Y8399227D01*
X6820099Y8397114D01*
X6793689Y8393945D01*
X6785238Y8391832D01*
X6773618Y8388663D01*
X6758829Y8386550D01*
X6738758Y8383381D01*
X6721856Y8379155D01*
X6694390Y8374930D01*
X6683826Y8372817D01*
X6672206Y8369648D01*
X6642627Y8365423D01*
X6617274Y8359084D01*
X6602485Y8356972D01*
X6586639Y8353802D01*
X6569737Y8349577D01*
X6559173Y8347464D01*
X6535933Y8343239D01*
X6517975Y8337957D01*
X6493678Y8334787D01*
X6485227Y8332675D01*
X6473607Y8329506D01*
X6465156Y8327393D01*
X6445084Y8324224D01*
X6436633Y8322111D01*
X6425013Y8318942D01*
X6416562Y8316829D01*
X6395435Y8314716D01*
X6384871Y8310491D01*
X6376420Y8308378D01*
X6361630Y8306265D01*
X6347898Y8303096D01*
X6329939Y8297814D01*
X6315150Y8295702D01*
X6301417Y8292533D01*
X6289797Y8289363D01*
X6281346Y8287251D01*
X6266556Y8285138D01*
X6252823Y8281969D01*
X6234865Y8276687D01*
X6216907Y8273518D01*
X6208455Y8271405D01*
X6198948Y8268236D01*
X6190497Y8266123D01*
X6170426Y8262954D01*
X6152468Y8257672D01*
X6144016Y8255559D01*
X6128171Y8252390D01*
X6110212Y8247108D01*
X6095423Y8244995D01*
X6081690Y8241826D01*
X6071126Y8237601D01*
X6058450Y8235488D01*
X6047886Y8233375D01*
X6039435Y8231262D01*
X6025702Y8225981D01*
X6005631Y8222811D01*
X5981334Y8215417D01*
X5963376Y8212248D01*
X5939079Y8204853D01*
X5922177Y8202740D01*
X5907387Y8196402D01*
X5892598Y8194289D01*
X5884147Y8192176D01*
X5873583Y8187951D01*
X5856681Y8183725D01*
X5845061Y8180556D01*
X5831328Y8175274D01*
X5810201Y8173162D01*
X5795411Y8166823D01*
X5771115Y8161541D01*
X5757382Y8156260D01*
X5748931Y8154147D01*
X5734141Y8152034D01*
X5719352Y8145696D01*
X5697168Y8140414D01*
X5679210Y8135132D01*
X5670759Y8133019D01*
X5659139Y8129850D01*
X5645406Y8124568D01*
X5628503Y8122455D01*
X5613714Y8116117D01*
X5605263Y8114004D01*
X5591530Y8110835D01*
X5579910Y8105554D01*
X5557726Y8100272D01*
X5543993Y8094990D01*
X5521809Y8089708D01*
X5508076Y8084426D01*
X5492231Y8081257D01*
X5481667Y8077031D01*
X5470047Y8073862D01*
X5461596Y8071749D01*
X5446806Y8065411D01*
X5438355Y8063298D01*
X5424622Y8060129D01*
X5413002Y8054847D01*
X5399269Y8051678D01*
X5390818Y8049565D01*
X5379198Y8044283D01*
X5357014Y8039001D01*
X5345394Y8033720D01*
X5326379Y8029494D01*
X5311590Y8023156D01*
X5299970Y8019987D01*
X5288349Y8014705D01*
X5279899Y8012592D01*
X5268278Y8009423D01*
X5256658Y8004141D01*
X5248207Y8002028D01*
X5235531Y7999915D01*
X5231305Y7995690D01*
X5219685Y7992521D01*
X5209121Y7990408D01*
X5191163Y7983013D01*
X5182712Y7980901D01*
X5163697Y7972450D01*
X5151020Y7970337D01*
X5132005Y7961886D01*
X5120385Y7958717D01*
X5108765Y7953435D01*
X5100314Y7951322D01*
X5088694Y7948153D01*
X5085525Y7944984D01*
X5070735Y7940758D01*
X5051721Y7932307D01*
X5037988Y7929138D01*
X5028480Y7923856D01*
X5020029Y7921743D01*
X5006296Y7916461D01*
X4994676Y7911180D01*
X4981999Y7909067D01*
X4962985Y7900616D01*
X4954534Y7898503D01*
X4950308Y7894278D01*
X4935519Y7890052D01*
X4916504Y7881601D01*
X4908053Y7879488D01*
X4889038Y7871037D01*
X4875305Y7865755D01*
X4863685Y7860473D01*
X4853121Y7858361D01*
X4834106Y7849910D01*
X4810866Y7839346D01*
X4802415Y7837233D01*
X4798190Y7833008D01*
X4789739Y7830895D01*
X4776006Y7825613D01*
X4772837Y7822444D01*
X4761216Y7819275D01*
X4750653Y7815049D01*
X4747484Y7811880D01*
X4730581Y7807654D01*
X4720017Y7801316D01*
X4706285Y7796034D01*
X4696777Y7790753D01*
X4683044Y7785471D01*
X4671424Y7780189D01*
X4659804Y7777019D01*
X4655578Y7768568D01*
X4658748Y7765399D01*
X4743258Y7767512D01*
X4902771Y7764343D01*
X4957703Y7762230D01*
X5016860Y7760118D01*
X5107709Y7758005D01*
X5147851Y7755892D01*
X5173204Y7753779D01*
X5202783Y7751666D01*
X5240812Y7749554D01*
X5291519Y7747441D01*
X5318985Y7745328D01*
X5340112Y7743215D01*
X5357014Y7741103D01*
X5390818Y7738990D01*
X5428848Y7736877D01*
X5449975Y7734764D01*
X5478498Y7731595D01*
X5486949Y7729482D01*
X5540824Y7726313D01*
X5557726Y7724201D01*
X5586248Y7721032D01*
X5594699Y7718919D01*
X5639067Y7716806D01*
X5645406Y7714693D01*
X5665477Y7711524D01*
X5684492Y7709411D01*
X5711957Y7707299D01*
X5728860Y7705186D01*
X5739423Y7703073D01*
X5752100Y7700960D01*
X5769002Y7698847D01*
X5796468Y7696735D01*
X5821821Y7692509D01*
X5832385Y7690396D01*
X5851400Y7688284D01*
X5872527Y7686171D01*
X5885204Y7684058D01*
X5906331Y7679833D01*
X5927459Y7677720D01*
X5946474Y7675607D01*
X5963376Y7671382D01*
X5976052Y7669269D01*
X5997180Y7667156D01*
X6022533Y7662931D01*
X6030984Y7660818D01*
X6043661Y7658705D01*
X6066901Y7656592D01*
X6077465Y7654479D01*
X6094367Y7650254D01*
X6122889Y7647085D01*
X6131340Y7644972D01*
X6145073Y7641803D01*
X6153524Y7639690D01*
X6182046Y7636521D01*
X6195779Y7633352D01*
X6204230Y7631239D01*
X6214794Y7629126D01*
X6227470Y7627014D01*
X6250711Y7622788D01*
X6262331Y7619619D01*
X6299304Y7614337D01*
X6310924Y7611168D01*
X6327826Y7606943D01*
X6347898Y7603773D01*
X6359518Y7600604D01*
X6367969Y7598492D01*
X6382758Y7596379D01*
X6398604Y7593210D01*
X6416562Y7587928D01*
X6447197Y7582646D01*
X6465156Y7577364D01*
X6487340Y7574195D01*
X6505298Y7568913D01*
X6513749Y7566800D01*
X6530651Y7564687D01*
X6536989Y7562575D01*
X6547553Y7558349D01*
X6578188Y7553067D01*
X6596147Y7547785D01*
X6604598Y7545672D01*
X6619387Y7543560D01*
X6629951Y7539334D01*
X6638402Y7537221D01*
X6653191Y7535109D01*
X6680657Y7526658D01*
X6698615Y7523489D01*
X6722912Y7516094D01*
X6739814Y7513981D01*
X6754603Y7507643D01*
X6769393Y7505530D01*
X6789464Y7498135D01*
X6800028Y7496023D01*
X6812704Y7493910D01*
X6823268Y7489685D01*
X6834888Y7486515D01*
X6857072Y7481233D01*
X6870805Y7475952D01*
X6888763Y7472782D01*
X6902496Y7467500D01*
X6910948Y7465388D01*
X6924680Y7462219D01*
X6935244Y7457993D01*
X6943695Y7455880D01*
X6954259Y7453768D01*
X6962710Y7451655D01*
X6974330Y7446373D01*
X6996514Y7441091D01*
X7008134Y7435809D01*
X7026093Y7432640D01*
X7036656Y7428414D01*
X7046164Y7425245D01*
X7059897Y7422076D01*
X7067292Y7418907D01*
X7077855Y7414682D01*
X7093701Y7411512D01*
X7105321Y7406231D01*
X7113772Y7404118D01*
X7127505Y7400949D01*
X7139125Y7395667D01*
X7158140Y7391441D01*
X7172930Y7385103D01*
X7189831Y7380878D01*
X7204621Y7374539D01*
X7218354Y7371370D01*
X7236312Y7363975D01*
X7250045Y7360806D01*
X7253214Y7357637D01*
X7270116Y7353412D01*
X7297582Y7342848D01*
X7308146Y7340735D01*
X7322935Y7334397D01*
X7331386Y7332284D01*
X7350401Y7323833D01*
X7363078Y7321720D01*
X7382092Y7313269D01*
X7393713Y7310100D01*
X7403220Y7304818D01*
X7420122Y7300593D01*
X7439137Y7292142D01*
X7449701Y7290029D01*
X7468716Y7281578D01*
X7477167Y7279465D01*
X7481392Y7275239D01*
X7493012Y7272070D01*
X7501463Y7269958D01*
X7510971Y7264676D01*
X7519422Y7262563D01*
X7529986Y7258338D01*
X7544775Y7251999D01*
X7553226Y7249886D01*
X7572241Y7241435D01*
X7580692Y7239323D01*
X7599707Y7230871D01*
X7608158Y7228759D01*
X7612383Y7224533D01*
X7620834Y7222421D01*
X7631398Y7218195D01*
X7646187Y7211857D01*
X7656751Y7207631D01*
X7671540Y7201293D01*
X7682104Y7197067D01*
X7696893Y7190729D01*
X7705345Y7188617D01*
X7709570Y7184391D01*
X7729641Y7176996D01*
X7732810Y7173827D01*
X7741261Y7171714D01*
X7754994Y7166432D01*
X7766614Y7161151D01*
X7777178Y7156925D01*
X7791968Y7150587D01*
X7838448Y7129459D01*
X7857463Y7121008D01*
X7868027Y7116783D01*
X7872252Y7112557D01*
X7880703Y7110445D01*
X7891267Y7106219D01*
X7895493Y7101993D01*
X7909226Y7098824D01*
X7916620Y7093542D01*
X7927184Y7089317D01*
X7950424Y7078753D01*
X7954650Y7076640D01*
X7958875Y7072415D01*
X7978947Y7065020D01*
X7982116Y7061851D01*
X7999018Y7055513D01*
X8003243Y7051287D01*
X8014864Y7048118D01*
X8022258Y7042836D01*
X8032822Y7038611D01*
X8056062Y7028047D01*
X8060288Y7025934D01*
X8064513Y7021709D01*
X8078246Y7016427D01*
X8091979Y7009032D01*
X8144798Y6981566D01*
X8155362Y6977341D01*
X8159587Y6975228D01*
X8163813Y6971002D01*
X8180715Y6964664D01*
X8184940Y6960439D01*
X8198673Y6955157D01*
X8203955Y6949875D01*
X8217688Y6944593D01*
X8220857Y6941424D01*
X8231421Y6937198D01*
X8235647Y6935085D01*
X8239872Y6930860D01*
X8253605Y6925578D01*
X8261000Y6920296D01*
X8288466Y6905507D01*
X8291635Y6902338D01*
X8289522Y6889661D01*
X8277902Y6886492D01*
X7225749Y6888605D01*
X7213072Y6897056D01*
X7201452Y6900225D01*
X7196170Y6905507D01*
X7182437Y6910789D01*
X7172930Y6916071D01*
X7145464Y6928747D01*
X7122223Y6939311D01*
X7117998Y6941424D01*
X7082081Y6958326D01*
X7071517Y6964664D01*
X7060953Y6968890D01*
X7054615Y6971002D01*
X7044051Y6977341D01*
X7032431Y6980510D01*
X7029262Y6983679D01*
X7018698Y6987904D01*
X7004965Y6993186D01*
X7001796Y6996356D01*
X6993345Y6998468D01*
X6946864Y7019596D01*
X6940526Y7021709D01*
X6921511Y7030160D01*
X6913060Y7032272D01*
X6908835Y7036498D01*
X6888763Y7043892D01*
X6885594Y7047062D01*
X6871862Y7050231D01*
X6858129Y7057625D01*
X6849677Y7059738D01*
X6839114Y7063964D01*
X6824324Y7070302D01*
X6805310Y7078753D01*
X6796859Y7080866D01*
X6777844Y7089317D01*
X6764111Y7094599D01*
X6760942Y7097768D01*
X6738758Y7103050D01*
X6735589Y7106219D01*
X6720799Y7110445D01*
X6701784Y7118895D01*
X6693334Y7121008D01*
X6674319Y7129459D01*
X6660586Y7132628D01*
X6651078Y7137910D01*
X6642627Y7140023D01*
X6628894Y7145305D01*
X6617274Y7150587D01*
X6604598Y7152700D01*
X6585583Y7161151D01*
X6577132Y7163263D01*
X6562342Y7169602D01*
X6545440Y7173827D01*
X6530651Y7180165D01*
X6522200Y7182278D01*
X6503185Y7190729D01*
X6487340Y7193898D01*
X6475719Y7199180D01*
X6467268Y7201293D01*
X6455648Y7204462D01*
X6444028Y7209744D01*
X6435577Y7211857D01*
X6423957Y7215026D01*
X6412337Y7220308D01*
X6398604Y7223477D01*
X6386984Y7228759D01*
X6378533Y7230871D01*
X6364800Y7234041D01*
X6354236Y7238266D01*
X6344728Y7241435D01*
X6330995Y7244605D01*
X6319375Y7249886D01*
X6310924Y7251999D01*
X6298248Y7254112D01*
X6283458Y7260450D01*
X6275008Y7262563D01*
X6262331Y7264676D01*
X6247541Y7271014D01*
X6225358Y7276296D01*
X6213737Y7281578D01*
X6197892Y7284747D01*
X6187328Y7288972D01*
X6175708Y7292142D01*
X6158806Y7294254D01*
X6144016Y7300593D01*
X6135565Y7302705D01*
X6122889Y7304818D01*
X6108100Y7311156D01*
X6088028Y7314325D01*
X6063732Y7321720D01*
X6055280Y7323833D01*
X6042604Y7325946D01*
X6032040Y7330171D01*
X6023589Y7332284D01*
X6008800Y7334397D01*
X5995067Y7339679D01*
X5983447Y7342848D01*
X5966545Y7344961D01*
X5951755Y7351299D01*
X5936966Y7353412D01*
X5928515Y7355524D01*
X5907387Y7361863D01*
X5892598Y7363975D01*
X5878865Y7367145D01*
X5860907Y7372426D01*
X5846118Y7374539D01*
X5822877Y7380878D01*
X5814426Y7382990D01*
X5794355Y7386159D01*
X5776397Y7391441D01*
X5767946Y7393554D01*
X5747874Y7396723D01*
X5729916Y7402005D01*
X5721465Y7404118D01*
X5701394Y7407287D01*
X5683435Y7412569D01*
X5668646Y7414682D01*
X5654913Y7417851D01*
X5636954Y7423132D01*
X5616883Y7426302D01*
X5606319Y7428414D01*
X5594699Y7431584D01*
X5586248Y7433696D01*
X5561952Y7436865D01*
X5553500Y7438978D01*
X5541880Y7442147D01*
X5533429Y7444260D01*
X5509133Y7447429D01*
X5483779Y7453768D01*
X5462652Y7455880D01*
X5449975Y7457993D01*
X5438355Y7461162D01*
X5429904Y7463275D01*
X5390818Y7468557D01*
X5382367Y7470670D01*
X5371803Y7472782D01*
X5343281Y7475952D01*
X5328492Y7478064D01*
X5311590Y7482290D01*
X5269335Y7486515D01*
X5245038Y7491797D01*
X5232361Y7493910D01*
X5209121Y7496023D01*
X5183768Y7500248D01*
X5173204Y7502361D01*
X5160528Y7504474D01*
X5135174Y7506586D01*
X5095032Y7512925D01*
X5073905Y7515038D01*
X5028480Y7518207D01*
X5022142Y7520319D01*
X5002071Y7523489D01*
X4978831Y7525601D01*
X4953477Y7527714D01*
X4936575Y7529827D01*
X4908053Y7532996D01*
X4893264Y7535109D01*
X4839388Y7538278D01*
X4810866Y7541447D01*
X4802415Y7543560D01*
X4762273Y7545672D01*
X4734807Y7547785D01*
X4697834Y7550954D01*
X4676706Y7553067D01*
X4614380Y7556236D01*
X4562617Y7559406D01*
X4539377Y7561518D01*
X4503460Y7563631D01*
X4446416Y7565744D01*
X4366131Y7567857D01*
X4271056Y7569969D01*
X4270000Y7571026D01*
X4263662Y7568913D01*
X4242534Y7566800D01*
X4227745Y7556236D01*
X4219294Y7554124D01*
X4212956Y7547785D01*
X4168588Y7522432D01*
X4164362Y7518207D01*
X4134784Y7501305D01*
X4130558Y7497079D01*
X4119994Y7492854D01*
X4115769Y7488628D01*
X4111543Y7486515D01*
X4100980Y7480177D01*
X4096754Y7475952D01*
X4086190Y7469613D01*
X4066119Y7455880D01*
X4058724Y7452711D01*
X4052386Y7446373D01*
X4037597Y7437922D01*
X4022808Y7427358D01*
X4002736Y7413625D01*
X3989003Y7404118D01*
X3984778Y7402005D01*
X3978440Y7395667D01*
X3974214Y7393554D01*
X3959425Y7382990D01*
X3955199Y7380878D01*
X3948861Y7374539D01*
X3944635Y7372426D01*
X3938297Y7366088D01*
X3934072Y7363975D01*
X3911888Y7348130D01*
X3910831Y7344961D01*
X3900268Y7338622D01*
X3893929Y7332284D01*
X3889704Y7330171D01*
X3883365Y7323833D01*
X3872802Y7317495D01*
X3866463Y7311156D01*
X3862238Y7309044D01*
X3853787Y7300593D01*
X3850618Y7299536D01*
X3848505Y7295311D01*
X3841110Y7290029D01*
X3834772Y7283691D01*
X3830547Y7281578D01*
X3822095Y7273127D01*
X3812588Y7267845D01*
X3811532Y7264676D01*
X3807306Y7262563D01*
X3796742Y7251999D01*
X3792517Y7249886D01*
X3788291Y7243548D01*
X3784066Y7241435D01*
X3765051Y7222421D01*
X3760826Y7220308D01*
X3677372Y7136854D01*
X3675259Y7132628D01*
X3658357Y7115726D01*
X3656244Y7111501D01*
X3639342Y7094599D01*
X3637229Y7090373D01*
X3628778Y7081922D01*
X3626665Y7077697D01*
X3618214Y7069246D01*
X3616101Y7065020D01*
X3609763Y7058682D01*
X3607651Y7054456D01*
X3604481Y7049174D01*
X3600256Y7047062D01*
X3592861Y7035442D01*
X3588636Y7031216D01*
X3586523Y7026991D01*
X3580185Y7020652D01*
X3578072Y7016427D01*
X3567508Y7001638D01*
X3565395Y6997412D01*
X3559057Y6991074D01*
X3550606Y6976284D01*
X3535817Y6955157D01*
X3529479Y6944593D01*
X3512576Y6915014D01*
X3506238Y6904451D01*
X3504125Y6900225D01*
X3498843Y6894943D01*
X3481941Y6892830D01*
X3475603Y6894943D01*
X2878749Y6893887D01*
X2873467Y6894943D01*
X2867129Y6892830D01*
X2861847Y6898112D01*
X2863960Y6906563D01*
X2868185Y6910789D01*
X2870298Y6917127D01*
X2878749Y6929804D01*
X2880862Y6936142D01*
X2887200Y6942480D01*
X2891426Y6953044D01*
X2897764Y6959382D01*
X2899877Y6965720D01*
X2910440Y6980510D01*
X2912553Y6984735D01*
X2916779Y6988961D01*
X2923117Y6999525D01*
X2927342Y7003750D01*
X2933681Y7014314D01*
X2937906Y7018539D01*
X2944245Y7029103D01*
X2948470Y7033329D01*
X2950583Y7037554D01*
X2959034Y7046005D01*
X2965372Y7056569D01*
X2969598Y7060795D01*
X2971710Y7065020D01*
X2980161Y7073471D01*
X2982274Y7077697D01*
X2990725Y7086148D01*
X2992838Y7090373D01*
X2999176Y7094599D01*
X3001289Y7098824D01*
X3009740Y7107275D01*
X3011853Y7111501D01*
X3018191Y7115726D01*
X3020304Y7119952D01*
X3039319Y7138967D01*
X3041431Y7143192D01*
X3062559Y7164320D01*
X3063615Y7167489D01*
X3067841Y7169602D01*
X3088968Y7190729D01*
X3093194Y7192842D01*
X3114322Y7213970D01*
X3118547Y7216082D01*
X3122773Y7222421D01*
X3126998Y7224533D01*
X3143900Y7241435D01*
X3148126Y7243548D01*
X3156577Y7251999D01*
X3160802Y7254112D01*
X3169253Y7262563D01*
X3173479Y7264676D01*
X3181930Y7273127D01*
X3186155Y7275239D01*
X3194606Y7283691D01*
X3198832Y7285803D01*
X3207283Y7294254D01*
X3211508Y7296367D01*
X3217847Y7302705D01*
X3222072Y7304818D01*
X3228411Y7311156D01*
X3238974Y7317495D01*
X3243200Y7321720D01*
X3247425Y7323833D01*
X3255876Y7332284D01*
X3266440Y7338622D01*
X3270666Y7342848D01*
X3281229Y7349186D01*
X3285455Y7353412D01*
X3289680Y7355524D01*
X3296019Y7361863D01*
X3310808Y7370314D01*
X3315034Y7374539D01*
X3325597Y7380878D01*
X3340387Y7391441D01*
X3366796Y7409400D01*
X3369965Y7412569D01*
X3384754Y7421020D01*
X3407995Y7435809D01*
X3412221Y7437922D01*
X3416446Y7442147D01*
X3446025Y7459050D01*
X3450250Y7463275D01*
X3460814Y7467500D01*
X3467152Y7473839D01*
X3481941Y7482290D01*
X3500956Y7492854D01*
X3515746Y7501305D01*
X3553775Y7522432D01*
X3568565Y7530883D01*
X3579128Y7535109D01*
X3583354Y7537221D01*
X3586523Y7540391D01*
X3585467Y7545672D01*
X3536873Y7543560D01*
X3530535Y7541447D01*
X3506238Y7538278D01*
X3480885Y7536165D01*
X3435461Y7532996D01*
X3429122Y7530883D01*
X3407995Y7528771D01*
X3399544Y7526658D01*
X3357289Y7524545D01*
X3350950Y7522432D01*
X3325597Y7518207D01*
X3310808Y7516094D01*
X3271722Y7510812D01*
X3261158Y7508699D01*
X3232636Y7505530D01*
X3200945Y7503417D01*
X3194606Y7501305D01*
X3177704Y7497079D01*
X3150239Y7494966D01*
X3141787Y7492854D01*
X3128054Y7489685D01*
X3117491Y7487572D01*
X3088968Y7484403D01*
X3064672Y7479121D01*
X3054108Y7477008D01*
X3035093Y7474895D01*
X3018191Y7472782D01*
X3009740Y7470670D01*
X2998120Y7467500D01*
X2983331Y7465388D01*
X2963260Y7462219D01*
X2951639Y7459050D01*
X2943188Y7456937D01*
X2928399Y7454824D01*
X2904102Y7449542D01*
X2895651Y7447429D01*
X2882975Y7445317D01*
X2866072Y7443204D01*
X2855509Y7441091D01*
X2843889Y7437922D01*
X2835438Y7435809D01*
X2815366Y7432640D01*
X2797408Y7427358D01*
X2788957Y7425245D01*
X2766773Y7422076D01*
X2748814Y7416794D01*
X2740363Y7414682D01*
X2720292Y7411512D01*
X2702334Y7406231D01*
X2693883Y7404118D01*
X2673812Y7400949D01*
X2655853Y7395667D01*
X2641064Y7393554D01*
X2613598Y7385103D01*
X2591414Y7379821D01*
X2573456Y7374539D01*
X2555497Y7371370D01*
X2544933Y7367145D01*
X2536482Y7365032D01*
X2523806Y7362919D01*
X2515355Y7360806D01*
X2504791Y7356581D01*
X2494227Y7354468D01*
X2481551Y7352355D01*
X2464649Y7346017D01*
X2456198Y7343904D01*
X2443521Y7341792D01*
X2425563Y7334397D01*
X2407604Y7331228D01*
X2397040Y7327002D01*
X2387533Y7323833D01*
X2371687Y7320664D01*
X2361123Y7316438D01*
X2349503Y7313269D01*
X2336827Y7311156D01*
X2322037Y7304818D01*
X2313586Y7302705D01*
X2300910Y7300593D01*
X2286120Y7294254D01*
X2269218Y7290029D01*
X2254429Y7283691D01*
X2235414Y7279465D01*
X2220625Y7273127D01*
X2206892Y7269958D01*
X2195272Y7264676D01*
X2186821Y7262563D01*
X2175201Y7259394D01*
X2163581Y7254112D01*
X2144566Y7249886D01*
X2129776Y7243548D01*
X2112874Y7239323D01*
X2093859Y7230871D01*
X2085409Y7228759D01*
X2070619Y7222421D01*
X2056886Y7219252D01*
X2047379Y7213970D01*
X2030477Y7209744D01*
X2026251Y7207631D01*
X2011462Y7201293D01*
X2000898Y7199180D01*
X1981883Y7190729D01*
X1971320Y7188617D01*
X1956530Y7182278D01*
X1948079Y7180165D01*
X1943854Y7178053D01*
X1929064Y7171714D01*
X1915331Y7166432D01*
X1912162Y7163263D01*
X1898429Y7160094D01*
X1876245Y7150587D01*
X1867794Y7148474D01*
X1848780Y7140023D01*
X1840329Y7137910D01*
X1836103Y7133685D01*
X1819201Y7129459D01*
X1800186Y7121008D01*
X1786453Y7115726D01*
X1783284Y7112557D01*
X1771664Y7109388D01*
X1749480Y7099881D01*
X1726240Y7089317D01*
X1717789Y7087204D01*
X1713563Y7082978D01*
X1693492Y7075584D01*
X1690323Y7072415D01*
X1678703Y7069246D01*
X1668139Y7065020D01*
X1664970Y7061851D01*
X1656519Y7059738D01*
X1645955Y7055513D01*
X1631166Y7049174D01*
X1584685Y7028047D01*
X1580459Y7025934D01*
X1569896Y7019596D01*
X1561444Y7017483D01*
X1548768Y7009032D01*
X1538204Y7006919D01*
X1533979Y7002694D01*
X1523415Y6998468D01*
X1476934Y6977341D01*
X1472709Y6975228D01*
X1428341Y6951988D01*
X1417777Y6947762D01*
X1407213Y6941424D01*
X1396649Y6937198D01*
X1392424Y6935085D01*
X1381860Y6928747D01*
X1299462Y6888605D01*
X1291011Y6886492D01*
X1206501Y6888605D01*
X1203332Y6891774D01*
X1205445Y6904451D01*
X1208614Y6907620D01*
X1217065Y6909732D01*
X1223403Y6916071D01*
X1233967Y6920296D01*
X1238193Y6924522D01*
X1248756Y6928747D01*
X1252982Y6930860D01*
X1263546Y6937198D01*
X1278335Y6945649D01*
X1354394Y6985792D01*
X1364958Y6990017D01*
X1369183Y6992130D01*
X1373409Y6996356D01*
X1387142Y7001638D01*
X1400875Y7009032D01*
X1504400Y7059738D01*
X1514964Y7066077D01*
X1525528Y7070302D01*
X1533979Y7072415D01*
X1540317Y7078753D01*
X1551937Y7081922D01*
X1555106Y7085091D01*
X1559332Y7087204D01*
X1565670Y7089317D01*
X1681872Y7142136D01*
X1686097Y7144249D01*
X1700887Y7150587D01*
X1724127Y7161151D01*
X1732578Y7163263D01*
X1743142Y7169602D01*
X1756875Y7174884D01*
X1760044Y7178053D01*
X1768495Y7180165D01*
X1779059Y7184391D01*
X1817088Y7201293D01*
X1825539Y7203406D01*
X1836103Y7209744D01*
X1844554Y7211857D01*
X1867794Y7222421D01*
X1876245Y7224533D01*
X1914275Y7241435D01*
X1925895Y7244605D01*
X1935403Y7249886D01*
X1943854Y7251999D01*
X1957587Y7257281D01*
X1960756Y7260450D01*
X1974489Y7263619D01*
X1996673Y7273127D01*
X2005124Y7275239D01*
X2019913Y7281578D01*
X2047379Y7292142D01*
X2055830Y7294254D01*
X2060055Y7296367D01*
X2074845Y7302705D01*
X2086465Y7305875D01*
X2095972Y7311156D01*
X2112874Y7315382D01*
X2131889Y7323833D01*
X2142453Y7325946D01*
X2157242Y7332284D01*
X2165693Y7334397D01*
X2184708Y7342848D01*
X2198441Y7346017D01*
X2216399Y7353412D01*
X2228020Y7356581D01*
X2239640Y7361863D01*
X2248091Y7363975D01*
X2259711Y7367145D01*
X2271331Y7372426D01*
X2285064Y7375596D01*
X2292459Y7378765D01*
X2303023Y7382990D01*
X2316756Y7386159D01*
X2328376Y7391441D01*
X2336827Y7393554D01*
X2348447Y7396723D01*
X2355841Y7399892D01*
X2366405Y7404118D01*
X2382251Y7407287D01*
X2393871Y7412569D01*
X2412886Y7416794D01*
X2427675Y7423132D01*
X2449859Y7428414D01*
X2461479Y7433696D01*
X2477325Y7436865D01*
X2487889Y7441091D01*
X2499509Y7444260D01*
X2513242Y7447429D01*
X2523806Y7451655D01*
X2547046Y7457993D01*
X2557610Y7462219D01*
X2566061Y7464331D01*
X2578738Y7466444D01*
X2589301Y7470670D01*
X2600921Y7473839D01*
X2609372Y7475952D01*
X2619936Y7478064D01*
X2634725Y7484403D01*
X2651628Y7486515D01*
X2666417Y7492854D01*
X2695996Y7499192D01*
X2706559Y7503417D01*
X2715010Y7505530D01*
X2731912Y7507643D01*
X2746702Y7513981D01*
X2761491Y7516094D01*
X2788957Y7524545D01*
X2803746Y7526658D01*
X2817479Y7531940D01*
X2825930Y7534052D01*
X2838607Y7536165D01*
X2849171Y7538278D01*
X2859734Y7542503D01*
X2868185Y7544616D01*
X2880862Y7546729D01*
X2891426Y7548842D01*
X2909384Y7554124D01*
X2917835Y7556236D01*
X2934737Y7558349D01*
X2945301Y7562575D01*
X2953752Y7564687D01*
X2968541Y7566800D01*
X2976992Y7568913D01*
X2998120Y7575251D01*
X3028755Y7580533D01*
X3038262Y7583702D01*
X3046713Y7585815D01*
X3068897Y7588984D01*
X3086856Y7594266D01*
X3095307Y7596379D01*
X3116434Y7598492D01*
X3122773Y7600604D01*
X3137562Y7604830D01*
X3152351Y7606943D01*
X3170310Y7610112D01*
X3178761Y7612224D01*
X3190381Y7615393D01*
X3205170Y7617506D01*
X3223129Y7620675D01*
X3234749Y7623845D01*
X3243200Y7625957D01*
X3269609Y7629126D01*
X3280173Y7631239D01*
X3297075Y7635465D01*
X3335105Y7641803D01*
X3343556Y7643916D01*
X3354120Y7646029D01*
X3373134Y7648141D01*
X3396375Y7652367D01*
X3404826Y7654479D01*
X3433348Y7657649D01*
X3441799Y7659761D01*
X3457645Y7662931D01*
X3466096Y7665043D01*
X3482998Y7667156D01*
X3504125Y7669269D01*
X3516802Y7671382D01*
X3525253Y7673494D01*
X3535817Y7675607D01*
X3552719Y7677720D01*
X3573846Y7679833D01*
X3594974Y7684058D01*
X3607651Y7686171D01*
X3628778Y7688284D01*
X3647793Y7690396D01*
X3660469Y7692509D01*
X3668921Y7694622D01*
X3697443Y7697791D01*
X3728078Y7700960D01*
X3740754Y7703073D01*
X3751318Y7705186D01*
X3770333Y7707299D01*
X3795686Y7709411D01*
X3814701Y7711524D01*
X3840054Y7715750D01*
X3863294Y7717862D01*
X3892873Y7719975D01*
X3909775Y7722088D01*
X3922451Y7724201D01*
X3939354Y7726313D01*
X3966819Y7728426D01*
X3985834Y7730539D01*
X3993229Y7733708D01*
X4003793Y7737933D01*
X4015413Y7741103D01*
X4029146Y7748497D01*
X4040766Y7751666D01*
X4050273Y7756948D01*
X4058724Y7759061D01*
X4069288Y7763287D01*
X4084077Y7769625D01*
X4094641Y7771738D01*
X4098867Y7775963D01*
X4113656Y7780189D01*
X4132671Y7788640D01*
X4141122Y7790753D01*
X4160137Y7799204D01*
X4168588Y7801316D01*
X4187602Y7809767D01*
X4198166Y7811880D01*
X4217181Y7820331D01*
X4227745Y7822444D01*
X4242534Y7828782D01*
X4250985Y7830895D01*
X4270000Y7839346D01*
X4281620Y7842515D01*
X4299579Y7849910D01*
X4311199Y7853079D01*
X4322819Y7858361D01*
X4339721Y7862586D01*
X4354510Y7868925D01*
X4371413Y7873150D01*
X4386202Y7879488D01*
X4403104Y7883714D01*
X4407330Y7887939D01*
X4415780Y7890052D01*
X4429513Y7893221D01*
X4439021Y7898503D01*
X4447472Y7900616D01*
X4461205Y7903785D01*
X4472825Y7909067D01*
X4481276Y7911180D01*
X4491840Y7913293D01*
X4506629Y7919631D01*
X4525644Y7923856D01*
X4540433Y7930194D01*
X4548884Y7932307D01*
X4560504Y7935476D01*
X4572124Y7940758D01*
X4587970Y7943927D01*
X4599590Y7949209D01*
X4608041Y7951322D01*
X4623887Y7954491D01*
X4635507Y7959773D01*
X4657691Y7965055D01*
X4671424Y7970337D01*
X4679875Y7972450D01*
X4692552Y7974562D01*
X4707341Y7980901D01*
X4721074Y7984070D01*
X4731638Y7988295D01*
X4743258Y7991465D01*
X4756991Y7994633D01*
X4767555Y7998859D01*
X4776006Y8000972D01*
X4788682Y8003085D01*
X4797133Y8005197D01*
X4808753Y8010479D01*
X4823543Y8012592D01*
X4831994Y8014705D01*
X4842557Y8018930D01*
X4859460Y8023156D01*
X4871080Y8026325D01*
X4884813Y8031607D01*
X4902771Y8034776D01*
X4913335Y8039001D01*
X4924955Y8042171D01*
X4941857Y8044283D01*
X4952421Y8048509D01*
X4967210Y8052734D01*
X4983056Y8055904D01*
X4993620Y8060129D01*
X5002071Y8062242D01*
X5014747Y8064355D01*
X5039044Y8071749D01*
X5047495Y8073862D01*
X5063341Y8077031D01*
X5077074Y8082313D01*
X5098201Y8084426D01*
X5108765Y8088651D01*
X5123554Y8092877D01*
X5140456Y8094990D01*
X5151020Y8099215D01*
X5165810Y8103441D01*
X5182712Y8105554D01*
X5193275Y8109779D01*
X5210177Y8114004D01*
X5226023Y8117174D01*
X5243982Y8122455D01*
X5271447Y8126681D01*
X5282011Y8130907D01*
X5290462Y8133019D01*
X5310533Y8136188D01*
X5328492Y8141470D01*
X5336943Y8143583D01*
X5354901Y8146752D01*
X5365465Y8150978D01*
X5376029Y8153090D01*
X5392931Y8155203D01*
X5401382Y8157316D01*
X5413002Y8160485D01*
X5429904Y8164711D01*
X5449975Y8167880D01*
X5461596Y8171049D01*
X5470047Y8173162D01*
X5484836Y8175274D01*
X5498569Y8178444D01*
X5516527Y8183725D01*
X5536599Y8186894D01*
X5545050Y8189007D01*
X5556670Y8192176D01*
X5565121Y8194289D01*
X5587305Y8197458D01*
X5605263Y8202740D01*
X5620053Y8204853D01*
X5640124Y8208022D01*
X5658082Y8213304D01*
X5672871Y8215417D01*
X5688717Y8218586D01*
X5705619Y8222811D01*
X5716183Y8224924D01*
X5739423Y8229150D01*
X5756325Y8233375D01*
X5794355Y8239714D01*
X5805975Y8242883D01*
X5842948Y8248165D01*
X5854569Y8251334D01*
X5871471Y8255559D01*
X5892598Y8257672D01*
X5898936Y8259785D01*
X5913726Y8264010D01*
X5934853Y8266123D01*
X5952812Y8269292D01*
X5961263Y8271405D01*
X5972883Y8274574D01*
X5999293Y8277743D01*
X6024646Y8284081D01*
X6058450Y8288307D01*
X6069014Y8290420D01*
X6080634Y8293589D01*
X6089085Y8295702D01*
X6117607Y8298871D01*
X6134509Y8303096D01*
X6147186Y8305209D01*
X6158806Y8306265D01*
X6160919D01*
X6185215Y8311547D01*
X6193666Y8313660D01*
X6222188Y8316829D01*
X6240147Y8319998D01*
X6251767Y8323168D01*
X6281346Y8327393D01*
X6301417Y8330562D01*
X6313037Y8333731D01*
X6334165Y8335844D01*
X6348954Y8337957D01*
X6366912Y8341126D01*
X6375363Y8343239D01*
X6388040Y8345351D01*
X6407055Y8347464D01*
X6430295Y8351690D01*
X6438746Y8353802D01*
X6451423Y8355915D01*
X6474663Y8358028D01*
X6487340Y8360141D01*
X6495791Y8362254D01*
X6506354Y8364366D01*
X6523256Y8366479D01*
X6546497Y8368592D01*
X6559173Y8370705D01*
X6567624Y8372817D01*
X6578188Y8374930D01*
X6597203Y8377043D01*
X6614105Y8379155D01*
X6635233Y8383381D01*
X6647909Y8385494D01*
X6666924Y8387607D01*
X6683826Y8389719D01*
X6696502Y8391832D01*
X6707066Y8393945D01*
X6719743Y8396058D01*
X6757773Y8400283D01*
X6783126Y8404509D01*
X6793689Y8406621D01*
X6812704Y8408734D01*
X6835945Y8410847D01*
X6844396Y8412960D01*
X6856016Y8416129D01*
X6870805Y8418241D01*
X6894045Y8416129D01*
D02*
G37*
G36*
X7236312Y6540000D02*
X8052893Y6541056D01*
X8057119Y6538943D01*
X8058175Y6531549D01*
X8056062Y6520985D01*
X8053950Y6512534D01*
X8050780Y6500914D01*
X8048668Y6479786D01*
X8040217Y6445982D01*
X8034935Y6413234D01*
X8030709Y6402670D01*
X8026484Y6396332D01*
X8018033Y6394219D01*
X8008525Y6395276D01*
X7424348Y6394219D01*
X7418009Y6396332D01*
X7411671Y6394219D01*
X7402164Y6388938D01*
X7400051Y6374148D01*
X7396882Y6356190D01*
X7391600Y6338231D01*
X7386318Y6307596D01*
X7384205Y6299145D01*
X7381036Y6287525D01*
X7383149Y6270623D01*
X8238816Y6268510D01*
X8240929Y6260059D01*
X8236703Y6249496D01*
X8233534Y6235763D01*
X8229308Y6208297D01*
X8222970Y6182944D01*
X8220857Y6166042D01*
X8218745Y6155478D01*
X8216632Y6147027D01*
X8213463Y6135407D01*
X8210294Y6119561D01*
X8203955Y6117448D01*
X7823659D01*
X7132787Y6119561D01*
X7129618Y6124843D01*
X7133843Y6135407D01*
X7135956Y6143858D01*
X7139125Y6168154D01*
X7142295Y6179775D01*
X7146520Y6196677D01*
X7148633Y6217804D01*
X7150746Y6224142D01*
X7154971Y6238932D01*
X7157084Y6253721D01*
X7160253Y6271680D01*
X7163422Y6283300D01*
X7165535Y6291751D01*
X7170817Y6324498D01*
X7173986Y6336119D01*
X7176099Y6344570D01*
X7181381Y6375205D01*
X7184550Y6386825D01*
X7186663Y6395276D01*
X7189831Y6419573D01*
X7191944Y6428024D01*
X7195113Y6439644D01*
X7197226Y6448095D01*
X7200395Y6472391D01*
X7205677Y6490350D01*
X7210959Y6523098D01*
X7215185Y6533662D01*
X7219410Y6540000D01*
X7229974Y6542113D01*
X7236312Y6540000D01*
D02*
G37*
G36*
X4897489Y6806207D02*
X4926011Y6792474D01*
X4928124Y6788249D01*
X4935519Y6782967D01*
X4942914Y6771347D01*
X4947139Y6760783D01*
X4953477Y6737543D01*
X4951364Y6705851D01*
X4949252Y6699513D01*
X4947139Y6684724D01*
X4943970Y6666765D01*
X4941857Y6658314D01*
X4938688Y6646694D01*
X4936575Y6631905D01*
X4933406Y6613946D01*
X4931293Y6605495D01*
X4928124Y6593875D01*
X4926011Y6572748D01*
X4921786Y6555845D01*
X4917560Y6541056D01*
X4915448Y6519929D01*
X4913335Y6511477D01*
X4906997Y6490350D01*
X4903828Y6476617D01*
X4896433Y6462884D01*
X4890095Y6452320D01*
X4880587Y6440700D01*
X4877418Y6437531D01*
X4875305Y6433305D01*
X4872136Y6430136D01*
X4867911Y6428024D01*
X4859460Y6419573D01*
X4855234Y6417460D01*
X4851009Y6413234D01*
X4837276Y6407952D01*
X4823543Y6400558D01*
X4807697Y6397389D01*
X4779175Y6394219D01*
X4032315Y6395276D01*
X4019638Y6393163D01*
X4015413Y6388938D01*
X4013300Y6374148D01*
X4010131Y6356190D01*
X4006962Y6344570D01*
X4004849Y6336119D01*
X3999567Y6305484D01*
X3996398Y6293863D01*
X3994285Y6285412D01*
X3991116Y6261116D01*
X3985834Y6243157D01*
X3983722Y6228368D01*
X3980552Y6210409D01*
X3977383Y6198789D01*
X3973158Y6181887D01*
X3971045Y6160760D01*
X3968932Y6154422D01*
X3964707Y6139632D01*
X3962594Y6124843D01*
X3960481Y6120617D01*
X3957312Y6117448D01*
X3754487Y6119561D01*
X3751318Y6122730D01*
X3753431Y6131181D01*
X3757656Y6141745D01*
X3759769Y6162873D01*
X3761882Y6171323D01*
X3765051Y6185056D01*
X3768220Y6196677D01*
X3770333Y6211466D01*
X3773502Y6229424D01*
X3775615Y6237876D01*
X3778784Y6249496D01*
X3784066Y6282243D01*
X3787235Y6293863D01*
X3789348Y6302315D01*
X3794630Y6332949D01*
X3798855Y6349852D01*
X3803081Y6377317D01*
X3805193Y6385769D01*
X3808362Y6397389D01*
X3810475Y6405840D01*
X3813644Y6430136D01*
X3818926Y6448095D01*
X3821039Y6462884D01*
X3824208Y6480843D01*
X3826321Y6489294D01*
X3829490Y6500914D01*
X3831603Y6515703D01*
X3834772Y6531549D01*
X3840054Y6538943D01*
X4699946Y6541056D01*
X4707341Y6544225D01*
X4710510Y6547394D01*
X4712623Y6555845D01*
X4715792Y6580142D01*
X4721074Y6598101D01*
X4723187Y6612890D01*
X4726356Y6630848D01*
X4729525Y6642469D01*
X4733751Y6657258D01*
X4730581Y6664652D01*
X3017135D01*
X2780506Y6662540D01*
X2777337Y6659371D01*
X2775224Y6631905D01*
X2770999Y6621341D01*
X2768886Y6612890D01*
X2764660Y6583311D01*
X2758322Y6562184D01*
X2756209Y6547394D01*
X2758322Y6543169D01*
X2761491Y6540000D01*
X3615045Y6537887D01*
X3616101Y6526267D01*
X3611876Y6515703D01*
X3607651Y6490350D01*
X3604481Y6472391D01*
X3599200Y6454433D01*
X3596030Y6430136D01*
X3593918Y6421685D01*
X3590748Y6410065D01*
X3588636Y6401614D01*
X3585467Y6377317D01*
X3583354Y6368866D01*
X3580185Y6357246D01*
X3578072Y6348795D01*
X3574903Y6324498D01*
X3571734Y6312878D01*
X3567508Y6295976D01*
X3565395Y6274849D01*
X3563283Y6268510D01*
X3559057Y6253721D01*
X3556944Y6232594D01*
X3549550Y6212522D01*
X3547437Y6201959D01*
X3543211Y6191395D01*
X3537929Y6181887D01*
X3529479Y6167098D01*
X3519971Y6155478D01*
X3516802Y6152309D01*
X3514689Y6148083D01*
X3498843Y6136463D01*
X3479829Y6128012D01*
X3450250Y6119561D01*
X3429122Y6117448D01*
X2454085Y6118505D01*
X2451972Y6126956D01*
X2456198Y6143858D01*
X2460423Y6158647D01*
X2462536Y6173436D01*
X2465705Y6189282D01*
X2467818Y6197733D01*
X2470987Y6209353D01*
X2476269Y6239988D01*
X2478381Y6248439D01*
X2481551Y6255834D01*
X2484720Y6259003D01*
X2493171Y6261116D01*
X3352007Y6262172D01*
X3354120Y6270623D01*
X3356232Y6285412D01*
X3360458Y6300202D01*
X3364683Y6317104D01*
X3366796Y6338231D01*
X3368909Y6344570D01*
X3373134Y6359359D01*
X3377360Y6388938D01*
X3372078Y6394219D01*
X3363627Y6396332D01*
X3355176Y6394219D01*
X2530144Y6395276D01*
X2518524Y6394219D01*
X2511129Y6399501D01*
X2514298Y6430136D01*
X2516411Y6440700D01*
X2521693Y6458659D01*
X2524862Y6482955D01*
X2531200Y6508308D01*
X2533313Y6520985D01*
X2537539Y6544225D01*
X2541764Y6561127D01*
X2545990Y6588593D01*
X2548102Y6597044D01*
X2551272Y6608664D01*
X2553384Y6623454D01*
X2556553Y6641412D01*
X2559723Y6653032D01*
X2561835Y6661483D01*
X2563948Y6676273D01*
X2567117Y6694231D01*
X2572399Y6712190D01*
X2576625Y6729092D01*
X2580850Y6733317D01*
X2585076Y6743881D01*
X2587188Y6748106D01*
X2593527Y6754445D01*
X2599865Y6765009D01*
X2619936Y6785080D01*
X2630500Y6791418D01*
X2657966Y6804095D01*
X2672755Y6806207D01*
X2700221Y6808320D01*
X4897489Y6806207D01*
D02*
G37*
G36*
X8312762Y6807264D02*
X8311706Y6789305D01*
X8307480Y6787192D01*
X8304311Y6775572D01*
X8302199Y6760783D01*
X8299029Y6744937D01*
X8293747Y6726979D01*
X8290579Y6706908D01*
X8288466Y6698457D01*
X8283184Y6680498D01*
X8281071Y6667822D01*
X8277902Y6664652D01*
X6917286D01*
X6209512Y6662540D01*
X6206343Y6659371D01*
X6204230Y6638243D01*
X6202117Y6629792D01*
X6200004Y6617116D01*
X6197892Y6610777D01*
X6193666Y6593875D01*
X6191554Y6572748D01*
X6189441Y6566409D01*
X6185215Y6551620D01*
X6179933Y6520985D01*
X6175708Y6504083D01*
X6173595Y6491406D01*
X6169369Y6468166D01*
X6166200Y6456546D01*
X6164087Y6448095D01*
X6160919Y6423798D01*
X6157749Y6412178D01*
X6153524Y6395276D01*
X6151411Y6374148D01*
X6149298Y6367810D01*
X6145073Y6353021D01*
X6142960Y6338231D01*
X6139791Y6320273D01*
X6136622Y6308653D01*
X6134509Y6300202D01*
X6132396Y6285412D01*
X6129227Y6269567D01*
X6128171Y6266398D01*
X6133453Y6261116D01*
X6144016Y6259003D01*
X6150355Y6261116D01*
X7084194Y6259003D01*
X7087363Y6255834D01*
X7084194Y6233650D01*
X7079968Y6216748D01*
X7076799Y6205128D01*
X7073630Y6180831D01*
X7070461Y6169211D01*
X7066235Y6152309D01*
X7063066Y6130125D01*
X7058841Y6119561D01*
X7050390Y6117448D01*
X5951755Y6119561D01*
X5928515Y6132237D01*
X5910557Y6145970D01*
X5908444Y6150196D01*
X5904218Y6154422D01*
X5899993Y6164985D01*
X5897880Y6198789D01*
X5899993Y6213579D01*
X5902106Y6234706D01*
X5906331Y6245270D01*
X5908444Y6260059D01*
X5910557Y6268510D01*
X5912669Y6287525D01*
X5916895Y6298089D01*
X5921120Y6327668D01*
X5924290Y6339288D01*
X5928515Y6356190D01*
X5930628Y6373092D01*
X5932741Y6383656D01*
X5934853Y6392107D01*
X5938022Y6403727D01*
X5940135Y6418516D01*
X5943304Y6436475D01*
X5946474Y6448095D01*
X5948586Y6456546D01*
X5950699Y6471335D01*
X5953868Y6489294D01*
X5959150Y6507252D01*
X5962319Y6531549D01*
X5964432Y6540000D01*
X5967601Y6551620D01*
X5969714Y6560071D01*
X5972883Y6584368D01*
X5976052Y6595988D01*
X5980278Y6612890D01*
X5982390Y6634017D01*
X5984503Y6640356D01*
X5988729Y6655145D01*
X5990841Y6669934D01*
X5994011Y6687893D01*
X5999293Y6705851D01*
X6003518Y6724866D01*
X6009856Y6735430D01*
X6018307Y6750219D01*
X6028871Y6765009D01*
X6033097Y6769234D01*
X6035209Y6773460D01*
X6042604Y6778741D01*
X6048942Y6785080D01*
X6059506Y6791418D01*
X6086972Y6804095D01*
X6101761Y6806207D01*
X6129227Y6808320D01*
X8312762Y6807264D01*
D02*
G37*
G36*
X5865132Y6806207D02*
X5871471Y6804095D01*
X5879922Y6801982D01*
X5894711Y6795644D01*
X5905275Y6789305D01*
X5920064Y6778741D01*
X5929572Y6769234D01*
X5931684Y6765009D01*
X5935910Y6760783D01*
X5940135Y6750219D01*
X5942248Y6722753D01*
X5939079Y6690006D01*
X5932741Y6664652D01*
X5930628Y6654089D01*
X5928515Y6637187D01*
X5926402Y6628736D01*
X5923233Y6617116D01*
X5921120Y6608664D01*
X5919008Y6587537D01*
X5916895Y6579086D01*
X5912669Y6564296D01*
X5910557Y6555845D01*
X5907387Y6533662D01*
X5905275Y6525210D01*
X5902106Y6513590D01*
X5899993Y6498801D01*
X5896824Y6480843D01*
X5893655Y6469223D01*
X5891542Y6460771D01*
X5889429Y6445982D01*
X5886260Y6430136D01*
X5884147Y6421685D01*
X5880978Y6410065D01*
X5878865Y6388938D01*
X5876753Y6380487D01*
X5872527Y6365697D01*
X5870414Y6357246D01*
X5868301Y6336119D01*
X5864076Y6321329D01*
X5859850Y6304427D01*
X5856681Y6282243D01*
X5854569Y6273792D01*
X5851400Y6262172D01*
X5849287Y6247383D01*
X5846118Y6229424D01*
X5842948Y6217804D01*
X5840836Y6209353D01*
X5838723Y6194564D01*
X5835554Y6178718D01*
X5833441Y6170267D01*
X5830272Y6158647D01*
X5828159Y6137519D01*
X5826046Y6129068D01*
X5820764Y6119561D01*
X5812313Y6117448D01*
X5617940Y6119561D01*
X5614771Y6124843D01*
X5616883Y6131181D01*
X5620053Y6144914D01*
X5623222Y6156534D01*
X5627447Y6186113D01*
X5633785Y6207240D01*
X5635898Y6222030D01*
X5639067Y6239988D01*
X5642236Y6251608D01*
X5644349Y6260059D01*
X5646462Y6274849D01*
X5649631Y6290694D01*
X5651744Y6299145D01*
X5654913Y6310766D01*
X5660195Y6341401D01*
X5664420Y6358302D01*
X5667589Y6386825D01*
X5665477Y6393163D01*
X5655969Y6396332D01*
X5647518Y6394219D01*
X5073905Y6395276D01*
X5068623Y6394219D01*
X5066510D01*
X5057003Y6399501D01*
X5059115Y6431193D01*
X5061228Y6437531D01*
X5065453Y6452320D01*
X5067566Y6460771D01*
X5069679Y6481899D01*
X5071792Y6488237D01*
X5076017Y6503027D01*
X5078130Y6517816D01*
X5080243Y6526267D01*
X5085525Y6531549D01*
X5696112Y6533662D01*
X5699281Y6536831D01*
X5705619Y6562184D01*
X5707732Y6583311D01*
X5709845Y6591762D01*
X5714070Y6606552D01*
X5718296Y6636130D01*
X5720408Y6644581D01*
X5718296Y6659371D01*
X5715126Y6662540D01*
X5706675Y6664652D01*
X5001014Y6666765D01*
X4999958Y6676273D01*
X5004184Y6686837D01*
X5008409Y6716415D01*
X5011578Y6730148D01*
X5014747Y6741768D01*
X5016860Y6750219D01*
X5020029Y6774516D01*
X5022142Y6782967D01*
X5025311Y6794587D01*
X5027424Y6803038D01*
X5032706Y6808320D01*
X5865132Y6806207D01*
D02*
G37*
G36*
X1396649D02*
X1397706Y6790362D01*
X1395593Y6784023D01*
X1392424Y6772403D01*
X1390311Y6763952D01*
X1383973Y6725923D01*
X1380804Y6714302D01*
X1378691Y6705851D01*
X1373409Y6675216D01*
X1370240Y6663596D01*
X1368127Y6655145D01*
X1364958Y6630848D01*
X1362845Y6622397D01*
X1359676Y6610777D01*
X1357563Y6602326D01*
X1355451Y6581199D01*
X1353338Y6574860D01*
X1349112Y6560071D01*
X1347000Y6545282D01*
X1343830Y6527323D01*
X1340661Y6515703D01*
X1338549Y6507252D01*
X1333267Y6474504D01*
X1330097Y6462884D01*
X1327985Y6454433D01*
X1322703Y6423798D01*
X1319534Y6412178D01*
X1317421Y6403727D01*
X1314252Y6379430D01*
X1312139Y6370979D01*
X1308970Y6359359D01*
X1306857Y6350908D01*
X1304744Y6329780D01*
X1302632Y6323442D01*
X1298406Y6308653D01*
X1296293Y6293863D01*
X1293124Y6275905D01*
X1289955Y6264285D01*
X1287842Y6255834D01*
X1285730Y6241045D01*
X1282561Y6223086D01*
X1279391Y6211466D01*
X1277279Y6203015D01*
X1271997Y6172380D01*
X1268828Y6160760D01*
X1266715Y6152309D01*
X1263546Y6128012D01*
X1260376Y6120617D01*
X1250869Y6117448D01*
X1042762Y6118505D01*
X1043819Y6140689D01*
X1048044Y6142801D01*
X1051214Y6154422D01*
X1053326Y6175549D01*
X1055439Y6184000D01*
X1058608Y6195620D01*
X1060721Y6204071D01*
X1062834Y6216748D01*
X1067059Y6239988D01*
X1069172Y6248439D01*
X1072341Y6260059D01*
X1075510Y6284356D01*
X1077623Y6292807D01*
X1080792Y6304427D01*
X1082905Y6312878D01*
X1086074Y6337175D01*
X1091356Y6355134D01*
X1093469Y6369923D01*
X1096638Y6387881D01*
X1098751Y6396332D01*
X1101920Y6407952D01*
X1104032Y6422742D01*
X1107201Y6440700D01*
X1110371Y6452320D01*
X1112483Y6460771D01*
X1117765Y6491406D01*
X1120935Y6503027D01*
X1123047Y6511477D01*
X1126216Y6535774D01*
X1128329Y6544225D01*
X1131498Y6555845D01*
X1133611Y6564296D01*
X1136780Y6588593D01*
X1142062Y6606552D01*
X1144175Y6621341D01*
X1147344Y6639299D01*
X1150513Y6650920D01*
X1152626Y6659371D01*
X1154739Y6674160D01*
X1157908Y6692118D01*
X1161077Y6703738D01*
X1163190Y6712190D01*
X1168472Y6742824D01*
X1171641Y6754445D01*
X1173754Y6762896D01*
X1176922Y6787192D01*
X1179035Y6795644D01*
X1182204Y6803038D01*
X1187486Y6808320D01*
X1322703D01*
X1396649Y6806207D01*
D02*
G37*
G36*
X1624827Y6808320D02*
X1626940D01*
X1635391Y6806207D01*
X1654406Y6804095D01*
X1673421Y6795644D01*
X1681872Y6793531D01*
X1688210Y6787192D01*
X1696661Y6785080D01*
X1705112Y6776629D01*
X1709337Y6774516D01*
X1728352Y6755501D01*
X1732578Y6753388D01*
X1749480Y6736486D01*
X1753705Y6734374D01*
X1772720Y6715359D01*
X1776946Y6713246D01*
X1795961Y6694231D01*
X1800186Y6692118D01*
X1827652Y6664652D01*
X1831877Y6662540D01*
X1850892Y6643525D01*
X1855118Y6641412D01*
X1859343Y6635074D01*
X1863569Y6632961D01*
X1882584Y6613946D01*
X1886809Y6611834D01*
X1897373Y6601270D01*
X1901598Y6599157D01*
X1929064Y6571691D01*
X1933290Y6569578D01*
X1952305Y6550563D01*
X1955474Y6549507D01*
X1957587Y6545282D01*
X1964981Y6540000D01*
X1990334Y6514647D01*
X1994560Y6512534D01*
X2005124Y6501970D01*
X2009349Y6499857D01*
X2030477Y6478730D01*
X2034702Y6476617D01*
X2036815Y6472391D01*
X2041041Y6470279D01*
X2051604Y6459715D01*
X2054773Y6458659D01*
X2056886Y6454433D01*
X2060055Y6451264D01*
X2064281Y6449151D01*
X2091747Y6421685D01*
X2095972Y6419573D01*
X2114987Y6400558D01*
X2119213Y6398445D01*
X2121325Y6394219D01*
X2125551Y6392107D01*
X2138227Y6379430D01*
X2142453Y6377317D01*
X2161468Y6358302D01*
X2165693Y6356190D01*
X2167806Y6351964D01*
X2172031Y6349852D01*
X2193159Y6328724D01*
X2196328Y6327668D01*
X2198441Y6323442D01*
X2201610Y6320273D01*
X2210061Y6322386D01*
X2212174Y6330837D01*
X2215343Y6342457D01*
X2217456Y6350908D01*
X2219569Y6365697D01*
X2222738Y6379430D01*
X2228020Y6397389D01*
X2232245Y6424855D01*
X2236471Y6435418D01*
X2240696Y6464997D01*
X2247034Y6486124D01*
X2249147Y6494576D01*
X2252316Y6514647D01*
X2257598Y6532605D01*
X2259711Y6547394D01*
X2264993Y6569578D01*
X2268162Y6581199D01*
X2270275Y6595988D01*
X2272388Y6608664D01*
X2276613Y6619228D01*
X2278726Y6634017D01*
X2280838Y6642469D01*
X2284008Y6658314D01*
X2287177Y6669934D01*
X2289290Y6678385D01*
X2292459Y6698457D01*
X2297741Y6716415D01*
X2299853Y6731204D01*
X2303023Y6744937D01*
X2305135Y6753388D01*
X2308305Y6765009D01*
X2310417Y6773460D01*
X2312530Y6792474D01*
X2319924Y6806207D01*
X2328376Y6808320D01*
X2531200Y6806207D01*
X2534370Y6796700D01*
X2532257Y6790362D01*
X2529088Y6776629D01*
X2524862Y6759727D01*
X2520637Y6732261D01*
X2518524Y6723810D01*
X2515355Y6712190D01*
X2511129Y6682611D01*
X2506904Y6667822D01*
X2504791Y6659371D01*
X2502678Y6644581D01*
X2499509Y6628736D01*
X2497396Y6620285D01*
X2494227Y6608664D01*
X2492114Y6587537D01*
X2490002Y6579086D01*
X2485776Y6564296D01*
X2483663Y6555845D01*
X2480494Y6533662D01*
X2478381Y6525210D01*
X2475212Y6513590D01*
X2470987Y6484012D01*
X2468874Y6475561D01*
X2464649Y6460771D01*
X2462536Y6445982D01*
X2459367Y6428024D01*
X2456198Y6416403D01*
X2454085Y6407952D01*
X2451972Y6393163D01*
X2448803Y6377317D01*
X2445634Y6365697D01*
X2443521Y6357246D01*
X2441408Y6336119D01*
X2439295Y6327668D01*
X2435070Y6312878D01*
X2432957Y6304427D01*
X2429788Y6280130D01*
X2427675Y6271680D01*
X2424506Y6262172D01*
X2422393Y6247383D01*
X2419224Y6229424D01*
X2417111Y6220973D01*
X2413942Y6209353D01*
X2411830Y6194564D01*
X2407604Y6184000D01*
X2397040Y6164985D01*
X2392815Y6160760D01*
X2390702Y6156534D01*
X2372744Y6138576D01*
X2362180Y6132237D01*
X2357954Y6128012D01*
X2344221Y6122730D01*
X2341052Y6119561D01*
X2315699Y6113223D01*
X2312530Y6110054D01*
X2311474Y6106884D01*
X2219569Y6107941D01*
X2217456Y6112166D01*
X2205836Y6115335D01*
X2183652Y6120617D01*
X2180483Y6123787D01*
X2172031Y6125899D01*
X2140340Y6142801D01*
X2136115Y6147027D01*
X2131889Y6149140D01*
X2123438Y6157591D01*
X2119213Y6159703D01*
X2110762Y6168154D01*
X2106536Y6170267D01*
X2091747Y6185056D01*
X2087521Y6187169D01*
X2079070Y6195620D01*
X2074845Y6197733D01*
X2064281Y6208297D01*
X2060055Y6210409D01*
X2049492Y6220973D01*
X2046323Y6222030D01*
X2044210Y6226255D01*
X2036815Y6231537D01*
X2030477Y6237876D01*
X2026251Y6239988D01*
X2017800Y6248439D01*
X2013575Y6250552D01*
X2005124Y6259003D01*
X2000898Y6261116D01*
X1992447Y6269567D01*
X1988222Y6271680D01*
X1960756Y6299145D01*
X1956530Y6301258D01*
X1952305Y6307596D01*
X1948079Y6309709D01*
X1918501Y6339288D01*
X1914275Y6341401D01*
X1884697Y6370979D01*
X1880471Y6373092D01*
X1861456Y6392107D01*
X1857231Y6394219D01*
X1819201Y6432249D01*
X1814976Y6434362D01*
X1810750Y6440700D01*
X1806524Y6442813D01*
X1776946Y6472391D01*
X1772720Y6474504D01*
X1768495Y6480843D01*
X1764269Y6482955D01*
X1633278Y6613946D01*
X1623771Y6612890D01*
X1621658Y6604439D01*
X1618489Y6582255D01*
X1616376Y6573804D01*
X1613207Y6562184D01*
X1611094Y6547394D01*
X1607925Y6529436D01*
X1605812Y6520985D01*
X1602643Y6509365D01*
X1600530Y6494576D01*
X1597361Y6476617D01*
X1594192Y6464997D01*
X1592080Y6456546D01*
X1589967Y6441756D01*
X1586798Y6425911D01*
X1583629Y6414291D01*
X1581516Y6405840D01*
X1579403Y6384712D01*
X1577290Y6376261D01*
X1573065Y6361472D01*
X1570952Y6353021D01*
X1567783Y6328724D01*
X1562501Y6310766D01*
X1560388Y6295976D01*
X1557219Y6278018D01*
X1555106Y6269567D01*
X1551937Y6257947D01*
X1549824Y6243157D01*
X1546655Y6225199D01*
X1543486Y6213579D01*
X1541373Y6205128D01*
X1539261Y6190338D01*
X1536091Y6174493D01*
X1531866Y6157591D01*
X1529753Y6144914D01*
X1525528Y6121674D01*
X1514964Y6117448D01*
X1318477Y6119561D01*
X1315308Y6126956D01*
X1317421Y6133294D01*
X1320590Y6147027D01*
X1323759Y6158647D01*
X1325872Y6167098D01*
X1329041Y6191395D01*
X1331154Y6199846D01*
X1334323Y6211466D01*
X1336436Y6226255D01*
X1339605Y6244214D01*
X1341718Y6252665D01*
X1344887Y6264285D01*
X1347000Y6279074D01*
X1350169Y6299145D01*
X1355451Y6317104D01*
X1357563Y6338231D01*
X1366014Y6372036D01*
X1371296Y6402670D01*
X1375522Y6419573D01*
X1380804Y6454433D01*
X1382916Y6460771D01*
X1387142Y6477673D01*
X1390311Y6501970D01*
X1395593Y6519929D01*
X1397706Y6534718D01*
X1400875Y6554789D01*
X1404044Y6566409D01*
X1406157Y6574860D01*
X1408269Y6589650D01*
X1411439Y6607608D01*
X1414608Y6619228D01*
X1416721Y6627679D01*
X1418833Y6648807D01*
X1420946Y6657258D01*
X1425172Y6672047D01*
X1427284Y6680498D01*
X1430454Y6694231D01*
X1443130Y6719584D01*
X1453694Y6736486D01*
X1456863Y6739655D01*
X1458976Y6743881D01*
X1489611Y6774516D01*
X1500175Y6780854D01*
X1519189Y6791418D01*
X1529753Y6795644D01*
X1549824Y6803038D01*
X1561444Y6806207D01*
X1604756Y6809377D01*
X1624827Y6808320D01*
D02*
G37*
G36*
X7181905Y4566299D02*
X7182471Y4565733D01*
X7188704Y4565166D01*
X7188138Y4563466D01*
X7163206Y4562333D01*
X7158674Y4563466D01*
X7158107Y4565166D01*
X7163206Y4566866D01*
X7181905Y4566299D01*
D02*
G37*
D35*
X2970000Y5914600D02*
G03*
X2944600Y5940000I-25400J0D01*
G01*
Y4080000D02*
G03*
X2970000Y4105400I0J25400D01*
G01*
X1165400Y5940000D02*
G03*
X1140000Y5914600I0J-25400D01*
G01*
Y4105400D02*
G03*
X1165400Y4080000I25400J0D01*
G01*
X4660000Y5914600D02*
G03*
X4634600Y5940000I-25400J0D01*
G01*
Y4080000D02*
G03*
X4660000Y4105400I0J25400D01*
G01*
X3085400Y5940000D02*
G03*
X3060000Y5914600I0J-25400D01*
G01*
Y4105400D02*
G03*
X3085400Y4080000I25400J0D01*
G01*
X1165400D02*
X2944600D01*
X1165400Y5940000D02*
X2944600D01*
X2970000Y4105400D02*
Y5914600D01*
X1140000Y4105400D02*
Y5914600D01*
X3085400Y4080000D02*
X4634600D01*
X3085400Y5940000D02*
X4634600D01*
X4660000Y4105400D02*
Y5914600D01*
X3060000Y4105400D02*
Y5914600D01*
X7275000Y2210000D02*
X8465000D01*
X7275000Y2810000D02*
X8465000D01*
X7275000Y1610000D02*
X8465000D01*
X5132617Y4693305D02*
X5179742Y4740430D01*
X5156179Y4716867D01*
X5226867Y4646179D01*
X5250430Y4811118D02*
X5203305Y4763993D01*
X5273992Y4693305D01*
X5321118Y4740430D01*
X5238648Y4728648D02*
X5262211Y4752211D01*
X5332899Y4870024D02*
X5309336Y4870024D01*
X5285774Y4846462D01*
Y4822899D01*
X5297555Y4811118D01*
X5321118D01*
X5344680Y4834680D01*
X5368243Y4834680D01*
X5380024Y4822899D01*
X5380024Y4799336D01*
X5356462Y4775774D01*
X5332899D01*
X5344680Y4905368D02*
X5391806Y4952493D01*
X5368243Y4928931D01*
X5438931Y4858243D01*
X5486056Y4905368D02*
Y4976056D01*
X5415368D01*
X5878648Y5307960D02*
X5807961D01*
Y5378648D01*
X5902211Y5449336D02*
X5878648Y5449336D01*
X5855086Y5425774D01*
Y5402211D01*
X5902211Y5355086D01*
X5925774D01*
X5949336Y5378648D01*
Y5402211D01*
X5925774Y5425774D01*
X5902211Y5402211D01*
X5984680Y5413992D02*
X5913992Y5484680D01*
X6031806Y5461118D01*
X5961118Y5531806D01*
X5984680Y5555368D02*
X6055368Y5484680D01*
X6090712Y5520024D01*
X6090712Y5543587D01*
X6043587Y5590712D01*
X6020024Y5590712D01*
X5984680Y5555368D01*
X2215384Y5760016D02*
X2165400Y5810000D01*
X2215384Y5859984D01*
X2332013Y5843323D02*
X2315352Y5859984D01*
X2282029D01*
X2265368Y5843323D01*
Y5776678D01*
X2282029Y5760016D01*
X2315352D01*
X2332013Y5776678D01*
Y5810000D01*
X2298690D01*
X2365336Y5760016D02*
Y5859984D01*
X2431981Y5760016D01*
Y5859984D01*
X2465303D02*
Y5760016D01*
X2515287D01*
X2531948Y5776678D01*
Y5843323D01*
X2515287Y5859984D01*
X2465303D01*
X1305400D02*
X1372045D01*
X1338723D01*
Y5760016D01*
X1472013Y5859984D02*
X1405368D01*
Y5760016D01*
X1472013D01*
X1405368Y5810000D02*
X1438691D01*
X1571981Y5843323D02*
X1555320Y5859984D01*
X1521997D01*
X1505336Y5843323D01*
Y5826661D01*
X1521997Y5810000D01*
X1555320D01*
X1571981Y5793339D01*
Y5776678D01*
X1555320Y5760016D01*
X1521997D01*
X1505336Y5776678D01*
X1605304Y5859984D02*
X1671949D01*
X1638626D01*
Y5760016D01*
X1705271D02*
X1755255Y5810000D01*
X1705271Y5859984D01*
X1773824Y1204860D02*
X1926175D01*
Y1281035D01*
X1900783Y1306427D01*
X1875392D01*
X1850000Y1281035D01*
Y1204860D01*
Y1281035D01*
X1824608Y1306427D01*
X1799216D01*
X1773824Y1281035D01*
Y1204860D01*
X1926175Y1357211D02*
X1824608D01*
X1773824Y1407994D01*
X1824608Y1458778D01*
X1926175D01*
X1850000D01*
Y1357211D01*
X1773824Y1509561D02*
Y1611129D01*
Y1560345D01*
X1926175D01*
X1773824Y1661912D02*
Y1763479D01*
Y1712696D01*
X1926175D01*
X1773824Y1966614D02*
Y2017397D01*
Y1992005D01*
X1926175D01*
Y1966614D01*
Y2017397D01*
Y2093572D02*
X1773824D01*
X1926175Y2195140D01*
X1773824D01*
X4174608Y4430783D02*
X4149216Y4456175D01*
X4098433D01*
X4073041Y4430783D01*
Y4329216D01*
X4098433Y4303825D01*
X4149216D01*
X4174608Y4329216D01*
X4326959Y4456175D02*
X4276175Y4430783D01*
X4225392Y4380000D01*
Y4329216D01*
X4250784Y4303825D01*
X4301567D01*
X4326959Y4329216D01*
Y4354608D01*
X4301567Y4380000D01*
X4225392D01*
X4323824Y5283041D02*
X4476175D01*
Y5384608D01*
Y5536959D02*
Y5435392D01*
X4374608Y5536959D01*
X4349216D01*
X4323824Y5511567D01*
Y5460784D01*
X4349216Y5435392D01*
X3392391Y4552443D02*
Y4588352D01*
X3356482Y4624262D01*
X3320573D01*
X3248754Y4552443D01*
Y4516533D01*
X3284663Y4480624D01*
X3320573D01*
X3518074Y4462669D02*
X3446256Y4534488D01*
X3392391Y4480624D01*
X3446256Y4462669D01*
X3464210Y4444715D01*
Y4408805D01*
X3428301Y4372896D01*
X3392391D01*
X3356482Y4408805D01*
Y4444715D01*
X2504317Y4272045D02*
X2612045Y4164317D01*
X2683864Y4236136D01*
X2719774Y4272045D02*
X2755683Y4307955D01*
X2737728Y4290000D01*
X2630000Y4397728D01*
Y4361819D01*
X1963041Y5423825D02*
Y5576175D01*
X2039216D01*
X2064608Y5550783D01*
Y5500000D01*
X2039216Y5474608D01*
X1963041D01*
X2013825D02*
X2064608Y5423825D01*
X2216959D02*
X2115392D01*
X2216959Y5525392D01*
Y5550783D01*
X2191567Y5576175D01*
X2140784D01*
X2115392Y5550783D01*
X1754608D02*
X1729217Y5576175D01*
X1678433D01*
X1653041Y5550783D01*
Y5449216D01*
X1678433Y5423825D01*
X1729217D01*
X1754608Y5449216D01*
X1881567Y5423825D02*
Y5576175D01*
X1805392Y5500000D01*
X1906959D01*
X1466175Y4773041D02*
X1313824D01*
Y4849216D01*
X1339216Y4874608D01*
X1390000D01*
X1415392Y4849216D01*
Y4773041D01*
Y4823824D02*
X1466175Y4874608D01*
X1339216Y4925392D02*
X1313824Y4950784D01*
Y5001567D01*
X1339216Y5026959D01*
X1364608D01*
X1390000Y5001567D01*
Y4976175D01*
Y5001567D01*
X1415392Y5026959D01*
X1440783D01*
X1466175Y5001567D01*
Y4950784D01*
X1440783Y4925392D01*
X2233825Y3798433D02*
X2386175D01*
Y3874608D01*
X2360783Y3900000D01*
X2259216D01*
X2233825Y3874608D01*
Y3798433D01*
X2386175Y3950784D02*
Y4001567D01*
Y3976176D01*
X2233825D01*
X2259216Y3950784D01*
X2140783Y3550000D02*
X2039216D01*
X2013825Y3524608D01*
Y3473825D01*
X2039216Y3448433D01*
X2140783D01*
X2166175Y3473825D01*
Y3524608D01*
X2115392Y3499217D02*
X2166175Y3550000D01*
Y3524608D02*
X2140783Y3550000D01*
X2166175Y3600784D02*
Y3651567D01*
Y3626176D01*
X2013825D01*
X2039216Y3600784D01*
X2728433Y3613825D02*
Y3766175D01*
X2804608D01*
X2830000Y3740783D01*
Y3690000D01*
X2804608Y3664608D01*
X2728433D01*
X2779216D02*
X2830000Y3613825D01*
X2880784D02*
X2931567D01*
X2906176D01*
Y3766175D01*
X2880784Y3740783D01*
X2424608Y5150783D02*
X2399216Y5176175D01*
X2348433D01*
X2323041Y5150783D01*
Y5049216D01*
X2348433Y5023825D01*
X2399216D01*
X2424608Y5049216D01*
X2576959Y5023825D02*
X2475392D01*
X2576959Y5125392D01*
Y5150783D01*
X2551567Y5176175D01*
X2500784D01*
X2475392Y5150783D01*
X2714608D02*
X2689217Y5176175D01*
X2638433D01*
X2613041Y5150783D01*
Y5049216D01*
X2638433Y5023825D01*
X2689217D01*
X2714608Y5049216D01*
X2765392Y5150783D02*
X2790784Y5176175D01*
X2841567D01*
X2866959Y5150783D01*
Y5125392D01*
X2841567Y5100000D01*
X2816175D01*
X2841567D01*
X2866959Y5074608D01*
Y5049216D01*
X2841567Y5023825D01*
X2790784D01*
X2765392Y5049216D01*
X1940000Y4390784D02*
X1914608Y4416176D01*
X1863825D01*
X1838433Y4390784D01*
Y4289217D01*
X1863825Y4263825D01*
X1914608D01*
X1940000Y4289217D01*
X1990784Y4263825D02*
X2041567D01*
X2016176D01*
Y4416176D01*
X1990784Y4390784D01*
D56*
X2722500Y2642500D02*
G03*
X2722500Y2642500I-12500J0D01*
G01*
X2317500Y2410000D02*
G03*
X2317500Y2410000I-12500J0D01*
G01*
X3747500Y4947500D02*
G03*
X3747500Y4947500I-12500J0D01*
G01*
X2263231Y4710000D02*
G03*
X2263231Y4710000I-12500J0D01*
G01*
X2499000Y4016000D02*
G03*
X2499000Y4016000I-12500J0D01*
G01*
D57*
X2001000Y1041000D02*
Y2359000D01*
Y1041000D02*
X2999000D01*
Y2359000D01*
X2885000D02*
X2999000D01*
X2465000D02*
X2535000D01*
X2001000D02*
X2115000D01*
X4082190Y4554690D02*
Y4885310D01*
X4317810Y4554690D02*
Y4885310D01*
X3789200Y5055000D02*
Y5785000D01*
Y5055000D02*
X3915000D01*
X3789200Y5785000D02*
X3915000D01*
X3820000Y4700000D02*
X3840000D01*
X3820000Y4920000D02*
X3840000D01*
X3346152Y4696568D02*
X3586568Y4456152D01*
X3473432Y4823848D02*
X3713848Y4583432D01*
X2207649Y4479781D02*
X2420219Y4692351D01*
X2419781Y4267649D02*
X2632351Y4480219D01*
X2177500Y5064690D02*
Y5315310D01*
X1962500Y5064690D02*
Y5315310D01*
X1915000Y5080000D02*
Y5300000D01*
X1685000Y5080000D02*
Y5300000D01*
X1512500Y4764690D02*
Y5015310D01*
X1727500Y4764690D02*
Y5015310D01*
X2075125Y4660000D02*
X2125125D01*
X2075125Y4910000D02*
X2125125D01*
X1875125Y4660000D02*
X1925125D01*
X1875125Y4910000D02*
X1925125D01*
X2728000Y3820000D02*
Y3980000D01*
X2572000Y3820000D02*
X2728000D01*
X2572000Y3980000D02*
X2728000D01*
X2572000Y3820000D02*
Y3980000D01*
X2325000Y3695000D02*
X2377235D01*
X2325000Y3405000D02*
Y3483158D01*
Y3616842D02*
Y3695000D01*
Y3405000D02*
X2377235D01*
X2704690Y3352500D02*
X2955310D01*
X2704690Y3567500D02*
X2955310D01*
D58*
X3634298Y4408423D02*
X3761577Y4535702D01*
X4840032Y4343548D02*
Y4476838D01*
X4773387Y4410193D02*
X4906678D01*
X4740064Y4676774D02*
Y4543484D01*
X4840032D01*
X4806710Y4610129D01*
Y4643451D01*
X4840032Y4676774D01*
X4906678D01*
X4940000Y4643451D01*
Y4576806D01*
X4906678Y4543484D01*
X4740064Y4743419D02*
X4873355D01*
X4940000Y4810064D01*
X4873355Y4876710D01*
X4740064D01*
X4940000Y5143290D02*
X4740064D01*
Y5243258D01*
X4773387Y5276581D01*
X4840032D01*
X4873355Y5243258D01*
Y5143290D01*
Y5209935D02*
X4940000Y5276581D01*
X4740064Y5476516D02*
Y5343226D01*
X4940000D01*
Y5476516D01*
X4840032Y5343226D02*
Y5409871D01*
X4773387Y5676452D02*
X4740064Y5643129D01*
Y5576484D01*
X4773387Y5543162D01*
X4906678D01*
X4940000Y5576484D01*
Y5643129D01*
X4906678Y5676452D01*
X4840032D01*
Y5609807D01*
X950032Y4160274D02*
Y4293564D01*
X883387Y4226919D02*
X1016678D01*
X883387Y4360209D02*
X850065Y4393532D01*
Y4460177D01*
X883387Y4493500D01*
X916710D01*
X950032Y4460177D01*
Y4426854D01*
Y4460177D01*
X983355Y4493500D01*
X1016678D01*
X1050000Y4460177D01*
Y4393532D01*
X1016678Y4360209D01*
X1050000Y4560145D02*
X1016678D01*
Y4593468D01*
X1050000D01*
Y4560145D01*
X883387Y4726758D02*
X850065Y4760080D01*
Y4826726D01*
X883387Y4860048D01*
X916710D01*
X950032Y4826726D01*
Y4793403D01*
Y4826726D01*
X983355Y4860048D01*
X1016678D01*
X1050000Y4826726D01*
Y4760080D01*
X1016678Y4726758D01*
X850065Y4926693D02*
X983355D01*
X1050000Y4993339D01*
X983355Y5059984D01*
X850065D01*
X1050000Y5326565D02*
X850065D01*
Y5426532D01*
X883387Y5459855D01*
X950032D01*
X983355Y5426532D01*
Y5326565D01*
Y5393210D02*
X1050000Y5459855D01*
X850065Y5659791D02*
Y5526500D01*
X1050000D01*
Y5659791D01*
X950032Y5526500D02*
Y5593145D01*
X883387Y5859726D02*
X850065Y5826404D01*
Y5759758D01*
X883387Y5726436D01*
X1016678D01*
X1050000Y5759758D01*
Y5826404D01*
X1016678Y5859726D01*
X950032D01*
Y5793081D01*
X7448290Y3326613D02*
X7414968Y3359935D01*
X7348322D01*
X7315000Y3326613D01*
Y3193322D01*
X7348322Y3160000D01*
X7414968D01*
X7448290Y3193322D01*
X7514935Y3359935D02*
Y3160000D01*
Y3259968D01*
X7648226D01*
Y3359935D01*
Y3160000D01*
X7714871D02*
Y3359935D01*
X7814839D01*
X7848161Y3326613D01*
Y3259968D01*
X7814839Y3226645D01*
X7714871D01*
X7781516D02*
X7848161Y3160000D01*
X7914807Y3359935D02*
X7981452D01*
X7948129D01*
Y3160000D01*
X7914807D01*
X7981452D01*
X8214710Y3326613D02*
X8181387Y3359935D01*
X8114742D01*
X8081419Y3326613D01*
Y3293290D01*
X8114742Y3259968D01*
X8181387D01*
X8214710Y3226645D01*
Y3193322D01*
X8181387Y3160000D01*
X8114742D01*
X8081419Y3193322D01*
X7315000Y2860000D02*
Y3059935D01*
X7414968D01*
X7448290Y3026613D01*
Y2959968D01*
X7414968Y2926645D01*
X7315000D01*
X7381645D02*
X7448290Y2860000D01*
X7614903Y3059935D02*
X7548258D01*
X7514935Y3026613D01*
Y2893322D01*
X7548258Y2860000D01*
X7614903D01*
X7648226Y2893322D01*
Y3026613D01*
X7614903Y3059935D01*
X7714871D02*
Y2893322D01*
X7748194Y2860000D01*
X7814839D01*
X7848161Y2893322D01*
Y3059935D01*
X8048097Y3026613D02*
X8014774Y3059935D01*
X7948129D01*
X7914807Y3026613D01*
Y2993290D01*
X7948129Y2959968D01*
X8014774D01*
X8048097Y2926645D01*
Y2893322D01*
X8014774Y2860000D01*
X7948129D01*
X7914807Y2893322D01*
X8248033Y3059935D02*
X8114742D01*
Y2860000D01*
X8248033D01*
X8114742Y2959968D02*
X8181387D01*
X7448290Y2759935D02*
X7381645D01*
X7414968D01*
Y2593322D01*
X7381645Y2560000D01*
X7348322D01*
X7315000Y2593322D01*
X7614903Y2759935D02*
X7548258D01*
X7514935Y2726613D01*
Y2593322D01*
X7548258Y2560000D01*
X7614903D01*
X7648226Y2593322D01*
Y2726613D01*
X7614903Y2759935D01*
X7848161Y2726613D02*
X7814839Y2759935D01*
X7748194D01*
X7714871Y2726613D01*
Y2693290D01*
X7748194Y2659968D01*
X7814839D01*
X7848161Y2626645D01*
Y2593322D01*
X7814839Y2560000D01*
X7748194D01*
X7714871Y2593322D01*
X8048097Y2759935D02*
X7914807D01*
Y2560000D01*
X8048097D01*
X7914807Y2659968D02*
X7981452D01*
X8114742Y2560000D02*
Y2759935D01*
X8214710D01*
X8248033Y2726613D01*
Y2659968D01*
X8214710Y2626645D01*
X8114742D01*
X8314678Y2759935D02*
Y2560000D01*
Y2659968D01*
X8447968D01*
Y2759935D01*
Y2560000D01*
X7315000Y2260000D02*
Y2459935D01*
X7414968D01*
X7448290Y2426613D01*
Y2359968D01*
X7414968Y2326645D01*
X7315000D01*
X7648226Y2459935D02*
X7514935D01*
Y2260000D01*
X7648226D01*
X7514935Y2359968D02*
X7581580D01*
X7714871Y2260000D02*
Y2459935D01*
X7848161Y2260000D01*
Y2459935D01*
X7914807Y2260000D02*
Y2459935D01*
X7981452Y2393290D01*
X8048097Y2459935D01*
Y2260000D01*
X8114742D02*
Y2393290D01*
X8181387Y2459935D01*
X8248033Y2393290D01*
Y2260000D01*
Y2359968D01*
X8114742D01*
X8314678Y2260000D02*
Y2459935D01*
X8447968Y2260000D01*
Y2459935D01*
X7448290Y2126613D02*
X7414968Y2159935D01*
X7348322D01*
X7315000Y2126613D01*
Y2093290D01*
X7348322Y2059968D01*
X7414968D01*
X7448290Y2026645D01*
Y1993322D01*
X7414968Y1960000D01*
X7348322D01*
X7315000Y1993322D01*
X7648226Y2159935D02*
X7514935D01*
Y1960000D01*
X7648226D01*
X7514935Y2059968D02*
X7581580D01*
X7714871Y1960000D02*
Y2093290D01*
X7781516Y2159935D01*
X7848161Y2093290D01*
Y1960000D01*
Y2059968D01*
X7714871D01*
X7914807Y1960000D02*
Y2159935D01*
X8048097Y1960000D01*
Y2159935D01*
X7315000Y1859935D02*
Y1660000D01*
X7414968D01*
X7448290Y1693322D01*
Y1826613D01*
X7414968Y1859935D01*
X7315000D01*
X7514935Y1660000D02*
Y1793290D01*
X7581580Y1859935D01*
X7648226Y1793290D01*
Y1660000D01*
Y1759968D01*
X7514935D01*
X7714871Y1859935D02*
Y1693322D01*
X7748194Y1660000D01*
X7814839D01*
X7848161Y1693322D01*
Y1859935D01*
X7914807Y1660000D02*
Y1859935D01*
X8014774D01*
X8048097Y1826613D01*
Y1759968D01*
X8014774Y1726645D01*
X7914807D01*
X8114742Y1859935D02*
Y1660000D01*
Y1759968D01*
X8248033D01*
Y1859935D01*
Y1660000D01*
X8314678Y1859935D02*
X8381323D01*
X8348000D01*
Y1660000D01*
X8314678D01*
X8381323D01*
X8481291D02*
Y1859935D01*
X8614581Y1660000D01*
Y1859935D01*
X8814517D02*
X8681226D01*
Y1660000D01*
X8814517D01*
X8681226Y1759968D02*
X8747871D01*
X9014452Y1859935D02*
X8881162D01*
Y1660000D01*
X9014452D01*
X8881162Y1759968D02*
X8947807D01*
X7315000Y1559935D02*
Y1360000D01*
X7414968D01*
X7448290Y1393322D01*
Y1526613D01*
X7414968Y1559935D01*
X7315000D01*
X7514935Y1360000D02*
Y1493290D01*
X7581580Y1559935D01*
X7648226Y1493290D01*
Y1360000D01*
Y1459968D01*
X7514935D01*
X7714871Y1360000D02*
Y1559935D01*
X7814839D01*
X7848161Y1526613D01*
Y1459968D01*
X7814839Y1426645D01*
X7714871D01*
X7781516D02*
X7848161Y1360000D01*
X7914807Y1559935D02*
Y1360000D01*
X7981452Y1426645D01*
X8048097Y1360000D01*
Y1559935D01*
X8114742D02*
X8181387D01*
X8148065D01*
Y1360000D01*
X8114742D01*
X8181387D01*
X8281355D02*
Y1559935D01*
X8414645Y1360000D01*
Y1559935D01*
X910193Y1010000D02*
X776903D01*
X910193Y1143290D01*
Y1176613D01*
X876871Y1209936D01*
X810225D01*
X776903Y1176613D01*
X976839D02*
X1010161Y1209936D01*
X1076806D01*
X1110129Y1176613D01*
Y1043323D01*
X1076806Y1010000D01*
X1010161D01*
X976839Y1043323D01*
Y1176613D01*
X1310064Y1010000D02*
X1176774D01*
X1310064Y1143290D01*
Y1176613D01*
X1276742Y1209936D01*
X1210097D01*
X1176774Y1176613D01*
X1510000Y1010000D02*
X1376710D01*
X1510000Y1143290D01*
Y1176613D01*
X1476678Y1209936D01*
X1410032D01*
X1376710Y1176613D01*
X7448290Y1259936D02*
X7381645D01*
X7414968D01*
Y1093322D01*
X7381645Y1060000D01*
X7348322D01*
X7315000Y1093322D01*
X7514935Y1259936D02*
Y1093322D01*
X7548258Y1060000D01*
X7614903D01*
X7648226Y1093322D01*
Y1259936D01*
X7714871D02*
Y1060000D01*
X7848161D01*
X7914807Y1259936D02*
Y1060000D01*
X8048097D01*
D59*
X8089300Y380800D02*
Y680703D01*
X8239251D01*
X8289235Y630719D01*
Y530752D01*
X8239251Y480768D01*
X8089300D01*
X8389203Y680703D02*
Y380800D01*
X8489170Y480768D01*
X8589138Y380800D01*
Y680703D01*
X8689106Y380800D02*
Y680703D01*
X8839057D01*
X8889041Y630719D01*
Y530752D01*
X8839057Y480768D01*
X8689106D01*
X8789073D02*
X8889041Y380800D01*
X399556D02*
Y680703D01*
X549507D01*
X599491Y630719D01*
Y530752D01*
X549507Y480768D01*
X399556D01*
X499524D02*
X599491Y380800D01*
X899394Y680703D02*
X699459D01*
Y380800D01*
X899394D01*
X699459Y530752D02*
X799426D01*
X999362Y680703D02*
Y480768D01*
X1099329Y380800D01*
X1199297Y480768D01*
Y680703D01*
X1499200D02*
X1299265D01*
Y380800D01*
X1499200D01*
X1299265Y530752D02*
X1399232D01*
D60*
X3804008Y5416691D02*
D03*
%TF.MD5,0951b59ab43c01eb2031429472aa44cd*%
M02*
