%TF.GenerationSoftware,Altium Limited,Altium Designer,22.11.1 (43)*%
G04 Layer_Physical_Order=4*
G04 Layer_Color=16711680*
%FSLAX45Y45*%
%MOMM*%
%TF.SameCoordinates,189E8146-0809-41ED-80BF-86DDFA5291D0*%
%TF.FilePolarity,Positive*%
%TF.FileFunction,Copper,L4,Bot,Signal*%
%TF.Part,Single*%
G01*
G75*
%TA.AperFunction,Conductor*%
%ADD14C,0.29300*%
%ADD15C,0.25400*%
%TA.AperFunction,NonConductor*%
%ADD16C,0.25400*%
%TA.AperFunction,ComponentPad*%
%ADD17C,1.45000*%
%ADD18C,1.50800*%
%TA.AperFunction,ViaPad*%
%ADD19C,4.00000*%
%ADD20C,0.63500*%
%ADD21C,0.44400*%
%ADD22C,0.44450*%
%TA.AperFunction,SMDPad,CuDef*%
%ADD23R,0.50000X1.05000*%
%ADD24R,0.50000X0.70000*%
D14*
X3260500Y2250500D02*
X3324000Y2187000D01*
X3260500Y840500D02*
X3324000Y904000D01*
Y2187000D01*
Y2614002D02*
Y3897000D01*
X3260499Y2550501D02*
X3324000Y2614002D01*
X3260499Y3960501D02*
X3324000Y3897000D01*
X3260499Y5670501D02*
X3324000Y5607000D01*
Y4324002D02*
Y5607000D01*
X3260499Y4260501D02*
X3324000Y4324002D01*
X3260499Y7380501D02*
X3324000Y7317000D01*
Y6034002D02*
Y7317000D01*
X3260499Y5970501D02*
X3324000Y6034002D01*
X3260499Y7680501D02*
X3324000Y7744002D01*
X3260499Y9090501D02*
X3324000Y9027000D01*
Y7744002D02*
Y9027000D01*
X3260499Y9390501D02*
X3324000Y9454002D01*
X3260499Y10800500D02*
X3324000Y10737000D01*
Y9454002D02*
Y10737000D01*
X3260499Y11100501D02*
X3324000Y11164001D01*
X3260499Y12510501D02*
X3324000Y12447000D01*
Y11164001D02*
Y12447000D01*
X3260499Y12810501D02*
X3324000Y12874001D01*
X3260499Y14220502D02*
X3324000Y14157001D01*
Y12874001D02*
Y14157001D01*
X3006499Y12810501D02*
X3070000Y12874001D01*
X3006499Y14220502D02*
X3070000Y14157001D01*
Y12874001D02*
Y14157001D01*
X3006499Y12510501D02*
X3070000Y12447000D01*
X3006499Y11100501D02*
X3070000Y11164001D01*
Y12447000D01*
Y9454002D02*
Y10737000D01*
X3006499Y9390501D02*
X3070000Y9454002D01*
X3006499Y10800500D02*
X3070000Y10737000D01*
X3006499Y9090501D02*
X3070000Y9027000D01*
X3006499Y7680501D02*
X3070000Y7744002D01*
Y9027000D01*
Y6034002D02*
Y7317000D01*
X3006499Y5970501D02*
X3070000Y6034002D01*
X3006499Y7380501D02*
X3070000Y7317000D01*
X3006499Y4260501D02*
X3070000Y4324002D01*
X3006499Y5670501D02*
X3070000Y5607000D01*
Y4324002D02*
Y5607000D01*
X3006499Y2550501D02*
X3070000Y2614002D01*
X3006499Y3960501D02*
X3070000Y3897000D01*
Y2614002D02*
Y3897000D01*
Y904000D02*
Y2187000D01*
X3006500Y840500D02*
X3070000Y904000D01*
X3006500Y2250500D02*
X3070000Y2187000D01*
X2942999Y12440001D02*
Y13829001D01*
Y10730000D02*
Y12119001D01*
Y9020001D02*
Y10409001D01*
Y7310001D02*
Y8699001D01*
Y5600001D02*
Y6989001D01*
Y3890001D02*
Y5279001D01*
Y2180001D02*
Y3569001D01*
X2943000Y470000D02*
Y1859000D01*
X3196999Y12440001D02*
Y13829001D01*
Y10730000D02*
Y12119001D01*
Y9020001D02*
Y10409001D01*
Y7310001D02*
Y8699001D01*
Y5600001D02*
Y6989001D01*
Y3890001D02*
Y5279001D01*
X3197000Y2180000D02*
Y3569000D01*
X3196999Y3569001D02*
X3197000Y3569000D01*
Y2180000D02*
X3197000Y2180000D01*
Y470000D02*
Y1859000D01*
X3450999Y12440001D02*
Y13829001D01*
Y10730000D02*
Y12119001D01*
Y9020001D02*
Y10409001D01*
Y7310001D02*
Y8699001D01*
Y5600001D02*
Y6989001D01*
Y3890001D02*
Y5279001D01*
X3451000Y2180000D02*
X3451000Y2180000D01*
X3451000Y2180000D02*
Y3569000D01*
X3450999Y3569001D02*
X3451000Y3569000D01*
X3451000Y470000D02*
Y1859000D01*
X3514499Y2550501D02*
Y3960501D01*
Y4260501D02*
Y5670501D01*
Y5970501D02*
Y7380501D01*
Y7680501D02*
Y9090501D01*
Y9390501D02*
Y10800500D01*
Y11100501D02*
Y12510501D01*
Y12810501D02*
Y14220502D01*
X3579224Y12872775D02*
X3641499Y12810501D01*
X3579224Y12872775D02*
Y14158226D01*
X3641499Y14220502D01*
X3579224Y11162775D02*
X3641499Y11100501D01*
X3579224Y11162775D02*
Y12448226D01*
X3641499Y12510501D01*
X3579224Y9452776D02*
Y10738225D01*
X3641499Y10800500D01*
X3579224Y9452776D02*
X3641499Y9390501D01*
X3579224Y9028226D02*
X3641499Y9090501D01*
X3579224Y7742776D02*
Y9028226D01*
Y7742776D02*
X3641499Y7680501D01*
X3579224Y6032776D02*
Y7318226D01*
X3641499Y7380501D01*
X3579224Y6032776D02*
X3641499Y5970501D01*
X3579224Y4322776D02*
Y5608226D01*
Y4322776D02*
X3641499Y4260501D01*
X3579224Y5608226D02*
X3641499Y5670501D01*
X3579224Y3898226D02*
X3641499Y3960501D01*
X3579224Y2612776D02*
Y3898226D01*
Y2612776D02*
X3641499Y2550501D01*
X3514500Y840500D02*
Y2250500D01*
X3579225Y902775D02*
Y2188225D01*
X3641500Y2250500D01*
X3579225Y902775D02*
X3641500Y840500D01*
X3705000Y470000D02*
Y1859000D01*
X3704999Y3569001D02*
X3705000Y3569000D01*
Y2180000D02*
Y3569000D01*
Y2180000D02*
X3705000Y2180000D01*
X3704999Y3890001D02*
Y5279001D01*
Y5600001D02*
Y6989001D01*
Y7310001D02*
Y8699001D01*
Y9020001D02*
Y10409001D01*
Y10730000D02*
Y12119001D01*
Y12440001D02*
Y13829001D01*
X3768499Y12810501D02*
Y14220502D01*
Y11100501D02*
Y12510501D01*
Y9390501D02*
Y10800500D01*
Y7680501D02*
Y9090501D01*
Y5970501D02*
Y7380501D01*
Y4260501D02*
Y5670501D01*
Y2550501D02*
Y3960501D01*
X3768500Y840500D02*
Y2250500D01*
X3832000Y470000D02*
Y1859000D01*
X3831999Y3569001D02*
X3832000Y3569000D01*
Y2180000D02*
Y3569000D01*
Y2180000D02*
X3832000Y2180000D01*
X3831999Y3890001D02*
Y5279001D01*
Y5600001D02*
Y6989001D01*
Y7310001D02*
Y8699001D01*
Y9020001D02*
Y10409001D01*
Y10730000D02*
Y12119001D01*
Y12440001D02*
Y13829001D01*
X3958999Y12440001D02*
Y13829001D01*
Y10730000D02*
Y12119001D01*
Y9020001D02*
Y10409001D01*
Y7310001D02*
Y8699001D01*
Y5600001D02*
Y6989001D01*
Y3890001D02*
Y5279001D01*
X3959000Y2180000D02*
Y3569000D01*
X3958999Y3569001D02*
X3959000Y3569000D01*
Y2180000D02*
X3959000Y2180000D01*
Y470000D02*
Y1859000D01*
X3895500Y840500D02*
Y2250500D01*
X3895499Y2550501D02*
Y3960501D01*
Y4260501D02*
Y5670501D01*
Y5970501D02*
Y7380501D01*
Y7680501D02*
Y9090501D01*
Y9390501D02*
Y10800500D01*
Y11100501D02*
Y12510501D01*
Y12810501D02*
Y14220502D01*
X4022499Y12810501D02*
Y14220502D01*
Y11100501D02*
Y12510501D01*
Y9390501D02*
Y10800500D01*
Y7680501D02*
Y9090501D01*
Y5970501D02*
Y7380501D01*
Y4260501D02*
Y5670501D01*
Y2550501D02*
Y3960501D01*
X4022500Y840500D02*
Y2250500D01*
X4086000Y470000D02*
Y1859000D01*
X4086000Y2180000D02*
Y3569000D01*
X4085999Y3569001D02*
X4086000Y3569000D01*
Y2180000D02*
X4086000Y2180000D01*
X4085999Y3890001D02*
Y5279001D01*
Y5600001D02*
Y6989001D01*
Y7310001D02*
Y8699001D01*
Y9020001D02*
Y10409001D01*
Y10730000D02*
Y12119001D01*
Y12440001D02*
Y13829001D01*
X4149499Y12810501D02*
Y14220502D01*
Y11100501D02*
Y12510501D01*
Y9390501D02*
Y10800500D01*
Y7680501D02*
Y9090501D01*
Y5970501D02*
Y7380501D01*
Y4260501D02*
Y5670501D01*
X4149500Y2550500D02*
Y3960500D01*
X4149499Y3960501D02*
X4149500Y3960500D01*
Y2550500D02*
X4149500Y2550500D01*
Y840500D02*
Y2250500D01*
X4213000Y470000D02*
Y1859000D01*
X4213000Y2180000D02*
X4213000Y2180000D01*
X4212999Y3569001D02*
X4213000Y3569000D01*
Y2180000D02*
Y3569000D01*
X4212999Y3890001D02*
Y5279001D01*
Y5600001D02*
Y6989001D01*
Y7310001D02*
Y8699001D01*
Y9020001D02*
Y10409001D01*
Y10730000D02*
Y12119001D01*
Y12440001D02*
Y13829001D01*
X4276499Y12810501D02*
Y14220502D01*
Y11100501D02*
Y12510501D01*
Y9390501D02*
Y10800500D01*
Y7680501D02*
Y9090501D01*
Y5970501D02*
Y7380501D01*
Y4260501D02*
Y5670501D01*
X4276500Y2550500D02*
Y3960500D01*
Y2550500D02*
X4276500Y2550500D01*
X4276499Y3960501D02*
X4276500Y3960500D01*
X4276500Y840500D02*
Y2250500D01*
X4340000Y470000D02*
Y1859000D01*
X4340000Y2180000D02*
X4340000Y2180000D01*
X4339999Y3569001D02*
X4340000Y3569000D01*
Y2180000D02*
Y3569000D01*
X4339999Y3890001D02*
Y5279001D01*
Y5600001D02*
Y6989001D01*
Y7310001D02*
Y8699001D01*
Y9020001D02*
Y10409001D01*
Y10730000D02*
Y12119001D01*
Y12440001D02*
Y13829001D01*
X4403501Y12810501D02*
Y14220502D01*
Y11100501D02*
Y12510501D01*
Y9390501D02*
Y10800500D01*
Y7680501D02*
Y9090501D01*
Y5970501D02*
Y7380501D01*
Y4260501D02*
Y5670501D01*
X4403501Y2550500D02*
Y3960500D01*
Y2550500D02*
X4403501Y2550500D01*
X4403501Y3960501D02*
X4403501Y3960500D01*
X4403501Y2250499D02*
X4403501Y2250500D01*
X4403500Y840500D02*
X4403501Y840501D01*
Y2250499D01*
X4467000Y470000D02*
Y1859000D01*
X4466999Y2180001D02*
Y3569001D01*
Y3890001D02*
Y5279001D01*
Y5600001D02*
Y6989001D01*
Y7310001D02*
Y8699001D01*
Y9020001D02*
Y10409001D01*
Y10730000D02*
Y12119001D01*
Y12440001D02*
Y13829001D01*
X4593999Y12440001D02*
Y13829001D01*
Y10730000D02*
Y12119001D01*
Y9020001D02*
Y10409001D01*
Y7310001D02*
Y8699001D01*
Y5600001D02*
Y6989001D01*
Y3890001D02*
Y5279001D01*
Y3569001D02*
X4594000Y3569000D01*
Y2180000D02*
X4594000Y2180000D01*
X4594000Y2180000D02*
Y3569000D01*
X4594000Y470000D02*
Y1859000D01*
X4721000Y470000D02*
Y1859000D01*
X4721000Y2180000D02*
Y3569000D01*
X4720999Y3569001D02*
X4721000Y3569000D01*
Y2180000D02*
X4721000Y2180000D01*
X4720999Y3890001D02*
Y5279001D01*
Y5600001D02*
Y6989001D01*
Y7310001D02*
Y8699001D01*
Y9020001D02*
Y10409001D01*
Y10730000D02*
Y12119001D01*
Y12440001D02*
Y13829001D01*
X4784499Y12810501D02*
Y14220502D01*
Y11100501D02*
Y12510501D01*
Y9390501D02*
Y10800500D01*
Y7680501D02*
Y9090501D01*
Y5970501D02*
Y7380501D01*
Y4260501D02*
Y5670501D01*
X4784500Y2550500D02*
Y3960500D01*
X4784499Y3960501D02*
X4784500Y3960500D01*
Y2550500D02*
X4784500Y2550500D01*
Y840500D02*
Y2250500D01*
X4848000Y470000D02*
Y1859000D01*
X4848000Y2180000D02*
Y3569000D01*
Y2180000D02*
X4848000Y2180000D01*
X4847999Y3569001D02*
X4848000Y3569000D01*
X4847999Y3890001D02*
Y5279001D01*
Y5600001D02*
Y6989001D01*
Y7310001D02*
Y8699001D01*
Y9020001D02*
Y10409001D01*
Y10730000D02*
Y12119001D01*
Y12440001D02*
Y13829001D01*
X4974999Y12440001D02*
Y13829001D01*
Y10730000D02*
Y12119001D01*
Y9020001D02*
Y10409001D01*
Y7310001D02*
Y8699001D01*
Y5600001D02*
Y6989001D01*
Y3890001D02*
Y5279001D01*
X4975000Y2180000D02*
Y3569000D01*
Y2180000D02*
X4975000Y2180000D01*
X4974999Y3569001D02*
X4975000Y3569000D01*
X4975000Y470000D02*
Y1859000D01*
X5038500Y840500D02*
Y2250500D01*
X5038499Y2550501D02*
Y3960501D01*
Y4260501D02*
Y5670501D01*
Y5970501D02*
Y7380501D01*
Y7680501D02*
Y9090501D01*
Y9390501D02*
Y10800500D01*
Y11100501D02*
Y12510501D01*
Y12810501D02*
Y14220502D01*
X5101999Y12440001D02*
Y13829001D01*
Y10730000D02*
Y12119001D01*
Y9020001D02*
Y10409001D01*
Y7310001D02*
Y8699001D01*
Y5600001D02*
Y6989001D01*
Y3890001D02*
Y5279001D01*
X5101999Y2180000D02*
X5102000Y2180000D01*
X5101999Y2180000D02*
Y3569001D01*
X5101999Y3569001D02*
X5101999Y3569001D01*
X5102000Y470000D02*
Y1859000D01*
X5229000Y470000D02*
Y1859000D01*
X5228999Y2180000D02*
X5229000Y2180000D01*
X5228999Y3569001D02*
X5228999Y3569001D01*
Y2180000D02*
Y3569001D01*
X5228999Y3890001D02*
Y5279001D01*
Y5600001D02*
Y6989001D01*
Y7310001D02*
Y8699001D01*
Y9020001D02*
Y10409001D01*
Y10730000D02*
Y12119001D01*
Y12440001D02*
Y13829001D01*
X5292499Y11100501D02*
Y12510501D01*
Y9390501D02*
Y10800500D01*
Y7680501D02*
Y9090501D01*
Y5970501D02*
Y7380501D01*
Y4260501D02*
Y5670501D01*
Y2550501D02*
Y3960501D01*
X5292500Y840500D02*
Y2250500D01*
X5419500Y840500D02*
Y2250500D01*
X5419499Y2550501D02*
Y3960501D01*
Y4260501D02*
Y5670501D01*
Y5970501D02*
Y7380501D01*
Y7680501D02*
Y9090501D01*
Y9390501D02*
Y10800500D01*
Y11100501D02*
Y12510501D01*
X5292499Y12810501D02*
Y14220502D01*
X5419499Y12810501D02*
Y14220502D01*
X7007000Y12440001D02*
Y13829001D01*
Y10730000D02*
Y12119001D01*
Y9020001D02*
Y10409001D01*
X7007613Y8698388D02*
X7008226Y8699001D01*
X7007000Y7310001D02*
Y8699001D01*
X7007613Y6988388D02*
X7008226Y6989001D01*
X7007000Y5600001D02*
Y6989001D01*
Y3890001D02*
Y5279001D01*
Y2180001D02*
Y3569001D01*
X5600999Y12440001D02*
Y13829001D01*
Y10730000D02*
Y12119001D01*
Y9020001D02*
Y10409001D01*
Y7310001D02*
Y8699001D01*
Y5600001D02*
Y6989001D01*
Y3890001D02*
Y5279001D01*
X5600999Y2180000D02*
Y3569001D01*
Y2180000D02*
X5601000Y2180000D01*
X5600999Y3569001D02*
X5600999Y3569001D01*
X5601000Y470000D02*
Y1859000D01*
X5673500Y840500D02*
Y2250500D01*
X5673499Y2550501D02*
Y3960501D01*
X5673499Y3960501D02*
X5673499Y3960501D01*
Y2550501D02*
X5673500Y2550500D01*
X5673499Y4260501D02*
Y5670501D01*
Y5970501D02*
Y7380501D01*
Y7680501D02*
Y9090501D01*
Y9390501D02*
Y10800500D01*
Y11100501D02*
Y12510501D01*
Y12810501D02*
Y14220502D01*
X5736999Y12440001D02*
Y13829001D01*
Y10730000D02*
Y12119001D01*
Y9020001D02*
Y10409001D01*
Y7310001D02*
Y8699001D01*
Y5600001D02*
Y6989001D01*
Y3890001D02*
Y5279001D01*
X5736999Y2180000D02*
X5737000Y2180000D01*
X5736999Y2180000D02*
Y3569001D01*
X5736999Y3569001D02*
X5736999Y3569001D01*
X5737000Y470000D02*
Y1859000D01*
X5800500Y840500D02*
Y2250500D01*
X5800499Y2550501D02*
X5800500Y2550500D01*
X5800499Y3960501D02*
X5800499Y3960501D01*
Y2550501D02*
Y3960501D01*
X5800499Y4260501D02*
Y5670501D01*
Y5970501D02*
Y7380501D01*
Y7680501D02*
Y9090501D01*
Y9390501D02*
Y10800500D01*
Y11100501D02*
Y12510501D01*
Y12810501D02*
Y14220502D01*
X5863999Y12440001D02*
Y13829001D01*
Y10730000D02*
Y12119001D01*
Y9020001D02*
Y10409001D01*
Y7310001D02*
Y8699001D01*
Y5600001D02*
Y6989001D01*
Y3890001D02*
Y5279001D01*
Y3569001D02*
X5863999Y3569001D01*
Y2180000D02*
X5864000Y2180000D01*
X5863999Y2180000D02*
Y3569001D01*
X5864000Y470000D02*
Y1859000D01*
X6054500Y840500D02*
Y2250500D01*
X6054499Y2550501D02*
Y3960501D01*
Y4260501D02*
Y5670501D01*
Y5970501D02*
Y7380501D01*
Y7680501D02*
Y9090501D01*
Y9390501D02*
Y10800500D01*
Y11100501D02*
Y12510501D01*
Y12810501D02*
Y14220502D01*
X6118000Y12440001D02*
Y13829001D01*
Y10730000D02*
Y12119001D01*
Y9020001D02*
Y10409001D01*
Y7310001D02*
Y8699001D01*
Y5600001D02*
Y6989001D01*
Y3890001D02*
Y5279001D01*
Y2180000D02*
Y3569001D01*
Y470000D02*
Y1859001D01*
X6244999Y12440001D02*
Y13829001D01*
Y10730000D02*
Y12119001D01*
Y9020001D02*
Y10409001D01*
Y7310001D02*
Y8699001D01*
Y5600001D02*
Y6989001D01*
Y3890001D02*
Y5279001D01*
Y2180001D02*
Y3569001D01*
X6244999Y470001D02*
Y1859001D01*
Y470001D02*
X6245000Y470000D01*
X6244999Y1859001D02*
X6244999Y1859001D01*
X6308499Y840500D02*
Y2250500D01*
Y840500D02*
X6308500Y840500D01*
X6308499Y2250501D02*
X6308499Y2250500D01*
Y2550501D02*
Y3960501D01*
Y2550501D02*
X6308500Y2550500D01*
X6308499Y3960501D02*
X6308499Y3960501D01*
X6308499Y4260501D02*
Y5670501D01*
Y5970501D02*
Y7380501D01*
Y7680501D02*
Y9090501D01*
Y9390501D02*
Y10800500D01*
Y11100501D02*
Y12510501D01*
Y12810501D02*
Y14220502D01*
X6372000Y12440001D02*
Y13829001D01*
Y10730000D02*
Y12119001D01*
Y9020001D02*
Y10409001D01*
Y7310001D02*
Y8699001D01*
Y5600001D02*
Y6989001D01*
Y3890001D02*
Y5279001D01*
Y2180000D02*
Y3569001D01*
Y470000D02*
Y1859001D01*
X6499000Y12440001D02*
Y13829001D01*
Y10730000D02*
Y12119001D01*
Y9020001D02*
Y10409001D01*
Y7310001D02*
Y8699001D01*
Y5600001D02*
Y6989001D01*
Y3890001D02*
Y5279001D01*
Y2180000D02*
Y3569001D01*
Y2180000D02*
X6499550Y2180550D01*
X6499000Y3569001D02*
X6499550Y3568451D01*
X6499000Y470000D02*
Y1859001D01*
X6562500Y840500D02*
Y2250500D01*
X6562499Y2550501D02*
X6562500Y2550500D01*
X6562499Y3960501D02*
X6562499Y3960501D01*
Y2550501D02*
Y3960501D01*
X6562499Y4260501D02*
Y5670501D01*
Y5970501D02*
Y7380501D01*
Y7680501D02*
Y9090501D01*
Y9390501D02*
Y10800500D01*
Y11100501D02*
Y12510501D01*
Y12810501D02*
Y14220502D01*
X6626000Y12440001D02*
Y13829001D01*
Y10730000D02*
Y12119001D01*
Y9020001D02*
Y10409001D01*
Y7310001D02*
Y8699001D01*
Y5600001D02*
Y6989001D01*
Y3890001D02*
Y5279001D01*
Y2180000D02*
Y3569001D01*
Y470000D02*
Y1859000D01*
X6689500Y840500D02*
Y2250500D01*
X6689499Y2550501D02*
Y3960501D01*
X6689499Y3960501D02*
X6689499Y3960501D01*
Y2550501D02*
X6689500Y2550500D01*
X6689499Y4260501D02*
Y5670501D01*
Y5970501D02*
Y7380501D01*
Y7680501D02*
Y9090501D01*
Y9390501D02*
Y10800500D01*
Y11100501D02*
Y12510501D01*
Y12810501D02*
Y14220502D01*
X6753000Y12440001D02*
Y13829001D01*
Y10730000D02*
Y12119001D01*
Y9020001D02*
Y10409001D01*
Y7310001D02*
Y8699001D01*
Y5600001D02*
Y6989001D01*
Y3890001D02*
Y5279001D01*
Y2180000D02*
Y3569001D01*
Y470000D02*
Y1859000D01*
X6816499Y12810501D02*
Y14220502D01*
Y11100501D02*
Y12510501D01*
Y9390501D02*
Y10800500D01*
Y7680501D02*
Y9090501D01*
Y5970501D02*
Y7380501D01*
Y4260501D02*
Y5670501D01*
Y3960501D02*
X6816499Y3960501D01*
Y2550501D02*
X6816500Y2550500D01*
X6816499Y2550501D02*
Y3960501D01*
X6816500Y840500D02*
Y2250500D01*
X6879999Y12440001D02*
Y13829001D01*
Y10730000D02*
Y12119001D01*
Y9020001D02*
Y10409001D01*
Y7310001D02*
Y8699001D01*
Y5600001D02*
Y6989001D01*
Y3890001D02*
Y5279001D01*
Y3569001D02*
X6879999Y3569001D01*
Y2180000D02*
X6880000Y2180000D01*
X6879999Y2180000D02*
Y3569001D01*
X6880000Y470000D02*
Y1859000D01*
X6943499Y12810501D02*
Y14220502D01*
Y11100501D02*
Y12510501D01*
Y9390501D02*
Y10800500D01*
Y7680501D02*
Y9090501D01*
Y5970501D02*
Y7380501D01*
Y4260501D02*
Y5670501D01*
X6943499Y2550501D02*
Y3960501D01*
X6943499Y3960501D02*
X6943499Y3960501D01*
Y2550501D02*
X6943500Y2550500D01*
Y840500D02*
Y2250500D01*
X7007613Y1858388D02*
X7008226Y1859001D01*
X7007000Y470000D02*
Y1859001D01*
X7070499Y12810501D02*
Y14220502D01*
Y11100501D02*
Y12510501D01*
Y9390501D02*
Y10800500D01*
Y7680501D02*
Y9090501D01*
Y5970501D02*
Y7380501D01*
Y4260501D02*
Y5670501D01*
X7070500Y2550500D02*
Y3960500D01*
X7070499Y3960501D02*
X7070500Y3960500D01*
Y840500D02*
Y2250500D01*
X7197499Y12810501D02*
Y14220502D01*
Y11100501D02*
Y12510501D01*
Y9390501D02*
Y10800500D01*
Y7680501D02*
Y9090501D01*
Y5970501D02*
Y7380501D01*
Y4260501D02*
Y5670501D01*
Y3960501D02*
X7197500Y3960500D01*
Y2550500D02*
Y3960500D01*
Y840500D02*
Y2250500D01*
D15*
X1734998Y10838998D02*
X1735003D01*
X1900001D01*
X1734998Y9128999D02*
X1735003D01*
X1900001D01*
X1734998Y2289002D02*
X1735003D01*
X1900001D01*
X1735252Y2400249D02*
X1899752D01*
X1734998Y2400498D02*
X1735252Y2400249D01*
X1899752D02*
X1900001Y2400000D01*
X1734998Y3999001D02*
X1900001D01*
X1735252Y4110248D02*
X1899752D01*
X1900001Y4109999D01*
X1734998Y4110502D02*
X1735252Y4110248D01*
X1734998Y5709001D02*
X1900001D01*
X1734998Y5820501D02*
X1735252Y5820253D01*
X1899752D01*
X1900001Y5819999D01*
X1734998Y7419000D02*
X1900001D01*
X1735252Y7530252D02*
X1899752D01*
X1900001Y7529998D01*
X1734998Y7530501D02*
X1735252Y7530252D01*
X1734998Y9240500D02*
X1735252Y9240251D01*
X1899752D01*
X1900001Y9240002D01*
X1735252Y10950250D02*
X1899752D01*
X1734998Y10950499D02*
X1735252Y10950250D01*
X1899752D02*
X1900001Y10950001D01*
X1734998Y12549002D02*
X1900001D01*
X1735252Y12660249D02*
X1899752D01*
X1734998Y12660498D02*
X1735252Y12660249D01*
X1899752D02*
X1900001Y12660000D01*
X1734998Y14259001D02*
X1900001D01*
X1735252Y14370248D02*
X1899752D01*
X1900001Y14370000D01*
X1734998Y14370502D02*
X1735252Y14370248D01*
X1734998Y578998D02*
X1900001D01*
X1735252Y690250D02*
X1899752D01*
X1734998Y690499D02*
X1735252Y690250D01*
X1899752D02*
X1900001Y690001D01*
D16*
X9750000Y0D02*
G03*
X9950000Y200000I-0J200000D01*
G01*
X9950000Y14480000D02*
G03*
X9750000Y14680000I-200000J-0D01*
G01*
X200000Y14680000D02*
G03*
X0Y14480000I0J-200000D01*
G01*
Y200000D02*
G03*
X200000Y0I200000J0D01*
G01*
X0Y200000D02*
Y14480002D01*
X200000Y14680000D02*
X9749998D01*
X9949998Y200000D02*
Y14480002D01*
X200000Y0D02*
X9749998D01*
D17*
X7630003Y14180002D02*
D03*
X2321001Y14280002D02*
D03*
Y12569998D02*
D03*
X7630003Y12469998D02*
D03*
X2321001Y10859999D02*
D03*
X7630003Y10759999D02*
D03*
X2321001Y9149999D02*
D03*
X7630003Y9050000D02*
D03*
X2321001Y7440000D02*
D03*
X7630003Y7340001D02*
D03*
X2321001Y5730001D02*
D03*
X7630003Y5630001D02*
D03*
X2321001Y4020002D02*
D03*
X7630003Y3920002D02*
D03*
X2321001Y2309998D02*
D03*
X7630003Y2209998D02*
D03*
Y499999D02*
D03*
X2321001Y599999D02*
D03*
D18*
X7820000Y14180002D02*
D03*
X2129998D02*
D03*
Y12469998D02*
D03*
X7820000D02*
D03*
X2129998Y10759999D02*
D03*
X7820000D02*
D03*
X2129998Y9050000D02*
D03*
X7820000D02*
D03*
X2129998Y7340001D02*
D03*
X7820000D02*
D03*
X2129998Y5630001D02*
D03*
X7820000D02*
D03*
X2129998Y3920002D02*
D03*
X7820000D02*
D03*
X2129998Y2209998D02*
D03*
X7820000D02*
D03*
Y499999D02*
D03*
X2129998D02*
D03*
D19*
X375001D02*
D03*
Y2209998D02*
D03*
Y3920002D02*
D03*
Y5630001D02*
D03*
Y7340001D02*
D03*
Y9050000D02*
D03*
Y10759999D02*
D03*
Y12469998D02*
D03*
Y14180002D02*
D03*
X9575002Y2209998D02*
D03*
Y3920002D02*
D03*
Y5630001D02*
D03*
Y7340001D02*
D03*
Y9050000D02*
D03*
Y10759999D02*
D03*
Y12469998D02*
D03*
Y14180002D02*
D03*
Y499999D02*
D03*
D20*
X7451500Y14184502D02*
D03*
Y12474501D02*
D03*
Y10764501D02*
D03*
Y9054501D02*
D03*
Y7344501D02*
D03*
Y5634501D02*
D03*
Y3924501D02*
D03*
Y2214502D02*
D03*
X7324501Y504501D02*
D03*
X7451500Y504500D02*
D03*
X7324501Y14184502D02*
D03*
X2752501Y14180000D02*
D03*
X2625501D02*
D03*
X7324501Y12474502D02*
D03*
X2752501Y12470001D02*
D03*
X2625501D02*
D03*
X7324501Y10764502D02*
D03*
X2752501Y10760001D02*
D03*
X2625501D02*
D03*
X7324501Y9054502D02*
D03*
X2752501Y9050001D02*
D03*
X2625501D02*
D03*
X7324501Y7344502D02*
D03*
X2752501Y7340001D02*
D03*
X2625501D02*
D03*
X7324501Y5634502D02*
D03*
X2752501Y5630001D02*
D03*
X2625501D02*
D03*
X7324501Y3924502D02*
D03*
X2752501Y3920001D02*
D03*
X2625501D02*
D03*
X7324501Y2214502D02*
D03*
X2625501Y2210000D02*
D03*
X2752501D02*
D03*
X2625501Y500000D02*
D03*
X2752501D02*
D03*
X7324501Y2214502D02*
D03*
X1900001Y578998D02*
D03*
Y14259001D02*
D03*
Y12549002D02*
D03*
Y10838998D02*
D03*
Y9128999D02*
D03*
Y7419000D02*
D03*
Y5709001D02*
D03*
Y3999001D02*
D03*
Y2289002D02*
D03*
Y14370000D02*
D03*
Y12660000D02*
D03*
Y10950001D02*
D03*
Y9240002D02*
D03*
Y7529998D02*
D03*
Y5819999D02*
D03*
Y4109999D02*
D03*
Y2400000D02*
D03*
Y690001D02*
D03*
Y578998D02*
D03*
D21*
X2498500Y14520500D02*
D03*
Y12810500D02*
D03*
Y11100499D02*
D03*
Y9390499D02*
D03*
Y7680499D02*
D03*
Y5970499D02*
D03*
Y4260499D02*
D03*
Y2550500D02*
D03*
X2879499Y2550500D02*
D03*
Y7680500D02*
D03*
X2879500Y840500D02*
D03*
X2879499Y14520500D02*
D03*
Y12810500D02*
D03*
Y11100500D02*
D03*
Y9390500D02*
D03*
Y5970500D02*
D03*
Y4260500D02*
D03*
X2498500Y840500D02*
D03*
D22*
X4086000Y2180000D02*
D03*
X6118000Y1859001D02*
D03*
X3387499Y14520502D02*
D03*
X3831999Y13829001D02*
D03*
X3958999D02*
D03*
X4085999D02*
D03*
X4212999D02*
D03*
X4339999D02*
D03*
X4593999D02*
D03*
X4720999D02*
D03*
X4847999D02*
D03*
X5228999D02*
D03*
X5354776D02*
D03*
X5600999D02*
D03*
X5736999D02*
D03*
X5863999D02*
D03*
X6244999D02*
D03*
X6372000D02*
D03*
X6499000D02*
D03*
X6626000D02*
D03*
X6879999D02*
D03*
X7007000D02*
D03*
X3133499Y14520502D02*
D03*
X5990999Y14150002D02*
D03*
X3450999Y13829001D02*
D03*
X3196999D02*
D03*
X2942999D02*
D03*
X3006499Y14220502D02*
D03*
X4657499Y14520502D02*
D03*
X7197499Y14220502D02*
D03*
X7070499D02*
D03*
X6943499D02*
D03*
X6816499D02*
D03*
X6753000Y13829001D02*
D03*
X6689499Y14220502D02*
D03*
X6562499D02*
D03*
X6118000Y13829001D02*
D03*
X6308499Y14220502D02*
D03*
X6054499D02*
D03*
X5800499D02*
D03*
X5673499D02*
D03*
X5419499D02*
D03*
X5292499D02*
D03*
X5101999Y13829001D02*
D03*
X5038499Y14220502D02*
D03*
X4974999Y13829001D02*
D03*
X4784499Y14220502D02*
D03*
X4466999Y13829001D02*
D03*
X4403501Y14220502D02*
D03*
X4276499D02*
D03*
X4149499D02*
D03*
X4022499D02*
D03*
X3895499D02*
D03*
X3768499D02*
D03*
X3704999Y13829001D02*
D03*
X3260499Y14220502D02*
D03*
X3641499D02*
D03*
X3514499D02*
D03*
X4911499Y14520502D02*
D03*
X6435500D02*
D03*
X5927499D02*
D03*
X7133999Y14150002D02*
D03*
X5165499Y14520502D02*
D03*
X4530499D02*
D03*
X3387499Y14109875D02*
D03*
X3133499D02*
D03*
X2879501D02*
D03*
X3641499Y14109901D02*
D03*
X6181499Y14520502D02*
D03*
X3831999Y12119001D02*
D03*
X3958999D02*
D03*
X4085999D02*
D03*
X4212999D02*
D03*
X4339999D02*
D03*
X4593999D02*
D03*
X4720999D02*
D03*
X4847999D02*
D03*
X5228999D02*
D03*
X5354776D02*
D03*
X5600999D02*
D03*
X5736999D02*
D03*
X5863999D02*
D03*
X6244999D02*
D03*
X6372000D02*
D03*
X6499000D02*
D03*
X6626000D02*
D03*
X6879999D02*
D03*
X7007000D02*
D03*
X4847999Y12440001D02*
D03*
X4974999D02*
D03*
X7070499Y12810501D02*
D03*
X6943499D02*
D03*
X6879999Y12440001D02*
D03*
X6816499Y12810501D02*
D03*
X6689499D02*
D03*
X6753000Y12440001D02*
D03*
X6244999D02*
D03*
X6118000D02*
D03*
X5863999D02*
D03*
X5736999D02*
D03*
X5600999D02*
D03*
X5800499Y12810501D02*
D03*
X4784499D02*
D03*
X4403501D02*
D03*
X4339999Y12440001D02*
D03*
X4276499Y12810501D02*
D03*
X4149499D02*
D03*
X3895499D02*
D03*
X3768499D02*
D03*
X5228999Y12440001D02*
D03*
X5101999D02*
D03*
X4720999D02*
D03*
X4593999D02*
D03*
X4466999D02*
D03*
X4212999D02*
D03*
X4085999D02*
D03*
X3958999D02*
D03*
X3831999D02*
D03*
X3260499Y12810501D02*
D03*
X3133499D02*
D03*
X3196999Y12440001D02*
D03*
X3450999D02*
D03*
X3641499Y12810501D02*
D03*
X7197499D02*
D03*
X6562499D02*
D03*
X6308499D02*
D03*
X6054499D02*
D03*
X5673499D02*
D03*
X5419499D02*
D03*
X5292499D02*
D03*
X5038499D02*
D03*
X4022499D02*
D03*
X3514499D02*
D03*
X3006499D02*
D03*
X2942999Y12440001D02*
D03*
X3704999D02*
D03*
X5990999D02*
D03*
X3450999Y12119001D02*
D03*
X3196999D02*
D03*
X2942999D02*
D03*
X3006499Y12510501D02*
D03*
X4657499Y12810501D02*
D03*
X6372000Y12440001D02*
D03*
X6499000D02*
D03*
X6626000D02*
D03*
X7007000D02*
D03*
X7197499Y12510501D02*
D03*
X7070499D02*
D03*
X6943499D02*
D03*
X6816499D02*
D03*
X6753000Y12119001D02*
D03*
X6689499Y12510501D02*
D03*
X6562499D02*
D03*
X6118000Y12119001D02*
D03*
X6308499Y12510501D02*
D03*
X6054499D02*
D03*
X5800499D02*
D03*
X5673499D02*
D03*
X5419499D02*
D03*
X5292499D02*
D03*
X5101999Y12119001D02*
D03*
X5038499Y12510501D02*
D03*
X4974999Y12119001D02*
D03*
X4784499Y12510501D02*
D03*
X4466999Y12119001D02*
D03*
X4403501Y12510501D02*
D03*
X4276499D02*
D03*
X4149499D02*
D03*
X4022499D02*
D03*
X3895499D02*
D03*
X3768499D02*
D03*
X3704999Y12119001D02*
D03*
X3260499Y12510501D02*
D03*
X3641499D02*
D03*
X3514499D02*
D03*
X4911499Y12810501D02*
D03*
X6435500D02*
D03*
X5927499D02*
D03*
X7133999Y12440001D02*
D03*
X5165499Y12810501D02*
D03*
X4530499D02*
D03*
X3387499Y12399876D02*
D03*
Y12810501D02*
D03*
X3133499Y12399876D02*
D03*
X2879501D02*
D03*
X3641499Y12399901D02*
D03*
X6181499Y12810501D02*
D03*
X3831999Y10409001D02*
D03*
X3958999D02*
D03*
X4085999D02*
D03*
X4212999D02*
D03*
X4339999D02*
D03*
X4593999D02*
D03*
X4720999D02*
D03*
X4847999D02*
D03*
X5228999D02*
D03*
X5354776D02*
D03*
X5600999D02*
D03*
X5736999D02*
D03*
X5863999D02*
D03*
X6244999D02*
D03*
X6372000D02*
D03*
X6499000D02*
D03*
X6626000D02*
D03*
X6879999D02*
D03*
X7007000D02*
D03*
X4847999Y10730000D02*
D03*
X4974999D02*
D03*
X7070499Y11100501D02*
D03*
X6943499D02*
D03*
X6879999Y10730000D02*
D03*
X6816499Y11100501D02*
D03*
X6689499D02*
D03*
X6753000Y10730000D02*
D03*
X6244999D02*
D03*
X6118000D02*
D03*
X5863999D02*
D03*
X5736999D02*
D03*
X5600999D02*
D03*
X5800499Y11100501D02*
D03*
X4784499D02*
D03*
X4403501D02*
D03*
X4339999Y10730000D02*
D03*
X4276499Y11100501D02*
D03*
X4149499D02*
D03*
X3895499D02*
D03*
X3768499D02*
D03*
X5228999Y10730000D02*
D03*
X5101999D02*
D03*
X4720999D02*
D03*
X4593999D02*
D03*
X4466999D02*
D03*
X4212999D02*
D03*
X4085999D02*
D03*
X3958999D02*
D03*
X3831999D02*
D03*
X3260499Y11100501D02*
D03*
X3133499D02*
D03*
X3196999Y10730000D02*
D03*
X3450999D02*
D03*
X3641499Y11100501D02*
D03*
X7197499D02*
D03*
X6562499D02*
D03*
X6308499D02*
D03*
X6054499D02*
D03*
X5673499D02*
D03*
X5419499D02*
D03*
X5292499D02*
D03*
X5038499D02*
D03*
X4022499D02*
D03*
X3514499D02*
D03*
X3006499D02*
D03*
X2942999Y10730000D02*
D03*
X3704999D02*
D03*
X5990999D02*
D03*
X3450999Y10409001D02*
D03*
X3196999D02*
D03*
X2942999D02*
D03*
X3006499Y10800500D02*
D03*
X4657499Y11100501D02*
D03*
X6372000Y10730000D02*
D03*
X6499000D02*
D03*
X6626000D02*
D03*
X7007000D02*
D03*
X7197499Y10800500D02*
D03*
X7070499D02*
D03*
X6943499D02*
D03*
X6816499D02*
D03*
X6753000Y10409001D02*
D03*
X6689499Y10800500D02*
D03*
X6562499D02*
D03*
X6118000Y10409001D02*
D03*
X6308499Y10800500D02*
D03*
X6054499D02*
D03*
X5800499D02*
D03*
X5673499D02*
D03*
X5419499D02*
D03*
X5292499D02*
D03*
X5101999Y10409001D02*
D03*
X5038499Y10800500D02*
D03*
X4974999Y10409001D02*
D03*
X4784499Y10800500D02*
D03*
X4466999Y10409001D02*
D03*
X4403501Y10800500D02*
D03*
X4276499D02*
D03*
X4149499D02*
D03*
X4022499D02*
D03*
X3895499D02*
D03*
X3768499D02*
D03*
X3704999Y10409001D02*
D03*
X3260499Y10800500D02*
D03*
X3641499D02*
D03*
X3514499D02*
D03*
X4911499Y11100501D02*
D03*
X6435500D02*
D03*
X5927499D02*
D03*
X7133999Y10730000D02*
D03*
X5165499Y11100501D02*
D03*
X4530499D02*
D03*
X3387499Y10689875D02*
D03*
Y11100501D02*
D03*
X3133499Y10689875D02*
D03*
X2879501D02*
D03*
X3641499Y10689900D02*
D03*
X6181499Y11100501D02*
D03*
X3831999Y8699001D02*
D03*
X3958999D02*
D03*
X4085999D02*
D03*
X4212999D02*
D03*
X4339999D02*
D03*
X4593999D02*
D03*
X4720999D02*
D03*
X4847999D02*
D03*
X5228999D02*
D03*
X5354776D02*
D03*
X5600999D02*
D03*
X5736999D02*
D03*
X5863999D02*
D03*
X6244999D02*
D03*
X6372000D02*
D03*
X6499000D02*
D03*
X6626000D02*
D03*
X6879999D02*
D03*
X7007000D02*
D03*
X4847999Y9020001D02*
D03*
X4974999D02*
D03*
X7070499Y9390501D02*
D03*
X6943499D02*
D03*
X6879999Y9020001D02*
D03*
X6816499Y9390501D02*
D03*
X6689499D02*
D03*
X6753000Y9020001D02*
D03*
X6244999D02*
D03*
X6118000D02*
D03*
X5863999D02*
D03*
X5736999D02*
D03*
X5600999D02*
D03*
X5800499Y9390501D02*
D03*
X4784499D02*
D03*
X4403501D02*
D03*
X4339999Y9020001D02*
D03*
X4276499Y9390501D02*
D03*
X4149499D02*
D03*
X3895499D02*
D03*
X3768499D02*
D03*
X5228999Y9020001D02*
D03*
X5101999D02*
D03*
X4720999D02*
D03*
X4593999D02*
D03*
X4466999D02*
D03*
X4212999D02*
D03*
X4085999D02*
D03*
X3958999D02*
D03*
X3831999D02*
D03*
X3260499Y9390501D02*
D03*
X3133499D02*
D03*
X3196999Y9020001D02*
D03*
X3450999D02*
D03*
X3641499Y9390501D02*
D03*
X7197499D02*
D03*
X6562499D02*
D03*
X6308499D02*
D03*
X6054499D02*
D03*
X5673499D02*
D03*
X5419499D02*
D03*
X5292499D02*
D03*
X5038499D02*
D03*
X4022499D02*
D03*
X3514499D02*
D03*
X3006499D02*
D03*
X2942999Y9020001D02*
D03*
X3704999D02*
D03*
X5990999D02*
D03*
X3450999Y8699001D02*
D03*
X3196999D02*
D03*
X2942999D02*
D03*
X3006499Y9090501D02*
D03*
X4657499Y9390501D02*
D03*
X6372000Y9020001D02*
D03*
X6499000D02*
D03*
X6626000D02*
D03*
X7007000D02*
D03*
X7197499Y9090501D02*
D03*
X7070499D02*
D03*
X6943499D02*
D03*
X6816499D02*
D03*
X6753000Y8699001D02*
D03*
X6689499Y9090501D02*
D03*
X6562499D02*
D03*
X6118000Y8699001D02*
D03*
X6308499Y9090501D02*
D03*
X6054499D02*
D03*
X5800499D02*
D03*
X5673499D02*
D03*
X5419499D02*
D03*
X5292499D02*
D03*
X5101999Y8699001D02*
D03*
X5038499Y9090501D02*
D03*
X4974999Y8699001D02*
D03*
X4784499Y9090501D02*
D03*
X4466999Y8699001D02*
D03*
X4403501Y9090501D02*
D03*
X4276499D02*
D03*
X4149499D02*
D03*
X4022499D02*
D03*
X3895499D02*
D03*
X3768499D02*
D03*
X3704999Y8699001D02*
D03*
X3260499Y9090501D02*
D03*
X3641499D02*
D03*
X3514499D02*
D03*
X4911499Y9390501D02*
D03*
X6435500D02*
D03*
X5927499D02*
D03*
X7133999Y9020001D02*
D03*
X5165499Y9390501D02*
D03*
X4530499D02*
D03*
X3387499Y8979876D02*
D03*
Y9390501D02*
D03*
X3133499Y8979876D02*
D03*
X2879501D02*
D03*
X3641499Y8979901D02*
D03*
X6181499Y9390501D02*
D03*
X3831999Y6989001D02*
D03*
X3958999D02*
D03*
X4085999D02*
D03*
X4212999D02*
D03*
X4339999D02*
D03*
X4593999D02*
D03*
X4720999D02*
D03*
X4847999D02*
D03*
X5228999D02*
D03*
X5354776D02*
D03*
X5600999D02*
D03*
X5736999D02*
D03*
X5863999D02*
D03*
X6244999D02*
D03*
X6372000D02*
D03*
X6499000D02*
D03*
X6626000D02*
D03*
X6879999D02*
D03*
X7007000D02*
D03*
X4847999Y7310001D02*
D03*
X4974999D02*
D03*
X7070499Y7680501D02*
D03*
X6943499D02*
D03*
X6879999Y7310001D02*
D03*
X6816499Y7680501D02*
D03*
X6689499D02*
D03*
X6753000Y7310001D02*
D03*
X6244999D02*
D03*
X6118000D02*
D03*
X5863999D02*
D03*
X5736999D02*
D03*
X5600999D02*
D03*
X5800499Y7680501D02*
D03*
X4784499D02*
D03*
X4403501D02*
D03*
X4339999Y7310001D02*
D03*
X4276499Y7680501D02*
D03*
X4149499D02*
D03*
X3895499D02*
D03*
X3768499D02*
D03*
X5228999Y7310001D02*
D03*
X5101999D02*
D03*
X4720999D02*
D03*
X4593999D02*
D03*
X4466999D02*
D03*
X4212999D02*
D03*
X4085999D02*
D03*
X3958999D02*
D03*
X3831999D02*
D03*
X3260499Y7680501D02*
D03*
X3133499D02*
D03*
X3196999Y7310001D02*
D03*
X3450999D02*
D03*
X3641499Y7680501D02*
D03*
X7197499D02*
D03*
X6562499D02*
D03*
X6308499D02*
D03*
X6054499D02*
D03*
X5673499D02*
D03*
X5419499D02*
D03*
X5292499D02*
D03*
X5038499D02*
D03*
X4022499D02*
D03*
X3514499D02*
D03*
X3006499D02*
D03*
X2942999Y7310001D02*
D03*
X3704999D02*
D03*
X5990999D02*
D03*
X3450999Y6989001D02*
D03*
X3196999D02*
D03*
X2942999D02*
D03*
X3006499Y7380501D02*
D03*
X4657499Y7680501D02*
D03*
X6372000Y7310001D02*
D03*
X6499000D02*
D03*
X6626000D02*
D03*
X7007000D02*
D03*
X7197499Y7380501D02*
D03*
X7070499D02*
D03*
X6943499D02*
D03*
X6816499D02*
D03*
X6753000Y6989001D02*
D03*
X6689499Y7380501D02*
D03*
X6562499D02*
D03*
X6118000Y6989001D02*
D03*
X6308499Y7380501D02*
D03*
X6054499D02*
D03*
X5800499D02*
D03*
X5673499D02*
D03*
X5419499D02*
D03*
X5292499D02*
D03*
X5101999Y6989001D02*
D03*
X5038499Y7380501D02*
D03*
X4974999Y6989001D02*
D03*
X4784499Y7380501D02*
D03*
X4466999Y6989001D02*
D03*
X4403501Y7380501D02*
D03*
X4276499D02*
D03*
X4149499D02*
D03*
X4022499D02*
D03*
X3895499D02*
D03*
X3768499D02*
D03*
X3704999Y6989001D02*
D03*
X3260499Y7380501D02*
D03*
X3641499D02*
D03*
X3514499D02*
D03*
X4911499Y7680501D02*
D03*
X6435500D02*
D03*
X5927499D02*
D03*
X7133999Y7310001D02*
D03*
X5165499Y7680501D02*
D03*
X4530499D02*
D03*
X3387499Y7269876D02*
D03*
Y7680501D02*
D03*
X3133499Y7269876D02*
D03*
X2879501D02*
D03*
X3641499Y7269901D02*
D03*
X6181499Y7680501D02*
D03*
X3831999Y5279001D02*
D03*
X3958999D02*
D03*
X4085999D02*
D03*
X4212999D02*
D03*
X4339999D02*
D03*
X4593999D02*
D03*
X4720999D02*
D03*
X4847999D02*
D03*
X5228999D02*
D03*
X5354776D02*
D03*
X5600999D02*
D03*
X5736999D02*
D03*
X5863999D02*
D03*
X6244999D02*
D03*
X6372000D02*
D03*
X6499000D02*
D03*
X6626000D02*
D03*
X6879999D02*
D03*
X7007000D02*
D03*
X4847999Y5600001D02*
D03*
X4974999D02*
D03*
X7070499Y5970501D02*
D03*
X6943499D02*
D03*
X6879999Y5600001D02*
D03*
X6816499Y5970501D02*
D03*
X6689499D02*
D03*
X6753000Y5600001D02*
D03*
X6244999D02*
D03*
X6118000D02*
D03*
X5863999D02*
D03*
X5736999D02*
D03*
X5600999D02*
D03*
X5800499Y5970501D02*
D03*
X4784499D02*
D03*
X4403501D02*
D03*
X4339999Y5600001D02*
D03*
X4276499Y5970501D02*
D03*
X4149499D02*
D03*
X3895499D02*
D03*
X3768499D02*
D03*
X5228999Y5600001D02*
D03*
X5101999D02*
D03*
X4720999D02*
D03*
X4593999D02*
D03*
X4466999D02*
D03*
X4212999D02*
D03*
X4085999D02*
D03*
X3958999D02*
D03*
X3831999D02*
D03*
X3260499Y5970501D02*
D03*
X3133499D02*
D03*
X3196999Y5600001D02*
D03*
X3450999D02*
D03*
X3641499Y5970501D02*
D03*
X7197499D02*
D03*
X6562499D02*
D03*
X6308499D02*
D03*
X6054499D02*
D03*
X5673499D02*
D03*
X5419499D02*
D03*
X5292499D02*
D03*
X5038499D02*
D03*
X4022499D02*
D03*
X3514499D02*
D03*
X3006499D02*
D03*
X2942999Y5600001D02*
D03*
X3704999D02*
D03*
X5990999D02*
D03*
X3450999Y5279001D02*
D03*
X3196999D02*
D03*
X2942999D02*
D03*
X3006499Y5670501D02*
D03*
X4657499Y5970501D02*
D03*
X6372000Y5600001D02*
D03*
X6499000D02*
D03*
X6626000D02*
D03*
X7007000D02*
D03*
X7197499Y5670501D02*
D03*
X7070499D02*
D03*
X6943499D02*
D03*
X6816499D02*
D03*
X6753000Y5279001D02*
D03*
X6689499Y5670501D02*
D03*
X6562499D02*
D03*
X6118000Y5279001D02*
D03*
X6308499Y5670501D02*
D03*
X6054499D02*
D03*
X5800499D02*
D03*
X5673499D02*
D03*
X5419499D02*
D03*
X5292499D02*
D03*
X5101999Y5279001D02*
D03*
X5038499Y5670501D02*
D03*
X4974999Y5279001D02*
D03*
X4784499Y5670501D02*
D03*
X4466999Y5279001D02*
D03*
X4403501Y5670501D02*
D03*
X4276499D02*
D03*
X4149499D02*
D03*
X4022499D02*
D03*
X3895499D02*
D03*
X3768499D02*
D03*
X3704999Y5279001D02*
D03*
X3260499Y5670501D02*
D03*
X3641499D02*
D03*
X3514499D02*
D03*
X4911499Y5970501D02*
D03*
X6435500D02*
D03*
X5927499D02*
D03*
X7133999Y5600001D02*
D03*
X5165499Y5970501D02*
D03*
X4530499D02*
D03*
X3387499Y5559876D02*
D03*
Y5970501D02*
D03*
X3133499Y5559876D02*
D03*
X2879501D02*
D03*
X3641499Y5559901D02*
D03*
X6181499Y5970501D02*
D03*
X3831999Y3569001D02*
D03*
X3958999D02*
D03*
X4085999D02*
D03*
X4212999D02*
D03*
X4339999D02*
D03*
X4593999D02*
D03*
X4720999D02*
D03*
X4847999D02*
D03*
X5228999D02*
D03*
X5354776D02*
D03*
X5600999D02*
D03*
X5736999D02*
D03*
X5863999D02*
D03*
X6244999D02*
D03*
X6372000D02*
D03*
X6499000D02*
D03*
X6626000D02*
D03*
X6879999D02*
D03*
X7007000D02*
D03*
X4847999Y3890001D02*
D03*
X4974999D02*
D03*
X7070499Y4260501D02*
D03*
X6943499D02*
D03*
X6879999Y3890001D02*
D03*
X6816499Y4260501D02*
D03*
X6689499D02*
D03*
X6753000Y3890001D02*
D03*
X6244999D02*
D03*
X6118000D02*
D03*
X5863999D02*
D03*
X5736999D02*
D03*
X5600999D02*
D03*
X5800499Y4260501D02*
D03*
X4784499D02*
D03*
X4403501D02*
D03*
X4339999Y3890001D02*
D03*
X4276499Y4260501D02*
D03*
X4149499D02*
D03*
X3895499D02*
D03*
X3768499D02*
D03*
X5228999Y3890001D02*
D03*
X5101999D02*
D03*
X4720999D02*
D03*
X4593999D02*
D03*
X4466999D02*
D03*
X4212999D02*
D03*
X4085999D02*
D03*
X3958999D02*
D03*
X3831999D02*
D03*
X3260499Y4260501D02*
D03*
X3133499D02*
D03*
X3196999Y3890001D02*
D03*
X3450999D02*
D03*
X3641499Y4260501D02*
D03*
X7197499D02*
D03*
X6562499D02*
D03*
X6308499D02*
D03*
X6054499D02*
D03*
X5673499D02*
D03*
X5419499D02*
D03*
X5292499D02*
D03*
X5038499D02*
D03*
X4022499D02*
D03*
X3514499D02*
D03*
X3006499D02*
D03*
X2942999Y3890001D02*
D03*
X3704999D02*
D03*
X5990999D02*
D03*
X3450999Y3569001D02*
D03*
X3196999D02*
D03*
X2942999D02*
D03*
X3006499Y3960501D02*
D03*
X4657499Y4260501D02*
D03*
X6372000Y3890001D02*
D03*
X6499000D02*
D03*
X6626000D02*
D03*
X7007000D02*
D03*
X7197499Y3960501D02*
D03*
X7070499D02*
D03*
X6943499D02*
D03*
X6816499D02*
D03*
X6753000Y3569001D02*
D03*
X6689499Y3960501D02*
D03*
X6562499D02*
D03*
X6118000Y3569001D02*
D03*
X6308499Y3960501D02*
D03*
X6054499D02*
D03*
X5800499D02*
D03*
X5673499D02*
D03*
X5419499D02*
D03*
X5292499D02*
D03*
X5101999Y3569001D02*
D03*
X5038499Y3960501D02*
D03*
X4974999Y3569001D02*
D03*
X4784499Y3960501D02*
D03*
X4466999Y3569001D02*
D03*
X4403501Y3960501D02*
D03*
X4276499D02*
D03*
X4149499D02*
D03*
X4022499D02*
D03*
X3895499D02*
D03*
X3768499D02*
D03*
X3704999Y3569001D02*
D03*
X3260499Y3960501D02*
D03*
X3641499D02*
D03*
X3514499D02*
D03*
X4911499Y4260501D02*
D03*
X6435500D02*
D03*
X5927499D02*
D03*
X7133999Y3890001D02*
D03*
X5165499Y4260501D02*
D03*
X4530499D02*
D03*
X3387499Y3849876D02*
D03*
Y4260501D02*
D03*
X3133499Y3849876D02*
D03*
X2879501D02*
D03*
X3641499Y3849901D02*
D03*
X6181499Y4260501D02*
D03*
X6244999Y1859001D02*
D03*
X6372000D02*
D03*
X6499000D02*
D03*
X7007000D02*
D03*
X6244999Y2180001D02*
D03*
X3895499Y2550501D02*
D03*
X3768499D02*
D03*
X4466999Y2180001D02*
D03*
X3260499Y2550501D02*
D03*
X3133499D02*
D03*
X3641499D02*
D03*
X6054499D02*
D03*
X5419499D02*
D03*
X5292499D02*
D03*
X5038499D02*
D03*
X4022499D02*
D03*
X3514499D02*
D03*
X3006499D02*
D03*
X2942999Y2180001D02*
D03*
X7007000D02*
D03*
X6308499Y2250501D02*
D03*
X5927499Y2550501D02*
D03*
X7133999Y2180001D02*
D03*
X5165499Y2550501D02*
D03*
X4530499D02*
D03*
X3387499D02*
D03*
X6181499D02*
D03*
X3641500Y2139900D02*
D03*
X2879501Y2139875D02*
D03*
X3133500D02*
D03*
X3387500D02*
D03*
X6435500Y2550500D02*
D03*
X4911500D02*
D03*
X3514500Y2250500D02*
D03*
X3641500D02*
D03*
X3260500D02*
D03*
X3705000Y1859000D02*
D03*
X3768500Y2250500D02*
D03*
X3895500D02*
D03*
X4022500D02*
D03*
X4149500D02*
D03*
X4276500D02*
D03*
X4403501D02*
D03*
X4467000Y1859000D02*
D03*
X4784500Y2250500D02*
D03*
X4975000Y1859000D02*
D03*
X5038500Y2250500D02*
D03*
X5102000Y1859000D02*
D03*
X5292500Y2250500D02*
D03*
X5419500D02*
D03*
X5673500D02*
D03*
X5800500D02*
D03*
X6054500D02*
D03*
X6562500D02*
D03*
X6689500D02*
D03*
X6753000Y1859000D02*
D03*
X6816500Y2250500D02*
D03*
X6943500D02*
D03*
X7070500D02*
D03*
X7197500D02*
D03*
X6626000Y2180000D02*
D03*
X6499000D02*
D03*
X6372000D02*
D03*
X4657500Y2550500D02*
D03*
X3006500Y2250500D02*
D03*
X2943000Y1859000D02*
D03*
X3197000D02*
D03*
X3451000D02*
D03*
X2879500Y429900D02*
D03*
X5991000Y2180000D02*
D03*
X6181500Y840500D02*
D03*
X5356000Y470000D02*
D03*
X3705000Y2180000D02*
D03*
X2943000Y470000D02*
D03*
X6372000D02*
D03*
X6499000D02*
D03*
X6626000D02*
D03*
X6753000D02*
D03*
X7007000D02*
D03*
X6880000D02*
D03*
X6435500Y840500D02*
D03*
X6054500D02*
D03*
X5165500D02*
D03*
X4911500D02*
D03*
X4657500D02*
D03*
X4530500D02*
D03*
X4276500D02*
D03*
X4149500D02*
D03*
X4022500D02*
D03*
X3895500D02*
D03*
X3768500D02*
D03*
X3133500D02*
D03*
X2943000Y2180000D02*
D03*
X3133500Y429875D02*
D03*
X5673500Y2550500D02*
D03*
X6308500D02*
D03*
X6562500D02*
D03*
X7197500D02*
D03*
X3451000Y2180000D02*
D03*
X3197000D02*
D03*
X3832000D02*
D03*
X3959000D02*
D03*
X4213000D02*
D03*
X4594000D02*
D03*
X4721000D02*
D03*
X5102000D02*
D03*
X5229000D02*
D03*
X4149500Y2550500D02*
D03*
X4276500D02*
D03*
X4340000Y2180000D02*
D03*
X4403501Y2550500D02*
D03*
X4784500D02*
D03*
X5800500D02*
D03*
X5601000Y2180000D02*
D03*
X5737000D02*
D03*
X5864000D02*
D03*
X6118000D02*
D03*
X6753000D02*
D03*
X6689500Y2550500D02*
D03*
X6816500D02*
D03*
X6880000Y2180000D02*
D03*
X6943500Y2550500D02*
D03*
X7070500D02*
D03*
X4975000Y2180000D02*
D03*
X4848000D02*
D03*
X6308500Y840500D02*
D03*
X6562500D02*
D03*
X3451000Y470000D02*
D03*
X3197000D02*
D03*
X3705000D02*
D03*
X3832000D02*
D03*
X3959000D02*
D03*
X4086000D02*
D03*
X4213000D02*
D03*
X4467000D02*
D03*
X4594000D02*
D03*
X4721000D02*
D03*
X5229000D02*
D03*
X4340000D02*
D03*
X5800500Y840500D02*
D03*
X5864000Y470000D02*
D03*
X5927500Y840500D02*
D03*
X4848000Y470000D02*
D03*
X4975000D02*
D03*
X7070500Y840500D02*
D03*
X6943500D02*
D03*
X6880000Y1859000D02*
D03*
X6816500Y840500D02*
D03*
X6626000Y1859000D02*
D03*
X6689500Y840500D02*
D03*
X5864000Y1859000D02*
D03*
X5737000D02*
D03*
X5601000D02*
D03*
X6245000Y470000D02*
D03*
X6118000D02*
D03*
X5737000D02*
D03*
X5601000D02*
D03*
X3006500Y840500D02*
D03*
X5354776Y1859000D02*
D03*
X5229000D02*
D03*
X4848000D02*
D03*
X4721000D02*
D03*
X4784500Y840500D02*
D03*
X4594000Y1859000D02*
D03*
X4403500Y840500D02*
D03*
X4340000Y1859000D02*
D03*
X4213000D02*
D03*
X4086000D02*
D03*
X3959000D02*
D03*
X3832000D02*
D03*
X5102000Y470000D02*
D03*
X3260500Y840500D02*
D03*
X3641500D02*
D03*
X3387500D02*
D03*
X7134000Y470000D02*
D03*
X5991000D02*
D03*
X7197500Y840500D02*
D03*
X5673500D02*
D03*
X5419500D02*
D03*
X5292500D02*
D03*
X5038500D02*
D03*
X3514500D02*
D03*
X3641501Y429875D02*
D03*
X3387501D02*
D03*
D23*
X1734998Y12549002D02*
D03*
Y578998D02*
D03*
Y2289002D02*
D03*
Y3999001D02*
D03*
Y5709001D02*
D03*
Y7419000D02*
D03*
Y9128999D02*
D03*
Y10838998D02*
D03*
Y14259001D02*
D03*
D24*
Y12660498D02*
D03*
Y690499D02*
D03*
Y2400498D02*
D03*
Y4110502D02*
D03*
Y5820501D02*
D03*
Y7530501D02*
D03*
Y9240500D02*
D03*
Y10950499D02*
D03*
Y14370502D02*
D03*
%TF.MD5,f8f975f8d18df7c6ca094b61ee1ea684*%
M02*
