%TF.GenerationSoftware,Altium Limited,Altium Designer,22.11.1 (43)*%
G04 Layer_Color=255*
%FSLAX45Y45*%
%MOMM*%
%TF.SameCoordinates,189E8146-0809-41ED-80BF-86DDFA5291D0*%
%TF.FilePolarity,Positive*%
%TF.FileFunction,Pads,Top*%
%TF.Part,Single*%
G01*
G75*
%TA.AperFunction,SMDPad,CuDef*%
%ADD10R,0.66000X1.35000*%
%ADD11R,1.20000X1.45000*%
%TA.AperFunction,ComponentPad*%
%ADD17C,1.45000*%
%ADD18C,1.50800*%
%TA.AperFunction,ViaPad*%
%ADD19C,4.00000*%
D10*
X7451501Y14370502D02*
D03*
Y13989502D02*
D03*
X7324501Y14370502D02*
D03*
Y13989502D02*
D03*
X7197501Y14370502D02*
D03*
Y13989502D02*
D03*
X7070501Y14370502D02*
D03*
Y13989502D02*
D03*
X6943501Y14370502D02*
D03*
Y13989502D02*
D03*
X6816501Y14370502D02*
D03*
Y13989502D02*
D03*
X6689501Y14370502D02*
D03*
Y13989502D02*
D03*
X6562501Y14370502D02*
D03*
Y13989502D02*
D03*
X6435501Y14370502D02*
D03*
Y13989502D02*
D03*
X6308501Y14370502D02*
D03*
Y13989502D02*
D03*
X6181501Y14370502D02*
D03*
Y13989502D02*
D03*
X6054501Y14370502D02*
D03*
Y13989502D02*
D03*
X5927501Y14370502D02*
D03*
Y13989502D02*
D03*
X5800501Y14370502D02*
D03*
Y13989502D02*
D03*
X5673501Y14370502D02*
D03*
Y13989502D02*
D03*
X5419501Y14370502D02*
D03*
Y13989502D02*
D03*
X5292501Y14370502D02*
D03*
Y13989502D02*
D03*
X5165501Y14370502D02*
D03*
Y13989502D02*
D03*
X5038501Y14370502D02*
D03*
Y13989502D02*
D03*
X4911501Y14370502D02*
D03*
Y13989502D02*
D03*
X4784501Y14370502D02*
D03*
Y13989502D02*
D03*
X4657501Y14370502D02*
D03*
Y13989502D02*
D03*
X4530501Y14370502D02*
D03*
Y13989502D02*
D03*
X4403501Y14370502D02*
D03*
Y13989502D02*
D03*
X4276501Y14370502D02*
D03*
Y13989502D02*
D03*
X4149501Y14370502D02*
D03*
Y13989502D02*
D03*
X4022501Y14370502D02*
D03*
Y13989502D02*
D03*
X3895501Y14370502D02*
D03*
Y13989502D02*
D03*
X3768501Y14370502D02*
D03*
Y13989502D02*
D03*
X3641501Y14370502D02*
D03*
Y13989502D02*
D03*
X3514501Y14370502D02*
D03*
Y13989502D02*
D03*
X3387501Y14370502D02*
D03*
Y13989502D02*
D03*
X3260501Y14370502D02*
D03*
X3260500Y13989502D02*
D03*
X3133501Y14370502D02*
D03*
Y13989502D02*
D03*
X3006501Y14370502D02*
D03*
Y13989502D02*
D03*
X2879501Y14370502D02*
D03*
Y13989502D02*
D03*
X2752501Y14370502D02*
D03*
Y13989502D02*
D03*
X2625501Y14370502D02*
D03*
Y13989502D02*
D03*
X2498501Y14370502D02*
D03*
Y13989502D02*
D03*
Y12279498D02*
D03*
Y12660498D02*
D03*
X2625501Y12279498D02*
D03*
Y12660498D02*
D03*
X2752501Y12279498D02*
D03*
Y12660498D02*
D03*
X2879501Y12279498D02*
D03*
Y12660498D02*
D03*
X3006501Y12279498D02*
D03*
Y12660498D02*
D03*
X3133501Y12279498D02*
D03*
Y12660498D02*
D03*
X3260501Y12279498D02*
D03*
Y12660498D02*
D03*
X3387501Y12279498D02*
D03*
Y12660498D02*
D03*
X3514501Y12279498D02*
D03*
Y12660498D02*
D03*
X3641501Y12279498D02*
D03*
Y12660498D02*
D03*
X3768501Y12279498D02*
D03*
Y12660498D02*
D03*
X3895501Y12279498D02*
D03*
Y12660498D02*
D03*
X4022501Y12279498D02*
D03*
Y12660498D02*
D03*
X4149501Y12279498D02*
D03*
Y12660498D02*
D03*
X4276501Y12279498D02*
D03*
Y12660498D02*
D03*
X4403501Y12279498D02*
D03*
Y12660498D02*
D03*
X4530501Y12279498D02*
D03*
Y12660498D02*
D03*
X4657501Y12279498D02*
D03*
Y12660498D02*
D03*
X4784501Y12279498D02*
D03*
Y12660498D02*
D03*
X4911501Y12279498D02*
D03*
Y12660498D02*
D03*
X5038501Y12279498D02*
D03*
Y12660498D02*
D03*
X5165501Y12279498D02*
D03*
Y12660498D02*
D03*
X5292501Y12279498D02*
D03*
Y12660498D02*
D03*
X5419501Y12279498D02*
D03*
Y12660498D02*
D03*
X5673501Y12279498D02*
D03*
Y12660498D02*
D03*
X5800501Y12279498D02*
D03*
Y12660498D02*
D03*
X5927501Y12279498D02*
D03*
Y12660498D02*
D03*
X6054501Y12279498D02*
D03*
Y12660498D02*
D03*
X6181501Y12279498D02*
D03*
Y12660498D02*
D03*
X6308501Y12279498D02*
D03*
Y12660498D02*
D03*
X6435501Y12279498D02*
D03*
Y12660498D02*
D03*
X6562501Y12279498D02*
D03*
Y12660498D02*
D03*
X6689501Y12279498D02*
D03*
Y12660498D02*
D03*
X6816501Y12279498D02*
D03*
Y12660498D02*
D03*
X6943501Y12279498D02*
D03*
Y12660498D02*
D03*
X7070501Y12279498D02*
D03*
Y12660498D02*
D03*
X7197501Y12279498D02*
D03*
Y12660498D02*
D03*
X7324501Y12279498D02*
D03*
Y12660498D02*
D03*
X7451501Y12279498D02*
D03*
Y12660498D02*
D03*
X2498501Y10569499D02*
D03*
Y10950499D02*
D03*
X2625501Y10569499D02*
D03*
Y10950499D02*
D03*
X2752501Y10569499D02*
D03*
Y10950499D02*
D03*
X2879501Y10569499D02*
D03*
Y10950499D02*
D03*
X3006501Y10569499D02*
D03*
Y10950499D02*
D03*
X3133501Y10569499D02*
D03*
Y10950499D02*
D03*
X3260501Y10569499D02*
D03*
Y10950499D02*
D03*
X3387501Y10569499D02*
D03*
Y10950499D02*
D03*
X3514501Y10569499D02*
D03*
Y10950499D02*
D03*
X3641501Y10569499D02*
D03*
Y10950499D02*
D03*
X3768501Y10569499D02*
D03*
Y10950499D02*
D03*
X3895501Y10569499D02*
D03*
Y10950499D02*
D03*
X4022501Y10569499D02*
D03*
Y10950499D02*
D03*
X4149501Y10569499D02*
D03*
Y10950499D02*
D03*
X4276501Y10569499D02*
D03*
Y10950499D02*
D03*
X4403501Y10569499D02*
D03*
Y10950499D02*
D03*
X4530501Y10569499D02*
D03*
Y10950499D02*
D03*
X4657501Y10569499D02*
D03*
Y10950499D02*
D03*
X4784501Y10569499D02*
D03*
Y10950499D02*
D03*
X4911501Y10569499D02*
D03*
Y10950499D02*
D03*
X5038501Y10569499D02*
D03*
Y10950499D02*
D03*
X5165501Y10569499D02*
D03*
Y10950499D02*
D03*
X5292501Y10569499D02*
D03*
Y10950499D02*
D03*
X5419501Y10569499D02*
D03*
Y10950499D02*
D03*
X5673501Y10569499D02*
D03*
Y10950499D02*
D03*
X5800501Y10569499D02*
D03*
Y10950499D02*
D03*
X5927501Y10569499D02*
D03*
Y10950499D02*
D03*
X6054501Y10569499D02*
D03*
Y10950499D02*
D03*
X6181501Y10569499D02*
D03*
Y10950499D02*
D03*
X6308501Y10569499D02*
D03*
Y10950499D02*
D03*
X6435501Y10569499D02*
D03*
Y10950499D02*
D03*
X6562501Y10569499D02*
D03*
Y10950499D02*
D03*
X6689501Y10569499D02*
D03*
Y10950499D02*
D03*
X6816501Y10569499D02*
D03*
Y10950499D02*
D03*
X6943501Y10569499D02*
D03*
Y10950499D02*
D03*
X7070501Y10569499D02*
D03*
Y10950499D02*
D03*
X7197501Y10569499D02*
D03*
Y10950499D02*
D03*
X7324501Y10569499D02*
D03*
Y10950499D02*
D03*
X7451501Y10569499D02*
D03*
Y10950499D02*
D03*
X2498501Y8859500D02*
D03*
Y9240500D02*
D03*
X2625501Y8859500D02*
D03*
Y9240500D02*
D03*
X2752501Y8859500D02*
D03*
Y9240500D02*
D03*
X2879501Y8859500D02*
D03*
Y9240500D02*
D03*
X3006501Y8859500D02*
D03*
Y9240500D02*
D03*
X3133501Y8859500D02*
D03*
Y9240500D02*
D03*
X3260501Y8859500D02*
D03*
Y9240500D02*
D03*
X3387501Y8859500D02*
D03*
Y9240500D02*
D03*
X3514501Y8859500D02*
D03*
Y9240500D02*
D03*
X3641501Y8859500D02*
D03*
Y9240500D02*
D03*
X3768501Y8859500D02*
D03*
Y9240500D02*
D03*
X3895501Y8859500D02*
D03*
Y9240500D02*
D03*
X4022501Y8859500D02*
D03*
Y9240500D02*
D03*
X4149501Y8859500D02*
D03*
Y9240500D02*
D03*
X4276501Y8859500D02*
D03*
Y9240500D02*
D03*
X4403501Y8859500D02*
D03*
Y9240500D02*
D03*
X4530501Y8859500D02*
D03*
Y9240500D02*
D03*
X4657501Y8859500D02*
D03*
Y9240500D02*
D03*
X4784501Y8859500D02*
D03*
Y9240500D02*
D03*
X4911501Y8859500D02*
D03*
Y9240500D02*
D03*
X5038501Y8859500D02*
D03*
Y9240500D02*
D03*
X5165501Y8859500D02*
D03*
Y9240500D02*
D03*
X5292501Y8859500D02*
D03*
Y9240500D02*
D03*
X5419501Y8859500D02*
D03*
Y9240500D02*
D03*
X5673501Y8859500D02*
D03*
Y9240500D02*
D03*
X5800501Y8859500D02*
D03*
Y9240500D02*
D03*
X5927501Y8859500D02*
D03*
Y9240500D02*
D03*
X6054501Y8859500D02*
D03*
Y9240500D02*
D03*
X6181501Y8859500D02*
D03*
Y9240500D02*
D03*
X6308501Y8859500D02*
D03*
Y9240500D02*
D03*
X6435501Y8859500D02*
D03*
Y9240500D02*
D03*
X6562501Y8859500D02*
D03*
Y9240500D02*
D03*
X6689501Y8859500D02*
D03*
Y9240500D02*
D03*
X6816501Y8859500D02*
D03*
Y9240500D02*
D03*
X6943501Y8859500D02*
D03*
Y9240500D02*
D03*
X7070501Y8859500D02*
D03*
Y9240500D02*
D03*
X7197501Y8859500D02*
D03*
Y9240500D02*
D03*
X7324501Y8859500D02*
D03*
Y9240500D02*
D03*
X7451501Y8859500D02*
D03*
Y9240500D02*
D03*
X2498501Y7149501D02*
D03*
Y7530501D02*
D03*
X2625501Y7149501D02*
D03*
Y7530501D02*
D03*
X2752501Y7149501D02*
D03*
Y7530501D02*
D03*
X2879501Y7149501D02*
D03*
Y7530501D02*
D03*
X3006501Y7149501D02*
D03*
Y7530501D02*
D03*
X3133501Y7149501D02*
D03*
Y7530501D02*
D03*
X3260501Y7149501D02*
D03*
Y7530501D02*
D03*
X3387501Y7149501D02*
D03*
Y7530501D02*
D03*
X3514501Y7149501D02*
D03*
Y7530501D02*
D03*
X3641501Y7149501D02*
D03*
Y7530501D02*
D03*
X3768501Y7149501D02*
D03*
Y7530501D02*
D03*
X3895501Y7149501D02*
D03*
Y7530501D02*
D03*
X4022501Y7149501D02*
D03*
Y7530501D02*
D03*
X4149501Y7149501D02*
D03*
Y7530501D02*
D03*
X4276501Y7149501D02*
D03*
Y7530501D02*
D03*
X4403501Y7149501D02*
D03*
Y7530501D02*
D03*
X4530501Y7149501D02*
D03*
Y7530501D02*
D03*
X4657501Y7149501D02*
D03*
Y7530501D02*
D03*
X4784501Y7149501D02*
D03*
Y7530501D02*
D03*
X4911501Y7149501D02*
D03*
Y7530501D02*
D03*
X5038501Y7149501D02*
D03*
Y7530501D02*
D03*
X5165501Y7149501D02*
D03*
Y7530501D02*
D03*
X5292501Y7149501D02*
D03*
Y7530501D02*
D03*
X5419501Y7149501D02*
D03*
Y7530501D02*
D03*
X5673501Y7149501D02*
D03*
Y7530501D02*
D03*
X5800501Y7149501D02*
D03*
Y7530501D02*
D03*
X5927501Y7149501D02*
D03*
Y7530501D02*
D03*
X6054501Y7149501D02*
D03*
Y7530501D02*
D03*
X6181501Y7149501D02*
D03*
Y7530501D02*
D03*
X6308501Y7149501D02*
D03*
Y7530501D02*
D03*
X6435501Y7149501D02*
D03*
Y7530501D02*
D03*
X6562501Y7149501D02*
D03*
Y7530501D02*
D03*
X6689501Y7149501D02*
D03*
Y7530501D02*
D03*
X6816501Y7149501D02*
D03*
Y7530501D02*
D03*
X6943501Y7149501D02*
D03*
Y7530501D02*
D03*
X7070501Y7149501D02*
D03*
Y7530501D02*
D03*
X7197501Y7149501D02*
D03*
Y7530501D02*
D03*
X7324501Y7149501D02*
D03*
Y7530501D02*
D03*
X7451501Y7149501D02*
D03*
Y7530501D02*
D03*
X2498501Y5439501D02*
D03*
Y5820501D02*
D03*
X2625501Y5439501D02*
D03*
Y5820501D02*
D03*
X2752501Y5439501D02*
D03*
Y5820501D02*
D03*
X2879501Y5439501D02*
D03*
Y5820501D02*
D03*
X3006501Y5439501D02*
D03*
Y5820501D02*
D03*
X3133501Y5439501D02*
D03*
Y5820501D02*
D03*
X3260501Y5439501D02*
D03*
Y5820501D02*
D03*
X3387501Y5439501D02*
D03*
Y5820501D02*
D03*
X3514501Y5439501D02*
D03*
Y5820501D02*
D03*
X3641501Y5439501D02*
D03*
Y5820501D02*
D03*
X3768501Y5439501D02*
D03*
Y5820501D02*
D03*
X3895501Y5439501D02*
D03*
Y5820501D02*
D03*
X4022501Y5439501D02*
D03*
Y5820501D02*
D03*
X4149501Y5439501D02*
D03*
Y5820501D02*
D03*
X4276501Y5439501D02*
D03*
Y5820501D02*
D03*
X4403501Y5439501D02*
D03*
Y5820501D02*
D03*
X4530501Y5439501D02*
D03*
Y5820501D02*
D03*
X4657501Y5439501D02*
D03*
Y5820501D02*
D03*
X4784501Y5439501D02*
D03*
Y5820501D02*
D03*
X4911501Y5439501D02*
D03*
Y5820501D02*
D03*
X5038501Y5439501D02*
D03*
Y5820501D02*
D03*
X5165501Y5439501D02*
D03*
Y5820501D02*
D03*
X5292501Y5439501D02*
D03*
Y5820501D02*
D03*
X5419501Y5439501D02*
D03*
Y5820501D02*
D03*
X5673501Y5439501D02*
D03*
Y5820501D02*
D03*
X5800501Y5439501D02*
D03*
Y5820501D02*
D03*
X5927501Y5439501D02*
D03*
Y5820501D02*
D03*
X6054501Y5439501D02*
D03*
Y5820501D02*
D03*
X6181501Y5439501D02*
D03*
Y5820501D02*
D03*
X6308501Y5439501D02*
D03*
Y5820501D02*
D03*
X6435501Y5439501D02*
D03*
Y5820501D02*
D03*
X6562501Y5439501D02*
D03*
Y5820501D02*
D03*
X6689501Y5439501D02*
D03*
Y5820501D02*
D03*
X6816501Y5439501D02*
D03*
Y5820501D02*
D03*
X6943501Y5439501D02*
D03*
Y5820501D02*
D03*
X7070501Y5439501D02*
D03*
Y5820501D02*
D03*
X7197501Y5439501D02*
D03*
Y5820501D02*
D03*
X7324501Y5439501D02*
D03*
Y5820501D02*
D03*
X7451501Y5439501D02*
D03*
Y5820501D02*
D03*
X2498501Y3729502D02*
D03*
Y4110502D02*
D03*
X2625501Y3729502D02*
D03*
Y4110502D02*
D03*
X2752501Y3729502D02*
D03*
Y4110502D02*
D03*
X2879501Y3729502D02*
D03*
Y4110502D02*
D03*
X3006501Y3729502D02*
D03*
Y4110502D02*
D03*
X3133501Y3729502D02*
D03*
Y4110502D02*
D03*
X3260501Y3729502D02*
D03*
Y4110502D02*
D03*
X3387501Y3729502D02*
D03*
Y4110502D02*
D03*
X3514501Y3729502D02*
D03*
Y4110502D02*
D03*
X3641501Y3729502D02*
D03*
Y4110502D02*
D03*
X3768501Y3729502D02*
D03*
Y4110502D02*
D03*
X3895501Y3729502D02*
D03*
Y4110502D02*
D03*
X4022501Y3729502D02*
D03*
Y4110502D02*
D03*
X4149501Y3729502D02*
D03*
Y4110502D02*
D03*
X4276501Y3729502D02*
D03*
Y4110502D02*
D03*
X4403501Y3729502D02*
D03*
Y4110502D02*
D03*
X4530501Y3729502D02*
D03*
Y4110502D02*
D03*
X4657501Y3729502D02*
D03*
Y4110502D02*
D03*
X4784501Y3729502D02*
D03*
Y4110502D02*
D03*
X4911501Y3729502D02*
D03*
Y4110502D02*
D03*
X5038501Y3729502D02*
D03*
Y4110502D02*
D03*
X5165501Y3729502D02*
D03*
Y4110502D02*
D03*
X5292501Y3729502D02*
D03*
Y4110502D02*
D03*
X5419501Y3729502D02*
D03*
Y4110502D02*
D03*
X5673501Y3729502D02*
D03*
Y4110502D02*
D03*
X5800501Y3729502D02*
D03*
Y4110502D02*
D03*
X5927501Y3729502D02*
D03*
Y4110502D02*
D03*
X6054501Y3729502D02*
D03*
Y4110502D02*
D03*
X6181501Y3729502D02*
D03*
Y4110502D02*
D03*
X6308501Y3729502D02*
D03*
Y4110502D02*
D03*
X6435501Y3729502D02*
D03*
Y4110502D02*
D03*
X6562501Y3729502D02*
D03*
Y4110502D02*
D03*
X6689501Y3729502D02*
D03*
Y4110502D02*
D03*
X6816501Y3729502D02*
D03*
Y4110502D02*
D03*
X6943501Y3729502D02*
D03*
Y4110502D02*
D03*
X7070501Y3729502D02*
D03*
Y4110502D02*
D03*
X7197501Y3729502D02*
D03*
Y4110502D02*
D03*
X7324501Y3729502D02*
D03*
Y4110502D02*
D03*
X7451501Y3729502D02*
D03*
Y4110502D02*
D03*
X2498501Y2019498D02*
D03*
Y2400498D02*
D03*
X2625501Y2019498D02*
D03*
Y2400498D02*
D03*
X2752501Y2019498D02*
D03*
Y2400498D02*
D03*
X2879501Y2019498D02*
D03*
Y2400498D02*
D03*
X3006501Y2019498D02*
D03*
Y2400498D02*
D03*
X3133501Y2019498D02*
D03*
Y2400498D02*
D03*
X3260501Y2019498D02*
D03*
Y2400498D02*
D03*
X3387501Y2019498D02*
D03*
Y2400498D02*
D03*
X3514501Y2019498D02*
D03*
Y2400498D02*
D03*
X3641501Y2019498D02*
D03*
Y2400498D02*
D03*
X3768501Y2019498D02*
D03*
Y2400498D02*
D03*
X3895501Y2019498D02*
D03*
Y2400498D02*
D03*
X4022501Y2019498D02*
D03*
Y2400498D02*
D03*
X4149501Y2019498D02*
D03*
Y2400498D02*
D03*
X4276501Y2019498D02*
D03*
Y2400498D02*
D03*
X4403501Y2019498D02*
D03*
Y2400498D02*
D03*
X4530501Y2019498D02*
D03*
Y2400498D02*
D03*
X4657501Y2019498D02*
D03*
Y2400498D02*
D03*
X4784501Y2019498D02*
D03*
Y2400498D02*
D03*
X4911501Y2019498D02*
D03*
Y2400498D02*
D03*
X5038501Y2019498D02*
D03*
Y2400498D02*
D03*
X5165501Y2019498D02*
D03*
Y2400498D02*
D03*
X5292501Y2019498D02*
D03*
Y2400498D02*
D03*
X5419501Y2019498D02*
D03*
Y2400498D02*
D03*
X5673501Y2019498D02*
D03*
Y2400498D02*
D03*
X5800501Y2019498D02*
D03*
Y2400498D02*
D03*
X5927501Y2019498D02*
D03*
Y2400498D02*
D03*
X6054501Y2019498D02*
D03*
Y2400498D02*
D03*
X6181501Y2019498D02*
D03*
Y2400498D02*
D03*
X6308501Y2019498D02*
D03*
Y2400498D02*
D03*
X6435501Y2019498D02*
D03*
Y2400498D02*
D03*
X6562501Y2019498D02*
D03*
Y2400498D02*
D03*
X6689501Y2019498D02*
D03*
Y2400498D02*
D03*
X6816501Y2019498D02*
D03*
Y2400498D02*
D03*
X6943501Y2019498D02*
D03*
Y2400498D02*
D03*
X7070501Y2019498D02*
D03*
Y2400498D02*
D03*
X7197501Y2019498D02*
D03*
Y2400498D02*
D03*
X7324501Y2019498D02*
D03*
Y2400498D02*
D03*
X7451501Y2019498D02*
D03*
Y2400498D02*
D03*
Y309499D02*
D03*
X7324501Y690499D02*
D03*
X7197501Y309499D02*
D03*
X7070501Y690499D02*
D03*
X6943501Y309499D02*
D03*
X6689501Y690499D02*
D03*
X6562501D02*
D03*
X2752501D02*
D03*
X2625501D02*
D03*
X6689501Y309499D02*
D03*
X6562501D02*
D03*
X2752501D02*
D03*
X2625501D02*
D03*
X6308501Y690499D02*
D03*
Y309499D02*
D03*
X6181501Y690499D02*
D03*
Y309499D02*
D03*
X6054501Y690499D02*
D03*
Y309499D02*
D03*
X5927501Y690499D02*
D03*
Y309499D02*
D03*
X5800501Y690499D02*
D03*
Y309499D02*
D03*
X5673501Y690499D02*
D03*
Y309499D02*
D03*
X5419501Y690499D02*
D03*
Y309499D02*
D03*
X5292501Y690499D02*
D03*
Y309499D02*
D03*
X5038501Y690499D02*
D03*
Y309499D02*
D03*
X4911501Y690499D02*
D03*
Y309499D02*
D03*
X4784501Y690499D02*
D03*
Y309499D02*
D03*
X4657501Y690499D02*
D03*
Y309499D02*
D03*
X4530501Y690499D02*
D03*
X4403501D02*
D03*
Y309499D02*
D03*
X4276501Y690499D02*
D03*
Y309499D02*
D03*
X4149501Y690499D02*
D03*
X4022501Y309499D02*
D03*
X3895501Y690499D02*
D03*
X3768501D02*
D03*
Y309499D02*
D03*
X3641501Y690499D02*
D03*
Y309499D02*
D03*
X3514501D02*
D03*
X3387501D02*
D03*
X3260501D02*
D03*
X3133501D02*
D03*
X3006501D02*
D03*
X3514501Y690499D02*
D03*
X3387501D02*
D03*
X3260501D02*
D03*
X3133501D02*
D03*
X3006501D02*
D03*
X2498501Y309499D02*
D03*
X7451501Y690499D02*
D03*
X7324501Y309499D02*
D03*
X7197501Y690499D02*
D03*
X7070501Y309499D02*
D03*
X6943501Y690499D02*
D03*
X6816501D02*
D03*
Y309499D02*
D03*
X6435501Y690499D02*
D03*
Y309499D02*
D03*
X5165501Y690499D02*
D03*
Y309499D02*
D03*
X4530501D02*
D03*
X4149501D02*
D03*
X4022501Y690499D02*
D03*
X3895501Y309499D02*
D03*
X2879501Y690499D02*
D03*
Y309499D02*
D03*
X2498501Y690499D02*
D03*
D11*
X1734998Y13989502D02*
D03*
X1565001D02*
D03*
X1734998Y12279498D02*
D03*
X1565001D02*
D03*
X1734998Y10569499D02*
D03*
X1565001D02*
D03*
X1734998Y8859500D02*
D03*
X1565001D02*
D03*
X1734998Y7149501D02*
D03*
X1565001D02*
D03*
X1734998Y5439501D02*
D03*
X1565001D02*
D03*
X1734998Y3729502D02*
D03*
X1565001D02*
D03*
X1734998Y2019498D02*
D03*
X1565001D02*
D03*
X1734998Y309499D02*
D03*
X1565001D02*
D03*
D17*
X7630003Y14180002D02*
D03*
X2321001Y14280002D02*
D03*
Y12569998D02*
D03*
X7630003Y12469998D02*
D03*
X2321001Y10859999D02*
D03*
X7630003Y10759999D02*
D03*
X2321001Y9149999D02*
D03*
X7630003Y9050000D02*
D03*
X2321001Y7440000D02*
D03*
X7630003Y7340001D02*
D03*
X2321001Y5730001D02*
D03*
X7630003Y5630001D02*
D03*
X2321001Y4020002D02*
D03*
X7630003Y3920002D02*
D03*
X2321001Y2309998D02*
D03*
X7630003Y2209998D02*
D03*
Y499999D02*
D03*
X2321001Y599999D02*
D03*
D18*
X7820000Y14180002D02*
D03*
X2129998D02*
D03*
Y12469998D02*
D03*
X7820000D02*
D03*
X2129998Y10759999D02*
D03*
X7820000D02*
D03*
X2129998Y9050000D02*
D03*
X7820000D02*
D03*
X2129998Y7340001D02*
D03*
X7820000D02*
D03*
X2129998Y5630001D02*
D03*
X7820000D02*
D03*
X2129998Y3920002D02*
D03*
X7820000D02*
D03*
X2129998Y2209998D02*
D03*
X7820000D02*
D03*
Y499999D02*
D03*
X2129998D02*
D03*
D19*
X375001D02*
D03*
Y2209998D02*
D03*
Y3920002D02*
D03*
Y5630001D02*
D03*
Y7340001D02*
D03*
Y9050000D02*
D03*
Y10759999D02*
D03*
Y12469998D02*
D03*
Y14180002D02*
D03*
X9575002Y2209998D02*
D03*
Y3920002D02*
D03*
Y5630001D02*
D03*
Y7340001D02*
D03*
Y9050000D02*
D03*
Y10759999D02*
D03*
Y12469998D02*
D03*
Y14180002D02*
D03*
Y499999D02*
D03*
%TF.MD5,ac66b8da54ab272e29cf688584b1120f*%
M02*
