%TF.GenerationSoftware,Altium Limited,Altium Designer,22.11.1 (43)*%
G04 Layer_Color=32768*
%FSLAX45Y45*%
%MOMM*%
%TF.SameCoordinates,189E8146-0809-41ED-80BF-86DDFA5291D0*%
%TF.FilePolarity,Positive*%
%TF.FileFunction,Other,Mechanical_15*%
%TF.Part,Single*%
G01*
G75*
%TA.AperFunction,NonConductor*%
%ADD26C,0.10000*%
%ADD39C,0.05000*%
D26*
X1694998Y12666000D02*
X1774998D01*
Y12526000D02*
Y12666000D01*
X1694998Y12526000D02*
X1774998D01*
X1694998D02*
Y12666000D01*
Y696001D02*
X1774998D01*
Y556001D02*
Y696001D01*
X1694998Y556001D02*
X1774998D01*
X1694998D02*
Y696001D01*
Y2406000D02*
X1774998D01*
Y2266000D02*
Y2406000D01*
X1694998Y2266000D02*
X1774998D01*
X1694998D02*
Y2406000D01*
Y4115999D02*
X1774998D01*
Y3975999D02*
Y4115999D01*
X1694998Y3975999D02*
X1774998D01*
X1694998D02*
Y4115999D01*
Y5825998D02*
X1774998D01*
Y5685998D02*
Y5825998D01*
X1694998Y5685998D02*
X1774998D01*
X1694998D02*
Y5825998D01*
Y7536002D02*
X1774998D01*
Y7396002D02*
Y7536002D01*
X1694998Y7396002D02*
X1774998D01*
X1694998D02*
Y7536002D01*
Y9246001D02*
X1774998D01*
Y9106002D02*
Y9246001D01*
X1694998Y9106002D02*
X1774998D01*
X1694998D02*
Y9246001D01*
Y10956000D02*
X1774998D01*
Y10816001D02*
Y10956000D01*
X1694998Y10816001D02*
X1774998D01*
X1694998D02*
Y10956000D01*
X1600002Y13989502D02*
X1700002D01*
X1649999Y13939500D02*
Y14039499D01*
X1694998Y14375999D02*
X1774998D01*
Y14235999D02*
Y14375999D01*
X1694998Y14235999D02*
X1774998D01*
X1694998D02*
Y14375999D01*
X1600002Y12279498D02*
X1700002D01*
X1649999Y12229501D02*
Y12329500D01*
X1600002Y10569499D02*
X1700002D01*
X1649999Y10519501D02*
Y10619501D01*
X1600002Y8859500D02*
X1700002D01*
X1649999Y8809502D02*
Y8909502D01*
X1600002Y7149501D02*
X1700002D01*
X1649999Y7099498D02*
Y7199498D01*
X1600002Y5439501D02*
X1700002D01*
X1649999Y5389499D02*
Y5489499D01*
X1600002Y3729502D02*
X1700002D01*
X1649999Y3679500D02*
Y3779500D01*
X1600002Y2019498D02*
X1700002D01*
X1649999Y1969501D02*
Y2069501D01*
X1600002Y309499D02*
X1700002D01*
X1649999Y259502D02*
Y359501D01*
D39*
X7949001Y13874998D02*
Y14382700D01*
X7846700Y14485001D02*
X7949001Y14382700D01*
X2001002Y14485001D02*
X7846700D01*
X2001002Y13874998D02*
Y14485001D01*
Y13874998D02*
X7949001D01*
X1820001Y13889502D02*
Y14089502D01*
X1480002Y13889502D02*
Y14089502D01*
Y13889502D02*
X1820001D01*
X1480002Y14089502D02*
X1820001D01*
X2001002Y12165000D02*
X7949001D01*
X2001002D02*
Y12775001D01*
X7846700D01*
X7949001Y12672700D01*
Y12165000D02*
Y12672700D01*
X2001002Y10455001D02*
X7949001D01*
X2001002D02*
Y11065002D01*
X7846700D01*
X7949001Y10962701D01*
Y10455001D02*
Y10962701D01*
X1820001Y12179498D02*
Y12379498D01*
X1480002Y12179498D02*
Y12379498D01*
Y12179498D02*
X1820001D01*
X1480002Y12379498D02*
X1820001D01*
Y10469499D02*
Y10669499D01*
X1480002Y10469499D02*
Y10669499D01*
Y10469499D02*
X1820001D01*
X1480002Y10669499D02*
X1820001D01*
X2001002Y8745002D02*
X7949001D01*
X2001002D02*
Y9354998D01*
X7846700D01*
X7949001Y9252702D01*
Y8745002D02*
Y9252702D01*
X2001002Y7035002D02*
X7949001D01*
X2001002D02*
Y7644999D01*
X7846700D01*
X7949001Y7542698D01*
Y7035002D02*
Y7542698D01*
X2001002Y5324998D02*
X7949001D01*
X2001002D02*
Y5935000D01*
X7846700D01*
X7949001Y5832699D01*
Y5324998D02*
Y5832699D01*
X1820001Y8759500D02*
Y8959499D01*
X1480002Y8759500D02*
Y8959499D01*
Y8759500D02*
X1820001D01*
X1480002Y8959499D02*
X1820001D01*
Y7049501D02*
Y7249500D01*
X1480002Y7049501D02*
Y7249500D01*
Y7049501D02*
X1820001D01*
X1480002Y7249500D02*
X1820001D01*
Y5339502D02*
Y5539501D01*
X1480002Y5339502D02*
Y5539501D01*
Y5339502D02*
X1820001D01*
X1480002Y5539501D02*
X1820001D01*
X2001002Y3614999D02*
X7949001D01*
X2001002D02*
Y4225000D01*
X7846700D01*
X7949001Y4122699D01*
Y3614999D02*
Y4122699D01*
X2001002Y1905000D02*
X7949001D01*
X2001002D02*
Y2515001D01*
X7846700D01*
X7949001Y2412700D01*
Y1905000D02*
Y2412700D01*
X1820001Y3629503D02*
Y3829502D01*
X1480002Y3629503D02*
Y3829502D01*
Y3629503D02*
X1820001D01*
X1480002Y3829502D02*
X1820001D01*
Y1919498D02*
Y2119498D01*
X1480002Y1919498D02*
Y2119498D01*
Y1919498D02*
X1820001D01*
X1480002Y2119498D02*
X1820001D01*
Y209499D02*
Y409499D01*
X1480002Y209499D02*
Y409499D01*
Y209499D02*
X1820001D01*
X1480002Y409499D02*
X1820001D01*
X7949001Y195001D02*
Y702701D01*
X7846700Y805002D02*
X7949001Y702701D01*
X2001002Y805002D02*
X7846700D01*
X2001002Y195001D02*
Y805002D01*
Y195001D02*
X7949001D01*
%TF.MD5,54e3bac252b5df47dabd6c1770067a4c*%
M02*
