%TF.GenerationSoftware,Altium Limited,Altium Designer,22.11.1 (43)*%
G04 Layer_Color=32896*
%FSLAX45Y45*%
%MOMM*%
%TF.SameCoordinates,189E8146-0809-41ED-80BF-86DDFA5291D0*%
%TF.FilePolarity,Positive*%
%TF.FileFunction,Other,Mechanical_20*%
%TF.Part,Single*%
G01*
G75*
%TA.AperFunction,NonConductor*%
%ADD26C,0.10000*%
D26*
X1594998Y12795499D02*
X1875003D01*
Y12396500D02*
Y12795499D01*
X1594998Y12396500D02*
X1875003D01*
X1594998D02*
Y12795499D01*
Y825500D02*
X1875003D01*
Y426502D02*
Y825500D01*
X1594998Y426502D02*
X1875003D01*
X1594998D02*
Y825500D01*
Y2535499D02*
X1875003D01*
Y2136501D02*
Y2535499D01*
X1594998Y2136501D02*
X1875003D01*
X1594998D02*
Y2535499D01*
Y4245498D02*
X1875003D01*
Y3846500D02*
Y4245498D01*
X1594998Y3846500D02*
X1875003D01*
X1594998D02*
Y4245498D01*
Y5955502D02*
X1875003D01*
Y5556499D02*
Y5955502D01*
X1594998Y5556499D02*
X1875003D01*
X1594998D02*
Y5955502D01*
Y7665502D02*
X1875003D01*
Y7266498D02*
Y7665502D01*
X1594998Y7266498D02*
X1875003D01*
X1594998D02*
Y7665502D01*
Y9375501D02*
X1875003D01*
Y8976502D02*
Y9375501D01*
X1594998Y8976502D02*
X1875003D01*
X1594998D02*
Y9375501D01*
Y11085500D02*
X1875003D01*
Y10686501D02*
Y11085500D01*
X1594998Y10686501D02*
X1875003D01*
X1594998D02*
Y11085500D01*
Y14505498D02*
X1875003D01*
Y14106500D02*
Y14505498D01*
X1594998Y14106500D02*
X1875003D01*
X1594998D02*
Y14505498D01*
%TF.MD5,770cf7834670352ee7ca972d8a30f235*%
M02*
