%TF.GenerationSoftware,Altium Limited,Altium Designer,22.11.1 (43)*%
G04 Layer_Color=2752767*
%FSLAX45Y45*%
%MOMM*%
%TF.SameCoordinates,189E8146-0809-41ED-80BF-86DDFA5291D0*%
%TF.FilePolarity,Positive*%
%TF.FileFunction,Drawing*%
%TF.Part,Single*%
G01*
G75*
%TA.AperFunction,NonConductor*%
%ADD64C,0.16933*%
%ADD66C,0.12700*%
D64*
X7680803Y14180002D02*
G03*
X7680803Y14180002I-50800J0D01*
G01*
X2371801Y14280002D02*
G03*
X2371801Y14280002I-50800J0D01*
G01*
Y12569998D02*
G03*
X2371801Y12569998I-50800J0D01*
G01*
X7680803Y12469998D02*
G03*
X7680803Y12469998I-50800J0D01*
G01*
X2371801Y10859999D02*
G03*
X2371801Y10859999I-50800J0D01*
G01*
X7680803Y10759999D02*
G03*
X7680803Y10759999I-50800J0D01*
G01*
X2371801Y9149999D02*
G03*
X2371801Y9149999I-50800J0D01*
G01*
X7680803Y9050000D02*
G03*
X7680803Y9050000I-50800J0D01*
G01*
X2371801Y7440000D02*
G03*
X2371801Y7440000I-50800J0D01*
G01*
X7680803Y7340001D02*
G03*
X7680803Y7340001I-50800J0D01*
G01*
X2371801Y5730001D02*
G03*
X2371801Y5730001I-50800J0D01*
G01*
X7680803Y5630001D02*
G03*
X7680803Y5630001I-50800J0D01*
G01*
X2371801Y4020002D02*
G03*
X2371801Y4020002I-50800J0D01*
G01*
X7680803Y3920002D02*
G03*
X7680803Y3920002I-50800J0D01*
G01*
X2371801Y2309998D02*
G03*
X2371801Y2309998I-50800J0D01*
G01*
X7680803Y2209998D02*
G03*
X7680803Y2209998I-50800J0D01*
G01*
Y499999D02*
G03*
X7680803Y499999I-50800J0D01*
G01*
X2371801Y599999D02*
G03*
X2371801Y599999I-50800J0D01*
G01*
D66*
X7820000Y14129202D02*
X7769200Y14230801D01*
X7870800D01*
X7820000Y14129202D01*
X2129998D02*
X2079198Y14230801D01*
X2180798D01*
X2129998Y14129202D01*
Y12419198D02*
X2079198Y12520798D01*
X2180798D01*
X2129998Y12419198D01*
X7820000D02*
X7769200Y12520798D01*
X7870800D01*
X7820000Y12419198D01*
X2129998Y10709199D02*
X2079198Y10810799D01*
X2180798D01*
X2129998Y10709199D01*
X7820000D02*
X7769200Y10810799D01*
X7870800D01*
X7820000Y10709199D01*
X2129998Y8999200D02*
X2079198Y9100800D01*
X2180798D01*
X2129998Y8999200D01*
X7820000D02*
X7769200Y9100800D01*
X7870800D01*
X7820000Y8999200D01*
X2129998Y7289201D02*
X2079198Y7390801D01*
X2180798D01*
X2129998Y7289201D01*
X7820000D02*
X7769200Y7390801D01*
X7870800D01*
X7820000Y7289201D01*
X2129998Y5579201D02*
X2079198Y5680801D01*
X2180798D01*
X2129998Y5579201D01*
X7820000D02*
X7769200Y5680801D01*
X7870800D01*
X7820000Y5579201D01*
X2129998Y3869202D02*
X2079198Y3970802D01*
X2180798D01*
X2129998Y3869202D01*
X7820000D02*
X7769200Y3970802D01*
X7870800D01*
X7820000Y3869202D01*
X2129998Y2159198D02*
X2079198Y2260798D01*
X2180798D01*
X2129998Y2159198D01*
X7820000D02*
X7769200Y2260798D01*
X7870800D01*
X7820000Y2159198D01*
Y449199D02*
X7769200Y550799D01*
X7870800D01*
X7820000Y449199D01*
X2129998D02*
X2079198Y550799D01*
X2180798D01*
X2129998Y449199D01*
X324201D02*
Y550799D01*
X425801D01*
Y449199D01*
X324201D01*
Y2159198D02*
Y2260798D01*
X425801D01*
Y2159198D01*
X324201D01*
Y3869202D02*
Y3970802D01*
X425801D01*
Y3869202D01*
X324201D01*
Y5579201D02*
Y5680801D01*
X425801D01*
Y5579201D01*
X324201D01*
Y7289201D02*
Y7390801D01*
X425801D01*
Y7289201D01*
X324201D01*
Y8999200D02*
Y9100800D01*
X425801D01*
Y8999200D01*
X324201D01*
Y10709199D02*
Y10810799D01*
X425801D01*
Y10709199D01*
X324201D01*
Y12419198D02*
Y12520798D01*
X425801D01*
Y12419198D01*
X324201D01*
Y14129202D02*
Y14230801D01*
X425801D01*
Y14129202D01*
X324201D01*
X9524202Y2159198D02*
Y2260798D01*
X9625802D01*
Y2159198D01*
X9524202D01*
Y3869202D02*
Y3970802D01*
X9625802D01*
Y3869202D01*
X9524202D01*
Y5579201D02*
Y5680801D01*
X9625802D01*
Y5579201D01*
X9524202D01*
Y7289201D02*
Y7390801D01*
X9625802D01*
Y7289201D01*
X9524202D01*
Y8999200D02*
Y9100800D01*
X9625802D01*
Y8999200D01*
X9524202D01*
Y10709199D02*
Y10810799D01*
X9625802D01*
Y10709199D01*
X9524202D01*
Y12419198D02*
Y12520798D01*
X9625802D01*
Y12419198D01*
X9524202D01*
Y14129202D02*
Y14230801D01*
X9625802D01*
Y14129202D01*
X9524202D01*
Y449199D02*
Y550799D01*
X9625802D01*
Y449199D01*
X9524202D01*
X7400700Y14133701D02*
X7426100D01*
X7451500Y14159100D01*
X7476900Y14133701D01*
X7502300D01*
Y14159100D01*
X7476900Y14184502D01*
X7502300Y14209901D01*
Y14235301D01*
X7476900D01*
X7451500Y14209901D01*
X7426100Y14235301D01*
X7400700D01*
Y14209901D01*
X7426100Y14184502D01*
X7400700Y14159100D01*
Y14133701D01*
Y12423701D02*
X7426100D01*
X7451500Y12449101D01*
X7476900Y12423701D01*
X7502300D01*
Y12449101D01*
X7476900Y12474501D01*
X7502300Y12499901D01*
Y12525301D01*
X7476900D01*
X7451500Y12499901D01*
X7426100Y12525301D01*
X7400700D01*
Y12499901D01*
X7426100Y12474501D01*
X7400700Y12449101D01*
Y12423701D01*
Y10713701D02*
X7426100D01*
X7451500Y10739101D01*
X7476900Y10713701D01*
X7502300D01*
Y10739101D01*
X7476900Y10764501D01*
X7502300Y10789901D01*
Y10815301D01*
X7476900D01*
X7451500Y10789901D01*
X7426100Y10815301D01*
X7400700D01*
Y10789901D01*
X7426100Y10764501D01*
X7400700Y10739101D01*
Y10713701D01*
Y9003701D02*
X7426100D01*
X7451500Y9029101D01*
X7476900Y9003701D01*
X7502300D01*
Y9029101D01*
X7476900Y9054501D01*
X7502300Y9079901D01*
Y9105301D01*
X7476900D01*
X7451500Y9079901D01*
X7426100Y9105301D01*
X7400700D01*
Y9079901D01*
X7426100Y9054501D01*
X7400700Y9029101D01*
Y9003701D01*
Y7293701D02*
X7426100D01*
X7451500Y7319101D01*
X7476900Y7293701D01*
X7502300D01*
Y7319101D01*
X7476900Y7344501D01*
X7502300Y7369901D01*
Y7395301D01*
X7476900D01*
X7451500Y7369901D01*
X7426100Y7395301D01*
X7400700D01*
Y7369901D01*
X7426100Y7344501D01*
X7400700Y7319101D01*
Y7293701D01*
Y5583701D02*
X7426100D01*
X7451500Y5609101D01*
X7476900Y5583701D01*
X7502300D01*
Y5609101D01*
X7476900Y5634501D01*
X7502300Y5659901D01*
Y5685301D01*
X7476900D01*
X7451500Y5659901D01*
X7426100Y5685301D01*
X7400700D01*
Y5659901D01*
X7426100Y5634501D01*
X7400700Y5609101D01*
Y5583701D01*
Y3873701D02*
X7426100D01*
X7451500Y3899101D01*
X7476900Y3873701D01*
X7502300D01*
Y3899101D01*
X7476900Y3924501D01*
X7502300Y3949901D01*
Y3975301D01*
X7476900D01*
X7451500Y3949901D01*
X7426100Y3975301D01*
X7400700D01*
Y3949901D01*
X7426100Y3924501D01*
X7400700Y3899101D01*
Y3873701D01*
Y2163702D02*
X7426100D01*
X7451500Y2189102D01*
X7476900Y2163702D01*
X7502300D01*
Y2189102D01*
X7476900Y2214502D01*
X7502300Y2239902D01*
Y2265302D01*
X7476900D01*
X7451500Y2239902D01*
X7426100Y2265302D01*
X7400700D01*
Y2239902D01*
X7426100Y2214502D01*
X7400700Y2189102D01*
Y2163702D01*
X7273701Y453701D02*
X7299101Y504501D01*
X7273701Y555301D01*
X7324501Y529901D01*
X7375301Y555301D01*
X7349901Y504501D01*
X7375301Y453701D01*
X7324501Y479101D01*
X7273701Y453701D01*
X7400700Y453700D02*
X7426100D01*
X7451500Y479100D01*
X7476900Y453700D01*
X7502300D01*
Y479100D01*
X7476900Y504500D01*
X7502300Y529900D01*
Y555300D01*
X7476900D01*
X7451500Y529900D01*
X7426100Y555300D01*
X7400700D01*
Y529900D01*
X7426100Y504500D01*
X7400700Y479100D01*
Y453700D01*
X2473100Y14495100D02*
Y14469701D01*
X2523900D01*
Y14495100D01*
X2549300D01*
Y14545900D01*
X2523900D01*
Y14571300D01*
X2473100D01*
Y14545900D01*
X2447700D01*
Y14495100D01*
X2473100D01*
Y12785099D02*
Y12759699D01*
X2523900D01*
Y12785099D01*
X2549300D01*
Y12835899D01*
X2523900D01*
Y12861299D01*
X2473100D01*
Y12835899D01*
X2447700D01*
Y12785099D01*
X2473100D01*
Y11075099D02*
Y11049699D01*
X2523900D01*
Y11075099D01*
X2549300D01*
Y11125899D01*
X2523900D01*
Y11151299D01*
X2473100D01*
Y11125899D01*
X2447700D01*
Y11075099D01*
X2473100D01*
Y9365099D02*
Y9339699D01*
X2523900D01*
Y9365099D01*
X2549300D01*
Y9415899D01*
X2523900D01*
Y9441299D01*
X2473100D01*
Y9415899D01*
X2447700D01*
Y9365099D01*
X2473100D01*
Y7655099D02*
Y7629699D01*
X2523900D01*
Y7655099D01*
X2549300D01*
Y7705899D01*
X2523900D01*
Y7731299D01*
X2473100D01*
Y7705899D01*
X2447700D01*
Y7655099D01*
X2473100D01*
Y5945099D02*
Y5919699D01*
X2523900D01*
Y5945099D01*
X2549300D01*
Y5995899D01*
X2523900D01*
Y6021299D01*
X2473100D01*
Y5995899D01*
X2447700D01*
Y5945099D01*
X2473100D01*
Y4235099D02*
Y4209699D01*
X2523900D01*
Y4235099D01*
X2549300D01*
Y4285899D01*
X2523900D01*
Y4311299D01*
X2473100D01*
Y4285899D01*
X2447700D01*
Y4235099D01*
X2473100D01*
Y2525100D02*
Y2499700D01*
X2523900D01*
Y2525100D01*
X2549300D01*
Y2575900D01*
X2523900D01*
Y2601300D01*
X2473100D01*
Y2575900D01*
X2447700D01*
Y2525100D01*
X2473100D01*
X2854099Y2525100D02*
Y2499700D01*
X2904899D01*
Y2525100D01*
X2930299D01*
Y2575900D01*
X2904899D01*
Y2601300D01*
X2854099D01*
Y2575900D01*
X2828699D01*
Y2525100D01*
X2854099D01*
Y7655100D02*
Y7629700D01*
X2904899D01*
Y7655100D01*
X2930299D01*
Y7705900D01*
X2904899D01*
Y7731300D01*
X2854099D01*
Y7705900D01*
X2828699D01*
Y7655100D01*
X2854099D01*
X4060600Y2154600D02*
Y2129200D01*
X4111400D01*
Y2154600D01*
X4136800D01*
Y2205400D01*
X4111400D01*
Y2230800D01*
X4060600D01*
Y2205400D01*
X4035200D01*
Y2154600D01*
X4060600D01*
X6092600Y1833601D02*
Y1808201D01*
X6143400D01*
Y1833601D01*
X6168800D01*
Y1884401D01*
X6143400D01*
Y1909801D01*
X6092600D01*
Y1884401D01*
X6067200D01*
Y1833601D01*
X6092600D01*
X2854100Y815100D02*
Y789700D01*
X2904900D01*
Y815100D01*
X2930300D01*
Y865900D01*
X2904900D01*
Y891300D01*
X2854100D01*
Y865900D01*
X2828700D01*
Y815100D01*
X2854100D01*
X3362099Y14495100D02*
Y14469701D01*
X3412899D01*
Y14495100D01*
X3438299D01*
Y14545901D01*
X3412899D01*
Y14571301D01*
X3362099D01*
Y14545901D01*
X3336699D01*
Y14495100D01*
X3362099D01*
X3806599Y13803601D02*
Y13778201D01*
X3857399D01*
Y13803601D01*
X3882799D01*
Y13854401D01*
X3857399D01*
Y13879800D01*
X3806599D01*
Y13854401D01*
X3781199D01*
Y13803601D01*
X3806599D01*
X3933599D02*
Y13778201D01*
X3984399D01*
Y13803601D01*
X4009799D01*
Y13854401D01*
X3984399D01*
Y13879800D01*
X3933599D01*
Y13854401D01*
X3908199D01*
Y13803601D01*
X3933599D01*
X4060599D02*
Y13778201D01*
X4111399D01*
Y13803601D01*
X4136799D01*
Y13854401D01*
X4111399D01*
Y13879800D01*
X4060599D01*
Y13854401D01*
X4035199D01*
Y13803601D01*
X4060599D01*
X4187599D02*
Y13778201D01*
X4238399D01*
Y13803601D01*
X4263799D01*
Y13854401D01*
X4238399D01*
Y13879800D01*
X4187599D01*
Y13854401D01*
X4162199D01*
Y13803601D01*
X4187599D01*
X4314599D02*
Y13778201D01*
X4365399D01*
Y13803601D01*
X4390799D01*
Y13854401D01*
X4365399D01*
Y13879800D01*
X4314599D01*
Y13854401D01*
X4289199D01*
Y13803601D01*
X4314599D01*
X4568599D02*
Y13778201D01*
X4619399D01*
Y13803601D01*
X4644799D01*
Y13854401D01*
X4619399D01*
Y13879800D01*
X4568599D01*
Y13854401D01*
X4543199D01*
Y13803601D01*
X4568599D01*
X4695599D02*
Y13778201D01*
X4746399D01*
Y13803601D01*
X4771799D01*
Y13854401D01*
X4746399D01*
Y13879800D01*
X4695599D01*
Y13854401D01*
X4670199D01*
Y13803601D01*
X4695599D01*
X4822599D02*
Y13778201D01*
X4873399D01*
Y13803601D01*
X4898799D01*
Y13854401D01*
X4873399D01*
Y13879800D01*
X4822599D01*
Y13854401D01*
X4797199D01*
Y13803601D01*
X4822599D01*
X5203599D02*
Y13778201D01*
X5254399D01*
Y13803601D01*
X5279799D01*
Y13854401D01*
X5254399D01*
Y13879800D01*
X5203599D01*
Y13854401D01*
X5178199D01*
Y13803601D01*
X5203599D01*
X5329376D02*
Y13778201D01*
X5380176D01*
Y13803601D01*
X5405576D01*
Y13854401D01*
X5380176D01*
Y13879800D01*
X5329376D01*
Y13854401D01*
X5303976D01*
Y13803601D01*
X5329376D01*
X5575599D02*
Y13778201D01*
X5626399D01*
Y13803601D01*
X5651799D01*
Y13854401D01*
X5626399D01*
Y13879800D01*
X5575599D01*
Y13854401D01*
X5550199D01*
Y13803601D01*
X5575599D01*
X5711599D02*
Y13778201D01*
X5762399D01*
Y13803601D01*
X5787799D01*
Y13854401D01*
X5762399D01*
Y13879800D01*
X5711599D01*
Y13854401D01*
X5686199D01*
Y13803601D01*
X5711599D01*
X5838599D02*
Y13778201D01*
X5889399D01*
Y13803601D01*
X5914799D01*
Y13854401D01*
X5889399D01*
Y13879800D01*
X5838599D01*
Y13854401D01*
X5813199D01*
Y13803601D01*
X5838599D01*
X6219599D02*
Y13778201D01*
X6270399D01*
Y13803601D01*
X6295799D01*
Y13854401D01*
X6270399D01*
Y13879800D01*
X6219599D01*
Y13854401D01*
X6194199D01*
Y13803601D01*
X6219599D01*
X6346600D02*
Y13778201D01*
X6397400D01*
Y13803601D01*
X6422800D01*
Y13854401D01*
X6397400D01*
Y13879800D01*
X6346600D01*
Y13854401D01*
X6321200D01*
Y13803601D01*
X6346600D01*
X6473600D02*
Y13778201D01*
X6524400D01*
Y13803601D01*
X6549800D01*
Y13854401D01*
X6524400D01*
Y13879800D01*
X6473600D01*
Y13854401D01*
X6448200D01*
Y13803601D01*
X6473600D01*
X6600600D02*
Y13778201D01*
X6651400D01*
Y13803601D01*
X6676800D01*
Y13854401D01*
X6651400D01*
Y13879800D01*
X6600600D01*
Y13854401D01*
X6575200D01*
Y13803601D01*
X6600600D01*
X6854599D02*
Y13778201D01*
X6905399D01*
Y13803601D01*
X6930799D01*
Y13854401D01*
X6905399D01*
Y13879800D01*
X6854599D01*
Y13854401D01*
X6829199D01*
Y13803601D01*
X6854599D01*
X6981600D02*
Y13778201D01*
X7032400D01*
Y13803601D01*
X7057800D01*
Y13854401D01*
X7032400D01*
Y13879800D01*
X6981600D01*
Y13854401D01*
X6956200D01*
Y13803601D01*
X6981600D01*
X3108099Y14495100D02*
Y14469701D01*
X3158899D01*
Y14495100D01*
X3184299D01*
Y14545901D01*
X3158899D01*
Y14571301D01*
X3108099D01*
Y14545901D01*
X3082699D01*
Y14495100D01*
X3108099D01*
X7273701Y14133702D02*
X7299101Y14184502D01*
X7273701Y14235303D01*
X7324501Y14209901D01*
X7375301Y14235303D01*
X7349901Y14184502D01*
X7375301Y14133702D01*
X7324501Y14159102D01*
X7273701Y14133702D01*
X5965599Y14124602D02*
Y14099200D01*
X6016399D01*
Y14124602D01*
X6041799D01*
Y14175401D01*
X6016399D01*
Y14200801D01*
X5965599D01*
Y14175401D01*
X5940199D01*
Y14124602D01*
X5965599D01*
X2854099Y14495100D02*
Y14469701D01*
X2904899D01*
Y14495100D01*
X2930299D01*
Y14545900D01*
X2904899D01*
Y14571300D01*
X2854099D01*
Y14545900D01*
X2828699D01*
Y14495100D01*
X2854099D01*
X2701701Y14129201D02*
X2727101Y14180000D01*
X2701701Y14230801D01*
X2752501Y14205402D01*
X2803301Y14230801D01*
X2777901Y14180000D01*
X2803301Y14129201D01*
X2752501Y14154601D01*
X2701701Y14129201D01*
X2574701D02*
X2600101Y14180000D01*
X2574701Y14230801D01*
X2625501Y14205402D01*
X2676301Y14230801D01*
X2650901Y14180000D01*
X2676301Y14129201D01*
X2625501Y14154601D01*
X2574701Y14129201D01*
X3425599Y13803601D02*
Y13778201D01*
X3476399D01*
Y13803601D01*
X3501799D01*
Y13854401D01*
X3476399D01*
Y13879800D01*
X3425599D01*
Y13854401D01*
X3400199D01*
Y13803601D01*
X3425599D01*
X3171599D02*
Y13778201D01*
X3222399D01*
Y13803601D01*
X3247799D01*
Y13854401D01*
X3222399D01*
Y13879800D01*
X3171599D01*
Y13854401D01*
X3146199D01*
Y13803601D01*
X3171599D01*
X2917599D02*
Y13778201D01*
X2968399D01*
Y13803601D01*
X2993799D01*
Y13854401D01*
X2968399D01*
Y13879800D01*
X2917599D01*
Y13854401D01*
X2892199D01*
Y13803601D01*
X2917599D01*
X2981099Y14195100D02*
Y14169701D01*
X3031899D01*
Y14195100D01*
X3057299D01*
Y14245901D01*
X3031899D01*
Y14271301D01*
X2981099D01*
Y14245901D01*
X2955699D01*
Y14195100D01*
X2981099D01*
X4632099Y14495100D02*
Y14469701D01*
X4682899D01*
Y14495100D01*
X4708299D01*
Y14545901D01*
X4682899D01*
Y14571301D01*
X4632099D01*
Y14545901D01*
X4606699D01*
Y14495100D01*
X4632099D01*
X7172099Y14195100D02*
Y14169701D01*
X7222899D01*
Y14195100D01*
X7248299D01*
Y14245901D01*
X7222899D01*
Y14271301D01*
X7172099D01*
Y14245901D01*
X7146699D01*
Y14195100D01*
X7172099D01*
X7045099D02*
Y14169701D01*
X7095899D01*
Y14195100D01*
X7121299D01*
Y14245901D01*
X7095899D01*
Y14271301D01*
X7045099D01*
Y14245901D01*
X7019699D01*
Y14195100D01*
X7045099D01*
X6918099D02*
Y14169701D01*
X6968899D01*
Y14195100D01*
X6994299D01*
Y14245901D01*
X6968899D01*
Y14271301D01*
X6918099D01*
Y14245901D01*
X6892699D01*
Y14195100D01*
X6918099D01*
X6791099D02*
Y14169701D01*
X6841899D01*
Y14195100D01*
X6867299D01*
Y14245901D01*
X6841899D01*
Y14271301D01*
X6791099D01*
Y14245901D01*
X6765699D01*
Y14195100D01*
X6791099D01*
X6727600Y13803601D02*
Y13778201D01*
X6778400D01*
Y13803601D01*
X6803800D01*
Y13854401D01*
X6778400D01*
Y13879800D01*
X6727600D01*
Y13854401D01*
X6702200D01*
Y13803601D01*
X6727600D01*
X6664099Y14195100D02*
Y14169701D01*
X6714899D01*
Y14195100D01*
X6740299D01*
Y14245901D01*
X6714899D01*
Y14271301D01*
X6664099D01*
Y14245901D01*
X6638699D01*
Y14195100D01*
X6664099D01*
X6537099D02*
Y14169701D01*
X6587899D01*
Y14195100D01*
X6613299D01*
Y14245901D01*
X6587899D01*
Y14271301D01*
X6537099D01*
Y14245901D01*
X6511699D01*
Y14195100D01*
X6537099D01*
X6092600Y13803601D02*
Y13778201D01*
X6143400D01*
Y13803601D01*
X6168800D01*
Y13854401D01*
X6143400D01*
Y13879800D01*
X6092600D01*
Y13854401D01*
X6067200D01*
Y13803601D01*
X6092600D01*
X6283099Y14195100D02*
Y14169701D01*
X6333899D01*
Y14195100D01*
X6359299D01*
Y14245901D01*
X6333899D01*
Y14271301D01*
X6283099D01*
Y14245901D01*
X6257699D01*
Y14195100D01*
X6283099D01*
X6029099D02*
Y14169701D01*
X6079899D01*
Y14195100D01*
X6105299D01*
Y14245901D01*
X6079899D01*
Y14271301D01*
X6029099D01*
Y14245901D01*
X6003699D01*
Y14195100D01*
X6029099D01*
X5775099D02*
Y14169701D01*
X5825899D01*
Y14195100D01*
X5851299D01*
Y14245901D01*
X5825899D01*
Y14271301D01*
X5775099D01*
Y14245901D01*
X5749699D01*
Y14195100D01*
X5775099D01*
X5648099D02*
Y14169701D01*
X5698899D01*
Y14195100D01*
X5724299D01*
Y14245901D01*
X5698899D01*
Y14271301D01*
X5648099D01*
Y14245901D01*
X5622699D01*
Y14195100D01*
X5648099D01*
X5394099D02*
Y14169701D01*
X5444899D01*
Y14195100D01*
X5470299D01*
Y14245901D01*
X5444899D01*
Y14271301D01*
X5394099D01*
Y14245901D01*
X5368699D01*
Y14195100D01*
X5394099D01*
X5267099D02*
Y14169701D01*
X5317899D01*
Y14195100D01*
X5343299D01*
Y14245901D01*
X5317899D01*
Y14271301D01*
X5267099D01*
Y14245901D01*
X5241699D01*
Y14195100D01*
X5267099D01*
X5076599Y13803601D02*
Y13778201D01*
X5127399D01*
Y13803601D01*
X5152799D01*
Y13854401D01*
X5127399D01*
Y13879800D01*
X5076599D01*
Y13854401D01*
X5051199D01*
Y13803601D01*
X5076599D01*
X5013099Y14195100D02*
Y14169701D01*
X5063899D01*
Y14195100D01*
X5089299D01*
Y14245901D01*
X5063899D01*
Y14271301D01*
X5013099D01*
Y14245901D01*
X4987699D01*
Y14195100D01*
X5013099D01*
X4949599Y13803601D02*
Y13778201D01*
X5000399D01*
Y13803601D01*
X5025799D01*
Y13854401D01*
X5000399D01*
Y13879800D01*
X4949599D01*
Y13854401D01*
X4924199D01*
Y13803601D01*
X4949599D01*
X4759099Y14195100D02*
Y14169701D01*
X4809899D01*
Y14195100D01*
X4835299D01*
Y14245901D01*
X4809899D01*
Y14271301D01*
X4759099D01*
Y14245901D01*
X4733699D01*
Y14195100D01*
X4759099D01*
X4441599Y13803601D02*
Y13778201D01*
X4492399D01*
Y13803601D01*
X4517799D01*
Y13854401D01*
X4492399D01*
Y13879800D01*
X4441599D01*
Y13854401D01*
X4416199D01*
Y13803601D01*
X4441599D01*
X4378101Y14195100D02*
Y14169701D01*
X4428901D01*
Y14195100D01*
X4454301D01*
Y14245901D01*
X4428901D01*
Y14271301D01*
X4378101D01*
Y14245901D01*
X4352701D01*
Y14195100D01*
X4378101D01*
X4251099D02*
Y14169701D01*
X4301899D01*
Y14195100D01*
X4327299D01*
Y14245901D01*
X4301899D01*
Y14271301D01*
X4251099D01*
Y14245901D01*
X4225699D01*
Y14195100D01*
X4251099D01*
X4124099D02*
Y14169701D01*
X4174899D01*
Y14195100D01*
X4200299D01*
Y14245901D01*
X4174899D01*
Y14271301D01*
X4124099D01*
Y14245901D01*
X4098699D01*
Y14195100D01*
X4124099D01*
X3997099D02*
Y14169701D01*
X4047899D01*
Y14195100D01*
X4073299D01*
Y14245901D01*
X4047899D01*
Y14271301D01*
X3997099D01*
Y14245901D01*
X3971699D01*
Y14195100D01*
X3997099D01*
X3870099D02*
Y14169701D01*
X3920899D01*
Y14195100D01*
X3946299D01*
Y14245901D01*
X3920899D01*
Y14271301D01*
X3870099D01*
Y14245901D01*
X3844699D01*
Y14195100D01*
X3870099D01*
X3743099D02*
Y14169701D01*
X3793899D01*
Y14195100D01*
X3819299D01*
Y14245901D01*
X3793899D01*
Y14271301D01*
X3743099D01*
Y14245901D01*
X3717699D01*
Y14195100D01*
X3743099D01*
X3679599Y13803601D02*
Y13778201D01*
X3730399D01*
Y13803601D01*
X3755799D01*
Y13854401D01*
X3730399D01*
Y13879800D01*
X3679599D01*
Y13854401D01*
X3654199D01*
Y13803601D01*
X3679599D01*
X3235099Y14195100D02*
Y14169701D01*
X3285899D01*
Y14195100D01*
X3311299D01*
Y14245901D01*
X3285899D01*
Y14271301D01*
X3235099D01*
Y14245901D01*
X3209699D01*
Y14195100D01*
X3235099D01*
X3616099D02*
Y14169701D01*
X3666899D01*
Y14195100D01*
X3692299D01*
Y14245901D01*
X3666899D01*
Y14271301D01*
X3616099D01*
Y14245901D01*
X3590699D01*
Y14195100D01*
X3616099D01*
X3489099D02*
Y14169701D01*
X3539899D01*
Y14195100D01*
X3565299D01*
Y14245901D01*
X3539899D01*
Y14271301D01*
X3489099D01*
Y14245901D01*
X3463699D01*
Y14195100D01*
X3489099D01*
X4886099Y14495100D02*
Y14469701D01*
X4936899D01*
Y14495100D01*
X4962299D01*
Y14545901D01*
X4936899D01*
Y14571301D01*
X4886099D01*
Y14545901D01*
X4860699D01*
Y14495100D01*
X4886099D01*
X6410100D02*
Y14469701D01*
X6460900D01*
Y14495100D01*
X6486300D01*
Y14545901D01*
X6460900D01*
Y14571301D01*
X6410100D01*
Y14545901D01*
X6384700D01*
Y14495100D01*
X6410100D01*
X5902099D02*
Y14469701D01*
X5952899D01*
Y14495100D01*
X5978299D01*
Y14545901D01*
X5952899D01*
Y14571301D01*
X5902099D01*
Y14545901D01*
X5876699D01*
Y14495100D01*
X5902099D01*
X7108599Y14124602D02*
Y14099200D01*
X7159399D01*
Y14124602D01*
X7184799D01*
Y14175401D01*
X7159399D01*
Y14200801D01*
X7108599D01*
Y14175401D01*
X7083199D01*
Y14124602D01*
X7108599D01*
X5140099Y14495100D02*
Y14469701D01*
X5190899D01*
Y14495100D01*
X5216299D01*
Y14545901D01*
X5190899D01*
Y14571301D01*
X5140099D01*
Y14545901D01*
X5114699D01*
Y14495100D01*
X5140099D01*
X4505099D02*
Y14469701D01*
X4555899D01*
Y14495100D01*
X4581299D01*
Y14545901D01*
X4555899D01*
Y14571301D01*
X4505099D01*
Y14545901D01*
X4479699D01*
Y14495100D01*
X4505099D01*
X3362099Y14084476D02*
Y14059076D01*
X3412899D01*
Y14084476D01*
X3438299D01*
Y14135275D01*
X3412899D01*
Y14160677D01*
X3362099D01*
Y14135275D01*
X3336699D01*
Y14084476D01*
X3362099D01*
X3108099D02*
Y14059076D01*
X3158899D01*
Y14084476D01*
X3184299D01*
Y14135275D01*
X3158899D01*
Y14160677D01*
X3108099D01*
Y14135275D01*
X3082699D01*
Y14084476D01*
X3108099D01*
X2854101D02*
Y14059076D01*
X2904901D01*
Y14084476D01*
X2930301D01*
Y14135275D01*
X2904901D01*
Y14160677D01*
X2854101D01*
Y14135275D01*
X2828701D01*
Y14084476D01*
X2854101D01*
X3616099Y14084502D02*
Y14059100D01*
X3666899D01*
Y14084502D01*
X3692299D01*
Y14135301D01*
X3666899D01*
Y14160701D01*
X3616099D01*
Y14135301D01*
X3590699D01*
Y14084502D01*
X3616099D01*
X6156099Y14495100D02*
Y14469701D01*
X6206899D01*
Y14495100D01*
X6232299D01*
Y14545901D01*
X6206899D01*
Y14571301D01*
X6156099D01*
Y14545901D01*
X6130699D01*
Y14495100D01*
X6156099D01*
X3806599Y12093601D02*
Y12068201D01*
X3857399D01*
Y12093601D01*
X3882799D01*
Y12144401D01*
X3857399D01*
Y12169801D01*
X3806599D01*
Y12144401D01*
X3781199D01*
Y12093601D01*
X3806599D01*
X3933599D02*
Y12068201D01*
X3984399D01*
Y12093601D01*
X4009799D01*
Y12144401D01*
X3984399D01*
Y12169801D01*
X3933599D01*
Y12144401D01*
X3908199D01*
Y12093601D01*
X3933599D01*
X4060599D02*
Y12068201D01*
X4111399D01*
Y12093601D01*
X4136799D01*
Y12144401D01*
X4111399D01*
Y12169801D01*
X4060599D01*
Y12144401D01*
X4035199D01*
Y12093601D01*
X4060599D01*
X4187599D02*
Y12068201D01*
X4238399D01*
Y12093601D01*
X4263799D01*
Y12144401D01*
X4238399D01*
Y12169801D01*
X4187599D01*
Y12144401D01*
X4162199D01*
Y12093601D01*
X4187599D01*
X4314599D02*
Y12068201D01*
X4365399D01*
Y12093601D01*
X4390799D01*
Y12144401D01*
X4365399D01*
Y12169801D01*
X4314599D01*
Y12144401D01*
X4289199D01*
Y12093601D01*
X4314599D01*
X4568599D02*
Y12068201D01*
X4619399D01*
Y12093601D01*
X4644799D01*
Y12144401D01*
X4619399D01*
Y12169801D01*
X4568599D01*
Y12144401D01*
X4543199D01*
Y12093601D01*
X4568599D01*
X4695599D02*
Y12068201D01*
X4746399D01*
Y12093601D01*
X4771799D01*
Y12144401D01*
X4746399D01*
Y12169801D01*
X4695599D01*
Y12144401D01*
X4670199D01*
Y12093601D01*
X4695599D01*
X4822599D02*
Y12068201D01*
X4873399D01*
Y12093601D01*
X4898799D01*
Y12144401D01*
X4873399D01*
Y12169801D01*
X4822599D01*
Y12144401D01*
X4797199D01*
Y12093601D01*
X4822599D01*
X5203599D02*
Y12068201D01*
X5254399D01*
Y12093601D01*
X5279799D01*
Y12144401D01*
X5254399D01*
Y12169801D01*
X5203599D01*
Y12144401D01*
X5178199D01*
Y12093601D01*
X5203599D01*
X5329376D02*
Y12068201D01*
X5380176D01*
Y12093601D01*
X5405576D01*
Y12144401D01*
X5380176D01*
Y12169801D01*
X5329376D01*
Y12144401D01*
X5303976D01*
Y12093601D01*
X5329376D01*
X5575599D02*
Y12068201D01*
X5626399D01*
Y12093601D01*
X5651799D01*
Y12144401D01*
X5626399D01*
Y12169801D01*
X5575599D01*
Y12144401D01*
X5550199D01*
Y12093601D01*
X5575599D01*
X5711599D02*
Y12068201D01*
X5762399D01*
Y12093601D01*
X5787799D01*
Y12144401D01*
X5762399D01*
Y12169801D01*
X5711599D01*
Y12144401D01*
X5686199D01*
Y12093601D01*
X5711599D01*
X5838599D02*
Y12068201D01*
X5889399D01*
Y12093601D01*
X5914799D01*
Y12144401D01*
X5889399D01*
Y12169801D01*
X5838599D01*
Y12144401D01*
X5813199D01*
Y12093601D01*
X5838599D01*
X6219599D02*
Y12068201D01*
X6270399D01*
Y12093601D01*
X6295799D01*
Y12144401D01*
X6270399D01*
Y12169801D01*
X6219599D01*
Y12144401D01*
X6194199D01*
Y12093601D01*
X6219599D01*
X6346600D02*
Y12068201D01*
X6397400D01*
Y12093601D01*
X6422800D01*
Y12144401D01*
X6397400D01*
Y12169801D01*
X6346600D01*
Y12144401D01*
X6321200D01*
Y12093601D01*
X6346600D01*
X6473600D02*
Y12068201D01*
X6524400D01*
Y12093601D01*
X6549800D01*
Y12144401D01*
X6524400D01*
Y12169801D01*
X6473600D01*
Y12144401D01*
X6448200D01*
Y12093601D01*
X6473600D01*
X6600600D02*
Y12068201D01*
X6651400D01*
Y12093601D01*
X6676800D01*
Y12144401D01*
X6651400D01*
Y12169801D01*
X6600600D01*
Y12144401D01*
X6575200D01*
Y12093601D01*
X6600600D01*
X6854599D02*
Y12068201D01*
X6905399D01*
Y12093601D01*
X6930799D01*
Y12144401D01*
X6905399D01*
Y12169801D01*
X6854599D01*
Y12144401D01*
X6829199D01*
Y12093601D01*
X6854599D01*
X6981600D02*
Y12068201D01*
X7032400D01*
Y12093601D01*
X7057800D01*
Y12144401D01*
X7032400D01*
Y12169801D01*
X6981600D01*
Y12144401D01*
X6956200D01*
Y12093601D01*
X6981600D01*
X4822599Y12414601D02*
Y12389201D01*
X4873399D01*
Y12414601D01*
X4898799D01*
Y12465401D01*
X4873399D01*
Y12490801D01*
X4822599D01*
Y12465401D01*
X4797199D01*
Y12414601D01*
X4822599D01*
X4949599D02*
Y12389201D01*
X5000399D01*
Y12414601D01*
X5025799D01*
Y12465401D01*
X5000399D01*
Y12490801D01*
X4949599D01*
Y12465401D01*
X4924199D01*
Y12414601D01*
X4949599D01*
X7045099Y12785101D02*
Y12759701D01*
X7095899D01*
Y12785101D01*
X7121299D01*
Y12835901D01*
X7095899D01*
Y12861301D01*
X7045099D01*
Y12835901D01*
X7019699D01*
Y12785101D01*
X7045099D01*
X6918099D02*
Y12759701D01*
X6968899D01*
Y12785101D01*
X6994299D01*
Y12835901D01*
X6968899D01*
Y12861301D01*
X6918099D01*
Y12835901D01*
X6892699D01*
Y12785101D01*
X6918099D01*
X6854599Y12414601D02*
Y12389201D01*
X6905399D01*
Y12414601D01*
X6930799D01*
Y12465401D01*
X6905399D01*
Y12490801D01*
X6854599D01*
Y12465401D01*
X6829199D01*
Y12414601D01*
X6854599D01*
X6791099Y12785101D02*
Y12759701D01*
X6841899D01*
Y12785101D01*
X6867299D01*
Y12835901D01*
X6841899D01*
Y12861301D01*
X6791099D01*
Y12835901D01*
X6765699D01*
Y12785101D01*
X6791099D01*
X6664099D02*
Y12759701D01*
X6714899D01*
Y12785101D01*
X6740299D01*
Y12835901D01*
X6714899D01*
Y12861301D01*
X6664099D01*
Y12835901D01*
X6638699D01*
Y12785101D01*
X6664099D01*
X6727600Y12414601D02*
Y12389201D01*
X6778400D01*
Y12414601D01*
X6803800D01*
Y12465401D01*
X6778400D01*
Y12490801D01*
X6727600D01*
Y12465401D01*
X6702200D01*
Y12414601D01*
X6727600D01*
X6219599D02*
Y12389201D01*
X6270399D01*
Y12414601D01*
X6295799D01*
Y12465401D01*
X6270399D01*
Y12490801D01*
X6219599D01*
Y12465401D01*
X6194199D01*
Y12414601D01*
X6219599D01*
X6092600D02*
Y12389201D01*
X6143400D01*
Y12414601D01*
X6168800D01*
Y12465401D01*
X6143400D01*
Y12490801D01*
X6092600D01*
Y12465401D01*
X6067200D01*
Y12414601D01*
X6092600D01*
X5838599D02*
Y12389201D01*
X5889399D01*
Y12414601D01*
X5914799D01*
Y12465401D01*
X5889399D01*
Y12490801D01*
X5838599D01*
Y12465401D01*
X5813199D01*
Y12414601D01*
X5838599D01*
X5711599D02*
Y12389201D01*
X5762399D01*
Y12414601D01*
X5787799D01*
Y12465401D01*
X5762399D01*
Y12490801D01*
X5711599D01*
Y12465401D01*
X5686199D01*
Y12414601D01*
X5711599D01*
X5575599D02*
Y12389201D01*
X5626399D01*
Y12414601D01*
X5651799D01*
Y12465401D01*
X5626399D01*
Y12490801D01*
X5575599D01*
Y12465401D01*
X5550199D01*
Y12414601D01*
X5575599D01*
X5775099Y12785101D02*
Y12759701D01*
X5825899D01*
Y12785101D01*
X5851299D01*
Y12835901D01*
X5825899D01*
Y12861301D01*
X5775099D01*
Y12835901D01*
X5749699D01*
Y12785101D01*
X5775099D01*
X4759099D02*
Y12759701D01*
X4809899D01*
Y12785101D01*
X4835299D01*
Y12835901D01*
X4809899D01*
Y12861301D01*
X4759099D01*
Y12835901D01*
X4733699D01*
Y12785101D01*
X4759099D01*
X4378101D02*
Y12759701D01*
X4428901D01*
Y12785101D01*
X4454301D01*
Y12835901D01*
X4428901D01*
Y12861301D01*
X4378101D01*
Y12835901D01*
X4352701D01*
Y12785101D01*
X4378101D01*
X4314599Y12414601D02*
Y12389201D01*
X4365399D01*
Y12414601D01*
X4390799D01*
Y12465401D01*
X4365399D01*
Y12490801D01*
X4314599D01*
Y12465401D01*
X4289199D01*
Y12414601D01*
X4314599D01*
X4251099Y12785101D02*
Y12759701D01*
X4301899D01*
Y12785101D01*
X4327299D01*
Y12835901D01*
X4301899D01*
Y12861301D01*
X4251099D01*
Y12835901D01*
X4225699D01*
Y12785101D01*
X4251099D01*
X4124099D02*
Y12759701D01*
X4174899D01*
Y12785101D01*
X4200299D01*
Y12835901D01*
X4174899D01*
Y12861301D01*
X4124099D01*
Y12835901D01*
X4098699D01*
Y12785101D01*
X4124099D01*
X3870099D02*
Y12759701D01*
X3920899D01*
Y12785101D01*
X3946299D01*
Y12835901D01*
X3920899D01*
Y12861301D01*
X3870099D01*
Y12835901D01*
X3844699D01*
Y12785101D01*
X3870099D01*
X3743099D02*
Y12759701D01*
X3793899D01*
Y12785101D01*
X3819299D01*
Y12835901D01*
X3793899D01*
Y12861301D01*
X3743099D01*
Y12835901D01*
X3717699D01*
Y12785101D01*
X3743099D01*
X5203599Y12414601D02*
Y12389201D01*
X5254399D01*
Y12414601D01*
X5279799D01*
Y12465401D01*
X5254399D01*
Y12490801D01*
X5203599D01*
Y12465401D01*
X5178199D01*
Y12414601D01*
X5203599D01*
X5076599D02*
Y12389201D01*
X5127399D01*
Y12414601D01*
X5152799D01*
Y12465401D01*
X5127399D01*
Y12490801D01*
X5076599D01*
Y12465401D01*
X5051199D01*
Y12414601D01*
X5076599D01*
X4695599D02*
Y12389201D01*
X4746399D01*
Y12414601D01*
X4771799D01*
Y12465401D01*
X4746399D01*
Y12490801D01*
X4695599D01*
Y12465401D01*
X4670199D01*
Y12414601D01*
X4695599D01*
X4568599D02*
Y12389201D01*
X4619399D01*
Y12414601D01*
X4644799D01*
Y12465401D01*
X4619399D01*
Y12490801D01*
X4568599D01*
Y12465401D01*
X4543199D01*
Y12414601D01*
X4568599D01*
X4441599D02*
Y12389201D01*
X4492399D01*
Y12414601D01*
X4517799D01*
Y12465401D01*
X4492399D01*
Y12490801D01*
X4441599D01*
Y12465401D01*
X4416199D01*
Y12414601D01*
X4441599D01*
X4187599D02*
Y12389201D01*
X4238399D01*
Y12414601D01*
X4263799D01*
Y12465401D01*
X4238399D01*
Y12490801D01*
X4187599D01*
Y12465401D01*
X4162199D01*
Y12414601D01*
X4187599D01*
X4060599D02*
Y12389201D01*
X4111399D01*
Y12414601D01*
X4136799D01*
Y12465401D01*
X4111399D01*
Y12490801D01*
X4060599D01*
Y12465401D01*
X4035199D01*
Y12414601D01*
X4060599D01*
X3933599D02*
Y12389201D01*
X3984399D01*
Y12414601D01*
X4009799D01*
Y12465401D01*
X3984399D01*
Y12490801D01*
X3933599D01*
Y12465401D01*
X3908199D01*
Y12414601D01*
X3933599D01*
X3806599D02*
Y12389201D01*
X3857399D01*
Y12414601D01*
X3882799D01*
Y12465401D01*
X3857399D01*
Y12490801D01*
X3806599D01*
Y12465401D01*
X3781199D01*
Y12414601D01*
X3806599D01*
X3235099Y12785101D02*
Y12759701D01*
X3285899D01*
Y12785101D01*
X3311299D01*
Y12835901D01*
X3285899D01*
Y12861301D01*
X3235099D01*
Y12835901D01*
X3209699D01*
Y12785101D01*
X3235099D01*
X3108099D02*
Y12759701D01*
X3158899D01*
Y12785101D01*
X3184299D01*
Y12835901D01*
X3158899D01*
Y12861301D01*
X3108099D01*
Y12835901D01*
X3082699D01*
Y12785101D01*
X3108099D01*
X3171599Y12414601D02*
Y12389201D01*
X3222399D01*
Y12414601D01*
X3247799D01*
Y12465401D01*
X3222399D01*
Y12490801D01*
X3171599D01*
Y12465401D01*
X3146199D01*
Y12414601D01*
X3171599D01*
X3425599D02*
Y12389201D01*
X3476399D01*
Y12414601D01*
X3501799D01*
Y12465401D01*
X3476399D01*
Y12490801D01*
X3425599D01*
Y12465401D01*
X3400199D01*
Y12414601D01*
X3425599D01*
X3616099Y12785101D02*
Y12759701D01*
X3666899D01*
Y12785101D01*
X3692299D01*
Y12835901D01*
X3666899D01*
Y12861301D01*
X3616099D01*
Y12835901D01*
X3590699D01*
Y12785101D01*
X3616099D01*
X7172099D02*
Y12759701D01*
X7222899D01*
Y12785101D01*
X7248299D01*
Y12835901D01*
X7222899D01*
Y12861301D01*
X7172099D01*
Y12835901D01*
X7146699D01*
Y12785101D01*
X7172099D01*
X6537099D02*
Y12759701D01*
X6587899D01*
Y12785101D01*
X6613299D01*
Y12835901D01*
X6587899D01*
Y12861301D01*
X6537099D01*
Y12835901D01*
X6511699D01*
Y12785101D01*
X6537099D01*
X6283099D02*
Y12759701D01*
X6333899D01*
Y12785101D01*
X6359299D01*
Y12835901D01*
X6333899D01*
Y12861301D01*
X6283099D01*
Y12835901D01*
X6257699D01*
Y12785101D01*
X6283099D01*
X6029099D02*
Y12759701D01*
X6079899D01*
Y12785101D01*
X6105299D01*
Y12835901D01*
X6079899D01*
Y12861301D01*
X6029099D01*
Y12835901D01*
X6003699D01*
Y12785101D01*
X6029099D01*
X5648099D02*
Y12759701D01*
X5698899D01*
Y12785101D01*
X5724299D01*
Y12835901D01*
X5698899D01*
Y12861301D01*
X5648099D01*
Y12835901D01*
X5622699D01*
Y12785101D01*
X5648099D01*
X5394099D02*
Y12759701D01*
X5444899D01*
Y12785101D01*
X5470299D01*
Y12835901D01*
X5444899D01*
Y12861301D01*
X5394099D01*
Y12835901D01*
X5368699D01*
Y12785101D01*
X5394099D01*
X5267099D02*
Y12759701D01*
X5317899D01*
Y12785101D01*
X5343299D01*
Y12835901D01*
X5317899D01*
Y12861301D01*
X5267099D01*
Y12835901D01*
X5241699D01*
Y12785101D01*
X5267099D01*
X5013099D02*
Y12759701D01*
X5063899D01*
Y12785101D01*
X5089299D01*
Y12835901D01*
X5063899D01*
Y12861301D01*
X5013099D01*
Y12835901D01*
X4987699D01*
Y12785101D01*
X5013099D01*
X3997099D02*
Y12759701D01*
X4047899D01*
Y12785101D01*
X4073299D01*
Y12835901D01*
X4047899D01*
Y12861301D01*
X3997099D01*
Y12835901D01*
X3971699D01*
Y12785101D01*
X3997099D01*
X3489099D02*
Y12759701D01*
X3539899D01*
Y12785101D01*
X3565299D01*
Y12835901D01*
X3539899D01*
Y12861301D01*
X3489099D01*
Y12835901D01*
X3463699D01*
Y12785101D01*
X3489099D01*
X7273701Y12423702D02*
X7299101Y12474502D01*
X7273701Y12525302D01*
X7324501Y12499902D01*
X7375301Y12525302D01*
X7349901Y12474502D01*
X7375301Y12423702D01*
X7324501Y12449102D01*
X7273701Y12423702D01*
X2981099Y12785101D02*
Y12759701D01*
X3031899D01*
Y12785101D01*
X3057299D01*
Y12835901D01*
X3031899D01*
Y12861301D01*
X2981099D01*
Y12835901D01*
X2955699D01*
Y12785101D01*
X2981099D01*
X2917599Y12414601D02*
Y12389201D01*
X2968399D01*
Y12414601D01*
X2993799D01*
Y12465401D01*
X2968399D01*
Y12490801D01*
X2917599D01*
Y12465401D01*
X2892199D01*
Y12414601D01*
X2917599D01*
X3679599D02*
Y12389201D01*
X3730399D01*
Y12414601D01*
X3755799D01*
Y12465401D01*
X3730399D01*
Y12490801D01*
X3679599D01*
Y12465401D01*
X3654199D01*
Y12414601D01*
X3679599D01*
X5965599D02*
Y12389201D01*
X6016399D01*
Y12414601D01*
X6041799D01*
Y12465401D01*
X6016399D01*
Y12490801D01*
X5965599D01*
Y12465401D01*
X5940199D01*
Y12414601D01*
X5965599D01*
X2854099Y12785100D02*
Y12759700D01*
X2904899D01*
Y12785100D01*
X2930299D01*
Y12835899D01*
X2904899D01*
Y12861301D01*
X2854099D01*
Y12835899D01*
X2828699D01*
Y12785100D01*
X2854099D01*
X2701701Y12419201D02*
X2727101Y12470001D01*
X2701701Y12520801D01*
X2752501Y12495401D01*
X2803301Y12520801D01*
X2777901Y12470001D01*
X2803301Y12419201D01*
X2752501Y12444601D01*
X2701701Y12419201D01*
X2574701D02*
X2600101Y12470001D01*
X2574701Y12520801D01*
X2625501Y12495401D01*
X2676301Y12520801D01*
X2650901Y12470001D01*
X2676301Y12419201D01*
X2625501Y12444601D01*
X2574701Y12419201D01*
X3425599Y12093601D02*
Y12068201D01*
X3476399D01*
Y12093601D01*
X3501799D01*
Y12144401D01*
X3476399D01*
Y12169801D01*
X3425599D01*
Y12144401D01*
X3400199D01*
Y12093601D01*
X3425599D01*
X3171599D02*
Y12068201D01*
X3222399D01*
Y12093601D01*
X3247799D01*
Y12144401D01*
X3222399D01*
Y12169801D01*
X3171599D01*
Y12144401D01*
X3146199D01*
Y12093601D01*
X3171599D01*
X2917599D02*
Y12068201D01*
X2968399D01*
Y12093601D01*
X2993799D01*
Y12144401D01*
X2968399D01*
Y12169801D01*
X2917599D01*
Y12144401D01*
X2892199D01*
Y12093601D01*
X2917599D01*
X2981099Y12485101D02*
Y12459701D01*
X3031899D01*
Y12485101D01*
X3057299D01*
Y12535901D01*
X3031899D01*
Y12561301D01*
X2981099D01*
Y12535901D01*
X2955699D01*
Y12485101D01*
X2981099D01*
X4632099Y12785101D02*
Y12759701D01*
X4682899D01*
Y12785101D01*
X4708299D01*
Y12835901D01*
X4682899D01*
Y12861301D01*
X4632099D01*
Y12835901D01*
X4606699D01*
Y12785101D01*
X4632099D01*
X6346600Y12414601D02*
Y12389201D01*
X6397400D01*
Y12414601D01*
X6422800D01*
Y12465401D01*
X6397400D01*
Y12490801D01*
X6346600D01*
Y12465401D01*
X6321200D01*
Y12414601D01*
X6346600D01*
X6473600D02*
Y12389201D01*
X6524400D01*
Y12414601D01*
X6549800D01*
Y12465401D01*
X6524400D01*
Y12490801D01*
X6473600D01*
Y12465401D01*
X6448200D01*
Y12414601D01*
X6473600D01*
X6600600D02*
Y12389201D01*
X6651400D01*
Y12414601D01*
X6676800D01*
Y12465401D01*
X6651400D01*
Y12490801D01*
X6600600D01*
Y12465401D01*
X6575200D01*
Y12414601D01*
X6600600D01*
X6981600D02*
Y12389201D01*
X7032400D01*
Y12414601D01*
X7057800D01*
Y12465401D01*
X7032400D01*
Y12490801D01*
X6981600D01*
Y12465401D01*
X6956200D01*
Y12414601D01*
X6981600D01*
X7172099Y12485101D02*
Y12459701D01*
X7222899D01*
Y12485101D01*
X7248299D01*
Y12535901D01*
X7222899D01*
Y12561301D01*
X7172099D01*
Y12535901D01*
X7146699D01*
Y12485101D01*
X7172099D01*
X7045099D02*
Y12459701D01*
X7095899D01*
Y12485101D01*
X7121299D01*
Y12535901D01*
X7095899D01*
Y12561301D01*
X7045099D01*
Y12535901D01*
X7019699D01*
Y12485101D01*
X7045099D01*
X6918099D02*
Y12459701D01*
X6968899D01*
Y12485101D01*
X6994299D01*
Y12535901D01*
X6968899D01*
Y12561301D01*
X6918099D01*
Y12535901D01*
X6892699D01*
Y12485101D01*
X6918099D01*
X6791099D02*
Y12459701D01*
X6841899D01*
Y12485101D01*
X6867299D01*
Y12535901D01*
X6841899D01*
Y12561301D01*
X6791099D01*
Y12535901D01*
X6765699D01*
Y12485101D01*
X6791099D01*
X6727600Y12093601D02*
Y12068201D01*
X6778400D01*
Y12093601D01*
X6803800D01*
Y12144401D01*
X6778400D01*
Y12169801D01*
X6727600D01*
Y12144401D01*
X6702200D01*
Y12093601D01*
X6727600D01*
X6664099Y12485101D02*
Y12459701D01*
X6714899D01*
Y12485101D01*
X6740299D01*
Y12535901D01*
X6714899D01*
Y12561301D01*
X6664099D01*
Y12535901D01*
X6638699D01*
Y12485101D01*
X6664099D01*
X6537099D02*
Y12459701D01*
X6587899D01*
Y12485101D01*
X6613299D01*
Y12535901D01*
X6587899D01*
Y12561301D01*
X6537099D01*
Y12535901D01*
X6511699D01*
Y12485101D01*
X6537099D01*
X6092600Y12093601D02*
Y12068201D01*
X6143400D01*
Y12093601D01*
X6168800D01*
Y12144401D01*
X6143400D01*
Y12169801D01*
X6092600D01*
Y12144401D01*
X6067200D01*
Y12093601D01*
X6092600D01*
X6283099Y12485101D02*
Y12459701D01*
X6333899D01*
Y12485101D01*
X6359299D01*
Y12535901D01*
X6333899D01*
Y12561301D01*
X6283099D01*
Y12535901D01*
X6257699D01*
Y12485101D01*
X6283099D01*
X6029099D02*
Y12459701D01*
X6079899D01*
Y12485101D01*
X6105299D01*
Y12535901D01*
X6079899D01*
Y12561301D01*
X6029099D01*
Y12535901D01*
X6003699D01*
Y12485101D01*
X6029099D01*
X5775099D02*
Y12459701D01*
X5825899D01*
Y12485101D01*
X5851299D01*
Y12535901D01*
X5825899D01*
Y12561301D01*
X5775099D01*
Y12535901D01*
X5749699D01*
Y12485101D01*
X5775099D01*
X5648099D02*
Y12459701D01*
X5698899D01*
Y12485101D01*
X5724299D01*
Y12535901D01*
X5698899D01*
Y12561301D01*
X5648099D01*
Y12535901D01*
X5622699D01*
Y12485101D01*
X5648099D01*
X5394099D02*
Y12459701D01*
X5444899D01*
Y12485101D01*
X5470299D01*
Y12535901D01*
X5444899D01*
Y12561301D01*
X5394099D01*
Y12535901D01*
X5368699D01*
Y12485101D01*
X5394099D01*
X5267099D02*
Y12459701D01*
X5317899D01*
Y12485101D01*
X5343299D01*
Y12535901D01*
X5317899D01*
Y12561301D01*
X5267099D01*
Y12535901D01*
X5241699D01*
Y12485101D01*
X5267099D01*
X5076599Y12093601D02*
Y12068201D01*
X5127399D01*
Y12093601D01*
X5152799D01*
Y12144401D01*
X5127399D01*
Y12169801D01*
X5076599D01*
Y12144401D01*
X5051199D01*
Y12093601D01*
X5076599D01*
X5013099Y12485101D02*
Y12459701D01*
X5063899D01*
Y12485101D01*
X5089299D01*
Y12535901D01*
X5063899D01*
Y12561301D01*
X5013099D01*
Y12535901D01*
X4987699D01*
Y12485101D01*
X5013099D01*
X4949599Y12093601D02*
Y12068201D01*
X5000399D01*
Y12093601D01*
X5025799D01*
Y12144401D01*
X5000399D01*
Y12169801D01*
X4949599D01*
Y12144401D01*
X4924199D01*
Y12093601D01*
X4949599D01*
X4759099Y12485101D02*
Y12459701D01*
X4809899D01*
Y12485101D01*
X4835299D01*
Y12535901D01*
X4809899D01*
Y12561301D01*
X4759099D01*
Y12535901D01*
X4733699D01*
Y12485101D01*
X4759099D01*
X4441599Y12093601D02*
Y12068201D01*
X4492399D01*
Y12093601D01*
X4517799D01*
Y12144401D01*
X4492399D01*
Y12169801D01*
X4441599D01*
Y12144401D01*
X4416199D01*
Y12093601D01*
X4441599D01*
X4378101Y12485101D02*
Y12459701D01*
X4428901D01*
Y12485101D01*
X4454301D01*
Y12535901D01*
X4428901D01*
Y12561301D01*
X4378101D01*
Y12535901D01*
X4352701D01*
Y12485101D01*
X4378101D01*
X4251099D02*
Y12459701D01*
X4301899D01*
Y12485101D01*
X4327299D01*
Y12535901D01*
X4301899D01*
Y12561301D01*
X4251099D01*
Y12535901D01*
X4225699D01*
Y12485101D01*
X4251099D01*
X4124099D02*
Y12459701D01*
X4174899D01*
Y12485101D01*
X4200299D01*
Y12535901D01*
X4174899D01*
Y12561301D01*
X4124099D01*
Y12535901D01*
X4098699D01*
Y12485101D01*
X4124099D01*
X3997099D02*
Y12459701D01*
X4047899D01*
Y12485101D01*
X4073299D01*
Y12535901D01*
X4047899D01*
Y12561301D01*
X3997099D01*
Y12535901D01*
X3971699D01*
Y12485101D01*
X3997099D01*
X3870099D02*
Y12459701D01*
X3920899D01*
Y12485101D01*
X3946299D01*
Y12535901D01*
X3920899D01*
Y12561301D01*
X3870099D01*
Y12535901D01*
X3844699D01*
Y12485101D01*
X3870099D01*
X3743099D02*
Y12459701D01*
X3793899D01*
Y12485101D01*
X3819299D01*
Y12535901D01*
X3793899D01*
Y12561301D01*
X3743099D01*
Y12535901D01*
X3717699D01*
Y12485101D01*
X3743099D01*
X3679599Y12093601D02*
Y12068201D01*
X3730399D01*
Y12093601D01*
X3755799D01*
Y12144401D01*
X3730399D01*
Y12169801D01*
X3679599D01*
Y12144401D01*
X3654199D01*
Y12093601D01*
X3679599D01*
X3235099Y12485101D02*
Y12459701D01*
X3285899D01*
Y12485101D01*
X3311299D01*
Y12535901D01*
X3285899D01*
Y12561301D01*
X3235099D01*
Y12535901D01*
X3209699D01*
Y12485101D01*
X3235099D01*
X3616099D02*
Y12459701D01*
X3666899D01*
Y12485101D01*
X3692299D01*
Y12535901D01*
X3666899D01*
Y12561301D01*
X3616099D01*
Y12535901D01*
X3590699D01*
Y12485101D01*
X3616099D01*
X3489099D02*
Y12459701D01*
X3539899D01*
Y12485101D01*
X3565299D01*
Y12535901D01*
X3539899D01*
Y12561301D01*
X3489099D01*
Y12535901D01*
X3463699D01*
Y12485101D01*
X3489099D01*
X4886099Y12785101D02*
Y12759701D01*
X4936899D01*
Y12785101D01*
X4962299D01*
Y12835901D01*
X4936899D01*
Y12861301D01*
X4886099D01*
Y12835901D01*
X4860699D01*
Y12785101D01*
X4886099D01*
X6410100D02*
Y12759701D01*
X6460900D01*
Y12785101D01*
X6486300D01*
Y12835901D01*
X6460900D01*
Y12861301D01*
X6410100D01*
Y12835901D01*
X6384700D01*
Y12785101D01*
X6410100D01*
X5902099D02*
Y12759701D01*
X5952899D01*
Y12785101D01*
X5978299D01*
Y12835901D01*
X5952899D01*
Y12861301D01*
X5902099D01*
Y12835901D01*
X5876699D01*
Y12785101D01*
X5902099D01*
X7108599Y12414601D02*
Y12389201D01*
X7159399D01*
Y12414601D01*
X7184799D01*
Y12465401D01*
X7159399D01*
Y12490801D01*
X7108599D01*
Y12465401D01*
X7083199D01*
Y12414601D01*
X7108599D01*
X5140099Y12785101D02*
Y12759701D01*
X5190899D01*
Y12785101D01*
X5216299D01*
Y12835901D01*
X5190899D01*
Y12861301D01*
X5140099D01*
Y12835901D01*
X5114699D01*
Y12785101D01*
X5140099D01*
X4505099D02*
Y12759701D01*
X4555899D01*
Y12785101D01*
X4581299D01*
Y12835901D01*
X4555899D01*
Y12861301D01*
X4505099D01*
Y12835901D01*
X4479699D01*
Y12785101D01*
X4505099D01*
X3362099Y12374476D02*
Y12349076D01*
X3412899D01*
Y12374476D01*
X3438299D01*
Y12425276D01*
X3412899D01*
Y12450676D01*
X3362099D01*
Y12425276D01*
X3336699D01*
Y12374476D01*
X3362099D01*
Y12785101D02*
Y12759701D01*
X3412899D01*
Y12785101D01*
X3438299D01*
Y12835901D01*
X3412899D01*
Y12861301D01*
X3362099D01*
Y12835901D01*
X3336699D01*
Y12785101D01*
X3362099D01*
X3108099Y12374476D02*
Y12349076D01*
X3158899D01*
Y12374476D01*
X3184299D01*
Y12425276D01*
X3158899D01*
Y12450676D01*
X3108099D01*
Y12425276D01*
X3082699D01*
Y12374476D01*
X3108099D01*
X2854101D02*
Y12349076D01*
X2904901D01*
Y12374476D01*
X2930301D01*
Y12425276D01*
X2904901D01*
Y12450676D01*
X2854101D01*
Y12425276D01*
X2828701D01*
Y12374476D01*
X2854101D01*
X3616099Y12374501D02*
Y12349101D01*
X3666899D01*
Y12374501D01*
X3692299D01*
Y12425301D01*
X3666899D01*
Y12450701D01*
X3616099D01*
Y12425301D01*
X3590699D01*
Y12374501D01*
X3616099D01*
X6156099Y12785101D02*
Y12759701D01*
X6206899D01*
Y12785101D01*
X6232299D01*
Y12835901D01*
X6206899D01*
Y12861301D01*
X6156099D01*
Y12835901D01*
X6130699D01*
Y12785101D01*
X6156099D01*
X3806599Y10383601D02*
Y10358201D01*
X3857399D01*
Y10383601D01*
X3882799D01*
Y10434401D01*
X3857399D01*
Y10459801D01*
X3806599D01*
Y10434401D01*
X3781199D01*
Y10383601D01*
X3806599D01*
X3933599D02*
Y10358201D01*
X3984399D01*
Y10383601D01*
X4009799D01*
Y10434401D01*
X3984399D01*
Y10459801D01*
X3933599D01*
Y10434401D01*
X3908199D01*
Y10383601D01*
X3933599D01*
X4060599D02*
Y10358201D01*
X4111399D01*
Y10383601D01*
X4136799D01*
Y10434401D01*
X4111399D01*
Y10459801D01*
X4060599D01*
Y10434401D01*
X4035199D01*
Y10383601D01*
X4060599D01*
X4187599D02*
Y10358201D01*
X4238399D01*
Y10383601D01*
X4263799D01*
Y10434401D01*
X4238399D01*
Y10459801D01*
X4187599D01*
Y10434401D01*
X4162199D01*
Y10383601D01*
X4187599D01*
X4314599D02*
Y10358201D01*
X4365399D01*
Y10383601D01*
X4390799D01*
Y10434401D01*
X4365399D01*
Y10459801D01*
X4314599D01*
Y10434401D01*
X4289199D01*
Y10383601D01*
X4314599D01*
X4568599D02*
Y10358201D01*
X4619399D01*
Y10383601D01*
X4644799D01*
Y10434401D01*
X4619399D01*
Y10459801D01*
X4568599D01*
Y10434401D01*
X4543199D01*
Y10383601D01*
X4568599D01*
X4695599D02*
Y10358201D01*
X4746399D01*
Y10383601D01*
X4771799D01*
Y10434401D01*
X4746399D01*
Y10459801D01*
X4695599D01*
Y10434401D01*
X4670199D01*
Y10383601D01*
X4695599D01*
X4822599D02*
Y10358201D01*
X4873399D01*
Y10383601D01*
X4898799D01*
Y10434401D01*
X4873399D01*
Y10459801D01*
X4822599D01*
Y10434401D01*
X4797199D01*
Y10383601D01*
X4822599D01*
X5203599D02*
Y10358201D01*
X5254399D01*
Y10383601D01*
X5279799D01*
Y10434401D01*
X5254399D01*
Y10459801D01*
X5203599D01*
Y10434401D01*
X5178199D01*
Y10383601D01*
X5203599D01*
X5329376D02*
Y10358201D01*
X5380176D01*
Y10383601D01*
X5405576D01*
Y10434401D01*
X5380176D01*
Y10459801D01*
X5329376D01*
Y10434401D01*
X5303976D01*
Y10383601D01*
X5329376D01*
X5575599D02*
Y10358201D01*
X5626399D01*
Y10383601D01*
X5651799D01*
Y10434401D01*
X5626399D01*
Y10459801D01*
X5575599D01*
Y10434401D01*
X5550199D01*
Y10383601D01*
X5575599D01*
X5711599D02*
Y10358201D01*
X5762399D01*
Y10383601D01*
X5787799D01*
Y10434401D01*
X5762399D01*
Y10459801D01*
X5711599D01*
Y10434401D01*
X5686199D01*
Y10383601D01*
X5711599D01*
X5838599D02*
Y10358201D01*
X5889399D01*
Y10383601D01*
X5914799D01*
Y10434401D01*
X5889399D01*
Y10459801D01*
X5838599D01*
Y10434401D01*
X5813199D01*
Y10383601D01*
X5838599D01*
X6219599D02*
Y10358201D01*
X6270399D01*
Y10383601D01*
X6295799D01*
Y10434401D01*
X6270399D01*
Y10459801D01*
X6219599D01*
Y10434401D01*
X6194199D01*
Y10383601D01*
X6219599D01*
X6346600D02*
Y10358201D01*
X6397400D01*
Y10383601D01*
X6422800D01*
Y10434401D01*
X6397400D01*
Y10459801D01*
X6346600D01*
Y10434401D01*
X6321200D01*
Y10383601D01*
X6346600D01*
X6473600D02*
Y10358201D01*
X6524400D01*
Y10383601D01*
X6549800D01*
Y10434401D01*
X6524400D01*
Y10459801D01*
X6473600D01*
Y10434401D01*
X6448200D01*
Y10383601D01*
X6473600D01*
X6600600D02*
Y10358201D01*
X6651400D01*
Y10383601D01*
X6676800D01*
Y10434401D01*
X6651400D01*
Y10459801D01*
X6600600D01*
Y10434401D01*
X6575200D01*
Y10383601D01*
X6600600D01*
X6854599D02*
Y10358201D01*
X6905399D01*
Y10383601D01*
X6930799D01*
Y10434401D01*
X6905399D01*
Y10459801D01*
X6854599D01*
Y10434401D01*
X6829199D01*
Y10383601D01*
X6854599D01*
X6981600D02*
Y10358201D01*
X7032400D01*
Y10383601D01*
X7057800D01*
Y10434401D01*
X7032400D01*
Y10459801D01*
X6981600D01*
Y10434401D01*
X6956200D01*
Y10383601D01*
X6981600D01*
X4822599Y10704600D02*
Y10679200D01*
X4873399D01*
Y10704600D01*
X4898799D01*
Y10755400D01*
X4873399D01*
Y10780800D01*
X4822599D01*
Y10755400D01*
X4797199D01*
Y10704600D01*
X4822599D01*
X4949599D02*
Y10679200D01*
X5000399D01*
Y10704600D01*
X5025799D01*
Y10755400D01*
X5000399D01*
Y10780800D01*
X4949599D01*
Y10755400D01*
X4924199D01*
Y10704600D01*
X4949599D01*
X7045099Y11075101D02*
Y11049701D01*
X7095899D01*
Y11075101D01*
X7121299D01*
Y11125901D01*
X7095899D01*
Y11151301D01*
X7045099D01*
Y11125901D01*
X7019699D01*
Y11075101D01*
X7045099D01*
X6918099D02*
Y11049701D01*
X6968899D01*
Y11075101D01*
X6994299D01*
Y11125901D01*
X6968899D01*
Y11151301D01*
X6918099D01*
Y11125901D01*
X6892699D01*
Y11075101D01*
X6918099D01*
X6854599Y10704600D02*
Y10679200D01*
X6905399D01*
Y10704600D01*
X6930799D01*
Y10755400D01*
X6905399D01*
Y10780800D01*
X6854599D01*
Y10755400D01*
X6829199D01*
Y10704600D01*
X6854599D01*
X6791099Y11075101D02*
Y11049701D01*
X6841899D01*
Y11075101D01*
X6867299D01*
Y11125901D01*
X6841899D01*
Y11151301D01*
X6791099D01*
Y11125901D01*
X6765699D01*
Y11075101D01*
X6791099D01*
X6664099D02*
Y11049701D01*
X6714899D01*
Y11075101D01*
X6740299D01*
Y11125901D01*
X6714899D01*
Y11151301D01*
X6664099D01*
Y11125901D01*
X6638699D01*
Y11075101D01*
X6664099D01*
X6727600Y10704600D02*
Y10679200D01*
X6778400D01*
Y10704600D01*
X6803800D01*
Y10755400D01*
X6778400D01*
Y10780800D01*
X6727600D01*
Y10755400D01*
X6702200D01*
Y10704600D01*
X6727600D01*
X6219599D02*
Y10679200D01*
X6270399D01*
Y10704600D01*
X6295799D01*
Y10755400D01*
X6270399D01*
Y10780800D01*
X6219599D01*
Y10755400D01*
X6194199D01*
Y10704600D01*
X6219599D01*
X6092600D02*
Y10679200D01*
X6143400D01*
Y10704600D01*
X6168800D01*
Y10755400D01*
X6143400D01*
Y10780800D01*
X6092600D01*
Y10755400D01*
X6067200D01*
Y10704600D01*
X6092600D01*
X5838599D02*
Y10679200D01*
X5889399D01*
Y10704600D01*
X5914799D01*
Y10755400D01*
X5889399D01*
Y10780800D01*
X5838599D01*
Y10755400D01*
X5813199D01*
Y10704600D01*
X5838599D01*
X5711599D02*
Y10679200D01*
X5762399D01*
Y10704600D01*
X5787799D01*
Y10755400D01*
X5762399D01*
Y10780800D01*
X5711599D01*
Y10755400D01*
X5686199D01*
Y10704600D01*
X5711599D01*
X5575599D02*
Y10679200D01*
X5626399D01*
Y10704600D01*
X5651799D01*
Y10755400D01*
X5626399D01*
Y10780800D01*
X5575599D01*
Y10755400D01*
X5550199D01*
Y10704600D01*
X5575599D01*
X5775099Y11075101D02*
Y11049701D01*
X5825899D01*
Y11075101D01*
X5851299D01*
Y11125901D01*
X5825899D01*
Y11151301D01*
X5775099D01*
Y11125901D01*
X5749699D01*
Y11075101D01*
X5775099D01*
X4759099D02*
Y11049701D01*
X4809899D01*
Y11075101D01*
X4835299D01*
Y11125901D01*
X4809899D01*
Y11151301D01*
X4759099D01*
Y11125901D01*
X4733699D01*
Y11075101D01*
X4759099D01*
X4378101D02*
Y11049701D01*
X4428901D01*
Y11075101D01*
X4454301D01*
Y11125901D01*
X4428901D01*
Y11151301D01*
X4378101D01*
Y11125901D01*
X4352701D01*
Y11075101D01*
X4378101D01*
X4314599Y10704600D02*
Y10679200D01*
X4365399D01*
Y10704600D01*
X4390799D01*
Y10755400D01*
X4365399D01*
Y10780800D01*
X4314599D01*
Y10755400D01*
X4289199D01*
Y10704600D01*
X4314599D01*
X4251099Y11075101D02*
Y11049701D01*
X4301899D01*
Y11075101D01*
X4327299D01*
Y11125901D01*
X4301899D01*
Y11151301D01*
X4251099D01*
Y11125901D01*
X4225699D01*
Y11075101D01*
X4251099D01*
X4124099D02*
Y11049701D01*
X4174899D01*
Y11075101D01*
X4200299D01*
Y11125901D01*
X4174899D01*
Y11151301D01*
X4124099D01*
Y11125901D01*
X4098699D01*
Y11075101D01*
X4124099D01*
X3870099D02*
Y11049701D01*
X3920899D01*
Y11075101D01*
X3946299D01*
Y11125901D01*
X3920899D01*
Y11151301D01*
X3870099D01*
Y11125901D01*
X3844699D01*
Y11075101D01*
X3870099D01*
X3743099D02*
Y11049701D01*
X3793899D01*
Y11075101D01*
X3819299D01*
Y11125901D01*
X3793899D01*
Y11151301D01*
X3743099D01*
Y11125901D01*
X3717699D01*
Y11075101D01*
X3743099D01*
X5203599Y10704600D02*
Y10679200D01*
X5254399D01*
Y10704600D01*
X5279799D01*
Y10755400D01*
X5254399D01*
Y10780800D01*
X5203599D01*
Y10755400D01*
X5178199D01*
Y10704600D01*
X5203599D01*
X5076599D02*
Y10679200D01*
X5127399D01*
Y10704600D01*
X5152799D01*
Y10755400D01*
X5127399D01*
Y10780800D01*
X5076599D01*
Y10755400D01*
X5051199D01*
Y10704600D01*
X5076599D01*
X4695599D02*
Y10679200D01*
X4746399D01*
Y10704600D01*
X4771799D01*
Y10755400D01*
X4746399D01*
Y10780800D01*
X4695599D01*
Y10755400D01*
X4670199D01*
Y10704600D01*
X4695599D01*
X4568599D02*
Y10679200D01*
X4619399D01*
Y10704600D01*
X4644799D01*
Y10755400D01*
X4619399D01*
Y10780800D01*
X4568599D01*
Y10755400D01*
X4543199D01*
Y10704600D01*
X4568599D01*
X4441599D02*
Y10679200D01*
X4492399D01*
Y10704600D01*
X4517799D01*
Y10755400D01*
X4492399D01*
Y10780800D01*
X4441599D01*
Y10755400D01*
X4416199D01*
Y10704600D01*
X4441599D01*
X4187599D02*
Y10679200D01*
X4238399D01*
Y10704600D01*
X4263799D01*
Y10755400D01*
X4238399D01*
Y10780800D01*
X4187599D01*
Y10755400D01*
X4162199D01*
Y10704600D01*
X4187599D01*
X4060599D02*
Y10679200D01*
X4111399D01*
Y10704600D01*
X4136799D01*
Y10755400D01*
X4111399D01*
Y10780800D01*
X4060599D01*
Y10755400D01*
X4035199D01*
Y10704600D01*
X4060599D01*
X3933599D02*
Y10679200D01*
X3984399D01*
Y10704600D01*
X4009799D01*
Y10755400D01*
X3984399D01*
Y10780800D01*
X3933599D01*
Y10755400D01*
X3908199D01*
Y10704600D01*
X3933599D01*
X3806599D02*
Y10679200D01*
X3857399D01*
Y10704600D01*
X3882799D01*
Y10755400D01*
X3857399D01*
Y10780800D01*
X3806599D01*
Y10755400D01*
X3781199D01*
Y10704600D01*
X3806599D01*
X3235099Y11075101D02*
Y11049701D01*
X3285899D01*
Y11075101D01*
X3311299D01*
Y11125901D01*
X3285899D01*
Y11151301D01*
X3235099D01*
Y11125901D01*
X3209699D01*
Y11075101D01*
X3235099D01*
X3108099D02*
Y11049701D01*
X3158899D01*
Y11075101D01*
X3184299D01*
Y11125901D01*
X3158899D01*
Y11151301D01*
X3108099D01*
Y11125901D01*
X3082699D01*
Y11075101D01*
X3108099D01*
X3171599Y10704600D02*
Y10679200D01*
X3222399D01*
Y10704600D01*
X3247799D01*
Y10755400D01*
X3222399D01*
Y10780800D01*
X3171599D01*
Y10755400D01*
X3146199D01*
Y10704600D01*
X3171599D01*
X3425599D02*
Y10679200D01*
X3476399D01*
Y10704600D01*
X3501799D01*
Y10755400D01*
X3476399D01*
Y10780800D01*
X3425599D01*
Y10755400D01*
X3400199D01*
Y10704600D01*
X3425599D01*
X3616099Y11075101D02*
Y11049701D01*
X3666899D01*
Y11075101D01*
X3692299D01*
Y11125901D01*
X3666899D01*
Y11151301D01*
X3616099D01*
Y11125901D01*
X3590699D01*
Y11075101D01*
X3616099D01*
X7172099D02*
Y11049701D01*
X7222899D01*
Y11075101D01*
X7248299D01*
Y11125901D01*
X7222899D01*
Y11151301D01*
X7172099D01*
Y11125901D01*
X7146699D01*
Y11075101D01*
X7172099D01*
X6537099D02*
Y11049701D01*
X6587899D01*
Y11075101D01*
X6613299D01*
Y11125901D01*
X6587899D01*
Y11151301D01*
X6537099D01*
Y11125901D01*
X6511699D01*
Y11075101D01*
X6537099D01*
X6283099D02*
Y11049701D01*
X6333899D01*
Y11075101D01*
X6359299D01*
Y11125901D01*
X6333899D01*
Y11151301D01*
X6283099D01*
Y11125901D01*
X6257699D01*
Y11075101D01*
X6283099D01*
X6029099D02*
Y11049701D01*
X6079899D01*
Y11075101D01*
X6105299D01*
Y11125901D01*
X6079899D01*
Y11151301D01*
X6029099D01*
Y11125901D01*
X6003699D01*
Y11075101D01*
X6029099D01*
X5648099D02*
Y11049701D01*
X5698899D01*
Y11075101D01*
X5724299D01*
Y11125901D01*
X5698899D01*
Y11151301D01*
X5648099D01*
Y11125901D01*
X5622699D01*
Y11075101D01*
X5648099D01*
X5394099D02*
Y11049701D01*
X5444899D01*
Y11075101D01*
X5470299D01*
Y11125901D01*
X5444899D01*
Y11151301D01*
X5394099D01*
Y11125901D01*
X5368699D01*
Y11075101D01*
X5394099D01*
X5267099D02*
Y11049701D01*
X5317899D01*
Y11075101D01*
X5343299D01*
Y11125901D01*
X5317899D01*
Y11151301D01*
X5267099D01*
Y11125901D01*
X5241699D01*
Y11075101D01*
X5267099D01*
X5013099D02*
Y11049701D01*
X5063899D01*
Y11075101D01*
X5089299D01*
Y11125901D01*
X5063899D01*
Y11151301D01*
X5013099D01*
Y11125901D01*
X4987699D01*
Y11075101D01*
X5013099D01*
X3997099D02*
Y11049701D01*
X4047899D01*
Y11075101D01*
X4073299D01*
Y11125901D01*
X4047899D01*
Y11151301D01*
X3997099D01*
Y11125901D01*
X3971699D01*
Y11075101D01*
X3997099D01*
X3489099D02*
Y11049701D01*
X3539899D01*
Y11075101D01*
X3565299D01*
Y11125901D01*
X3539899D01*
Y11151301D01*
X3489099D01*
Y11125901D01*
X3463699D01*
Y11075101D01*
X3489099D01*
X7273701Y10713702D02*
X7299101Y10764502D01*
X7273701Y10815302D01*
X7324501Y10789902D01*
X7375301Y10815302D01*
X7349901Y10764502D01*
X7375301Y10713702D01*
X7324501Y10739102D01*
X7273701Y10713702D01*
X2981099Y11075101D02*
Y11049701D01*
X3031899D01*
Y11075101D01*
X3057299D01*
Y11125901D01*
X3031899D01*
Y11151301D01*
X2981099D01*
Y11125901D01*
X2955699D01*
Y11075101D01*
X2981099D01*
X2917599Y10704600D02*
Y10679200D01*
X2968399D01*
Y10704600D01*
X2993799D01*
Y10755400D01*
X2968399D01*
Y10780800D01*
X2917599D01*
Y10755400D01*
X2892199D01*
Y10704600D01*
X2917599D01*
X3679599D02*
Y10679200D01*
X3730399D01*
Y10704600D01*
X3755799D01*
Y10755400D01*
X3730399D01*
Y10780800D01*
X3679599D01*
Y10755400D01*
X3654199D01*
Y10704600D01*
X3679599D01*
X5965599D02*
Y10679200D01*
X6016399D01*
Y10704600D01*
X6041799D01*
Y10755400D01*
X6016399D01*
Y10780800D01*
X5965599D01*
Y10755400D01*
X5940199D01*
Y10704600D01*
X5965599D01*
X2854099Y11075100D02*
Y11049700D01*
X2904899D01*
Y11075100D01*
X2930299D01*
Y11125900D01*
X2904899D01*
Y11151300D01*
X2854099D01*
Y11125900D01*
X2828699D01*
Y11075100D01*
X2854099D01*
X2701701Y10709201D02*
X2727101Y10760001D01*
X2701701Y10810801D01*
X2752501Y10785401D01*
X2803301Y10810801D01*
X2777901Y10760001D01*
X2803301Y10709201D01*
X2752501Y10734601D01*
X2701701Y10709201D01*
X2574701D02*
X2600101Y10760001D01*
X2574701Y10810801D01*
X2625501Y10785401D01*
X2676301Y10810801D01*
X2650901Y10760001D01*
X2676301Y10709201D01*
X2625501Y10734601D01*
X2574701Y10709201D01*
X3425599Y10383601D02*
Y10358201D01*
X3476399D01*
Y10383601D01*
X3501799D01*
Y10434401D01*
X3476399D01*
Y10459801D01*
X3425599D01*
Y10434401D01*
X3400199D01*
Y10383601D01*
X3425599D01*
X3171599D02*
Y10358201D01*
X3222399D01*
Y10383601D01*
X3247799D01*
Y10434401D01*
X3222399D01*
Y10459801D01*
X3171599D01*
Y10434401D01*
X3146199D01*
Y10383601D01*
X3171599D01*
X2917599D02*
Y10358201D01*
X2968399D01*
Y10383601D01*
X2993799D01*
Y10434401D01*
X2968399D01*
Y10459801D01*
X2917599D01*
Y10434401D01*
X2892199D01*
Y10383601D01*
X2917599D01*
X2981099Y10775100D02*
Y10749700D01*
X3031899D01*
Y10775100D01*
X3057299D01*
Y10825900D01*
X3031899D01*
Y10851300D01*
X2981099D01*
Y10825900D01*
X2955699D01*
Y10775100D01*
X2981099D01*
X4632099Y11075101D02*
Y11049701D01*
X4682899D01*
Y11075101D01*
X4708299D01*
Y11125901D01*
X4682899D01*
Y11151301D01*
X4632099D01*
Y11125901D01*
X4606699D01*
Y11075101D01*
X4632099D01*
X6346600Y10704600D02*
Y10679200D01*
X6397400D01*
Y10704600D01*
X6422800D01*
Y10755400D01*
X6397400D01*
Y10780800D01*
X6346600D01*
Y10755400D01*
X6321200D01*
Y10704600D01*
X6346600D01*
X6473600D02*
Y10679200D01*
X6524400D01*
Y10704600D01*
X6549800D01*
Y10755400D01*
X6524400D01*
Y10780800D01*
X6473600D01*
Y10755400D01*
X6448200D01*
Y10704600D01*
X6473600D01*
X6600600D02*
Y10679200D01*
X6651400D01*
Y10704600D01*
X6676800D01*
Y10755400D01*
X6651400D01*
Y10780800D01*
X6600600D01*
Y10755400D01*
X6575200D01*
Y10704600D01*
X6600600D01*
X6981600D02*
Y10679200D01*
X7032400D01*
Y10704600D01*
X7057800D01*
Y10755400D01*
X7032400D01*
Y10780800D01*
X6981600D01*
Y10755400D01*
X6956200D01*
Y10704600D01*
X6981600D01*
X7172099Y10775100D02*
Y10749700D01*
X7222899D01*
Y10775100D01*
X7248299D01*
Y10825900D01*
X7222899D01*
Y10851300D01*
X7172099D01*
Y10825900D01*
X7146699D01*
Y10775100D01*
X7172099D01*
X7045099D02*
Y10749700D01*
X7095899D01*
Y10775100D01*
X7121299D01*
Y10825900D01*
X7095899D01*
Y10851300D01*
X7045099D01*
Y10825900D01*
X7019699D01*
Y10775100D01*
X7045099D01*
X6918099D02*
Y10749700D01*
X6968899D01*
Y10775100D01*
X6994299D01*
Y10825900D01*
X6968899D01*
Y10851300D01*
X6918099D01*
Y10825900D01*
X6892699D01*
Y10775100D01*
X6918099D01*
X6791099D02*
Y10749700D01*
X6841899D01*
Y10775100D01*
X6867299D01*
Y10825900D01*
X6841899D01*
Y10851300D01*
X6791099D01*
Y10825900D01*
X6765699D01*
Y10775100D01*
X6791099D01*
X6727600Y10383601D02*
Y10358201D01*
X6778400D01*
Y10383601D01*
X6803800D01*
Y10434401D01*
X6778400D01*
Y10459801D01*
X6727600D01*
Y10434401D01*
X6702200D01*
Y10383601D01*
X6727600D01*
X6664099Y10775100D02*
Y10749700D01*
X6714899D01*
Y10775100D01*
X6740299D01*
Y10825900D01*
X6714899D01*
Y10851300D01*
X6664099D01*
Y10825900D01*
X6638699D01*
Y10775100D01*
X6664099D01*
X6537099D02*
Y10749700D01*
X6587899D01*
Y10775100D01*
X6613299D01*
Y10825900D01*
X6587899D01*
Y10851300D01*
X6537099D01*
Y10825900D01*
X6511699D01*
Y10775100D01*
X6537099D01*
X6092600Y10383601D02*
Y10358201D01*
X6143400D01*
Y10383601D01*
X6168800D01*
Y10434401D01*
X6143400D01*
Y10459801D01*
X6092600D01*
Y10434401D01*
X6067200D01*
Y10383601D01*
X6092600D01*
X6283099Y10775100D02*
Y10749700D01*
X6333899D01*
Y10775100D01*
X6359299D01*
Y10825900D01*
X6333899D01*
Y10851300D01*
X6283099D01*
Y10825900D01*
X6257699D01*
Y10775100D01*
X6283099D01*
X6029099D02*
Y10749700D01*
X6079899D01*
Y10775100D01*
X6105299D01*
Y10825900D01*
X6079899D01*
Y10851300D01*
X6029099D01*
Y10825900D01*
X6003699D01*
Y10775100D01*
X6029099D01*
X5775099D02*
Y10749700D01*
X5825899D01*
Y10775100D01*
X5851299D01*
Y10825900D01*
X5825899D01*
Y10851300D01*
X5775099D01*
Y10825900D01*
X5749699D01*
Y10775100D01*
X5775099D01*
X5648099D02*
Y10749700D01*
X5698899D01*
Y10775100D01*
X5724299D01*
Y10825900D01*
X5698899D01*
Y10851300D01*
X5648099D01*
Y10825900D01*
X5622699D01*
Y10775100D01*
X5648099D01*
X5394099D02*
Y10749700D01*
X5444899D01*
Y10775100D01*
X5470299D01*
Y10825900D01*
X5444899D01*
Y10851300D01*
X5394099D01*
Y10825900D01*
X5368699D01*
Y10775100D01*
X5394099D01*
X5267099D02*
Y10749700D01*
X5317899D01*
Y10775100D01*
X5343299D01*
Y10825900D01*
X5317899D01*
Y10851300D01*
X5267099D01*
Y10825900D01*
X5241699D01*
Y10775100D01*
X5267099D01*
X5076599Y10383601D02*
Y10358201D01*
X5127399D01*
Y10383601D01*
X5152799D01*
Y10434401D01*
X5127399D01*
Y10459801D01*
X5076599D01*
Y10434401D01*
X5051199D01*
Y10383601D01*
X5076599D01*
X5013099Y10775100D02*
Y10749700D01*
X5063899D01*
Y10775100D01*
X5089299D01*
Y10825900D01*
X5063899D01*
Y10851300D01*
X5013099D01*
Y10825900D01*
X4987699D01*
Y10775100D01*
X5013099D01*
X4949599Y10383601D02*
Y10358201D01*
X5000399D01*
Y10383601D01*
X5025799D01*
Y10434401D01*
X5000399D01*
Y10459801D01*
X4949599D01*
Y10434401D01*
X4924199D01*
Y10383601D01*
X4949599D01*
X4759099Y10775100D02*
Y10749700D01*
X4809899D01*
Y10775100D01*
X4835299D01*
Y10825900D01*
X4809899D01*
Y10851300D01*
X4759099D01*
Y10825900D01*
X4733699D01*
Y10775100D01*
X4759099D01*
X4441599Y10383601D02*
Y10358201D01*
X4492399D01*
Y10383601D01*
X4517799D01*
Y10434401D01*
X4492399D01*
Y10459801D01*
X4441599D01*
Y10434401D01*
X4416199D01*
Y10383601D01*
X4441599D01*
X4378101Y10775100D02*
Y10749700D01*
X4428901D01*
Y10775100D01*
X4454301D01*
Y10825900D01*
X4428901D01*
Y10851300D01*
X4378101D01*
Y10825900D01*
X4352701D01*
Y10775100D01*
X4378101D01*
X4251099D02*
Y10749700D01*
X4301899D01*
Y10775100D01*
X4327299D01*
Y10825900D01*
X4301899D01*
Y10851300D01*
X4251099D01*
Y10825900D01*
X4225699D01*
Y10775100D01*
X4251099D01*
X4124099D02*
Y10749700D01*
X4174899D01*
Y10775100D01*
X4200299D01*
Y10825900D01*
X4174899D01*
Y10851300D01*
X4124099D01*
Y10825900D01*
X4098699D01*
Y10775100D01*
X4124099D01*
X3997099D02*
Y10749700D01*
X4047899D01*
Y10775100D01*
X4073299D01*
Y10825900D01*
X4047899D01*
Y10851300D01*
X3997099D01*
Y10825900D01*
X3971699D01*
Y10775100D01*
X3997099D01*
X3870099D02*
Y10749700D01*
X3920899D01*
Y10775100D01*
X3946299D01*
Y10825900D01*
X3920899D01*
Y10851300D01*
X3870099D01*
Y10825900D01*
X3844699D01*
Y10775100D01*
X3870099D01*
X3743099D02*
Y10749700D01*
X3793899D01*
Y10775100D01*
X3819299D01*
Y10825900D01*
X3793899D01*
Y10851300D01*
X3743099D01*
Y10825900D01*
X3717699D01*
Y10775100D01*
X3743099D01*
X3679599Y10383601D02*
Y10358201D01*
X3730399D01*
Y10383601D01*
X3755799D01*
Y10434401D01*
X3730399D01*
Y10459801D01*
X3679599D01*
Y10434401D01*
X3654199D01*
Y10383601D01*
X3679599D01*
X3235099Y10775100D02*
Y10749700D01*
X3285899D01*
Y10775100D01*
X3311299D01*
Y10825900D01*
X3285899D01*
Y10851300D01*
X3235099D01*
Y10825900D01*
X3209699D01*
Y10775100D01*
X3235099D01*
X3616099D02*
Y10749700D01*
X3666899D01*
Y10775100D01*
X3692299D01*
Y10825900D01*
X3666899D01*
Y10851300D01*
X3616099D01*
Y10825900D01*
X3590699D01*
Y10775100D01*
X3616099D01*
X3489099D02*
Y10749700D01*
X3539899D01*
Y10775100D01*
X3565299D01*
Y10825900D01*
X3539899D01*
Y10851300D01*
X3489099D01*
Y10825900D01*
X3463699D01*
Y10775100D01*
X3489099D01*
X4886099Y11075101D02*
Y11049701D01*
X4936899D01*
Y11075101D01*
X4962299D01*
Y11125901D01*
X4936899D01*
Y11151301D01*
X4886099D01*
Y11125901D01*
X4860699D01*
Y11075101D01*
X4886099D01*
X6410100D02*
Y11049701D01*
X6460900D01*
Y11075101D01*
X6486300D01*
Y11125901D01*
X6460900D01*
Y11151301D01*
X6410100D01*
Y11125901D01*
X6384700D01*
Y11075101D01*
X6410100D01*
X5902099D02*
Y11049701D01*
X5952899D01*
Y11075101D01*
X5978299D01*
Y11125901D01*
X5952899D01*
Y11151301D01*
X5902099D01*
Y11125901D01*
X5876699D01*
Y11075101D01*
X5902099D01*
X7108599Y10704600D02*
Y10679200D01*
X7159399D01*
Y10704600D01*
X7184799D01*
Y10755400D01*
X7159399D01*
Y10780800D01*
X7108599D01*
Y10755400D01*
X7083199D01*
Y10704600D01*
X7108599D01*
X5140099Y11075101D02*
Y11049701D01*
X5190899D01*
Y11075101D01*
X5216299D01*
Y11125901D01*
X5190899D01*
Y11151301D01*
X5140099D01*
Y11125901D01*
X5114699D01*
Y11075101D01*
X5140099D01*
X4505099D02*
Y11049701D01*
X4555899D01*
Y11075101D01*
X4581299D01*
Y11125901D01*
X4555899D01*
Y11151301D01*
X4505099D01*
Y11125901D01*
X4479699D01*
Y11075101D01*
X4505099D01*
X3362099Y10664475D02*
Y10639075D01*
X3412899D01*
Y10664475D01*
X3438299D01*
Y10715275D01*
X3412899D01*
Y10740675D01*
X3362099D01*
Y10715275D01*
X3336699D01*
Y10664475D01*
X3362099D01*
Y11075101D02*
Y11049701D01*
X3412899D01*
Y11075101D01*
X3438299D01*
Y11125901D01*
X3412899D01*
Y11151301D01*
X3362099D01*
Y11125901D01*
X3336699D01*
Y11075101D01*
X3362099D01*
X3108099Y10664475D02*
Y10639075D01*
X3158899D01*
Y10664475D01*
X3184299D01*
Y10715275D01*
X3158899D01*
Y10740675D01*
X3108099D01*
Y10715275D01*
X3082699D01*
Y10664475D01*
X3108099D01*
X2854101D02*
Y10639075D01*
X2904901D01*
Y10664475D01*
X2930301D01*
Y10715275D01*
X2904901D01*
Y10740675D01*
X2854101D01*
Y10715275D01*
X2828701D01*
Y10664475D01*
X2854101D01*
X3616099Y10664500D02*
Y10639100D01*
X3666899D01*
Y10664500D01*
X3692299D01*
Y10715300D01*
X3666899D01*
Y10740700D01*
X3616099D01*
Y10715300D01*
X3590699D01*
Y10664500D01*
X3616099D01*
X6156099Y11075101D02*
Y11049701D01*
X6206899D01*
Y11075101D01*
X6232299D01*
Y11125901D01*
X6206899D01*
Y11151301D01*
X6156099D01*
Y11125901D01*
X6130699D01*
Y11075101D01*
X6156099D01*
X3806599Y8673601D02*
Y8648201D01*
X3857399D01*
Y8673601D01*
X3882799D01*
Y8724401D01*
X3857399D01*
Y8749801D01*
X3806599D01*
Y8724401D01*
X3781199D01*
Y8673601D01*
X3806599D01*
X3933599D02*
Y8648201D01*
X3984399D01*
Y8673601D01*
X4009799D01*
Y8724401D01*
X3984399D01*
Y8749801D01*
X3933599D01*
Y8724401D01*
X3908199D01*
Y8673601D01*
X3933599D01*
X4060599D02*
Y8648201D01*
X4111399D01*
Y8673601D01*
X4136799D01*
Y8724401D01*
X4111399D01*
Y8749801D01*
X4060599D01*
Y8724401D01*
X4035199D01*
Y8673601D01*
X4060599D01*
X4187599D02*
Y8648201D01*
X4238399D01*
Y8673601D01*
X4263799D01*
Y8724401D01*
X4238399D01*
Y8749801D01*
X4187599D01*
Y8724401D01*
X4162199D01*
Y8673601D01*
X4187599D01*
X4314599D02*
Y8648201D01*
X4365399D01*
Y8673601D01*
X4390799D01*
Y8724401D01*
X4365399D01*
Y8749801D01*
X4314599D01*
Y8724401D01*
X4289199D01*
Y8673601D01*
X4314599D01*
X4568599D02*
Y8648201D01*
X4619399D01*
Y8673601D01*
X4644799D01*
Y8724401D01*
X4619399D01*
Y8749801D01*
X4568599D01*
Y8724401D01*
X4543199D01*
Y8673601D01*
X4568599D01*
X4695599D02*
Y8648201D01*
X4746399D01*
Y8673601D01*
X4771799D01*
Y8724401D01*
X4746399D01*
Y8749801D01*
X4695599D01*
Y8724401D01*
X4670199D01*
Y8673601D01*
X4695599D01*
X4822599D02*
Y8648201D01*
X4873399D01*
Y8673601D01*
X4898799D01*
Y8724401D01*
X4873399D01*
Y8749801D01*
X4822599D01*
Y8724401D01*
X4797199D01*
Y8673601D01*
X4822599D01*
X5203599D02*
Y8648201D01*
X5254399D01*
Y8673601D01*
X5279799D01*
Y8724401D01*
X5254399D01*
Y8749801D01*
X5203599D01*
Y8724401D01*
X5178199D01*
Y8673601D01*
X5203599D01*
X5329376D02*
Y8648201D01*
X5380176D01*
Y8673601D01*
X5405576D01*
Y8724401D01*
X5380176D01*
Y8749801D01*
X5329376D01*
Y8724401D01*
X5303976D01*
Y8673601D01*
X5329376D01*
X5575599D02*
Y8648201D01*
X5626399D01*
Y8673601D01*
X5651799D01*
Y8724401D01*
X5626399D01*
Y8749801D01*
X5575599D01*
Y8724401D01*
X5550199D01*
Y8673601D01*
X5575599D01*
X5711599D02*
Y8648201D01*
X5762399D01*
Y8673601D01*
X5787799D01*
Y8724401D01*
X5762399D01*
Y8749801D01*
X5711599D01*
Y8724401D01*
X5686199D01*
Y8673601D01*
X5711599D01*
X5838599D02*
Y8648201D01*
X5889399D01*
Y8673601D01*
X5914799D01*
Y8724401D01*
X5889399D01*
Y8749801D01*
X5838599D01*
Y8724401D01*
X5813199D01*
Y8673601D01*
X5838599D01*
X6219599D02*
Y8648201D01*
X6270399D01*
Y8673601D01*
X6295799D01*
Y8724401D01*
X6270399D01*
Y8749801D01*
X6219599D01*
Y8724401D01*
X6194199D01*
Y8673601D01*
X6219599D01*
X6346600D02*
Y8648201D01*
X6397400D01*
Y8673601D01*
X6422800D01*
Y8724401D01*
X6397400D01*
Y8749801D01*
X6346600D01*
Y8724401D01*
X6321200D01*
Y8673601D01*
X6346600D01*
X6473600D02*
Y8648201D01*
X6524400D01*
Y8673601D01*
X6549800D01*
Y8724401D01*
X6524400D01*
Y8749801D01*
X6473600D01*
Y8724401D01*
X6448200D01*
Y8673601D01*
X6473600D01*
X6600600D02*
Y8648201D01*
X6651400D01*
Y8673601D01*
X6676800D01*
Y8724401D01*
X6651400D01*
Y8749801D01*
X6600600D01*
Y8724401D01*
X6575200D01*
Y8673601D01*
X6600600D01*
X6854599D02*
Y8648201D01*
X6905399D01*
Y8673601D01*
X6930799D01*
Y8724401D01*
X6905399D01*
Y8749801D01*
X6854599D01*
Y8724401D01*
X6829199D01*
Y8673601D01*
X6854599D01*
X6981600D02*
Y8648201D01*
X7032400D01*
Y8673601D01*
X7057800D01*
Y8724401D01*
X7032400D01*
Y8749801D01*
X6981600D01*
Y8724401D01*
X6956200D01*
Y8673601D01*
X6981600D01*
X4822599Y8994601D02*
Y8969201D01*
X4873399D01*
Y8994601D01*
X4898799D01*
Y9045401D01*
X4873399D01*
Y9070801D01*
X4822599D01*
Y9045401D01*
X4797199D01*
Y8994601D01*
X4822599D01*
X4949599D02*
Y8969201D01*
X5000399D01*
Y8994601D01*
X5025799D01*
Y9045401D01*
X5000399D01*
Y9070801D01*
X4949599D01*
Y9045401D01*
X4924199D01*
Y8994601D01*
X4949599D01*
X7045099Y9365101D02*
Y9339701D01*
X7095899D01*
Y9365101D01*
X7121299D01*
Y9415901D01*
X7095899D01*
Y9441301D01*
X7045099D01*
Y9415901D01*
X7019699D01*
Y9365101D01*
X7045099D01*
X6918099D02*
Y9339701D01*
X6968899D01*
Y9365101D01*
X6994299D01*
Y9415901D01*
X6968899D01*
Y9441301D01*
X6918099D01*
Y9415901D01*
X6892699D01*
Y9365101D01*
X6918099D01*
X6854599Y8994601D02*
Y8969201D01*
X6905399D01*
Y8994601D01*
X6930799D01*
Y9045401D01*
X6905399D01*
Y9070801D01*
X6854599D01*
Y9045401D01*
X6829199D01*
Y8994601D01*
X6854599D01*
X6791099Y9365101D02*
Y9339701D01*
X6841899D01*
Y9365101D01*
X6867299D01*
Y9415901D01*
X6841899D01*
Y9441301D01*
X6791099D01*
Y9415901D01*
X6765699D01*
Y9365101D01*
X6791099D01*
X6664099D02*
Y9339701D01*
X6714899D01*
Y9365101D01*
X6740299D01*
Y9415901D01*
X6714899D01*
Y9441301D01*
X6664099D01*
Y9415901D01*
X6638699D01*
Y9365101D01*
X6664099D01*
X6727600Y8994601D02*
Y8969201D01*
X6778400D01*
Y8994601D01*
X6803800D01*
Y9045401D01*
X6778400D01*
Y9070801D01*
X6727600D01*
Y9045401D01*
X6702200D01*
Y8994601D01*
X6727600D01*
X6219599D02*
Y8969201D01*
X6270399D01*
Y8994601D01*
X6295799D01*
Y9045401D01*
X6270399D01*
Y9070801D01*
X6219599D01*
Y9045401D01*
X6194199D01*
Y8994601D01*
X6219599D01*
X6092600D02*
Y8969201D01*
X6143400D01*
Y8994601D01*
X6168800D01*
Y9045401D01*
X6143400D01*
Y9070801D01*
X6092600D01*
Y9045401D01*
X6067200D01*
Y8994601D01*
X6092600D01*
X5838599D02*
Y8969201D01*
X5889399D01*
Y8994601D01*
X5914799D01*
Y9045401D01*
X5889399D01*
Y9070801D01*
X5838599D01*
Y9045401D01*
X5813199D01*
Y8994601D01*
X5838599D01*
X5711599D02*
Y8969201D01*
X5762399D01*
Y8994601D01*
X5787799D01*
Y9045401D01*
X5762399D01*
Y9070801D01*
X5711599D01*
Y9045401D01*
X5686199D01*
Y8994601D01*
X5711599D01*
X5575599D02*
Y8969201D01*
X5626399D01*
Y8994601D01*
X5651799D01*
Y9045401D01*
X5626399D01*
Y9070801D01*
X5575599D01*
Y9045401D01*
X5550199D01*
Y8994601D01*
X5575599D01*
X5775099Y9365101D02*
Y9339701D01*
X5825899D01*
Y9365101D01*
X5851299D01*
Y9415901D01*
X5825899D01*
Y9441301D01*
X5775099D01*
Y9415901D01*
X5749699D01*
Y9365101D01*
X5775099D01*
X4759099D02*
Y9339701D01*
X4809899D01*
Y9365101D01*
X4835299D01*
Y9415901D01*
X4809899D01*
Y9441301D01*
X4759099D01*
Y9415901D01*
X4733699D01*
Y9365101D01*
X4759099D01*
X4378101D02*
Y9339701D01*
X4428901D01*
Y9365101D01*
X4454301D01*
Y9415901D01*
X4428901D01*
Y9441301D01*
X4378101D01*
Y9415901D01*
X4352701D01*
Y9365101D01*
X4378101D01*
X4314599Y8994601D02*
Y8969201D01*
X4365399D01*
Y8994601D01*
X4390799D01*
Y9045401D01*
X4365399D01*
Y9070801D01*
X4314599D01*
Y9045401D01*
X4289199D01*
Y8994601D01*
X4314599D01*
X4251099Y9365101D02*
Y9339701D01*
X4301899D01*
Y9365101D01*
X4327299D01*
Y9415901D01*
X4301899D01*
Y9441301D01*
X4251099D01*
Y9415901D01*
X4225699D01*
Y9365101D01*
X4251099D01*
X4124099D02*
Y9339701D01*
X4174899D01*
Y9365101D01*
X4200299D01*
Y9415901D01*
X4174899D01*
Y9441301D01*
X4124099D01*
Y9415901D01*
X4098699D01*
Y9365101D01*
X4124099D01*
X3870099D02*
Y9339701D01*
X3920899D01*
Y9365101D01*
X3946299D01*
Y9415901D01*
X3920899D01*
Y9441301D01*
X3870099D01*
Y9415901D01*
X3844699D01*
Y9365101D01*
X3870099D01*
X3743099D02*
Y9339701D01*
X3793899D01*
Y9365101D01*
X3819299D01*
Y9415901D01*
X3793899D01*
Y9441301D01*
X3743099D01*
Y9415901D01*
X3717699D01*
Y9365101D01*
X3743099D01*
X5203599Y8994601D02*
Y8969201D01*
X5254399D01*
Y8994601D01*
X5279799D01*
Y9045401D01*
X5254399D01*
Y9070801D01*
X5203599D01*
Y9045401D01*
X5178199D01*
Y8994601D01*
X5203599D01*
X5076599D02*
Y8969201D01*
X5127399D01*
Y8994601D01*
X5152799D01*
Y9045401D01*
X5127399D01*
Y9070801D01*
X5076599D01*
Y9045401D01*
X5051199D01*
Y8994601D01*
X5076599D01*
X4695599D02*
Y8969201D01*
X4746399D01*
Y8994601D01*
X4771799D01*
Y9045401D01*
X4746399D01*
Y9070801D01*
X4695599D01*
Y9045401D01*
X4670199D01*
Y8994601D01*
X4695599D01*
X4568599D02*
Y8969201D01*
X4619399D01*
Y8994601D01*
X4644799D01*
Y9045401D01*
X4619399D01*
Y9070801D01*
X4568599D01*
Y9045401D01*
X4543199D01*
Y8994601D01*
X4568599D01*
X4441599D02*
Y8969201D01*
X4492399D01*
Y8994601D01*
X4517799D01*
Y9045401D01*
X4492399D01*
Y9070801D01*
X4441599D01*
Y9045401D01*
X4416199D01*
Y8994601D01*
X4441599D01*
X4187599D02*
Y8969201D01*
X4238399D01*
Y8994601D01*
X4263799D01*
Y9045401D01*
X4238399D01*
Y9070801D01*
X4187599D01*
Y9045401D01*
X4162199D01*
Y8994601D01*
X4187599D01*
X4060599D02*
Y8969201D01*
X4111399D01*
Y8994601D01*
X4136799D01*
Y9045401D01*
X4111399D01*
Y9070801D01*
X4060599D01*
Y9045401D01*
X4035199D01*
Y8994601D01*
X4060599D01*
X3933599D02*
Y8969201D01*
X3984399D01*
Y8994601D01*
X4009799D01*
Y9045401D01*
X3984399D01*
Y9070801D01*
X3933599D01*
Y9045401D01*
X3908199D01*
Y8994601D01*
X3933599D01*
X3806599D02*
Y8969201D01*
X3857399D01*
Y8994601D01*
X3882799D01*
Y9045401D01*
X3857399D01*
Y9070801D01*
X3806599D01*
Y9045401D01*
X3781199D01*
Y8994601D01*
X3806599D01*
X3235099Y9365101D02*
Y9339701D01*
X3285899D01*
Y9365101D01*
X3311299D01*
Y9415901D01*
X3285899D01*
Y9441301D01*
X3235099D01*
Y9415901D01*
X3209699D01*
Y9365101D01*
X3235099D01*
X3108099D02*
Y9339701D01*
X3158899D01*
Y9365101D01*
X3184299D01*
Y9415901D01*
X3158899D01*
Y9441301D01*
X3108099D01*
Y9415901D01*
X3082699D01*
Y9365101D01*
X3108099D01*
X3171599Y8994601D02*
Y8969201D01*
X3222399D01*
Y8994601D01*
X3247799D01*
Y9045401D01*
X3222399D01*
Y9070801D01*
X3171599D01*
Y9045401D01*
X3146199D01*
Y8994601D01*
X3171599D01*
X3425599D02*
Y8969201D01*
X3476399D01*
Y8994601D01*
X3501799D01*
Y9045401D01*
X3476399D01*
Y9070801D01*
X3425599D01*
Y9045401D01*
X3400199D01*
Y8994601D01*
X3425599D01*
X3616099Y9365101D02*
Y9339701D01*
X3666899D01*
Y9365101D01*
X3692299D01*
Y9415901D01*
X3666899D01*
Y9441301D01*
X3616099D01*
Y9415901D01*
X3590699D01*
Y9365101D01*
X3616099D01*
X7172099D02*
Y9339701D01*
X7222899D01*
Y9365101D01*
X7248299D01*
Y9415901D01*
X7222899D01*
Y9441301D01*
X7172099D01*
Y9415901D01*
X7146699D01*
Y9365101D01*
X7172099D01*
X6537099D02*
Y9339701D01*
X6587899D01*
Y9365101D01*
X6613299D01*
Y9415901D01*
X6587899D01*
Y9441301D01*
X6537099D01*
Y9415901D01*
X6511699D01*
Y9365101D01*
X6537099D01*
X6283099D02*
Y9339701D01*
X6333899D01*
Y9365101D01*
X6359299D01*
Y9415901D01*
X6333899D01*
Y9441301D01*
X6283099D01*
Y9415901D01*
X6257699D01*
Y9365101D01*
X6283099D01*
X6029099D02*
Y9339701D01*
X6079899D01*
Y9365101D01*
X6105299D01*
Y9415901D01*
X6079899D01*
Y9441301D01*
X6029099D01*
Y9415901D01*
X6003699D01*
Y9365101D01*
X6029099D01*
X5648099D02*
Y9339701D01*
X5698899D01*
Y9365101D01*
X5724299D01*
Y9415901D01*
X5698899D01*
Y9441301D01*
X5648099D01*
Y9415901D01*
X5622699D01*
Y9365101D01*
X5648099D01*
X5394099D02*
Y9339701D01*
X5444899D01*
Y9365101D01*
X5470299D01*
Y9415901D01*
X5444899D01*
Y9441301D01*
X5394099D01*
Y9415901D01*
X5368699D01*
Y9365101D01*
X5394099D01*
X5267099D02*
Y9339701D01*
X5317899D01*
Y9365101D01*
X5343299D01*
Y9415901D01*
X5317899D01*
Y9441301D01*
X5267099D01*
Y9415901D01*
X5241699D01*
Y9365101D01*
X5267099D01*
X5013099D02*
Y9339701D01*
X5063899D01*
Y9365101D01*
X5089299D01*
Y9415901D01*
X5063899D01*
Y9441301D01*
X5013099D01*
Y9415901D01*
X4987699D01*
Y9365101D01*
X5013099D01*
X3997099D02*
Y9339701D01*
X4047899D01*
Y9365101D01*
X4073299D01*
Y9415901D01*
X4047899D01*
Y9441301D01*
X3997099D01*
Y9415901D01*
X3971699D01*
Y9365101D01*
X3997099D01*
X3489099D02*
Y9339701D01*
X3539899D01*
Y9365101D01*
X3565299D01*
Y9415901D01*
X3539899D01*
Y9441301D01*
X3489099D01*
Y9415901D01*
X3463699D01*
Y9365101D01*
X3489099D01*
X7273701Y9003702D02*
X7299101Y9054502D01*
X7273701Y9105302D01*
X7324501Y9079902D01*
X7375301Y9105302D01*
X7349901Y9054502D01*
X7375301Y9003702D01*
X7324501Y9029102D01*
X7273701Y9003702D01*
X2981099Y9365101D02*
Y9339701D01*
X3031899D01*
Y9365101D01*
X3057299D01*
Y9415901D01*
X3031899D01*
Y9441301D01*
X2981099D01*
Y9415901D01*
X2955699D01*
Y9365101D01*
X2981099D01*
X2917599Y8994601D02*
Y8969201D01*
X2968399D01*
Y8994601D01*
X2993799D01*
Y9045401D01*
X2968399D01*
Y9070801D01*
X2917599D01*
Y9045401D01*
X2892199D01*
Y8994601D01*
X2917599D01*
X3679599D02*
Y8969201D01*
X3730399D01*
Y8994601D01*
X3755799D01*
Y9045401D01*
X3730399D01*
Y9070801D01*
X3679599D01*
Y9045401D01*
X3654199D01*
Y8994601D01*
X3679599D01*
X5965599D02*
Y8969201D01*
X6016399D01*
Y8994601D01*
X6041799D01*
Y9045401D01*
X6016399D01*
Y9070801D01*
X5965599D01*
Y9045401D01*
X5940199D01*
Y8994601D01*
X5965599D01*
X2854099Y9365100D02*
Y9339700D01*
X2904899D01*
Y9365100D01*
X2930299D01*
Y9415900D01*
X2904899D01*
Y9441300D01*
X2854099D01*
Y9415900D01*
X2828699D01*
Y9365100D01*
X2854099D01*
X2701701Y8999201D02*
X2727101Y9050001D01*
X2701701Y9100801D01*
X2752501Y9075401D01*
X2803301Y9100801D01*
X2777901Y9050001D01*
X2803301Y8999201D01*
X2752501Y9024601D01*
X2701701Y8999201D01*
X2574701D02*
X2600101Y9050001D01*
X2574701Y9100801D01*
X2625501Y9075401D01*
X2676301Y9100801D01*
X2650901Y9050001D01*
X2676301Y8999201D01*
X2625501Y9024601D01*
X2574701Y8999201D01*
X3425599Y8673601D02*
Y8648201D01*
X3476399D01*
Y8673601D01*
X3501799D01*
Y8724401D01*
X3476399D01*
Y8749801D01*
X3425599D01*
Y8724401D01*
X3400199D01*
Y8673601D01*
X3425599D01*
X3171599D02*
Y8648201D01*
X3222399D01*
Y8673601D01*
X3247799D01*
Y8724401D01*
X3222399D01*
Y8749801D01*
X3171599D01*
Y8724401D01*
X3146199D01*
Y8673601D01*
X3171599D01*
X2917599D02*
Y8648201D01*
X2968399D01*
Y8673601D01*
X2993799D01*
Y8724401D01*
X2968399D01*
Y8749801D01*
X2917599D01*
Y8724401D01*
X2892199D01*
Y8673601D01*
X2917599D01*
X2981099Y9065101D02*
Y9039701D01*
X3031899D01*
Y9065101D01*
X3057299D01*
Y9115901D01*
X3031899D01*
Y9141301D01*
X2981099D01*
Y9115901D01*
X2955699D01*
Y9065101D01*
X2981099D01*
X4632099Y9365101D02*
Y9339701D01*
X4682899D01*
Y9365101D01*
X4708299D01*
Y9415901D01*
X4682899D01*
Y9441301D01*
X4632099D01*
Y9415901D01*
X4606699D01*
Y9365101D01*
X4632099D01*
X6346600Y8994601D02*
Y8969201D01*
X6397400D01*
Y8994601D01*
X6422800D01*
Y9045401D01*
X6397400D01*
Y9070801D01*
X6346600D01*
Y9045401D01*
X6321200D01*
Y8994601D01*
X6346600D01*
X6473600D02*
Y8969201D01*
X6524400D01*
Y8994601D01*
X6549800D01*
Y9045401D01*
X6524400D01*
Y9070801D01*
X6473600D01*
Y9045401D01*
X6448200D01*
Y8994601D01*
X6473600D01*
X6600600D02*
Y8969201D01*
X6651400D01*
Y8994601D01*
X6676800D01*
Y9045401D01*
X6651400D01*
Y9070801D01*
X6600600D01*
Y9045401D01*
X6575200D01*
Y8994601D01*
X6600600D01*
X6981600D02*
Y8969201D01*
X7032400D01*
Y8994601D01*
X7057800D01*
Y9045401D01*
X7032400D01*
Y9070801D01*
X6981600D01*
Y9045401D01*
X6956200D01*
Y8994601D01*
X6981600D01*
X7172099Y9065101D02*
Y9039701D01*
X7222899D01*
Y9065101D01*
X7248299D01*
Y9115901D01*
X7222899D01*
Y9141301D01*
X7172099D01*
Y9115901D01*
X7146699D01*
Y9065101D01*
X7172099D01*
X7045099D02*
Y9039701D01*
X7095899D01*
Y9065101D01*
X7121299D01*
Y9115901D01*
X7095899D01*
Y9141301D01*
X7045099D01*
Y9115901D01*
X7019699D01*
Y9065101D01*
X7045099D01*
X6918099D02*
Y9039701D01*
X6968899D01*
Y9065101D01*
X6994299D01*
Y9115901D01*
X6968899D01*
Y9141301D01*
X6918099D01*
Y9115901D01*
X6892699D01*
Y9065101D01*
X6918099D01*
X6791099D02*
Y9039701D01*
X6841899D01*
Y9065101D01*
X6867299D01*
Y9115901D01*
X6841899D01*
Y9141301D01*
X6791099D01*
Y9115901D01*
X6765699D01*
Y9065101D01*
X6791099D01*
X6727600Y8673601D02*
Y8648201D01*
X6778400D01*
Y8673601D01*
X6803800D01*
Y8724401D01*
X6778400D01*
Y8749801D01*
X6727600D01*
Y8724401D01*
X6702200D01*
Y8673601D01*
X6727600D01*
X6664099Y9065101D02*
Y9039701D01*
X6714899D01*
Y9065101D01*
X6740299D01*
Y9115901D01*
X6714899D01*
Y9141301D01*
X6664099D01*
Y9115901D01*
X6638699D01*
Y9065101D01*
X6664099D01*
X6537099D02*
Y9039701D01*
X6587899D01*
Y9065101D01*
X6613299D01*
Y9115901D01*
X6587899D01*
Y9141301D01*
X6537099D01*
Y9115901D01*
X6511699D01*
Y9065101D01*
X6537099D01*
X6092600Y8673601D02*
Y8648201D01*
X6143400D01*
Y8673601D01*
X6168800D01*
Y8724401D01*
X6143400D01*
Y8749801D01*
X6092600D01*
Y8724401D01*
X6067200D01*
Y8673601D01*
X6092600D01*
X6283099Y9065101D02*
Y9039701D01*
X6333899D01*
Y9065101D01*
X6359299D01*
Y9115901D01*
X6333899D01*
Y9141301D01*
X6283099D01*
Y9115901D01*
X6257699D01*
Y9065101D01*
X6283099D01*
X6029099D02*
Y9039701D01*
X6079899D01*
Y9065101D01*
X6105299D01*
Y9115901D01*
X6079899D01*
Y9141301D01*
X6029099D01*
Y9115901D01*
X6003699D01*
Y9065101D01*
X6029099D01*
X5775099D02*
Y9039701D01*
X5825899D01*
Y9065101D01*
X5851299D01*
Y9115901D01*
X5825899D01*
Y9141301D01*
X5775099D01*
Y9115901D01*
X5749699D01*
Y9065101D01*
X5775099D01*
X5648099D02*
Y9039701D01*
X5698899D01*
Y9065101D01*
X5724299D01*
Y9115901D01*
X5698899D01*
Y9141301D01*
X5648099D01*
Y9115901D01*
X5622699D01*
Y9065101D01*
X5648099D01*
X5394099D02*
Y9039701D01*
X5444899D01*
Y9065101D01*
X5470299D01*
Y9115901D01*
X5444899D01*
Y9141301D01*
X5394099D01*
Y9115901D01*
X5368699D01*
Y9065101D01*
X5394099D01*
X5267099D02*
Y9039701D01*
X5317899D01*
Y9065101D01*
X5343299D01*
Y9115901D01*
X5317899D01*
Y9141301D01*
X5267099D01*
Y9115901D01*
X5241699D01*
Y9065101D01*
X5267099D01*
X5076599Y8673601D02*
Y8648201D01*
X5127399D01*
Y8673601D01*
X5152799D01*
Y8724401D01*
X5127399D01*
Y8749801D01*
X5076599D01*
Y8724401D01*
X5051199D01*
Y8673601D01*
X5076599D01*
X5013099Y9065101D02*
Y9039701D01*
X5063899D01*
Y9065101D01*
X5089299D01*
Y9115901D01*
X5063899D01*
Y9141301D01*
X5013099D01*
Y9115901D01*
X4987699D01*
Y9065101D01*
X5013099D01*
X4949599Y8673601D02*
Y8648201D01*
X5000399D01*
Y8673601D01*
X5025799D01*
Y8724401D01*
X5000399D01*
Y8749801D01*
X4949599D01*
Y8724401D01*
X4924199D01*
Y8673601D01*
X4949599D01*
X4759099Y9065101D02*
Y9039701D01*
X4809899D01*
Y9065101D01*
X4835299D01*
Y9115901D01*
X4809899D01*
Y9141301D01*
X4759099D01*
Y9115901D01*
X4733699D01*
Y9065101D01*
X4759099D01*
X4441599Y8673601D02*
Y8648201D01*
X4492399D01*
Y8673601D01*
X4517799D01*
Y8724401D01*
X4492399D01*
Y8749801D01*
X4441599D01*
Y8724401D01*
X4416199D01*
Y8673601D01*
X4441599D01*
X4378101Y9065101D02*
Y9039701D01*
X4428901D01*
Y9065101D01*
X4454301D01*
Y9115901D01*
X4428901D01*
Y9141301D01*
X4378101D01*
Y9115901D01*
X4352701D01*
Y9065101D01*
X4378101D01*
X4251099D02*
Y9039701D01*
X4301899D01*
Y9065101D01*
X4327299D01*
Y9115901D01*
X4301899D01*
Y9141301D01*
X4251099D01*
Y9115901D01*
X4225699D01*
Y9065101D01*
X4251099D01*
X4124099D02*
Y9039701D01*
X4174899D01*
Y9065101D01*
X4200299D01*
Y9115901D01*
X4174899D01*
Y9141301D01*
X4124099D01*
Y9115901D01*
X4098699D01*
Y9065101D01*
X4124099D01*
X3997099D02*
Y9039701D01*
X4047899D01*
Y9065101D01*
X4073299D01*
Y9115901D01*
X4047899D01*
Y9141301D01*
X3997099D01*
Y9115901D01*
X3971699D01*
Y9065101D01*
X3997099D01*
X3870099D02*
Y9039701D01*
X3920899D01*
Y9065101D01*
X3946299D01*
Y9115901D01*
X3920899D01*
Y9141301D01*
X3870099D01*
Y9115901D01*
X3844699D01*
Y9065101D01*
X3870099D01*
X3743099D02*
Y9039701D01*
X3793899D01*
Y9065101D01*
X3819299D01*
Y9115901D01*
X3793899D01*
Y9141301D01*
X3743099D01*
Y9115901D01*
X3717699D01*
Y9065101D01*
X3743099D01*
X3679599Y8673601D02*
Y8648201D01*
X3730399D01*
Y8673601D01*
X3755799D01*
Y8724401D01*
X3730399D01*
Y8749801D01*
X3679599D01*
Y8724401D01*
X3654199D01*
Y8673601D01*
X3679599D01*
X3235099Y9065101D02*
Y9039701D01*
X3285899D01*
Y9065101D01*
X3311299D01*
Y9115901D01*
X3285899D01*
Y9141301D01*
X3235099D01*
Y9115901D01*
X3209699D01*
Y9065101D01*
X3235099D01*
X3616099D02*
Y9039701D01*
X3666899D01*
Y9065101D01*
X3692299D01*
Y9115901D01*
X3666899D01*
Y9141301D01*
X3616099D01*
Y9115901D01*
X3590699D01*
Y9065101D01*
X3616099D01*
X3489099D02*
Y9039701D01*
X3539899D01*
Y9065101D01*
X3565299D01*
Y9115901D01*
X3539899D01*
Y9141301D01*
X3489099D01*
Y9115901D01*
X3463699D01*
Y9065101D01*
X3489099D01*
X4886099Y9365101D02*
Y9339701D01*
X4936899D01*
Y9365101D01*
X4962299D01*
Y9415901D01*
X4936899D01*
Y9441301D01*
X4886099D01*
Y9415901D01*
X4860699D01*
Y9365101D01*
X4886099D01*
X6410100D02*
Y9339701D01*
X6460900D01*
Y9365101D01*
X6486300D01*
Y9415901D01*
X6460900D01*
Y9441301D01*
X6410100D01*
Y9415901D01*
X6384700D01*
Y9365101D01*
X6410100D01*
X5902099D02*
Y9339701D01*
X5952899D01*
Y9365101D01*
X5978299D01*
Y9415901D01*
X5952899D01*
Y9441301D01*
X5902099D01*
Y9415901D01*
X5876699D01*
Y9365101D01*
X5902099D01*
X7108599Y8994601D02*
Y8969201D01*
X7159399D01*
Y8994601D01*
X7184799D01*
Y9045401D01*
X7159399D01*
Y9070801D01*
X7108599D01*
Y9045401D01*
X7083199D01*
Y8994601D01*
X7108599D01*
X5140099Y9365101D02*
Y9339701D01*
X5190899D01*
Y9365101D01*
X5216299D01*
Y9415901D01*
X5190899D01*
Y9441301D01*
X5140099D01*
Y9415901D01*
X5114699D01*
Y9365101D01*
X5140099D01*
X4505099D02*
Y9339701D01*
X4555899D01*
Y9365101D01*
X4581299D01*
Y9415901D01*
X4555899D01*
Y9441301D01*
X4505099D01*
Y9415901D01*
X4479699D01*
Y9365101D01*
X4505099D01*
X3362099Y8954476D02*
Y8929076D01*
X3412899D01*
Y8954476D01*
X3438299D01*
Y9005276D01*
X3412899D01*
Y9030676D01*
X3362099D01*
Y9005276D01*
X3336699D01*
Y8954476D01*
X3362099D01*
Y9365101D02*
Y9339701D01*
X3412899D01*
Y9365101D01*
X3438299D01*
Y9415901D01*
X3412899D01*
Y9441301D01*
X3362099D01*
Y9415901D01*
X3336699D01*
Y9365101D01*
X3362099D01*
X3108099Y8954476D02*
Y8929076D01*
X3158899D01*
Y8954476D01*
X3184299D01*
Y9005276D01*
X3158899D01*
Y9030676D01*
X3108099D01*
Y9005276D01*
X3082699D01*
Y8954476D01*
X3108099D01*
X2854101D02*
Y8929076D01*
X2904901D01*
Y8954476D01*
X2930301D01*
Y9005276D01*
X2904901D01*
Y9030676D01*
X2854101D01*
Y9005276D01*
X2828701D01*
Y8954476D01*
X2854101D01*
X3616099Y8954501D02*
Y8929101D01*
X3666899D01*
Y8954501D01*
X3692299D01*
Y9005301D01*
X3666899D01*
Y9030701D01*
X3616099D01*
Y9005301D01*
X3590699D01*
Y8954501D01*
X3616099D01*
X6156099Y9365101D02*
Y9339701D01*
X6206899D01*
Y9365101D01*
X6232299D01*
Y9415901D01*
X6206899D01*
Y9441301D01*
X6156099D01*
Y9415901D01*
X6130699D01*
Y9365101D01*
X6156099D01*
X3806599Y6963601D02*
Y6938201D01*
X3857399D01*
Y6963601D01*
X3882799D01*
Y7014401D01*
X3857399D01*
Y7039801D01*
X3806599D01*
Y7014401D01*
X3781199D01*
Y6963601D01*
X3806599D01*
X3933599D02*
Y6938201D01*
X3984399D01*
Y6963601D01*
X4009799D01*
Y7014401D01*
X3984399D01*
Y7039801D01*
X3933599D01*
Y7014401D01*
X3908199D01*
Y6963601D01*
X3933599D01*
X4060599D02*
Y6938201D01*
X4111399D01*
Y6963601D01*
X4136799D01*
Y7014401D01*
X4111399D01*
Y7039801D01*
X4060599D01*
Y7014401D01*
X4035199D01*
Y6963601D01*
X4060599D01*
X4187599D02*
Y6938201D01*
X4238399D01*
Y6963601D01*
X4263799D01*
Y7014401D01*
X4238399D01*
Y7039801D01*
X4187599D01*
Y7014401D01*
X4162199D01*
Y6963601D01*
X4187599D01*
X4314599D02*
Y6938201D01*
X4365399D01*
Y6963601D01*
X4390799D01*
Y7014401D01*
X4365399D01*
Y7039801D01*
X4314599D01*
Y7014401D01*
X4289199D01*
Y6963601D01*
X4314599D01*
X4568599D02*
Y6938201D01*
X4619399D01*
Y6963601D01*
X4644799D01*
Y7014401D01*
X4619399D01*
Y7039801D01*
X4568599D01*
Y7014401D01*
X4543199D01*
Y6963601D01*
X4568599D01*
X4695599D02*
Y6938201D01*
X4746399D01*
Y6963601D01*
X4771799D01*
Y7014401D01*
X4746399D01*
Y7039801D01*
X4695599D01*
Y7014401D01*
X4670199D01*
Y6963601D01*
X4695599D01*
X4822599D02*
Y6938201D01*
X4873399D01*
Y6963601D01*
X4898799D01*
Y7014401D01*
X4873399D01*
Y7039801D01*
X4822599D01*
Y7014401D01*
X4797199D01*
Y6963601D01*
X4822599D01*
X5203599D02*
Y6938201D01*
X5254399D01*
Y6963601D01*
X5279799D01*
Y7014401D01*
X5254399D01*
Y7039801D01*
X5203599D01*
Y7014401D01*
X5178199D01*
Y6963601D01*
X5203599D01*
X5329376D02*
Y6938201D01*
X5380176D01*
Y6963601D01*
X5405576D01*
Y7014401D01*
X5380176D01*
Y7039801D01*
X5329376D01*
Y7014401D01*
X5303976D01*
Y6963601D01*
X5329376D01*
X5575599D02*
Y6938201D01*
X5626399D01*
Y6963601D01*
X5651799D01*
Y7014401D01*
X5626399D01*
Y7039801D01*
X5575599D01*
Y7014401D01*
X5550199D01*
Y6963601D01*
X5575599D01*
X5711599D02*
Y6938201D01*
X5762399D01*
Y6963601D01*
X5787799D01*
Y7014401D01*
X5762399D01*
Y7039801D01*
X5711599D01*
Y7014401D01*
X5686199D01*
Y6963601D01*
X5711599D01*
X5838599D02*
Y6938201D01*
X5889399D01*
Y6963601D01*
X5914799D01*
Y7014401D01*
X5889399D01*
Y7039801D01*
X5838599D01*
Y7014401D01*
X5813199D01*
Y6963601D01*
X5838599D01*
X6219599D02*
Y6938201D01*
X6270399D01*
Y6963601D01*
X6295799D01*
Y7014401D01*
X6270399D01*
Y7039801D01*
X6219599D01*
Y7014401D01*
X6194199D01*
Y6963601D01*
X6219599D01*
X6346600D02*
Y6938201D01*
X6397400D01*
Y6963601D01*
X6422800D01*
Y7014401D01*
X6397400D01*
Y7039801D01*
X6346600D01*
Y7014401D01*
X6321200D01*
Y6963601D01*
X6346600D01*
X6473600D02*
Y6938201D01*
X6524400D01*
Y6963601D01*
X6549800D01*
Y7014401D01*
X6524400D01*
Y7039801D01*
X6473600D01*
Y7014401D01*
X6448200D01*
Y6963601D01*
X6473600D01*
X6600600D02*
Y6938201D01*
X6651400D01*
Y6963601D01*
X6676800D01*
Y7014401D01*
X6651400D01*
Y7039801D01*
X6600600D01*
Y7014401D01*
X6575200D01*
Y6963601D01*
X6600600D01*
X6854599D02*
Y6938201D01*
X6905399D01*
Y6963601D01*
X6930799D01*
Y7014401D01*
X6905399D01*
Y7039801D01*
X6854599D01*
Y7014401D01*
X6829199D01*
Y6963601D01*
X6854599D01*
X6981600D02*
Y6938201D01*
X7032400D01*
Y6963601D01*
X7057800D01*
Y7014401D01*
X7032400D01*
Y7039801D01*
X6981600D01*
Y7014401D01*
X6956200D01*
Y6963601D01*
X6981600D01*
X4822599Y7284601D02*
Y7259201D01*
X4873399D01*
Y7284601D01*
X4898799D01*
Y7335401D01*
X4873399D01*
Y7360801D01*
X4822599D01*
Y7335401D01*
X4797199D01*
Y7284601D01*
X4822599D01*
X4949599D02*
Y7259201D01*
X5000399D01*
Y7284601D01*
X5025799D01*
Y7335401D01*
X5000399D01*
Y7360801D01*
X4949599D01*
Y7335401D01*
X4924199D01*
Y7284601D01*
X4949599D01*
X7045099Y7655101D02*
Y7629701D01*
X7095899D01*
Y7655101D01*
X7121299D01*
Y7705901D01*
X7095899D01*
Y7731301D01*
X7045099D01*
Y7705901D01*
X7019699D01*
Y7655101D01*
X7045099D01*
X6918099D02*
Y7629701D01*
X6968899D01*
Y7655101D01*
X6994299D01*
Y7705901D01*
X6968899D01*
Y7731301D01*
X6918099D01*
Y7705901D01*
X6892699D01*
Y7655101D01*
X6918099D01*
X6854599Y7284601D02*
Y7259201D01*
X6905399D01*
Y7284601D01*
X6930799D01*
Y7335401D01*
X6905399D01*
Y7360801D01*
X6854599D01*
Y7335401D01*
X6829199D01*
Y7284601D01*
X6854599D01*
X6791099Y7655101D02*
Y7629701D01*
X6841899D01*
Y7655101D01*
X6867299D01*
Y7705901D01*
X6841899D01*
Y7731301D01*
X6791099D01*
Y7705901D01*
X6765699D01*
Y7655101D01*
X6791099D01*
X6664099D02*
Y7629701D01*
X6714899D01*
Y7655101D01*
X6740299D01*
Y7705901D01*
X6714899D01*
Y7731301D01*
X6664099D01*
Y7705901D01*
X6638699D01*
Y7655101D01*
X6664099D01*
X6727600Y7284601D02*
Y7259201D01*
X6778400D01*
Y7284601D01*
X6803800D01*
Y7335401D01*
X6778400D01*
Y7360801D01*
X6727600D01*
Y7335401D01*
X6702200D01*
Y7284601D01*
X6727600D01*
X6219599D02*
Y7259201D01*
X6270399D01*
Y7284601D01*
X6295799D01*
Y7335401D01*
X6270399D01*
Y7360801D01*
X6219599D01*
Y7335401D01*
X6194199D01*
Y7284601D01*
X6219599D01*
X6092600D02*
Y7259201D01*
X6143400D01*
Y7284601D01*
X6168800D01*
Y7335401D01*
X6143400D01*
Y7360801D01*
X6092600D01*
Y7335401D01*
X6067200D01*
Y7284601D01*
X6092600D01*
X5838599D02*
Y7259201D01*
X5889399D01*
Y7284601D01*
X5914799D01*
Y7335401D01*
X5889399D01*
Y7360801D01*
X5838599D01*
Y7335401D01*
X5813199D01*
Y7284601D01*
X5838599D01*
X5711599D02*
Y7259201D01*
X5762399D01*
Y7284601D01*
X5787799D01*
Y7335401D01*
X5762399D01*
Y7360801D01*
X5711599D01*
Y7335401D01*
X5686199D01*
Y7284601D01*
X5711599D01*
X5575599D02*
Y7259201D01*
X5626399D01*
Y7284601D01*
X5651799D01*
Y7335401D01*
X5626399D01*
Y7360801D01*
X5575599D01*
Y7335401D01*
X5550199D01*
Y7284601D01*
X5575599D01*
X5775099Y7655101D02*
Y7629701D01*
X5825899D01*
Y7655101D01*
X5851299D01*
Y7705901D01*
X5825899D01*
Y7731301D01*
X5775099D01*
Y7705901D01*
X5749699D01*
Y7655101D01*
X5775099D01*
X4759099D02*
Y7629701D01*
X4809899D01*
Y7655101D01*
X4835299D01*
Y7705901D01*
X4809899D01*
Y7731301D01*
X4759099D01*
Y7705901D01*
X4733699D01*
Y7655101D01*
X4759099D01*
X4378101D02*
Y7629701D01*
X4428901D01*
Y7655101D01*
X4454301D01*
Y7705901D01*
X4428901D01*
Y7731301D01*
X4378101D01*
Y7705901D01*
X4352701D01*
Y7655101D01*
X4378101D01*
X4314599Y7284601D02*
Y7259201D01*
X4365399D01*
Y7284601D01*
X4390799D01*
Y7335401D01*
X4365399D01*
Y7360801D01*
X4314599D01*
Y7335401D01*
X4289199D01*
Y7284601D01*
X4314599D01*
X4251099Y7655101D02*
Y7629701D01*
X4301899D01*
Y7655101D01*
X4327299D01*
Y7705901D01*
X4301899D01*
Y7731301D01*
X4251099D01*
Y7705901D01*
X4225699D01*
Y7655101D01*
X4251099D01*
X4124099D02*
Y7629701D01*
X4174899D01*
Y7655101D01*
X4200299D01*
Y7705901D01*
X4174899D01*
Y7731301D01*
X4124099D01*
Y7705901D01*
X4098699D01*
Y7655101D01*
X4124099D01*
X3870099D02*
Y7629701D01*
X3920899D01*
Y7655101D01*
X3946299D01*
Y7705901D01*
X3920899D01*
Y7731301D01*
X3870099D01*
Y7705901D01*
X3844699D01*
Y7655101D01*
X3870099D01*
X3743099D02*
Y7629701D01*
X3793899D01*
Y7655101D01*
X3819299D01*
Y7705901D01*
X3793899D01*
Y7731301D01*
X3743099D01*
Y7705901D01*
X3717699D01*
Y7655101D01*
X3743099D01*
X5203599Y7284601D02*
Y7259201D01*
X5254399D01*
Y7284601D01*
X5279799D01*
Y7335401D01*
X5254399D01*
Y7360801D01*
X5203599D01*
Y7335401D01*
X5178199D01*
Y7284601D01*
X5203599D01*
X5076599D02*
Y7259201D01*
X5127399D01*
Y7284601D01*
X5152799D01*
Y7335401D01*
X5127399D01*
Y7360801D01*
X5076599D01*
Y7335401D01*
X5051199D01*
Y7284601D01*
X5076599D01*
X4695599D02*
Y7259201D01*
X4746399D01*
Y7284601D01*
X4771799D01*
Y7335401D01*
X4746399D01*
Y7360801D01*
X4695599D01*
Y7335401D01*
X4670199D01*
Y7284601D01*
X4695599D01*
X4568599D02*
Y7259201D01*
X4619399D01*
Y7284601D01*
X4644799D01*
Y7335401D01*
X4619399D01*
Y7360801D01*
X4568599D01*
Y7335401D01*
X4543199D01*
Y7284601D01*
X4568599D01*
X4441599D02*
Y7259201D01*
X4492399D01*
Y7284601D01*
X4517799D01*
Y7335401D01*
X4492399D01*
Y7360801D01*
X4441599D01*
Y7335401D01*
X4416199D01*
Y7284601D01*
X4441599D01*
X4187599D02*
Y7259201D01*
X4238399D01*
Y7284601D01*
X4263799D01*
Y7335401D01*
X4238399D01*
Y7360801D01*
X4187599D01*
Y7335401D01*
X4162199D01*
Y7284601D01*
X4187599D01*
X4060599D02*
Y7259201D01*
X4111399D01*
Y7284601D01*
X4136799D01*
Y7335401D01*
X4111399D01*
Y7360801D01*
X4060599D01*
Y7335401D01*
X4035199D01*
Y7284601D01*
X4060599D01*
X3933599D02*
Y7259201D01*
X3984399D01*
Y7284601D01*
X4009799D01*
Y7335401D01*
X3984399D01*
Y7360801D01*
X3933599D01*
Y7335401D01*
X3908199D01*
Y7284601D01*
X3933599D01*
X3806599D02*
Y7259201D01*
X3857399D01*
Y7284601D01*
X3882799D01*
Y7335401D01*
X3857399D01*
Y7360801D01*
X3806599D01*
Y7335401D01*
X3781199D01*
Y7284601D01*
X3806599D01*
X3235099Y7655101D02*
Y7629701D01*
X3285899D01*
Y7655101D01*
X3311299D01*
Y7705901D01*
X3285899D01*
Y7731301D01*
X3235099D01*
Y7705901D01*
X3209699D01*
Y7655101D01*
X3235099D01*
X3108099D02*
Y7629701D01*
X3158899D01*
Y7655101D01*
X3184299D01*
Y7705901D01*
X3158899D01*
Y7731301D01*
X3108099D01*
Y7705901D01*
X3082699D01*
Y7655101D01*
X3108099D01*
X3171599Y7284601D02*
Y7259201D01*
X3222399D01*
Y7284601D01*
X3247799D01*
Y7335401D01*
X3222399D01*
Y7360801D01*
X3171599D01*
Y7335401D01*
X3146199D01*
Y7284601D01*
X3171599D01*
X3425599D02*
Y7259201D01*
X3476399D01*
Y7284601D01*
X3501799D01*
Y7335401D01*
X3476399D01*
Y7360801D01*
X3425599D01*
Y7335401D01*
X3400199D01*
Y7284601D01*
X3425599D01*
X3616099Y7655101D02*
Y7629701D01*
X3666899D01*
Y7655101D01*
X3692299D01*
Y7705901D01*
X3666899D01*
Y7731301D01*
X3616099D01*
Y7705901D01*
X3590699D01*
Y7655101D01*
X3616099D01*
X7172099D02*
Y7629701D01*
X7222899D01*
Y7655101D01*
X7248299D01*
Y7705901D01*
X7222899D01*
Y7731301D01*
X7172099D01*
Y7705901D01*
X7146699D01*
Y7655101D01*
X7172099D01*
X6537099D02*
Y7629701D01*
X6587899D01*
Y7655101D01*
X6613299D01*
Y7705901D01*
X6587899D01*
Y7731301D01*
X6537099D01*
Y7705901D01*
X6511699D01*
Y7655101D01*
X6537099D01*
X6283099D02*
Y7629701D01*
X6333899D01*
Y7655101D01*
X6359299D01*
Y7705901D01*
X6333899D01*
Y7731301D01*
X6283099D01*
Y7705901D01*
X6257699D01*
Y7655101D01*
X6283099D01*
X6029099D02*
Y7629701D01*
X6079899D01*
Y7655101D01*
X6105299D01*
Y7705901D01*
X6079899D01*
Y7731301D01*
X6029099D01*
Y7705901D01*
X6003699D01*
Y7655101D01*
X6029099D01*
X5648099D02*
Y7629701D01*
X5698899D01*
Y7655101D01*
X5724299D01*
Y7705901D01*
X5698899D01*
Y7731301D01*
X5648099D01*
Y7705901D01*
X5622699D01*
Y7655101D01*
X5648099D01*
X5394099D02*
Y7629701D01*
X5444899D01*
Y7655101D01*
X5470299D01*
Y7705901D01*
X5444899D01*
Y7731301D01*
X5394099D01*
Y7705901D01*
X5368699D01*
Y7655101D01*
X5394099D01*
X5267099D02*
Y7629701D01*
X5317899D01*
Y7655101D01*
X5343299D01*
Y7705901D01*
X5317899D01*
Y7731301D01*
X5267099D01*
Y7705901D01*
X5241699D01*
Y7655101D01*
X5267099D01*
X5013099D02*
Y7629701D01*
X5063899D01*
Y7655101D01*
X5089299D01*
Y7705901D01*
X5063899D01*
Y7731301D01*
X5013099D01*
Y7705901D01*
X4987699D01*
Y7655101D01*
X5013099D01*
X3997099D02*
Y7629701D01*
X4047899D01*
Y7655101D01*
X4073299D01*
Y7705901D01*
X4047899D01*
Y7731301D01*
X3997099D01*
Y7705901D01*
X3971699D01*
Y7655101D01*
X3997099D01*
X3489099D02*
Y7629701D01*
X3539899D01*
Y7655101D01*
X3565299D01*
Y7705901D01*
X3539899D01*
Y7731301D01*
X3489099D01*
Y7705901D01*
X3463699D01*
Y7655101D01*
X3489099D01*
X7273701Y7293702D02*
X7299101Y7344502D01*
X7273701Y7395302D01*
X7324501Y7369902D01*
X7375301Y7395302D01*
X7349901Y7344502D01*
X7375301Y7293702D01*
X7324501Y7319102D01*
X7273701Y7293702D01*
X2981099Y7655101D02*
Y7629701D01*
X3031899D01*
Y7655101D01*
X3057299D01*
Y7705901D01*
X3031899D01*
Y7731301D01*
X2981099D01*
Y7705901D01*
X2955699D01*
Y7655101D01*
X2981099D01*
X2917599Y7284601D02*
Y7259201D01*
X2968399D01*
Y7284601D01*
X2993799D01*
Y7335401D01*
X2968399D01*
Y7360801D01*
X2917599D01*
Y7335401D01*
X2892199D01*
Y7284601D01*
X2917599D01*
X3679599D02*
Y7259201D01*
X3730399D01*
Y7284601D01*
X3755799D01*
Y7335401D01*
X3730399D01*
Y7360801D01*
X3679599D01*
Y7335401D01*
X3654199D01*
Y7284601D01*
X3679599D01*
X5965599D02*
Y7259201D01*
X6016399D01*
Y7284601D01*
X6041799D01*
Y7335401D01*
X6016399D01*
Y7360801D01*
X5965599D01*
Y7335401D01*
X5940199D01*
Y7284601D01*
X5965599D01*
X2701701Y7289201D02*
X2727101Y7340001D01*
X2701701Y7390801D01*
X2752501Y7365401D01*
X2803301Y7390801D01*
X2777901Y7340001D01*
X2803301Y7289201D01*
X2752501Y7314601D01*
X2701701Y7289201D01*
X2574701D02*
X2600101Y7340001D01*
X2574701Y7390801D01*
X2625501Y7365401D01*
X2676301Y7390801D01*
X2650901Y7340001D01*
X2676301Y7289201D01*
X2625501Y7314601D01*
X2574701Y7289201D01*
X3425599Y6963601D02*
Y6938201D01*
X3476399D01*
Y6963601D01*
X3501799D01*
Y7014401D01*
X3476399D01*
Y7039801D01*
X3425599D01*
Y7014401D01*
X3400199D01*
Y6963601D01*
X3425599D01*
X3171599D02*
Y6938201D01*
X3222399D01*
Y6963601D01*
X3247799D01*
Y7014401D01*
X3222399D01*
Y7039801D01*
X3171599D01*
Y7014401D01*
X3146199D01*
Y6963601D01*
X3171599D01*
X2917599D02*
Y6938201D01*
X2968399D01*
Y6963601D01*
X2993799D01*
Y7014401D01*
X2968399D01*
Y7039801D01*
X2917599D01*
Y7014401D01*
X2892199D01*
Y6963601D01*
X2917599D01*
X2981099Y7355101D02*
Y7329701D01*
X3031899D01*
Y7355101D01*
X3057299D01*
Y7405901D01*
X3031899D01*
Y7431301D01*
X2981099D01*
Y7405901D01*
X2955699D01*
Y7355101D01*
X2981099D01*
X4632099Y7655101D02*
Y7629701D01*
X4682899D01*
Y7655101D01*
X4708299D01*
Y7705901D01*
X4682899D01*
Y7731301D01*
X4632099D01*
Y7705901D01*
X4606699D01*
Y7655101D01*
X4632099D01*
X6346600Y7284601D02*
Y7259201D01*
X6397400D01*
Y7284601D01*
X6422800D01*
Y7335401D01*
X6397400D01*
Y7360801D01*
X6346600D01*
Y7335401D01*
X6321200D01*
Y7284601D01*
X6346600D01*
X6473600D02*
Y7259201D01*
X6524400D01*
Y7284601D01*
X6549800D01*
Y7335401D01*
X6524400D01*
Y7360801D01*
X6473600D01*
Y7335401D01*
X6448200D01*
Y7284601D01*
X6473600D01*
X6600600D02*
Y7259201D01*
X6651400D01*
Y7284601D01*
X6676800D01*
Y7335401D01*
X6651400D01*
Y7360801D01*
X6600600D01*
Y7335401D01*
X6575200D01*
Y7284601D01*
X6600600D01*
X6981600D02*
Y7259201D01*
X7032400D01*
Y7284601D01*
X7057800D01*
Y7335401D01*
X7032400D01*
Y7360801D01*
X6981600D01*
Y7335401D01*
X6956200D01*
Y7284601D01*
X6981600D01*
X7172099Y7355101D02*
Y7329701D01*
X7222899D01*
Y7355101D01*
X7248299D01*
Y7405901D01*
X7222899D01*
Y7431301D01*
X7172099D01*
Y7405901D01*
X7146699D01*
Y7355101D01*
X7172099D01*
X7045099D02*
Y7329701D01*
X7095899D01*
Y7355101D01*
X7121299D01*
Y7405901D01*
X7095899D01*
Y7431301D01*
X7045099D01*
Y7405901D01*
X7019699D01*
Y7355101D01*
X7045099D01*
X6918099D02*
Y7329701D01*
X6968899D01*
Y7355101D01*
X6994299D01*
Y7405901D01*
X6968899D01*
Y7431301D01*
X6918099D01*
Y7405901D01*
X6892699D01*
Y7355101D01*
X6918099D01*
X6791099D02*
Y7329701D01*
X6841899D01*
Y7355101D01*
X6867299D01*
Y7405901D01*
X6841899D01*
Y7431301D01*
X6791099D01*
Y7405901D01*
X6765699D01*
Y7355101D01*
X6791099D01*
X6727600Y6963601D02*
Y6938201D01*
X6778400D01*
Y6963601D01*
X6803800D01*
Y7014401D01*
X6778400D01*
Y7039801D01*
X6727600D01*
Y7014401D01*
X6702200D01*
Y6963601D01*
X6727600D01*
X6664099Y7355101D02*
Y7329701D01*
X6714899D01*
Y7355101D01*
X6740299D01*
Y7405901D01*
X6714899D01*
Y7431301D01*
X6664099D01*
Y7405901D01*
X6638699D01*
Y7355101D01*
X6664099D01*
X6537099D02*
Y7329701D01*
X6587899D01*
Y7355101D01*
X6613299D01*
Y7405901D01*
X6587899D01*
Y7431301D01*
X6537099D01*
Y7405901D01*
X6511699D01*
Y7355101D01*
X6537099D01*
X6092600Y6963601D02*
Y6938201D01*
X6143400D01*
Y6963601D01*
X6168800D01*
Y7014401D01*
X6143400D01*
Y7039801D01*
X6092600D01*
Y7014401D01*
X6067200D01*
Y6963601D01*
X6092600D01*
X6283099Y7355101D02*
Y7329701D01*
X6333899D01*
Y7355101D01*
X6359299D01*
Y7405901D01*
X6333899D01*
Y7431301D01*
X6283099D01*
Y7405901D01*
X6257699D01*
Y7355101D01*
X6283099D01*
X6029099D02*
Y7329701D01*
X6079899D01*
Y7355101D01*
X6105299D01*
Y7405901D01*
X6079899D01*
Y7431301D01*
X6029099D01*
Y7405901D01*
X6003699D01*
Y7355101D01*
X6029099D01*
X5775099D02*
Y7329701D01*
X5825899D01*
Y7355101D01*
X5851299D01*
Y7405901D01*
X5825899D01*
Y7431301D01*
X5775099D01*
Y7405901D01*
X5749699D01*
Y7355101D01*
X5775099D01*
X5648099D02*
Y7329701D01*
X5698899D01*
Y7355101D01*
X5724299D01*
Y7405901D01*
X5698899D01*
Y7431301D01*
X5648099D01*
Y7405901D01*
X5622699D01*
Y7355101D01*
X5648099D01*
X5394099D02*
Y7329701D01*
X5444899D01*
Y7355101D01*
X5470299D01*
Y7405901D01*
X5444899D01*
Y7431301D01*
X5394099D01*
Y7405901D01*
X5368699D01*
Y7355101D01*
X5394099D01*
X5267099D02*
Y7329701D01*
X5317899D01*
Y7355101D01*
X5343299D01*
Y7405901D01*
X5317899D01*
Y7431301D01*
X5267099D01*
Y7405901D01*
X5241699D01*
Y7355101D01*
X5267099D01*
X5076599Y6963601D02*
Y6938201D01*
X5127399D01*
Y6963601D01*
X5152799D01*
Y7014401D01*
X5127399D01*
Y7039801D01*
X5076599D01*
Y7014401D01*
X5051199D01*
Y6963601D01*
X5076599D01*
X5013099Y7355101D02*
Y7329701D01*
X5063899D01*
Y7355101D01*
X5089299D01*
Y7405901D01*
X5063899D01*
Y7431301D01*
X5013099D01*
Y7405901D01*
X4987699D01*
Y7355101D01*
X5013099D01*
X4949599Y6963601D02*
Y6938201D01*
X5000399D01*
Y6963601D01*
X5025799D01*
Y7014401D01*
X5000399D01*
Y7039801D01*
X4949599D01*
Y7014401D01*
X4924199D01*
Y6963601D01*
X4949599D01*
X4759099Y7355101D02*
Y7329701D01*
X4809899D01*
Y7355101D01*
X4835299D01*
Y7405901D01*
X4809899D01*
Y7431301D01*
X4759099D01*
Y7405901D01*
X4733699D01*
Y7355101D01*
X4759099D01*
X4441599Y6963601D02*
Y6938201D01*
X4492399D01*
Y6963601D01*
X4517799D01*
Y7014401D01*
X4492399D01*
Y7039801D01*
X4441599D01*
Y7014401D01*
X4416199D01*
Y6963601D01*
X4441599D01*
X4378101Y7355101D02*
Y7329701D01*
X4428901D01*
Y7355101D01*
X4454301D01*
Y7405901D01*
X4428901D01*
Y7431301D01*
X4378101D01*
Y7405901D01*
X4352701D01*
Y7355101D01*
X4378101D01*
X4251099D02*
Y7329701D01*
X4301899D01*
Y7355101D01*
X4327299D01*
Y7405901D01*
X4301899D01*
Y7431301D01*
X4251099D01*
Y7405901D01*
X4225699D01*
Y7355101D01*
X4251099D01*
X4124099D02*
Y7329701D01*
X4174899D01*
Y7355101D01*
X4200299D01*
Y7405901D01*
X4174899D01*
Y7431301D01*
X4124099D01*
Y7405901D01*
X4098699D01*
Y7355101D01*
X4124099D01*
X3997099D02*
Y7329701D01*
X4047899D01*
Y7355101D01*
X4073299D01*
Y7405901D01*
X4047899D01*
Y7431301D01*
X3997099D01*
Y7405901D01*
X3971699D01*
Y7355101D01*
X3997099D01*
X3870099D02*
Y7329701D01*
X3920899D01*
Y7355101D01*
X3946299D01*
Y7405901D01*
X3920899D01*
Y7431301D01*
X3870099D01*
Y7405901D01*
X3844699D01*
Y7355101D01*
X3870099D01*
X3743099D02*
Y7329701D01*
X3793899D01*
Y7355101D01*
X3819299D01*
Y7405901D01*
X3793899D01*
Y7431301D01*
X3743099D01*
Y7405901D01*
X3717699D01*
Y7355101D01*
X3743099D01*
X3679599Y6963601D02*
Y6938201D01*
X3730399D01*
Y6963601D01*
X3755799D01*
Y7014401D01*
X3730399D01*
Y7039801D01*
X3679599D01*
Y7014401D01*
X3654199D01*
Y6963601D01*
X3679599D01*
X3235099Y7355101D02*
Y7329701D01*
X3285899D01*
Y7355101D01*
X3311299D01*
Y7405901D01*
X3285899D01*
Y7431301D01*
X3235099D01*
Y7405901D01*
X3209699D01*
Y7355101D01*
X3235099D01*
X3616099D02*
Y7329701D01*
X3666899D01*
Y7355101D01*
X3692299D01*
Y7405901D01*
X3666899D01*
Y7431301D01*
X3616099D01*
Y7405901D01*
X3590699D01*
Y7355101D01*
X3616099D01*
X3489099D02*
Y7329701D01*
X3539899D01*
Y7355101D01*
X3565299D01*
Y7405901D01*
X3539899D01*
Y7431301D01*
X3489099D01*
Y7405901D01*
X3463699D01*
Y7355101D01*
X3489099D01*
X4886099Y7655101D02*
Y7629701D01*
X4936899D01*
Y7655101D01*
X4962299D01*
Y7705901D01*
X4936899D01*
Y7731301D01*
X4886099D01*
Y7705901D01*
X4860699D01*
Y7655101D01*
X4886099D01*
X6410100D02*
Y7629701D01*
X6460900D01*
Y7655101D01*
X6486300D01*
Y7705901D01*
X6460900D01*
Y7731301D01*
X6410100D01*
Y7705901D01*
X6384700D01*
Y7655101D01*
X6410100D01*
X5902099D02*
Y7629701D01*
X5952899D01*
Y7655101D01*
X5978299D01*
Y7705901D01*
X5952899D01*
Y7731301D01*
X5902099D01*
Y7705901D01*
X5876699D01*
Y7655101D01*
X5902099D01*
X7108599Y7284601D02*
Y7259201D01*
X7159399D01*
Y7284601D01*
X7184799D01*
Y7335401D01*
X7159399D01*
Y7360801D01*
X7108599D01*
Y7335401D01*
X7083199D01*
Y7284601D01*
X7108599D01*
X5140099Y7655101D02*
Y7629701D01*
X5190899D01*
Y7655101D01*
X5216299D01*
Y7705901D01*
X5190899D01*
Y7731301D01*
X5140099D01*
Y7705901D01*
X5114699D01*
Y7655101D01*
X5140099D01*
X4505099D02*
Y7629701D01*
X4555899D01*
Y7655101D01*
X4581299D01*
Y7705901D01*
X4555899D01*
Y7731301D01*
X4505099D01*
Y7705901D01*
X4479699D01*
Y7655101D01*
X4505099D01*
X3362099Y7244476D02*
Y7219076D01*
X3412899D01*
Y7244476D01*
X3438299D01*
Y7295276D01*
X3412899D01*
Y7320676D01*
X3362099D01*
Y7295276D01*
X3336699D01*
Y7244476D01*
X3362099D01*
Y7655101D02*
Y7629701D01*
X3412899D01*
Y7655101D01*
X3438299D01*
Y7705901D01*
X3412899D01*
Y7731301D01*
X3362099D01*
Y7705901D01*
X3336699D01*
Y7655101D01*
X3362099D01*
X3108099Y7244476D02*
Y7219076D01*
X3158899D01*
Y7244476D01*
X3184299D01*
Y7295276D01*
X3158899D01*
Y7320676D01*
X3108099D01*
Y7295276D01*
X3082699D01*
Y7244476D01*
X3108099D01*
X2854101D02*
Y7219076D01*
X2904901D01*
Y7244476D01*
X2930301D01*
Y7295276D01*
X2904901D01*
Y7320676D01*
X2854101D01*
Y7295276D01*
X2828701D01*
Y7244476D01*
X2854101D01*
X3616099Y7244501D02*
Y7219101D01*
X3666899D01*
Y7244501D01*
X3692299D01*
Y7295301D01*
X3666899D01*
Y7320701D01*
X3616099D01*
Y7295301D01*
X3590699D01*
Y7244501D01*
X3616099D01*
X6156099Y7655101D02*
Y7629701D01*
X6206899D01*
Y7655101D01*
X6232299D01*
Y7705901D01*
X6206899D01*
Y7731301D01*
X6156099D01*
Y7705901D01*
X6130699D01*
Y7655101D01*
X6156099D01*
X3806599Y5253601D02*
Y5228201D01*
X3857399D01*
Y5253601D01*
X3882799D01*
Y5304401D01*
X3857399D01*
Y5329801D01*
X3806599D01*
Y5304401D01*
X3781199D01*
Y5253601D01*
X3806599D01*
X3933599D02*
Y5228201D01*
X3984399D01*
Y5253601D01*
X4009799D01*
Y5304401D01*
X3984399D01*
Y5329801D01*
X3933599D01*
Y5304401D01*
X3908199D01*
Y5253601D01*
X3933599D01*
X4060599D02*
Y5228201D01*
X4111399D01*
Y5253601D01*
X4136799D01*
Y5304401D01*
X4111399D01*
Y5329801D01*
X4060599D01*
Y5304401D01*
X4035199D01*
Y5253601D01*
X4060599D01*
X4187599D02*
Y5228201D01*
X4238399D01*
Y5253601D01*
X4263799D01*
Y5304401D01*
X4238399D01*
Y5329801D01*
X4187599D01*
Y5304401D01*
X4162199D01*
Y5253601D01*
X4187599D01*
X4314599D02*
Y5228201D01*
X4365399D01*
Y5253601D01*
X4390799D01*
Y5304401D01*
X4365399D01*
Y5329801D01*
X4314599D01*
Y5304401D01*
X4289199D01*
Y5253601D01*
X4314599D01*
X4568599D02*
Y5228201D01*
X4619399D01*
Y5253601D01*
X4644799D01*
Y5304401D01*
X4619399D01*
Y5329801D01*
X4568599D01*
Y5304401D01*
X4543199D01*
Y5253601D01*
X4568599D01*
X4695599D02*
Y5228201D01*
X4746399D01*
Y5253601D01*
X4771799D01*
Y5304401D01*
X4746399D01*
Y5329801D01*
X4695599D01*
Y5304401D01*
X4670199D01*
Y5253601D01*
X4695599D01*
X4822599D02*
Y5228201D01*
X4873399D01*
Y5253601D01*
X4898799D01*
Y5304401D01*
X4873399D01*
Y5329801D01*
X4822599D01*
Y5304401D01*
X4797199D01*
Y5253601D01*
X4822599D01*
X5203599D02*
Y5228201D01*
X5254399D01*
Y5253601D01*
X5279799D01*
Y5304401D01*
X5254399D01*
Y5329801D01*
X5203599D01*
Y5304401D01*
X5178199D01*
Y5253601D01*
X5203599D01*
X5329376D02*
Y5228201D01*
X5380176D01*
Y5253601D01*
X5405576D01*
Y5304401D01*
X5380176D01*
Y5329801D01*
X5329376D01*
Y5304401D01*
X5303976D01*
Y5253601D01*
X5329376D01*
X5575599D02*
Y5228201D01*
X5626399D01*
Y5253601D01*
X5651799D01*
Y5304401D01*
X5626399D01*
Y5329801D01*
X5575599D01*
Y5304401D01*
X5550199D01*
Y5253601D01*
X5575599D01*
X5711599D02*
Y5228201D01*
X5762399D01*
Y5253601D01*
X5787799D01*
Y5304401D01*
X5762399D01*
Y5329801D01*
X5711599D01*
Y5304401D01*
X5686199D01*
Y5253601D01*
X5711599D01*
X5838599D02*
Y5228201D01*
X5889399D01*
Y5253601D01*
X5914799D01*
Y5304401D01*
X5889399D01*
Y5329801D01*
X5838599D01*
Y5304401D01*
X5813199D01*
Y5253601D01*
X5838599D01*
X6219599D02*
Y5228201D01*
X6270399D01*
Y5253601D01*
X6295799D01*
Y5304401D01*
X6270399D01*
Y5329801D01*
X6219599D01*
Y5304401D01*
X6194199D01*
Y5253601D01*
X6219599D01*
X6346600D02*
Y5228201D01*
X6397400D01*
Y5253601D01*
X6422800D01*
Y5304401D01*
X6397400D01*
Y5329801D01*
X6346600D01*
Y5304401D01*
X6321200D01*
Y5253601D01*
X6346600D01*
X6473600D02*
Y5228201D01*
X6524400D01*
Y5253601D01*
X6549800D01*
Y5304401D01*
X6524400D01*
Y5329801D01*
X6473600D01*
Y5304401D01*
X6448200D01*
Y5253601D01*
X6473600D01*
X6600600D02*
Y5228201D01*
X6651400D01*
Y5253601D01*
X6676800D01*
Y5304401D01*
X6651400D01*
Y5329801D01*
X6600600D01*
Y5304401D01*
X6575200D01*
Y5253601D01*
X6600600D01*
X6854599D02*
Y5228201D01*
X6905399D01*
Y5253601D01*
X6930799D01*
Y5304401D01*
X6905399D01*
Y5329801D01*
X6854599D01*
Y5304401D01*
X6829199D01*
Y5253601D01*
X6854599D01*
X6981600D02*
Y5228201D01*
X7032400D01*
Y5253601D01*
X7057800D01*
Y5304401D01*
X7032400D01*
Y5329801D01*
X6981600D01*
Y5304401D01*
X6956200D01*
Y5253601D01*
X6981600D01*
X4822599Y5574601D02*
Y5549201D01*
X4873399D01*
Y5574601D01*
X4898799D01*
Y5625401D01*
X4873399D01*
Y5650801D01*
X4822599D01*
Y5625401D01*
X4797199D01*
Y5574601D01*
X4822599D01*
X4949599D02*
Y5549201D01*
X5000399D01*
Y5574601D01*
X5025799D01*
Y5625401D01*
X5000399D01*
Y5650801D01*
X4949599D01*
Y5625401D01*
X4924199D01*
Y5574601D01*
X4949599D01*
X7045099Y5945101D02*
Y5919701D01*
X7095899D01*
Y5945101D01*
X7121299D01*
Y5995901D01*
X7095899D01*
Y6021301D01*
X7045099D01*
Y5995901D01*
X7019699D01*
Y5945101D01*
X7045099D01*
X6918099D02*
Y5919701D01*
X6968899D01*
Y5945101D01*
X6994299D01*
Y5995901D01*
X6968899D01*
Y6021301D01*
X6918099D01*
Y5995901D01*
X6892699D01*
Y5945101D01*
X6918099D01*
X6854599Y5574601D02*
Y5549201D01*
X6905399D01*
Y5574601D01*
X6930799D01*
Y5625401D01*
X6905399D01*
Y5650801D01*
X6854599D01*
Y5625401D01*
X6829199D01*
Y5574601D01*
X6854599D01*
X6791099Y5945101D02*
Y5919701D01*
X6841899D01*
Y5945101D01*
X6867299D01*
Y5995901D01*
X6841899D01*
Y6021301D01*
X6791099D01*
Y5995901D01*
X6765699D01*
Y5945101D01*
X6791099D01*
X6664099D02*
Y5919701D01*
X6714899D01*
Y5945101D01*
X6740299D01*
Y5995901D01*
X6714899D01*
Y6021301D01*
X6664099D01*
Y5995901D01*
X6638699D01*
Y5945101D01*
X6664099D01*
X6727600Y5574601D02*
Y5549201D01*
X6778400D01*
Y5574601D01*
X6803800D01*
Y5625401D01*
X6778400D01*
Y5650801D01*
X6727600D01*
Y5625401D01*
X6702200D01*
Y5574601D01*
X6727600D01*
X6219599D02*
Y5549201D01*
X6270399D01*
Y5574601D01*
X6295799D01*
Y5625401D01*
X6270399D01*
Y5650801D01*
X6219599D01*
Y5625401D01*
X6194199D01*
Y5574601D01*
X6219599D01*
X6092600D02*
Y5549201D01*
X6143400D01*
Y5574601D01*
X6168800D01*
Y5625401D01*
X6143400D01*
Y5650801D01*
X6092600D01*
Y5625401D01*
X6067200D01*
Y5574601D01*
X6092600D01*
X5838599D02*
Y5549201D01*
X5889399D01*
Y5574601D01*
X5914799D01*
Y5625401D01*
X5889399D01*
Y5650801D01*
X5838599D01*
Y5625401D01*
X5813199D01*
Y5574601D01*
X5838599D01*
X5711599D02*
Y5549201D01*
X5762399D01*
Y5574601D01*
X5787799D01*
Y5625401D01*
X5762399D01*
Y5650801D01*
X5711599D01*
Y5625401D01*
X5686199D01*
Y5574601D01*
X5711599D01*
X5575599D02*
Y5549201D01*
X5626399D01*
Y5574601D01*
X5651799D01*
Y5625401D01*
X5626399D01*
Y5650801D01*
X5575599D01*
Y5625401D01*
X5550199D01*
Y5574601D01*
X5575599D01*
X5775099Y5945101D02*
Y5919701D01*
X5825899D01*
Y5945101D01*
X5851299D01*
Y5995901D01*
X5825899D01*
Y6021301D01*
X5775099D01*
Y5995901D01*
X5749699D01*
Y5945101D01*
X5775099D01*
X4759099D02*
Y5919701D01*
X4809899D01*
Y5945101D01*
X4835299D01*
Y5995901D01*
X4809899D01*
Y6021301D01*
X4759099D01*
Y5995901D01*
X4733699D01*
Y5945101D01*
X4759099D01*
X4378101D02*
Y5919701D01*
X4428901D01*
Y5945101D01*
X4454301D01*
Y5995901D01*
X4428901D01*
Y6021301D01*
X4378101D01*
Y5995901D01*
X4352701D01*
Y5945101D01*
X4378101D01*
X4314599Y5574601D02*
Y5549201D01*
X4365399D01*
Y5574601D01*
X4390799D01*
Y5625401D01*
X4365399D01*
Y5650801D01*
X4314599D01*
Y5625401D01*
X4289199D01*
Y5574601D01*
X4314599D01*
X4251099Y5945101D02*
Y5919701D01*
X4301899D01*
Y5945101D01*
X4327299D01*
Y5995901D01*
X4301899D01*
Y6021301D01*
X4251099D01*
Y5995901D01*
X4225699D01*
Y5945101D01*
X4251099D01*
X4124099D02*
Y5919701D01*
X4174899D01*
Y5945101D01*
X4200299D01*
Y5995901D01*
X4174899D01*
Y6021301D01*
X4124099D01*
Y5995901D01*
X4098699D01*
Y5945101D01*
X4124099D01*
X3870099D02*
Y5919701D01*
X3920899D01*
Y5945101D01*
X3946299D01*
Y5995901D01*
X3920899D01*
Y6021301D01*
X3870099D01*
Y5995901D01*
X3844699D01*
Y5945101D01*
X3870099D01*
X3743099D02*
Y5919701D01*
X3793899D01*
Y5945101D01*
X3819299D01*
Y5995901D01*
X3793899D01*
Y6021301D01*
X3743099D01*
Y5995901D01*
X3717699D01*
Y5945101D01*
X3743099D01*
X5203599Y5574601D02*
Y5549201D01*
X5254399D01*
Y5574601D01*
X5279799D01*
Y5625401D01*
X5254399D01*
Y5650801D01*
X5203599D01*
Y5625401D01*
X5178199D01*
Y5574601D01*
X5203599D01*
X5076599D02*
Y5549201D01*
X5127399D01*
Y5574601D01*
X5152799D01*
Y5625401D01*
X5127399D01*
Y5650801D01*
X5076599D01*
Y5625401D01*
X5051199D01*
Y5574601D01*
X5076599D01*
X4695599D02*
Y5549201D01*
X4746399D01*
Y5574601D01*
X4771799D01*
Y5625401D01*
X4746399D01*
Y5650801D01*
X4695599D01*
Y5625401D01*
X4670199D01*
Y5574601D01*
X4695599D01*
X4568599D02*
Y5549201D01*
X4619399D01*
Y5574601D01*
X4644799D01*
Y5625401D01*
X4619399D01*
Y5650801D01*
X4568599D01*
Y5625401D01*
X4543199D01*
Y5574601D01*
X4568599D01*
X4441599D02*
Y5549201D01*
X4492399D01*
Y5574601D01*
X4517799D01*
Y5625401D01*
X4492399D01*
Y5650801D01*
X4441599D01*
Y5625401D01*
X4416199D01*
Y5574601D01*
X4441599D01*
X4187599D02*
Y5549201D01*
X4238399D01*
Y5574601D01*
X4263799D01*
Y5625401D01*
X4238399D01*
Y5650801D01*
X4187599D01*
Y5625401D01*
X4162199D01*
Y5574601D01*
X4187599D01*
X4060599D02*
Y5549201D01*
X4111399D01*
Y5574601D01*
X4136799D01*
Y5625401D01*
X4111399D01*
Y5650801D01*
X4060599D01*
Y5625401D01*
X4035199D01*
Y5574601D01*
X4060599D01*
X3933599D02*
Y5549201D01*
X3984399D01*
Y5574601D01*
X4009799D01*
Y5625401D01*
X3984399D01*
Y5650801D01*
X3933599D01*
Y5625401D01*
X3908199D01*
Y5574601D01*
X3933599D01*
X3806599D02*
Y5549201D01*
X3857399D01*
Y5574601D01*
X3882799D01*
Y5625401D01*
X3857399D01*
Y5650801D01*
X3806599D01*
Y5625401D01*
X3781199D01*
Y5574601D01*
X3806599D01*
X3235099Y5945101D02*
Y5919701D01*
X3285899D01*
Y5945101D01*
X3311299D01*
Y5995901D01*
X3285899D01*
Y6021301D01*
X3235099D01*
Y5995901D01*
X3209699D01*
Y5945101D01*
X3235099D01*
X3108099D02*
Y5919701D01*
X3158899D01*
Y5945101D01*
X3184299D01*
Y5995901D01*
X3158899D01*
Y6021301D01*
X3108099D01*
Y5995901D01*
X3082699D01*
Y5945101D01*
X3108099D01*
X3171599Y5574601D02*
Y5549201D01*
X3222399D01*
Y5574601D01*
X3247799D01*
Y5625401D01*
X3222399D01*
Y5650801D01*
X3171599D01*
Y5625401D01*
X3146199D01*
Y5574601D01*
X3171599D01*
X3425599D02*
Y5549201D01*
X3476399D01*
Y5574601D01*
X3501799D01*
Y5625401D01*
X3476399D01*
Y5650801D01*
X3425599D01*
Y5625401D01*
X3400199D01*
Y5574601D01*
X3425599D01*
X3616099Y5945101D02*
Y5919701D01*
X3666899D01*
Y5945101D01*
X3692299D01*
Y5995901D01*
X3666899D01*
Y6021301D01*
X3616099D01*
Y5995901D01*
X3590699D01*
Y5945101D01*
X3616099D01*
X7172099D02*
Y5919701D01*
X7222899D01*
Y5945101D01*
X7248299D01*
Y5995901D01*
X7222899D01*
Y6021301D01*
X7172099D01*
Y5995901D01*
X7146699D01*
Y5945101D01*
X7172099D01*
X6537099D02*
Y5919701D01*
X6587899D01*
Y5945101D01*
X6613299D01*
Y5995901D01*
X6587899D01*
Y6021301D01*
X6537099D01*
Y5995901D01*
X6511699D01*
Y5945101D01*
X6537099D01*
X6283099D02*
Y5919701D01*
X6333899D01*
Y5945101D01*
X6359299D01*
Y5995901D01*
X6333899D01*
Y6021301D01*
X6283099D01*
Y5995901D01*
X6257699D01*
Y5945101D01*
X6283099D01*
X6029099D02*
Y5919701D01*
X6079899D01*
Y5945101D01*
X6105299D01*
Y5995901D01*
X6079899D01*
Y6021301D01*
X6029099D01*
Y5995901D01*
X6003699D01*
Y5945101D01*
X6029099D01*
X5648099D02*
Y5919701D01*
X5698899D01*
Y5945101D01*
X5724299D01*
Y5995901D01*
X5698899D01*
Y6021301D01*
X5648099D01*
Y5995901D01*
X5622699D01*
Y5945101D01*
X5648099D01*
X5394099D02*
Y5919701D01*
X5444899D01*
Y5945101D01*
X5470299D01*
Y5995901D01*
X5444899D01*
Y6021301D01*
X5394099D01*
Y5995901D01*
X5368699D01*
Y5945101D01*
X5394099D01*
X5267099D02*
Y5919701D01*
X5317899D01*
Y5945101D01*
X5343299D01*
Y5995901D01*
X5317899D01*
Y6021301D01*
X5267099D01*
Y5995901D01*
X5241699D01*
Y5945101D01*
X5267099D01*
X5013099D02*
Y5919701D01*
X5063899D01*
Y5945101D01*
X5089299D01*
Y5995901D01*
X5063899D01*
Y6021301D01*
X5013099D01*
Y5995901D01*
X4987699D01*
Y5945101D01*
X5013099D01*
X3997099D02*
Y5919701D01*
X4047899D01*
Y5945101D01*
X4073299D01*
Y5995901D01*
X4047899D01*
Y6021301D01*
X3997099D01*
Y5995901D01*
X3971699D01*
Y5945101D01*
X3997099D01*
X3489099D02*
Y5919701D01*
X3539899D01*
Y5945101D01*
X3565299D01*
Y5995901D01*
X3539899D01*
Y6021301D01*
X3489099D01*
Y5995901D01*
X3463699D01*
Y5945101D01*
X3489099D01*
X7273701Y5583702D02*
X7299101Y5634502D01*
X7273701Y5685302D01*
X7324501Y5659902D01*
X7375301Y5685302D01*
X7349901Y5634502D01*
X7375301Y5583702D01*
X7324501Y5609102D01*
X7273701Y5583702D01*
X2981099Y5945101D02*
Y5919701D01*
X3031899D01*
Y5945101D01*
X3057299D01*
Y5995901D01*
X3031899D01*
Y6021301D01*
X2981099D01*
Y5995901D01*
X2955699D01*
Y5945101D01*
X2981099D01*
X2917599Y5574601D02*
Y5549201D01*
X2968399D01*
Y5574601D01*
X2993799D01*
Y5625401D01*
X2968399D01*
Y5650801D01*
X2917599D01*
Y5625401D01*
X2892199D01*
Y5574601D01*
X2917599D01*
X3679599D02*
Y5549201D01*
X3730399D01*
Y5574601D01*
X3755799D01*
Y5625401D01*
X3730399D01*
Y5650801D01*
X3679599D01*
Y5625401D01*
X3654199D01*
Y5574601D01*
X3679599D01*
X5965599D02*
Y5549201D01*
X6016399D01*
Y5574601D01*
X6041799D01*
Y5625401D01*
X6016399D01*
Y5650801D01*
X5965599D01*
Y5625401D01*
X5940199D01*
Y5574601D01*
X5965599D01*
X2854099Y5945100D02*
Y5919700D01*
X2904899D01*
Y5945100D01*
X2930299D01*
Y5995900D01*
X2904899D01*
Y6021300D01*
X2854099D01*
Y5995900D01*
X2828699D01*
Y5945100D01*
X2854099D01*
X2701701Y5579201D02*
X2727101Y5630001D01*
X2701701Y5680801D01*
X2752501Y5655401D01*
X2803301Y5680801D01*
X2777901Y5630001D01*
X2803301Y5579201D01*
X2752501Y5604601D01*
X2701701Y5579201D01*
X2574701D02*
X2600101Y5630001D01*
X2574701Y5680801D01*
X2625501Y5655401D01*
X2676301Y5680801D01*
X2650901Y5630001D01*
X2676301Y5579201D01*
X2625501Y5604601D01*
X2574701Y5579201D01*
X3425599Y5253601D02*
Y5228201D01*
X3476399D01*
Y5253601D01*
X3501799D01*
Y5304401D01*
X3476399D01*
Y5329801D01*
X3425599D01*
Y5304401D01*
X3400199D01*
Y5253601D01*
X3425599D01*
X3171599D02*
Y5228201D01*
X3222399D01*
Y5253601D01*
X3247799D01*
Y5304401D01*
X3222399D01*
Y5329801D01*
X3171599D01*
Y5304401D01*
X3146199D01*
Y5253601D01*
X3171599D01*
X2917599D02*
Y5228201D01*
X2968399D01*
Y5253601D01*
X2993799D01*
Y5304401D01*
X2968399D01*
Y5329801D01*
X2917599D01*
Y5304401D01*
X2892199D01*
Y5253601D01*
X2917599D01*
X2981099Y5645101D02*
Y5619701D01*
X3031899D01*
Y5645101D01*
X3057299D01*
Y5695901D01*
X3031899D01*
Y5721301D01*
X2981099D01*
Y5695901D01*
X2955699D01*
Y5645101D01*
X2981099D01*
X4632099Y5945101D02*
Y5919701D01*
X4682899D01*
Y5945101D01*
X4708299D01*
Y5995901D01*
X4682899D01*
Y6021301D01*
X4632099D01*
Y5995901D01*
X4606699D01*
Y5945101D01*
X4632099D01*
X6346600Y5574601D02*
Y5549201D01*
X6397400D01*
Y5574601D01*
X6422800D01*
Y5625401D01*
X6397400D01*
Y5650801D01*
X6346600D01*
Y5625401D01*
X6321200D01*
Y5574601D01*
X6346600D01*
X6473600D02*
Y5549201D01*
X6524400D01*
Y5574601D01*
X6549800D01*
Y5625401D01*
X6524400D01*
Y5650801D01*
X6473600D01*
Y5625401D01*
X6448200D01*
Y5574601D01*
X6473600D01*
X6600600D02*
Y5549201D01*
X6651400D01*
Y5574601D01*
X6676800D01*
Y5625401D01*
X6651400D01*
Y5650801D01*
X6600600D01*
Y5625401D01*
X6575200D01*
Y5574601D01*
X6600600D01*
X6981600D02*
Y5549201D01*
X7032400D01*
Y5574601D01*
X7057800D01*
Y5625401D01*
X7032400D01*
Y5650801D01*
X6981600D01*
Y5625401D01*
X6956200D01*
Y5574601D01*
X6981600D01*
X7172099Y5645101D02*
Y5619701D01*
X7222899D01*
Y5645101D01*
X7248299D01*
Y5695901D01*
X7222899D01*
Y5721301D01*
X7172099D01*
Y5695901D01*
X7146699D01*
Y5645101D01*
X7172099D01*
X7045099D02*
Y5619701D01*
X7095899D01*
Y5645101D01*
X7121299D01*
Y5695901D01*
X7095899D01*
Y5721301D01*
X7045099D01*
Y5695901D01*
X7019699D01*
Y5645101D01*
X7045099D01*
X6918099D02*
Y5619701D01*
X6968899D01*
Y5645101D01*
X6994299D01*
Y5695901D01*
X6968899D01*
Y5721301D01*
X6918099D01*
Y5695901D01*
X6892699D01*
Y5645101D01*
X6918099D01*
X6791099D02*
Y5619701D01*
X6841899D01*
Y5645101D01*
X6867299D01*
Y5695901D01*
X6841899D01*
Y5721301D01*
X6791099D01*
Y5695901D01*
X6765699D01*
Y5645101D01*
X6791099D01*
X6727600Y5253601D02*
Y5228201D01*
X6778400D01*
Y5253601D01*
X6803800D01*
Y5304401D01*
X6778400D01*
Y5329801D01*
X6727600D01*
Y5304401D01*
X6702200D01*
Y5253601D01*
X6727600D01*
X6664099Y5645101D02*
Y5619701D01*
X6714899D01*
Y5645101D01*
X6740299D01*
Y5695901D01*
X6714899D01*
Y5721301D01*
X6664099D01*
Y5695901D01*
X6638699D01*
Y5645101D01*
X6664099D01*
X6537099D02*
Y5619701D01*
X6587899D01*
Y5645101D01*
X6613299D01*
Y5695901D01*
X6587899D01*
Y5721301D01*
X6537099D01*
Y5695901D01*
X6511699D01*
Y5645101D01*
X6537099D01*
X6092600Y5253601D02*
Y5228201D01*
X6143400D01*
Y5253601D01*
X6168800D01*
Y5304401D01*
X6143400D01*
Y5329801D01*
X6092600D01*
Y5304401D01*
X6067200D01*
Y5253601D01*
X6092600D01*
X6283099Y5645101D02*
Y5619701D01*
X6333899D01*
Y5645101D01*
X6359299D01*
Y5695901D01*
X6333899D01*
Y5721301D01*
X6283099D01*
Y5695901D01*
X6257699D01*
Y5645101D01*
X6283099D01*
X6029099D02*
Y5619701D01*
X6079899D01*
Y5645101D01*
X6105299D01*
Y5695901D01*
X6079899D01*
Y5721301D01*
X6029099D01*
Y5695901D01*
X6003699D01*
Y5645101D01*
X6029099D01*
X5775099D02*
Y5619701D01*
X5825899D01*
Y5645101D01*
X5851299D01*
Y5695901D01*
X5825899D01*
Y5721301D01*
X5775099D01*
Y5695901D01*
X5749699D01*
Y5645101D01*
X5775099D01*
X5648099D02*
Y5619701D01*
X5698899D01*
Y5645101D01*
X5724299D01*
Y5695901D01*
X5698899D01*
Y5721301D01*
X5648099D01*
Y5695901D01*
X5622699D01*
Y5645101D01*
X5648099D01*
X5394099D02*
Y5619701D01*
X5444899D01*
Y5645101D01*
X5470299D01*
Y5695901D01*
X5444899D01*
Y5721301D01*
X5394099D01*
Y5695901D01*
X5368699D01*
Y5645101D01*
X5394099D01*
X5267099D02*
Y5619701D01*
X5317899D01*
Y5645101D01*
X5343299D01*
Y5695901D01*
X5317899D01*
Y5721301D01*
X5267099D01*
Y5695901D01*
X5241699D01*
Y5645101D01*
X5267099D01*
X5076599Y5253601D02*
Y5228201D01*
X5127399D01*
Y5253601D01*
X5152799D01*
Y5304401D01*
X5127399D01*
Y5329801D01*
X5076599D01*
Y5304401D01*
X5051199D01*
Y5253601D01*
X5076599D01*
X5013099Y5645101D02*
Y5619701D01*
X5063899D01*
Y5645101D01*
X5089299D01*
Y5695901D01*
X5063899D01*
Y5721301D01*
X5013099D01*
Y5695901D01*
X4987699D01*
Y5645101D01*
X5013099D01*
X4949599Y5253601D02*
Y5228201D01*
X5000399D01*
Y5253601D01*
X5025799D01*
Y5304401D01*
X5000399D01*
Y5329801D01*
X4949599D01*
Y5304401D01*
X4924199D01*
Y5253601D01*
X4949599D01*
X4759099Y5645101D02*
Y5619701D01*
X4809899D01*
Y5645101D01*
X4835299D01*
Y5695901D01*
X4809899D01*
Y5721301D01*
X4759099D01*
Y5695901D01*
X4733699D01*
Y5645101D01*
X4759099D01*
X4441599Y5253601D02*
Y5228201D01*
X4492399D01*
Y5253601D01*
X4517799D01*
Y5304401D01*
X4492399D01*
Y5329801D01*
X4441599D01*
Y5304401D01*
X4416199D01*
Y5253601D01*
X4441599D01*
X4378101Y5645101D02*
Y5619701D01*
X4428901D01*
Y5645101D01*
X4454301D01*
Y5695901D01*
X4428901D01*
Y5721301D01*
X4378101D01*
Y5695901D01*
X4352701D01*
Y5645101D01*
X4378101D01*
X4251099D02*
Y5619701D01*
X4301899D01*
Y5645101D01*
X4327299D01*
Y5695901D01*
X4301899D01*
Y5721301D01*
X4251099D01*
Y5695901D01*
X4225699D01*
Y5645101D01*
X4251099D01*
X4124099D02*
Y5619701D01*
X4174899D01*
Y5645101D01*
X4200299D01*
Y5695901D01*
X4174899D01*
Y5721301D01*
X4124099D01*
Y5695901D01*
X4098699D01*
Y5645101D01*
X4124099D01*
X3997099D02*
Y5619701D01*
X4047899D01*
Y5645101D01*
X4073299D01*
Y5695901D01*
X4047899D01*
Y5721301D01*
X3997099D01*
Y5695901D01*
X3971699D01*
Y5645101D01*
X3997099D01*
X3870099D02*
Y5619701D01*
X3920899D01*
Y5645101D01*
X3946299D01*
Y5695901D01*
X3920899D01*
Y5721301D01*
X3870099D01*
Y5695901D01*
X3844699D01*
Y5645101D01*
X3870099D01*
X3743099D02*
Y5619701D01*
X3793899D01*
Y5645101D01*
X3819299D01*
Y5695901D01*
X3793899D01*
Y5721301D01*
X3743099D01*
Y5695901D01*
X3717699D01*
Y5645101D01*
X3743099D01*
X3679599Y5253601D02*
Y5228201D01*
X3730399D01*
Y5253601D01*
X3755799D01*
Y5304401D01*
X3730399D01*
Y5329801D01*
X3679599D01*
Y5304401D01*
X3654199D01*
Y5253601D01*
X3679599D01*
X3235099Y5645101D02*
Y5619701D01*
X3285899D01*
Y5645101D01*
X3311299D01*
Y5695901D01*
X3285899D01*
Y5721301D01*
X3235099D01*
Y5695901D01*
X3209699D01*
Y5645101D01*
X3235099D01*
X3616099D02*
Y5619701D01*
X3666899D01*
Y5645101D01*
X3692299D01*
Y5695901D01*
X3666899D01*
Y5721301D01*
X3616099D01*
Y5695901D01*
X3590699D01*
Y5645101D01*
X3616099D01*
X3489099D02*
Y5619701D01*
X3539899D01*
Y5645101D01*
X3565299D01*
Y5695901D01*
X3539899D01*
Y5721301D01*
X3489099D01*
Y5695901D01*
X3463699D01*
Y5645101D01*
X3489099D01*
X4886099Y5945101D02*
Y5919701D01*
X4936899D01*
Y5945101D01*
X4962299D01*
Y5995901D01*
X4936899D01*
Y6021301D01*
X4886099D01*
Y5995901D01*
X4860699D01*
Y5945101D01*
X4886099D01*
X6410100D02*
Y5919701D01*
X6460900D01*
Y5945101D01*
X6486300D01*
Y5995901D01*
X6460900D01*
Y6021301D01*
X6410100D01*
Y5995901D01*
X6384700D01*
Y5945101D01*
X6410100D01*
X5902099D02*
Y5919701D01*
X5952899D01*
Y5945101D01*
X5978299D01*
Y5995901D01*
X5952899D01*
Y6021301D01*
X5902099D01*
Y5995901D01*
X5876699D01*
Y5945101D01*
X5902099D01*
X7108599Y5574601D02*
Y5549201D01*
X7159399D01*
Y5574601D01*
X7184799D01*
Y5625401D01*
X7159399D01*
Y5650801D01*
X7108599D01*
Y5625401D01*
X7083199D01*
Y5574601D01*
X7108599D01*
X5140099Y5945101D02*
Y5919701D01*
X5190899D01*
Y5945101D01*
X5216299D01*
Y5995901D01*
X5190899D01*
Y6021301D01*
X5140099D01*
Y5995901D01*
X5114699D01*
Y5945101D01*
X5140099D01*
X4505099D02*
Y5919701D01*
X4555899D01*
Y5945101D01*
X4581299D01*
Y5995901D01*
X4555899D01*
Y6021301D01*
X4505099D01*
Y5995901D01*
X4479699D01*
Y5945101D01*
X4505099D01*
X3362099Y5534476D02*
Y5509076D01*
X3412899D01*
Y5534476D01*
X3438299D01*
Y5585276D01*
X3412899D01*
Y5610676D01*
X3362099D01*
Y5585276D01*
X3336699D01*
Y5534476D01*
X3362099D01*
Y5945101D02*
Y5919701D01*
X3412899D01*
Y5945101D01*
X3438299D01*
Y5995901D01*
X3412899D01*
Y6021301D01*
X3362099D01*
Y5995901D01*
X3336699D01*
Y5945101D01*
X3362099D01*
X3108099Y5534476D02*
Y5509076D01*
X3158899D01*
Y5534476D01*
X3184299D01*
Y5585276D01*
X3158899D01*
Y5610676D01*
X3108099D01*
Y5585276D01*
X3082699D01*
Y5534476D01*
X3108099D01*
X2854101D02*
Y5509076D01*
X2904901D01*
Y5534476D01*
X2930301D01*
Y5585276D01*
X2904901D01*
Y5610676D01*
X2854101D01*
Y5585276D01*
X2828701D01*
Y5534476D01*
X2854101D01*
X3616099Y5534501D02*
Y5509101D01*
X3666899D01*
Y5534501D01*
X3692299D01*
Y5585301D01*
X3666899D01*
Y5610701D01*
X3616099D01*
Y5585301D01*
X3590699D01*
Y5534501D01*
X3616099D01*
X6156099Y5945101D02*
Y5919701D01*
X6206899D01*
Y5945101D01*
X6232299D01*
Y5995901D01*
X6206899D01*
Y6021301D01*
X6156099D01*
Y5995901D01*
X6130699D01*
Y5945101D01*
X6156099D01*
X3806599Y3543601D02*
Y3518201D01*
X3857399D01*
Y3543601D01*
X3882799D01*
Y3594401D01*
X3857399D01*
Y3619801D01*
X3806599D01*
Y3594401D01*
X3781199D01*
Y3543601D01*
X3806599D01*
X3933599D02*
Y3518201D01*
X3984399D01*
Y3543601D01*
X4009799D01*
Y3594401D01*
X3984399D01*
Y3619801D01*
X3933599D01*
Y3594401D01*
X3908199D01*
Y3543601D01*
X3933599D01*
X4060599D02*
Y3518201D01*
X4111399D01*
Y3543601D01*
X4136799D01*
Y3594401D01*
X4111399D01*
Y3619801D01*
X4060599D01*
Y3594401D01*
X4035199D01*
Y3543601D01*
X4060599D01*
X4187599D02*
Y3518201D01*
X4238399D01*
Y3543601D01*
X4263799D01*
Y3594401D01*
X4238399D01*
Y3619801D01*
X4187599D01*
Y3594401D01*
X4162199D01*
Y3543601D01*
X4187599D01*
X4314599D02*
Y3518201D01*
X4365399D01*
Y3543601D01*
X4390799D01*
Y3594401D01*
X4365399D01*
Y3619801D01*
X4314599D01*
Y3594401D01*
X4289199D01*
Y3543601D01*
X4314599D01*
X4568599D02*
Y3518201D01*
X4619399D01*
Y3543601D01*
X4644799D01*
Y3594401D01*
X4619399D01*
Y3619801D01*
X4568599D01*
Y3594401D01*
X4543199D01*
Y3543601D01*
X4568599D01*
X4695599D02*
Y3518201D01*
X4746399D01*
Y3543601D01*
X4771799D01*
Y3594401D01*
X4746399D01*
Y3619801D01*
X4695599D01*
Y3594401D01*
X4670199D01*
Y3543601D01*
X4695599D01*
X4822599D02*
Y3518201D01*
X4873399D01*
Y3543601D01*
X4898799D01*
Y3594401D01*
X4873399D01*
Y3619801D01*
X4822599D01*
Y3594401D01*
X4797199D01*
Y3543601D01*
X4822599D01*
X5203599D02*
Y3518201D01*
X5254399D01*
Y3543601D01*
X5279799D01*
Y3594401D01*
X5254399D01*
Y3619801D01*
X5203599D01*
Y3594401D01*
X5178199D01*
Y3543601D01*
X5203599D01*
X5329376D02*
Y3518201D01*
X5380176D01*
Y3543601D01*
X5405576D01*
Y3594401D01*
X5380176D01*
Y3619801D01*
X5329376D01*
Y3594401D01*
X5303976D01*
Y3543601D01*
X5329376D01*
X5575599D02*
Y3518201D01*
X5626399D01*
Y3543601D01*
X5651799D01*
Y3594401D01*
X5626399D01*
Y3619801D01*
X5575599D01*
Y3594401D01*
X5550199D01*
Y3543601D01*
X5575599D01*
X5711599D02*
Y3518201D01*
X5762399D01*
Y3543601D01*
X5787799D01*
Y3594401D01*
X5762399D01*
Y3619801D01*
X5711599D01*
Y3594401D01*
X5686199D01*
Y3543601D01*
X5711599D01*
X5838599D02*
Y3518201D01*
X5889399D01*
Y3543601D01*
X5914799D01*
Y3594401D01*
X5889399D01*
Y3619801D01*
X5838599D01*
Y3594401D01*
X5813199D01*
Y3543601D01*
X5838599D01*
X6219599D02*
Y3518201D01*
X6270399D01*
Y3543601D01*
X6295799D01*
Y3594401D01*
X6270399D01*
Y3619801D01*
X6219599D01*
Y3594401D01*
X6194199D01*
Y3543601D01*
X6219599D01*
X6346600D02*
Y3518201D01*
X6397400D01*
Y3543601D01*
X6422800D01*
Y3594401D01*
X6397400D01*
Y3619801D01*
X6346600D01*
Y3594401D01*
X6321200D01*
Y3543601D01*
X6346600D01*
X6473600D02*
Y3518201D01*
X6524400D01*
Y3543601D01*
X6549800D01*
Y3594401D01*
X6524400D01*
Y3619801D01*
X6473600D01*
Y3594401D01*
X6448200D01*
Y3543601D01*
X6473600D01*
X6600600D02*
Y3518201D01*
X6651400D01*
Y3543601D01*
X6676800D01*
Y3594401D01*
X6651400D01*
Y3619801D01*
X6600600D01*
Y3594401D01*
X6575200D01*
Y3543601D01*
X6600600D01*
X6854599D02*
Y3518201D01*
X6905399D01*
Y3543601D01*
X6930799D01*
Y3594401D01*
X6905399D01*
Y3619801D01*
X6854599D01*
Y3594401D01*
X6829199D01*
Y3543601D01*
X6854599D01*
X6981600D02*
Y3518201D01*
X7032400D01*
Y3543601D01*
X7057800D01*
Y3594401D01*
X7032400D01*
Y3619801D01*
X6981600D01*
Y3594401D01*
X6956200D01*
Y3543601D01*
X6981600D01*
X4822599Y3864601D02*
Y3839201D01*
X4873399D01*
Y3864601D01*
X4898799D01*
Y3915401D01*
X4873399D01*
Y3940801D01*
X4822599D01*
Y3915401D01*
X4797199D01*
Y3864601D01*
X4822599D01*
X4949599D02*
Y3839201D01*
X5000399D01*
Y3864601D01*
X5025799D01*
Y3915401D01*
X5000399D01*
Y3940801D01*
X4949599D01*
Y3915401D01*
X4924199D01*
Y3864601D01*
X4949599D01*
X7045099Y4235101D02*
Y4209701D01*
X7095899D01*
Y4235101D01*
X7121299D01*
Y4285901D01*
X7095899D01*
Y4311301D01*
X7045099D01*
Y4285901D01*
X7019699D01*
Y4235101D01*
X7045099D01*
X6918099D02*
Y4209701D01*
X6968899D01*
Y4235101D01*
X6994299D01*
Y4285901D01*
X6968899D01*
Y4311301D01*
X6918099D01*
Y4285901D01*
X6892699D01*
Y4235101D01*
X6918099D01*
X6854599Y3864601D02*
Y3839201D01*
X6905399D01*
Y3864601D01*
X6930799D01*
Y3915401D01*
X6905399D01*
Y3940801D01*
X6854599D01*
Y3915401D01*
X6829199D01*
Y3864601D01*
X6854599D01*
X6791099Y4235101D02*
Y4209701D01*
X6841899D01*
Y4235101D01*
X6867299D01*
Y4285901D01*
X6841899D01*
Y4311301D01*
X6791099D01*
Y4285901D01*
X6765699D01*
Y4235101D01*
X6791099D01*
X6664099D02*
Y4209701D01*
X6714899D01*
Y4235101D01*
X6740299D01*
Y4285901D01*
X6714899D01*
Y4311301D01*
X6664099D01*
Y4285901D01*
X6638699D01*
Y4235101D01*
X6664099D01*
X6727600Y3864601D02*
Y3839201D01*
X6778400D01*
Y3864601D01*
X6803800D01*
Y3915401D01*
X6778400D01*
Y3940801D01*
X6727600D01*
Y3915401D01*
X6702200D01*
Y3864601D01*
X6727600D01*
X6219599D02*
Y3839201D01*
X6270399D01*
Y3864601D01*
X6295799D01*
Y3915401D01*
X6270399D01*
Y3940801D01*
X6219599D01*
Y3915401D01*
X6194199D01*
Y3864601D01*
X6219599D01*
X6092600D02*
Y3839201D01*
X6143400D01*
Y3864601D01*
X6168800D01*
Y3915401D01*
X6143400D01*
Y3940801D01*
X6092600D01*
Y3915401D01*
X6067200D01*
Y3864601D01*
X6092600D01*
X5838599D02*
Y3839201D01*
X5889399D01*
Y3864601D01*
X5914799D01*
Y3915401D01*
X5889399D01*
Y3940801D01*
X5838599D01*
Y3915401D01*
X5813199D01*
Y3864601D01*
X5838599D01*
X5711599D02*
Y3839201D01*
X5762399D01*
Y3864601D01*
X5787799D01*
Y3915401D01*
X5762399D01*
Y3940801D01*
X5711599D01*
Y3915401D01*
X5686199D01*
Y3864601D01*
X5711599D01*
X5575599D02*
Y3839201D01*
X5626399D01*
Y3864601D01*
X5651799D01*
Y3915401D01*
X5626399D01*
Y3940801D01*
X5575599D01*
Y3915401D01*
X5550199D01*
Y3864601D01*
X5575599D01*
X5775099Y4235101D02*
Y4209701D01*
X5825899D01*
Y4235101D01*
X5851299D01*
Y4285901D01*
X5825899D01*
Y4311301D01*
X5775099D01*
Y4285901D01*
X5749699D01*
Y4235101D01*
X5775099D01*
X4759099D02*
Y4209701D01*
X4809899D01*
Y4235101D01*
X4835299D01*
Y4285901D01*
X4809899D01*
Y4311301D01*
X4759099D01*
Y4285901D01*
X4733699D01*
Y4235101D01*
X4759099D01*
X4378101D02*
Y4209701D01*
X4428901D01*
Y4235101D01*
X4454301D01*
Y4285901D01*
X4428901D01*
Y4311301D01*
X4378101D01*
Y4285901D01*
X4352701D01*
Y4235101D01*
X4378101D01*
X4314599Y3864601D02*
Y3839201D01*
X4365399D01*
Y3864601D01*
X4390799D01*
Y3915401D01*
X4365399D01*
Y3940801D01*
X4314599D01*
Y3915401D01*
X4289199D01*
Y3864601D01*
X4314599D01*
X4251099Y4235101D02*
Y4209701D01*
X4301899D01*
Y4235101D01*
X4327299D01*
Y4285901D01*
X4301899D01*
Y4311301D01*
X4251099D01*
Y4285901D01*
X4225699D01*
Y4235101D01*
X4251099D01*
X4124099D02*
Y4209701D01*
X4174899D01*
Y4235101D01*
X4200299D01*
Y4285901D01*
X4174899D01*
Y4311301D01*
X4124099D01*
Y4285901D01*
X4098699D01*
Y4235101D01*
X4124099D01*
X3870099D02*
Y4209701D01*
X3920899D01*
Y4235101D01*
X3946299D01*
Y4285901D01*
X3920899D01*
Y4311301D01*
X3870099D01*
Y4285901D01*
X3844699D01*
Y4235101D01*
X3870099D01*
X3743099D02*
Y4209701D01*
X3793899D01*
Y4235101D01*
X3819299D01*
Y4285901D01*
X3793899D01*
Y4311301D01*
X3743099D01*
Y4285901D01*
X3717699D01*
Y4235101D01*
X3743099D01*
X5203599Y3864601D02*
Y3839201D01*
X5254399D01*
Y3864601D01*
X5279799D01*
Y3915401D01*
X5254399D01*
Y3940801D01*
X5203599D01*
Y3915401D01*
X5178199D01*
Y3864601D01*
X5203599D01*
X5076599D02*
Y3839201D01*
X5127399D01*
Y3864601D01*
X5152799D01*
Y3915401D01*
X5127399D01*
Y3940801D01*
X5076599D01*
Y3915401D01*
X5051199D01*
Y3864601D01*
X5076599D01*
X4695599D02*
Y3839201D01*
X4746399D01*
Y3864601D01*
X4771799D01*
Y3915401D01*
X4746399D01*
Y3940801D01*
X4695599D01*
Y3915401D01*
X4670199D01*
Y3864601D01*
X4695599D01*
X4568599D02*
Y3839201D01*
X4619399D01*
Y3864601D01*
X4644799D01*
Y3915401D01*
X4619399D01*
Y3940801D01*
X4568599D01*
Y3915401D01*
X4543199D01*
Y3864601D01*
X4568599D01*
X4441599D02*
Y3839201D01*
X4492399D01*
Y3864601D01*
X4517799D01*
Y3915401D01*
X4492399D01*
Y3940801D01*
X4441599D01*
Y3915401D01*
X4416199D01*
Y3864601D01*
X4441599D01*
X4187599D02*
Y3839201D01*
X4238399D01*
Y3864601D01*
X4263799D01*
Y3915401D01*
X4238399D01*
Y3940801D01*
X4187599D01*
Y3915401D01*
X4162199D01*
Y3864601D01*
X4187599D01*
X4060599D02*
Y3839201D01*
X4111399D01*
Y3864601D01*
X4136799D01*
Y3915401D01*
X4111399D01*
Y3940801D01*
X4060599D01*
Y3915401D01*
X4035199D01*
Y3864601D01*
X4060599D01*
X3933599D02*
Y3839201D01*
X3984399D01*
Y3864601D01*
X4009799D01*
Y3915401D01*
X3984399D01*
Y3940801D01*
X3933599D01*
Y3915401D01*
X3908199D01*
Y3864601D01*
X3933599D01*
X3806599D02*
Y3839201D01*
X3857399D01*
Y3864601D01*
X3882799D01*
Y3915401D01*
X3857399D01*
Y3940801D01*
X3806599D01*
Y3915401D01*
X3781199D01*
Y3864601D01*
X3806599D01*
X3235099Y4235101D02*
Y4209701D01*
X3285899D01*
Y4235101D01*
X3311299D01*
Y4285901D01*
X3285899D01*
Y4311301D01*
X3235099D01*
Y4285901D01*
X3209699D01*
Y4235101D01*
X3235099D01*
X3108099D02*
Y4209701D01*
X3158899D01*
Y4235101D01*
X3184299D01*
Y4285901D01*
X3158899D01*
Y4311301D01*
X3108099D01*
Y4285901D01*
X3082699D01*
Y4235101D01*
X3108099D01*
X3171599Y3864601D02*
Y3839201D01*
X3222399D01*
Y3864601D01*
X3247799D01*
Y3915401D01*
X3222399D01*
Y3940801D01*
X3171599D01*
Y3915401D01*
X3146199D01*
Y3864601D01*
X3171599D01*
X3425599D02*
Y3839201D01*
X3476399D01*
Y3864601D01*
X3501799D01*
Y3915401D01*
X3476399D01*
Y3940801D01*
X3425599D01*
Y3915401D01*
X3400199D01*
Y3864601D01*
X3425599D01*
X3616099Y4235101D02*
Y4209701D01*
X3666899D01*
Y4235101D01*
X3692299D01*
Y4285901D01*
X3666899D01*
Y4311301D01*
X3616099D01*
Y4285901D01*
X3590699D01*
Y4235101D01*
X3616099D01*
X7172099D02*
Y4209701D01*
X7222899D01*
Y4235101D01*
X7248299D01*
Y4285901D01*
X7222899D01*
Y4311301D01*
X7172099D01*
Y4285901D01*
X7146699D01*
Y4235101D01*
X7172099D01*
X6537099D02*
Y4209701D01*
X6587899D01*
Y4235101D01*
X6613299D01*
Y4285901D01*
X6587899D01*
Y4311301D01*
X6537099D01*
Y4285901D01*
X6511699D01*
Y4235101D01*
X6537099D01*
X6283099D02*
Y4209701D01*
X6333899D01*
Y4235101D01*
X6359299D01*
Y4285901D01*
X6333899D01*
Y4311301D01*
X6283099D01*
Y4285901D01*
X6257699D01*
Y4235101D01*
X6283099D01*
X6029099D02*
Y4209701D01*
X6079899D01*
Y4235101D01*
X6105299D01*
Y4285901D01*
X6079899D01*
Y4311301D01*
X6029099D01*
Y4285901D01*
X6003699D01*
Y4235101D01*
X6029099D01*
X5648099D02*
Y4209701D01*
X5698899D01*
Y4235101D01*
X5724299D01*
Y4285901D01*
X5698899D01*
Y4311301D01*
X5648099D01*
Y4285901D01*
X5622699D01*
Y4235101D01*
X5648099D01*
X5394099D02*
Y4209701D01*
X5444899D01*
Y4235101D01*
X5470299D01*
Y4285901D01*
X5444899D01*
Y4311301D01*
X5394099D01*
Y4285901D01*
X5368699D01*
Y4235101D01*
X5394099D01*
X5267099D02*
Y4209701D01*
X5317899D01*
Y4235101D01*
X5343299D01*
Y4285901D01*
X5317899D01*
Y4311301D01*
X5267099D01*
Y4285901D01*
X5241699D01*
Y4235101D01*
X5267099D01*
X5013099D02*
Y4209701D01*
X5063899D01*
Y4235101D01*
X5089299D01*
Y4285901D01*
X5063899D01*
Y4311301D01*
X5013099D01*
Y4285901D01*
X4987699D01*
Y4235101D01*
X5013099D01*
X3997099D02*
Y4209701D01*
X4047899D01*
Y4235101D01*
X4073299D01*
Y4285901D01*
X4047899D01*
Y4311301D01*
X3997099D01*
Y4285901D01*
X3971699D01*
Y4235101D01*
X3997099D01*
X3489099D02*
Y4209701D01*
X3539899D01*
Y4235101D01*
X3565299D01*
Y4285901D01*
X3539899D01*
Y4311301D01*
X3489099D01*
Y4285901D01*
X3463699D01*
Y4235101D01*
X3489099D01*
X7273701Y3873702D02*
X7299101Y3924502D01*
X7273701Y3975302D01*
X7324501Y3949902D01*
X7375301Y3975302D01*
X7349901Y3924502D01*
X7375301Y3873702D01*
X7324501Y3899102D01*
X7273701Y3873702D01*
X2981099Y4235101D02*
Y4209701D01*
X3031899D01*
Y4235101D01*
X3057299D01*
Y4285901D01*
X3031899D01*
Y4311301D01*
X2981099D01*
Y4285901D01*
X2955699D01*
Y4235101D01*
X2981099D01*
X2917599Y3864601D02*
Y3839201D01*
X2968399D01*
Y3864601D01*
X2993799D01*
Y3915401D01*
X2968399D01*
Y3940801D01*
X2917599D01*
Y3915401D01*
X2892199D01*
Y3864601D01*
X2917599D01*
X3679599D02*
Y3839201D01*
X3730399D01*
Y3864601D01*
X3755799D01*
Y3915401D01*
X3730399D01*
Y3940801D01*
X3679599D01*
Y3915401D01*
X3654199D01*
Y3864601D01*
X3679599D01*
X5965599D02*
Y3839201D01*
X6016399D01*
Y3864601D01*
X6041799D01*
Y3915401D01*
X6016399D01*
Y3940801D01*
X5965599D01*
Y3915401D01*
X5940199D01*
Y3864601D01*
X5965599D01*
X2854099Y4235100D02*
Y4209700D01*
X2904899D01*
Y4235100D01*
X2930299D01*
Y4285900D01*
X2904899D01*
Y4311300D01*
X2854099D01*
Y4285900D01*
X2828699D01*
Y4235100D01*
X2854099D01*
X2701701Y3869201D02*
X2727101Y3920001D01*
X2701701Y3970801D01*
X2752501Y3945401D01*
X2803301Y3970801D01*
X2777901Y3920001D01*
X2803301Y3869201D01*
X2752501Y3894601D01*
X2701701Y3869201D01*
X2574701D02*
X2600101Y3920001D01*
X2574701Y3970801D01*
X2625501Y3945401D01*
X2676301Y3970801D01*
X2650901Y3920001D01*
X2676301Y3869201D01*
X2625501Y3894601D01*
X2574701Y3869201D01*
X3425599Y3543601D02*
Y3518201D01*
X3476399D01*
Y3543601D01*
X3501799D01*
Y3594401D01*
X3476399D01*
Y3619801D01*
X3425599D01*
Y3594401D01*
X3400199D01*
Y3543601D01*
X3425599D01*
X3171599D02*
Y3518201D01*
X3222399D01*
Y3543601D01*
X3247799D01*
Y3594401D01*
X3222399D01*
Y3619801D01*
X3171599D01*
Y3594401D01*
X3146199D01*
Y3543601D01*
X3171599D01*
X2917599D02*
Y3518201D01*
X2968399D01*
Y3543601D01*
X2993799D01*
Y3594401D01*
X2968399D01*
Y3619801D01*
X2917599D01*
Y3594401D01*
X2892199D01*
Y3543601D01*
X2917599D01*
X2981099Y3935101D02*
Y3909701D01*
X3031899D01*
Y3935101D01*
X3057299D01*
Y3985901D01*
X3031899D01*
Y4011301D01*
X2981099D01*
Y3985901D01*
X2955699D01*
Y3935101D01*
X2981099D01*
X4632099Y4235101D02*
Y4209701D01*
X4682899D01*
Y4235101D01*
X4708299D01*
Y4285901D01*
X4682899D01*
Y4311301D01*
X4632099D01*
Y4285901D01*
X4606699D01*
Y4235101D01*
X4632099D01*
X6346600Y3864601D02*
Y3839201D01*
X6397400D01*
Y3864601D01*
X6422800D01*
Y3915401D01*
X6397400D01*
Y3940801D01*
X6346600D01*
Y3915401D01*
X6321200D01*
Y3864601D01*
X6346600D01*
X6473600D02*
Y3839201D01*
X6524400D01*
Y3864601D01*
X6549800D01*
Y3915401D01*
X6524400D01*
Y3940801D01*
X6473600D01*
Y3915401D01*
X6448200D01*
Y3864601D01*
X6473600D01*
X6600600D02*
Y3839201D01*
X6651400D01*
Y3864601D01*
X6676800D01*
Y3915401D01*
X6651400D01*
Y3940801D01*
X6600600D01*
Y3915401D01*
X6575200D01*
Y3864601D01*
X6600600D01*
X6981600D02*
Y3839201D01*
X7032400D01*
Y3864601D01*
X7057800D01*
Y3915401D01*
X7032400D01*
Y3940801D01*
X6981600D01*
Y3915401D01*
X6956200D01*
Y3864601D01*
X6981600D01*
X7172099Y3935101D02*
Y3909701D01*
X7222899D01*
Y3935101D01*
X7248299D01*
Y3985901D01*
X7222899D01*
Y4011301D01*
X7172099D01*
Y3985901D01*
X7146699D01*
Y3935101D01*
X7172099D01*
X7045099D02*
Y3909701D01*
X7095899D01*
Y3935101D01*
X7121299D01*
Y3985901D01*
X7095899D01*
Y4011301D01*
X7045099D01*
Y3985901D01*
X7019699D01*
Y3935101D01*
X7045099D01*
X6918099D02*
Y3909701D01*
X6968899D01*
Y3935101D01*
X6994299D01*
Y3985901D01*
X6968899D01*
Y4011301D01*
X6918099D01*
Y3985901D01*
X6892699D01*
Y3935101D01*
X6918099D01*
X6791099D02*
Y3909701D01*
X6841899D01*
Y3935101D01*
X6867299D01*
Y3985901D01*
X6841899D01*
Y4011301D01*
X6791099D01*
Y3985901D01*
X6765699D01*
Y3935101D01*
X6791099D01*
X6727600Y3543601D02*
Y3518201D01*
X6778400D01*
Y3543601D01*
X6803800D01*
Y3594401D01*
X6778400D01*
Y3619801D01*
X6727600D01*
Y3594401D01*
X6702200D01*
Y3543601D01*
X6727600D01*
X6664099Y3935101D02*
Y3909701D01*
X6714899D01*
Y3935101D01*
X6740299D01*
Y3985901D01*
X6714899D01*
Y4011301D01*
X6664099D01*
Y3985901D01*
X6638699D01*
Y3935101D01*
X6664099D01*
X6537099D02*
Y3909701D01*
X6587899D01*
Y3935101D01*
X6613299D01*
Y3985901D01*
X6587899D01*
Y4011301D01*
X6537099D01*
Y3985901D01*
X6511699D01*
Y3935101D01*
X6537099D01*
X6092600Y3543601D02*
Y3518201D01*
X6143400D01*
Y3543601D01*
X6168800D01*
Y3594401D01*
X6143400D01*
Y3619801D01*
X6092600D01*
Y3594401D01*
X6067200D01*
Y3543601D01*
X6092600D01*
X6283099Y3935101D02*
Y3909701D01*
X6333899D01*
Y3935101D01*
X6359299D01*
Y3985901D01*
X6333899D01*
Y4011301D01*
X6283099D01*
Y3985901D01*
X6257699D01*
Y3935101D01*
X6283099D01*
X6029099D02*
Y3909701D01*
X6079899D01*
Y3935101D01*
X6105299D01*
Y3985901D01*
X6079899D01*
Y4011301D01*
X6029099D01*
Y3985901D01*
X6003699D01*
Y3935101D01*
X6029099D01*
X5775099D02*
Y3909701D01*
X5825899D01*
Y3935101D01*
X5851299D01*
Y3985901D01*
X5825899D01*
Y4011301D01*
X5775099D01*
Y3985901D01*
X5749699D01*
Y3935101D01*
X5775099D01*
X5648099D02*
Y3909701D01*
X5698899D01*
Y3935101D01*
X5724299D01*
Y3985901D01*
X5698899D01*
Y4011301D01*
X5648099D01*
Y3985901D01*
X5622699D01*
Y3935101D01*
X5648099D01*
X5394099D02*
Y3909701D01*
X5444899D01*
Y3935101D01*
X5470299D01*
Y3985901D01*
X5444899D01*
Y4011301D01*
X5394099D01*
Y3985901D01*
X5368699D01*
Y3935101D01*
X5394099D01*
X5267099D02*
Y3909701D01*
X5317899D01*
Y3935101D01*
X5343299D01*
Y3985901D01*
X5317899D01*
Y4011301D01*
X5267099D01*
Y3985901D01*
X5241699D01*
Y3935101D01*
X5267099D01*
X5076599Y3543601D02*
Y3518201D01*
X5127399D01*
Y3543601D01*
X5152799D01*
Y3594401D01*
X5127399D01*
Y3619801D01*
X5076599D01*
Y3594401D01*
X5051199D01*
Y3543601D01*
X5076599D01*
X5013099Y3935101D02*
Y3909701D01*
X5063899D01*
Y3935101D01*
X5089299D01*
Y3985901D01*
X5063899D01*
Y4011301D01*
X5013099D01*
Y3985901D01*
X4987699D01*
Y3935101D01*
X5013099D01*
X4949599Y3543601D02*
Y3518201D01*
X5000399D01*
Y3543601D01*
X5025799D01*
Y3594401D01*
X5000399D01*
Y3619801D01*
X4949599D01*
Y3594401D01*
X4924199D01*
Y3543601D01*
X4949599D01*
X4759099Y3935101D02*
Y3909701D01*
X4809899D01*
Y3935101D01*
X4835299D01*
Y3985901D01*
X4809899D01*
Y4011301D01*
X4759099D01*
Y3985901D01*
X4733699D01*
Y3935101D01*
X4759099D01*
X4441599Y3543601D02*
Y3518201D01*
X4492399D01*
Y3543601D01*
X4517799D01*
Y3594401D01*
X4492399D01*
Y3619801D01*
X4441599D01*
Y3594401D01*
X4416199D01*
Y3543601D01*
X4441599D01*
X4378101Y3935101D02*
Y3909701D01*
X4428901D01*
Y3935101D01*
X4454301D01*
Y3985901D01*
X4428901D01*
Y4011301D01*
X4378101D01*
Y3985901D01*
X4352701D01*
Y3935101D01*
X4378101D01*
X4251099D02*
Y3909701D01*
X4301899D01*
Y3935101D01*
X4327299D01*
Y3985901D01*
X4301899D01*
Y4011301D01*
X4251099D01*
Y3985901D01*
X4225699D01*
Y3935101D01*
X4251099D01*
X4124099D02*
Y3909701D01*
X4174899D01*
Y3935101D01*
X4200299D01*
Y3985901D01*
X4174899D01*
Y4011301D01*
X4124099D01*
Y3985901D01*
X4098699D01*
Y3935101D01*
X4124099D01*
X3997099D02*
Y3909701D01*
X4047899D01*
Y3935101D01*
X4073299D01*
Y3985901D01*
X4047899D01*
Y4011301D01*
X3997099D01*
Y3985901D01*
X3971699D01*
Y3935101D01*
X3997099D01*
X3870099D02*
Y3909701D01*
X3920899D01*
Y3935101D01*
X3946299D01*
Y3985901D01*
X3920899D01*
Y4011301D01*
X3870099D01*
Y3985901D01*
X3844699D01*
Y3935101D01*
X3870099D01*
X3743099D02*
Y3909701D01*
X3793899D01*
Y3935101D01*
X3819299D01*
Y3985901D01*
X3793899D01*
Y4011301D01*
X3743099D01*
Y3985901D01*
X3717699D01*
Y3935101D01*
X3743099D01*
X3679599Y3543601D02*
Y3518201D01*
X3730399D01*
Y3543601D01*
X3755799D01*
Y3594401D01*
X3730399D01*
Y3619801D01*
X3679599D01*
Y3594401D01*
X3654199D01*
Y3543601D01*
X3679599D01*
X3235099Y3935101D02*
Y3909701D01*
X3285899D01*
Y3935101D01*
X3311299D01*
Y3985901D01*
X3285899D01*
Y4011301D01*
X3235099D01*
Y3985901D01*
X3209699D01*
Y3935101D01*
X3235099D01*
X3616099D02*
Y3909701D01*
X3666899D01*
Y3935101D01*
X3692299D01*
Y3985901D01*
X3666899D01*
Y4011301D01*
X3616099D01*
Y3985901D01*
X3590699D01*
Y3935101D01*
X3616099D01*
X3489099D02*
Y3909701D01*
X3539899D01*
Y3935101D01*
X3565299D01*
Y3985901D01*
X3539899D01*
Y4011301D01*
X3489099D01*
Y3985901D01*
X3463699D01*
Y3935101D01*
X3489099D01*
X4886099Y4235101D02*
Y4209701D01*
X4936899D01*
Y4235101D01*
X4962299D01*
Y4285901D01*
X4936899D01*
Y4311301D01*
X4886099D01*
Y4285901D01*
X4860699D01*
Y4235101D01*
X4886099D01*
X6410100D02*
Y4209701D01*
X6460900D01*
Y4235101D01*
X6486300D01*
Y4285901D01*
X6460900D01*
Y4311301D01*
X6410100D01*
Y4285901D01*
X6384700D01*
Y4235101D01*
X6410100D01*
X5902099D02*
Y4209701D01*
X5952899D01*
Y4235101D01*
X5978299D01*
Y4285901D01*
X5952899D01*
Y4311301D01*
X5902099D01*
Y4285901D01*
X5876699D01*
Y4235101D01*
X5902099D01*
X7108599Y3864601D02*
Y3839201D01*
X7159399D01*
Y3864601D01*
X7184799D01*
Y3915401D01*
X7159399D01*
Y3940801D01*
X7108599D01*
Y3915401D01*
X7083199D01*
Y3864601D01*
X7108599D01*
X5140099Y4235101D02*
Y4209701D01*
X5190899D01*
Y4235101D01*
X5216299D01*
Y4285901D01*
X5190899D01*
Y4311301D01*
X5140099D01*
Y4285901D01*
X5114699D01*
Y4235101D01*
X5140099D01*
X4505099D02*
Y4209701D01*
X4555899D01*
Y4235101D01*
X4581299D01*
Y4285901D01*
X4555899D01*
Y4311301D01*
X4505099D01*
Y4285901D01*
X4479699D01*
Y4235101D01*
X4505099D01*
X3362099Y3824476D02*
Y3799076D01*
X3412899D01*
Y3824476D01*
X3438299D01*
Y3875276D01*
X3412899D01*
Y3900676D01*
X3362099D01*
Y3875276D01*
X3336699D01*
Y3824476D01*
X3362099D01*
Y4235101D02*
Y4209701D01*
X3412899D01*
Y4235101D01*
X3438299D01*
Y4285901D01*
X3412899D01*
Y4311301D01*
X3362099D01*
Y4285901D01*
X3336699D01*
Y4235101D01*
X3362099D01*
X3108099Y3824476D02*
Y3799076D01*
X3158899D01*
Y3824476D01*
X3184299D01*
Y3875276D01*
X3158899D01*
Y3900676D01*
X3108099D01*
Y3875276D01*
X3082699D01*
Y3824476D01*
X3108099D01*
X2854101D02*
Y3799076D01*
X2904901D01*
Y3824476D01*
X2930301D01*
Y3875276D01*
X2904901D01*
Y3900676D01*
X2854101D01*
Y3875276D01*
X2828701D01*
Y3824476D01*
X2854101D01*
X3616099Y3824501D02*
Y3799101D01*
X3666899D01*
Y3824501D01*
X3692299D01*
Y3875301D01*
X3666899D01*
Y3900701D01*
X3616099D01*
Y3875301D01*
X3590699D01*
Y3824501D01*
X3616099D01*
X6156099Y4235101D02*
Y4209701D01*
X6206899D01*
Y4235101D01*
X6232299D01*
Y4285901D01*
X6206899D01*
Y4311301D01*
X6156099D01*
Y4285901D01*
X6130699D01*
Y4235101D01*
X6156099D01*
X6219599Y1833601D02*
Y1808201D01*
X6270399D01*
Y1833601D01*
X6295799D01*
Y1884401D01*
X6270399D01*
Y1909801D01*
X6219599D01*
Y1884401D01*
X6194199D01*
Y1833601D01*
X6219599D01*
X6346600D02*
Y1808201D01*
X6397400D01*
Y1833601D01*
X6422800D01*
Y1884401D01*
X6397400D01*
Y1909801D01*
X6346600D01*
Y1884401D01*
X6321200D01*
Y1833601D01*
X6346600D01*
X6473600D02*
Y1808201D01*
X6524400D01*
Y1833601D01*
X6549800D01*
Y1884401D01*
X6524400D01*
Y1909801D01*
X6473600D01*
Y1884401D01*
X6448200D01*
Y1833601D01*
X6473600D01*
X6981600D02*
Y1808201D01*
X7032400D01*
Y1833601D01*
X7057800D01*
Y1884401D01*
X7032400D01*
Y1909801D01*
X6981600D01*
Y1884401D01*
X6956200D01*
Y1833601D01*
X6981600D01*
X6219599Y2154601D02*
Y2129201D01*
X6270399D01*
Y2154601D01*
X6295799D01*
Y2205401D01*
X6270399D01*
Y2230801D01*
X6219599D01*
Y2205401D01*
X6194199D01*
Y2154601D01*
X6219599D01*
X3870099Y2525101D02*
Y2499701D01*
X3920899D01*
Y2525101D01*
X3946299D01*
Y2575901D01*
X3920899D01*
Y2601301D01*
X3870099D01*
Y2575901D01*
X3844699D01*
Y2525101D01*
X3870099D01*
X3743099D02*
Y2499701D01*
X3793899D01*
Y2525101D01*
X3819299D01*
Y2575901D01*
X3793899D01*
Y2601301D01*
X3743099D01*
Y2575901D01*
X3717699D01*
Y2525101D01*
X3743099D01*
X4441599Y2154601D02*
Y2129201D01*
X4492399D01*
Y2154601D01*
X4517799D01*
Y2205401D01*
X4492399D01*
Y2230801D01*
X4441599D01*
Y2205401D01*
X4416199D01*
Y2154601D01*
X4441599D01*
X3235099Y2525101D02*
Y2499701D01*
X3285899D01*
Y2525101D01*
X3311299D01*
Y2575901D01*
X3285899D01*
Y2601301D01*
X3235099D01*
Y2575901D01*
X3209699D01*
Y2525101D01*
X3235099D01*
X3108099D02*
Y2499701D01*
X3158899D01*
Y2525101D01*
X3184299D01*
Y2575901D01*
X3158899D01*
Y2601301D01*
X3108099D01*
Y2575901D01*
X3082699D01*
Y2525101D01*
X3108099D01*
X3616099D02*
Y2499701D01*
X3666899D01*
Y2525101D01*
X3692299D01*
Y2575901D01*
X3666899D01*
Y2601301D01*
X3616099D01*
Y2575901D01*
X3590699D01*
Y2525101D01*
X3616099D01*
X6029099D02*
Y2499701D01*
X6079899D01*
Y2525101D01*
X6105299D01*
Y2575901D01*
X6079899D01*
Y2601301D01*
X6029099D01*
Y2575901D01*
X6003699D01*
Y2525101D01*
X6029099D01*
X5394099D02*
Y2499701D01*
X5444899D01*
Y2525101D01*
X5470299D01*
Y2575901D01*
X5444899D01*
Y2601301D01*
X5394099D01*
Y2575901D01*
X5368699D01*
Y2525101D01*
X5394099D01*
X5267099D02*
Y2499701D01*
X5317899D01*
Y2525101D01*
X5343299D01*
Y2575901D01*
X5317899D01*
Y2601301D01*
X5267099D01*
Y2575901D01*
X5241699D01*
Y2525101D01*
X5267099D01*
X5013099D02*
Y2499701D01*
X5063899D01*
Y2525101D01*
X5089299D01*
Y2575901D01*
X5063899D01*
Y2601301D01*
X5013099D01*
Y2575901D01*
X4987699D01*
Y2525101D01*
X5013099D01*
X3997099D02*
Y2499701D01*
X4047899D01*
Y2525101D01*
X4073299D01*
Y2575901D01*
X4047899D01*
Y2601301D01*
X3997099D01*
Y2575901D01*
X3971699D01*
Y2525101D01*
X3997099D01*
X3489099D02*
Y2499701D01*
X3539899D01*
Y2525101D01*
X3565299D01*
Y2575901D01*
X3539899D01*
Y2601301D01*
X3489099D01*
Y2575901D01*
X3463699D01*
Y2525101D01*
X3489099D01*
X7273701Y2163702D02*
X7299101D01*
X7324501Y2189102D01*
X7349901Y2163702D01*
X7375301D01*
Y2189102D01*
X7349901Y2214502D01*
X7375301Y2239902D01*
Y2265302D01*
X7349901D01*
X7324501Y2239902D01*
X7299101Y2265302D01*
X7273701D01*
Y2239902D01*
X7299101Y2214502D01*
X7273701Y2189102D01*
Y2163702D01*
X2981099Y2525101D02*
Y2499701D01*
X3031899D01*
Y2525101D01*
X3057299D01*
Y2575901D01*
X3031899D01*
Y2601301D01*
X2981099D01*
Y2575901D01*
X2955699D01*
Y2525101D01*
X2981099D01*
X2917599Y2154601D02*
Y2129201D01*
X2968399D01*
Y2154601D01*
X2993799D01*
Y2205401D01*
X2968399D01*
Y2230801D01*
X2917599D01*
Y2205401D01*
X2892199D01*
Y2154601D01*
X2917599D01*
X6981600D02*
Y2129201D01*
X7032400D01*
Y2154601D01*
X7057800D01*
Y2205401D01*
X7032400D01*
Y2230801D01*
X6981600D01*
Y2205401D01*
X6956200D01*
Y2154601D01*
X6981600D01*
X6283099Y2225101D02*
Y2199701D01*
X6333899D01*
Y2225101D01*
X6359299D01*
Y2275901D01*
X6333899D01*
Y2301301D01*
X6283099D01*
Y2275901D01*
X6257699D01*
Y2225101D01*
X6283099D01*
X5902099Y2525101D02*
Y2499701D01*
X5952899D01*
Y2525101D01*
X5978299D01*
Y2575901D01*
X5952899D01*
Y2601301D01*
X5902099D01*
Y2575901D01*
X5876699D01*
Y2525101D01*
X5902099D01*
X7108599Y2154601D02*
Y2129201D01*
X7159399D01*
Y2154601D01*
X7184799D01*
Y2205401D01*
X7159399D01*
Y2230801D01*
X7108599D01*
Y2205401D01*
X7083199D01*
Y2154601D01*
X7108599D01*
X5140099Y2525101D02*
Y2499701D01*
X5190899D01*
Y2525101D01*
X5216299D01*
Y2575901D01*
X5190899D01*
Y2601301D01*
X5140099D01*
Y2575901D01*
X5114699D01*
Y2525101D01*
X5140099D01*
X4505099D02*
Y2499701D01*
X4555899D01*
Y2525101D01*
X4581299D01*
Y2575901D01*
X4555899D01*
Y2601301D01*
X4505099D01*
Y2575901D01*
X4479699D01*
Y2525101D01*
X4505099D01*
X3362099D02*
Y2499701D01*
X3412899D01*
Y2525101D01*
X3438299D01*
Y2575901D01*
X3412899D01*
Y2601301D01*
X3362099D01*
Y2575901D01*
X3336699D01*
Y2525101D01*
X3362099D01*
X6156099D02*
Y2499701D01*
X6206899D01*
Y2525101D01*
X6232299D01*
Y2575901D01*
X6206899D01*
Y2601301D01*
X6156099D01*
Y2575901D01*
X6130699D01*
Y2525101D01*
X6156099D01*
X3616100Y2114500D02*
Y2089100D01*
X3666900D01*
Y2114500D01*
X3692300D01*
Y2165300D01*
X3666900D01*
Y2190700D01*
X3616100D01*
Y2165300D01*
X3590700D01*
Y2114500D01*
X3616100D01*
X2473100Y815100D02*
Y789700D01*
X2523900D01*
Y815100D01*
X2549300D01*
Y865900D01*
X2523900D01*
Y891300D01*
X2473100D01*
Y865900D01*
X2447700D01*
Y815100D01*
X2473100D01*
X2854101Y2114475D02*
Y2089075D01*
X2904901D01*
Y2114475D01*
X2930301D01*
Y2165275D01*
X2904901D01*
Y2190675D01*
X2854101D01*
Y2165275D01*
X2828701D01*
Y2114475D01*
X2854101D01*
X3108100D02*
Y2089075D01*
X3158900D01*
Y2114475D01*
X3184300D01*
Y2165275D01*
X3158900D01*
Y2190675D01*
X3108100D01*
Y2165275D01*
X3082700D01*
Y2114475D01*
X3108100D01*
X3362100D02*
Y2089075D01*
X3412900D01*
Y2114475D01*
X3438300D01*
Y2165275D01*
X3412900D01*
Y2190675D01*
X3362100D01*
Y2165275D01*
X3336700D01*
Y2114475D01*
X3362100D01*
X6410100Y2525100D02*
Y2499700D01*
X6460900D01*
Y2525100D01*
X6486300D01*
Y2575900D01*
X6460900D01*
Y2601300D01*
X6410100D01*
Y2575900D01*
X6384700D01*
Y2525100D01*
X6410100D01*
X4886100D02*
Y2499700D01*
X4936900D01*
Y2525100D01*
X4962300D01*
Y2575900D01*
X4936900D01*
Y2601300D01*
X4886100D01*
Y2575900D01*
X4860700D01*
Y2525100D01*
X4886100D01*
X3489100Y2225100D02*
Y2199700D01*
X3539900D01*
Y2225100D01*
X3565300D01*
Y2275900D01*
X3539900D01*
Y2301300D01*
X3489100D01*
Y2275900D01*
X3463700D01*
Y2225100D01*
X3489100D01*
X3616100D02*
Y2199700D01*
X3666900D01*
Y2225100D01*
X3692300D01*
Y2275900D01*
X3666900D01*
Y2301300D01*
X3616100D01*
Y2275900D01*
X3590700D01*
Y2225100D01*
X3616100D01*
X3235100D02*
Y2199700D01*
X3285900D01*
Y2225100D01*
X3311300D01*
Y2275900D01*
X3285900D01*
Y2301300D01*
X3235100D01*
Y2275900D01*
X3209700D01*
Y2225100D01*
X3235100D01*
X3679600Y1833600D02*
Y1808200D01*
X3730400D01*
Y1833600D01*
X3755800D01*
Y1884400D01*
X3730400D01*
Y1909800D01*
X3679600D01*
Y1884400D01*
X3654200D01*
Y1833600D01*
X3679600D01*
X3743100Y2225100D02*
Y2199700D01*
X3793900D01*
Y2225100D01*
X3819300D01*
Y2275900D01*
X3793900D01*
Y2301300D01*
X3743100D01*
Y2275900D01*
X3717700D01*
Y2225100D01*
X3743100D01*
X3870100D02*
Y2199700D01*
X3920900D01*
Y2225100D01*
X3946300D01*
Y2275900D01*
X3920900D01*
Y2301300D01*
X3870100D01*
Y2275900D01*
X3844700D01*
Y2225100D01*
X3870100D01*
X3997100D02*
Y2199700D01*
X4047900D01*
Y2225100D01*
X4073300D01*
Y2275900D01*
X4047900D01*
Y2301300D01*
X3997100D01*
Y2275900D01*
X3971700D01*
Y2225100D01*
X3997100D01*
X4124100D02*
Y2199700D01*
X4174900D01*
Y2225100D01*
X4200300D01*
Y2275900D01*
X4174900D01*
Y2301300D01*
X4124100D01*
Y2275900D01*
X4098700D01*
Y2225100D01*
X4124100D01*
X4251100D02*
Y2199700D01*
X4301900D01*
Y2225100D01*
X4327300D01*
Y2275900D01*
X4301900D01*
Y2301300D01*
X4251100D01*
Y2275900D01*
X4225700D01*
Y2225100D01*
X4251100D01*
X4378101D02*
Y2199700D01*
X4428901D01*
Y2225100D01*
X4454301D01*
Y2275900D01*
X4428901D01*
Y2301300D01*
X4378101D01*
Y2275900D01*
X4352701D01*
Y2225100D01*
X4378101D01*
X4441600Y1833600D02*
Y1808200D01*
X4492400D01*
Y1833600D01*
X4517800D01*
Y1884400D01*
X4492400D01*
Y1909800D01*
X4441600D01*
Y1884400D01*
X4416200D01*
Y1833600D01*
X4441600D01*
X4759100Y2225100D02*
Y2199700D01*
X4809900D01*
Y2225100D01*
X4835300D01*
Y2275900D01*
X4809900D01*
Y2301300D01*
X4759100D01*
Y2275900D01*
X4733700D01*
Y2225100D01*
X4759100D01*
X4949600Y1833600D02*
Y1808200D01*
X5000400D01*
Y1833600D01*
X5025800D01*
Y1884400D01*
X5000400D01*
Y1909800D01*
X4949600D01*
Y1884400D01*
X4924200D01*
Y1833600D01*
X4949600D01*
X5013100Y2225100D02*
Y2199700D01*
X5063900D01*
Y2225100D01*
X5089300D01*
Y2275900D01*
X5063900D01*
Y2301300D01*
X5013100D01*
Y2275900D01*
X4987700D01*
Y2225100D01*
X5013100D01*
X5076600Y1833600D02*
Y1808200D01*
X5127400D01*
Y1833600D01*
X5152800D01*
Y1884400D01*
X5127400D01*
Y1909800D01*
X5076600D01*
Y1884400D01*
X5051200D01*
Y1833600D01*
X5076600D01*
X5267100Y2225100D02*
Y2199700D01*
X5317900D01*
Y2225100D01*
X5343300D01*
Y2275900D01*
X5317900D01*
Y2301300D01*
X5267100D01*
Y2275900D01*
X5241700D01*
Y2225100D01*
X5267100D01*
X5394100D02*
Y2199700D01*
X5444900D01*
Y2225100D01*
X5470300D01*
Y2275900D01*
X5444900D01*
Y2301300D01*
X5394100D01*
Y2275900D01*
X5368700D01*
Y2225100D01*
X5394100D01*
X5648100D02*
Y2199700D01*
X5698900D01*
Y2225100D01*
X5724300D01*
Y2275900D01*
X5698900D01*
Y2301300D01*
X5648100D01*
Y2275900D01*
X5622700D01*
Y2225100D01*
X5648100D01*
X5775100D02*
Y2199700D01*
X5825900D01*
Y2225100D01*
X5851300D01*
Y2275900D01*
X5825900D01*
Y2301300D01*
X5775100D01*
Y2275900D01*
X5749700D01*
Y2225100D01*
X5775100D01*
X6029100D02*
Y2199700D01*
X6079900D01*
Y2225100D01*
X6105300D01*
Y2275900D01*
X6079900D01*
Y2301300D01*
X6029100D01*
Y2275900D01*
X6003700D01*
Y2225100D01*
X6029100D01*
X6537100D02*
Y2199700D01*
X6587900D01*
Y2225100D01*
X6613300D01*
Y2275900D01*
X6587900D01*
Y2301300D01*
X6537100D01*
Y2275900D01*
X6511700D01*
Y2225100D01*
X6537100D01*
X6664100D02*
Y2199700D01*
X6714900D01*
Y2225100D01*
X6740300D01*
Y2275900D01*
X6714900D01*
Y2301300D01*
X6664100D01*
Y2275900D01*
X6638700D01*
Y2225100D01*
X6664100D01*
X6727600Y1833600D02*
Y1808200D01*
X6778400D01*
Y1833600D01*
X6803800D01*
Y1884400D01*
X6778400D01*
Y1909800D01*
X6727600D01*
Y1884400D01*
X6702200D01*
Y1833600D01*
X6727600D01*
X6791100Y2225100D02*
Y2199700D01*
X6841900D01*
Y2225100D01*
X6867300D01*
Y2275900D01*
X6841900D01*
Y2301300D01*
X6791100D01*
Y2275900D01*
X6765700D01*
Y2225100D01*
X6791100D01*
X6918100D02*
Y2199700D01*
X6968900D01*
Y2225100D01*
X6994300D01*
Y2275900D01*
X6968900D01*
Y2301300D01*
X6918100D01*
Y2275900D01*
X6892700D01*
Y2225100D01*
X6918100D01*
X7045100D02*
Y2199700D01*
X7095900D01*
Y2225100D01*
X7121300D01*
Y2275900D01*
X7095900D01*
Y2301300D01*
X7045100D01*
Y2275900D01*
X7019700D01*
Y2225100D01*
X7045100D01*
X7172100D02*
Y2199700D01*
X7222900D01*
Y2225100D01*
X7248300D01*
Y2275900D01*
X7222900D01*
Y2301300D01*
X7172100D01*
Y2275900D01*
X7146700D01*
Y2225100D01*
X7172100D01*
X6600600Y2154600D02*
Y2129200D01*
X6651400D01*
Y2154600D01*
X6676800D01*
Y2205400D01*
X6651400D01*
Y2230800D01*
X6600600D01*
Y2205400D01*
X6575200D01*
Y2154600D01*
X6600600D01*
X6473600D02*
Y2129200D01*
X6524400D01*
Y2154600D01*
X6549800D01*
Y2205400D01*
X6524400D01*
Y2230800D01*
X6473600D01*
Y2205400D01*
X6448200D01*
Y2154600D01*
X6473600D01*
X6346600D02*
Y2129200D01*
X6397400D01*
Y2154600D01*
X6422800D01*
Y2205400D01*
X6397400D01*
Y2230800D01*
X6346600D01*
Y2205400D01*
X6321200D01*
Y2154600D01*
X6346600D01*
X4632100Y2525100D02*
Y2499700D01*
X4682900D01*
Y2525100D01*
X4708300D01*
Y2575900D01*
X4682900D01*
Y2601300D01*
X4632100D01*
Y2575900D01*
X4606700D01*
Y2525100D01*
X4632100D01*
X2981100Y2225100D02*
Y2199700D01*
X3031900D01*
Y2225100D01*
X3057300D01*
Y2275900D01*
X3031900D01*
Y2301300D01*
X2981100D01*
Y2275900D01*
X2955700D01*
Y2225100D01*
X2981100D01*
X2917600Y1833600D02*
Y1808200D01*
X2968400D01*
Y1833600D01*
X2993800D01*
Y1884400D01*
X2968400D01*
Y1909800D01*
X2917600D01*
Y1884400D01*
X2892200D01*
Y1833600D01*
X2917600D01*
X3171600D02*
Y1808200D01*
X3222400D01*
Y1833600D01*
X3247800D01*
Y1884400D01*
X3222400D01*
Y1909800D01*
X3171600D01*
Y1884400D01*
X3146200D01*
Y1833600D01*
X3171600D01*
X3425600D02*
Y1808200D01*
X3476400D01*
Y1833600D01*
X3501800D01*
Y1884400D01*
X3476400D01*
Y1909800D01*
X3425600D01*
Y1884400D01*
X3400200D01*
Y1833600D01*
X3425600D01*
X2574701Y2159200D02*
X2600101Y2210000D01*
X2574701Y2260800D01*
X2625501Y2235400D01*
X2676301Y2260800D01*
X2650901Y2210000D01*
X2676301Y2159200D01*
X2625501Y2184600D01*
X2574701Y2159200D01*
X2701701D02*
X2727101Y2210000D01*
X2701701Y2260800D01*
X2752501Y2235400D01*
X2803301Y2260800D01*
X2777901Y2210000D01*
X2803301Y2159200D01*
X2752501Y2184600D01*
X2701701Y2159200D01*
X2574701Y449200D02*
X2600101Y500000D01*
X2574701Y550800D01*
X2625501Y525400D01*
X2676301Y550800D01*
X2650901Y500000D01*
X2676301Y449200D01*
X2625501Y474600D01*
X2574701Y449200D01*
X2701701D02*
X2727101Y500000D01*
X2701701Y550800D01*
X2752501Y525400D01*
X2803301Y550800D01*
X2777901Y500000D01*
X2803301Y449200D01*
X2752501Y474600D01*
X2701701Y449200D01*
X2854100Y404500D02*
Y379100D01*
X2904900D01*
Y404500D01*
X2930300D01*
Y455300D01*
X2904900D01*
Y480700D01*
X2854100D01*
Y455300D01*
X2828700D01*
Y404500D01*
X2854100D01*
X5965600Y2154600D02*
Y2129200D01*
X6016400D01*
Y2154600D01*
X6041800D01*
Y2205400D01*
X6016400D01*
Y2230800D01*
X5965600D01*
Y2205400D01*
X5940200D01*
Y2154600D01*
X5965600D01*
X6156100Y815100D02*
Y789700D01*
X6206900D01*
Y815100D01*
X6232300D01*
Y865900D01*
X6206900D01*
Y891300D01*
X6156100D01*
Y865900D01*
X6130700D01*
Y815100D01*
X6156100D01*
X5330600Y444600D02*
Y419200D01*
X5381400D01*
Y444600D01*
X5406800D01*
Y495400D01*
X5381400D01*
Y520800D01*
X5330600D01*
Y495400D01*
X5305200D01*
Y444600D01*
X5330600D01*
X3679600Y2154600D02*
Y2129200D01*
X3730400D01*
Y2154600D01*
X3755800D01*
Y2205400D01*
X3730400D01*
Y2230800D01*
X3679600D01*
Y2205400D01*
X3654200D01*
Y2154600D01*
X3679600D01*
X2917600Y444600D02*
Y419200D01*
X2968400D01*
Y444600D01*
X2993800D01*
Y495400D01*
X2968400D01*
Y520800D01*
X2917600D01*
Y495400D01*
X2892200D01*
Y444600D01*
X2917600D01*
X6346600D02*
Y419200D01*
X6397400D01*
Y444600D01*
X6422800D01*
Y495400D01*
X6397400D01*
Y520800D01*
X6346600D01*
Y495400D01*
X6321200D01*
Y444600D01*
X6346600D01*
X6473600D02*
Y419200D01*
X6524400D01*
Y444600D01*
X6549800D01*
Y495400D01*
X6524400D01*
Y520800D01*
X6473600D01*
Y495400D01*
X6448200D01*
Y444600D01*
X6473600D01*
X6600600D02*
Y419200D01*
X6651400D01*
Y444600D01*
X6676800D01*
Y495400D01*
X6651400D01*
Y520800D01*
X6600600D01*
Y495400D01*
X6575200D01*
Y444600D01*
X6600600D01*
X6727600D02*
Y419200D01*
X6778400D01*
Y444600D01*
X6803800D01*
Y495400D01*
X6778400D01*
Y520800D01*
X6727600D01*
Y495400D01*
X6702200D01*
Y444600D01*
X6727600D01*
X6981600D02*
Y419200D01*
X7032400D01*
Y444600D01*
X7057800D01*
Y495400D01*
X7032400D01*
Y520800D01*
X6981600D01*
Y495400D01*
X6956200D01*
Y444600D01*
X6981600D01*
X6854600D02*
Y419200D01*
X6905400D01*
Y444600D01*
X6930800D01*
Y495400D01*
X6905400D01*
Y520800D01*
X6854600D01*
Y495400D01*
X6829200D01*
Y444600D01*
X6854600D01*
X6410100Y815100D02*
Y789700D01*
X6460900D01*
Y815100D01*
X6486300D01*
Y865900D01*
X6460900D01*
Y891300D01*
X6410100D01*
Y865900D01*
X6384700D01*
Y815100D01*
X6410100D01*
X6029100D02*
Y789700D01*
X6079900D01*
Y815100D01*
X6105300D01*
Y865900D01*
X6079900D01*
Y891300D01*
X6029100D01*
Y865900D01*
X6003700D01*
Y815100D01*
X6029100D01*
X5140100D02*
Y789700D01*
X5190900D01*
Y815100D01*
X5216300D01*
Y865900D01*
X5190900D01*
Y891300D01*
X5140100D01*
Y865900D01*
X5114700D01*
Y815100D01*
X5140100D01*
X4886100D02*
Y789700D01*
X4936900D01*
Y815100D01*
X4962300D01*
Y865900D01*
X4936900D01*
Y891300D01*
X4886100D01*
Y865900D01*
X4860700D01*
Y815100D01*
X4886100D01*
X4632100D02*
Y789700D01*
X4682900D01*
Y815100D01*
X4708300D01*
Y865900D01*
X4682900D01*
Y891300D01*
X4632100D01*
Y865900D01*
X4606700D01*
Y815100D01*
X4632100D01*
X4505100D02*
Y789700D01*
X4555900D01*
Y815100D01*
X4581300D01*
Y865900D01*
X4555900D01*
Y891300D01*
X4505100D01*
Y865900D01*
X4479700D01*
Y815100D01*
X4505100D01*
X4251100D02*
Y789700D01*
X4301900D01*
Y815100D01*
X4327300D01*
Y865900D01*
X4301900D01*
Y891300D01*
X4251100D01*
Y865900D01*
X4225700D01*
Y815100D01*
X4251100D01*
X4124100D02*
Y789700D01*
X4174900D01*
Y815100D01*
X4200300D01*
Y865900D01*
X4174900D01*
Y891300D01*
X4124100D01*
Y865900D01*
X4098700D01*
Y815100D01*
X4124100D01*
X3997100D02*
Y789700D01*
X4047900D01*
Y815100D01*
X4073300D01*
Y865900D01*
X4047900D01*
Y891300D01*
X3997100D01*
Y865900D01*
X3971700D01*
Y815100D01*
X3997100D01*
X3870100D02*
Y789700D01*
X3920900D01*
Y815100D01*
X3946300D01*
Y865900D01*
X3920900D01*
Y891300D01*
X3870100D01*
Y865900D01*
X3844700D01*
Y815100D01*
X3870100D01*
X3743100D02*
Y789700D01*
X3793900D01*
Y815100D01*
X3819300D01*
Y865900D01*
X3793900D01*
Y891300D01*
X3743100D01*
Y865900D01*
X3717700D01*
Y815100D01*
X3743100D01*
X3108100D02*
Y789700D01*
X3158900D01*
Y815100D01*
X3184300D01*
Y865900D01*
X3158900D01*
Y891300D01*
X3108100D01*
Y865900D01*
X3082700D01*
Y815100D01*
X3108100D01*
X2917600Y2154600D02*
Y2129200D01*
X2968400D01*
Y2154600D01*
X2993800D01*
Y2205400D01*
X2968400D01*
Y2230800D01*
X2917600D01*
Y2205400D01*
X2892200D01*
Y2154600D01*
X2917600D01*
X3108100Y404475D02*
Y379075D01*
X3158900D01*
Y404475D01*
X3184300D01*
Y455275D01*
X3158900D01*
Y480675D01*
X3108100D01*
Y455275D01*
X3082700D01*
Y404475D01*
X3108100D01*
X7273701Y2163702D02*
X7299101Y2214502D01*
X7273701Y2265302D01*
X7324501Y2239902D01*
X7375301Y2265302D01*
X7349901Y2214502D01*
X7375301Y2163702D01*
X7324501Y2189102D01*
X7273701Y2163702D01*
X5648100Y2525100D02*
Y2499700D01*
X5698900D01*
Y2525100D01*
X5724300D01*
Y2575900D01*
X5698900D01*
Y2601300D01*
X5648100D01*
Y2575900D01*
X5622700D01*
Y2525100D01*
X5648100D01*
X6283100D02*
Y2499700D01*
X6333900D01*
Y2525100D01*
X6359300D01*
Y2575900D01*
X6333900D01*
Y2601300D01*
X6283100D01*
Y2575900D01*
X6257700D01*
Y2525100D01*
X6283100D01*
X6537100D02*
Y2499700D01*
X6587900D01*
Y2525100D01*
X6613300D01*
Y2575900D01*
X6587900D01*
Y2601300D01*
X6537100D01*
Y2575900D01*
X6511700D01*
Y2525100D01*
X6537100D01*
X7172100D02*
Y2499700D01*
X7222900D01*
Y2525100D01*
X7248300D01*
Y2575900D01*
X7222900D01*
Y2601300D01*
X7172100D01*
Y2575900D01*
X7146700D01*
Y2525100D01*
X7172100D01*
X3425600Y2154600D02*
Y2129200D01*
X3476400D01*
Y2154600D01*
X3501800D01*
Y2205400D01*
X3476400D01*
Y2230800D01*
X3425600D01*
Y2205400D01*
X3400200D01*
Y2154600D01*
X3425600D01*
X3171600D02*
Y2129200D01*
X3222400D01*
Y2154600D01*
X3247800D01*
Y2205400D01*
X3222400D01*
Y2230800D01*
X3171600D01*
Y2205400D01*
X3146200D01*
Y2154600D01*
X3171600D01*
X3806600D02*
Y2129200D01*
X3857400D01*
Y2154600D01*
X3882800D01*
Y2205400D01*
X3857400D01*
Y2230800D01*
X3806600D01*
Y2205400D01*
X3781200D01*
Y2154600D01*
X3806600D01*
X3933600D02*
Y2129200D01*
X3984400D01*
Y2154600D01*
X4009800D01*
Y2205400D01*
X3984400D01*
Y2230800D01*
X3933600D01*
Y2205400D01*
X3908200D01*
Y2154600D01*
X3933600D01*
X4187600D02*
Y2129200D01*
X4238400D01*
Y2154600D01*
X4263800D01*
Y2205400D01*
X4238400D01*
Y2230800D01*
X4187600D01*
Y2205400D01*
X4162200D01*
Y2154600D01*
X4187600D01*
X4568600D02*
Y2129200D01*
X4619400D01*
Y2154600D01*
X4644800D01*
Y2205400D01*
X4619400D01*
Y2230800D01*
X4568600D01*
Y2205400D01*
X4543200D01*
Y2154600D01*
X4568600D01*
X4695600D02*
Y2129200D01*
X4746400D01*
Y2154600D01*
X4771800D01*
Y2205400D01*
X4746400D01*
Y2230800D01*
X4695600D01*
Y2205400D01*
X4670200D01*
Y2154600D01*
X4695600D01*
X5076600D02*
Y2129200D01*
X5127400D01*
Y2154600D01*
X5152800D01*
Y2205400D01*
X5127400D01*
Y2230800D01*
X5076600D01*
Y2205400D01*
X5051200D01*
Y2154600D01*
X5076600D01*
X5203600D02*
Y2129200D01*
X5254400D01*
Y2154600D01*
X5279800D01*
Y2205400D01*
X5254400D01*
Y2230800D01*
X5203600D01*
Y2205400D01*
X5178200D01*
Y2154600D01*
X5203600D01*
X4124100Y2525100D02*
Y2499700D01*
X4174900D01*
Y2525100D01*
X4200300D01*
Y2575900D01*
X4174900D01*
Y2601300D01*
X4124100D01*
Y2575900D01*
X4098700D01*
Y2525100D01*
X4124100D01*
X4251100D02*
Y2499700D01*
X4301900D01*
Y2525100D01*
X4327300D01*
Y2575900D01*
X4301900D01*
Y2601300D01*
X4251100D01*
Y2575900D01*
X4225700D01*
Y2525100D01*
X4251100D01*
X4314600Y2154600D02*
Y2129200D01*
X4365400D01*
Y2154600D01*
X4390800D01*
Y2205400D01*
X4365400D01*
Y2230800D01*
X4314600D01*
Y2205400D01*
X4289200D01*
Y2154600D01*
X4314600D01*
X4378101Y2525100D02*
Y2499700D01*
X4428901D01*
Y2525100D01*
X4454301D01*
Y2575900D01*
X4428901D01*
Y2601300D01*
X4378101D01*
Y2575900D01*
X4352701D01*
Y2525100D01*
X4378101D01*
X4759100D02*
Y2499700D01*
X4809900D01*
Y2525100D01*
X4835300D01*
Y2575900D01*
X4809900D01*
Y2601300D01*
X4759100D01*
Y2575900D01*
X4733700D01*
Y2525100D01*
X4759100D01*
X5775100D02*
Y2499700D01*
X5825900D01*
Y2525100D01*
X5851300D01*
Y2575900D01*
X5825900D01*
Y2601300D01*
X5775100D01*
Y2575900D01*
X5749700D01*
Y2525100D01*
X5775100D01*
X5575600Y2154600D02*
Y2129200D01*
X5626400D01*
Y2154600D01*
X5651800D01*
Y2205400D01*
X5626400D01*
Y2230800D01*
X5575600D01*
Y2205400D01*
X5550200D01*
Y2154600D01*
X5575600D01*
X5711600D02*
Y2129200D01*
X5762400D01*
Y2154600D01*
X5787800D01*
Y2205400D01*
X5762400D01*
Y2230800D01*
X5711600D01*
Y2205400D01*
X5686200D01*
Y2154600D01*
X5711600D01*
X5838600D02*
Y2129200D01*
X5889400D01*
Y2154600D01*
X5914800D01*
Y2205400D01*
X5889400D01*
Y2230800D01*
X5838600D01*
Y2205400D01*
X5813200D01*
Y2154600D01*
X5838600D01*
X6092600D02*
Y2129200D01*
X6143400D01*
Y2154600D01*
X6168800D01*
Y2205400D01*
X6143400D01*
Y2230800D01*
X6092600D01*
Y2205400D01*
X6067200D01*
Y2154600D01*
X6092600D01*
X6727600D02*
Y2129200D01*
X6778400D01*
Y2154600D01*
X6803800D01*
Y2205400D01*
X6778400D01*
Y2230800D01*
X6727600D01*
Y2205400D01*
X6702200D01*
Y2154600D01*
X6727600D01*
X6664100Y2525100D02*
Y2499700D01*
X6714900D01*
Y2525100D01*
X6740300D01*
Y2575900D01*
X6714900D01*
Y2601300D01*
X6664100D01*
Y2575900D01*
X6638700D01*
Y2525100D01*
X6664100D01*
X6791100D02*
Y2499700D01*
X6841900D01*
Y2525100D01*
X6867300D01*
Y2575900D01*
X6841900D01*
Y2601300D01*
X6791100D01*
Y2575900D01*
X6765700D01*
Y2525100D01*
X6791100D01*
X6854600Y2154600D02*
Y2129200D01*
X6905400D01*
Y2154600D01*
X6930800D01*
Y2205400D01*
X6905400D01*
Y2230800D01*
X6854600D01*
Y2205400D01*
X6829200D01*
Y2154600D01*
X6854600D01*
X6918100Y2525100D02*
Y2499700D01*
X6968900D01*
Y2525100D01*
X6994300D01*
Y2575900D01*
X6968900D01*
Y2601300D01*
X6918100D01*
Y2575900D01*
X6892700D01*
Y2525100D01*
X6918100D01*
X7045100D02*
Y2499700D01*
X7095900D01*
Y2525100D01*
X7121300D01*
Y2575900D01*
X7095900D01*
Y2601300D01*
X7045100D01*
Y2575900D01*
X7019700D01*
Y2525100D01*
X7045100D01*
X4949600Y2154600D02*
Y2129200D01*
X5000400D01*
Y2154600D01*
X5025800D01*
Y2205400D01*
X5000400D01*
Y2230800D01*
X4949600D01*
Y2205400D01*
X4924200D01*
Y2154600D01*
X4949600D01*
X4822600D02*
Y2129200D01*
X4873400D01*
Y2154600D01*
X4898800D01*
Y2205400D01*
X4873400D01*
Y2230800D01*
X4822600D01*
Y2205400D01*
X4797200D01*
Y2154600D01*
X4822600D01*
X6283100Y815100D02*
Y789700D01*
X6333900D01*
Y815100D01*
X6359300D01*
Y865900D01*
X6333900D01*
Y891300D01*
X6283100D01*
Y865900D01*
X6257700D01*
Y815100D01*
X6283100D01*
X6537100D02*
Y789700D01*
X6587900D01*
Y815100D01*
X6613300D01*
Y865900D01*
X6587900D01*
Y891300D01*
X6537100D01*
Y865900D01*
X6511700D01*
Y815100D01*
X6537100D01*
X3425600Y444600D02*
Y419200D01*
X3476400D01*
Y444600D01*
X3501800D01*
Y495400D01*
X3476400D01*
Y520800D01*
X3425600D01*
Y495400D01*
X3400200D01*
Y444600D01*
X3425600D01*
X3171600D02*
Y419200D01*
X3222400D01*
Y444600D01*
X3247800D01*
Y495400D01*
X3222400D01*
Y520800D01*
X3171600D01*
Y495400D01*
X3146200D01*
Y444600D01*
X3171600D01*
X3679600D02*
Y419200D01*
X3730400D01*
Y444600D01*
X3755800D01*
Y495400D01*
X3730400D01*
Y520800D01*
X3679600D01*
Y495400D01*
X3654200D01*
Y444600D01*
X3679600D01*
X3806600D02*
Y419200D01*
X3857400D01*
Y444600D01*
X3882800D01*
Y495400D01*
X3857400D01*
Y520800D01*
X3806600D01*
Y495400D01*
X3781200D01*
Y444600D01*
X3806600D01*
X3933600D02*
Y419200D01*
X3984400D01*
Y444600D01*
X4009800D01*
Y495400D01*
X3984400D01*
Y520800D01*
X3933600D01*
Y495400D01*
X3908200D01*
Y444600D01*
X3933600D01*
X4060600D02*
Y419200D01*
X4111400D01*
Y444600D01*
X4136800D01*
Y495400D01*
X4111400D01*
Y520800D01*
X4060600D01*
Y495400D01*
X4035200D01*
Y444600D01*
X4060600D01*
X4187600D02*
Y419200D01*
X4238400D01*
Y444600D01*
X4263800D01*
Y495400D01*
X4238400D01*
Y520800D01*
X4187600D01*
Y495400D01*
X4162200D01*
Y444600D01*
X4187600D01*
X4441600D02*
Y419200D01*
X4492400D01*
Y444600D01*
X4517800D01*
Y495400D01*
X4492400D01*
Y520800D01*
X4441600D01*
Y495400D01*
X4416200D01*
Y444600D01*
X4441600D01*
X4568600D02*
Y419200D01*
X4619400D01*
Y444600D01*
X4644800D01*
Y495400D01*
X4619400D01*
Y520800D01*
X4568600D01*
Y495400D01*
X4543200D01*
Y444600D01*
X4568600D01*
X4695600D02*
Y419200D01*
X4746400D01*
Y444600D01*
X4771800D01*
Y495400D01*
X4746400D01*
Y520800D01*
X4695600D01*
Y495400D01*
X4670200D01*
Y444600D01*
X4695600D01*
X5203600D02*
Y419200D01*
X5254400D01*
Y444600D01*
X5279800D01*
Y495400D01*
X5254400D01*
Y520800D01*
X5203600D01*
Y495400D01*
X5178200D01*
Y444600D01*
X5203600D01*
X4314600D02*
Y419200D01*
X4365400D01*
Y444600D01*
X4390800D01*
Y495400D01*
X4365400D01*
Y520800D01*
X4314600D01*
Y495400D01*
X4289200D01*
Y444600D01*
X4314600D01*
X5775100Y815100D02*
Y789700D01*
X5825900D01*
Y815100D01*
X5851300D01*
Y865900D01*
X5825900D01*
Y891300D01*
X5775100D01*
Y865900D01*
X5749700D01*
Y815100D01*
X5775100D01*
X5838600Y444600D02*
Y419200D01*
X5889400D01*
Y444600D01*
X5914800D01*
Y495400D01*
X5889400D01*
Y520800D01*
X5838600D01*
Y495400D01*
X5813200D01*
Y444600D01*
X5838600D01*
X5902100Y815100D02*
Y789700D01*
X5952900D01*
Y815100D01*
X5978300D01*
Y865900D01*
X5952900D01*
Y891300D01*
X5902100D01*
Y865900D01*
X5876700D01*
Y815100D01*
X5902100D01*
X4822600Y444600D02*
Y419200D01*
X4873400D01*
Y444600D01*
X4898800D01*
Y495400D01*
X4873400D01*
Y520800D01*
X4822600D01*
Y495400D01*
X4797200D01*
Y444600D01*
X4822600D01*
X4949600D02*
Y419200D01*
X5000400D01*
Y444600D01*
X5025800D01*
Y495400D01*
X5000400D01*
Y520800D01*
X4949600D01*
Y495400D01*
X4924200D01*
Y444600D01*
X4949600D01*
X7045100Y815100D02*
Y789700D01*
X7095900D01*
Y815100D01*
X7121300D01*
Y865900D01*
X7095900D01*
Y891300D01*
X7045100D01*
Y865900D01*
X7019700D01*
Y815100D01*
X7045100D01*
X6918100D02*
Y789700D01*
X6968900D01*
Y815100D01*
X6994300D01*
Y865900D01*
X6968900D01*
Y891300D01*
X6918100D01*
Y865900D01*
X6892700D01*
Y815100D01*
X6918100D01*
X6854600Y1833600D02*
Y1808200D01*
X6905400D01*
Y1833600D01*
X6930800D01*
Y1884400D01*
X6905400D01*
Y1909800D01*
X6854600D01*
Y1884400D01*
X6829200D01*
Y1833600D01*
X6854600D01*
X6791100Y815100D02*
Y789700D01*
X6841900D01*
Y815100D01*
X6867300D01*
Y865900D01*
X6841900D01*
Y891300D01*
X6791100D01*
Y865900D01*
X6765700D01*
Y815100D01*
X6791100D01*
X6600600Y1833600D02*
Y1808200D01*
X6651400D01*
Y1833600D01*
X6676800D01*
Y1884400D01*
X6651400D01*
Y1909800D01*
X6600600D01*
Y1884400D01*
X6575200D01*
Y1833600D01*
X6600600D01*
X6664100Y815100D02*
Y789700D01*
X6714900D01*
Y815100D01*
X6740300D01*
Y865900D01*
X6714900D01*
Y891300D01*
X6664100D01*
Y865900D01*
X6638700D01*
Y815100D01*
X6664100D01*
X5838600Y1833600D02*
Y1808200D01*
X5889400D01*
Y1833600D01*
X5914800D01*
Y1884400D01*
X5889400D01*
Y1909800D01*
X5838600D01*
Y1884400D01*
X5813200D01*
Y1833600D01*
X5838600D01*
X5711600D02*
Y1808200D01*
X5762400D01*
Y1833600D01*
X5787800D01*
Y1884400D01*
X5762400D01*
Y1909800D01*
X5711600D01*
Y1884400D01*
X5686200D01*
Y1833600D01*
X5711600D01*
X5575600D02*
Y1808200D01*
X5626400D01*
Y1833600D01*
X5651800D01*
Y1884400D01*
X5626400D01*
Y1909800D01*
X5575600D01*
Y1884400D01*
X5550200D01*
Y1833600D01*
X5575600D01*
X6219600Y444600D02*
Y419200D01*
X6270400D01*
Y444600D01*
X6295800D01*
Y495400D01*
X6270400D01*
Y520800D01*
X6219600D01*
Y495400D01*
X6194200D01*
Y444600D01*
X6219600D01*
X6092600D02*
Y419200D01*
X6143400D01*
Y444600D01*
X6168800D01*
Y495400D01*
X6143400D01*
Y520800D01*
X6092600D01*
Y495400D01*
X6067200D01*
Y444600D01*
X6092600D01*
X5711600D02*
Y419200D01*
X5762400D01*
Y444600D01*
X5787800D01*
Y495400D01*
X5762400D01*
Y520800D01*
X5711600D01*
Y495400D01*
X5686200D01*
Y444600D01*
X5711600D01*
X5575600D02*
Y419200D01*
X5626400D01*
Y444600D01*
X5651800D01*
Y495400D01*
X5626400D01*
Y520800D01*
X5575600D01*
Y495400D01*
X5550200D01*
Y444600D01*
X5575600D01*
X2981100Y815100D02*
Y789700D01*
X3031900D01*
Y815100D01*
X3057300D01*
Y865900D01*
X3031900D01*
Y891300D01*
X2981100D01*
Y865900D01*
X2955700D01*
Y815100D01*
X2981100D01*
X5329376Y1833600D02*
Y1808200D01*
X5380176D01*
Y1833600D01*
X5405576D01*
Y1884400D01*
X5380176D01*
Y1909800D01*
X5329376D01*
Y1884400D01*
X5303976D01*
Y1833600D01*
X5329376D01*
X5203600D02*
Y1808200D01*
X5254400D01*
Y1833600D01*
X5279800D01*
Y1884400D01*
X5254400D01*
Y1909800D01*
X5203600D01*
Y1884400D01*
X5178200D01*
Y1833600D01*
X5203600D01*
X4822600D02*
Y1808200D01*
X4873400D01*
Y1833600D01*
X4898800D01*
Y1884400D01*
X4873400D01*
Y1909800D01*
X4822600D01*
Y1884400D01*
X4797200D01*
Y1833600D01*
X4822600D01*
X4695600D02*
Y1808200D01*
X4746400D01*
Y1833600D01*
X4771800D01*
Y1884400D01*
X4746400D01*
Y1909800D01*
X4695600D01*
Y1884400D01*
X4670200D01*
Y1833600D01*
X4695600D01*
X4759100Y815100D02*
Y789700D01*
X4809900D01*
Y815100D01*
X4835300D01*
Y865900D01*
X4809900D01*
Y891300D01*
X4759100D01*
Y865900D01*
X4733700D01*
Y815100D01*
X4759100D01*
X4568600Y1833600D02*
Y1808200D01*
X4619400D01*
Y1833600D01*
X4644800D01*
Y1884400D01*
X4619400D01*
Y1909800D01*
X4568600D01*
Y1884400D01*
X4543200D01*
Y1833600D01*
X4568600D01*
X4378100Y815100D02*
Y789700D01*
X4428900D01*
Y815100D01*
X4454300D01*
Y865900D01*
X4428900D01*
Y891300D01*
X4378100D01*
Y865900D01*
X4352700D01*
Y815100D01*
X4378100D01*
X4314600Y1833600D02*
Y1808200D01*
X4365400D01*
Y1833600D01*
X4390800D01*
Y1884400D01*
X4365400D01*
Y1909800D01*
X4314600D01*
Y1884400D01*
X4289200D01*
Y1833600D01*
X4314600D01*
X4187600D02*
Y1808200D01*
X4238400D01*
Y1833600D01*
X4263800D01*
Y1884400D01*
X4238400D01*
Y1909800D01*
X4187600D01*
Y1884400D01*
X4162200D01*
Y1833600D01*
X4187600D01*
X4060600D02*
Y1808200D01*
X4111400D01*
Y1833600D01*
X4136800D01*
Y1884400D01*
X4111400D01*
Y1909800D01*
X4060600D01*
Y1884400D01*
X4035200D01*
Y1833600D01*
X4060600D01*
X3933600D02*
Y1808200D01*
X3984400D01*
Y1833600D01*
X4009800D01*
Y1884400D01*
X3984400D01*
Y1909800D01*
X3933600D01*
Y1884400D01*
X3908200D01*
Y1833600D01*
X3933600D01*
X3806600D02*
Y1808200D01*
X3857400D01*
Y1833600D01*
X3882800D01*
Y1884400D01*
X3857400D01*
Y1909800D01*
X3806600D01*
Y1884400D01*
X3781200D01*
Y1833600D01*
X3806600D01*
X5076600Y444600D02*
Y419200D01*
X5127400D01*
Y444600D01*
X5152800D01*
Y495400D01*
X5127400D01*
Y520800D01*
X5076600D01*
Y495400D01*
X5051200D01*
Y444600D01*
X5076600D01*
X3235100Y815100D02*
Y789700D01*
X3285900D01*
Y815100D01*
X3311300D01*
Y865900D01*
X3285900D01*
Y891300D01*
X3235100D01*
Y865900D01*
X3209700D01*
Y815100D01*
X3235100D01*
X3616100D02*
Y789700D01*
X3666900D01*
Y815100D01*
X3692300D01*
Y865900D01*
X3666900D01*
Y891300D01*
X3616100D01*
Y865900D01*
X3590700D01*
Y815100D01*
X3616100D01*
X3362100D02*
Y789700D01*
X3412900D01*
Y815100D01*
X3438300D01*
Y865900D01*
X3412900D01*
Y891300D01*
X3362100D01*
Y865900D01*
X3336700D01*
Y815100D01*
X3362100D01*
X7108600Y444600D02*
Y419200D01*
X7159400D01*
Y444600D01*
X7184800D01*
Y495400D01*
X7159400D01*
Y520800D01*
X7108600D01*
Y495400D01*
X7083200D01*
Y444600D01*
X7108600D01*
X5965600D02*
Y419200D01*
X6016400D01*
Y444600D01*
X6041800D01*
Y495400D01*
X6016400D01*
Y520800D01*
X5965600D01*
Y495400D01*
X5940200D01*
Y444600D01*
X5965600D01*
X7172100Y815100D02*
Y789700D01*
X7222900D01*
Y815100D01*
X7248300D01*
Y865900D01*
X7222900D01*
Y891300D01*
X7172100D01*
Y865900D01*
X7146700D01*
Y815100D01*
X7172100D01*
X5648100D02*
Y789700D01*
X5698900D01*
Y815100D01*
X5724300D01*
Y865900D01*
X5698900D01*
Y891300D01*
X5648100D01*
Y865900D01*
X5622700D01*
Y815100D01*
X5648100D01*
X5394100D02*
Y789700D01*
X5444900D01*
Y815100D01*
X5470300D01*
Y865900D01*
X5444900D01*
Y891300D01*
X5394100D01*
Y865900D01*
X5368700D01*
Y815100D01*
X5394100D01*
X5267100D02*
Y789700D01*
X5317900D01*
Y815100D01*
X5343300D01*
Y865900D01*
X5317900D01*
Y891300D01*
X5267100D01*
Y865900D01*
X5241700D01*
Y815100D01*
X5267100D01*
X5013100D02*
Y789700D01*
X5063900D01*
Y815100D01*
X5089300D01*
Y865900D01*
X5063900D01*
Y891300D01*
X5013100D01*
Y865900D01*
X4987700D01*
Y815100D01*
X5013100D01*
X3489100D02*
Y789700D01*
X3539900D01*
Y815100D01*
X3565300D01*
Y865900D01*
X3539900D01*
Y891300D01*
X3489100D01*
Y865900D01*
X3463700D01*
Y815100D01*
X3489100D01*
X3616101Y404475D02*
Y379075D01*
X3666901D01*
Y404475D01*
X3692301D01*
Y455275D01*
X3666901D01*
Y480675D01*
X3616101D01*
Y455275D01*
X3590701D01*
Y404475D01*
X3616101D01*
X3362101D02*
Y379075D01*
X3412901D01*
Y404475D01*
X3438301D01*
Y455275D01*
X3412901D01*
Y480675D01*
X3362101D01*
Y455275D01*
X3336701D01*
Y404475D01*
X3362101D01*
X1849201Y528198D02*
X1874601Y578998D01*
X1849201Y629798D01*
X1900001Y604398D01*
X1950801Y629798D01*
X1925401Y578998D01*
X1950801Y528198D01*
X1900001Y553598D01*
X1849201Y528198D01*
Y14208202D02*
X1874601Y14259001D01*
X1849201Y14309801D01*
X1900001Y14284401D01*
X1950801Y14309801D01*
X1925401Y14259001D01*
X1950801Y14208202D01*
X1900001Y14233601D01*
X1849201Y14208202D01*
Y12498202D02*
X1874601Y12549002D01*
X1849201Y12599802D01*
X1900001Y12574402D01*
X1950801Y12599802D01*
X1925401Y12549002D01*
X1950801Y12498202D01*
X1900001Y12523602D01*
X1849201Y12498202D01*
Y10788198D02*
X1874601Y10838998D01*
X1849201Y10889798D01*
X1900001Y10864398D01*
X1950801Y10889798D01*
X1925401Y10838998D01*
X1950801Y10788198D01*
X1900001Y10813598D01*
X1849201Y10788198D01*
Y9078199D02*
X1874601Y9128999D01*
X1849201Y9179799D01*
X1900001Y9154399D01*
X1950801Y9179799D01*
X1925401Y9128999D01*
X1950801Y9078199D01*
X1900001Y9103599D01*
X1849201Y9078199D01*
Y7368200D02*
X1874601Y7419000D01*
X1849201Y7469800D01*
X1900001Y7444400D01*
X1950801Y7469800D01*
X1925401Y7419000D01*
X1950801Y7368200D01*
X1900001Y7393600D01*
X1849201Y7368200D01*
Y5658201D02*
X1874601Y5709001D01*
X1849201Y5759801D01*
X1900001Y5734401D01*
X1950801Y5759801D01*
X1925401Y5709001D01*
X1950801Y5658201D01*
X1900001Y5683601D01*
X1849201Y5658201D01*
Y3948201D02*
X1874601Y3999001D01*
X1849201Y4049801D01*
X1900001Y4024401D01*
X1950801Y4049801D01*
X1925401Y3999001D01*
X1950801Y3948201D01*
X1900001Y3973601D01*
X1849201Y3948201D01*
Y2238202D02*
X1874601Y2289002D01*
X1849201Y2339802D01*
X1900001Y2314402D01*
X1950801Y2339802D01*
X1925401Y2289002D01*
X1950801Y2238202D01*
X1900001Y2263602D01*
X1849201Y2238202D01*
Y14319199D02*
X1874601Y14370000D01*
X1849201Y14420799D01*
X1900001Y14395399D01*
X1950801Y14420799D01*
X1925401Y14370000D01*
X1950801Y14319199D01*
X1900001Y14344598D01*
X1849201Y14319199D01*
Y12609200D02*
X1874601Y12660000D01*
X1849201Y12710800D01*
X1900001Y12685400D01*
X1950801Y12710800D01*
X1925401Y12660000D01*
X1950801Y12609200D01*
X1900001Y12634600D01*
X1849201Y12609200D01*
Y10899201D02*
X1874601Y10950001D01*
X1849201Y11000801D01*
X1900001Y10975401D01*
X1950801Y11000801D01*
X1925401Y10950001D01*
X1950801Y10899201D01*
X1900001Y10924601D01*
X1849201Y10899201D01*
Y9189202D02*
X1874601Y9240002D01*
X1849201Y9290802D01*
X1900001Y9265402D01*
X1950801Y9290802D01*
X1925401Y9240002D01*
X1950801Y9189202D01*
X1900001Y9214602D01*
X1849201Y9189202D01*
Y7479198D02*
X1874601Y7529998D01*
X1849201Y7580798D01*
X1900001Y7555398D01*
X1950801Y7580798D01*
X1925401Y7529998D01*
X1950801Y7479198D01*
X1900001Y7504598D01*
X1849201Y7479198D01*
Y5769199D02*
X1874601Y5819999D01*
X1849201Y5870799D01*
X1900001Y5845399D01*
X1950801Y5870799D01*
X1925401Y5819999D01*
X1950801Y5769199D01*
X1900001Y5794599D01*
X1849201Y5769199D01*
Y4059199D02*
X1874601Y4109999D01*
X1849201Y4160799D01*
X1900001Y4135399D01*
X1950801Y4160799D01*
X1925401Y4109999D01*
X1950801Y4059199D01*
X1900001Y4084599D01*
X1849201Y4059199D01*
Y2349200D02*
X1874601Y2400000D01*
X1849201Y2450800D01*
X1900001Y2425400D01*
X1950801Y2450800D01*
X1925401Y2400000D01*
X1950801Y2349200D01*
X1900001Y2374600D01*
X1849201Y2349200D01*
Y639201D02*
X1874601Y690001D01*
X1849201Y740801D01*
X1900001Y715401D01*
X1950801Y740801D01*
X1925401Y690001D01*
X1950801Y639201D01*
X1900001Y664601D01*
X1849201Y639201D01*
%TF.MD5,520bcbc0587054c9142d6614aed6ad8f*%
M02*
