%TF.GenerationSoftware,Altium Limited,Altium Designer,22.11.1 (43)*%
G04 Layer_Color=255*
%FSLAX45Y45*%
%MOMM*%
%TF.SameCoordinates,189E8146-0809-41ED-80BF-86DDFA5291D0*%
%TF.FilePolarity,Positive*%
%TF.FileFunction,Pads,Bot*%
%TF.Part,Single*%
G01*
G75*
%TA.AperFunction,ComponentPad*%
%ADD17C,1.45000*%
%ADD18C,1.50800*%
%TA.AperFunction,ViaPad*%
%ADD19C,4.00000*%
%TA.AperFunction,SMDPad,CuDef*%
%ADD23R,0.50000X1.05000*%
%ADD24R,0.50000X0.70000*%
D17*
X7630003Y14180002D02*
D03*
X2321001Y14280002D02*
D03*
Y12569998D02*
D03*
X7630003Y12469998D02*
D03*
X2321001Y10859999D02*
D03*
X7630003Y10759999D02*
D03*
X2321001Y9149999D02*
D03*
X7630003Y9050000D02*
D03*
X2321001Y7440000D02*
D03*
X7630003Y7340001D02*
D03*
X2321001Y5730001D02*
D03*
X7630003Y5630001D02*
D03*
X2321001Y4020002D02*
D03*
X7630003Y3920002D02*
D03*
X2321001Y2309998D02*
D03*
X7630003Y2209998D02*
D03*
Y499999D02*
D03*
X2321001Y599999D02*
D03*
D18*
X7820000Y14180002D02*
D03*
X2129998D02*
D03*
Y12469998D02*
D03*
X7820000D02*
D03*
X2129998Y10759999D02*
D03*
X7820000D02*
D03*
X2129998Y9050000D02*
D03*
X7820000D02*
D03*
X2129998Y7340001D02*
D03*
X7820000D02*
D03*
X2129998Y5630001D02*
D03*
X7820000D02*
D03*
X2129998Y3920002D02*
D03*
X7820000D02*
D03*
X2129998Y2209998D02*
D03*
X7820000D02*
D03*
Y499999D02*
D03*
X2129998D02*
D03*
D19*
X375001D02*
D03*
Y2209998D02*
D03*
Y3920002D02*
D03*
Y5630001D02*
D03*
Y7340001D02*
D03*
Y9050000D02*
D03*
Y10759999D02*
D03*
Y12469998D02*
D03*
Y14180002D02*
D03*
X9575002Y2209998D02*
D03*
Y3920002D02*
D03*
Y5630001D02*
D03*
Y7340001D02*
D03*
Y9050000D02*
D03*
Y10759999D02*
D03*
Y12469998D02*
D03*
Y14180002D02*
D03*
Y499999D02*
D03*
D23*
X1734998Y12549002D02*
D03*
Y578998D02*
D03*
Y2289002D02*
D03*
Y3999001D02*
D03*
Y5709001D02*
D03*
Y7419000D02*
D03*
Y9128999D02*
D03*
Y10838998D02*
D03*
Y14259001D02*
D03*
D24*
Y12660498D02*
D03*
Y690499D02*
D03*
Y2400498D02*
D03*
Y4110502D02*
D03*
Y5820501D02*
D03*
Y7530501D02*
D03*
Y9240500D02*
D03*
Y10950499D02*
D03*
Y14370502D02*
D03*
%TF.MD5,746b3db9d544ef07d5b9b964577055f5*%
M02*
