%TF.GenerationSoftware,Altium Limited,Altium Designer,22.11.1 (43)*%
G04 Layer_Color=16711935*
%FSLAX45Y45*%
%MOMM*%
%TF.SameCoordinates,189E8146-0809-41ED-80BF-86DDFA5291D0*%
%TF.FilePolarity,Negative*%
%TF.FileFunction,Soldermask,Bot*%
%TF.Part,Single*%
G01*
G75*
%TA.AperFunction,ComponentPad*%
%ADD30C,1.65320*%
%ADD31C,1.71120*%
%TA.AperFunction,ViaPad*%
%ADD32C,4.20320*%
%ADD33C,0.83820*%
%ADD34C,0.64720*%
%ADD35C,0.64770*%
%TA.AperFunction,SMDPad,CuDef*%
%ADD36R,0.70320X1.25320*%
%ADD37R,0.70320X0.90320*%
D30*
X7630003Y14180002D02*
D03*
X2321001Y14280002D02*
D03*
Y12569998D02*
D03*
X7630003Y12469998D02*
D03*
X2321001Y10859999D02*
D03*
X7630003Y10759999D02*
D03*
X2321001Y9149999D02*
D03*
X7630003Y9050000D02*
D03*
X2321001Y7440000D02*
D03*
X7630003Y7340001D02*
D03*
X2321001Y5730001D02*
D03*
X7630003Y5630001D02*
D03*
X2321001Y4020002D02*
D03*
X7630003Y3920002D02*
D03*
X2321001Y2309998D02*
D03*
X7630003Y2209998D02*
D03*
Y499999D02*
D03*
X2321001Y599999D02*
D03*
D31*
X7820000Y14180002D02*
D03*
X2129998D02*
D03*
Y12469998D02*
D03*
X7820000D02*
D03*
X2129998Y10759999D02*
D03*
X7820000D02*
D03*
X2129998Y9050000D02*
D03*
X7820000D02*
D03*
X2129998Y7340001D02*
D03*
X7820000D02*
D03*
X2129998Y5630001D02*
D03*
X7820000D02*
D03*
X2129998Y3920002D02*
D03*
X7820000D02*
D03*
X2129998Y2209998D02*
D03*
X7820000D02*
D03*
Y499999D02*
D03*
X2129998D02*
D03*
D32*
X375001D02*
D03*
Y2209998D02*
D03*
Y3920002D02*
D03*
Y5630001D02*
D03*
Y7340001D02*
D03*
Y9050000D02*
D03*
Y10759999D02*
D03*
Y12469998D02*
D03*
Y14180002D02*
D03*
X9575002Y2209998D02*
D03*
Y3920002D02*
D03*
Y5630001D02*
D03*
Y7340001D02*
D03*
Y9050000D02*
D03*
Y10759999D02*
D03*
Y12469998D02*
D03*
Y14180002D02*
D03*
Y499999D02*
D03*
D33*
X7451500Y14184502D02*
D03*
Y12474501D02*
D03*
Y10764501D02*
D03*
Y9054501D02*
D03*
Y7344501D02*
D03*
Y5634501D02*
D03*
Y3924501D02*
D03*
Y2214502D02*
D03*
X7324501Y504501D02*
D03*
X7451500Y504500D02*
D03*
X7324501Y14184502D02*
D03*
X2752501Y14180000D02*
D03*
X2625501D02*
D03*
X7324501Y12474502D02*
D03*
X2752501Y12470001D02*
D03*
X2625501D02*
D03*
X7324501Y10764502D02*
D03*
X2752501Y10760001D02*
D03*
X2625501D02*
D03*
X7324501Y9054502D02*
D03*
X2752501Y9050001D02*
D03*
X2625501D02*
D03*
X7324501Y7344502D02*
D03*
X2752501Y7340001D02*
D03*
X2625501D02*
D03*
X7324501Y5634502D02*
D03*
X2752501Y5630001D02*
D03*
X2625501D02*
D03*
X7324501Y3924502D02*
D03*
X2752501Y3920001D02*
D03*
X2625501D02*
D03*
X7324501Y2214502D02*
D03*
X2625501Y2210000D02*
D03*
X2752501D02*
D03*
X2625501Y500000D02*
D03*
X2752501D02*
D03*
X7324501Y2214502D02*
D03*
X1900001Y578998D02*
D03*
Y14259001D02*
D03*
Y12549002D02*
D03*
Y10838998D02*
D03*
Y9128999D02*
D03*
Y7419000D02*
D03*
Y5709001D02*
D03*
Y3999001D02*
D03*
Y2289002D02*
D03*
Y14370000D02*
D03*
Y12660000D02*
D03*
Y10950001D02*
D03*
Y9240002D02*
D03*
Y7529998D02*
D03*
Y5819999D02*
D03*
Y4109999D02*
D03*
Y2400000D02*
D03*
Y690001D02*
D03*
Y578998D02*
D03*
D34*
X2498500Y14520500D02*
D03*
Y12810500D02*
D03*
Y11100499D02*
D03*
Y9390499D02*
D03*
Y7680499D02*
D03*
Y5970499D02*
D03*
Y4260499D02*
D03*
Y2550500D02*
D03*
X2879499Y2550500D02*
D03*
Y7680500D02*
D03*
X2879500Y840500D02*
D03*
X2879499Y14520500D02*
D03*
Y12810500D02*
D03*
Y11100500D02*
D03*
Y9390500D02*
D03*
Y5970500D02*
D03*
Y4260500D02*
D03*
X2498500Y840500D02*
D03*
D35*
X4086000Y2180000D02*
D03*
X6118000Y1859001D02*
D03*
X3387499Y14520502D02*
D03*
X3831999Y13829001D02*
D03*
X3958999D02*
D03*
X4085999D02*
D03*
X4212999D02*
D03*
X4339999D02*
D03*
X4593999D02*
D03*
X4720999D02*
D03*
X4847999D02*
D03*
X5228999D02*
D03*
X5354776D02*
D03*
X5600999D02*
D03*
X5736999D02*
D03*
X5863999D02*
D03*
X6244999D02*
D03*
X6372000D02*
D03*
X6499000D02*
D03*
X6626000D02*
D03*
X6879999D02*
D03*
X7007000D02*
D03*
X3133499Y14520502D02*
D03*
X5990999Y14150002D02*
D03*
X3450999Y13829001D02*
D03*
X3196999D02*
D03*
X2942999D02*
D03*
X3006499Y14220502D02*
D03*
X4657499Y14520502D02*
D03*
X7197499Y14220502D02*
D03*
X7070499D02*
D03*
X6943499D02*
D03*
X6816499D02*
D03*
X6753000Y13829001D02*
D03*
X6689499Y14220502D02*
D03*
X6562499D02*
D03*
X6118000Y13829001D02*
D03*
X6308499Y14220502D02*
D03*
X6054499D02*
D03*
X5800499D02*
D03*
X5673499D02*
D03*
X5419499D02*
D03*
X5292499D02*
D03*
X5101999Y13829001D02*
D03*
X5038499Y14220502D02*
D03*
X4974999Y13829001D02*
D03*
X4784499Y14220502D02*
D03*
X4466999Y13829001D02*
D03*
X4403501Y14220502D02*
D03*
X4276499D02*
D03*
X4149499D02*
D03*
X4022499D02*
D03*
X3895499D02*
D03*
X3768499D02*
D03*
X3704999Y13829001D02*
D03*
X3260499Y14220502D02*
D03*
X3641499D02*
D03*
X3514499D02*
D03*
X4911499Y14520502D02*
D03*
X6435500D02*
D03*
X5927499D02*
D03*
X7133999Y14150002D02*
D03*
X5165499Y14520502D02*
D03*
X4530499D02*
D03*
X3387499Y14109875D02*
D03*
X3133499D02*
D03*
X2879501D02*
D03*
X3641499Y14109901D02*
D03*
X6181499Y14520502D02*
D03*
X3831999Y12119001D02*
D03*
X3958999D02*
D03*
X4085999D02*
D03*
X4212999D02*
D03*
X4339999D02*
D03*
X4593999D02*
D03*
X4720999D02*
D03*
X4847999D02*
D03*
X5228999D02*
D03*
X5354776D02*
D03*
X5600999D02*
D03*
X5736999D02*
D03*
X5863999D02*
D03*
X6244999D02*
D03*
X6372000D02*
D03*
X6499000D02*
D03*
X6626000D02*
D03*
X6879999D02*
D03*
X7007000D02*
D03*
X4847999Y12440001D02*
D03*
X4974999D02*
D03*
X7070499Y12810501D02*
D03*
X6943499D02*
D03*
X6879999Y12440001D02*
D03*
X6816499Y12810501D02*
D03*
X6689499D02*
D03*
X6753000Y12440001D02*
D03*
X6244999D02*
D03*
X6118000D02*
D03*
X5863999D02*
D03*
X5736999D02*
D03*
X5600999D02*
D03*
X5800499Y12810501D02*
D03*
X4784499D02*
D03*
X4403501D02*
D03*
X4339999Y12440001D02*
D03*
X4276499Y12810501D02*
D03*
X4149499D02*
D03*
X3895499D02*
D03*
X3768499D02*
D03*
X5228999Y12440001D02*
D03*
X5101999D02*
D03*
X4720999D02*
D03*
X4593999D02*
D03*
X4466999D02*
D03*
X4212999D02*
D03*
X4085999D02*
D03*
X3958999D02*
D03*
X3831999D02*
D03*
X3260499Y12810501D02*
D03*
X3133499D02*
D03*
X3196999Y12440001D02*
D03*
X3450999D02*
D03*
X3641499Y12810501D02*
D03*
X7197499D02*
D03*
X6562499D02*
D03*
X6308499D02*
D03*
X6054499D02*
D03*
X5673499D02*
D03*
X5419499D02*
D03*
X5292499D02*
D03*
X5038499D02*
D03*
X4022499D02*
D03*
X3514499D02*
D03*
X3006499D02*
D03*
X2942999Y12440001D02*
D03*
X3704999D02*
D03*
X5990999D02*
D03*
X3450999Y12119001D02*
D03*
X3196999D02*
D03*
X2942999D02*
D03*
X3006499Y12510501D02*
D03*
X4657499Y12810501D02*
D03*
X6372000Y12440001D02*
D03*
X6499000D02*
D03*
X6626000D02*
D03*
X7007000D02*
D03*
X7197499Y12510501D02*
D03*
X7070499D02*
D03*
X6943499D02*
D03*
X6816499D02*
D03*
X6753000Y12119001D02*
D03*
X6689499Y12510501D02*
D03*
X6562499D02*
D03*
X6118000Y12119001D02*
D03*
X6308499Y12510501D02*
D03*
X6054499D02*
D03*
X5800499D02*
D03*
X5673499D02*
D03*
X5419499D02*
D03*
X5292499D02*
D03*
X5101999Y12119001D02*
D03*
X5038499Y12510501D02*
D03*
X4974999Y12119001D02*
D03*
X4784499Y12510501D02*
D03*
X4466999Y12119001D02*
D03*
X4403501Y12510501D02*
D03*
X4276499D02*
D03*
X4149499D02*
D03*
X4022499D02*
D03*
X3895499D02*
D03*
X3768499D02*
D03*
X3704999Y12119001D02*
D03*
X3260499Y12510501D02*
D03*
X3641499D02*
D03*
X3514499D02*
D03*
X4911499Y12810501D02*
D03*
X6435500D02*
D03*
X5927499D02*
D03*
X7133999Y12440001D02*
D03*
X5165499Y12810501D02*
D03*
X4530499D02*
D03*
X3387499Y12399876D02*
D03*
Y12810501D02*
D03*
X3133499Y12399876D02*
D03*
X2879501D02*
D03*
X3641499Y12399901D02*
D03*
X6181499Y12810501D02*
D03*
X3831999Y10409001D02*
D03*
X3958999D02*
D03*
X4085999D02*
D03*
X4212999D02*
D03*
X4339999D02*
D03*
X4593999D02*
D03*
X4720999D02*
D03*
X4847999D02*
D03*
X5228999D02*
D03*
X5354776D02*
D03*
X5600999D02*
D03*
X5736999D02*
D03*
X5863999D02*
D03*
X6244999D02*
D03*
X6372000D02*
D03*
X6499000D02*
D03*
X6626000D02*
D03*
X6879999D02*
D03*
X7007000D02*
D03*
X4847999Y10730000D02*
D03*
X4974999D02*
D03*
X7070499Y11100501D02*
D03*
X6943499D02*
D03*
X6879999Y10730000D02*
D03*
X6816499Y11100501D02*
D03*
X6689499D02*
D03*
X6753000Y10730000D02*
D03*
X6244999D02*
D03*
X6118000D02*
D03*
X5863999D02*
D03*
X5736999D02*
D03*
X5600999D02*
D03*
X5800499Y11100501D02*
D03*
X4784499D02*
D03*
X4403501D02*
D03*
X4339999Y10730000D02*
D03*
X4276499Y11100501D02*
D03*
X4149499D02*
D03*
X3895499D02*
D03*
X3768499D02*
D03*
X5228999Y10730000D02*
D03*
X5101999D02*
D03*
X4720999D02*
D03*
X4593999D02*
D03*
X4466999D02*
D03*
X4212999D02*
D03*
X4085999D02*
D03*
X3958999D02*
D03*
X3831999D02*
D03*
X3260499Y11100501D02*
D03*
X3133499D02*
D03*
X3196999Y10730000D02*
D03*
X3450999D02*
D03*
X3641499Y11100501D02*
D03*
X7197499D02*
D03*
X6562499D02*
D03*
X6308499D02*
D03*
X6054499D02*
D03*
X5673499D02*
D03*
X5419499D02*
D03*
X5292499D02*
D03*
X5038499D02*
D03*
X4022499D02*
D03*
X3514499D02*
D03*
X3006499D02*
D03*
X2942999Y10730000D02*
D03*
X3704999D02*
D03*
X5990999D02*
D03*
X3450999Y10409001D02*
D03*
X3196999D02*
D03*
X2942999D02*
D03*
X3006499Y10800500D02*
D03*
X4657499Y11100501D02*
D03*
X6372000Y10730000D02*
D03*
X6499000D02*
D03*
X6626000D02*
D03*
X7007000D02*
D03*
X7197499Y10800500D02*
D03*
X7070499D02*
D03*
X6943499D02*
D03*
X6816499D02*
D03*
X6753000Y10409001D02*
D03*
X6689499Y10800500D02*
D03*
X6562499D02*
D03*
X6118000Y10409001D02*
D03*
X6308499Y10800500D02*
D03*
X6054499D02*
D03*
X5800499D02*
D03*
X5673499D02*
D03*
X5419499D02*
D03*
X5292499D02*
D03*
X5101999Y10409001D02*
D03*
X5038499Y10800500D02*
D03*
X4974999Y10409001D02*
D03*
X4784499Y10800500D02*
D03*
X4466999Y10409001D02*
D03*
X4403501Y10800500D02*
D03*
X4276499D02*
D03*
X4149499D02*
D03*
X4022499D02*
D03*
X3895499D02*
D03*
X3768499D02*
D03*
X3704999Y10409001D02*
D03*
X3260499Y10800500D02*
D03*
X3641499D02*
D03*
X3514499D02*
D03*
X4911499Y11100501D02*
D03*
X6435500D02*
D03*
X5927499D02*
D03*
X7133999Y10730000D02*
D03*
X5165499Y11100501D02*
D03*
X4530499D02*
D03*
X3387499Y10689875D02*
D03*
Y11100501D02*
D03*
X3133499Y10689875D02*
D03*
X2879501D02*
D03*
X3641499Y10689900D02*
D03*
X6181499Y11100501D02*
D03*
X3831999Y8699001D02*
D03*
X3958999D02*
D03*
X4085999D02*
D03*
X4212999D02*
D03*
X4339999D02*
D03*
X4593999D02*
D03*
X4720999D02*
D03*
X4847999D02*
D03*
X5228999D02*
D03*
X5354776D02*
D03*
X5600999D02*
D03*
X5736999D02*
D03*
X5863999D02*
D03*
X6244999D02*
D03*
X6372000D02*
D03*
X6499000D02*
D03*
X6626000D02*
D03*
X6879999D02*
D03*
X7007000D02*
D03*
X4847999Y9020001D02*
D03*
X4974999D02*
D03*
X7070499Y9390501D02*
D03*
X6943499D02*
D03*
X6879999Y9020001D02*
D03*
X6816499Y9390501D02*
D03*
X6689499D02*
D03*
X6753000Y9020001D02*
D03*
X6244999D02*
D03*
X6118000D02*
D03*
X5863999D02*
D03*
X5736999D02*
D03*
X5600999D02*
D03*
X5800499Y9390501D02*
D03*
X4784499D02*
D03*
X4403501D02*
D03*
X4339999Y9020001D02*
D03*
X4276499Y9390501D02*
D03*
X4149499D02*
D03*
X3895499D02*
D03*
X3768499D02*
D03*
X5228999Y9020001D02*
D03*
X5101999D02*
D03*
X4720999D02*
D03*
X4593999D02*
D03*
X4466999D02*
D03*
X4212999D02*
D03*
X4085999D02*
D03*
X3958999D02*
D03*
X3831999D02*
D03*
X3260499Y9390501D02*
D03*
X3133499D02*
D03*
X3196999Y9020001D02*
D03*
X3450999D02*
D03*
X3641499Y9390501D02*
D03*
X7197499D02*
D03*
X6562499D02*
D03*
X6308499D02*
D03*
X6054499D02*
D03*
X5673499D02*
D03*
X5419499D02*
D03*
X5292499D02*
D03*
X5038499D02*
D03*
X4022499D02*
D03*
X3514499D02*
D03*
X3006499D02*
D03*
X2942999Y9020001D02*
D03*
X3704999D02*
D03*
X5990999D02*
D03*
X3450999Y8699001D02*
D03*
X3196999D02*
D03*
X2942999D02*
D03*
X3006499Y9090501D02*
D03*
X4657499Y9390501D02*
D03*
X6372000Y9020001D02*
D03*
X6499000D02*
D03*
X6626000D02*
D03*
X7007000D02*
D03*
X7197499Y9090501D02*
D03*
X7070499D02*
D03*
X6943499D02*
D03*
X6816499D02*
D03*
X6753000Y8699001D02*
D03*
X6689499Y9090501D02*
D03*
X6562499D02*
D03*
X6118000Y8699001D02*
D03*
X6308499Y9090501D02*
D03*
X6054499D02*
D03*
X5800499D02*
D03*
X5673499D02*
D03*
X5419499D02*
D03*
X5292499D02*
D03*
X5101999Y8699001D02*
D03*
X5038499Y9090501D02*
D03*
X4974999Y8699001D02*
D03*
X4784499Y9090501D02*
D03*
X4466999Y8699001D02*
D03*
X4403501Y9090501D02*
D03*
X4276499D02*
D03*
X4149499D02*
D03*
X4022499D02*
D03*
X3895499D02*
D03*
X3768499D02*
D03*
X3704999Y8699001D02*
D03*
X3260499Y9090501D02*
D03*
X3641499D02*
D03*
X3514499D02*
D03*
X4911499Y9390501D02*
D03*
X6435500D02*
D03*
X5927499D02*
D03*
X7133999Y9020001D02*
D03*
X5165499Y9390501D02*
D03*
X4530499D02*
D03*
X3387499Y8979876D02*
D03*
Y9390501D02*
D03*
X3133499Y8979876D02*
D03*
X2879501D02*
D03*
X3641499Y8979901D02*
D03*
X6181499Y9390501D02*
D03*
X3831999Y6989001D02*
D03*
X3958999D02*
D03*
X4085999D02*
D03*
X4212999D02*
D03*
X4339999D02*
D03*
X4593999D02*
D03*
X4720999D02*
D03*
X4847999D02*
D03*
X5228999D02*
D03*
X5354776D02*
D03*
X5600999D02*
D03*
X5736999D02*
D03*
X5863999D02*
D03*
X6244999D02*
D03*
X6372000D02*
D03*
X6499000D02*
D03*
X6626000D02*
D03*
X6879999D02*
D03*
X7007000D02*
D03*
X4847999Y7310001D02*
D03*
X4974999D02*
D03*
X7070499Y7680501D02*
D03*
X6943499D02*
D03*
X6879999Y7310001D02*
D03*
X6816499Y7680501D02*
D03*
X6689499D02*
D03*
X6753000Y7310001D02*
D03*
X6244999D02*
D03*
X6118000D02*
D03*
X5863999D02*
D03*
X5736999D02*
D03*
X5600999D02*
D03*
X5800499Y7680501D02*
D03*
X4784499D02*
D03*
X4403501D02*
D03*
X4339999Y7310001D02*
D03*
X4276499Y7680501D02*
D03*
X4149499D02*
D03*
X3895499D02*
D03*
X3768499D02*
D03*
X5228999Y7310001D02*
D03*
X5101999D02*
D03*
X4720999D02*
D03*
X4593999D02*
D03*
X4466999D02*
D03*
X4212999D02*
D03*
X4085999D02*
D03*
X3958999D02*
D03*
X3831999D02*
D03*
X3260499Y7680501D02*
D03*
X3133499D02*
D03*
X3196999Y7310001D02*
D03*
X3450999D02*
D03*
X3641499Y7680501D02*
D03*
X7197499D02*
D03*
X6562499D02*
D03*
X6308499D02*
D03*
X6054499D02*
D03*
X5673499D02*
D03*
X5419499D02*
D03*
X5292499D02*
D03*
X5038499D02*
D03*
X4022499D02*
D03*
X3514499D02*
D03*
X3006499D02*
D03*
X2942999Y7310001D02*
D03*
X3704999D02*
D03*
X5990999D02*
D03*
X3450999Y6989001D02*
D03*
X3196999D02*
D03*
X2942999D02*
D03*
X3006499Y7380501D02*
D03*
X4657499Y7680501D02*
D03*
X6372000Y7310001D02*
D03*
X6499000D02*
D03*
X6626000D02*
D03*
X7007000D02*
D03*
X7197499Y7380501D02*
D03*
X7070499D02*
D03*
X6943499D02*
D03*
X6816499D02*
D03*
X6753000Y6989001D02*
D03*
X6689499Y7380501D02*
D03*
X6562499D02*
D03*
X6118000Y6989001D02*
D03*
X6308499Y7380501D02*
D03*
X6054499D02*
D03*
X5800499D02*
D03*
X5673499D02*
D03*
X5419499D02*
D03*
X5292499D02*
D03*
X5101999Y6989001D02*
D03*
X5038499Y7380501D02*
D03*
X4974999Y6989001D02*
D03*
X4784499Y7380501D02*
D03*
X4466999Y6989001D02*
D03*
X4403501Y7380501D02*
D03*
X4276499D02*
D03*
X4149499D02*
D03*
X4022499D02*
D03*
X3895499D02*
D03*
X3768499D02*
D03*
X3704999Y6989001D02*
D03*
X3260499Y7380501D02*
D03*
X3641499D02*
D03*
X3514499D02*
D03*
X4911499Y7680501D02*
D03*
X6435500D02*
D03*
X5927499D02*
D03*
X7133999Y7310001D02*
D03*
X5165499Y7680501D02*
D03*
X4530499D02*
D03*
X3387499Y7269876D02*
D03*
Y7680501D02*
D03*
X3133499Y7269876D02*
D03*
X2879501D02*
D03*
X3641499Y7269901D02*
D03*
X6181499Y7680501D02*
D03*
X3831999Y5279001D02*
D03*
X3958999D02*
D03*
X4085999D02*
D03*
X4212999D02*
D03*
X4339999D02*
D03*
X4593999D02*
D03*
X4720999D02*
D03*
X4847999D02*
D03*
X5228999D02*
D03*
X5354776D02*
D03*
X5600999D02*
D03*
X5736999D02*
D03*
X5863999D02*
D03*
X6244999D02*
D03*
X6372000D02*
D03*
X6499000D02*
D03*
X6626000D02*
D03*
X6879999D02*
D03*
X7007000D02*
D03*
X4847999Y5600001D02*
D03*
X4974999D02*
D03*
X7070499Y5970501D02*
D03*
X6943499D02*
D03*
X6879999Y5600001D02*
D03*
X6816499Y5970501D02*
D03*
X6689499D02*
D03*
X6753000Y5600001D02*
D03*
X6244999D02*
D03*
X6118000D02*
D03*
X5863999D02*
D03*
X5736999D02*
D03*
X5600999D02*
D03*
X5800499Y5970501D02*
D03*
X4784499D02*
D03*
X4403501D02*
D03*
X4339999Y5600001D02*
D03*
X4276499Y5970501D02*
D03*
X4149499D02*
D03*
X3895499D02*
D03*
X3768499D02*
D03*
X5228999Y5600001D02*
D03*
X5101999D02*
D03*
X4720999D02*
D03*
X4593999D02*
D03*
X4466999D02*
D03*
X4212999D02*
D03*
X4085999D02*
D03*
X3958999D02*
D03*
X3831999D02*
D03*
X3260499Y5970501D02*
D03*
X3133499D02*
D03*
X3196999Y5600001D02*
D03*
X3450999D02*
D03*
X3641499Y5970501D02*
D03*
X7197499D02*
D03*
X6562499D02*
D03*
X6308499D02*
D03*
X6054499D02*
D03*
X5673499D02*
D03*
X5419499D02*
D03*
X5292499D02*
D03*
X5038499D02*
D03*
X4022499D02*
D03*
X3514499D02*
D03*
X3006499D02*
D03*
X2942999Y5600001D02*
D03*
X3704999D02*
D03*
X5990999D02*
D03*
X3450999Y5279001D02*
D03*
X3196999D02*
D03*
X2942999D02*
D03*
X3006499Y5670501D02*
D03*
X4657499Y5970501D02*
D03*
X6372000Y5600001D02*
D03*
X6499000D02*
D03*
X6626000D02*
D03*
X7007000D02*
D03*
X7197499Y5670501D02*
D03*
X7070499D02*
D03*
X6943499D02*
D03*
X6816499D02*
D03*
X6753000Y5279001D02*
D03*
X6689499Y5670501D02*
D03*
X6562499D02*
D03*
X6118000Y5279001D02*
D03*
X6308499Y5670501D02*
D03*
X6054499D02*
D03*
X5800499D02*
D03*
X5673499D02*
D03*
X5419499D02*
D03*
X5292499D02*
D03*
X5101999Y5279001D02*
D03*
X5038499Y5670501D02*
D03*
X4974999Y5279001D02*
D03*
X4784499Y5670501D02*
D03*
X4466999Y5279001D02*
D03*
X4403501Y5670501D02*
D03*
X4276499D02*
D03*
X4149499D02*
D03*
X4022499D02*
D03*
X3895499D02*
D03*
X3768499D02*
D03*
X3704999Y5279001D02*
D03*
X3260499Y5670501D02*
D03*
X3641499D02*
D03*
X3514499D02*
D03*
X4911499Y5970501D02*
D03*
X6435500D02*
D03*
X5927499D02*
D03*
X7133999Y5600001D02*
D03*
X5165499Y5970501D02*
D03*
X4530499D02*
D03*
X3387499Y5559876D02*
D03*
Y5970501D02*
D03*
X3133499Y5559876D02*
D03*
X2879501D02*
D03*
X3641499Y5559901D02*
D03*
X6181499Y5970501D02*
D03*
X3831999Y3569001D02*
D03*
X3958999D02*
D03*
X4085999D02*
D03*
X4212999D02*
D03*
X4339999D02*
D03*
X4593999D02*
D03*
X4720999D02*
D03*
X4847999D02*
D03*
X5228999D02*
D03*
X5354776D02*
D03*
X5600999D02*
D03*
X5736999D02*
D03*
X5863999D02*
D03*
X6244999D02*
D03*
X6372000D02*
D03*
X6499000D02*
D03*
X6626000D02*
D03*
X6879999D02*
D03*
X7007000D02*
D03*
X4847999Y3890001D02*
D03*
X4974999D02*
D03*
X7070499Y4260501D02*
D03*
X6943499D02*
D03*
X6879999Y3890001D02*
D03*
X6816499Y4260501D02*
D03*
X6689499D02*
D03*
X6753000Y3890001D02*
D03*
X6244999D02*
D03*
X6118000D02*
D03*
X5863999D02*
D03*
X5736999D02*
D03*
X5600999D02*
D03*
X5800499Y4260501D02*
D03*
X4784499D02*
D03*
X4403501D02*
D03*
X4339999Y3890001D02*
D03*
X4276499Y4260501D02*
D03*
X4149499D02*
D03*
X3895499D02*
D03*
X3768499D02*
D03*
X5228999Y3890001D02*
D03*
X5101999D02*
D03*
X4720999D02*
D03*
X4593999D02*
D03*
X4466999D02*
D03*
X4212999D02*
D03*
X4085999D02*
D03*
X3958999D02*
D03*
X3831999D02*
D03*
X3260499Y4260501D02*
D03*
X3133499D02*
D03*
X3196999Y3890001D02*
D03*
X3450999D02*
D03*
X3641499Y4260501D02*
D03*
X7197499D02*
D03*
X6562499D02*
D03*
X6308499D02*
D03*
X6054499D02*
D03*
X5673499D02*
D03*
X5419499D02*
D03*
X5292499D02*
D03*
X5038499D02*
D03*
X4022499D02*
D03*
X3514499D02*
D03*
X3006499D02*
D03*
X2942999Y3890001D02*
D03*
X3704999D02*
D03*
X5990999D02*
D03*
X3450999Y3569001D02*
D03*
X3196999D02*
D03*
X2942999D02*
D03*
X3006499Y3960501D02*
D03*
X4657499Y4260501D02*
D03*
X6372000Y3890001D02*
D03*
X6499000D02*
D03*
X6626000D02*
D03*
X7007000D02*
D03*
X7197499Y3960501D02*
D03*
X7070499D02*
D03*
X6943499D02*
D03*
X6816499D02*
D03*
X6753000Y3569001D02*
D03*
X6689499Y3960501D02*
D03*
X6562499D02*
D03*
X6118000Y3569001D02*
D03*
X6308499Y3960501D02*
D03*
X6054499D02*
D03*
X5800499D02*
D03*
X5673499D02*
D03*
X5419499D02*
D03*
X5292499D02*
D03*
X5101999Y3569001D02*
D03*
X5038499Y3960501D02*
D03*
X4974999Y3569001D02*
D03*
X4784499Y3960501D02*
D03*
X4466999Y3569001D02*
D03*
X4403501Y3960501D02*
D03*
X4276499D02*
D03*
X4149499D02*
D03*
X4022499D02*
D03*
X3895499D02*
D03*
X3768499D02*
D03*
X3704999Y3569001D02*
D03*
X3260499Y3960501D02*
D03*
X3641499D02*
D03*
X3514499D02*
D03*
X4911499Y4260501D02*
D03*
X6435500D02*
D03*
X5927499D02*
D03*
X7133999Y3890001D02*
D03*
X5165499Y4260501D02*
D03*
X4530499D02*
D03*
X3387499Y3849876D02*
D03*
Y4260501D02*
D03*
X3133499Y3849876D02*
D03*
X2879501D02*
D03*
X3641499Y3849901D02*
D03*
X6181499Y4260501D02*
D03*
X6244999Y1859001D02*
D03*
X6372000D02*
D03*
X6499000D02*
D03*
X7007000D02*
D03*
X6244999Y2180001D02*
D03*
X3895499Y2550501D02*
D03*
X3768499D02*
D03*
X4466999Y2180001D02*
D03*
X3260499Y2550501D02*
D03*
X3133499D02*
D03*
X3641499D02*
D03*
X6054499D02*
D03*
X5419499D02*
D03*
X5292499D02*
D03*
X5038499D02*
D03*
X4022499D02*
D03*
X3514499D02*
D03*
X3006499D02*
D03*
X2942999Y2180001D02*
D03*
X7007000D02*
D03*
X6308499Y2250501D02*
D03*
X5927499Y2550501D02*
D03*
X7133999Y2180001D02*
D03*
X5165499Y2550501D02*
D03*
X4530499D02*
D03*
X3387499D02*
D03*
X6181499D02*
D03*
X3641500Y2139900D02*
D03*
X2879501Y2139875D02*
D03*
X3133500D02*
D03*
X3387500D02*
D03*
X6435500Y2550500D02*
D03*
X4911500D02*
D03*
X3514500Y2250500D02*
D03*
X3641500D02*
D03*
X3260500D02*
D03*
X3705000Y1859000D02*
D03*
X3768500Y2250500D02*
D03*
X3895500D02*
D03*
X4022500D02*
D03*
X4149500D02*
D03*
X4276500D02*
D03*
X4403501D02*
D03*
X4467000Y1859000D02*
D03*
X4784500Y2250500D02*
D03*
X4975000Y1859000D02*
D03*
X5038500Y2250500D02*
D03*
X5102000Y1859000D02*
D03*
X5292500Y2250500D02*
D03*
X5419500D02*
D03*
X5673500D02*
D03*
X5800500D02*
D03*
X6054500D02*
D03*
X6562500D02*
D03*
X6689500D02*
D03*
X6753000Y1859000D02*
D03*
X6816500Y2250500D02*
D03*
X6943500D02*
D03*
X7070500D02*
D03*
X7197500D02*
D03*
X6626000Y2180000D02*
D03*
X6499000D02*
D03*
X6372000D02*
D03*
X4657500Y2550500D02*
D03*
X3006500Y2250500D02*
D03*
X2943000Y1859000D02*
D03*
X3197000D02*
D03*
X3451000D02*
D03*
X2879500Y429900D02*
D03*
X5991000Y2180000D02*
D03*
X6181500Y840500D02*
D03*
X5356000Y470000D02*
D03*
X3705000Y2180000D02*
D03*
X2943000Y470000D02*
D03*
X6372000D02*
D03*
X6499000D02*
D03*
X6626000D02*
D03*
X6753000D02*
D03*
X7007000D02*
D03*
X6880000D02*
D03*
X6435500Y840500D02*
D03*
X6054500D02*
D03*
X5165500D02*
D03*
X4911500D02*
D03*
X4657500D02*
D03*
X4530500D02*
D03*
X4276500D02*
D03*
X4149500D02*
D03*
X4022500D02*
D03*
X3895500D02*
D03*
X3768500D02*
D03*
X3133500D02*
D03*
X2943000Y2180000D02*
D03*
X3133500Y429875D02*
D03*
X5673500Y2550500D02*
D03*
X6308500D02*
D03*
X6562500D02*
D03*
X7197500D02*
D03*
X3451000Y2180000D02*
D03*
X3197000D02*
D03*
X3832000D02*
D03*
X3959000D02*
D03*
X4213000D02*
D03*
X4594000D02*
D03*
X4721000D02*
D03*
X5102000D02*
D03*
X5229000D02*
D03*
X4149500Y2550500D02*
D03*
X4276500D02*
D03*
X4340000Y2180000D02*
D03*
X4403501Y2550500D02*
D03*
X4784500D02*
D03*
X5800500D02*
D03*
X5601000Y2180000D02*
D03*
X5737000D02*
D03*
X5864000D02*
D03*
X6118000D02*
D03*
X6753000D02*
D03*
X6689500Y2550500D02*
D03*
X6816500D02*
D03*
X6880000Y2180000D02*
D03*
X6943500Y2550500D02*
D03*
X7070500D02*
D03*
X4975000Y2180000D02*
D03*
X4848000D02*
D03*
X6308500Y840500D02*
D03*
X6562500D02*
D03*
X3451000Y470000D02*
D03*
X3197000D02*
D03*
X3705000D02*
D03*
X3832000D02*
D03*
X3959000D02*
D03*
X4086000D02*
D03*
X4213000D02*
D03*
X4467000D02*
D03*
X4594000D02*
D03*
X4721000D02*
D03*
X5229000D02*
D03*
X4340000D02*
D03*
X5800500Y840500D02*
D03*
X5864000Y470000D02*
D03*
X5927500Y840500D02*
D03*
X4848000Y470000D02*
D03*
X4975000D02*
D03*
X7070500Y840500D02*
D03*
X6943500D02*
D03*
X6880000Y1859000D02*
D03*
X6816500Y840500D02*
D03*
X6626000Y1859000D02*
D03*
X6689500Y840500D02*
D03*
X5864000Y1859000D02*
D03*
X5737000D02*
D03*
X5601000D02*
D03*
X6245000Y470000D02*
D03*
X6118000D02*
D03*
X5737000D02*
D03*
X5601000D02*
D03*
X3006500Y840500D02*
D03*
X5354776Y1859000D02*
D03*
X5229000D02*
D03*
X4848000D02*
D03*
X4721000D02*
D03*
X4784500Y840500D02*
D03*
X4594000Y1859000D02*
D03*
X4403500Y840500D02*
D03*
X4340000Y1859000D02*
D03*
X4213000D02*
D03*
X4086000D02*
D03*
X3959000D02*
D03*
X3832000D02*
D03*
X5102000Y470000D02*
D03*
X3260500Y840500D02*
D03*
X3641500D02*
D03*
X3387500D02*
D03*
X7134000Y470000D02*
D03*
X5991000D02*
D03*
X7197500Y840500D02*
D03*
X5673500D02*
D03*
X5419500D02*
D03*
X5292500D02*
D03*
X5038500D02*
D03*
X3514500D02*
D03*
X3641501Y429875D02*
D03*
X3387501D02*
D03*
D36*
X1734998Y12549002D02*
D03*
Y578998D02*
D03*
Y2289002D02*
D03*
Y3999001D02*
D03*
Y5709001D02*
D03*
Y7419000D02*
D03*
Y9128999D02*
D03*
Y10838998D02*
D03*
Y14259001D02*
D03*
D37*
Y12660498D02*
D03*
Y690499D02*
D03*
Y2400498D02*
D03*
Y4110502D02*
D03*
Y5820501D02*
D03*
Y7530501D02*
D03*
Y9240500D02*
D03*
Y10950499D02*
D03*
Y14370502D02*
D03*
%TF.MD5,319bb79d13495a7eb94c043442a2ade8*%
M02*
