%TF.GenerationSoftware,Altium Limited,Altium Designer,22.11.1 (43)*%
G04 Layer_Color=16711935*
%FSLAX45Y45*%
%MOMM*%
%TF.SameCoordinates,189E8146-0809-41ED-80BF-86DDFA5291D0*%
%TF.FilePolarity,Positive*%
%TF.FileFunction,Other,Mechanical_13*%
%TF.Part,Single*%
G01*
G75*
%TA.AperFunction,NonConductor*%
%ADD25C,0.20000*%
%ADD26C,0.10000*%
D25*
X7543500Y14526401D02*
G03*
X7543500Y14526401I-10000J0D01*
G01*
Y12816400D02*
G03*
X7543500Y12816400I-10000J0D01*
G01*
Y11106400D02*
G03*
X7543500Y11106400I-10000J0D01*
G01*
Y9396400D02*
G03*
X7543500Y9396400I-10000J0D01*
G01*
Y7686400D02*
G03*
X7543500Y7686400I-10000J0D01*
G01*
Y5976400D02*
G03*
X7543500Y5976400I-10000J0D01*
G01*
Y4266400D02*
G03*
X7543500Y4266400I-10000J0D01*
G01*
Y2556400D02*
G03*
X7543500Y2556400I-10000J0D01*
G01*
Y846400D02*
G03*
X7543500Y846400I-10000J0D01*
G01*
D26*
X7924002Y13900003D02*
Y14370203D01*
X2026001Y13900003D02*
X7924002D01*
X2026001D02*
Y14460002D01*
X7834198D01*
X7924002Y14370203D01*
X1760002Y13917000D02*
Y14062000D01*
X1540002Y13917000D02*
Y14062000D01*
Y13917000D02*
X1760002D01*
X1540002Y14062000D02*
X1760002D01*
X7834198Y12750002D02*
X7924002Y12660198D01*
X2026001Y12750002D02*
X7834198D01*
X2026001Y12189998D02*
Y12750002D01*
Y12189998D02*
X7924002D01*
Y12660198D01*
X7834198Y11039998D02*
X7924002Y10950199D01*
X2026001Y11039998D02*
X7834198D01*
X2026001Y10479999D02*
Y11039998D01*
Y10479999D02*
X7924002D01*
Y10950199D01*
X1760002Y12207001D02*
Y12352000D01*
X1540002Y12207001D02*
Y12352000D01*
Y12207001D02*
X1760002D01*
X1540002Y12352000D02*
X1760002D01*
Y10497002D02*
Y10642001D01*
X1540002Y10497002D02*
Y10642001D01*
Y10497002D02*
X1760002D01*
X1540002Y10642001D02*
X1760002D01*
X7834198Y9329999D02*
X7924002Y9240200D01*
X2026001Y9329999D02*
X7834198D01*
X2026001Y8770000D02*
Y9329999D01*
Y8770000D02*
X7924002D01*
Y9240200D01*
X7834198Y7620000D02*
X7924002Y7530201D01*
X2026001Y7620000D02*
X7834198D01*
X2026001Y7060001D02*
Y7620000D01*
Y7060001D02*
X7924002D01*
Y7530201D01*
X7834198Y5910001D02*
X7924002Y5820202D01*
X2026001Y5910001D02*
X7834198D01*
X2026001Y5350002D02*
Y5910001D01*
Y5350002D02*
X7924002D01*
Y5820202D01*
X1760002Y8786998D02*
Y8932001D01*
X1540002Y8786998D02*
Y8932001D01*
Y8786998D02*
X1760002D01*
X1540002Y8932001D02*
X1760002D01*
Y7076999D02*
Y7222002D01*
X1540002Y7076999D02*
Y7222002D01*
Y7076999D02*
X1760002D01*
X1540002Y7222002D02*
X1760002D01*
Y5367000D02*
Y5511998D01*
X1540002Y5367000D02*
Y5511998D01*
Y5367000D02*
X1760002D01*
X1540002Y5511998D02*
X1760002D01*
X7834198Y4200002D02*
X7924002Y4110203D01*
X2026001Y4200002D02*
X7834198D01*
X2026001Y3639998D02*
Y4200002D01*
Y3639998D02*
X7924002D01*
Y4110203D01*
X7834198Y2489998D02*
X7924002Y2400198D01*
X2026001Y2489998D02*
X7834198D01*
X2026001Y1929999D02*
Y2489998D01*
Y1929999D02*
X7924002D01*
Y2400198D01*
X1760002Y3657001D02*
Y3801999D01*
X1540002Y3657001D02*
Y3801999D01*
Y3657001D02*
X1760002D01*
X1540002Y3801999D02*
X1760002D01*
Y1947001D02*
Y2092000D01*
X1540002Y1947001D02*
Y2092000D01*
Y1947001D02*
X1760002D01*
X1540002Y2092000D02*
X1760002D01*
Y237002D02*
Y382001D01*
X1540002Y237002D02*
Y382001D01*
Y237002D02*
X1760002D01*
X1540002Y382001D02*
X1760002D01*
X7924002Y220000D02*
Y690199D01*
X2026001Y220000D02*
X7924002D01*
X2026001D02*
Y779998D01*
X7834198D01*
X7924002Y690199D01*
%TF.MD5,65d156c8cd73ae9ecb23351fd3c87c95*%
M02*
