%TF.GenerationSoftware,Altium Limited,Altium Designer,22.11.1 (43)*%
G04 Layer_Color=65535*
%FSLAX45Y45*%
%MOMM*%
%TF.SameCoordinates,189E8146-0809-41ED-80BF-86DDFA5291D0*%
%TF.FilePolarity,Positive*%
%TF.FileFunction,Legend,Top*%
%TF.Part,Single*%
G01*
G75*
%TA.AperFunction,NonConductor*%
%ADD16C,0.25400*%
%ADD25C,0.20000*%
D16*
X8108967Y14256158D02*
X8083575Y14281551D01*
X8032792D01*
X8007400Y14256158D01*
Y14230766D01*
X8032792Y14205376D01*
X8083575D01*
X8108967Y14179984D01*
Y14154591D01*
X8083575Y14129201D01*
X8032792D01*
X8007400Y14154591D01*
X8159751Y14281551D02*
Y14129201D01*
X8261318D01*
X8388277Y14281551D02*
X8337493D01*
X8312101Y14256158D01*
Y14154591D01*
X8337493Y14129201D01*
X8388277D01*
X8413669Y14154591D01*
Y14256158D01*
X8388277Y14281551D01*
X8464452D02*
X8566019D01*
X8515236D01*
Y14129201D01*
X8769154Y14154591D02*
X8794546Y14129201D01*
X8845329D01*
X8870721Y14154591D01*
Y14256158D01*
X8845329Y14281551D01*
X8794546D01*
X8769154Y14256158D01*
Y14230766D01*
X8794546Y14205376D01*
X8870721D01*
X8108967Y12546159D02*
X8083575Y12571551D01*
X8032792D01*
X8007400Y12546159D01*
Y12520767D01*
X8032792Y12495375D01*
X8083575D01*
X8108967Y12469983D01*
Y12444592D01*
X8083575Y12419200D01*
X8032792D01*
X8007400Y12444592D01*
X8159751Y12571551D02*
Y12419200D01*
X8261318D01*
X8388277Y12571551D02*
X8337493D01*
X8312101Y12546159D01*
Y12444592D01*
X8337493Y12419200D01*
X8388277D01*
X8413669Y12444592D01*
Y12546159D01*
X8388277Y12571551D01*
X8464452D02*
X8566019D01*
X8515236D01*
Y12419200D01*
X8769154Y12546159D02*
X8794546Y12571551D01*
X8845329D01*
X8870721Y12546159D01*
Y12520767D01*
X8845329Y12495375D01*
X8870721Y12469983D01*
Y12444592D01*
X8845329Y12419200D01*
X8794546D01*
X8769154Y12444592D01*
Y12469983D01*
X8794546Y12495375D01*
X8769154Y12520767D01*
Y12546159D01*
X8794546Y12495375D02*
X8845329D01*
X8108967Y10836159D02*
X8083575Y10861551D01*
X8032792D01*
X8007400Y10836159D01*
Y10810767D01*
X8032792Y10785375D01*
X8083575D01*
X8108967Y10759984D01*
Y10734592D01*
X8083575Y10709200D01*
X8032792D01*
X8007400Y10734592D01*
X8159751Y10861551D02*
Y10709200D01*
X8261318D01*
X8388277Y10861551D02*
X8337493D01*
X8312101Y10836159D01*
Y10734592D01*
X8337493Y10709200D01*
X8388277D01*
X8413669Y10734592D01*
Y10836159D01*
X8388277Y10861551D01*
X8464452D02*
X8566019D01*
X8515236D01*
Y10709200D01*
X8769154Y10861551D02*
X8870721D01*
Y10836159D01*
X8769154Y10734592D01*
Y10709200D01*
X8108967Y9126159D02*
X8083575Y9151551D01*
X8032792D01*
X8007400Y9126159D01*
Y9100767D01*
X8032792Y9075375D01*
X8083575D01*
X8108967Y9049983D01*
Y9024592D01*
X8083575Y8999200D01*
X8032792D01*
X8007400Y9024592D01*
X8159751Y9151551D02*
Y8999200D01*
X8261318D01*
X8388277Y9151551D02*
X8337493D01*
X8312101Y9126159D01*
Y9024592D01*
X8337493Y8999200D01*
X8388277D01*
X8413669Y9024592D01*
Y9126159D01*
X8388277Y9151551D01*
X8464452D02*
X8566019D01*
X8515236D01*
Y8999200D01*
X8870721Y9151551D02*
X8819937Y9126159D01*
X8769154Y9075375D01*
Y9024592D01*
X8794546Y8999200D01*
X8845329D01*
X8870721Y9024592D01*
Y9049983D01*
X8845329Y9075375D01*
X8769154D01*
X8108967Y7416159D02*
X8083575Y7441551D01*
X8032792D01*
X8007400Y7416159D01*
Y7390767D01*
X8032792Y7365375D01*
X8083575D01*
X8108967Y7339984D01*
Y7314592D01*
X8083575Y7289200D01*
X8032792D01*
X8007400Y7314592D01*
X8159751Y7441551D02*
Y7289200D01*
X8261318D01*
X8388277Y7441551D02*
X8337493D01*
X8312101Y7416159D01*
Y7314592D01*
X8337493Y7289200D01*
X8388277D01*
X8413669Y7314592D01*
Y7416159D01*
X8388277Y7441551D01*
X8464452D02*
X8566019D01*
X8515236D01*
Y7289200D01*
X8870721Y7441551D02*
X8769154D01*
Y7365375D01*
X8819937Y7390767D01*
X8845329D01*
X8870721Y7365375D01*
Y7314592D01*
X8845329Y7289200D01*
X8794546D01*
X8769154Y7314592D01*
X8108967Y5706159D02*
X8083575Y5731551D01*
X8032792D01*
X8007400Y5706159D01*
Y5680767D01*
X8032792Y5655375D01*
X8083575D01*
X8108967Y5629983D01*
Y5604592D01*
X8083575Y5579200D01*
X8032792D01*
X8007400Y5604592D01*
X8159751Y5731551D02*
Y5579200D01*
X8261318D01*
X8388277Y5731551D02*
X8337493D01*
X8312101Y5706159D01*
Y5604592D01*
X8337493Y5579200D01*
X8388277D01*
X8413669Y5604592D01*
Y5706159D01*
X8388277Y5731551D01*
X8464452D02*
X8566019D01*
X8515236D01*
Y5579200D01*
X8845329D02*
Y5731551D01*
X8769154Y5655375D01*
X8870721D01*
X8108967Y3996159D02*
X8083575Y4021551D01*
X8032792D01*
X8007400Y3996159D01*
Y3970767D01*
X8032792Y3945375D01*
X8083575D01*
X8108967Y3919984D01*
Y3894592D01*
X8083575Y3869200D01*
X8032792D01*
X8007400Y3894592D01*
X8159751Y4021551D02*
Y3869200D01*
X8261318D01*
X8388277Y4021551D02*
X8337493D01*
X8312101Y3996159D01*
Y3894592D01*
X8337493Y3869200D01*
X8388277D01*
X8413669Y3894592D01*
Y3996159D01*
X8388277Y4021551D01*
X8464452D02*
X8566019D01*
X8515236D01*
Y3869200D01*
X8769154Y3996159D02*
X8794546Y4021551D01*
X8845329D01*
X8870721Y3996159D01*
Y3970767D01*
X8845329Y3945375D01*
X8819937D01*
X8845329D01*
X8870721Y3919984D01*
Y3894592D01*
X8845329Y3869200D01*
X8794546D01*
X8769154Y3894592D01*
X8108967Y2286159D02*
X8083575Y2311551D01*
X8032792D01*
X8007400Y2286159D01*
Y2260767D01*
X8032792Y2235375D01*
X8083575D01*
X8108967Y2209983D01*
Y2184592D01*
X8083575Y2159200D01*
X8032792D01*
X8007400Y2184592D01*
X8159751Y2311551D02*
Y2159200D01*
X8261318D01*
X8388277Y2311551D02*
X8337493D01*
X8312101Y2286159D01*
Y2184592D01*
X8337493Y2159200D01*
X8388277D01*
X8413669Y2184592D01*
Y2286159D01*
X8388277Y2311551D01*
X8464452D02*
X8566019D01*
X8515236D01*
Y2159200D01*
X8870721D02*
X8769154D01*
X8870721Y2260767D01*
Y2286159D01*
X8845329Y2311551D01*
X8794546D01*
X8769154Y2286159D01*
X8108967Y576159D02*
X8083575Y601551D01*
X8032792D01*
X8007400Y576159D01*
Y550767D01*
X8032792Y525375D01*
X8083575D01*
X8108967Y499984D01*
Y474592D01*
X8083575Y449200D01*
X8032792D01*
X8007400Y474592D01*
X8159751Y601551D02*
Y449200D01*
X8261318D01*
X8388277Y601551D02*
X8337493D01*
X8312101Y576159D01*
Y474592D01*
X8337493Y449200D01*
X8388277D01*
X8413669Y474592D01*
Y576159D01*
X8388277Y601551D01*
X8464452D02*
X8566019D01*
X8515236D01*
Y449200D01*
X8769154D02*
X8819937D01*
X8794546D01*
Y601551D01*
X8769154Y576159D01*
D25*
X7543500Y14526401D02*
G03*
X7543500Y14526401I-10000J0D01*
G01*
Y12816400D02*
G03*
X7543500Y12816400I-10000J0D01*
G01*
Y11106400D02*
G03*
X7543500Y11106400I-10000J0D01*
G01*
Y9396400D02*
G03*
X7543500Y9396400I-10000J0D01*
G01*
Y7686400D02*
G03*
X7543500Y7686400I-10000J0D01*
G01*
Y5976400D02*
G03*
X7543500Y5976400I-10000J0D01*
G01*
Y4266400D02*
G03*
X7543500Y4266400I-10000J0D01*
G01*
Y2556400D02*
G03*
X7543500Y2556400I-10000J0D01*
G01*
Y846400D02*
G03*
X7543500Y846400I-10000J0D01*
G01*
X7519502Y13900003D02*
X7924002D01*
X7834198Y14460002D02*
X7924002Y14370203D01*
X7519502Y14460002D02*
X7834198D01*
X2026001D02*
X2430501D01*
X2026001Y13900003D02*
X2430501D01*
X7924002Y14289999D02*
Y14370203D01*
Y13900003D02*
Y14070000D01*
X2026001Y13900003D02*
Y14070000D01*
Y14289999D02*
Y14460002D01*
Y12580000D02*
Y12750002D01*
Y12189998D02*
Y12360001D01*
X7924002Y12189998D02*
Y12360001D01*
Y12580000D02*
Y12660198D01*
X2026001Y12189998D02*
X2430501D01*
X2026001Y12750002D02*
X2430501D01*
X7519502D02*
X7834198D01*
X7924002Y12660198D01*
X7519502Y12189998D02*
X7924002D01*
X2026001Y10870001D02*
Y11039998D01*
Y10479999D02*
Y10650002D01*
X7924002Y10479999D02*
Y10650002D01*
Y10870001D02*
Y10950199D01*
X2026001Y10479999D02*
X2430501D01*
X2026001Y11039998D02*
X2430501D01*
X7519502D02*
X7834198D01*
X7924002Y10950199D01*
X7519502Y10479999D02*
X7924002D01*
X2026001Y9160002D02*
Y9329999D01*
Y8770000D02*
Y8940002D01*
X7924002Y8770000D02*
Y8940002D01*
Y9160002D02*
Y9240200D01*
X2026001Y8770000D02*
X2430501D01*
X2026001Y9329999D02*
X2430501D01*
X7519502D02*
X7834198D01*
X7924002Y9240200D01*
X7519502Y8770000D02*
X7924002D01*
X2026001Y7449998D02*
Y7620000D01*
Y7060001D02*
Y7229998D01*
X7924002Y7060001D02*
Y7229998D01*
Y7449998D02*
Y7530201D01*
X2026001Y7060001D02*
X2430501D01*
X2026001Y7620000D02*
X2430501D01*
X7519502D02*
X7834198D01*
X7924002Y7530201D01*
X7519502Y7060001D02*
X7924002D01*
X2026001Y5739999D02*
Y5910001D01*
Y5350002D02*
Y5519999D01*
X7924002Y5350002D02*
Y5519999D01*
Y5739999D02*
Y5820202D01*
X2026001Y5350002D02*
X2430501D01*
X2026001Y5910001D02*
X2430501D01*
X7519502D02*
X7834198D01*
X7924002Y5820202D01*
X7519502Y5350002D02*
X7924002D01*
X2026001Y4030000D02*
Y4200002D01*
Y3639998D02*
Y3810000D01*
X7924002Y3639998D02*
Y3810000D01*
Y4030000D02*
Y4110203D01*
X2026001Y3639998D02*
X2430501D01*
X2026001Y4200002D02*
X2430501D01*
X7519502D02*
X7834198D01*
X7924002Y4110203D01*
X7519502Y3639998D02*
X7924002D01*
X2026001Y2320000D02*
Y2489998D01*
Y1929999D02*
Y2100001D01*
X7924002Y1929999D02*
Y2100001D01*
Y2320000D02*
Y2400198D01*
X2026001Y1929999D02*
X2430501D01*
X2026001Y2489998D02*
X2430501D01*
X7519502D02*
X7834198D01*
X7924002Y2400198D01*
X7519502Y1929999D02*
X7924002D01*
X7519502Y220000D02*
X7924002D01*
X7834198Y779998D02*
X7924002Y690199D01*
X7519502Y779998D02*
X7834198D01*
X2026001D02*
X2430501D01*
X2026001Y220000D02*
X2430501D01*
X7924002Y610001D02*
Y690199D01*
Y220000D02*
Y390002D01*
X2026001Y220000D02*
Y390002D01*
Y610001D02*
Y779998D01*
%TF.MD5,6a3cefdc67a5a1d127928deef2f26d3c*%
M02*
