%TF.GenerationSoftware,Altium Limited,Altium Designer,23.3.1 (30)*%
G04 Layer_Color=128*
%FSLAX45Y45*%
%MOMM*%
%TF.SameCoordinates,3D4662BF-085F-4CF4-8E86-F61BF3E894F1*%
%TF.FilePolarity,Positive*%
%TF.FileFunction,Paste,Bot*%
%TF.Part,Single*%
G01*
G75*
%TA.AperFunction,SMDPad,CuDef*%
%ADD13R,0.56818X0.57247*%
%TA.AperFunction,ConnectorPad*%
%ADD14R,5.08000X2.41300*%
%TA.AperFunction,SMDPad,CuDef*%
%ADD50R,0.75000X0.90000*%
%ADD51R,0.75000X1.00000*%
%ADD52R,0.46818X0.47247*%
G36*
X1563902Y2010073D02*
X1567029D01*
Y2003818D01*
X1576412D01*
Y2000690D01*
X1601433D01*
Y1997563D01*
X1595178D01*
Y1994435D01*
X1570157D01*
Y1991307D01*
X1567029D01*
Y1985052D01*
X1563902D01*
Y1960031D01*
X1560774D01*
Y1963159D01*
X1557646D01*
Y1988180D01*
X1554519D01*
Y1991307D01*
X1551391D01*
Y1994435D01*
X1526370D01*
Y1997563D01*
X1520115D01*
Y2000690D01*
X1548263D01*
Y2003818D01*
X1554519D01*
Y2006946D01*
X1557646D01*
Y2035094D01*
X1563902D01*
Y2010073D01*
D02*
G37*
G36*
X1976747Y2401025D02*
X1979874D01*
Y2391642D01*
X1995512D01*
Y2388515D01*
X2017406D01*
Y2385387D01*
X2004895D01*
Y2382259D01*
X1979874D01*
Y2369749D01*
X1976747D01*
Y2344728D01*
X1973619D01*
Y2350983D01*
X1970492D01*
Y2376004D01*
X1967364D01*
Y2382259D01*
X1945471D01*
Y2385387D01*
X1929833D01*
Y2388515D01*
X1951726D01*
Y2391642D01*
X1967364D01*
Y2397897D01*
X1970492D01*
Y2422918D01*
X1973619D01*
Y2429174D01*
X1976747D01*
Y2401025D01*
D02*
G37*
G36*
X2739885Y2175837D02*
X2752395D01*
Y2172709D01*
X2764906D01*
Y2169582D01*
X2743012D01*
Y2166454D01*
X2739885D01*
Y2147688D01*
X2736757D01*
Y2150816D01*
X2733630D01*
Y2166454D01*
X2730502D01*
Y2169582D01*
X2708609D01*
Y2172709D01*
X2721119D01*
Y2175837D01*
X2733630D01*
Y2178964D01*
Y2191475D01*
X2736757D01*
Y2194602D01*
X2739885D01*
Y2175837D01*
D02*
G37*
G36*
X3177751Y2354111D02*
X3180879D01*
Y2332218D01*
X3196517D01*
Y2329090D01*
X3224665D01*
Y2325962D01*
X3227793D01*
Y2322835D01*
X3199644D01*
Y2319707D01*
X3180879D01*
Y2297814D01*
X3177751D01*
Y2294686D01*
Y2269665D01*
X3174623D01*
Y2279048D01*
X3171496D01*
Y2307197D01*
X3168368D01*
Y2319707D01*
X3149602D01*
Y2322835D01*
X3124582D01*
Y2329090D01*
X3152730D01*
Y2332218D01*
X3168368D01*
Y2344728D01*
X3171496D01*
Y2372877D01*
X3174623D01*
Y2379132D01*
X3177751D01*
Y2354111D01*
D02*
G37*
D13*
X1449783Y1257500D02*
D03*
X1540217D02*
D03*
D14*
X292100Y1383250D02*
D03*
Y2259550D02*
D03*
D50*
X1915000Y780000D02*
D03*
X1795000D02*
D03*
X1672500Y3005000D02*
D03*
X1792500D02*
D03*
D51*
X1092500Y1950000D02*
D03*
X1242502D02*
D03*
D52*
X2470213Y2567500D02*
D03*
X2389787D02*
D03*
%TF.MD5,d58a95a207fb3c4fa7eb8daef86a1b4f*%
M02*
