%TF.GenerationSoftware,Altium Limited,Altium Designer,23.3.1 (30)*%
G04 Layer_Color=0*
%FSLAX45Y45*%
%MOMM*%
%TF.SameCoordinates,3D4662BF-085F-4CF4-8E86-F61BF3E894F1*%
%TF.FilePolarity,Positive*%
%TF.FileFunction,Plated,1,4,PTH,Drill*%
%TF.Part,Single*%
G01*
G75*
%TA.AperFunction,OtherDrill,Pad Free-3 (3mm,27.2mm)*%
%ADD76C,3.20000*%
%TA.AperFunction,OtherDrill,Pad Free-4 (34mm,40mm)*%
%ADD77C,3.20000*%
%TA.AperFunction,OtherDrill,Pad Free-3 (3mm,3mm)*%
%ADD78C,3.20000*%
%TA.AperFunction,ComponentDrill*%
%ADD79C,1.02000*%
%ADD80O,1.30000X0.60000*%
%ADD81C,0.85000*%
%ADD82C,0.80000*%
%TA.AperFunction,ViaDrill,NotFilled*%
%ADD83C,0.25400*%
%ADD84C,0.20000*%
D76*
X300000Y2720000D02*
D03*
D77*
X3400000Y4000000D02*
D03*
D78*
X300000Y300000D02*
D03*
D79*
X990600Y373600D02*
D03*
X1244600D02*
D03*
X1498600D02*
D03*
X990600Y627600D02*
D03*
X1244600D02*
D03*
X1498600D02*
D03*
X3441700Y653000D02*
D03*
X3187700D02*
D03*
X2933700D02*
D03*
X2679700D02*
D03*
D80*
X139700Y3967700D02*
D03*
Y3267701D02*
D03*
D81*
X409702Y3867700D02*
D03*
Y3367701D02*
D03*
D82*
X2705100Y3358100D02*
D03*
Y3558100D02*
D03*
D83*
X295000Y3077500D02*
D03*
X1822500Y210000D02*
D03*
X2057500Y205000D02*
D03*
X2295000D02*
D03*
X1991305Y840244D02*
D03*
X1689100Y770000D02*
D03*
X1557500Y3027500D02*
D03*
X1560000Y1105000D02*
D03*
X927500Y840000D02*
D03*
X625000Y1380000D02*
D03*
X630000Y2260000D02*
D03*
X1357500Y1952500D02*
D03*
X1892300Y2885931D02*
D03*
X962500Y1950000D02*
D03*
X3267500Y2907500D02*
D03*
X2445000Y2895000D02*
D03*
X2065000Y2900000D02*
D03*
X927500Y2902500D02*
D03*
X1685000Y2897500D02*
D03*
X540000Y3485000D02*
D03*
X1225000Y3637500D02*
D03*
X760000Y4132500D02*
D03*
X1552879Y3388321D02*
D03*
X1540000Y3472500D02*
D03*
X1815000Y3657500D02*
D03*
X1727942D02*
D03*
X1828800Y3281900D02*
D03*
X2580000Y1092500D02*
D03*
X3340000Y1110000D02*
D03*
X690000Y1857500D02*
D03*
Y2080000D02*
D03*
X685000Y1602500D02*
D03*
X1663700Y1199100D02*
D03*
X1308100D02*
D03*
X1838000Y2160800D02*
D03*
X2692400Y2545300D02*
D03*
X1769282Y3967700D02*
D03*
X1778000Y3815300D02*
D03*
X1498600Y3180300D02*
D03*
D84*
X2160900Y3652400D02*
D03*
X2270902D02*
D03*
X2380899D02*
D03*
X2160900Y3542402D02*
D03*
X2270902D02*
D03*
X2380899D02*
D03*
X2160900Y3432400D02*
D03*
X2270902D02*
D03*
X2380899D02*
D03*
%TF.MD5,f8e0a5f40edd52bcb25d839511b20664*%
M02*
