%TF.GenerationSoftware,Altium Limited,Altium Designer,23.3.1 (30)*%
G04 Layer_Color=16711935*
%FSLAX45Y45*%
%MOMM*%
%TF.SameCoordinates,3D4662BF-085F-4CF4-8E86-F61BF3E894F1*%
%TF.FilePolarity,Negative*%
%TF.FileFunction,Soldermask,Bot*%
%TF.Part,Single*%
G01*
G75*
%TA.AperFunction,SMDPad,CuDef*%
%ADD13R,0.56818X0.57247*%
%TA.AperFunction,ComponentPad*%
%ADD37R,1.30000X1.30000*%
%ADD38C,1.30000*%
%TA.AperFunction,SMDPad,CuDef*%
%ADD50R,0.75000X0.90000*%
%ADD51R,0.75000X1.00000*%
%ADD52R,0.46818X0.47247*%
%TA.AperFunction,ConnectorPad*%
%ADD58R,5.28320X2.61620*%
%TA.AperFunction,ViaPad*%
%ADD69C,4.20320*%
%TA.AperFunction,ComponentPad*%
%ADD70R,1.75320X1.75320*%
%ADD71C,1.75320*%
%ADD72C,1.65320*%
%TA.AperFunction,ViaPad*%
%ADD73C,0.64720*%
%ADD74C,0.70320*%
G36*
X1565231Y2045189D02*
X1566537Y2044929D01*
X1567798Y2044501D01*
X1568993Y2043912D01*
X1570100Y2043172D01*
X1571101Y2042294D01*
X1571979Y2041293D01*
X1572719Y2040185D01*
X1573309Y2038991D01*
X1573737Y2037729D01*
X1573996Y2036423D01*
X1574083Y2035094D01*
Y2017400D01*
X1574229Y2017273D01*
X1575107Y2016272D01*
X1575847Y2015164D01*
X1576422Y2013999D01*
X1577741Y2013913D01*
X1579047Y2013653D01*
X1580308Y2013225D01*
X1581503Y2012636D01*
X1582610Y2011896D01*
X1583612Y2011018D01*
X1583739Y2010872D01*
X1601433D01*
X1602762Y2010785D01*
X1604068Y2010525D01*
X1605329Y2010097D01*
X1606524Y2009508D01*
X1607631Y2008768D01*
X1608633Y2007890D01*
X1609511Y2006889D01*
X1610251Y2005781D01*
X1610840Y2004587D01*
X1611268Y2003326D01*
X1611528Y2002019D01*
X1611615Y2000690D01*
Y1997563D01*
X1611528Y1996234D01*
X1611268Y1994927D01*
X1610840Y1993666D01*
X1610251Y1992472D01*
X1609511Y1991364D01*
X1608633Y1990363D01*
X1607631Y1989485D01*
X1606524Y1988745D01*
X1605329Y1988156D01*
X1604068Y1987728D01*
X1602762Y1987468D01*
X1602570Y1987456D01*
X1602377Y1987236D01*
X1601376Y1986357D01*
X1600269Y1985618D01*
X1599074Y1985028D01*
X1597813Y1984600D01*
X1596507Y1984340D01*
X1595178Y1984253D01*
X1577484D01*
X1577357Y1984108D01*
X1577136Y1983915D01*
X1577124Y1983723D01*
X1576864Y1982417D01*
X1576436Y1981156D01*
X1575847Y1979961D01*
X1575107Y1978854D01*
X1574229Y1977853D01*
X1574083Y1977725D01*
Y1960031D01*
X1573996Y1958702D01*
X1573737Y1957396D01*
X1573309Y1956135D01*
X1572719Y1954940D01*
X1571979Y1953833D01*
X1571101Y1952832D01*
X1570100Y1951954D01*
X1568993Y1951214D01*
X1567798Y1950624D01*
X1566537Y1950197D01*
X1565231Y1949937D01*
X1563902Y1949850D01*
X1560774D01*
X1559445Y1949937D01*
X1558139Y1950197D01*
X1556878Y1950624D01*
X1555683Y1951214D01*
X1554576Y1951954D01*
X1553574Y1952832D01*
X1552696Y1953833D01*
X1552196Y1954581D01*
X1551448Y1955081D01*
X1550447Y1955959D01*
X1549569Y1956961D01*
X1548829Y1958068D01*
X1548239Y1959263D01*
X1547811Y1960524D01*
X1547552Y1961830D01*
X1547465Y1963159D01*
Y1980853D01*
X1547319Y1980980D01*
X1546441Y1981982D01*
X1545941Y1982730D01*
X1545193Y1983230D01*
X1544191Y1984108D01*
X1544064Y1984253D01*
X1526370D01*
X1525041Y1984340D01*
X1523735Y1984600D01*
X1522474Y1985028D01*
X1521279Y1985618D01*
X1520172Y1986357D01*
X1519170Y1987236D01*
X1518978Y1987456D01*
X1518786Y1987468D01*
X1517480Y1987728D01*
X1516218Y1988156D01*
X1515024Y1988745D01*
X1513916Y1989485D01*
X1512915Y1990363D01*
X1512037Y1991364D01*
X1511297Y1992472D01*
X1510708Y1993666D01*
X1510280Y1994927D01*
X1510020Y1996234D01*
X1509933Y1997563D01*
Y2000690D01*
X1510020Y2002019D01*
X1510280Y2003326D01*
X1510708Y2004587D01*
X1511297Y2005781D01*
X1512037Y2006889D01*
X1512915Y2007890D01*
X1513916Y2008768D01*
X1515024Y2009508D01*
X1516218Y2010097D01*
X1517480Y2010525D01*
X1518786Y2010785D01*
X1520115Y2010872D01*
X1540936D01*
X1541064Y2011018D01*
X1542065Y2011896D01*
X1543172Y2012636D01*
X1544367Y2013225D01*
X1545628Y2013653D01*
X1546934Y2013913D01*
X1547126Y2013925D01*
X1547319Y2014145D01*
X1547465Y2014273D01*
Y2035094D01*
X1547552Y2036423D01*
X1547811Y2037729D01*
X1548239Y2038991D01*
X1548829Y2040185D01*
X1549569Y2041293D01*
X1550447Y2042294D01*
X1551448Y2043172D01*
X1552555Y2043912D01*
X1553750Y2044501D01*
X1555011Y2044929D01*
X1556317Y2045189D01*
X1557646Y2045276D01*
X1563902D01*
X1565231Y2045189D01*
D02*
G37*
G36*
X1978076Y2439268D02*
X1979382Y2439009D01*
X1980643Y2438581D01*
X1981838Y2437991D01*
X1982945Y2437251D01*
X1983946Y2436373D01*
X1984824Y2435372D01*
X1985564Y2434265D01*
X1986154Y2433070D01*
X1986581Y2431809D01*
X1986841Y2430503D01*
X1986928Y2429174D01*
Y2408353D01*
X1987074Y2408225D01*
X1987952Y2407224D01*
X1988692Y2406116D01*
X1989281Y2404922D01*
X1989709Y2403660D01*
X1989969Y2402354D01*
X1990004Y2401824D01*
X1995512D01*
X1996841Y2401737D01*
X1998148Y2401477D01*
X1999409Y2401049D01*
X2000603Y2400460D01*
X2001711Y2399720D01*
X2002712Y2398842D01*
X2002840Y2398696D01*
X2017406D01*
X2018735Y2398609D01*
X2020041Y2398350D01*
X2021302Y2397922D01*
X2022497Y2397332D01*
X2023604Y2396592D01*
X2024605Y2395714D01*
X2025483Y2394713D01*
X2026223Y2393606D01*
X2026813Y2392411D01*
X2027241Y2391150D01*
X2027500Y2389844D01*
X2027588Y2388515D01*
Y2385387D01*
X2027500Y2384058D01*
X2027241Y2382752D01*
X2026813Y2381491D01*
X2026223Y2380296D01*
X2025483Y2379189D01*
X2024605Y2378187D01*
X2023604Y2377309D01*
X2022497Y2376569D01*
X2021302Y2375980D01*
X2020041Y2375552D01*
X2018735Y2375292D01*
X2017406Y2375205D01*
X2012222D01*
X2012095Y2375060D01*
X2011094Y2374182D01*
X2009986Y2373442D01*
X2008792Y2372853D01*
X2007530Y2372425D01*
X2006224Y2372165D01*
X2004895Y2372078D01*
X1990056D01*
Y2369749D01*
X1989969Y2368420D01*
X1989709Y2367114D01*
X1989281Y2365853D01*
X1988692Y2364658D01*
X1987952Y2363551D01*
X1987074Y2362549D01*
X1986928Y2362421D01*
Y2344728D01*
X1986841Y2343399D01*
X1986581Y2342093D01*
X1986154Y2340832D01*
X1985564Y2339637D01*
X1984824Y2338530D01*
X1983946Y2337528D01*
X1982945Y2336650D01*
X1981838Y2335910D01*
X1980643Y2335321D01*
X1979382Y2334893D01*
X1978076Y2334633D01*
X1976747Y2334546D01*
X1973619D01*
X1972290Y2334633D01*
X1970984Y2334893D01*
X1969723Y2335321D01*
X1968528Y2335910D01*
X1967421Y2336650D01*
X1966419Y2337528D01*
X1965541Y2338530D01*
X1964802Y2339637D01*
X1964212Y2340832D01*
X1963784Y2342093D01*
X1963524Y2343399D01*
X1963512Y2343591D01*
X1963292Y2343783D01*
X1962414Y2344785D01*
X1961674Y2345892D01*
X1961085Y2347087D01*
X1960657Y2348348D01*
X1960397Y2349654D01*
X1960310Y2350983D01*
Y2368677D01*
X1960164Y2368805D01*
X1959286Y2369806D01*
X1958546Y2370913D01*
X1957972Y2372078D01*
X1945471D01*
X1944142Y2372165D01*
X1942835Y2372425D01*
X1941574Y2372853D01*
X1940380Y2373442D01*
X1939272Y2374182D01*
X1938271Y2375060D01*
X1938143Y2375205D01*
X1929833D01*
X1928504Y2375292D01*
X1927197Y2375552D01*
X1925936Y2375980D01*
X1924742Y2376569D01*
X1923634Y2377309D01*
X1922633Y2378187D01*
X1921755Y2379189D01*
X1921015Y2380296D01*
X1920426Y2381491D01*
X1919998Y2382752D01*
X1919738Y2384058D01*
X1919651Y2385387D01*
Y2388515D01*
X1919738Y2389844D01*
X1919998Y2391150D01*
X1920426Y2392411D01*
X1921015Y2393606D01*
X1921755Y2394713D01*
X1922633Y2395714D01*
X1923634Y2396592D01*
X1924742Y2397332D01*
X1925936Y2397922D01*
X1927197Y2398350D01*
X1928504Y2398609D01*
X1929833Y2398696D01*
X1944399D01*
X1944526Y2398842D01*
X1945527Y2399720D01*
X1946635Y2400460D01*
X1947829Y2401049D01*
X1949091Y2401477D01*
X1950397Y2401737D01*
X1951726Y2401824D01*
X1957972D01*
X1958546Y2402988D01*
X1959286Y2404096D01*
X1960164Y2405097D01*
X1960310Y2405225D01*
Y2422918D01*
X1960397Y2424247D01*
X1960657Y2425554D01*
X1961085Y2426815D01*
X1961674Y2428009D01*
X1962414Y2429117D01*
X1963292Y2430118D01*
X1963512Y2430311D01*
X1963524Y2430503D01*
X1963784Y2431809D01*
X1964212Y2433070D01*
X1964802Y2434265D01*
X1965541Y2435372D01*
X1966419Y2436373D01*
X1967421Y2437251D01*
X1968528Y2437991D01*
X1969723Y2438581D01*
X1970984Y2439009D01*
X1972290Y2439268D01*
X1973619Y2439356D01*
X1976747D01*
X1978076Y2439268D01*
D02*
G37*
G36*
X2741214Y2204697D02*
X2742520Y2204437D01*
X2743781Y2204009D01*
X2744976Y2203420D01*
X2746083Y2202680D01*
X2747084Y2201802D01*
X2747962Y2200801D01*
X2748702Y2199693D01*
X2749292Y2198499D01*
X2749720Y2197238D01*
X2749980Y2195931D01*
X2750067Y2194602D01*
Y2186019D01*
X2752395D01*
X2753724Y2185932D01*
X2755031Y2185672D01*
X2756292Y2185244D01*
X2757486Y2184655D01*
X2758594Y2183915D01*
X2759595Y2183037D01*
X2759723Y2182891D01*
X2764906D01*
X2766235Y2182804D01*
X2767541Y2182544D01*
X2768802Y2182116D01*
X2769997Y2181527D01*
X2771104Y2180787D01*
X2772105Y2179909D01*
X2772984Y2178908D01*
X2773723Y2177800D01*
X2774313Y2176606D01*
X2774741Y2175344D01*
X2775001Y2174038D01*
X2775088Y2172709D01*
Y2169582D01*
X2775001Y2168253D01*
X2774741Y2166946D01*
X2774313Y2165685D01*
X2773723Y2164491D01*
X2772984Y2163383D01*
X2772105Y2162382D01*
X2771104Y2161504D01*
X2769997Y2160764D01*
X2768802Y2160175D01*
X2767541Y2159747D01*
X2766235Y2159487D01*
X2764906Y2159400D01*
X2750340D01*
X2750212Y2159254D01*
X2750067Y2159127D01*
Y2147688D01*
X2749980Y2146359D01*
X2749720Y2145053D01*
X2749292Y2143792D01*
X2748702Y2142597D01*
X2747962Y2141490D01*
X2747084Y2140489D01*
X2746083Y2139611D01*
X2744976Y2138871D01*
X2743781Y2138281D01*
X2742520Y2137853D01*
X2741214Y2137594D01*
X2739885Y2137507D01*
X2736757D01*
X2735428Y2137594D01*
X2734122Y2137853D01*
X2732861Y2138281D01*
X2731666Y2138871D01*
X2730559Y2139611D01*
X2729558Y2140489D01*
X2728680Y2141490D01*
X2728180Y2142238D01*
X2727431Y2142738D01*
X2726430Y2143616D01*
X2725552Y2144618D01*
X2724812Y2145725D01*
X2724223Y2146920D01*
X2723795Y2148181D01*
X2723535Y2149487D01*
X2723448Y2150816D01*
Y2159127D01*
X2723302Y2159254D01*
X2723175Y2159400D01*
X2708609D01*
X2707280Y2159487D01*
X2705974Y2159747D01*
X2704712Y2160175D01*
X2703518Y2160764D01*
X2702410Y2161504D01*
X2701409Y2162382D01*
X2700531Y2163383D01*
X2699791Y2164491D01*
X2699202Y2165685D01*
X2698774Y2166946D01*
X2698514Y2168253D01*
X2698427Y2169582D01*
Y2172709D01*
X2698514Y2174038D01*
X2698774Y2175344D01*
X2699202Y2176606D01*
X2699791Y2177800D01*
X2700531Y2178908D01*
X2701409Y2179909D01*
X2702410Y2180787D01*
X2703518Y2181527D01*
X2704712Y2182116D01*
X2705974Y2182544D01*
X2707280Y2182804D01*
X2708609Y2182891D01*
X2713792D01*
X2713919Y2183037D01*
X2714921Y2183915D01*
X2716028Y2184655D01*
X2717223Y2185244D01*
X2718484Y2185672D01*
X2719790Y2185932D01*
X2721119Y2186019D01*
X2723448D01*
Y2191475D01*
X2723535Y2192804D01*
X2723795Y2194110D01*
X2724223Y2195371D01*
X2724812Y2196566D01*
X2725552Y2197673D01*
X2726430Y2198675D01*
X2727431Y2199553D01*
X2728180Y2200053D01*
X2728680Y2200801D01*
X2729558Y2201802D01*
X2730559Y2202680D01*
X2731666Y2203420D01*
X2732861Y2204009D01*
X2734122Y2204437D01*
X2735428Y2204697D01*
X2736757Y2204784D01*
X2739885D01*
X2741214Y2204697D01*
D02*
G37*
G36*
X3179080Y2389226D02*
X3180386Y2388967D01*
X3181647Y2388539D01*
X3182842Y2387949D01*
X3183949Y2387209D01*
X3184950Y2386331D01*
X3185829Y2385330D01*
X3186568Y2384223D01*
X3187158Y2383028D01*
X3187586Y2381767D01*
X3187846Y2380461D01*
X3187933Y2379132D01*
Y2361438D01*
X3188078Y2361310D01*
X3188956Y2360309D01*
X3189696Y2359202D01*
X3190285Y2358007D01*
X3190713Y2356746D01*
X3190973Y2355440D01*
X3191060Y2354111D01*
Y2342399D01*
X3196517D01*
X3197846Y2342312D01*
X3199152Y2342052D01*
X3200413Y2341624D01*
X3201608Y2341035D01*
X3202715Y2340295D01*
X3203716Y2339417D01*
X3203844Y2339272D01*
X3224665D01*
X3225994Y2339185D01*
X3227300Y2338925D01*
X3228561Y2338497D01*
X3229756Y2337907D01*
X3230863Y2337168D01*
X3231865Y2336289D01*
X3232743Y2335288D01*
X3233243Y2334540D01*
X3233780Y2334181D01*
X3233991Y2334040D01*
X3234992Y2333162D01*
X3235870Y2332161D01*
X3236610Y2331053D01*
X3237200Y2329859D01*
X3237628Y2328598D01*
X3237887Y2327291D01*
X3237974Y2325962D01*
Y2322835D01*
X3237887Y2321506D01*
X3237628Y2320199D01*
X3237200Y2318938D01*
X3236610Y2317744D01*
X3235870Y2316636D01*
X3234992Y2315635D01*
X3233991Y2314757D01*
X3232884Y2314017D01*
X3231689Y2313428D01*
X3230428Y2313000D01*
X3229122Y2312740D01*
X3227793Y2312653D01*
X3206971D01*
X3206844Y2312507D01*
X3205842Y2311629D01*
X3204735Y2310889D01*
X3203540Y2310300D01*
X3202279Y2309872D01*
X3200973Y2309612D01*
X3199644Y2309525D01*
X3191060D01*
Y2297814D01*
X3190973Y2296485D01*
X3190713Y2295179D01*
X3190285Y2293917D01*
X3189696Y2292723D01*
X3188956Y2291615D01*
X3188078Y2290614D01*
X3187933Y2290486D01*
Y2269665D01*
X3187846Y2268336D01*
X3187586Y2267030D01*
X3187158Y2265769D01*
X3186568Y2264574D01*
X3185829Y2263467D01*
X3184950Y2262466D01*
X3183949Y2261588D01*
X3182842Y2260848D01*
X3181647Y2260258D01*
X3180386Y2259830D01*
X3179080Y2259571D01*
X3177751Y2259483D01*
X3174623D01*
X3173294Y2259571D01*
X3171988Y2259830D01*
X3170727Y2260258D01*
X3169532Y2260848D01*
X3168425Y2261588D01*
X3167424Y2262466D01*
X3166546Y2263467D01*
X3165806Y2264574D01*
X3165216Y2265769D01*
X3164788Y2267030D01*
X3164529Y2268336D01*
X3164441Y2269665D01*
Y2271721D01*
X3164296Y2271848D01*
X3163418Y2272850D01*
X3162678Y2273957D01*
X3162089Y2275152D01*
X3161661Y2276413D01*
X3161401Y2277719D01*
X3161314Y2279048D01*
Y2299869D01*
X3161168Y2299997D01*
X3160290Y2300998D01*
X3159550Y2302106D01*
X3158961Y2303300D01*
X3158533Y2304561D01*
X3158273Y2305868D01*
X3158186Y2307197D01*
Y2309525D01*
X3149602D01*
X3148273Y2309612D01*
X3146967Y2309872D01*
X3145706Y2310300D01*
X3144511Y2310889D01*
X3143404Y2311629D01*
X3142403Y2312507D01*
X3142275Y2312653D01*
X3124582D01*
X3123253Y2312740D01*
X3121946Y2313000D01*
X3120685Y2313428D01*
X3119491Y2314017D01*
X3118383Y2314757D01*
X3117382Y2315635D01*
X3116504Y2316636D01*
X3115764Y2317744D01*
X3115175Y2318938D01*
X3114747Y2320199D01*
X3114487Y2321506D01*
X3114400Y2322835D01*
Y2329090D01*
X3114487Y2330419D01*
X3114747Y2331725D01*
X3115175Y2332986D01*
X3115764Y2334181D01*
X3116504Y2335288D01*
X3117382Y2336289D01*
X3118383Y2337168D01*
X3119491Y2337907D01*
X3120685Y2338497D01*
X3121946Y2338925D01*
X3123253Y2339185D01*
X3124582Y2339272D01*
X3145403D01*
X3145530Y2339417D01*
X3146532Y2340295D01*
X3147639Y2341035D01*
X3148834Y2341624D01*
X3150095Y2342052D01*
X3151401Y2342312D01*
X3152730Y2342399D01*
X3158186D01*
Y2344728D01*
X3158273Y2346057D01*
X3158533Y2347363D01*
X3158961Y2348624D01*
X3159550Y2349819D01*
X3160290Y2350926D01*
X3161168Y2351928D01*
X3161314Y2352055D01*
Y2372877D01*
X3161401Y2374206D01*
X3161661Y2375512D01*
X3162089Y2376773D01*
X3162678Y2377968D01*
X3163418Y2379075D01*
X3164296Y2380076D01*
X3164516Y2380269D01*
X3164529Y2380461D01*
X3164788Y2381767D01*
X3165216Y2383028D01*
X3165806Y2384223D01*
X3166546Y2385330D01*
X3167424Y2386331D01*
X3168425Y2387209D01*
X3169532Y2387949D01*
X3170727Y2388539D01*
X3171988Y2388967D01*
X3173294Y2389226D01*
X3174623Y2389313D01*
X3177751D01*
X3179080Y2389226D01*
D02*
G37*
D13*
X1449783Y1257500D02*
D03*
X1540217D02*
D03*
D37*
X2705100Y3358100D02*
D03*
D38*
Y3558100D02*
D03*
D50*
X1915000Y780000D02*
D03*
X1795000D02*
D03*
X1672500Y3005000D02*
D03*
X1792500D02*
D03*
D51*
X1092500Y1950000D02*
D03*
X1242502D02*
D03*
D52*
X2470213Y2567500D02*
D03*
X2389787D02*
D03*
D58*
X292100Y1383250D02*
D03*
D69*
X300000Y2720000D02*
D03*
X3400000Y4000000D02*
D03*
X300000Y300000D02*
D03*
D70*
X990600Y373600D02*
D03*
X3441700Y653000D02*
D03*
D71*
X1244600Y373600D02*
D03*
X1498600D02*
D03*
X990600Y627600D02*
D03*
X1244600D02*
D03*
X1498600D02*
D03*
X3187700Y653000D02*
D03*
X2933700D02*
D03*
X2679700D02*
D03*
D72*
X409702Y3867700D02*
D03*
Y3367701D02*
D03*
D73*
X295000Y3077500D02*
D03*
X1822500Y210000D02*
D03*
X2057500Y205000D02*
D03*
X2295000D02*
D03*
X1991305Y840244D02*
D03*
X1689100Y770000D02*
D03*
X1557500Y3027500D02*
D03*
X1560000Y1105000D02*
D03*
X927500Y840000D02*
D03*
X625000Y1380000D02*
D03*
X630000Y2260000D02*
D03*
X1357500Y1952500D02*
D03*
X1892300Y2885931D02*
D03*
X962500Y1950000D02*
D03*
X3267500Y2907500D02*
D03*
X2445000Y2895000D02*
D03*
X2065000Y2900000D02*
D03*
X927500Y2902500D02*
D03*
X1685000Y2897500D02*
D03*
X540000Y3485000D02*
D03*
X1225000Y3637500D02*
D03*
X760000Y4132500D02*
D03*
X1552879Y3388321D02*
D03*
X1540000Y3472500D02*
D03*
X1815000Y3657500D02*
D03*
X1727942D02*
D03*
X1828800Y3281900D02*
D03*
X2580000Y1092500D02*
D03*
X3340000Y1110000D02*
D03*
X690000Y1857500D02*
D03*
Y2080000D02*
D03*
X685000Y1602500D02*
D03*
X1663700Y1199100D02*
D03*
X1308100D02*
D03*
X1838000Y2160800D02*
D03*
X2692400Y2545300D02*
D03*
X1769282Y3967700D02*
D03*
X1778000Y3815300D02*
D03*
X1498600Y3180300D02*
D03*
D74*
X2160900Y3652400D02*
D03*
X2270902D02*
D03*
X2380899D02*
D03*
X2160900Y3542402D02*
D03*
X2270902D02*
D03*
X2380899D02*
D03*
X2160900Y3432400D02*
D03*
X2270902D02*
D03*
X2380899D02*
D03*
%TF.MD5,ccde2d267474247e3051ce828641f774*%
M02*
