%TF.GenerationSoftware,Altium Limited,Altium Designer,23.3.1 (30)*%
G04 Layer_Color=65535*
%FSLAX45Y45*%
%MOMM*%
%TF.SameCoordinates,E5280C8B-2022-47E8-8DAE-B5BF382FD6C1*%
%TF.FilePolarity,Positive*%
%TF.FileFunction,Legend,Top*%
%TF.Part,Single*%
G01*
G75*
%TA.AperFunction,NonConductor*%
%ADD33C,0.25400*%
%ADD53C,0.25000*%
%ADD54C,0.20000*%
%ADD55C,0.40000*%
%ADD56C,0.12800*%
D33*
X2465000Y320000D02*
X3582500D01*
X2512900Y160400D02*
Y240374D01*
X2539558Y213716D01*
X2566216Y240374D01*
Y160400D01*
X2606203Y213716D02*
X2632861D01*
X2646190Y200387D01*
Y160400D01*
X2606203D01*
X2592874Y173729D01*
X2606203Y187058D01*
X2646190D01*
X2686178Y227045D02*
Y213716D01*
X2672848D01*
X2699506D01*
X2686178D01*
Y173729D01*
X2699506Y160400D01*
X2752823Y227045D02*
Y213716D01*
X2739494D01*
X2766152D01*
X2752823D01*
Y173729D01*
X2766152Y160400D01*
X2846126D02*
X2819468D01*
X2806139Y173729D01*
Y200387D01*
X2819468Y213716D01*
X2846126D01*
X2859455Y200387D01*
Y187058D01*
X2806139D01*
X2899442Y160400D02*
X2926100D01*
X2939429Y173729D01*
Y200387D01*
X2926100Y213716D01*
X2899442D01*
X2886113Y200387D01*
Y173729D01*
X2899442Y160400D01*
X3099378Y227045D02*
X3086049Y240374D01*
X3059391D01*
X3046061Y227045D01*
Y173729D01*
X3059391Y160400D01*
X3086049D01*
X3099378Y173729D01*
Y200387D01*
X3072720D01*
X3139365Y160400D02*
X3166023D01*
X3179352Y173729D01*
Y200387D01*
X3166023Y213716D01*
X3139365D01*
X3126036Y200387D01*
Y173729D01*
X3139365Y160400D01*
X3206010D02*
X3232668D01*
X3219339D01*
Y240374D01*
X3206010D01*
X3272655Y160400D02*
X3299313D01*
X3285984D01*
Y213716D01*
X3272655D01*
X3339300Y160400D02*
Y213716D01*
X3379288D01*
X3392617Y200387D01*
Y160400D01*
X2561216Y454545D02*
X2547887Y467874D01*
X2521229D01*
X2507900Y454545D01*
Y401229D01*
X2521229Y387900D01*
X2547887D01*
X2561216Y401229D01*
Y427887D01*
X2534558D01*
X2587874Y441216D02*
Y387900D01*
Y414558D01*
X2601203Y427887D01*
X2614532Y441216D01*
X2627861D01*
X2681178Y387900D02*
X2707836D01*
X2721164Y401229D01*
Y427887D01*
X2707836Y441216D01*
X2681178D01*
X2667848Y427887D01*
Y401229D01*
X2681178Y387900D01*
X2747823Y441216D02*
Y401229D01*
X2761152Y387900D01*
X2801139D01*
Y441216D01*
X2827797Y387900D02*
Y441216D01*
X2867784D01*
X2881113Y427887D01*
Y387900D01*
X2961087Y467874D02*
Y387900D01*
X2921100D01*
X2907771Y401229D01*
Y427887D01*
X2921100Y441216D01*
X2961087D01*
X3121035Y454545D02*
X3107707Y467874D01*
X3081048D01*
X3067719Y454545D01*
Y441216D01*
X3081048Y427887D01*
X3107707D01*
X3121035Y414558D01*
Y401229D01*
X3107707Y387900D01*
X3081048D01*
X3067719Y401229D01*
X3161023Y454545D02*
Y441216D01*
X3147693D01*
X3174352D01*
X3161023D01*
Y401229D01*
X3174352Y387900D01*
X3227668Y441216D02*
X3254326D01*
X3267655Y427887D01*
Y387900D01*
X3227668D01*
X3214339Y401229D01*
X3227668Y414558D01*
X3267655D01*
X3307642Y454545D02*
Y441216D01*
X3294313D01*
X3320971D01*
X3307642D01*
Y401229D01*
X3320971Y387900D01*
X3360958D02*
X3387616D01*
X3374287D01*
Y441216D01*
X3360958D01*
X3440933Y387900D02*
X3467591D01*
X3480920Y401229D01*
Y427887D01*
X3467591Y441216D01*
X3440933D01*
X3427604Y427887D01*
Y401229D01*
X3440933Y387900D01*
X3507578D02*
Y441216D01*
X3547565D01*
X3560894Y427887D01*
Y387900D01*
X1034258Y2882516D02*
Y2982484D01*
X1084242D01*
X1100903Y2965823D01*
Y2932500D01*
X1084242Y2915839D01*
X1034258D01*
X1067581D02*
X1100903Y2882516D01*
X1134226D02*
Y2982484D01*
X1200871Y2882516D01*
Y2982484D01*
X1300839Y2882516D02*
X1234194D01*
X1300839Y2949161D01*
Y2965823D01*
X1284178Y2982484D01*
X1250855D01*
X1234194Y2965823D01*
X1384145Y2882516D02*
Y2982484D01*
X1334161Y2932500D01*
X1400806D01*
X1434129Y2965823D02*
X1450791Y2982484D01*
X1484113D01*
X1500774Y2965823D01*
Y2949161D01*
X1484113Y2932500D01*
X1500774Y2915839D01*
Y2899178D01*
X1484113Y2882516D01*
X1450791D01*
X1434129Y2899178D01*
Y2915839D01*
X1450791Y2932500D01*
X1434129Y2949161D01*
Y2965823D01*
X1450791Y2932500D02*
X1484113D01*
X1534097Y2965823D02*
X1550758Y2982484D01*
X1584081D01*
X1600742Y2965823D01*
Y2949161D01*
X1584081Y2932500D01*
X1567420D01*
X1584081D01*
X1600742Y2915839D01*
Y2899178D01*
X1584081Y2882516D01*
X1550758D01*
X1534097Y2899178D01*
X2526734Y3953323D02*
X2510073Y3969984D01*
X2476750D01*
X2460089Y3953323D01*
Y3886678D01*
X2476750Y3870016D01*
X2510073D01*
X2526734Y3886678D01*
X2560057Y3870016D02*
Y3969984D01*
X2610040D01*
X2626702Y3953323D01*
Y3920000D01*
X2610040Y3903339D01*
X2560057D01*
X2726669Y3870016D02*
X2660024D01*
X2726669Y3936661D01*
Y3953323D01*
X2710008Y3969984D01*
X2676686D01*
X2660024Y3953323D01*
X2759992Y3870016D02*
X2793315D01*
X2776654D01*
Y3969984D01*
X2759992Y3953323D01*
X2843299D02*
X2859960Y3969984D01*
X2893283D01*
X2909944Y3953323D01*
Y3886678D01*
X2893283Y3870016D01*
X2859960D01*
X2843299Y3886678D01*
Y3953323D01*
X2943266D02*
X2959928Y3969984D01*
X2993250D01*
X3009911Y3953323D01*
Y3936661D01*
X2993250Y3920000D01*
X2976589D01*
X2993250D01*
X3009911Y3903339D01*
Y3886678D01*
X2993250Y3870016D01*
X2959928D01*
X2943266Y3886678D01*
D53*
X3344298Y2907800D02*
G03*
X3344298Y2907800I-12500J0D01*
G01*
X613590Y1821400D02*
G03*
X613590Y1821400I-12500J0D01*
G01*
X811100Y373600D02*
G03*
X811100Y373600I-12500J0D01*
G01*
X544700Y3747700D02*
G03*
X544700Y3747700I-12500J0D01*
G01*
X1953400Y3792400D02*
G03*
X1953400Y3792400I-12500J0D01*
G01*
X1441300Y3542500D02*
G03*
X1441300Y3542500I-12500J0D01*
G01*
D54*
X787400Y957800D02*
X838799D01*
X3428401D02*
X3479800D01*
Y2761200D01*
X787400D02*
X838799D01*
X3428395D02*
X3479800D01*
X787400Y2328801D02*
Y2761200D01*
Y957800D02*
Y1390199D01*
X1920278Y4010926D02*
X2067522D01*
X1920278Y3873674D02*
X2067522D01*
X863620Y754615D02*
X1625620D01*
Y246615D02*
Y754615D01*
X863620Y246615D02*
X1625620D01*
X863620D02*
Y754615D01*
X2533701Y526000D02*
Y780000D01*
X3587699D01*
Y526000D02*
Y780000D01*
X2533701Y526000D02*
X3587699D01*
X-75291Y3243201D02*
Y3992201D01*
X-75301Y3243170D02*
X5898D01*
X273502D02*
X394701D01*
Y3256200D01*
X394228Y3979099D02*
Y3992231D01*
X273502D02*
X394228D01*
X-75291Y3992201D02*
X5898D01*
X2595098Y3240600D02*
Y3675600D01*
X2815102D01*
Y3240600D02*
Y3675600D01*
X2595098Y3240600D02*
X2815102D01*
X2005899Y3742402D02*
Y3807401D01*
X2070903D01*
X2470902D02*
X2535900D01*
Y3742402D02*
Y3807401D01*
Y3277399D02*
Y3342398D01*
X2470902Y3277399D02*
X2535900D01*
X2005899D02*
Y3342398D01*
Y3277399D02*
X2070903D01*
X695001Y3962502D02*
Y4032499D01*
X544999Y3962502D02*
Y4032499D01*
X1158800Y3484998D02*
X1228802D01*
X1158800D02*
Y3790002D01*
X1228802D01*
Y3484998D02*
Y3790002D01*
X1810974Y2947164D02*
Y3094407D01*
X1948226Y2947164D02*
Y3094407D01*
X2332498Y3918875D02*
Y4046124D01*
X2197502Y3918875D02*
Y4046124D01*
D55*
X2017508Y249992D02*
X2097508D01*
X2260008D02*
X2340008D01*
X1785010Y249990D02*
X1865010D01*
X1981292Y2962492D02*
Y3042492D01*
D56*
X1888780Y4057512D02*
Y4132488D01*
X1926268D01*
X1938764Y4119992D01*
Y4095000D01*
X1926268Y4082504D01*
X1888780D01*
X1913772D02*
X1938764Y4057512D01*
X1963756D02*
X1988748D01*
X1976252D01*
Y4132488D01*
X1963756Y4119992D01*
X2026236D02*
X2038732Y4132488D01*
X2063724D01*
X2076220Y4119992D01*
Y4070008D01*
X2063724Y4057512D01*
X2038732D01*
X2026236Y4070008D01*
Y4119992D01*
X2410920Y2989612D02*
Y3064588D01*
X2448408D01*
X2460904Y3052092D01*
Y3027100D01*
X2448408Y3014604D01*
X2410920D01*
X2435912D02*
X2460904Y2989612D01*
X2485896Y3052092D02*
X2498392Y3064588D01*
X2523384D01*
X2535880Y3052092D01*
Y3039596D01*
X2523384Y3027100D01*
X2535880Y3014604D01*
Y3002108D01*
X2523384Y2989612D01*
X2498392D01*
X2485896Y3002108D01*
Y3014604D01*
X2498392Y3027100D01*
X2485896Y3039596D01*
Y3052092D01*
X2498392Y3027100D02*
X2523384D01*
X2210020Y4090012D02*
Y4164988D01*
X2247508D01*
X2260004Y4152492D01*
Y4127500D01*
X2247508Y4115004D01*
X2210020D01*
X2235012D02*
X2260004Y4090012D01*
X2334980Y4164988D02*
X2309988Y4152492D01*
X2284996Y4127500D01*
Y4102508D01*
X2297492Y4090012D01*
X2322484D01*
X2334980Y4102508D01*
Y4115004D01*
X2322484Y4127500D01*
X2284996D01*
X1822520Y3140012D02*
Y3214988D01*
X1860008D01*
X1872504Y3202492D01*
Y3177500D01*
X1860008Y3165004D01*
X1822520D01*
X1847512D02*
X1872504Y3140012D01*
X1947480Y3214988D02*
X1897496D01*
Y3177500D01*
X1922488Y3189996D01*
X1934984D01*
X1947480Y3177500D01*
Y3152508D01*
X1934984Y3140012D01*
X1909992D01*
X1897496Y3152508D01*
X2059032Y3166988D02*
Y3092012D01*
X2096520D01*
X2109016Y3104508D01*
Y3154492D01*
X2096520Y3166988D01*
X2059032D01*
X2183992Y3154492D02*
X2171496Y3166988D01*
X2146504D01*
X2134008Y3154492D01*
Y3141996D01*
X2146504Y3129500D01*
X2171496D01*
X2183992Y3117004D01*
Y3104508D01*
X2171496Y3092012D01*
X2146504D01*
X2134008Y3104508D01*
X2246472Y3092012D02*
Y3166988D01*
X2208984Y3129500D01*
X2258968D01*
X1673764Y145079D02*
X1748740D01*
Y182567D01*
X1736244Y195063D01*
X1686260D01*
X1673764Y182567D01*
Y145079D01*
Y270039D02*
Y220055D01*
X1748740D01*
Y270039D01*
X1711252Y220055D02*
Y245047D01*
X1673764Y295031D02*
X1748740D01*
Y332519D01*
X1736244Y345015D01*
X1723748D01*
X1711252Y332519D01*
Y295031D01*
Y332519D01*
X1698756Y345015D01*
X1686260D01*
X1673764Y332519D01*
Y295031D01*
Y370007D02*
X1736244D01*
X1748740Y382503D01*
Y407494D01*
X1736244Y419991D01*
X1673764D01*
X1686260Y494966D02*
X1673764Y482470D01*
Y457479D01*
X1686260Y444983D01*
X1736244D01*
X1748740Y457479D01*
Y482470D01*
X1736244Y494966D01*
X1711252D01*
Y469975D01*
X1761236Y519959D02*
Y569942D01*
X1686260Y594935D02*
X1673764Y607431D01*
Y632422D01*
X1686260Y644918D01*
X1736244D01*
X1748740Y632422D01*
Y607431D01*
X1736244Y594935D01*
X1686260D01*
X2153764Y150080D02*
X2228740D01*
Y187568D01*
X2216244Y200064D01*
X2166260D01*
X2153764Y187568D01*
Y150080D01*
Y275040D02*
Y225056D01*
X2228740D01*
Y275040D01*
X2191252Y225056D02*
Y250048D01*
X2153764Y300032D02*
X2228740D01*
Y337520D01*
X2216244Y350016D01*
X2203748D01*
X2191252Y337520D01*
Y300032D01*
Y337520D01*
X2178756Y350016D01*
X2166260D01*
X2153764Y337520D01*
Y300032D01*
Y375008D02*
X2216244D01*
X2228740Y387504D01*
Y412496D01*
X2216244Y424992D01*
X2153764D01*
X2166260Y499968D02*
X2153764Y487472D01*
Y462480D01*
X2166260Y449984D01*
X2216244D01*
X2228740Y462480D01*
Y487472D01*
X2216244Y499968D01*
X2191252D01*
Y474976D01*
X2241236Y524960D02*
Y574944D01*
X2228740Y649920D02*
Y599936D01*
X2178756Y649920D01*
X2166260D01*
X2153764Y637424D01*
Y612432D01*
X2166260Y599936D01*
X1906263Y152580D02*
X1981239D01*
Y190068D01*
X1968743Y202564D01*
X1918759D01*
X1906263Y190068D01*
Y152580D01*
Y277540D02*
Y227556D01*
X1981239D01*
Y277540D01*
X1943752Y227556D02*
Y252548D01*
X1906263Y302532D02*
X1981239D01*
Y340020D01*
X1968743Y352516D01*
X1956247D01*
X1943752Y340020D01*
Y302532D01*
Y340020D01*
X1931255Y352516D01*
X1918759D01*
X1906263Y340020D01*
Y302532D01*
Y377508D02*
X1968743D01*
X1981239Y390004D01*
Y414996D01*
X1968743Y427492D01*
X1906263D01*
X1918759Y502468D02*
X1906263Y489972D01*
Y464980D01*
X1918759Y452484D01*
X1968743D01*
X1981239Y464980D01*
Y489972D01*
X1968743Y502468D01*
X1943752D01*
Y477476D01*
X1993735Y527460D02*
Y577444D01*
X1981239Y602436D02*
Y627428D01*
Y614932D01*
X1906263D01*
X1918759Y602436D01*
X1121920Y3939188D02*
Y3864212D01*
X1159408D01*
X1171904Y3876708D01*
Y3926692D01*
X1159408Y3939188D01*
X1121920D01*
X1246880D02*
X1196896D01*
Y3901700D01*
X1221888Y3914196D01*
X1234384D01*
X1246880Y3901700D01*
Y3876708D01*
X1234384Y3864212D01*
X1209392D01*
X1196896Y3876708D01*
X779504Y4020392D02*
X767008Y4032888D01*
X742016D01*
X729520Y4020392D01*
Y3970408D01*
X742016Y3957912D01*
X767008D01*
X779504Y3970408D01*
X804496Y4020392D02*
X816992Y4032888D01*
X841984D01*
X854480Y4020392D01*
Y4007896D01*
X841984Y3995400D01*
X829488D01*
X841984D01*
X854480Y3982904D01*
Y3970408D01*
X841984Y3957912D01*
X816992D01*
X804496Y3970408D01*
%TF.MD5,bd7bad5755d69457b08f2988d6f4c711*%
M02*
