%TF.GenerationSoftware,Altium Limited,Altium Designer,23.3.1 (30)*%
G04 Layer_Color=32896*
%FSLAX45Y45*%
%MOMM*%
%TF.SameCoordinates,E5280C8B-2022-47E8-8DAE-B5BF382FD6C1*%
%TF.FilePolarity,Positive*%
%TF.FileFunction,Legend,Bot*%
%TF.Part,Single*%
G01*
G75*
%TA.AperFunction,NonConductor*%
%ADD33C,0.25400*%
%ADD54C,0.20000*%
%ADD56C,0.12800*%
G36*
X1776579Y2238389D02*
X1767197D01*
Y2241517D01*
X1776579D01*
Y2238389D01*
D02*
G37*
G36*
X1801600Y2235261D02*
X1823494D01*
Y2232134D01*
X1845387D01*
Y2229006D01*
X1867280D01*
Y2225879D01*
X1886046D01*
Y2222751D01*
X1907939D01*
Y2219623D01*
X1929833D01*
Y2216496D01*
X1948598D01*
Y2213368D01*
X1967364D01*
Y2210240D01*
X1986130D01*
Y2207113D01*
X2004895D01*
Y2203985D01*
X2023661D01*
Y2200858D01*
X2039299D01*
Y2197730D01*
X2058065D01*
Y2194602D01*
X2073703D01*
Y2191475D01*
X2092469D01*
Y2188347D01*
X2108107D01*
Y2185220D01*
X2123745D01*
Y2182092D01*
X2139383D01*
Y2178964D01*
X2155021D01*
Y2175837D01*
X2170659D01*
Y2172709D01*
X2186297D01*
Y2169582D01*
X2201935D01*
Y2166454D01*
X2214445D01*
Y2163326D01*
X2230083D01*
Y2160199D01*
X2245722D01*
Y2157071D01*
X2258232D01*
Y2153943D01*
X2270742D01*
Y2150816D01*
X2286380D01*
Y2147688D01*
X2298891D01*
Y2144561D01*
X2311402D01*
Y2141433D01*
X2323912D01*
Y2138305D01*
X2336423D01*
Y2135178D01*
X2348933D01*
Y2132050D01*
X2361443D01*
Y2128923D01*
X2373954D01*
Y2125795D01*
X2386464D01*
Y2122667D01*
X2398975D01*
Y2119540D01*
X2408358D01*
Y2116412D01*
X2420868D01*
Y2113285D01*
X2430251D01*
Y2110157D01*
X2442761D01*
Y2107029D01*
X2452144D01*
Y2103902D01*
X2464655D01*
Y2100774D01*
X2474037D01*
Y2097646D01*
X2483420D01*
Y2094519D01*
X2495931D01*
Y2091391D01*
X2505314D01*
Y2088264D01*
X2514697D01*
Y2085136D01*
X2524079D01*
Y2082008D01*
X2533462D01*
Y2078881D01*
X2545973D01*
Y2075753D01*
X2552228D01*
Y2072626D01*
X2561611D01*
Y2069498D01*
X2570994D01*
Y2066370D01*
X2580376D01*
Y2063243D01*
X2589759D01*
Y2060115D01*
X2599142D01*
Y2056988D01*
X2608525D01*
Y2053860D01*
X2614780D01*
Y2050732D01*
X2624163D01*
Y2047604D01*
X2633546D01*
Y2044477D01*
X2639801D01*
Y2041349D01*
X2649184D01*
Y2038222D01*
X2655439D01*
Y2035094D01*
X2664822D01*
Y2031966D01*
X2671077D01*
Y2028839D01*
X2680460D01*
Y2025711D01*
X2702353D01*
Y2022584D01*
X2730502D01*
Y2019456D01*
X2758651D01*
Y2016328D01*
X2783671D01*
Y2013201D01*
X2805565D01*
Y2010073D01*
X2827458D01*
Y2006946D01*
X2846224D01*
Y2003818D01*
X2864989D01*
Y2000690D01*
X2883755D01*
Y1997563D01*
X2899393D01*
Y1994435D01*
X2918159D01*
Y1991307D01*
X2933797D01*
Y1988180D01*
X2949435D01*
Y1985052D01*
X2961946D01*
Y1981925D01*
X2977584D01*
Y1978797D01*
X2990094D01*
Y1975669D01*
X3005732D01*
Y1972542D01*
X3018243D01*
Y1969414D01*
X3030753D01*
Y1966287D01*
X3043263D01*
Y1963159D01*
X3055774D01*
Y1960031D01*
X3068284D01*
Y1956904D01*
X3080795D01*
Y1953776D01*
X3090178D01*
Y1950649D01*
X3102688D01*
Y1947521D01*
X3115198D01*
Y1944393D01*
X3124582D01*
Y1941266D01*
X3133964D01*
Y1938138D01*
X3146475D01*
Y1935010D01*
X3155858D01*
Y1931883D01*
X3165240D01*
Y1928755D01*
X3177751D01*
Y1925628D01*
X3187134D01*
Y1922500D01*
X3196517D01*
Y1919372D01*
X3205899D01*
Y1916245D01*
X3215282D01*
Y1913117D01*
X3224665D01*
Y1909990D01*
X3234048D01*
Y1906862D01*
X3240303D01*
Y1903734D01*
X3249686D01*
Y1900607D01*
X3259069D01*
Y1897479D01*
X3268452D01*
Y1894351D01*
X3274707D01*
Y1891224D01*
X3284090D01*
Y1888096D01*
X3293473D01*
Y1884969D01*
X3299728D01*
Y1881841D01*
X3309111D01*
Y1878713D01*
X3315366D01*
Y1875586D01*
X3324749D01*
Y1872458D01*
X3331004D01*
Y1869331D01*
X3340387D01*
Y1866203D01*
X3346642D01*
Y1863075D01*
X3356025D01*
Y1859948D01*
X3362280D01*
Y1856820D01*
X3368535D01*
Y1853693D01*
X3377918D01*
Y1850565D01*
X3384174D01*
Y1847437D01*
X3390429D01*
Y1844309D01*
X3396684D01*
Y1841182D01*
X3406067D01*
Y1838054D01*
X3412322D01*
Y1834927D01*
X3418577D01*
Y1831799D01*
X3424832D01*
Y1828671D01*
X3431088D01*
Y1825544D01*
X3437343D01*
Y1822416D01*
X3446726D01*
Y1819289D01*
X3452981D01*
Y1816161D01*
X3459236D01*
Y1813033D01*
X3465491D01*
Y1809906D01*
X3471747D01*
Y1806778D01*
X3478002D01*
Y1803651D01*
X3484257D01*
Y1800523D01*
X3490512D01*
Y1797395D01*
X3496768D01*
Y1794268D01*
X3499895D01*
Y1791140D01*
X3506150D01*
Y1788012D01*
X3512406D01*
Y1784885D01*
X3518661D01*
Y1781757D01*
X3524916D01*
Y1778630D01*
X3531171D01*
Y1775502D01*
X3537427D01*
Y1772374D01*
X3540554D01*
Y1766119D01*
X3509278D01*
Y1769247D01*
X3503023D01*
Y1772374D01*
X3496768D01*
Y1775502D01*
X3490512D01*
Y1778630D01*
X3484257D01*
Y1781757D01*
X3478002D01*
Y1784885D01*
X3471747D01*
Y1788012D01*
X3465491D01*
Y1791140D01*
X3459236D01*
Y1794268D01*
X3452981D01*
Y1797395D01*
X3446726D01*
Y1800523D01*
X3437343D01*
Y1803651D01*
X3431088D01*
Y1806778D01*
X3424832D01*
Y1809906D01*
X3418577D01*
Y1813033D01*
X3412322D01*
Y1816161D01*
X3406067D01*
Y1819289D01*
X3396684D01*
Y1822416D01*
X3390429D01*
Y1825544D01*
X3384174D01*
Y1828671D01*
X3374791D01*
Y1831799D01*
X3368535D01*
Y1834927D01*
X3362280D01*
Y1838054D01*
X3352897D01*
Y1841182D01*
X3346642D01*
Y1844309D01*
X3337259D01*
Y1847437D01*
X3331004D01*
Y1850565D01*
X3321621D01*
Y1853693D01*
X3312238D01*
Y1856820D01*
X3305983D01*
Y1859948D01*
X3296600D01*
Y1863075D01*
X3287217D01*
Y1866203D01*
X3277835D01*
Y1869331D01*
X3268452D01*
Y1872458D01*
X3262196D01*
Y1875586D01*
X3252814D01*
Y1878713D01*
X3243431D01*
Y1881841D01*
X3234048D01*
Y1884969D01*
X3224665D01*
Y1888096D01*
X3212155D01*
Y1891224D01*
X3202772D01*
Y1894351D01*
X3193389D01*
Y1897479D01*
X3184006D01*
Y1900607D01*
X3171496D01*
Y1903734D01*
X3162113D01*
Y1906862D01*
X3149602D01*
Y1909990D01*
X3137092D01*
Y1913117D01*
X3124582D01*
Y1916245D01*
X3115198D01*
Y1919372D01*
X3102688D01*
Y1922500D01*
X3090178D01*
Y1925628D01*
X3074540D01*
Y1928755D01*
X3062029D01*
Y1931883D01*
X3046391D01*
Y1935010D01*
X3033881D01*
Y1938138D01*
X3015115D01*
Y1941266D01*
X2999477D01*
Y1944393D01*
X2983839D01*
Y1947521D01*
X2965073D01*
Y1950649D01*
X2946307D01*
Y1953776D01*
X2927542D01*
Y1956904D01*
X2902521D01*
Y1960031D01*
X2880627D01*
Y1963159D01*
X2855606D01*
Y1966287D01*
X2824330D01*
Y1969414D01*
X2805565D01*
Y1966287D01*
X2811820D01*
Y1963159D01*
X2818075D01*
Y1960031D01*
X2821203D01*
Y1956904D01*
X2827458D01*
Y1953776D01*
X2833713D01*
Y1950649D01*
X2839968D01*
Y1947521D01*
X2843096D01*
Y1944393D01*
X2849351D01*
Y1941266D01*
X2852479D01*
Y1938138D01*
X2858734D01*
Y1935010D01*
X2864989D01*
Y1931883D01*
X2868117D01*
Y1928755D01*
X2874372D01*
Y1925628D01*
X2877500D01*
Y1922500D01*
X2883755D01*
Y1919372D01*
X2886883D01*
Y1916245D01*
X2893138D01*
Y1913117D01*
X2896265D01*
Y1909990D01*
X2899393D01*
Y1906862D01*
X2905648D01*
Y1903734D01*
X2908776D01*
Y1900607D01*
X2911903D01*
Y1897479D01*
X2918159D01*
Y1894351D01*
X2921287D01*
Y1891224D01*
X2924414D01*
Y1888096D01*
X2927542D01*
Y1884969D01*
X2933797D01*
Y1881841D01*
X2936925D01*
Y1878713D01*
X2940052D01*
Y1875586D01*
X2943180D01*
Y1872458D01*
X2946307D01*
Y1869331D01*
X2949435D01*
Y1866203D01*
X2952563D01*
Y1863075D01*
X2955690D01*
Y1859948D01*
X2961946D01*
Y1856820D01*
X2965073D01*
Y1853693D01*
X2968201D01*
Y1850565D01*
X2971328D01*
Y1847437D01*
X2974456D01*
Y1841182D01*
X2977584D01*
Y1838054D01*
X2980711D01*
Y1834927D01*
X2983839D01*
Y1831799D01*
X2986966D01*
Y1828671D01*
X2990094D01*
Y1825544D01*
X2993222D01*
Y1822416D01*
X2996349D01*
Y1819289D01*
X2999477D01*
Y1813033D01*
X3002604D01*
Y1809906D01*
X3005732D01*
Y1806778D01*
X3008860D01*
Y1800523D01*
X3011987D01*
Y1797395D01*
X3015115D01*
Y1791140D01*
X3018243D01*
Y1788012D01*
X3021370D01*
Y1781757D01*
X3024498D01*
Y1775502D01*
X3027625D01*
Y1772374D01*
X3030753D01*
Y1769247D01*
X2830586D01*
Y1775502D01*
X2827458D01*
Y1778630D01*
X2824330D01*
Y1784885D01*
X2821203D01*
Y1791140D01*
X2818075D01*
Y1794268D01*
X2814948D01*
Y1800523D01*
X2811820D01*
Y1803651D01*
X2808692D01*
Y1806778D01*
X2805565D01*
Y1813033D01*
X2802437D01*
Y1816161D01*
X2799309D01*
Y1819289D01*
X2796182D01*
Y1822416D01*
X2793054D01*
Y1828671D01*
X2789927D01*
Y1831799D01*
X2786799D01*
Y1834927D01*
X2783671D01*
Y1838054D01*
X2780544D01*
Y1841182D01*
X2777416D01*
Y1844309D01*
X2774289D01*
Y1847437D01*
X2771161D01*
Y1850565D01*
X2768033D01*
Y1853693D01*
X2764906D01*
Y1856820D01*
X2761778D01*
Y1859948D01*
X2758651D01*
Y1863075D01*
X2755523D01*
Y1866203D01*
X2752395D01*
Y1869331D01*
X2749268D01*
Y1872458D01*
X2746140D01*
Y1875586D01*
X2743012D01*
Y1878713D01*
X2739885D01*
Y1881841D01*
X2736757D01*
Y1884969D01*
X2730502D01*
Y1888096D01*
X2727374D01*
Y1891224D01*
X2724247D01*
Y1894351D01*
X2721119D01*
Y1897479D01*
X2717992D01*
Y1900607D01*
X2711736D01*
Y1903734D01*
X2708609D01*
Y1906862D01*
X2705481D01*
Y1909990D01*
X2702353D01*
Y1913117D01*
X2696098D01*
Y1916245D01*
X2692970D01*
Y1919372D01*
X2686715D01*
Y1922500D01*
X2683588D01*
Y1925628D01*
X2680460D01*
Y1928755D01*
X2674205D01*
Y1931883D01*
X2671077D01*
Y1935010D01*
X2664822D01*
Y1938138D01*
X2661694D01*
Y1941266D01*
X2655439D01*
Y1944393D01*
X2652312D01*
Y1947521D01*
X2646056D01*
Y1950649D01*
X2642929D01*
Y1953776D01*
X2636673D01*
Y1956904D01*
X2630418D01*
Y1960031D01*
X2627291D01*
Y1963159D01*
X2621035D01*
Y1966287D01*
X2617908D01*
Y1969414D01*
X2611653D01*
Y1972542D01*
X2605397D01*
Y1975669D01*
X2511569D01*
Y1972542D01*
X2464655D01*
Y1969414D01*
X2427123D01*
Y1966287D01*
X2392720D01*
Y1963159D01*
X2364571D01*
Y1960031D01*
X2336423D01*
Y1956904D01*
X2314529D01*
Y1953776D01*
X2292636D01*
Y1950649D01*
X2270742D01*
Y1947521D01*
X2251977D01*
Y1944393D01*
X2233211D01*
Y1941266D01*
X2217573D01*
Y1938138D01*
X2198807D01*
Y1935010D01*
X2183169D01*
Y1931883D01*
X2170659D01*
Y1928755D01*
X2155021D01*
Y1925628D01*
X2142510D01*
Y1922500D01*
X2126872D01*
Y1919372D01*
X2114362D01*
Y1916245D01*
X2098724D01*
Y1913117D01*
X2086213D01*
Y1909990D01*
X2073703D01*
Y1906862D01*
X2061192D01*
Y1903734D01*
X2048682D01*
Y1900607D01*
X2039299D01*
Y1897479D01*
X2026789D01*
Y1894351D01*
X2014278D01*
Y1891224D01*
X2001768D01*
Y1888096D01*
X1992385D01*
Y1884969D01*
X1983002D01*
Y1881841D01*
X1970492D01*
Y1878713D01*
X1961109D01*
Y1875586D01*
X1951726D01*
Y1872458D01*
X1942343D01*
Y1869331D01*
X1932960D01*
Y1866203D01*
X1923577D01*
Y1863075D01*
X1911067D01*
Y1859948D01*
X1904812D01*
Y1856820D01*
X1895429D01*
Y1853693D01*
X1886046D01*
Y1850565D01*
X1876663D01*
Y1847437D01*
X1867280D01*
Y1844309D01*
X1857897D01*
Y1841182D01*
X1851642D01*
Y1838054D01*
X1842259D01*
Y1834927D01*
X1836004D01*
Y1831799D01*
X1826621D01*
Y1828671D01*
X1817238D01*
Y1825544D01*
X1810983D01*
Y1822416D01*
X1801600D01*
Y1819289D01*
X1795345D01*
Y1816161D01*
X1789090D01*
Y1813033D01*
X1779707D01*
Y1809906D01*
X1773452D01*
Y1806778D01*
X1764069D01*
Y1803651D01*
X1757814D01*
Y1800523D01*
X1751558D01*
Y1797395D01*
X1745303D01*
Y1794268D01*
X1735920D01*
Y1791140D01*
X1729665D01*
Y1788012D01*
X1723410D01*
Y1784885D01*
X1717155D01*
Y1781757D01*
X1710900D01*
Y1778630D01*
X1704644D01*
Y1775502D01*
X1698389D01*
Y1772374D01*
X1692134D01*
Y1769247D01*
X1685879D01*
Y1766119D01*
X1354351D01*
Y1772374D01*
X1360607D01*
Y1775502D01*
X1363734D01*
Y1778630D01*
X1369989D01*
Y1781757D01*
X1376245D01*
Y1784885D01*
X1382500D01*
Y1788012D01*
X1388755D01*
Y1791140D01*
X1395010D01*
Y1794268D01*
X1401266D01*
Y1797395D01*
X1407521D01*
Y1800523D01*
X1413776D01*
Y1803651D01*
X1420031D01*
Y1806778D01*
X1426286D01*
Y1809906D01*
X1432542D01*
Y1813033D01*
X1438797D01*
Y1816161D01*
X1445052D01*
Y1819289D01*
X1451307D01*
Y1822416D01*
X1457563D01*
Y1825544D01*
X1463818D01*
Y1828671D01*
X1470073D01*
Y1831799D01*
X1479456D01*
Y1834927D01*
X1485711D01*
Y1838054D01*
X1491966D01*
Y1841182D01*
X1498222D01*
Y1844309D01*
X1504477D01*
Y1847437D01*
X1513860D01*
Y1850565D01*
X1520115D01*
Y1853693D01*
X1526370D01*
Y1856820D01*
X1535753D01*
Y1859948D01*
X1542008D01*
Y1863075D01*
X1551391D01*
Y1866203D01*
X1557646D01*
Y1869331D01*
X1563902D01*
Y1872458D01*
X1573284D01*
Y1875586D01*
X1579540D01*
Y1878713D01*
X1588922D01*
Y1881841D01*
X1598305D01*
Y1884969D01*
X1604560D01*
Y1888096D01*
X1613943D01*
Y1891224D01*
X1623326D01*
Y1894351D01*
X1629581D01*
Y1897479D01*
X1638964D01*
Y1900607D01*
X1648347D01*
Y1903734D01*
X1657730D01*
Y1906862D01*
X1667113D01*
Y1909990D01*
X1673368D01*
Y1913117D01*
X1682751D01*
Y1916245D01*
X1692134D01*
Y1919372D01*
X1701517D01*
Y1922500D01*
X1714027D01*
Y1925628D01*
X1723410D01*
Y1928755D01*
X1732793D01*
Y1931883D01*
X1742176D01*
Y1935010D01*
X1754686D01*
Y1938138D01*
X1764069D01*
Y1941266D01*
X1773452D01*
Y1944393D01*
X1785962D01*
Y1947521D01*
X1795345D01*
Y1950649D01*
X1807855D01*
Y1953776D01*
X1820366D01*
Y1956904D01*
X1829749D01*
Y1960031D01*
X1842259D01*
Y1963159D01*
X1854770D01*
Y1966287D01*
X1867280D01*
Y1969414D01*
X1882918D01*
Y1972542D01*
X1895429D01*
Y1975669D01*
X1907939D01*
Y1978797D01*
X1923577D01*
Y1981925D01*
X1936088D01*
Y1985052D01*
X1951726D01*
Y1988180D01*
X1967364D01*
Y1991307D01*
X1983002D01*
Y1994435D01*
X1998640D01*
Y1997563D01*
X2017406D01*
Y2000690D01*
X2036171D01*
Y2003818D01*
X2054937D01*
Y2006946D01*
X2073703D01*
Y2010073D01*
X2095596D01*
Y2013201D01*
X2117489D01*
Y2016328D01*
X2142510D01*
Y2019456D01*
X2167531D01*
Y2022584D01*
X2195680D01*
Y2025711D01*
X2230083D01*
Y2028839D01*
X2267615D01*
Y2031966D01*
X2317657D01*
Y2035094D01*
X2398975D01*
Y2038222D01*
X2474037D01*
Y2041349D01*
X2467782D01*
Y2044477D01*
X2461527D01*
Y2047604D01*
X2455272D01*
Y2050732D01*
X2445889D01*
Y2053860D01*
X2439634D01*
Y2056988D01*
X2430251D01*
Y2060115D01*
X2423996D01*
Y2063243D01*
X2417740D01*
Y2066370D01*
X2408358D01*
Y2069498D01*
X2402102D01*
Y2072626D01*
X2392720D01*
Y2075753D01*
X2386464D01*
Y2078881D01*
X2377081D01*
Y2082008D01*
X2367699D01*
Y2085136D01*
X2358316D01*
Y2088264D01*
X2352061D01*
Y2091391D01*
X2342678D01*
Y2094519D01*
X2333295D01*
Y2097646D01*
X2323912D01*
Y2100774D01*
X2314529D01*
Y2103902D01*
X2308274D01*
Y2107029D01*
X2298891D01*
Y2110157D01*
X2289508D01*
Y2113285D01*
X2280125D01*
Y2116412D01*
X2270742D01*
Y2119540D01*
X2261360D01*
Y2122667D01*
X2248849D01*
Y2125795D01*
X2239466D01*
Y2128923D01*
X2230083D01*
Y2132050D01*
X2220701D01*
Y2135178D01*
X2211318D01*
Y2138305D01*
X2198807D01*
Y2141433D01*
X2189425D01*
Y2144561D01*
X2180042D01*
Y2147688D01*
X2167531D01*
Y2150816D01*
X2155021D01*
Y2153943D01*
X2145638D01*
Y2157071D01*
X2133128D01*
Y2160199D01*
X2123745D01*
Y2163326D01*
X2111234D01*
Y2166454D01*
X2098724D01*
Y2169582D01*
X2086213D01*
Y2172709D01*
X2073703D01*
Y2175837D01*
X2061192D01*
Y2178964D01*
X2048682D01*
Y2182092D01*
X2036171D01*
Y2185220D01*
X2023661D01*
Y2188347D01*
X2011150D01*
Y2191475D01*
X1998640D01*
Y2194602D01*
X1983002D01*
Y2197730D01*
X1970492D01*
Y2200858D01*
X1954853D01*
Y2203985D01*
X1942343D01*
Y2207113D01*
X1926705D01*
Y2210240D01*
X1914195D01*
Y2213368D01*
X1898556D01*
Y2216496D01*
X1882918D01*
Y2219623D01*
X1867280D01*
Y2222751D01*
X1851642D01*
Y2225879D01*
X1836004D01*
Y2229006D01*
X1817238D01*
Y2232134D01*
X1801600D01*
Y2235261D01*
X1785962D01*
Y2238389D01*
X1801600D01*
Y2235261D01*
D02*
G37*
G36*
X3434215Y1737971D02*
X3443598D01*
Y1734843D01*
X3449853D01*
Y1731715D01*
X3452981D01*
Y1728588D01*
X3456109D01*
Y1725460D01*
X3459236D01*
Y1722333D01*
X3462364D01*
Y1719205D01*
X3465491D01*
Y1716077D01*
X3468619D01*
Y1712950D01*
Y1709822D01*
Y1706695D01*
X3471747D01*
Y1697312D01*
X3474874D01*
Y1681674D01*
X3478002D01*
Y1666036D01*
X3481129D01*
Y1650398D01*
X3484257D01*
Y1634759D01*
X3487385D01*
Y1619121D01*
X3490512D01*
Y1603483D01*
X3493640D01*
Y1584717D01*
X3496768D01*
Y1569079D01*
X3499895D01*
Y1553441D01*
X3503023D01*
Y1537803D01*
X3506150D01*
Y1528420D01*
X3440471D01*
Y1544059D01*
X3437343D01*
Y1559697D01*
X3434215D01*
Y1575335D01*
X3431088D01*
Y1590973D01*
X3427960D01*
Y1606611D01*
X3424832D01*
Y1622249D01*
X3421705D01*
Y1637887D01*
X3418577D01*
Y1653525D01*
X3415450D01*
Y1669163D01*
X3412322D01*
Y1681674D01*
X3406067D01*
Y1678546D01*
X3402939D01*
Y1675418D01*
X3399812D01*
Y1672291D01*
X3396684D01*
Y1669163D01*
X3393556D01*
Y1666036D01*
X3390429D01*
Y1662908D01*
X3387301D01*
Y1659780D01*
X3384174D01*
Y1656653D01*
X3381046D01*
Y1653525D01*
X3377918D01*
Y1650398D01*
X3374791D01*
Y1647270D01*
X3371663D01*
Y1644142D01*
X3368535D01*
Y1641014D01*
X3365408D01*
Y1637887D01*
X3362280D01*
Y1634759D01*
X3359153D01*
Y1631632D01*
X3356025D01*
Y1628504D01*
X3352897D01*
Y1625376D01*
X3349770D01*
Y1622249D01*
X3346642D01*
Y1619121D01*
X3343515D01*
Y1615994D01*
X3340387D01*
Y1612866D01*
X3337259D01*
Y1609738D01*
X3334132D01*
Y1606611D01*
X3327877D01*
Y1603483D01*
X3324749D01*
Y1600356D01*
X3321621D01*
Y1597228D01*
X3318493D01*
Y1594100D01*
X3315366D01*
Y1590973D01*
X3312238D01*
Y1587845D01*
X3309111D01*
Y1584717D01*
X3305983D01*
Y1581590D01*
X3302855D01*
Y1578462D01*
X3299728D01*
Y1575335D01*
X3296600D01*
Y1572207D01*
X3293473D01*
Y1569079D01*
X3287217D01*
Y1565952D01*
X3284090D01*
Y1562824D01*
X3280962D01*
Y1559697D01*
X3277835D01*
Y1556569D01*
X3274707D01*
Y1553441D01*
X3271579D01*
Y1550314D01*
X3265324D01*
Y1547186D01*
X3262196D01*
Y1544059D01*
X3259069D01*
Y1540931D01*
X3255941D01*
Y1537803D01*
X3252814D01*
Y1534676D01*
X3246558D01*
Y1531548D01*
X3240303D01*
Y1528420D01*
X3227793D01*
Y1525293D01*
X3199644D01*
Y1528420D01*
X3190261D01*
Y1531548D01*
X3184006D01*
Y1534676D01*
X3180879D01*
Y1537803D01*
X3174623D01*
Y1544059D01*
X3171496D01*
Y1547186D01*
X3168368D01*
Y1559697D01*
X3165240D01*
Y1575335D01*
X3162113D01*
Y1590973D01*
X3158985D01*
Y1606611D01*
X3155858D01*
Y1622249D01*
X3152730D01*
Y1637887D01*
X3149602D01*
Y1653525D01*
X3146475D01*
Y1669163D01*
X3143347D01*
Y1684801D01*
X3140220D01*
Y1700439D01*
X3137092D01*
Y1716077D01*
X3133964D01*
Y1731715D01*
X3130837D01*
Y1741098D01*
X3196517D01*
Y1737971D01*
X3199644D01*
Y1725460D01*
X3202772D01*
Y1709822D01*
X3205899D01*
Y1697312D01*
X3209027D01*
Y1681674D01*
X3212155D01*
Y1666036D01*
X3215282D01*
Y1653525D01*
X3218410D01*
Y1637887D01*
X3221538D01*
Y1625376D01*
X3224665D01*
Y1609738D01*
X3227793D01*
Y1597228D01*
X3230920D01*
Y1590973D01*
X3234048D01*
Y1594100D01*
X3237176D01*
Y1597228D01*
X3240303D01*
Y1600356D01*
X3243431D01*
Y1603483D01*
X3246558D01*
Y1606611D01*
X3249686D01*
Y1609738D01*
X3255941D01*
Y1612866D01*
X3259069D01*
Y1615994D01*
X3262196D01*
Y1619121D01*
X3265324D01*
Y1622249D01*
X3268452D01*
Y1625376D01*
X3271579D01*
Y1628504D01*
X3274707D01*
Y1631632D01*
X3277835D01*
Y1634759D01*
X3280962D01*
Y1637887D01*
X3284090D01*
Y1641014D01*
X3287217D01*
Y1644142D01*
X3290345D01*
Y1647270D01*
X3296600D01*
Y1650398D01*
X3299728D01*
Y1653525D01*
X3302855D01*
Y1656653D01*
X3305983D01*
Y1659780D01*
X3309111D01*
Y1662908D01*
X3312238D01*
Y1666036D01*
X3315366D01*
Y1669163D01*
X3318493D01*
Y1672291D01*
X3321621D01*
Y1675418D01*
X3324749D01*
Y1678546D01*
X3327877D01*
Y1681674D01*
X3334132D01*
Y1684801D01*
X3337259D01*
Y1687929D01*
X3340387D01*
Y1691057D01*
X3343515D01*
Y1694184D01*
X3346642D01*
Y1697312D01*
X3349770D01*
Y1700439D01*
X3352897D01*
Y1703567D01*
X3356025D01*
Y1706695D01*
X3359153D01*
Y1709822D01*
X3362280D01*
Y1712950D01*
X3365408D01*
Y1716077D01*
X3371663D01*
Y1719205D01*
X3374791D01*
Y1722333D01*
X3377918D01*
Y1725460D01*
X3381046D01*
Y1728588D01*
X3384174D01*
Y1731715D01*
X3387301D01*
Y1734843D01*
X3393556D01*
Y1737971D01*
X3399812D01*
Y1741098D01*
X3434215D01*
Y1737971D01*
D02*
G37*
G36*
X3546810D02*
X3549937D01*
Y1722333D01*
X3553065D01*
Y1706695D01*
X3556192D01*
Y1691057D01*
X3559320D01*
Y1675418D01*
X3562448D01*
Y1659780D01*
X3565575D01*
Y1644142D01*
X3568703D01*
Y1628504D01*
X3571830D01*
Y1612866D01*
X3574958D01*
Y1597228D01*
X3578086D01*
Y1581590D01*
X3581213D01*
Y1569079D01*
X3584341D01*
Y1553441D01*
X3587469D01*
Y1537803D01*
X3590596D01*
Y1528420D01*
X3521788D01*
Y1544059D01*
X3518661D01*
Y1559697D01*
X3515533D01*
Y1575335D01*
X3512406D01*
Y1590973D01*
X3509278D01*
Y1606611D01*
X3506150D01*
Y1622249D01*
X3503023D01*
Y1637887D01*
X3499895D01*
Y1653525D01*
X3496768D01*
Y1669163D01*
X3493640D01*
Y1684801D01*
X3490512D01*
Y1700439D01*
X3487385D01*
Y1716077D01*
X3484257D01*
Y1731715D01*
X3481129D01*
Y1741098D01*
X3546810D01*
Y1737971D01*
D02*
G37*
G36*
X3093305D02*
X3099560D01*
Y1734843D01*
X3105816D01*
Y1731715D01*
X3108943D01*
Y1728588D01*
X3112071D01*
Y1722333D01*
X3115198D01*
Y1719205D01*
X3118326D01*
Y1706695D01*
X3121454D01*
Y1691057D01*
X3124582D01*
Y1675418D01*
X3127709D01*
Y1659780D01*
X3130837D01*
Y1644142D01*
X3133964D01*
Y1628504D01*
X3137092D01*
Y1612866D01*
X2871245D01*
Y1600356D01*
X2874372D01*
Y1584717D01*
X2877500D01*
Y1572207D01*
X3146475D01*
Y1569079D01*
X3149602D01*
Y1553441D01*
X3152730D01*
Y1537803D01*
X3155858D01*
Y1528420D01*
X2846224D01*
Y1531548D01*
X2836841D01*
Y1534676D01*
X2830586D01*
Y1537803D01*
X2827458D01*
Y1540931D01*
X2824330D01*
Y1544059D01*
X2821203D01*
Y1550314D01*
X2818075D01*
Y1559697D01*
X2814948D01*
Y1575335D01*
X2811820D01*
Y1590973D01*
X2808692D01*
Y1606611D01*
X2805565D01*
Y1622249D01*
X2802437D01*
Y1637887D01*
X2799309D01*
Y1653525D01*
X2796182D01*
Y1659780D01*
X3062029D01*
Y1669163D01*
X3058901D01*
Y1684801D01*
X3055774D01*
Y1697312D01*
X2452144D01*
Y1687929D01*
X2455272D01*
Y1672291D01*
X2458399D01*
Y1659780D01*
X2727374D01*
Y1656653D01*
X2730502D01*
Y1644142D01*
X2733630D01*
Y1628504D01*
X2736757D01*
Y1612866D01*
X2739885D01*
Y1597228D01*
X2743012D01*
Y1581590D01*
X2746140D01*
Y1565952D01*
X2749268D01*
Y1550314D01*
X2752395D01*
Y1534676D01*
X2755523D01*
Y1528420D01*
X2689843D01*
Y1540931D01*
X2686715D01*
Y1553441D01*
X2683588D01*
Y1569079D01*
X2680460D01*
Y1584717D01*
X2677332D01*
Y1600356D01*
X2674205D01*
Y1612866D01*
X2433378D01*
Y1615994D01*
X2420868D01*
Y1619121D01*
X2414613D01*
Y1622249D01*
X2411485D01*
Y1625376D01*
X2408358D01*
Y1628504D01*
X2405230D01*
Y1631632D01*
X2402102D01*
Y1637887D01*
X2398975D01*
Y1647270D01*
X2395847D01*
Y1662908D01*
X2392720D01*
Y1678546D01*
X2389592D01*
Y1694184D01*
X2386464D01*
Y1712950D01*
X2383337D01*
Y1722333D01*
X2386464D01*
Y1731715D01*
X2389592D01*
Y1734843D01*
X2392720D01*
Y1737971D01*
X2398975D01*
Y1741098D01*
X3093305D01*
Y1737971D01*
D02*
G37*
G36*
X2361443Y1734843D02*
X2364571D01*
Y1719205D01*
X2367699D01*
Y1703567D01*
X2370826D01*
Y1697312D01*
X2148766D01*
Y1678546D01*
X2151893D01*
Y1659780D01*
X2155021D01*
Y1656653D01*
X2345805D01*
Y1644142D01*
X2348933D01*
Y1628504D01*
X2352061D01*
Y1612866D01*
X2164404D01*
Y1600356D01*
X2167531D01*
Y1584717D01*
X2170659D01*
Y1569079D01*
X2173786D01*
Y1565952D01*
Y1553441D01*
X2176914D01*
Y1537803D01*
X2180042D01*
Y1528420D01*
X2117489D01*
Y1531548D01*
X2114362D01*
Y1544059D01*
X2111234D01*
Y1559697D01*
X2108107D01*
Y1575335D01*
X2104979D01*
Y1590973D01*
X2101851D01*
Y1606611D01*
X2098724D01*
Y1622249D01*
X2095596D01*
Y1637887D01*
X2092469D01*
Y1653525D01*
X2089341D01*
Y1669163D01*
X2086213D01*
Y1684801D01*
X2083086D01*
Y1700439D01*
X2079958D01*
Y1725460D01*
X2083086D01*
Y1731715D01*
X2086213D01*
Y1734843D01*
X2092469D01*
Y1737971D01*
X2098724D01*
Y1741098D01*
X2361443D01*
Y1734843D01*
D02*
G37*
G36*
X2036171Y1737971D02*
X2042427D01*
Y1734843D01*
X2048682D01*
Y1731715D01*
X2051809D01*
Y1728588D01*
X2054937D01*
Y1722333D01*
X2058065D01*
Y1716077D01*
X2061192D01*
Y1706695D01*
X2064320D01*
Y1691057D01*
X2067447D01*
Y1675418D01*
X2070575D01*
Y1659780D01*
X2073703D01*
Y1644142D01*
X2076830D01*
Y1628504D01*
X2079958D01*
Y1612866D01*
X2083086D01*
Y1597228D01*
X2086213D01*
Y1581590D01*
X2089341D01*
Y1565952D01*
X2092469D01*
Y1540931D01*
X2089341D01*
Y1534676D01*
X2083086D01*
Y1531548D01*
X2076830D01*
Y1528420D01*
X1735920D01*
Y1531548D01*
X1732793D01*
Y1544059D01*
X1729665D01*
Y1559697D01*
X1726538D01*
Y1572207D01*
X2020533D01*
Y1587845D01*
X2017406D01*
Y1603483D01*
X2014278D01*
Y1619121D01*
X2011150D01*
Y1634759D01*
X2008023D01*
Y1650398D01*
X2004895D01*
Y1666036D01*
X2001768D01*
Y1681674D01*
X1998640D01*
Y1697312D01*
X1357479D01*
Y1706695D01*
X1354351D01*
Y1722333D01*
X1351224D01*
Y1734843D01*
X1348096D01*
Y1741098D01*
X2036171D01*
Y1737971D01*
D02*
G37*
G36*
X1685879Y1656653D02*
X1689006D01*
Y1641014D01*
X1692134D01*
Y1625376D01*
X1695261D01*
Y1609738D01*
X1698389D01*
Y1594100D01*
X1701517D01*
Y1578462D01*
X1704644D01*
Y1562824D01*
X1707772D01*
Y1547186D01*
X1710900D01*
Y1531548D01*
X1714027D01*
Y1528420D01*
X1379372D01*
Y1537803D01*
X1376245D01*
Y1553441D01*
X1373117D01*
Y1569079D01*
X1369989D01*
Y1575335D01*
X1635837D01*
Y1584717D01*
X1632709D01*
Y1600356D01*
X1629581D01*
Y1612866D01*
X1435669D01*
Y1619121D01*
X1432542D01*
Y1634759D01*
X1429414D01*
Y1650398D01*
X1426286D01*
Y1659780D01*
X1685879D01*
Y1656653D01*
D02*
G37*
D33*
X2425000Y305000D02*
X3542500D01*
X3457955Y463706D02*
X3474616Y480368D01*
X3507938D01*
X3524600Y463706D01*
Y397061D01*
X3507938Y380400D01*
X3474616D01*
X3457955Y397061D01*
Y430384D01*
X3491277D01*
X3424632Y447045D02*
Y380400D01*
Y413722D01*
X3407971Y430384D01*
X3391309Y447045D01*
X3374648D01*
X3308003Y380400D02*
X3274680D01*
X3258019Y397061D01*
Y430384D01*
X3274680Y447045D01*
X3308003D01*
X3324664Y430384D01*
Y397061D01*
X3308003Y380400D01*
X3224696Y447045D02*
Y397061D01*
X3208035Y380400D01*
X3158051D01*
Y447045D01*
X3124729Y380400D02*
Y447045D01*
X3074745D01*
X3058084Y430384D01*
Y380400D01*
X2958116Y480368D02*
Y380400D01*
X3008099D01*
X3024761Y397061D01*
Y430384D01*
X3008099Y447045D01*
X2958116D01*
X2758180Y463706D02*
X2774841Y480368D01*
X2808164D01*
X2824825Y463706D01*
Y447045D01*
X2808164Y430384D01*
X2774841D01*
X2758180Y413722D01*
Y397061D01*
X2774841Y380400D01*
X2808164D01*
X2824825Y397061D01*
X2708196Y463706D02*
Y447045D01*
X2724857D01*
X2691535D01*
X2708196D01*
Y397061D01*
X2691535Y380400D01*
X2624890Y447045D02*
X2591567D01*
X2574906Y430384D01*
Y380400D01*
X2624890D01*
X2641551Y397061D01*
X2624890Y413722D01*
X2574906D01*
X2524922Y463706D02*
Y447045D01*
X2541583D01*
X2508261D01*
X2524922D01*
Y397061D01*
X2508261Y380400D01*
X2458277D02*
X2424954D01*
X2441615D01*
Y447045D01*
X2458277D01*
X2358309Y380400D02*
X2324986D01*
X2308325Y397061D01*
Y430384D01*
X2324986Y447045D01*
X2358309D01*
X2374970Y430384D01*
Y397061D01*
X2358309Y380400D01*
X2275003D02*
Y447045D01*
X2225019D01*
X2208358Y430384D01*
Y380400D01*
X2008422D02*
X2075067D01*
X2008422Y447045D01*
Y463706D01*
X2025083Y480368D01*
X2058406D01*
X2075067Y463706D01*
X1975099D02*
X1958438Y480368D01*
X1925115D01*
X1908454Y463706D01*
Y397061D01*
X1925115Y380400D01*
X1958438D01*
X1975099Y397061D01*
Y463706D01*
X1808486Y380400D02*
X1875131D01*
X1808486Y447045D01*
Y463706D01*
X1825147Y480368D01*
X1858470D01*
X1875131Y463706D01*
X1775164D02*
X1758502Y480368D01*
X1725180D01*
X1708519Y463706D01*
Y447045D01*
X1725180Y430384D01*
X1741841D01*
X1725180D01*
X1708519Y413722D01*
Y397061D01*
X1725180Y380400D01*
X1758502D01*
X1775164Y397061D01*
X3465455Y251190D02*
X3532100D01*
Y151222D01*
X3465455D01*
X3532100Y201206D02*
X3498777D01*
X3365487Y251190D02*
Y151222D01*
X3415471D01*
X3432132Y167884D01*
Y201206D01*
X3415471Y217867D01*
X3365487D01*
X3332164Y151222D02*
X3298842D01*
X3315503D01*
Y217867D01*
X3332164D01*
X3232196Y234529D02*
Y217867D01*
X3248858D01*
X3215535D01*
X3232196D01*
Y167884D01*
X3215535Y151222D01*
X3115568D02*
X3148890D01*
X3165551Y167884D01*
Y201206D01*
X3148890Y217867D01*
X3115568D01*
X3098906Y201206D01*
Y184545D01*
X3165551D01*
X2998939Y251190D02*
Y151222D01*
X3048922D01*
X3065584Y167884D01*
Y201206D01*
X3048922Y217867D01*
X2998939D01*
X2865648Y251190D02*
Y151222D01*
X2815664D01*
X2799003Y167884D01*
Y184545D01*
X2815664Y201206D01*
X2865648D01*
X2815664D01*
X2799003Y217867D01*
Y234529D01*
X2815664Y251190D01*
X2865648D01*
X2765680Y217867D02*
Y167884D01*
X2749019Y151222D01*
X2699035D01*
Y134561D01*
X2715696Y117900D01*
X2732358D01*
X2699035Y151222D02*
Y217867D01*
X2665712D02*
X2649051D01*
Y201206D01*
X2665712D01*
Y217867D01*
Y167884D02*
X2649051D01*
Y151222D01*
X2665712D01*
Y167884D01*
X2482438Y151222D02*
Y251190D01*
X2432454D01*
X2415793Y234529D01*
Y201206D01*
X2432454Y184545D01*
X2482438D01*
X2449116D02*
X2415793Y151222D01*
X2365809D02*
X2332487D01*
X2315825Y167884D01*
Y201206D01*
X2332487Y217867D01*
X2365809D01*
X2382470Y201206D01*
Y167884D01*
X2365809Y151222D01*
X2282503D02*
X2249180D01*
X2265841D01*
Y251190D01*
X2282503D01*
X2182535Y217867D02*
X2149212D01*
X2132551Y201206D01*
Y151222D01*
X2182535D01*
X2199196Y167884D01*
X2182535Y184545D01*
X2132551D01*
X2099228Y151222D02*
Y217867D01*
X2049245D01*
X2032583Y201206D01*
Y151222D01*
X1932616Y251190D02*
Y151222D01*
X1982599D01*
X1999261Y167884D01*
Y201206D01*
X1982599Y217867D01*
X1932616D01*
X1799325Y151222D02*
Y251190D01*
X1732680Y151222D01*
Y251190D01*
X1649373Y151222D02*
X1682696D01*
X1699357Y167884D01*
Y201206D01*
X1682696Y217867D01*
X1649373D01*
X1632712Y201206D01*
Y184545D01*
X1699357D01*
X1599389Y151222D02*
X1566067D01*
X1582728D01*
Y217867D01*
X1599389D01*
X1516083Y151222D02*
X1482761D01*
X1499422D01*
Y251190D01*
X1516083D01*
X1432777Y151222D02*
X1399454D01*
X1416115D01*
Y251190D01*
X1432777D01*
D54*
X1767502Y864999D02*
X1942498D01*
X1767502Y695001D02*
X1942498D01*
X1087501Y1859998D02*
X1247501D01*
X1087501Y2040002D02*
X1247501D01*
X1644469Y2919702D02*
X1819464D01*
X1645002Y3089999D02*
X1819998D01*
X2366378Y2500002D02*
X2493622D01*
X2366378Y2634998D02*
X2493622D01*
X1421376Y1326126D02*
X1568624D01*
X1421376Y1188874D02*
X1568624D01*
D56*
X1562480Y1372512D02*
Y1447488D01*
X1524992D01*
X1512496Y1434992D01*
Y1410000D01*
X1524992Y1397504D01*
X1562480D01*
X1537488D02*
X1512496Y1372512D01*
X1487504Y1385008D02*
X1475008Y1372512D01*
X1450016D01*
X1437520Y1385008D01*
Y1434992D01*
X1450016Y1447488D01*
X1475008D01*
X1487504Y1434992D01*
Y1422496D01*
X1475008Y1410000D01*
X1437520D01*
X2489980Y2672512D02*
Y2747488D01*
X2452492D01*
X2439996Y2734992D01*
Y2710000D01*
X2452492Y2697504D01*
X2489980D01*
X2464988D02*
X2439996Y2672512D01*
X2415004Y2747488D02*
X2365020D01*
Y2734992D01*
X2415004Y2685008D01*
Y2672512D01*
X1217480Y2082512D02*
Y2157488D01*
X1179992D01*
X1167496Y2144992D01*
Y2120000D01*
X1179992Y2107504D01*
X1217480D01*
X1192488D02*
X1167496Y2082512D01*
X1105016D02*
Y2157488D01*
X1142504Y2120000D01*
X1092520D01*
X1867496Y652492D02*
X1879992Y664988D01*
X1904984D01*
X1917480Y652492D01*
Y602508D01*
X1904984Y590012D01*
X1879992D01*
X1867496Y602508D01*
X1792520Y590012D02*
X1842504D01*
X1792520Y639996D01*
Y652492D01*
X1805016Y664988D01*
X1830008D01*
X1842504Y652492D01*
X1727500Y3184992D02*
X1739996Y3197488D01*
X1764988D01*
X1777484Y3184992D01*
Y3135008D01*
X1764988Y3122512D01*
X1739996D01*
X1727500Y3135008D01*
X1702508Y3122512D02*
X1677516D01*
X1690012D01*
Y3197488D01*
X1702508Y3184992D01*
%TF.MD5,3fec957cc47e5271c530da3c55f30550*%
M02*
