%TF.GenerationSoftware,Altium Limited,Altium Designer,23.3.1 (30)*%
G04 Layer_Physical_Order=2*
G04 Layer_Color=32768*
%FSLAX45Y45*%
%MOMM*%
%TF.SameCoordinates,3D4662BF-085F-4CF4-8E86-F61BF3E894F1*%
%TF.FilePolarity,Negative*%
%TF.FileFunction,Copper,L2,Inr,Plane*%
%TF.Part,Single*%
G01*
G75*
%TA.AperFunction,NonConductor*%
%ADD42C,1.01600*%
%TA.AperFunction,ViaPad*%
%ADD43C,4.21600*%
%TA.AperFunction,ComponentPad*%
%ADD44C,2.03600*%
%ADD45O,2.31600X1.61600*%
%ADD46C,1.86600*%
%ADD47C,1.81600*%
%TA.AperFunction,ViaPad*%
%ADD48C,1.27000*%
D42*
X0Y0D02*
X3700000D01*
Y4300000D01*
X0D02*
X3700000D01*
X0Y0D02*
Y4300000D01*
D43*
X300000Y2720000D02*
D03*
X3400000Y4000000D02*
D03*
X300000Y300000D02*
D03*
D44*
X990600Y373600D02*
D03*
X1244600D02*
D03*
X1498600D02*
D03*
X990600Y627600D02*
D03*
X1498600D02*
D03*
X3441700Y653000D02*
D03*
X3187700D02*
D03*
X2933700D02*
D03*
X2679700D02*
D03*
D45*
X139700Y3967700D02*
D03*
Y3267701D02*
D03*
D46*
X409702Y3867700D02*
D03*
Y3367701D02*
D03*
D47*
X2705100Y3358100D02*
D03*
Y3558100D02*
D03*
D48*
X295000Y3077500D02*
D03*
X1689100Y770000D02*
D03*
X1892300Y2885931D02*
D03*
X962500Y1950000D02*
D03*
X1552879Y3388321D02*
D03*
X1540000Y3472500D02*
D03*
X1815000Y3657500D02*
D03*
X1727942D02*
D03*
X1828800Y3281900D02*
D03*
X1663700Y1199100D02*
D03*
X1308100D02*
D03*
X1838000Y2160800D02*
D03*
X2692400Y2545300D02*
D03*
X1769282Y3967700D02*
D03*
X1778000Y3815300D02*
D03*
X1498600Y3180300D02*
D03*
%TF.MD5,917718a04ba65da91cad7220880a1f28*%
M02*
