%TF.GenerationSoftware,Altium Limited,Altium Designer,23.3.1 (30)*%
G04 Layer_Physical_Order=3*
G04 Layer_Color=128*
%FSLAX45Y45*%
%MOMM*%
%TF.SameCoordinates,E5280C8B-2022-47E8-8DAE-B5BF382FD6C1*%
%TF.FilePolarity,Negative*%
%TF.FileFunction,Copper,L3,Inr,Plane*%
%TF.Part,Single*%
G01*
G75*
%TA.AperFunction,NonConductor*%
%ADD42C,1.01600*%
%TA.AperFunction,ViaPad*%
%ADD43C,4.21600*%
%TA.AperFunction,ComponentPad*%
%ADD44C,2.03600*%
%ADD45O,2.31600X1.61600*%
%ADD46C,1.86600*%
%ADD47C,1.81600*%
%TA.AperFunction,ViaPad*%
%ADD48C,1.27000*%
%ADD49C,1.21600*%
D42*
X300000Y4300000D02*
G03*
X0Y4000000I0J-300000D01*
G01*
X3700000D02*
G03*
X3400000Y4300000I-300000J0D01*
G01*
Y0D02*
G03*
X3700000Y300000I0J300000D01*
G01*
X0D02*
G03*
X300000Y0I300000J0D01*
G01*
X0Y300000D02*
Y4000000D01*
X300000Y4300000D02*
X3400000D01*
X3700000Y300000D02*
Y4000000D01*
X300000Y0D02*
X3400000D01*
D43*
X300000Y2720000D02*
D03*
X3400000Y4000000D02*
D03*
X300000Y300000D02*
D03*
D44*
X990600Y373600D02*
D03*
X1244600D02*
D03*
X1498600D02*
D03*
X990600Y627600D02*
D03*
X1244600D02*
D03*
X1498600D02*
D03*
X3441700Y653000D02*
D03*
X3187700D02*
D03*
X2933700D02*
D03*
X2679700D02*
D03*
D45*
X139700Y3967700D02*
D03*
Y3267701D02*
D03*
D46*
X409702Y3867700D02*
D03*
Y3367701D02*
D03*
D47*
X2705100Y3358100D02*
D03*
Y3558100D02*
D03*
D48*
X2317500Y695000D02*
D03*
X3157500Y3695000D02*
D03*
X2862500Y2982500D02*
D03*
X3500000Y3342500D02*
D03*
X2952500Y3332500D02*
D03*
X2850000Y4032500D02*
D03*
X2427500Y4115000D02*
D03*
X1585000Y4097500D02*
D03*
X1472500Y3867500D02*
D03*
X1125000Y3317500D02*
D03*
X1042500Y3922500D02*
D03*
X835000Y3465000D02*
D03*
X580000Y2990000D02*
D03*
X295000Y3077500D02*
D03*
X1822500Y210000D02*
D03*
X2057500Y205000D02*
D03*
X2295000D02*
D03*
X1991305Y840244D02*
D03*
X1689100Y770000D02*
D03*
X1557500Y3027500D02*
D03*
X1560000Y1105000D02*
D03*
X927500Y840000D02*
D03*
X625000Y1380000D02*
D03*
X630000Y2260000D02*
D03*
X1357500Y1952500D02*
D03*
X1892300Y2885931D02*
D03*
X962500Y1950000D02*
D03*
X3267500Y2907500D02*
D03*
X2445000Y2895000D02*
D03*
X2065000Y2900000D02*
D03*
X927500Y2902500D02*
D03*
X1685000Y2897500D02*
D03*
X540000Y3485000D02*
D03*
X1225000Y3637500D02*
D03*
X760000Y4132500D02*
D03*
X1552879Y3388321D02*
D03*
X1540000Y3472500D02*
D03*
X1815000Y3657500D02*
D03*
X1727942D02*
D03*
X1828800Y3281900D02*
D03*
X2580000Y1092500D02*
D03*
X3340000Y1110000D02*
D03*
X690000Y1857500D02*
D03*
Y2080000D02*
D03*
X685000Y1602500D02*
D03*
X1663700Y1199100D02*
D03*
X1308100D02*
D03*
X1838000Y2160800D02*
D03*
X2692400Y2545300D02*
D03*
X1769282Y3967700D02*
D03*
X1778000Y3815300D02*
D03*
X1498600Y3180300D02*
D03*
D49*
X2160900Y3652400D02*
D03*
X2270902D02*
D03*
X2380899D02*
D03*
X2160900Y3542402D02*
D03*
X2270902D02*
D03*
X2380899D02*
D03*
X2160900Y3432400D02*
D03*
X2270902D02*
D03*
X2380899D02*
D03*
%TF.MD5,b0d87a7c093d82a1b6a368b64788ab6c*%
M02*
