%TF.GenerationSoftware,Altium Limited,Altium Designer,23.3.1 (30)*%
G04 Layer_Color=8421504*
%FSLAX45Y45*%
%MOMM*%
%TF.SameCoordinates,E5280C8B-2022-47E8-8DAE-B5BF382FD6C1*%
%TF.FilePolarity,Positive*%
%TF.FileFunction,Paste,Top*%
%TF.Part,Single*%
G01*
G75*
%TA.AperFunction,NonConductor*%
%ADD10C,0.50000*%
%TA.AperFunction,SMDPad,CuDef*%
%ADD11R,1.52400X1.01600*%
%ADD12R,1.01600X1.52400*%
%ADD13R,0.56818X0.57247*%
%TA.AperFunction,ConnectorPad*%
%ADD14R,5.08000X2.41300*%
%ADD15R,5.08000X2.28600*%
%TA.AperFunction,SMDPad,CuDef*%
%ADD16R,0.80000X0.80000*%
%ADD17R,0.45000X0.45000*%
%TA.AperFunction,ConnectorPad*%
%ADD18R,1.90000X1.50000*%
%ADD19R,1.35000X0.40000*%
%TA.AperFunction,SMDPad,CuDef*%
%ADD20O,0.95000X0.20000*%
%ADD21O,0.20000X0.95000*%
%ADD22R,3.13000X3.13000*%
%ADD23R,1.70000X1.10000*%
%ADD24R,0.99000X0.69000*%
%ADD25R,0.57247X0.56818*%
%ADD26R,0.80000X0.80000*%
%ADD27R,0.47247X0.46818*%
G36*
X234700Y3257700D02*
X44700D01*
Y3387700D01*
X234700D01*
Y3257700D01*
D02*
G37*
G36*
X184703Y3207702D02*
X94700Y3207700D01*
Y3257699D01*
X184703D01*
Y3207702D01*
D02*
G37*
G36*
X184700Y3977700D02*
X94697D01*
Y4027698D01*
X184700Y4027700D01*
Y3977700D01*
D02*
G37*
G36*
X234700Y3847700D02*
X44700D01*
Y3977700D01*
X234700D01*
Y3847700D01*
D02*
G37*
D10*
X209700Y3257700D02*
G03*
X209700Y3257700I-25000J0D01*
G01*
X119700D02*
G03*
X119700Y3257700I-25000J0D01*
G01*
X209700Y3977700D02*
G03*
X209700Y3977700I-25000J0D01*
G01*
X119700D02*
G03*
X119700Y3977700I-25000J0D01*
G01*
D11*
X800100Y1478500D02*
D03*
Y1605500D02*
D03*
Y1732500D02*
D03*
Y1859500D02*
D03*
Y1986500D02*
D03*
Y2113500D02*
D03*
Y2240500D02*
D03*
D12*
X3340100Y970500D02*
D03*
X3213100D02*
D03*
X3086100D02*
D03*
X2959100D02*
D03*
X2832100D02*
D03*
X2705100D02*
D03*
X2578100D02*
D03*
X2451100D02*
D03*
X2324100D02*
D03*
X2197100D02*
D03*
X2070100D02*
D03*
X1943100D02*
D03*
X1816100D02*
D03*
X1689100D02*
D03*
X1562100D02*
D03*
X1435100D02*
D03*
X1308100D02*
D03*
X1181100D02*
D03*
X1054100D02*
D03*
X927100D02*
D03*
Y2748500D02*
D03*
X1054100D02*
D03*
X1181100D02*
D03*
X1308100D02*
D03*
X1435100D02*
D03*
X1562100D02*
D03*
X1689100D02*
D03*
X1816100D02*
D03*
X1943100D02*
D03*
X2070100D02*
D03*
X2197100D02*
D03*
X2324100D02*
D03*
X2451100D02*
D03*
X2578100D02*
D03*
X2705100D02*
D03*
X2832100D02*
D03*
X2959100D02*
D03*
X3086100D02*
D03*
X3213100D02*
D03*
X3340100D02*
D03*
D13*
X2039114Y3942300D02*
D03*
X1948685D02*
D03*
D14*
X292100Y2259550D02*
D03*
Y1383250D02*
D03*
D15*
Y1821400D02*
D03*
D16*
X2057508Y489992D02*
D03*
Y339990D02*
D03*
X2300008Y489992D02*
D03*
Y339990D02*
D03*
X1825010Y489989D02*
D03*
Y339992D02*
D03*
D17*
X1905000Y740000D02*
D03*
Y820000D02*
D03*
X2102500Y742500D02*
D03*
Y822500D02*
D03*
X1815000Y730000D02*
D03*
Y810000D02*
D03*
X2350000Y3070000D02*
D03*
Y2990000D02*
D03*
D18*
X139700Y3517698D02*
D03*
Y3717698D02*
D03*
D19*
X409702Y3487701D02*
D03*
Y3552700D02*
D03*
Y3617698D02*
D03*
Y3682702D02*
D03*
Y3747700D02*
D03*
D20*
X2023400Y3692400D02*
D03*
Y3642402D02*
D03*
Y3592400D02*
D03*
Y3542402D02*
D03*
Y3492400D02*
D03*
Y3442403D02*
D03*
Y3392400D02*
D03*
X2518400D02*
D03*
Y3442403D02*
D03*
Y3492400D02*
D03*
Y3542402D02*
D03*
Y3592400D02*
D03*
Y3642402D02*
D03*
Y3692400D02*
D03*
D21*
X2120900Y3294900D02*
D03*
X2170902D02*
D03*
X2220900D02*
D03*
X2270902D02*
D03*
X2320900D02*
D03*
X2370902D02*
D03*
X2420899D02*
D03*
Y3789900D02*
D03*
X2370902D02*
D03*
X2320900D02*
D03*
X2270902D02*
D03*
X2220900D02*
D03*
X2170902D02*
D03*
X2120900D02*
D03*
D22*
X2270902Y3542402D02*
D03*
D23*
X620000Y4127500D02*
D03*
Y3867501D02*
D03*
D24*
X1323300Y3542499D02*
D03*
Y3637500D02*
D03*
Y3732501D02*
D03*
X1064301D02*
D03*
Y3542499D02*
D03*
D25*
X1879600Y3066000D02*
D03*
Y2975571D02*
D03*
D26*
X2071290Y3002492D02*
D03*
X2221292D02*
D03*
D27*
X2265000Y3942284D02*
D03*
Y4022716D02*
D03*
%TF.MD5,4517ec2767ef7f9205108f1023f0d7fa*%
M02*
