%TF.GenerationSoftware,Altium Limited,Altium Designer,23.3.1 (30)*%
G04 Layer_Physical_Order=4*
G04 Layer_Color=16711680*
%FSLAX45Y45*%
%MOMM*%
%TF.SameCoordinates,E5280C8B-2022-47E8-8DAE-B5BF382FD6C1*%
%TF.FilePolarity,Positive*%
%TF.FileFunction,Copper,L4,Bot,Signal*%
%TF.Part,Single*%
G01*
G75*
%TA.AperFunction,SMDPad,CuDef*%
%ADD13R,0.56818X0.57247*%
%TA.AperFunction,ConnectorPad*%
%ADD14R,5.08000X2.41300*%
%TA.AperFunction,Conductor*%
%ADD28C,0.25400*%
%ADD30C,0.19800*%
%ADD31C,0.19079*%
%TA.AperFunction,NonConductor*%
%ADD33C,0.25400*%
%TA.AperFunction,ViaPad*%
%ADD34C,4.00000*%
%TA.AperFunction,ComponentPad*%
%ADD35R,1.55000X1.55000*%
%ADD36C,1.55000*%
%ADD37C,1.45000*%
%ADD38R,1.30000X1.30000*%
%ADD39C,1.30000*%
%TA.AperFunction,ViaPad*%
%ADD40C,0.44400*%
%ADD41C,0.50000*%
%TA.AperFunction,SMDPad,CuDef*%
%ADD50R,0.75000X0.90000*%
%ADD51R,0.75000X1.00000*%
%ADD52R,0.46818X0.47247*%
G36*
X1526370Y1997563D02*
Y1994435D01*
X1551391D01*
Y1991307D01*
X1554519D01*
Y1988180D01*
X1557646D01*
Y1963159D01*
X1560774D01*
Y1960031D01*
X1563902D01*
Y1985052D01*
X1567029D01*
Y1991307D01*
X1570157D01*
Y1994435D01*
X1595178D01*
Y1997563D01*
X1601433D01*
Y2000690D01*
X1576412D01*
Y2003818D01*
X1567029D01*
Y2010073D01*
X1563902D01*
Y2035094D01*
X1557646D01*
Y2006946D01*
X1554519D01*
Y2003818D01*
X1548263D01*
Y2000690D01*
X1520115D01*
Y1997563D01*
X1523243D01*
X1526370D01*
D02*
G37*
G36*
X1983002Y2382259D02*
X2004895D01*
Y2385387D01*
X2017406D01*
Y2388515D01*
X1995512D01*
Y2391642D01*
X1979874D01*
Y2401025D01*
X1976747D01*
Y2429174D01*
X1973619D01*
Y2422918D01*
X1970492D01*
Y2397897D01*
X1967364D01*
Y2391642D01*
X1951726D01*
Y2388515D01*
X1929833D01*
Y2385387D01*
X1945471D01*
Y2382259D01*
X1967364D01*
Y2376004D01*
X1970492D01*
Y2350983D01*
X1973619D01*
Y2344728D01*
X1976747D01*
Y2369749D01*
X1979874D01*
Y2382259D01*
X1983002D01*
D02*
G37*
G36*
X2733630Y2175837D02*
X2721119D01*
Y2172709D01*
X2708609D01*
Y2169582D01*
X2730502D01*
Y2166454D01*
X2733630D01*
Y2150816D01*
X2736757D01*
Y2147688D01*
X2739885D01*
Y2166454D01*
X2743012D01*
Y2169582D01*
X2764906D01*
Y2172709D01*
X2752395D01*
Y2175837D01*
X2739885D01*
Y2194602D01*
X2736757D01*
Y2191475D01*
X2733630D01*
Y2178964D01*
Y2175837D01*
D02*
G37*
G36*
X3177751Y2297814D02*
X3180879D01*
Y2319707D01*
X3199644D01*
Y2322835D01*
X3227793D01*
Y2325962D01*
X3224665D01*
Y2329090D01*
X3196517D01*
Y2332218D01*
X3180879D01*
Y2354111D01*
X3177751D01*
Y2379132D01*
X3174623D01*
Y2372877D01*
X3171496D01*
Y2344728D01*
X3168368D01*
Y2332218D01*
X3152730D01*
Y2329090D01*
X3124582D01*
Y2322835D01*
X3149602D01*
Y2319707D01*
X3168368D01*
Y2307197D01*
X3171496D01*
Y2279048D01*
X3174623D01*
Y2269665D01*
X3177751D01*
Y2294686D01*
Y2297814D01*
D02*
G37*
D13*
X1449783Y1257500D02*
D03*
X1540217D02*
D03*
D14*
X292100Y1383250D02*
D03*
Y2259550D02*
D03*
D28*
X295000Y3075800D02*
Y3077500D01*
Y3075800D02*
X803300Y2567500D01*
X2389787D01*
X1689100Y770000D02*
X1694241D01*
X1964109Y836609D02*
X1987669D01*
X1694241Y770000D02*
X1704241Y780000D01*
X1987669Y836609D02*
X1991305Y840244D01*
X1915000Y787500D02*
X1964109Y836609D01*
X1915000Y780000D02*
Y787500D01*
X1704241Y780000D02*
X1795000D01*
X1557500Y3027500D02*
X1562642D01*
X1585141Y3005000D02*
X1672500D01*
X1562642Y3027500D02*
X1585141Y3005000D01*
X962500Y1950000D02*
X1092500D01*
X292100Y1383250D02*
X295350Y1380000D01*
X625000D01*
X292100Y2259550D02*
X292550Y2260000D01*
X630000D01*
X1540217Y1348115D02*
X1838000Y1645898D01*
X1540217Y1257715D02*
Y1348115D01*
X1242502Y1950000D02*
X1245002Y1952500D01*
X1357500D01*
X1888665Y2889566D02*
X1892300Y2885931D01*
X1792500Y2997500D02*
Y3005000D01*
Y2997500D02*
X1888665Y2901335D01*
Y2889566D02*
Y2901335D01*
X1685000Y2897500D02*
Y2902641D01*
X1672500Y2915141D02*
X1685000Y2902641D01*
X1540217Y1257500D02*
X1605300D01*
X1663700Y1199100D01*
X1433859Y1241576D02*
X1434074D01*
X1449783Y1257285D02*
Y1257500D01*
X1434074Y1241576D02*
X1449783Y1257285D01*
X1391383Y1199100D02*
X1433859Y1241576D01*
X1308100Y1199100D02*
X1391383D01*
X962500Y1950000D02*
X963300Y1949200D01*
X2665521Y2567500D02*
X2687721Y2545300D01*
X2470213Y2567500D02*
X2665521D01*
X2687721Y2545300D02*
X2692400D01*
X1778000Y3815300D02*
X1902500Y3690800D01*
Y3355600D02*
Y3690800D01*
X1828800Y3281900D02*
X1902500Y3355600D01*
X1308100Y1199100D02*
Y1206004D01*
X1838000Y1645898D02*
Y2160800D01*
X1435100Y3633518D02*
X1769282Y3967700D01*
X1435100Y3243800D02*
X1498600Y3180300D01*
X1435100Y3243800D02*
Y3633518D01*
X1838000Y2160800D02*
X1841500Y2164300D01*
D30*
X1543811Y3473234D02*
X1727942Y3657365D01*
X1577058Y3387500D02*
X1815000Y3625442D01*
Y3657500D01*
D31*
X1552879Y3388321D02*
X1553700Y3387500D01*
X1540000Y3472500D02*
X1540821Y3471679D01*
X1553700Y3387500D02*
X1577058D01*
D33*
X3400000Y0D02*
G03*
X3700000Y300000I0J300000D01*
G01*
X0D02*
G03*
X300000Y0I300000J0D01*
G01*
Y4300000D02*
G03*
X0Y4000000I0J-300000D01*
G01*
X3700000D02*
G03*
X3400000Y4300000I-300000J0D01*
G01*
X3700000Y300000D02*
Y4000000D01*
X300000Y4300000D02*
X3400000D01*
X0Y300000D02*
Y4000000D01*
X300000Y0D02*
X3400000D01*
D34*
X300000Y2720000D02*
D03*
X3400000Y4000000D02*
D03*
X300000Y300000D02*
D03*
D35*
X990600Y373600D02*
D03*
X3441700Y653000D02*
D03*
D36*
X1244600Y373600D02*
D03*
X1498600D02*
D03*
X990600Y627600D02*
D03*
X1244600D02*
D03*
X1498600D02*
D03*
X3187700Y653000D02*
D03*
X2933700D02*
D03*
X2679700D02*
D03*
D37*
X409702Y3867700D02*
D03*
Y3367701D02*
D03*
D38*
X2705100Y3358100D02*
D03*
D39*
Y3558100D02*
D03*
D40*
X2317500Y695000D02*
D03*
X3157500Y3695000D02*
D03*
X2862500Y2982500D02*
D03*
X3500000Y3342500D02*
D03*
X2952500Y3332500D02*
D03*
X2850000Y4032500D02*
D03*
X2427500Y4115000D02*
D03*
X1585000Y4097500D02*
D03*
X1472500Y3867500D02*
D03*
X1125000Y3317500D02*
D03*
X1042500Y3922500D02*
D03*
X835000Y3465000D02*
D03*
X580000Y2990000D02*
D03*
X295000Y3077500D02*
D03*
X1822500Y210000D02*
D03*
X2057500Y205000D02*
D03*
X2295000D02*
D03*
X1991305Y840244D02*
D03*
X1689100Y770000D02*
D03*
X1557500Y3027500D02*
D03*
X1560000Y1105000D02*
D03*
X927500Y840000D02*
D03*
X625000Y1380000D02*
D03*
X630000Y2260000D02*
D03*
X1357500Y1952500D02*
D03*
X1892300Y2885931D02*
D03*
X962500Y1950000D02*
D03*
X3267500Y2907500D02*
D03*
X2445000Y2895000D02*
D03*
X2065000Y2900000D02*
D03*
X927500Y2902500D02*
D03*
X1685000Y2897500D02*
D03*
X540000Y3485000D02*
D03*
X1225000Y3637500D02*
D03*
X760000Y4132500D02*
D03*
X1552879Y3388321D02*
D03*
X1540000Y3472500D02*
D03*
X1815000Y3657500D02*
D03*
X1727942D02*
D03*
X1828800Y3281900D02*
D03*
X2580000Y1092500D02*
D03*
X3340000Y1110000D02*
D03*
X690000Y1857500D02*
D03*
Y2080000D02*
D03*
X685000Y1602500D02*
D03*
X1663700Y1199100D02*
D03*
X1308100D02*
D03*
X1838000Y2160800D02*
D03*
X2692400Y2545300D02*
D03*
X1769282Y3967700D02*
D03*
X1778000Y3815300D02*
D03*
X1498600Y3180300D02*
D03*
D41*
X2160900Y3652400D02*
D03*
X2270902D02*
D03*
X2380899D02*
D03*
X2160900Y3542402D02*
D03*
X2270902D02*
D03*
X2380899D02*
D03*
X2160900Y3432400D02*
D03*
X2270902D02*
D03*
X2380899D02*
D03*
D50*
X1915000Y780000D02*
D03*
X1795000D02*
D03*
X1672500Y3005000D02*
D03*
X1792500D02*
D03*
D51*
X1092500Y1950000D02*
D03*
X1242502D02*
D03*
D52*
X2470213Y2567500D02*
D03*
X2389787D02*
D03*
%TF.MD5,91af063472c3272dd74f422b10e581fc*%
M02*
