%TF.GenerationSoftware,Altium Limited,Altium Designer,22.11.1 (43)*%
G04 Layer_Color=255*
%FSLAX45Y45*%
%MOMM*%
%TF.SameCoordinates,F2FF868D-8EDF-4B6E-A412-4C3DA5591A8F*%
%TF.FilePolarity,Positive*%
%TF.FileFunction,Pads,Bot*%
%TF.Part,Single*%
G01*
G75*
%TA.AperFunction,SMDPad,CuDef*%
%ADD18R,0.66000X4.57200*%
%TA.AperFunction,ComponentPad*%
%ADD23C,3.00000*%
%ADD24R,2.75000X2.75000*%
%ADD25C,2.75000*%
D18*
X5238700Y9760000D02*
D03*
X7270700D02*
D03*
X7143700D02*
D03*
X7016700D02*
D03*
X6889700D02*
D03*
X6762700D02*
D03*
X6635700D02*
D03*
X6508700D02*
D03*
X6381700D02*
D03*
X6254700D02*
D03*
X6127700D02*
D03*
X6000700D02*
D03*
X5873700D02*
D03*
X5746700D02*
D03*
X5619700D02*
D03*
X5492700D02*
D03*
X5111700D02*
D03*
X4984700D02*
D03*
X4857700D02*
D03*
X4730700D02*
D03*
X4603700D02*
D03*
X4476700D02*
D03*
X4349700D02*
D03*
X4222700D02*
D03*
X4095700D02*
D03*
X3968700D02*
D03*
X3841700D02*
D03*
X3714700D02*
D03*
X3587700D02*
D03*
X3460700D02*
D03*
X3333700D02*
D03*
X3206700D02*
D03*
X3079700D02*
D03*
X2952700D02*
D03*
X2825700D02*
D03*
X2698700D02*
D03*
X2571700D02*
D03*
X2444700D02*
D03*
X2317700D02*
D03*
D23*
X5990000Y1720000D02*
D03*
X3570000D02*
D03*
X7090000D02*
D03*
D24*
X6200000Y2450000D02*
D03*
X3780000D02*
D03*
X7300000D02*
D03*
D25*
X5780000D02*
D03*
X3360000D02*
D03*
X6880000D02*
D03*
%TF.MD5,dcd2aa671d6fcabb0fde41f4d285ce6f*%
M02*
