%TF.GenerationSoftware,Altium Limited,Altium Designer,22.11.1 (43)*%
G04 Layer_Color=16711935*
%FSLAX45Y45*%
%MOMM*%
%TF.SameCoordinates,F2FF868D-8EDF-4B6E-A412-4C3DA5591A8F*%
%TF.FilePolarity,Positive*%
%TF.FileFunction,Other,Top_Assembly*%
%TF.Part,Single*%
G01*
G75*
%TA.AperFunction,NonConductor*%
%ADD38C,0.20000*%
G36*
X4573979Y5711495D02*
X4542174D01*
X4573979Y5679875D01*
Y5668318D01*
X4547999Y5695130D01*
X4509999Y5667116D01*
Y5678303D01*
X4542266Y5701048D01*
X4532189Y5711495D01*
X4509999D01*
Y5720001D01*
X4573979D01*
Y5711495D01*
D02*
G37*
G36*
X4558169Y5657131D02*
X4558354Y5656946D01*
X4558446Y5656576D01*
X4558723Y5656114D01*
X4559001Y5655559D01*
X4559371Y5654912D01*
X4560295Y5653340D01*
X4561312Y5651491D01*
X4562607Y5649642D01*
X4564086Y5647700D01*
X4565658Y5645759D01*
X4565750Y5645666D01*
X4565843Y5645574D01*
X4566120Y5645297D01*
X4566397Y5644927D01*
X4567322Y5644095D01*
X4568431Y5642985D01*
X4569726Y5641876D01*
X4571205Y5640674D01*
X4572684Y5639657D01*
X4574256Y5638732D01*
Y5633647D01*
X4509999D01*
Y5641506D01*
X4560018D01*
X4559925Y5641598D01*
X4559556Y5642061D01*
X4559001Y5642615D01*
X4558354Y5643540D01*
X4557521Y5644557D01*
X4556597Y5645851D01*
X4555580Y5647331D01*
X4554563Y5648995D01*
Y5649087D01*
X4554470Y5649180D01*
X4554101Y5649734D01*
X4553638Y5650659D01*
X4553084Y5651768D01*
X4552436Y5653063D01*
X4551789Y5654450D01*
X4551142Y5655837D01*
X4550587Y5657223D01*
X4558169D01*
Y5657131D01*
D02*
G37*
G36*
X6208289Y1861531D02*
X6209121Y1861439D01*
X6210138Y1861347D01*
X6211155Y1861254D01*
X6212357Y1860977D01*
X6214853Y1860422D01*
X6217627Y1859590D01*
X6219013Y1859035D01*
X6220308Y1858388D01*
X6221602Y1857556D01*
X6222897Y1856724D01*
X6222989Y1856631D01*
X6223174Y1856539D01*
X6223544Y1856261D01*
X6224006Y1855799D01*
X6224468Y1855337D01*
X6225116Y1854690D01*
X6225763Y1853950D01*
X6226502Y1853210D01*
X6227242Y1852286D01*
X6227982Y1851176D01*
X6228814Y1850067D01*
X6229553Y1848865D01*
X6230201Y1847478D01*
X6230940Y1846091D01*
X6231495Y1844612D01*
X6232050Y1842948D01*
X6223729Y1841006D01*
Y1841099D01*
X6223636Y1841284D01*
X6223451Y1841653D01*
X6223266Y1842116D01*
X6223082Y1842670D01*
X6222804Y1843410D01*
X6222065Y1844889D01*
X6221140Y1846554D01*
X6220030Y1848218D01*
X6218644Y1849790D01*
X6217164Y1851176D01*
X6216979Y1851361D01*
X6216425Y1851731D01*
X6215500Y1852193D01*
X6214298Y1852841D01*
X6212726Y1853395D01*
X6210970Y1853950D01*
X6208843Y1854320D01*
X6206532Y1854412D01*
X6205792D01*
X6205330Y1854320D01*
X6204683D01*
X6203943Y1854227D01*
X6202186Y1853950D01*
X6200245Y1853580D01*
X6198211Y1852933D01*
X6196084Y1852008D01*
X6194143Y1850807D01*
X6194050D01*
X6193958Y1850622D01*
X6193311Y1850159D01*
X6192479Y1849420D01*
X6191462Y1848310D01*
X6190260Y1846923D01*
X6189150Y1845352D01*
X6188133Y1843410D01*
X6187209Y1841284D01*
Y1841191D01*
X6187116Y1841006D01*
X6187024Y1840729D01*
X6186931Y1840267D01*
X6186746Y1839712D01*
X6186561Y1839065D01*
X6186284Y1837493D01*
X6185914Y1835644D01*
X6185544Y1833610D01*
X6185359Y1831391D01*
X6185267Y1828987D01*
Y1828894D01*
Y1828617D01*
Y1828155D01*
Y1827600D01*
X6185359Y1826953D01*
Y1826121D01*
X6185452Y1825196D01*
X6185544Y1824179D01*
X6185822Y1821960D01*
X6186284Y1819556D01*
X6186839Y1817153D01*
X6187578Y1814749D01*
Y1814656D01*
X6187671Y1814471D01*
X6187856Y1814194D01*
X6188041Y1813732D01*
X6188595Y1812622D01*
X6189428Y1811328D01*
X6190445Y1809849D01*
X6191739Y1808277D01*
X6193218Y1806890D01*
X6194975Y1805596D01*
X6195067D01*
X6195252Y1805503D01*
X6195530Y1805318D01*
X6195899Y1805133D01*
X6196362Y1804948D01*
X6196916Y1804671D01*
X6198211Y1804116D01*
X6199875Y1803562D01*
X6201724Y1803099D01*
X6203758Y1802729D01*
X6205885Y1802637D01*
X6206532D01*
X6207087Y1802729D01*
X6207734D01*
X6208381Y1802822D01*
X6210045Y1803192D01*
X6211987Y1803654D01*
X6213928Y1804394D01*
X6215962Y1805411D01*
X6216979Y1805965D01*
X6217904Y1806705D01*
X6217996Y1806798D01*
X6218089Y1806890D01*
X6218366Y1807167D01*
X6218736Y1807445D01*
X6219106Y1807907D01*
X6219568Y1808462D01*
X6220123Y1809016D01*
X6220585Y1809756D01*
X6221140Y1810588D01*
X6221787Y1811513D01*
X6222342Y1812437D01*
X6222897Y1813547D01*
X6223359Y1814749D01*
X6223821Y1816043D01*
X6224283Y1817430D01*
X6224653Y1818909D01*
X6233159Y1816783D01*
Y1816690D01*
X6233067Y1816320D01*
X6232882Y1815766D01*
X6232605Y1815026D01*
X6232327Y1814194D01*
X6231957Y1813177D01*
X6231495Y1812067D01*
X6230940Y1810866D01*
X6229646Y1808277D01*
X6227982Y1805688D01*
X6226965Y1804394D01*
X6225948Y1803099D01*
X6224838Y1801990D01*
X6223544Y1800880D01*
X6223451Y1800788D01*
X6223266Y1800603D01*
X6222804Y1800418D01*
X6222342Y1800048D01*
X6221602Y1799586D01*
X6220863Y1799124D01*
X6219846Y1798661D01*
X6218829Y1798199D01*
X6217627Y1797644D01*
X6216332Y1797182D01*
X6214945Y1796720D01*
X6213466Y1796258D01*
X6211894Y1795888D01*
X6210230Y1795703D01*
X6208473Y1795518D01*
X6206624Y1795425D01*
X6205607D01*
X6204868Y1795518D01*
X6204036D01*
X6203019Y1795610D01*
X6201909Y1795795D01*
X6200615Y1795980D01*
X6197934Y1796442D01*
X6195160Y1797182D01*
X6192386Y1798199D01*
X6191092Y1798846D01*
X6189797Y1799586D01*
X6189705Y1799678D01*
X6189520Y1799771D01*
X6189150Y1800048D01*
X6188780Y1800418D01*
X6188226Y1800788D01*
X6187578Y1801343D01*
X6186839Y1801990D01*
X6186099Y1802729D01*
X6185359Y1803562D01*
X6184527Y1804394D01*
X6182863Y1806520D01*
X6181291Y1809016D01*
X6179905Y1811790D01*
Y1811883D01*
X6179720Y1812160D01*
X6179627Y1812622D01*
X6179350Y1813177D01*
X6179165Y1813917D01*
X6178888Y1814841D01*
X6178518Y1815858D01*
X6178240Y1816968D01*
X6177963Y1818170D01*
X6177593Y1819556D01*
X6177131Y1822423D01*
X6176761Y1825659D01*
X6176576Y1828987D01*
Y1829079D01*
Y1829449D01*
Y1830004D01*
X6176669Y1830651D01*
Y1831576D01*
X6176761Y1832500D01*
X6176854Y1833702D01*
X6177038Y1834904D01*
X6177501Y1837585D01*
X6178148Y1840544D01*
X6179072Y1843503D01*
X6180367Y1846369D01*
X6180459Y1846461D01*
X6180552Y1846738D01*
X6180737Y1847108D01*
X6181107Y1847571D01*
X6181476Y1848218D01*
X6181939Y1848957D01*
X6183141Y1850622D01*
X6184712Y1852471D01*
X6186561Y1854320D01*
X6188688Y1856169D01*
X6191184Y1857741D01*
X6191277Y1857833D01*
X6191554Y1857926D01*
X6191924Y1858111D01*
X6192386Y1858388D01*
X6193126Y1858665D01*
X6193865Y1858943D01*
X6194790Y1859313D01*
X6195807Y1859682D01*
X6196916Y1860052D01*
X6198118Y1860422D01*
X6200707Y1860977D01*
X6203666Y1861439D01*
X6206717Y1861624D01*
X6207641D01*
X6208289Y1861531D01*
D02*
G37*
G36*
X6293995Y1796535D02*
X6285489D01*
Y1826676D01*
X6252390D01*
Y1796535D01*
X6243884D01*
Y1860514D01*
X6252390D01*
Y1834257D01*
X6285489D01*
Y1860514D01*
X6293995D01*
Y1796535D01*
D02*
G37*
G36*
X6051021D02*
X6042885D01*
Y1850067D01*
X6024209Y1796535D01*
X6016627D01*
X5998136Y1850991D01*
Y1796535D01*
X5990000D01*
Y1860514D01*
X6002666D01*
X6017829Y1815119D01*
Y1815026D01*
X6017922Y1814841D01*
X6018014Y1814564D01*
X6018199Y1814102D01*
X6018569Y1812992D01*
X6019031Y1811605D01*
X6019493Y1810033D01*
X6020048Y1808462D01*
X6020510Y1806982D01*
X6020880Y1805688D01*
X6020973Y1805873D01*
X6021065Y1806335D01*
X6021343Y1807167D01*
X6021712Y1808277D01*
X6022175Y1809756D01*
X6022822Y1811513D01*
X6023469Y1813547D01*
X6024301Y1815951D01*
X6039649Y1860514D01*
X6051021D01*
Y1796535D01*
D02*
G37*
G36*
X6334491D02*
X6326632D01*
Y1846554D01*
X6326540Y1846461D01*
X6326078Y1846091D01*
X6325523Y1845537D01*
X6324598Y1844889D01*
X6323581Y1844057D01*
X6322287Y1843133D01*
X6320808Y1842116D01*
X6319143Y1841099D01*
X6319051D01*
X6318958Y1841006D01*
X6318404Y1840636D01*
X6317479Y1840174D01*
X6316370Y1839619D01*
X6315075Y1838972D01*
X6313688Y1838325D01*
X6312302Y1837678D01*
X6310915Y1837123D01*
Y1844704D01*
X6311007D01*
X6311192Y1844889D01*
X6311562Y1844982D01*
X6312024Y1845259D01*
X6312579Y1845537D01*
X6313226Y1845906D01*
X6314798Y1846831D01*
X6316647Y1847848D01*
X6318496Y1849142D01*
X6320438Y1850622D01*
X6322379Y1852193D01*
X6322472Y1852286D01*
X6322564Y1852378D01*
X6322842Y1852656D01*
X6323211Y1852933D01*
X6324043Y1853858D01*
X6325153Y1854967D01*
X6326262Y1856261D01*
X6327464Y1857741D01*
X6328481Y1859220D01*
X6329406Y1860792D01*
X6334491D01*
Y1796535D01*
D02*
G37*
G36*
X6170289Y1852933D02*
X6149209D01*
Y1796535D01*
X6140703D01*
Y1852933D01*
X6119623D01*
Y1860514D01*
X6170289D01*
Y1852933D01*
D02*
G37*
G36*
X6117589Y1796535D02*
X6107974D01*
X6100485Y1815951D01*
X6073673D01*
X6066738Y1796535D01*
X6057770D01*
X6082179Y1860514D01*
X6091424D01*
X6117589Y1796535D01*
D02*
G37*
G36*
X3898958Y1795425D02*
X3890175D01*
X3856706Y1845629D01*
Y1795425D01*
X3848570D01*
Y1859405D01*
X3857261D01*
X3890822Y1809109D01*
Y1859405D01*
X3898958D01*
Y1795425D01*
D02*
G37*
G36*
X3833684D02*
X3825179D01*
Y1859405D01*
X3833684D01*
Y1795425D01*
D02*
G37*
G36*
X3790138Y1851824D02*
X3769058D01*
Y1795425D01*
X3760552D01*
Y1851824D01*
X3739472D01*
Y1859405D01*
X3790138D01*
Y1851824D01*
D02*
G37*
G36*
X3735496D02*
X3714416D01*
Y1795425D01*
X3705910D01*
Y1851824D01*
X3684830D01*
Y1859405D01*
X3735496D01*
Y1851824D01*
D02*
G37*
G36*
X3682796Y1795425D02*
X3673181D01*
X3665692Y1814841D01*
X3638880D01*
X3631945Y1795425D01*
X3622977D01*
X3647386Y1859405D01*
X3656631D01*
X3682796Y1795425D01*
D02*
G37*
G36*
X3595795Y1859313D02*
X3596535D01*
X3598199Y1859128D01*
X3600048Y1858943D01*
X3601990Y1858573D01*
X3603931Y1858111D01*
X3605688Y1857463D01*
X3605780D01*
X3605873Y1857371D01*
X3606428Y1857094D01*
X3607260Y1856631D01*
X3608184Y1855984D01*
X3609294Y1855152D01*
X3610496Y1854135D01*
X3611605Y1852841D01*
X3612622Y1851454D01*
X3612715Y1851269D01*
X3612992Y1850714D01*
X3613454Y1849974D01*
X3613917Y1848865D01*
X3614379Y1847571D01*
X3614841Y1846184D01*
X3615118Y1844612D01*
X3615211Y1843040D01*
Y1842855D01*
Y1842393D01*
X3615118Y1841561D01*
X3614934Y1840544D01*
X3614656Y1839342D01*
X3614194Y1838048D01*
X3613639Y1836753D01*
X3612900Y1835366D01*
X3612807Y1835181D01*
X3612530Y1834812D01*
X3611975Y1834072D01*
X3611235Y1833332D01*
X3610311Y1832408D01*
X3609201Y1831391D01*
X3607814Y1830466D01*
X3606243Y1829542D01*
X3606335D01*
X3606520Y1829449D01*
X3606797Y1829357D01*
X3607167Y1829172D01*
X3608277Y1828802D01*
X3609571Y1828155D01*
X3610958Y1827323D01*
X3612530Y1826306D01*
X3613917Y1825104D01*
X3615211Y1823624D01*
X3615303Y1823440D01*
X3615673Y1822885D01*
X3616228Y1822053D01*
X3616783Y1820943D01*
X3617337Y1819464D01*
X3617892Y1817892D01*
X3618262Y1816043D01*
X3618354Y1814009D01*
Y1813917D01*
Y1813824D01*
Y1813269D01*
X3618262Y1812345D01*
X3618077Y1811235D01*
X3617892Y1809941D01*
X3617522Y1808554D01*
X3617060Y1807075D01*
X3616413Y1805596D01*
X3616320Y1805411D01*
X3616043Y1804948D01*
X3615673Y1804301D01*
X3615118Y1803377D01*
X3614379Y1802452D01*
X3613639Y1801435D01*
X3612715Y1800418D01*
X3611698Y1799586D01*
X3611605Y1799493D01*
X3611235Y1799216D01*
X3610588Y1798846D01*
X3609756Y1798476D01*
X3608739Y1797922D01*
X3607537Y1797367D01*
X3606243Y1796905D01*
X3604671Y1796442D01*
X3604486D01*
X3603931Y1796258D01*
X3603007Y1796165D01*
X3601805Y1795980D01*
X3600326Y1795795D01*
X3598569Y1795610D01*
X3596627Y1795518D01*
X3594408Y1795425D01*
X3570000D01*
Y1859405D01*
X3595148D01*
X3595795Y1859313D01*
D02*
G37*
G36*
X7308289Y1861531D02*
X7309121Y1861439D01*
X7310138Y1861347D01*
X7311155Y1861254D01*
X7312357Y1860977D01*
X7314853Y1860422D01*
X7317627Y1859590D01*
X7319014Y1859035D01*
X7320308Y1858388D01*
X7321602Y1857556D01*
X7322897Y1856724D01*
X7322989Y1856631D01*
X7323174Y1856539D01*
X7323544Y1856261D01*
X7324006Y1855799D01*
X7324468Y1855337D01*
X7325116Y1854690D01*
X7325763Y1853950D01*
X7326502Y1853210D01*
X7327242Y1852286D01*
X7327982Y1851176D01*
X7328814Y1850067D01*
X7329554Y1848865D01*
X7330201Y1847478D01*
X7330940Y1846091D01*
X7331495Y1844612D01*
X7332050Y1842948D01*
X7323729Y1841006D01*
Y1841099D01*
X7323636Y1841284D01*
X7323451Y1841653D01*
X7323267Y1842116D01*
X7323082Y1842670D01*
X7322804Y1843410D01*
X7322065Y1844889D01*
X7321140Y1846554D01*
X7320031Y1848218D01*
X7318644Y1849790D01*
X7317164Y1851176D01*
X7316980Y1851361D01*
X7316425Y1851731D01*
X7315500Y1852193D01*
X7314298Y1852841D01*
X7312727Y1853395D01*
X7310970Y1853950D01*
X7308843Y1854320D01*
X7306532Y1854412D01*
X7305792D01*
X7305330Y1854320D01*
X7304683D01*
X7303943Y1854227D01*
X7302187Y1853950D01*
X7300245Y1853580D01*
X7298211Y1852933D01*
X7296084Y1852008D01*
X7294143Y1850807D01*
X7294050D01*
X7293958Y1850622D01*
X7293311Y1850159D01*
X7292479Y1849420D01*
X7291462Y1848310D01*
X7290260Y1846923D01*
X7289150Y1845352D01*
X7288133Y1843410D01*
X7287209Y1841284D01*
Y1841191D01*
X7287116Y1841006D01*
X7287024Y1840729D01*
X7286931Y1840267D01*
X7286746Y1839712D01*
X7286562Y1839065D01*
X7286284Y1837493D01*
X7285914Y1835644D01*
X7285544Y1833610D01*
X7285360Y1831391D01*
X7285267Y1828987D01*
Y1828894D01*
Y1828617D01*
Y1828155D01*
Y1827600D01*
X7285360Y1826953D01*
Y1826121D01*
X7285452Y1825196D01*
X7285544Y1824179D01*
X7285822Y1821960D01*
X7286284Y1819556D01*
X7286839Y1817153D01*
X7287579Y1814749D01*
Y1814656D01*
X7287671Y1814471D01*
X7287856Y1814194D01*
X7288041Y1813732D01*
X7288596Y1812622D01*
X7289428Y1811328D01*
X7290445Y1809849D01*
X7291739Y1808277D01*
X7293218Y1806890D01*
X7294975Y1805596D01*
X7295067D01*
X7295252Y1805503D01*
X7295530Y1805318D01*
X7295900Y1805133D01*
X7296362Y1804948D01*
X7296917Y1804671D01*
X7298211Y1804116D01*
X7299875Y1803562D01*
X7301724Y1803099D01*
X7303758Y1802729D01*
X7305885Y1802637D01*
X7306532D01*
X7307087Y1802729D01*
X7307734D01*
X7308381Y1802822D01*
X7310045Y1803192D01*
X7311987Y1803654D01*
X7313928Y1804394D01*
X7315963Y1805411D01*
X7316980Y1805965D01*
X7317904Y1806705D01*
X7317997Y1806798D01*
X7318089Y1806890D01*
X7318366Y1807167D01*
X7318736Y1807445D01*
X7319106Y1807907D01*
X7319568Y1808462D01*
X7320123Y1809016D01*
X7320585Y1809756D01*
X7321140Y1810588D01*
X7321787Y1811513D01*
X7322342Y1812437D01*
X7322897Y1813547D01*
X7323359Y1814749D01*
X7323821Y1816043D01*
X7324284Y1817430D01*
X7324653Y1818909D01*
X7333159Y1816783D01*
Y1816690D01*
X7333067Y1816320D01*
X7332882Y1815766D01*
X7332605Y1815026D01*
X7332327Y1814194D01*
X7331957Y1813177D01*
X7331495Y1812067D01*
X7330940Y1810866D01*
X7329646Y1808277D01*
X7327982Y1805688D01*
X7326965Y1804394D01*
X7325948Y1803099D01*
X7324838Y1801990D01*
X7323544Y1800880D01*
X7323451Y1800788D01*
X7323267Y1800603D01*
X7322804Y1800418D01*
X7322342Y1800048D01*
X7321602Y1799586D01*
X7320863Y1799124D01*
X7319846Y1798661D01*
X7318829Y1798199D01*
X7317627Y1797644D01*
X7316332Y1797182D01*
X7314945Y1796720D01*
X7313466Y1796258D01*
X7311894Y1795888D01*
X7310230Y1795703D01*
X7308474Y1795518D01*
X7306624Y1795425D01*
X7305607D01*
X7304868Y1795518D01*
X7304036D01*
X7303019Y1795610D01*
X7301909Y1795795D01*
X7300615Y1795980D01*
X7297934Y1796442D01*
X7295160Y1797182D01*
X7292386Y1798199D01*
X7291092Y1798846D01*
X7289797Y1799586D01*
X7289705Y1799678D01*
X7289520Y1799771D01*
X7289150Y1800048D01*
X7288780Y1800418D01*
X7288226Y1800788D01*
X7287579Y1801343D01*
X7286839Y1801990D01*
X7286099Y1802729D01*
X7285360Y1803562D01*
X7284527Y1804394D01*
X7282863Y1806520D01*
X7281292Y1809016D01*
X7279905Y1811790D01*
Y1811883D01*
X7279720Y1812160D01*
X7279627Y1812622D01*
X7279350Y1813177D01*
X7279165Y1813917D01*
X7278888Y1814841D01*
X7278518Y1815858D01*
X7278240Y1816968D01*
X7277963Y1818170D01*
X7277593Y1819556D01*
X7277131Y1822423D01*
X7276761Y1825659D01*
X7276576Y1828987D01*
Y1829079D01*
Y1829449D01*
Y1830004D01*
X7276669Y1830651D01*
Y1831576D01*
X7276761Y1832500D01*
X7276854Y1833702D01*
X7277039Y1834904D01*
X7277501Y1837585D01*
X7278148Y1840544D01*
X7279073Y1843503D01*
X7280367Y1846369D01*
X7280459Y1846461D01*
X7280552Y1846738D01*
X7280737Y1847108D01*
X7281107Y1847571D01*
X7281476Y1848218D01*
X7281939Y1848957D01*
X7283141Y1850622D01*
X7284712Y1852471D01*
X7286562Y1854320D01*
X7288688Y1856169D01*
X7291184Y1857741D01*
X7291277Y1857833D01*
X7291554Y1857926D01*
X7291924Y1858111D01*
X7292386Y1858388D01*
X7293126Y1858665D01*
X7293866Y1858943D01*
X7294790Y1859313D01*
X7295807Y1859682D01*
X7296917Y1860052D01*
X7298118Y1860422D01*
X7300707Y1860977D01*
X7303666Y1861439D01*
X7306717Y1861624D01*
X7307641D01*
X7308289Y1861531D01*
D02*
G37*
G36*
X7393995Y1796535D02*
X7385489D01*
Y1826676D01*
X7352390D01*
Y1796535D01*
X7343884D01*
Y1860514D01*
X7352390D01*
Y1834257D01*
X7385489D01*
Y1860514D01*
X7393995D01*
Y1796535D01*
D02*
G37*
G36*
X7151021D02*
X7142885D01*
Y1850067D01*
X7124209Y1796535D01*
X7116627D01*
X7098136Y1850991D01*
Y1796535D01*
X7090000D01*
Y1860514D01*
X7102667D01*
X7117829Y1815119D01*
Y1815026D01*
X7117922Y1814841D01*
X7118014Y1814564D01*
X7118199Y1814102D01*
X7118569Y1812992D01*
X7119031Y1811605D01*
X7119494Y1810033D01*
X7120048Y1808462D01*
X7120511Y1806982D01*
X7120880Y1805688D01*
X7120973Y1805873D01*
X7121065Y1806335D01*
X7121343Y1807167D01*
X7121712Y1808277D01*
X7122175Y1809756D01*
X7122822Y1811513D01*
X7123469Y1813547D01*
X7124301Y1815951D01*
X7139649Y1860514D01*
X7151021D01*
Y1796535D01*
D02*
G37*
G36*
X7427649Y1860699D02*
X7428389Y1860607D01*
X7429314Y1860514D01*
X7430331Y1860330D01*
X7431348Y1860145D01*
X7433751Y1859497D01*
X7436155Y1858573D01*
X7437357Y1858018D01*
X7438559Y1857371D01*
X7439669Y1856539D01*
X7440686Y1855614D01*
X7440778Y1855522D01*
X7440963Y1855429D01*
X7441148Y1855060D01*
X7441518Y1854690D01*
X7441980Y1854227D01*
X7442442Y1853580D01*
X7442905Y1852933D01*
X7443459Y1852101D01*
X7444384Y1850344D01*
X7445308Y1848125D01*
X7445678Y1847016D01*
X7445863Y1845721D01*
X7446048Y1844427D01*
X7446141Y1843040D01*
Y1842855D01*
Y1842393D01*
X7446048Y1841653D01*
X7445956Y1840636D01*
X7445771Y1839527D01*
X7445401Y1838233D01*
X7445031Y1836846D01*
X7444476Y1835459D01*
X7444384Y1835274D01*
X7444199Y1834812D01*
X7443829Y1834072D01*
X7443274Y1833055D01*
X7442535Y1831946D01*
X7441610Y1830559D01*
X7440501Y1829172D01*
X7439206Y1827600D01*
X7439021Y1827415D01*
X7438559Y1826860D01*
X7438097Y1826398D01*
X7437635Y1825936D01*
X7437080Y1825381D01*
X7436340Y1824642D01*
X7435601Y1823902D01*
X7434676Y1823070D01*
X7433751Y1822145D01*
X7432642Y1821128D01*
X7431440Y1820111D01*
X7430146Y1818909D01*
X7428666Y1817707D01*
X7427187Y1816413D01*
X7427095Y1816320D01*
X7426910Y1816136D01*
X7426540Y1815858D01*
X7426078Y1815488D01*
X7425523Y1814934D01*
X7424876Y1814379D01*
X7423396Y1813177D01*
X7421825Y1811790D01*
X7420345Y1810403D01*
X7419051Y1809201D01*
X7418496Y1808739D01*
X7418034Y1808277D01*
X7417941Y1808184D01*
X7417664Y1807907D01*
X7417294Y1807537D01*
X7416832Y1806982D01*
X7416370Y1806335D01*
X7415815Y1805688D01*
X7414706Y1804116D01*
X7446233D01*
Y1796535D01*
X7403796D01*
Y1796627D01*
Y1796997D01*
Y1797552D01*
X7403888Y1798292D01*
X7403981Y1799124D01*
X7404166Y1800048D01*
X7404350Y1800973D01*
X7404720Y1801990D01*
Y1802082D01*
X7404813Y1802175D01*
X7404998Y1802729D01*
X7405367Y1803562D01*
X7405922Y1804671D01*
X7406662Y1805965D01*
X7407586Y1807445D01*
X7408603Y1808924D01*
X7409898Y1810496D01*
Y1810588D01*
X7410083Y1810681D01*
X7410545Y1811235D01*
X7411377Y1812067D01*
X7412579Y1813269D01*
X7413966Y1814656D01*
X7415723Y1816320D01*
X7417849Y1818170D01*
X7420160Y1820111D01*
X7420253Y1820204D01*
X7420623Y1820481D01*
X7421177Y1820943D01*
X7421825Y1821498D01*
X7422657Y1822238D01*
X7423674Y1823070D01*
X7424691Y1823994D01*
X7425893Y1825011D01*
X7428204Y1827230D01*
X7430515Y1829449D01*
X7431625Y1830559D01*
X7432642Y1831668D01*
X7433567Y1832685D01*
X7434306Y1833702D01*
Y1833795D01*
X7434491Y1833887D01*
X7434676Y1834164D01*
X7434861Y1834534D01*
X7435508Y1835551D01*
X7436248Y1836753D01*
X7436895Y1838233D01*
X7437542Y1839804D01*
X7437912Y1841561D01*
X7438097Y1843225D01*
Y1843318D01*
Y1843410D01*
X7438004Y1843965D01*
X7437912Y1844889D01*
X7437635Y1845906D01*
X7437265Y1847201D01*
X7436618Y1848495D01*
X7435785Y1849790D01*
X7434676Y1851084D01*
X7434491Y1851269D01*
X7434029Y1851639D01*
X7433382Y1852101D01*
X7432365Y1852748D01*
X7431070Y1853303D01*
X7429591Y1853858D01*
X7427834Y1854227D01*
X7425893Y1854320D01*
X7425338D01*
X7424968Y1854227D01*
X7423859Y1854135D01*
X7422564Y1853858D01*
X7421177Y1853488D01*
X7419606Y1852841D01*
X7418126Y1852008D01*
X7416740Y1850899D01*
X7416555Y1850714D01*
X7416185Y1850252D01*
X7415630Y1849512D01*
X7415075Y1848403D01*
X7414428Y1847108D01*
X7413873Y1845444D01*
X7413504Y1843595D01*
X7413319Y1841469D01*
X7405275Y1842301D01*
Y1842393D01*
X7405367Y1842670D01*
Y1843133D01*
X7405460Y1843780D01*
X7405645Y1844520D01*
X7405830Y1845352D01*
X7406107Y1846369D01*
X7406384Y1847386D01*
X7407124Y1849605D01*
X7408234Y1851824D01*
X7408881Y1852933D01*
X7409713Y1854043D01*
X7410545Y1855060D01*
X7411470Y1855984D01*
X7411562Y1856077D01*
X7411747Y1856169D01*
X7412024Y1856446D01*
X7412487Y1856724D01*
X7413041Y1857094D01*
X7413688Y1857463D01*
X7414428Y1857926D01*
X7415353Y1858388D01*
X7416370Y1858850D01*
X7417479Y1859313D01*
X7418681Y1859682D01*
X7419976Y1860052D01*
X7421362Y1860330D01*
X7422842Y1860607D01*
X7424413Y1860699D01*
X7426078Y1860792D01*
X7427002D01*
X7427649Y1860699D01*
D02*
G37*
G36*
X7270289Y1852933D02*
X7249209D01*
Y1796535D01*
X7240703D01*
Y1852933D01*
X7219623D01*
Y1860514D01*
X7270289D01*
Y1852933D01*
D02*
G37*
G36*
X7217589Y1796535D02*
X7207974D01*
X7200485Y1815951D01*
X7173673D01*
X7166739Y1796535D01*
X7157770D01*
X7182179Y1860514D01*
X7191424D01*
X7217589Y1796535D01*
D02*
G37*
G36*
X7972478Y5771495D02*
X7940673D01*
X7972478Y5739875D01*
Y5728318D01*
X7946498Y5755130D01*
X7908499Y5727116D01*
Y5738303D01*
X7940766Y5761048D01*
X7930688Y5771495D01*
X7908499D01*
Y5780001D01*
X7972478D01*
Y5771495D01*
D02*
G37*
G36*
X7910255Y5724250D02*
X7911087Y5724158D01*
X7912012Y5723973D01*
X7912936Y5723788D01*
X7913953Y5723418D01*
X7914046D01*
X7914138Y5723326D01*
X7914693Y5723141D01*
X7915525Y5722771D01*
X7916635Y5722216D01*
X7917929Y5721476D01*
X7919408Y5720552D01*
X7920888Y5719535D01*
X7922459Y5718241D01*
X7922552D01*
X7922644Y5718056D01*
X7923199Y5717593D01*
X7924031Y5716761D01*
X7925233Y5715559D01*
X7926620Y5714172D01*
X7928284Y5712416D01*
X7930133Y5710289D01*
X7932075Y5707978D01*
X7932167Y5707885D01*
X7932445Y5707516D01*
X7932907Y5706961D01*
X7933462Y5706314D01*
X7934201Y5705482D01*
X7935033Y5704465D01*
X7935958Y5703448D01*
X7936975Y5702246D01*
X7939194Y5699934D01*
X7941413Y5697623D01*
X7942522Y5696513D01*
X7943632Y5695496D01*
X7944649Y5694572D01*
X7945666Y5693832D01*
X7945758D01*
X7945851Y5693647D01*
X7946128Y5693462D01*
X7946498Y5693277D01*
X7947515Y5692630D01*
X7948717Y5691891D01*
X7950196Y5691243D01*
X7951768Y5690596D01*
X7953525Y5690226D01*
X7955189Y5690041D01*
X7955281D01*
X7955374D01*
X7955928Y5690134D01*
X7956853Y5690226D01*
X7957870Y5690504D01*
X7959164Y5690874D01*
X7960459Y5691521D01*
X7961753Y5692353D01*
X7963048Y5693462D01*
X7963232Y5693647D01*
X7963602Y5694110D01*
X7964065Y5694757D01*
X7964712Y5695774D01*
X7965267Y5697068D01*
X7965821Y5698547D01*
X7966191Y5700304D01*
X7966284Y5702246D01*
Y5702800D01*
X7966191Y5703170D01*
X7966099Y5704280D01*
X7965821Y5705574D01*
X7965451Y5706961D01*
X7964804Y5708533D01*
X7963972Y5710012D01*
X7962863Y5711399D01*
X7962678Y5711584D01*
X7962215Y5711954D01*
X7961476Y5712508D01*
X7960366Y5713063D01*
X7959072Y5713710D01*
X7957408Y5714265D01*
X7955559Y5714635D01*
X7953432Y5714820D01*
X7954264Y5722863D01*
X7954357D01*
X7954634Y5722771D01*
X7955096D01*
X7955744Y5722678D01*
X7956483Y5722494D01*
X7957315Y5722309D01*
X7958332Y5722031D01*
X7959349Y5721754D01*
X7961568Y5721014D01*
X7963787Y5719905D01*
X7964897Y5719258D01*
X7966006Y5718425D01*
X7967023Y5717593D01*
X7967948Y5716669D01*
X7968040Y5716576D01*
X7968133Y5716391D01*
X7968410Y5716114D01*
X7968687Y5715652D01*
X7969057Y5715097D01*
X7969427Y5714450D01*
X7969889Y5713710D01*
X7970352Y5712786D01*
X7970814Y5711769D01*
X7971276Y5710659D01*
X7971646Y5709457D01*
X7972016Y5708163D01*
X7972293Y5706776D01*
X7972571Y5705297D01*
X7972663Y5703725D01*
X7972755Y5702061D01*
Y5701136D01*
X7972663Y5700489D01*
X7972571Y5699749D01*
X7972478Y5698825D01*
X7972293Y5697808D01*
X7972108Y5696791D01*
X7971461Y5694387D01*
X7970537Y5691983D01*
X7969982Y5690781D01*
X7969335Y5689579D01*
X7968502Y5688470D01*
X7967578Y5687453D01*
X7967485Y5687360D01*
X7967393Y5687175D01*
X7967023Y5686990D01*
X7966653Y5686621D01*
X7966191Y5686158D01*
X7965544Y5685696D01*
X7964897Y5685234D01*
X7964065Y5684679D01*
X7962308Y5683754D01*
X7960089Y5682830D01*
X7958980Y5682460D01*
X7957685Y5682275D01*
X7956391Y5682090D01*
X7955004Y5681998D01*
X7954819D01*
X7954357D01*
X7953617Y5682090D01*
X7952600Y5682183D01*
X7951491Y5682368D01*
X7950196Y5682737D01*
X7948809Y5683107D01*
X7947423Y5683662D01*
X7947238Y5683754D01*
X7946775Y5683939D01*
X7946036Y5684309D01*
X7945019Y5684864D01*
X7943909Y5685604D01*
X7942522Y5686528D01*
X7941136Y5687638D01*
X7939564Y5688932D01*
X7939379Y5689117D01*
X7938824Y5689579D01*
X7938362Y5690041D01*
X7937900Y5690504D01*
X7937345Y5691058D01*
X7936605Y5691798D01*
X7935866Y5692538D01*
X7935033Y5693462D01*
X7934109Y5694387D01*
X7933092Y5695496D01*
X7932075Y5696698D01*
X7930873Y5697993D01*
X7929671Y5699472D01*
X7928377Y5700951D01*
X7928284Y5701044D01*
X7928099Y5701229D01*
X7927822Y5701598D01*
X7927452Y5702061D01*
X7926897Y5702615D01*
X7926343Y5703263D01*
X7925141Y5704742D01*
X7923754Y5706314D01*
X7922367Y5707793D01*
X7921165Y5709087D01*
X7920703Y5709642D01*
X7920240Y5710104D01*
X7920148Y5710197D01*
X7919871Y5710474D01*
X7919501Y5710844D01*
X7918946Y5711306D01*
X7918299Y5711769D01*
X7917652Y5712323D01*
X7916080Y5713433D01*
Y5681905D01*
X7908499D01*
Y5724343D01*
X7908591D01*
X7908961D01*
X7909516D01*
X7910255Y5724250D01*
D02*
G37*
%LPC*%
G36*
X6086616Y1853858D02*
Y1853765D01*
X6086524Y1853580D01*
Y1853210D01*
X6086339Y1852841D01*
X6086247Y1852193D01*
X6086062Y1851546D01*
X6085692Y1849974D01*
X6085230Y1848125D01*
X6084582Y1846091D01*
X6083935Y1843872D01*
X6083103Y1841561D01*
X6076169Y1822885D01*
X6097804D01*
X6091147Y1840451D01*
Y1840544D01*
X6091054Y1840821D01*
X6090869Y1841284D01*
X6090685Y1841838D01*
X6090407Y1842486D01*
X6090130Y1843318D01*
X6089852Y1844242D01*
X6089483Y1845167D01*
X6088743Y1847293D01*
X6088003Y1849512D01*
X6087264Y1851731D01*
X6086616Y1853858D01*
D02*
G37*
G36*
X3651824Y1852748D02*
Y1852656D01*
X3651731Y1852471D01*
Y1852101D01*
X3651546Y1851731D01*
X3651454Y1851084D01*
X3651269Y1850437D01*
X3650899Y1848865D01*
X3650437Y1847016D01*
X3649789Y1844982D01*
X3649142Y1842763D01*
X3648310Y1840451D01*
X3641376Y1821775D01*
X3663011D01*
X3656354Y1839342D01*
Y1839434D01*
X3656261Y1839712D01*
X3656077Y1840174D01*
X3655892Y1840729D01*
X3655614Y1841376D01*
X3655337Y1842208D01*
X3655059Y1843133D01*
X3654690Y1844057D01*
X3653950Y1846184D01*
X3653210Y1848403D01*
X3652471Y1850622D01*
X3651824Y1852748D01*
D02*
G37*
G36*
X3593669Y1851824D02*
X3578506D01*
Y1832593D01*
X3594223D01*
X3595425Y1832685D01*
X3596720Y1832778D01*
X3598014Y1832870D01*
X3599309Y1833055D01*
X3600326Y1833240D01*
X3600510Y1833332D01*
X3600880Y1833425D01*
X3601435Y1833702D01*
X3602175Y1834072D01*
X3602914Y1834442D01*
X3603746Y1834997D01*
X3604579Y1835736D01*
X3605226Y1836476D01*
X3605318Y1836568D01*
X3605503Y1836846D01*
X3605780Y1837400D01*
X3606058Y1838048D01*
X3606335Y1838787D01*
X3606613Y1839712D01*
X3606797Y1840821D01*
X3606890Y1842023D01*
Y1842208D01*
Y1842578D01*
X3606797Y1843133D01*
X3606705Y1843872D01*
X3606520Y1844797D01*
X3606243Y1845721D01*
X3605873Y1846646D01*
X3605318Y1847571D01*
X3605226Y1847663D01*
X3605041Y1847940D01*
X3604671Y1848403D01*
X3604209Y1848865D01*
X3603561Y1849420D01*
X3602822Y1849974D01*
X3601897Y1850529D01*
X3600880Y1850899D01*
X3600788D01*
X3600326Y1851084D01*
X3599678Y1851176D01*
X3598661Y1851361D01*
X3597274Y1851546D01*
X3595703Y1851639D01*
X3593669Y1851824D01*
D02*
G37*
G36*
X3595333Y1825011D02*
X3578506D01*
Y1803007D01*
X3596720D01*
X3598661Y1803099D01*
X3599493Y1803192D01*
X3600233Y1803284D01*
X3600326D01*
X3600695Y1803377D01*
X3601250Y1803469D01*
X3601897Y1803654D01*
X3603469Y1804209D01*
X3605041Y1804948D01*
X3605133Y1805041D01*
X3605411Y1805226D01*
X3605780Y1805503D01*
X3606243Y1805873D01*
X3606705Y1806428D01*
X3607352Y1806982D01*
X3607814Y1807722D01*
X3608369Y1808554D01*
X3608462Y1808647D01*
X3608554Y1808924D01*
X3608739Y1809479D01*
X3609016Y1810126D01*
X3609294Y1810866D01*
X3609479Y1811790D01*
X3609571Y1812900D01*
X3609664Y1814009D01*
Y1814194D01*
Y1814564D01*
X3609571Y1815303D01*
X3609386Y1816136D01*
X3609201Y1817060D01*
X3608831Y1818077D01*
X3608369Y1819094D01*
X3607722Y1820111D01*
X3607630Y1820204D01*
X3607352Y1820573D01*
X3606982Y1821036D01*
X3606428Y1821590D01*
X3605688Y1822238D01*
X3604763Y1822885D01*
X3603746Y1823440D01*
X3602544Y1823902D01*
X3602360Y1823994D01*
X3601990Y1824087D01*
X3601158Y1824272D01*
X3600141Y1824457D01*
X3598846Y1824642D01*
X3597274Y1824826D01*
X3595333Y1825011D01*
D02*
G37*
G36*
X7186617Y1853858D02*
Y1853765D01*
X7186524Y1853580D01*
Y1853210D01*
X7186339Y1852841D01*
X7186247Y1852193D01*
X7186062Y1851546D01*
X7185692Y1849974D01*
X7185230Y1848125D01*
X7184583Y1846091D01*
X7183935Y1843872D01*
X7183103Y1841561D01*
X7176169Y1822885D01*
X7197804D01*
X7191147Y1840451D01*
Y1840544D01*
X7191054Y1840821D01*
X7190870Y1841284D01*
X7190685Y1841838D01*
X7190407Y1842486D01*
X7190130Y1843318D01*
X7189853Y1844242D01*
X7189483Y1845167D01*
X7188743Y1847293D01*
X7188003Y1849512D01*
X7187264Y1851731D01*
X7186617Y1853858D01*
D02*
G37*
%LPD*%
D38*
X4775000Y5254844D02*
Y6185156D01*
X4245000Y5254844D02*
X4775000D01*
X4245000D02*
Y6185156D01*
X4775000D01*
X5481000Y1031000D02*
Y2597500D01*
Y1031000D02*
X6499000D01*
Y2597500D01*
X5481000D02*
X6499000D01*
X3061000D02*
X4079000D01*
Y1031000D02*
Y2597500D01*
X3061000Y1031000D02*
X4079000D01*
X3061000D02*
Y2597500D01*
X6581000Y1031000D02*
Y2597500D01*
Y1031000D02*
X7599000D01*
Y2597500D01*
X6581000D02*
X7599000D01*
X8173500Y5314844D02*
Y6245156D01*
X7643500Y5314844D02*
X8173500D01*
X7643500D02*
Y6245156D01*
X8173500D01*
%TF.MD5,ad83577dad9d3ed57d97576b35c4aeb2*%
M02*
