%TF.GenerationSoftware,Altium Limited,Altium Designer,22.11.1 (43)*%
G04 Layer_Color=16711935*
%FSLAX45Y45*%
%MOMM*%
%TF.SameCoordinates,F2FF868D-8EDF-4B6E-A412-4C3DA5591A8F*%
%TF.FilePolarity,Positive*%
%TF.FileFunction,Other,Top_3D_Body*%
%TF.Part,Single*%
G01*
G75*
%TA.AperFunction,NonConductor*%
%ADD38C,0.20000*%
%ADD39C,0.12700*%
%ADD42C,0.10000*%
D38*
X8113200Y5203900D02*
G03*
X8113200Y5203900I-10000J0D01*
G01*
X4719700Y5223900D02*
G03*
X4719700Y5223900I-10000J0D01*
G01*
X4725000Y5500000D02*
Y5940000D01*
X4295000Y5500000D02*
X4725000D01*
X4295000D02*
Y5940000D01*
X4725000D01*
X5491000Y1041000D02*
Y2359000D01*
Y1041000D02*
X6489000D01*
Y2359000D01*
X5491000D02*
X6489000D01*
X3071000D02*
X4069000D01*
Y1041000D02*
Y2359000D01*
X3071000Y1041000D02*
X4069000D01*
X3071000D02*
Y2359000D01*
X6591000Y1041000D02*
Y2359000D01*
Y1041000D02*
X7589000D01*
Y2359000D01*
X6591000D02*
X7589000D01*
X8123500Y5560000D02*
Y6000000D01*
X7693500Y5560000D02*
X8123500D01*
X7693500D02*
Y6000000D01*
X8123500D01*
D39*
X7661000Y4603000D02*
X8146000D01*
X7661000Y4993000D02*
X8146000D01*
X7661000Y4603000D02*
Y4993000D01*
X8146000Y4603000D02*
Y4993000D01*
X4267500Y4623000D02*
X4752500D01*
X4267500Y5013000D02*
X4752500D01*
X4267500Y4623000D02*
Y5013000D01*
X4752500Y4623000D02*
Y5013000D01*
D42*
X4287500Y2765000D02*
X5284500D01*
X4287500Y1850500D02*
X5284500D01*
Y2765000D01*
X4287500Y1850500D02*
Y2765000D01*
X7687500Y2745000D02*
X8684500D01*
X7687500Y1830500D02*
X8684500D01*
Y2745000D01*
X7687500Y1830500D02*
Y2745000D01*
X8222500Y5540000D02*
X8437500D01*
X8222500Y5400000D02*
X8437500D01*
X8222500D02*
Y5540000D01*
X8437500Y5400000D02*
Y5540000D01*
X7742500Y4192500D02*
X8077500D01*
X7742500Y3547500D02*
X8077500D01*
Y4192500D01*
X7742500Y3547500D02*
Y4192500D01*
X5107500Y5370000D02*
Y5510000D01*
X4892500Y5370000D02*
Y5510000D01*
Y5370000D02*
X5107500D01*
X4892500Y5510000D02*
X5107500D01*
X4382500Y4242500D02*
X4717500D01*
X4382500Y3597500D02*
X4717500D01*
Y4242500D01*
X4382500Y3597500D02*
Y4242500D01*
X7970000Y6412500D02*
Y6627500D01*
X8110000Y6412500D02*
Y6627500D01*
X7970000Y6412500D02*
X8110000D01*
X7970000Y6627500D02*
X8110000D01*
X4540000Y6382500D02*
Y6597500D01*
X4680000Y6382500D02*
Y6597500D01*
X4540000Y6382500D02*
X4680000D01*
X4540000Y6597500D02*
X4680000D01*
%TF.MD5,99cb0d8e1a0655b59f61fcf532ca30cb*%
M02*
