%TF.GenerationSoftware,Altium Limited,Altium Designer,22.11.1 (43)*%
G04 Layer_Color=0*
%FSLAX45Y45*%
%MOMM*%
%TF.SameCoordinates,F2FF868D-8EDF-4B6E-A412-4C3DA5591A8F*%
%TF.FilePolarity,Positive*%
%TF.FileFunction,Plated,1,4,PTH,Drill*%
%TF.Part,Single*%
G01*
G75*
%TA.AperFunction,ComponentDrill*%
%ADD57C,1.80000*%
%TA.AperFunction,ViaDrill,NotFilled*%
%ADD58C,0.71100*%
%ADD59C,0.71120*%
%ADD60C,0.25400*%
%ADD61C,0.35600*%
D57*
X6200000Y2450000D02*
D03*
X5780000D02*
D03*
X3360000D02*
D03*
X3780000D02*
D03*
X7300000D02*
D03*
X6880000D02*
D03*
D58*
X8550000Y5030000D02*
D03*
D59*
X5250000Y5070000D02*
D03*
X7643500Y5314844D02*
D03*
X4170000Y5130000D02*
D03*
X7790000Y6390000D02*
D03*
X4390000Y6380000D02*
D03*
D60*
X7016700Y9410000D02*
D03*
X6254700D02*
D03*
X6000700D02*
D03*
X5873700D02*
D03*
X5746700D02*
D03*
X5238700D02*
D03*
X4984700D02*
D03*
X4730700D02*
D03*
X4476700D02*
D03*
X4349700D02*
D03*
X3460700D02*
D03*
X3206700D02*
D03*
X2952700D02*
D03*
X2698700D02*
D03*
X2317700D02*
D03*
D61*
X2444700Y9460000D02*
D03*
X2571700D02*
D03*
X7270700D02*
D03*
X7143700D02*
D03*
%TF.MD5,a82167ec554f2518a73ca6e5b06fa028*%
M02*
