%TF.GenerationSoftware,Altium Limited,Altium Designer,22.11.1 (43)*%
G04 Layer_Physical_Order=1*
G04 Layer_Color=39423*
%FSLAX45Y45*%
%MOMM*%
%TF.SameCoordinates,F2FF868D-8EDF-4B6E-A412-4C3DA5591A8F*%
%TF.FilePolarity,Positive*%
%TF.FileFunction,Copper,L1,Top,Signal*%
%TF.Part,Single*%
G01*
G75*
%TA.AperFunction,SMDPad,CuDef*%
%ADD10R,1.01600X3.50400*%
%ADD11R,10.49000X8.38000*%
%ADD12R,0.61213X2.00303*%
G04:AMPARAMS|DCode=13|XSize=2.00303mm|YSize=0.61213mm|CornerRadius=0.30606mm|HoleSize=0mm|Usage=FLASHONLY|Rotation=270.000|XOffset=0mm|YOffset=0mm|HoleType=Round|Shape=RoundedRectangle|*
%AMROUNDEDRECTD13*
21,1,2.00303,0.00000,0,0,270.0*
21,1,1.39090,0.61213,0,0,270.0*
1,1,0.61213,0.00000,-0.69545*
1,1,0.61213,0.00000,0.69545*
1,1,0.61213,0.00000,0.69545*
1,1,0.61213,0.00000,-0.69545*
%
%ADD13ROUNDEDRECTD13*%
G04:AMPARAMS|DCode=14|XSize=1.76mm|YSize=0.6mm|CornerRadius=0.075mm|HoleSize=0mm|Usage=FLASHONLY|Rotation=270.000|XOffset=0mm|YOffset=0mm|HoleType=Round|Shape=RoundedRectangle|*
%AMROUNDEDRECTD14*
21,1,1.76000,0.45000,0,0,270.0*
21,1,1.61000,0.60000,0,0,270.0*
1,1,0.15000,-0.22500,-0.80500*
1,1,0.15000,-0.22500,0.80500*
1,1,0.15000,0.22500,0.80500*
1,1,0.15000,0.22500,-0.80500*
%
%ADD14ROUNDEDRECTD14*%
%ADD15R,1.20000X1.40000*%
%ADD16R,3.35000X2.45000*%
%ADD17R,1.40000X1.20000*%
%ADD18R,0.66000X4.57200*%
%TA.AperFunction,Conductor*%
%ADD19C,0.29300*%
%ADD20C,4.00000*%
%ADD21C,0.50000*%
%TA.AperFunction,NonConductor*%
%ADD22C,0.25400*%
%TA.AperFunction,ComponentPad*%
%ADD23C,3.00000*%
%ADD24R,2.75000X2.75000*%
%ADD25C,2.75000*%
%TA.AperFunction,ViaPad*%
%ADD26C,1.27000*%
%ADD27C,0.44400*%
%ADD28C,0.63500*%
G36*
X2522308Y9230418D02*
X2526302D01*
Y9234413D01*
X2558256D01*
Y9238407D01*
X2586215D01*
Y9242401D01*
X2610180D01*
Y9246395D01*
X2614175D01*
Y9282343D01*
X2618169D01*
Y9310302D01*
X2622163D01*
Y9346250D01*
X2626157D01*
Y9386192D01*
X2630151D01*
Y9390186D01*
X2634145D01*
Y9378203D01*
X2638140D01*
Y9358232D01*
X2642134D01*
Y9318291D01*
X2646128D01*
Y9282343D01*
X2650122D01*
Y9258378D01*
X2654116D01*
Y9242401D01*
X2678082D01*
Y9238407D01*
X2706041D01*
Y9234413D01*
X2737994D01*
Y9230418D01*
X2777936D01*
Y9226424D01*
X2793913D01*
Y9218436D01*
X2785925D01*
Y9214442D01*
X2741988D01*
Y9210448D01*
X2710035D01*
Y9206454D01*
X2682076D01*
Y9202459D01*
X2654116D01*
Y9186483D01*
X2650122D01*
Y9162517D01*
X2646128D01*
Y9126570D01*
X2642134D01*
Y9086628D01*
X2638140D01*
Y9066657D01*
X2634145D01*
Y9054674D01*
X2630151D01*
Y9058668D01*
X2626157D01*
Y9098610D01*
X2622163D01*
Y9130564D01*
X2618169D01*
Y9162517D01*
X2614175D01*
Y9198465D01*
X2610180D01*
Y9202459D01*
X2582221D01*
Y9206454D01*
X2554262D01*
Y9210448D01*
X2522308D01*
Y9214442D01*
X2478372D01*
Y9218436D01*
X2470384D01*
Y9226424D01*
X2486361D01*
Y9230418D01*
X2518314D01*
X2522308D01*
D02*
G37*
G36*
X3968204Y8715168D02*
Y8719163D01*
X3964209D01*
Y8735140D01*
X3960215D01*
Y8739134D01*
X3944238D01*
Y8743128D01*
X3896308D01*
Y8747122D01*
X3888320D01*
Y8751116D01*
X3900302D01*
Y8755111D01*
X3924267D01*
Y8759105D01*
X3952227D01*
Y8763099D01*
X3964209D01*
Y8783070D01*
X3968204D01*
Y8819017D01*
X3972198D01*
Y8823012D01*
X3980186D01*
Y8807035D01*
X3984180D01*
Y8767093D01*
X3988174D01*
Y8763099D01*
X3996163D01*
Y8759105D01*
X4024122D01*
Y8755111D01*
X4052082D01*
Y8751116D01*
X4060070D01*
Y8747122D01*
X4056076D01*
Y8743128D01*
X4004151D01*
Y8739134D01*
X3988174D01*
Y8731145D01*
X3984180D01*
Y8691203D01*
X3980186D01*
Y8679221D01*
X3976192D01*
Y8675227D01*
X3972198D01*
Y8683215D01*
X3968204D01*
Y8711174D01*
Y8715168D01*
D02*
G37*
G36*
X7550988Y8231872D02*
X7554983D01*
Y8235866D01*
X7558977D01*
Y8239860D01*
X7562971D01*
Y8259831D01*
X7566965D01*
Y8295779D01*
X7570959D01*
Y8331727D01*
X7574954D01*
Y8339715D01*
X7578948D01*
Y8335721D01*
X7582942D01*
Y8319744D01*
X7586936D01*
Y8275808D01*
X7590930D01*
Y8247849D01*
X7594924D01*
Y8235866D01*
X7602913D01*
Y8231872D01*
X7626878D01*
Y8227878D01*
X7670814D01*
Y8223884D01*
X7702767D01*
Y8215895D01*
X7690785D01*
Y8211901D01*
X7670814D01*
Y8207907D01*
X7626878D01*
Y8203913D01*
X7602913D01*
Y8199919D01*
X7598919D01*
Y8195924D01*
X7594924D01*
Y8187936D01*
X7590930D01*
Y8159977D01*
X7586936D01*
Y8116041D01*
X7582942D01*
Y8100064D01*
X7578948D01*
Y8096070D01*
X7574954D01*
Y8104058D01*
X7570959D01*
Y8140006D01*
X7566965D01*
Y8175953D01*
X7562971D01*
Y8195924D01*
X7558977D01*
Y8199919D01*
X7554983D01*
Y8203913D01*
X7531017D01*
Y8207907D01*
X7487082D01*
Y8211901D01*
X7463116D01*
Y8215895D01*
X7455128D01*
Y8223884D01*
X7487082D01*
Y8227878D01*
X7527023D01*
Y8231872D01*
X7546994D01*
X7550988D01*
D02*
G37*
G36*
X6927895Y8958814D02*
X6919907D01*
Y8962808D01*
X6931890D01*
Y8958814D01*
X6927895D01*
D02*
G37*
D10*
X5040000Y3170000D02*
D03*
X4532000D02*
D03*
X8440000Y3150000D02*
D03*
X7932000D02*
D03*
D11*
X4786000Y2145000D02*
D03*
X8186000Y2125000D02*
D03*
D12*
X4637000Y6035004D02*
D03*
X8035500Y6095005D02*
D03*
D13*
X4383000Y6035004D02*
D03*
Y5404996D02*
D03*
X4637000D02*
D03*
X7781500Y6095005D02*
D03*
Y5464996D02*
D03*
X8035500D02*
D03*
D14*
X8094000Y4540000D02*
D03*
X7967000D02*
D03*
X7840000D02*
D03*
X7713000D02*
D03*
Y5056000D02*
D03*
X7840000D02*
D03*
X7967000D02*
D03*
X8094000D02*
D03*
X4700500Y4560000D02*
D03*
X4573500D02*
D03*
X4446500D02*
D03*
X4319500D02*
D03*
Y5076000D02*
D03*
X4446500D02*
D03*
X4573500D02*
D03*
X4700500D02*
D03*
D15*
X8240000Y5470000D02*
D03*
X8420000D02*
D03*
X5090000Y5440000D02*
D03*
X4910000D02*
D03*
D16*
X7910000Y4105000D02*
D03*
Y3635000D02*
D03*
X4550000Y4155000D02*
D03*
Y3685000D02*
D03*
D17*
X8040000Y6430000D02*
D03*
Y6610000D02*
D03*
X4610000Y6400000D02*
D03*
Y6580000D02*
D03*
D18*
X2317650Y9760000D02*
D03*
X2444650D02*
D03*
X2571650D02*
D03*
X2698650D02*
D03*
X2825650D02*
D03*
X2952650D02*
D03*
X3079650D02*
D03*
X3206650D02*
D03*
X3333650D02*
D03*
X3460650D02*
D03*
X3587650D02*
D03*
X3714650D02*
D03*
X3841650D02*
D03*
X3968650D02*
D03*
X4095650D02*
D03*
X4222650D02*
D03*
X4349650D02*
D03*
X4476650D02*
D03*
X4603650D02*
D03*
X4730650D02*
D03*
X4857650D02*
D03*
X4984650D02*
D03*
X5111650D02*
D03*
X5238650D02*
D03*
X5492650D02*
D03*
X5619650D02*
D03*
X5746650D02*
D03*
X5873650D02*
D03*
X6000650D02*
D03*
X6127650D02*
D03*
X6254650D02*
D03*
X6381650D02*
D03*
X6508650D02*
D03*
X6635650D02*
D03*
X6762650D02*
D03*
X6889650D02*
D03*
X7016650D02*
D03*
X7143650D02*
D03*
X7270650D02*
D03*
D19*
X8035500Y6425500D02*
X8040000Y6430000D01*
X8035500Y6095005D02*
Y6425500D01*
X6500000Y6610000D02*
X8040000D01*
X5619650Y7490350D02*
Y9760000D01*
Y7490350D02*
X6500000Y6610000D01*
X8094000Y5056000D02*
X8186000D01*
X4637000Y6035004D02*
Y6104549D01*
X4610000Y6131549D02*
Y6400000D01*
Y6131549D02*
X4637000Y6104549D01*
X4620000Y6580000D02*
X4665350Y6625350D01*
Y6635350D01*
X4610000Y6580000D02*
X4620000D01*
X4665350Y6635350D02*
X5492650Y7462650D01*
X4320787Y5135287D02*
X4535601Y5350101D01*
X4320787Y5077287D02*
Y5135287D01*
X4637000Y5364843D02*
Y5404996D01*
X4622258Y5350101D02*
X4637000Y5364843D01*
X4535601Y5350101D02*
X4622258D01*
X4651742Y5440000D02*
X4910000D01*
X4637000Y5425258D02*
X4651742Y5440000D01*
X4637000Y5404996D02*
Y5425258D01*
X4170000Y5130000D02*
X4173774D01*
X4383000Y5339226D02*
Y5404996D01*
X4173774Y5130000D02*
X4383000Y5339226D01*
X5492650Y7462650D02*
Y9760000D01*
X7643500Y5314844D02*
X7662194Y5333538D01*
X7719587D01*
X7781500Y5395451D01*
Y5464996D01*
X4915004Y5484996D02*
X4920000Y5480000D01*
X7713000Y5176652D02*
X7928904Y5392556D01*
X7713000Y5056000D02*
Y5176652D01*
X7928904Y5392556D02*
X8020758D01*
X8035500Y5407298D02*
Y5464996D01*
X8020758Y5392556D02*
X8035500Y5407298D01*
X8234996Y5464996D02*
X8240000Y5470000D01*
X8035500Y5464996D02*
X8234996D01*
X7785750Y6099255D02*
Y6385750D01*
X7790000Y6390000D01*
X7781500Y6095005D02*
X7785750Y6099255D01*
X4388000Y6115005D02*
X4389000Y6116005D01*
Y6379000D02*
X4390000Y6380000D01*
X4389000Y6116005D02*
Y6379000D01*
X6254675Y9410025D02*
Y9759975D01*
Y9410025D02*
X6254700Y9410000D01*
X6254650Y9760000D02*
X6254675Y9759975D01*
X6000675Y9410025D02*
X6000700Y9410000D01*
X6000650Y9760000D02*
X6000675Y9759975D01*
Y9410025D02*
Y9759975D01*
X5746675Y9410025D02*
X5746700Y9410000D01*
X5746650Y9760000D02*
X5746675Y9759975D01*
Y9410025D02*
Y9759975D01*
X4984675Y9410025D02*
Y9759975D01*
Y9410025D02*
X4984700Y9410000D01*
X4984650Y9760000D02*
X4984675Y9759975D01*
X4730675Y9410025D02*
Y9759975D01*
Y9410025D02*
X4730700Y9410000D01*
X4730650Y9760000D02*
X4730675Y9759975D01*
X4476675Y9410025D02*
Y9759975D01*
X4476650Y9760000D02*
X4476675Y9759975D01*
Y9410025D02*
X4476700Y9410000D01*
X4349650Y9760000D02*
X4349675Y9759975D01*
Y9410025D02*
Y9759975D01*
Y9410025D02*
X4349700Y9410000D01*
X3206675Y9410025D02*
Y9759975D01*
X3206650Y9760000D02*
X3206675Y9759975D01*
Y9410025D02*
X3206700Y9410000D01*
X2952675Y9410025D02*
X2952700Y9410000D01*
X2952650Y9760000D02*
X2952675Y9759975D01*
Y9410025D02*
Y9759975D01*
X2698675Y9410025D02*
Y9759975D01*
Y9410025D02*
X2698700Y9410000D01*
X2698650Y9760000D02*
X2698675Y9759975D01*
X2317650Y9760000D02*
X2317675Y9759975D01*
Y9410025D02*
Y9759975D01*
Y9410025D02*
X2317700Y9410000D01*
D20*
X7993000Y5030000D02*
X8550000D01*
Y5340000D01*
X4610000Y5070000D02*
X5250000D01*
X4446500Y4560000D02*
X4573500D01*
X4550000Y4155000D02*
Y4430000D01*
X5250000Y5070000D02*
Y5370000D01*
X7910000Y4105000D02*
Y4540000D01*
X4606000Y3150000D02*
X5114000D01*
X4606000Y3195000D02*
Y3629000D01*
X6200000Y2450000D02*
X6390000Y2260000D01*
X5824315Y1311185D02*
X6155685D01*
X4965500Y2170000D02*
X5824315Y1311185D01*
X6155685D02*
X6390000Y1545500D01*
Y2260000D01*
X4860000Y2170000D02*
X4965500D01*
X7932000Y3150000D02*
X8440000D01*
X7932000D02*
Y3613000D01*
X7830000Y1910000D02*
X8290000D01*
X7295000Y2445000D02*
X7830000Y1910000D01*
X8041000Y2344000D02*
X8260000Y2125000D01*
D21*
X2444675Y9460025D02*
X2444700Y9460000D01*
X2444675Y9460025D02*
Y9759975D01*
X2571675Y9460025D02*
Y9759975D01*
X2571650Y9760000D02*
X2571675Y9759975D01*
Y9460025D02*
X2571700Y9460000D01*
X2444650Y9760000D02*
X2444675Y9759975D01*
X7270675Y9460025D02*
Y9759975D01*
Y9460025D02*
X7270700Y9460000D01*
X7270650Y9760000D02*
X7270675Y9759975D01*
X7143675Y9460025D02*
Y9759975D01*
Y9460025D02*
X7143700Y9460000D01*
X7143650Y9760000D02*
X7143675Y9759975D01*
D22*
X9588500Y8580500D02*
G03*
X9088500Y9080500I-500000J0D01*
G01*
X500000D02*
G03*
X0Y8580500I0J-500000D01*
G01*
X9088500Y0D02*
G03*
X9588500Y500000I0J500000D01*
G01*
X7838500Y700000D02*
G03*
X7588500Y950000I-250000J0D01*
G01*
X7838500Y250000D02*
G03*
X8088500Y0I250000J0D01*
G01*
X2000000Y950000D02*
G03*
X1750000Y700000I0J-250000D01*
G01*
X1500000Y0D02*
G03*
X1750000Y250000I-0J250000D01*
G01*
X0Y500000D02*
G03*
X500000Y0I500000J0D01*
G01*
X9588500Y500000D02*
Y8580500D01*
X5411200Y10032300D02*
X5561200Y10132300D01*
X5411200Y9444500D02*
Y10032300D01*
X5320200Y9444500D02*
X5411200D01*
X5320200Y10032300D02*
X5320250Y9444500D01*
X5170200Y10132300D02*
X5320200Y10032300D01*
X2310200Y10132300D02*
X5170200D01*
X2160200Y9982500D02*
X2310200Y10132300D01*
X7278200D02*
X7428200Y9982500D01*
X500000Y9080500D02*
X2160200D01*
X5561200Y10132500D02*
X7278200D01*
X7428200Y9080500D02*
Y9982500D01*
X2160200D02*
X2160250Y9080500D01*
X7428200D02*
X9088500D01*
X8088500Y0D02*
X9088500D01*
X2000000Y950000D02*
X7588500D01*
X7838500Y250000D02*
Y700000D01*
X1750000Y250000D02*
Y700000D01*
X500000Y0D02*
X1500000D01*
X0Y500000D02*
Y8580500D01*
D23*
X5990000Y1720000D02*
D03*
X3570000D02*
D03*
X7090000D02*
D03*
D24*
X6200000Y2450000D02*
D03*
X3780000D02*
D03*
X7300000D02*
D03*
D25*
X5780000D02*
D03*
X3360000D02*
D03*
X6880000D02*
D03*
D26*
X8550000Y5030000D02*
D03*
X5250000Y5070000D02*
D03*
X7643500Y5314844D02*
D03*
X4170000Y5130000D02*
D03*
X7790000Y6390000D02*
D03*
X4390000Y6380000D02*
D03*
D27*
X7016700Y9410000D02*
D03*
X6254700D02*
D03*
X6000700D02*
D03*
X5873700D02*
D03*
X5746700D02*
D03*
X5238700D02*
D03*
X4984700D02*
D03*
X4730700D02*
D03*
X4476700D02*
D03*
X4349700D02*
D03*
X3460700D02*
D03*
X3206700D02*
D03*
X2952700D02*
D03*
X2698700D02*
D03*
X2317700D02*
D03*
D28*
X2444700Y9460000D02*
D03*
X2571700D02*
D03*
X7270700D02*
D03*
X7143700D02*
D03*
%TF.MD5,ec9d1c3adb4d9c6395c404cf06820a1d*%
M02*
