%TF.GenerationSoftware,Altium Limited,Altium Designer,22.11.1 (43)*%
G04 Layer_Color=8421504*
%FSLAX45Y45*%
%MOMM*%
%TF.SameCoordinates,F2FF868D-8EDF-4B6E-A412-4C3DA5591A8F*%
%TF.FilePolarity,Positive*%
%TF.FileFunction,Paste,Top*%
%TF.Part,Single*%
G01*
G75*
%TA.AperFunction,SMDPad,CuDef*%
%ADD10R,1.01600X3.50400*%
%ADD11R,10.49000X8.38000*%
%ADD12R,0.61213X2.00303*%
G04:AMPARAMS|DCode=13|XSize=2.00303mm|YSize=0.61213mm|CornerRadius=0.30606mm|HoleSize=0mm|Usage=FLASHONLY|Rotation=270.000|XOffset=0mm|YOffset=0mm|HoleType=Round|Shape=RoundedRectangle|*
%AMROUNDEDRECTD13*
21,1,2.00303,0.00000,0,0,270.0*
21,1,1.39090,0.61213,0,0,270.0*
1,1,0.61213,0.00000,-0.69545*
1,1,0.61213,0.00000,0.69545*
1,1,0.61213,0.00000,0.69545*
1,1,0.61213,0.00000,-0.69545*
%
%ADD13ROUNDEDRECTD13*%
G04:AMPARAMS|DCode=14|XSize=1.76mm|YSize=0.6mm|CornerRadius=0.075mm|HoleSize=0mm|Usage=FLASHONLY|Rotation=270.000|XOffset=0mm|YOffset=0mm|HoleType=Round|Shape=RoundedRectangle|*
%AMROUNDEDRECTD14*
21,1,1.76000,0.45000,0,0,270.0*
21,1,1.61000,0.60000,0,0,270.0*
1,1,0.15000,-0.22500,-0.80500*
1,1,0.15000,-0.22500,0.80500*
1,1,0.15000,0.22500,0.80500*
1,1,0.15000,0.22500,-0.80500*
%
%ADD14ROUNDEDRECTD14*%
%ADD15R,1.20000X1.40000*%
%ADD16R,3.35000X2.45000*%
%ADD17R,1.40000X1.20000*%
%ADD18R,0.66000X4.57200*%
D10*
X5040000Y3170000D02*
D03*
X4532000D02*
D03*
X8440000Y3150000D02*
D03*
X7932000D02*
D03*
D11*
X4786000Y2145000D02*
D03*
X8186000Y2125000D02*
D03*
D12*
X4637000Y6035004D02*
D03*
X8035500Y6095005D02*
D03*
D13*
X4383000Y6035004D02*
D03*
Y5404996D02*
D03*
X4637000D02*
D03*
X7781500Y6095005D02*
D03*
Y5464996D02*
D03*
X8035500D02*
D03*
D14*
X8094000Y4540000D02*
D03*
X7967000D02*
D03*
X7840000D02*
D03*
X7713000D02*
D03*
Y5056000D02*
D03*
X7840000D02*
D03*
X7967000D02*
D03*
X8094000D02*
D03*
X4700500Y4560000D02*
D03*
X4573500D02*
D03*
X4446500D02*
D03*
X4319500D02*
D03*
Y5076000D02*
D03*
X4446500D02*
D03*
X4573500D02*
D03*
X4700500D02*
D03*
D15*
X8240000Y5470000D02*
D03*
X8420000D02*
D03*
X5090000Y5440000D02*
D03*
X4910000D02*
D03*
D16*
X7910000Y4105000D02*
D03*
Y3635000D02*
D03*
X4550000Y4155000D02*
D03*
Y3685000D02*
D03*
D17*
X8040000Y6430000D02*
D03*
Y6610000D02*
D03*
X4610000Y6400000D02*
D03*
Y6580000D02*
D03*
D18*
X2317650Y9760000D02*
D03*
X2444650D02*
D03*
X2571650D02*
D03*
X2698650D02*
D03*
X2825650D02*
D03*
X2952650D02*
D03*
X3079650D02*
D03*
X3206650D02*
D03*
X3333650D02*
D03*
X3460650D02*
D03*
X3587650D02*
D03*
X3714650D02*
D03*
X3841650D02*
D03*
X3968650D02*
D03*
X4095650D02*
D03*
X4222650D02*
D03*
X4349650D02*
D03*
X4476650D02*
D03*
X4603650D02*
D03*
X4730650D02*
D03*
X4857650D02*
D03*
X4984650D02*
D03*
X5111650D02*
D03*
X5238650D02*
D03*
X5492650D02*
D03*
X5619650D02*
D03*
X5746650D02*
D03*
X5873650D02*
D03*
X6000650D02*
D03*
X6127650D02*
D03*
X6254650D02*
D03*
X6381650D02*
D03*
X6508650D02*
D03*
X6635650D02*
D03*
X6762650D02*
D03*
X6889650D02*
D03*
X7016650D02*
D03*
X7143650D02*
D03*
X7270650D02*
D03*
%TF.MD5,c31e9ffcb6fa4abc67fa9abcb3730bfe*%
M02*
