%TF.GenerationSoftware,Altium Limited,Altium Designer,22.11.1 (43)*%
G04 Layer_Color=65535*
%FSLAX45Y45*%
%MOMM*%
%TF.SameCoordinates,F2FF868D-8EDF-4B6E-A412-4C3DA5591A8F*%
%TF.FilePolarity,Positive*%
%TF.FileFunction,Legend,Top*%
%TF.Part,Single*%
G01*
G75*
%TA.AperFunction,NonConductor*%
%ADD22C,0.25400*%
%ADD36C,0.25000*%
%ADD37C,0.50000*%
%ADD38C,0.20000*%
%ADD39C,0.12700*%
%ADD40C,0.40000*%
%ADD41C,1.00000*%
%ADD42C,0.10000*%
%ADD43C,0.50800*%
G36*
X6887953Y8950825D02*
X6891948D01*
Y8946831D01*
X6875971D01*
Y8942837D01*
X6844018D01*
Y8938843D01*
X6832035D01*
Y8934849D01*
X6800081D01*
Y8930855D01*
X6784105D01*
Y8926860D01*
X6760140D01*
Y8922866D01*
X6736174D01*
Y8918872D01*
X6720198D01*
Y8914878D01*
X6696233D01*
Y8910884D01*
X6680256D01*
Y8906889D01*
X6652297D01*
Y8902895D01*
X6636320D01*
Y8898901D01*
X6616349D01*
Y8894907D01*
X6596378D01*
Y8890913D01*
X6580401D01*
Y8886918D01*
X6552442D01*
Y8882924D01*
X6544454D01*
Y8878930D01*
X6516494D01*
Y8874936D01*
X6500518D01*
Y8870942D01*
X6484541D01*
Y8866947D01*
X6460576D01*
Y8862953D01*
X6448593D01*
Y8858959D01*
X6420634D01*
Y8854965D01*
X6408651D01*
Y8850971D01*
X6388680D01*
Y8846977D01*
X6368709D01*
Y8842983D01*
X6356727D01*
Y8838988D01*
X6332762D01*
Y8834994D01*
X6320779D01*
Y8831000D01*
X6296814D01*
Y8827006D01*
X6280837D01*
Y8823012D01*
X6264860D01*
Y8819017D01*
X6244889D01*
Y8815023D01*
X6232907D01*
Y8811029D01*
X6208942D01*
Y8807035D01*
X6196959D01*
Y8803041D01*
X6180983D01*
Y8799046D01*
X6161012D01*
Y8795052D01*
X6149029D01*
Y8791058D01*
X6125064D01*
Y8787064D01*
X6113082D01*
Y8783070D01*
X6093110D01*
Y8779075D01*
X6081128D01*
Y8775081D01*
X6065151D01*
Y8771087D01*
X6045180D01*
Y8767093D01*
X6037192D01*
Y8763099D01*
X6013227D01*
Y8759105D01*
X6001244D01*
Y8755111D01*
X5985267D01*
Y8751116D01*
X5969291D01*
Y8747122D01*
X5957308D01*
Y8743128D01*
X5937337D01*
Y8739134D01*
X5925355D01*
Y8735140D01*
X5909378D01*
Y8731145D01*
X5897395D01*
Y8727151D01*
X5881419D01*
Y8723157D01*
X5861448D01*
Y8719163D01*
X5849465D01*
Y8715168D01*
X5833488D01*
Y8711174D01*
X5821506D01*
Y8707180D01*
X5805529D01*
Y8703186D01*
X5789552D01*
Y8699192D01*
X5777570D01*
Y8695197D01*
X5761593D01*
Y8691203D01*
X5749611D01*
Y8687209D01*
X5733634D01*
Y8683215D01*
X5721651D01*
Y8679221D01*
X5705674D01*
Y8675227D01*
X5689698D01*
Y8671233D01*
X5681709D01*
Y8667238D01*
X5661738D01*
Y8663244D01*
X5653750D01*
Y8659250D01*
X5637773D01*
Y8655256D01*
X5625791D01*
Y8651262D01*
X5613808D01*
Y8647267D01*
X5593837D01*
Y8643273D01*
X5585849D01*
Y8639279D01*
X5565878D01*
Y8635285D01*
X5557890D01*
Y8631291D01*
X5545907D01*
Y8627296D01*
X5529930D01*
Y8623302D01*
X5521942D01*
Y8619308D01*
X5505965D01*
Y8615314D01*
X5493983D01*
Y8611320D01*
X5482000D01*
Y8607325D01*
X5466023D01*
Y8603331D01*
X5458035D01*
Y8599337D01*
X5438064D01*
Y8595343D01*
X5430076D01*
Y8591349D01*
X5414099D01*
Y8587355D01*
X5406111D01*
Y8583360D01*
X5394128D01*
Y8579366D01*
X5382145D01*
Y8575372D01*
X5374157D01*
Y8571378D01*
X5354186D01*
Y8567384D01*
X5346198D01*
Y8563390D01*
X5334215D01*
Y8559395D01*
X5318239D01*
Y8555401D01*
X5310250D01*
Y8551407D01*
X5294273D01*
Y8547413D01*
X5286285D01*
Y8543419D01*
X5274302D01*
Y8539424D01*
X5262320D01*
Y8535430D01*
X5254331D01*
Y8531436D01*
X5238355D01*
Y8527442D01*
X5230366D01*
Y8523448D01*
X5214390D01*
Y8519453D01*
X5206401D01*
Y8515459D01*
X5194419D01*
Y8511465D01*
X5182436D01*
Y8507471D01*
X5174448D01*
Y8503477D01*
X5162465D01*
Y8499482D01*
X5154477D01*
Y8495488D01*
X5138500D01*
Y8491494D01*
X5130512D01*
Y8487500D01*
X5118529D01*
Y8483506D01*
X5106547D01*
Y8479512D01*
X5098558D01*
Y8475517D01*
X5082581D01*
Y8471523D01*
X5074593D01*
Y8467529D01*
X5066605D01*
Y8463535D01*
X5054622D01*
Y8459541D01*
X5046634D01*
Y8455546D01*
X5030657D01*
Y8451552D01*
X5026663D01*
Y8447558D01*
X5010686D01*
Y8443564D01*
X5006692D01*
Y8439570D01*
X4994709D01*
Y8435575D01*
X4982727D01*
Y8431581D01*
X4974738D01*
Y8427587D01*
X4962756D01*
Y8423593D01*
X4954768D01*
Y8419599D01*
X4942785D01*
Y8415604D01*
X4934797D01*
Y8411610D01*
X4926808D01*
Y8407616D01*
X4914826D01*
Y8403622D01*
X4906837D01*
Y8399628D01*
X4894855D01*
Y8395634D01*
X4886866D01*
Y8391640D01*
X4878878D01*
Y8387645D01*
X4866896D01*
Y8383651D01*
X4858907D01*
Y8379657D01*
X4846925D01*
Y8375663D01*
X4838936D01*
Y8371669D01*
X4826954D01*
Y8367674D01*
X4818965D01*
Y8363680D01*
X4814971D01*
Y8359686D01*
X4798994D01*
Y8355692D01*
X4795000D01*
Y8351698D01*
X4779023D01*
Y8347703D01*
X4775029D01*
Y8339715D01*
X4783018D01*
Y8335721D01*
X4787012D01*
Y8339715D01*
X4978733D01*
Y8335721D01*
X5086576D01*
Y8331727D01*
X5222378D01*
Y8327732D01*
X5278297D01*
Y8323738D01*
X5354186D01*
Y8319744D01*
X5410105D01*
Y8315750D01*
X5450047D01*
Y8311756D01*
X5513954D01*
Y8307762D01*
X5545907D01*
Y8303767D01*
X5601826D01*
Y8299773D01*
X5633779D01*
Y8295779D01*
X5669727D01*
Y8291785D01*
X5709669D01*
Y8287791D01*
X5737628D01*
Y8283796D01*
X5781564D01*
Y8279802D01*
X5805529D01*
Y8275808D01*
X5841477D01*
Y8271814D01*
X5873430D01*
Y8267820D01*
X5893401D01*
Y8263825D01*
X5929349D01*
Y8259831D01*
X5949320D01*
Y8255837D01*
X5985267D01*
Y8251843D01*
X6005238D01*
Y8247849D01*
X6029204D01*
Y8243854D01*
X6061157D01*
Y8239860D01*
X6081128D01*
Y8235866D01*
X6113082D01*
Y8231872D01*
X6129058D01*
Y8227878D01*
X6157017D01*
Y8223884D01*
X6176988D01*
Y8219889D01*
X6196959D01*
Y8215895D01*
X6224919D01*
Y8211901D01*
X6240895D01*
Y8207907D01*
X6268855D01*
Y8203913D01*
X6284831D01*
Y8199919D01*
X6304802D01*
Y8195924D01*
X6332762D01*
Y8191930D01*
X6344744D01*
Y8187936D01*
X6368709D01*
Y8183942D01*
X6384686D01*
Y8179948D01*
X6408651D01*
Y8175953D01*
X6424628D01*
Y8171959D01*
X6440605D01*
Y8167965D01*
X6464570D01*
Y8163971D01*
X6476552D01*
Y8159977D01*
X6500518D01*
Y8155982D01*
X6516494D01*
Y8151988D01*
X6532471D01*
Y8147994D01*
X6552442D01*
Y8144000D01*
X6564425D01*
Y8140006D01*
X6588390D01*
Y8136012D01*
X6600372D01*
Y8132017D01*
X6620343D01*
Y8128023D01*
X6636320D01*
Y8124029D01*
X6648302D01*
Y8120035D01*
X6668273D01*
Y8116041D01*
X6680256D01*
Y8112047D01*
X6700227D01*
Y8108052D01*
X6712209D01*
Y8104058D01*
X6728186D01*
Y8100064D01*
X6748157D01*
Y8096070D01*
X6760140D01*
Y8092076D01*
X6776116D01*
Y8088081D01*
X6788099D01*
Y8084087D01*
X6804076D01*
Y8080093D01*
X6820052D01*
Y8076099D01*
X6832035D01*
Y8072105D01*
X6852006D01*
Y8068110D01*
X6859994D01*
Y8064116D01*
X6879965D01*
Y8060122D01*
X6891948D01*
Y8056128D01*
X6903930D01*
Y8052134D01*
X6919907D01*
Y8048139D01*
X6931890D01*
Y8044145D01*
X6951861D01*
Y8040151D01*
X6959849D01*
Y8036157D01*
X6975826D01*
Y8032163D01*
X6987808D01*
Y8028169D01*
X6999791D01*
Y8024174D01*
X7015768D01*
Y8020180D01*
X7027750D01*
Y8016186D01*
X7043727D01*
Y8012192D01*
X7051715D01*
Y8008198D01*
X7063698D01*
Y8004203D01*
X7079674D01*
Y8000209D01*
X7087663D01*
Y7996215D01*
X7107634D01*
Y7992221D01*
X7115622D01*
Y7988227D01*
X7131599D01*
Y7984232D01*
X7143581D01*
Y7980238D01*
X7151570D01*
Y7976244D01*
X7167546D01*
Y7972250D01*
X7175535D01*
Y7968256D01*
X7191512D01*
Y7964261D01*
X7199500D01*
Y7960267D01*
X7211483D01*
Y7956273D01*
X7227459D01*
Y7952279D01*
X7235448D01*
Y7948285D01*
X7251424D01*
Y7944291D01*
X7259413D01*
Y7940297D01*
X7271395D01*
Y7936302D01*
X7283378D01*
Y7932308D01*
X7291366D01*
Y7928314D01*
X7307343D01*
Y7924320D01*
X7315332D01*
Y7920326D01*
X7331308D01*
Y7916331D01*
X7339296D01*
Y7912337D01*
X7351279D01*
Y7908343D01*
X7363262D01*
Y7904349D01*
X7371250D01*
Y7900355D01*
X7387227D01*
Y7896360D01*
X7391221D01*
Y7892366D01*
X7407198D01*
Y7888372D01*
X7419180D01*
Y7884378D01*
X7427169D01*
Y7880384D01*
X7439151D01*
Y7876389D01*
X7447140D01*
Y7872395D01*
X7459122D01*
Y7868401D01*
X7467111D01*
Y7864407D01*
X7479093D01*
Y7860413D01*
X7491076D01*
Y7856419D01*
X7499064D01*
Y7852424D01*
X7511046D01*
Y7848430D01*
X7519035D01*
Y7844436D01*
X7531017D01*
Y7840442D01*
X7539006D01*
Y7836448D01*
X7550988D01*
Y7832453D01*
X7562971D01*
Y7828459D01*
X7566965D01*
Y7824465D01*
X7582942D01*
Y7820471D01*
X7590930D01*
Y7816477D01*
X7598919D01*
Y7812482D01*
X7610901D01*
Y7808488D01*
X7614895D01*
Y7804494D01*
X7630872D01*
Y7800500D01*
X7638861D01*
Y7796506D01*
X7650843D01*
Y7792511D01*
X7658832D01*
Y7788517D01*
X7666820D01*
Y7784523D01*
X7678802D01*
Y7780529D01*
X7682797D01*
Y7776535D01*
X7698773D01*
Y7772541D01*
X7702767D01*
Y7768546D01*
X7714750D01*
Y7764552D01*
X7722738D01*
Y7760558D01*
X7730727D01*
Y7756564D01*
X7742709D01*
Y7752570D01*
X7750698D01*
Y7748576D01*
X7758686D01*
Y7744581D01*
X7766675D01*
Y7740587D01*
X7774663D01*
Y7736593D01*
X7786645D01*
Y7732599D01*
X7794634D01*
Y7728605D01*
X7806616D01*
Y7724610D01*
X7810610D01*
Y7720616D01*
X7822593D01*
Y7716622D01*
X7830581D01*
Y7712628D01*
X7838570D01*
Y7708634D01*
X7850552D01*
Y7704639D01*
X7854547D01*
Y7700645D01*
X7866529D01*
Y7696651D01*
X7874517D01*
Y7692657D01*
X7878512D01*
Y7688663D01*
X7890494D01*
Y7684668D01*
X7898483D01*
Y7680674D01*
X7906471D01*
Y7676680D01*
X7914459D01*
Y7672686D01*
X7922448D01*
Y7668692D01*
X7934430D01*
Y7664698D01*
X7938425D01*
Y7660703D01*
X7950407D01*
Y7656709D01*
X7954401D01*
Y7652715D01*
X7966384D01*
Y7648721D01*
X7974372D01*
Y7644727D01*
X7978366D01*
Y7640732D01*
X7990349D01*
Y7636738D01*
X7998337D01*
Y7632744D01*
X8006326D01*
Y7628750D01*
X8014314D01*
Y7624756D01*
X8022302D01*
Y7620761D01*
X8030291D01*
Y7616767D01*
X8034285D01*
Y7612773D01*
X8046267D01*
Y7608779D01*
X8050262D01*
Y7604785D01*
X8062244D01*
Y7600791D01*
X8070233D01*
Y7596796D01*
X8074227D01*
Y7592802D01*
X8086209D01*
Y7588808D01*
X8090204D01*
Y7584814D01*
X8102186D01*
Y7580820D01*
X8106180D01*
Y7576826D01*
X8114169D01*
Y7572831D01*
X8122157D01*
Y7568837D01*
X8130145D01*
Y7564843D01*
X8138134D01*
Y7560849D01*
X8142128D01*
Y7556855D01*
X8154110D01*
Y7552860D01*
X8158105D01*
Y7548866D01*
X8166093D01*
Y7544872D01*
X8174081D01*
Y7540878D01*
X8182070D01*
Y7536884D01*
X8190058D01*
Y7532889D01*
X8198047D01*
Y7528895D01*
X8206035D01*
Y7524901D01*
X8210029D01*
Y7508924D01*
X7199500D01*
Y7512918D01*
X7195506D01*
Y7516913D01*
X7183523D01*
Y7520907D01*
X7175535D01*
Y7524901D01*
X7167546D01*
Y7528895D01*
X7159558D01*
Y7532889D01*
X7151570D01*
Y7536884D01*
X7143581D01*
Y7540878D01*
X7139587D01*
Y7544872D01*
X7127605D01*
Y7548866D01*
X7119616D01*
Y7552860D01*
X7111628D01*
Y7556855D01*
X7099645D01*
Y7560849D01*
X7095651D01*
Y7564843D01*
X7083669D01*
Y7568837D01*
X7075680D01*
Y7572831D01*
X7067692D01*
Y7576826D01*
X7059703D01*
Y7580820D01*
X7051715D01*
Y7584814D01*
X7039733D01*
Y7588808D01*
X7035739D01*
Y7592802D01*
X7023756D01*
Y7596796D01*
X7015768D01*
Y7600791D01*
X7007779D01*
Y7604785D01*
X6995797D01*
Y7608779D01*
X6991802D01*
Y7612773D01*
X6979820D01*
Y7616767D01*
X6971831D01*
Y7620761D01*
X6963843D01*
Y7624756D01*
X6951861D01*
Y7628750D01*
X6943872D01*
Y7632744D01*
X6931890D01*
Y7636738D01*
X6927895D01*
Y7640732D01*
X6915913D01*
Y7644727D01*
X6903930D01*
Y7648721D01*
X6895942D01*
Y7652715D01*
X6883959D01*
Y7656709D01*
X6879965D01*
Y7660703D01*
X6867983D01*
Y7664698D01*
X6859994D01*
Y7668692D01*
X6848012D01*
Y7672686D01*
X6836029D01*
Y7676680D01*
X6832035D01*
Y7680674D01*
X6820052D01*
Y7684668D01*
X6812064D01*
Y7688663D01*
X6796087D01*
Y7692657D01*
X6788099D01*
Y7696651D01*
X6780111D01*
Y7700645D01*
X6768128D01*
Y7704639D01*
X6760140D01*
Y7708634D01*
X6744163D01*
Y7712628D01*
X6740169D01*
Y7716622D01*
X6728186D01*
Y7720616D01*
X6716203D01*
Y7724610D01*
X6708215D01*
Y7728605D01*
X6692238D01*
Y7732599D01*
X6688244D01*
Y7736593D01*
X6672268D01*
Y7740587D01*
X6664279D01*
Y7744581D01*
X6652297D01*
Y7748576D01*
X6640314D01*
Y7752570D01*
X6632326D01*
Y7756564D01*
X6616349D01*
Y7760558D01*
X6608360D01*
Y7764552D01*
X6596378D01*
Y7768546D01*
X6584396D01*
Y7772541D01*
X6576407D01*
Y7776535D01*
X6560430D01*
Y7780529D01*
X6552442D01*
Y7784523D01*
X6536465D01*
Y7788517D01*
X6528477D01*
Y7792511D01*
X6516494D01*
Y7796506D01*
X6504512D01*
Y7800500D01*
X6496523D01*
Y7804494D01*
X6476552D01*
Y7808488D01*
X6468564D01*
Y7812482D01*
X6456581D01*
Y7816477D01*
X6444599D01*
Y7820471D01*
X6436610D01*
Y7824465D01*
X6416640D01*
Y7828459D01*
X6408651D01*
Y7832453D01*
X6392675D01*
Y7836448D01*
X6380692D01*
Y7840442D01*
X6368709D01*
Y7844436D01*
X6352733D01*
Y7848430D01*
X6344744D01*
Y7852424D01*
X6328767D01*
Y7856419D01*
X6316785D01*
Y7860413D01*
X6304802D01*
Y7864407D01*
X6288826D01*
Y7868401D01*
X6276843D01*
Y7872395D01*
X6260866D01*
Y7876389D01*
X6252878D01*
Y7880384D01*
X6236901D01*
Y7884378D01*
X6224919D01*
Y7888372D01*
X6208942D01*
Y7892366D01*
X6192965D01*
Y7896360D01*
X6180983D01*
Y7900355D01*
X6161012D01*
Y7904349D01*
X6153023D01*
Y7908343D01*
X6133053D01*
Y7912337D01*
X6117076D01*
Y7916331D01*
X6105093D01*
Y7920326D01*
X6085122D01*
Y7924320D01*
X6073139D01*
Y7928314D01*
X6053169D01*
Y7932308D01*
X6041186D01*
Y7936302D01*
X6029204D01*
Y7940297D01*
X6009233D01*
Y7944291D01*
X5997250D01*
Y7948285D01*
X5977279D01*
Y7952279D01*
X5965297D01*
Y7956273D01*
X5945326D01*
Y7960267D01*
X5929349D01*
Y7964261D01*
X5913372D01*
Y7968256D01*
X5889407D01*
Y7972250D01*
X5877424D01*
Y7976244D01*
X5853459D01*
Y7980238D01*
X5841477D01*
Y7984232D01*
X5825500D01*
Y7988227D01*
X5805529D01*
Y7992221D01*
X5789552D01*
Y7996215D01*
X5765587D01*
Y8000209D01*
X5753605D01*
Y8004203D01*
X5733634D01*
Y8008198D01*
X5713663D01*
Y8012192D01*
X5701680D01*
Y8016186D01*
X5677715D01*
Y8020180D01*
X5661738D01*
Y8024174D01*
X5633779D01*
Y8028169D01*
X5621796D01*
Y8032163D01*
X5601826D01*
Y8036157D01*
X5577861D01*
Y8040151D01*
X5561884D01*
Y8044145D01*
X5529930D01*
Y8048139D01*
X5513954D01*
Y8052134D01*
X5485994D01*
Y8056128D01*
X5462029D01*
Y8060122D01*
X5446052D01*
Y8064116D01*
X5410105D01*
Y8068110D01*
X5394128D01*
Y8072105D01*
X5358180D01*
Y8076099D01*
X5334215D01*
Y8080093D01*
X5310250D01*
Y8084087D01*
X5278297D01*
Y8088081D01*
X5258326D01*
Y8092076D01*
X5222378D01*
Y8096070D01*
X5194419D01*
Y8100064D01*
X5150483D01*
Y8104058D01*
X5118529D01*
Y8108052D01*
X5094564D01*
Y8112047D01*
X5046634D01*
Y8116041D01*
X5018674D01*
Y8120035D01*
X4962756D01*
Y8124029D01*
X4926808D01*
Y8128023D01*
X4886866D01*
Y8132017D01*
X4822959D01*
Y8136012D01*
X4779023D01*
Y8140006D01*
X4699140D01*
Y8144000D01*
X4647215D01*
Y8147994D01*
X4535378D01*
Y8151988D01*
X4387593D01*
Y8147994D01*
X4379605D01*
Y8144000D01*
X4371616D01*
Y8140006D01*
X4363628D01*
Y8136012D01*
X4359634D01*
Y8132017D01*
X4351645D01*
Y8128023D01*
X4343657D01*
Y8124029D01*
X4339663D01*
Y8120035D01*
X4331675D01*
Y8116041D01*
X4323686D01*
Y8112047D01*
X4315698D01*
Y8108052D01*
X4311704D01*
Y8104058D01*
X4303715D01*
Y8100064D01*
X4299721D01*
Y8096070D01*
X4291733D01*
Y8092076D01*
X4283744D01*
Y8088081D01*
X4279750D01*
Y8084087D01*
X4271762D01*
Y8080093D01*
X4263773D01*
Y8076099D01*
X4259779D01*
Y8072105D01*
X4251791D01*
Y8068110D01*
X4247797D01*
Y8064116D01*
X4239808D01*
Y8060122D01*
X4235814D01*
Y8056128D01*
X4227826D01*
Y8052134D01*
X4223832D01*
Y8048139D01*
X4219837D01*
Y8044145D01*
X4207855D01*
Y8040151D01*
X4203861D01*
Y8036157D01*
X4199866D01*
Y8032163D01*
X4191878D01*
Y8028169D01*
X4187884D01*
Y8024174D01*
X4179895D01*
Y8020180D01*
X4175901D01*
Y8016186D01*
X4167913D01*
Y8012192D01*
X4163919D01*
Y8008198D01*
X4159924D01*
Y8004203D01*
X4151936D01*
Y8000209D01*
X4147942D01*
Y7996215D01*
X4139954D01*
Y7992221D01*
X4135959D01*
Y7988227D01*
X4131965D01*
Y7984232D01*
X4123977D01*
Y7980238D01*
X4119983D01*
Y7976244D01*
X4111994D01*
Y7972250D01*
X4108000D01*
Y7968256D01*
X4104006D01*
Y7964261D01*
X4096017D01*
Y7960267D01*
X4092023D01*
Y7956273D01*
X4084035D01*
Y7952279D01*
X4080041D01*
Y7948285D01*
X4076046D01*
Y7944291D01*
X4072052D01*
Y7940297D01*
X4064064D01*
Y7936302D01*
X4060070D01*
Y7932308D01*
X4056076D01*
Y7928314D01*
X4052082D01*
Y7924320D01*
X4044093D01*
Y7920326D01*
X4040099D01*
Y7916331D01*
X4036105D01*
Y7912337D01*
X4028116D01*
Y7908343D01*
X4024122D01*
Y7904349D01*
X4020128D01*
Y7900355D01*
X4016134D01*
Y7896360D01*
X4012140D01*
Y7892366D01*
X4008145D01*
Y7888372D01*
X4000157D01*
Y7884378D01*
X3996163D01*
Y7880384D01*
X3992169D01*
Y7876389D01*
X3988174D01*
Y7872395D01*
X3980186D01*
Y7868401D01*
X3976192D01*
Y7864407D01*
X3972198D01*
Y7860413D01*
X3968204D01*
Y7856419D01*
X3964209D01*
Y7852424D01*
X3960215D01*
Y7848430D01*
X3956221D01*
Y7844436D01*
X3952227D01*
Y7840442D01*
X3948233D01*
Y7836448D01*
X3944238D01*
Y7832453D01*
X3936250D01*
Y7824465D01*
X3928262D01*
Y7820471D01*
X3924267D01*
Y7816477D01*
X3920273D01*
Y7812482D01*
X3916279D01*
Y7808488D01*
X3912285D01*
Y7804494D01*
X3908291D01*
Y7800500D01*
X3904296D01*
Y7796506D01*
X3900302D01*
Y7792511D01*
X3896308D01*
Y7788517D01*
X3892314D01*
Y7784523D01*
X3888320D01*
Y7780529D01*
X3884326D01*
Y7776535D01*
X3880332D01*
Y7772541D01*
X3876337D01*
Y7768546D01*
X3872343D01*
Y7764552D01*
X3868349D01*
Y7760558D01*
X3864355D01*
Y7756564D01*
X3860361D01*
Y7752570D01*
X3856366D01*
Y7748576D01*
X3852372D01*
Y7744581D01*
X3848378D01*
Y7740587D01*
X3844384D01*
Y7736593D01*
X3840390D01*
Y7728605D01*
X3836395D01*
Y7724610D01*
X3832401D01*
Y7720616D01*
X3828407D01*
Y7716622D01*
X3824413D01*
Y7712628D01*
X3820419D01*
Y7708634D01*
X3816424D01*
Y7704639D01*
X3812430D01*
Y7700645D01*
X3808436D01*
Y7696651D01*
X3804442D01*
Y7688663D01*
X3800448D01*
Y7684668D01*
X3796454D01*
Y7680674D01*
X3792459D01*
Y7672686D01*
X3788465D01*
Y7668692D01*
X3784471D01*
Y7664698D01*
X3780477D01*
Y7660703D01*
X3776483D01*
Y7652715D01*
X3772489D01*
Y7648721D01*
X3768494D01*
Y7644727D01*
X3764500D01*
Y7636738D01*
X3760506D01*
Y7632744D01*
X3756512D01*
Y7628750D01*
X3752518D01*
Y7620761D01*
X3748523D01*
Y7616767D01*
X3744529D01*
Y7608779D01*
X3740535D01*
Y7604785D01*
X3736541D01*
Y7596796D01*
X3732547D01*
Y7592802D01*
X3728552D01*
Y7588808D01*
X3724558D01*
Y7580820D01*
X3720564D01*
Y7576826D01*
X3716570D01*
Y7568837D01*
X3712576D01*
Y7564843D01*
X3708581D01*
Y7552860D01*
X3704587D01*
Y7548866D01*
X3700593D01*
Y7540878D01*
X3696599D01*
Y7532889D01*
X3692605D01*
Y7528895D01*
X3688611D01*
Y7520907D01*
X3684616D01*
Y7516913D01*
X3676628D01*
Y7512918D01*
X3081494D01*
Y7516913D01*
X3077500D01*
Y7520907D01*
X3081494D01*
Y7528895D01*
X3085488D01*
Y7536884D01*
X3089483D01*
Y7540878D01*
X3093477D01*
Y7552860D01*
X3097471D01*
Y7556855D01*
X3101465D01*
Y7560849D01*
X3105459D01*
Y7568837D01*
X3109454D01*
Y7576826D01*
X3113448D01*
Y7584814D01*
X3117442D01*
Y7588808D01*
X3121436D01*
Y7592802D01*
X3125430D01*
Y7600791D01*
X3129425D01*
Y7604785D01*
X3133419D01*
Y7612773D01*
X3137413D01*
Y7616767D01*
X3141407D01*
Y7624756D01*
X3145401D01*
Y7628750D01*
X3149396D01*
Y7632744D01*
X3153390D01*
Y7640732D01*
X3157384D01*
Y7644727D01*
X3161378D01*
Y7648721D01*
X3165372D01*
Y7652715D01*
X3169366D01*
Y7660703D01*
X3173360D01*
Y7664698D01*
X3177355D01*
Y7668692D01*
X3181349D01*
Y7676680D01*
X3185343D01*
Y7680674D01*
X3189337D01*
Y7684668D01*
X3193331D01*
Y7688663D01*
X3197326D01*
Y7692657D01*
X3201320D01*
Y7700645D01*
X3205314D01*
Y7704639D01*
X3209308D01*
Y7708634D01*
X3213302D01*
Y7712628D01*
X3217297D01*
Y7716622D01*
X3221291D01*
Y7720616D01*
X3225285D01*
Y7724610D01*
X3229279D01*
Y7728605D01*
X3233273D01*
Y7732599D01*
X3237268D01*
Y7740587D01*
X3241262D01*
Y7744581D01*
X3245256D01*
Y7748576D01*
X3249250D01*
Y7752570D01*
X3253244D01*
Y7756564D01*
X3257238D01*
Y7760558D01*
X3261233D01*
Y7764552D01*
X3265227D01*
Y7768546D01*
X3269221D01*
Y7772541D01*
X3273215D01*
Y7776535D01*
X3277209D01*
Y7780529D01*
X3281203D01*
Y7784523D01*
X3285198D01*
Y7788517D01*
X3289192D01*
Y7792511D01*
X3293186D01*
Y7796506D01*
X3301174D01*
Y7800500D01*
X3305169D01*
Y7804494D01*
X3309163D01*
Y7808488D01*
X3313157D01*
Y7812482D01*
X3317151D01*
Y7816477D01*
X3321146D01*
Y7820471D01*
X3325140D01*
Y7824465D01*
X3329134D01*
Y7828459D01*
X3333128D01*
Y7832453D01*
X3337122D01*
Y7836448D01*
X3341116D01*
Y7840442D01*
X3345111D01*
Y7844436D01*
X3353099D01*
Y7848430D01*
X3357093D01*
Y7852424D01*
X3361087D01*
Y7856419D01*
X3365081D01*
Y7860413D01*
X3369076D01*
Y7864407D01*
X3377064D01*
Y7868401D01*
X3381058D01*
Y7872395D01*
X3385052D01*
Y7876389D01*
X3389047D01*
Y7880384D01*
X3393041D01*
Y7884378D01*
X3401029D01*
Y7888372D01*
X3405023D01*
Y7892366D01*
X3409018D01*
Y7896360D01*
X3413012D01*
Y7900355D01*
X3421000D01*
Y7904349D01*
X3424994D01*
Y7908343D01*
X3428988D01*
Y7912337D01*
X3436977D01*
Y7916331D01*
X3440971D01*
Y7920326D01*
X3444965D01*
Y7924320D01*
X3448959D01*
Y7928314D01*
X3456948D01*
Y7932308D01*
X3460942D01*
Y7936302D01*
X3464936D01*
Y7940297D01*
X3472924D01*
Y7944291D01*
X3476919D01*
Y7948285D01*
X3484907D01*
Y7952279D01*
X3488901D01*
Y7956273D01*
X3492895D01*
Y7960267D01*
X3500884D01*
Y7964261D01*
X3504878D01*
Y7968256D01*
X3512866D01*
Y7972250D01*
X3516861D01*
Y7976244D01*
X3524849D01*
Y7980238D01*
X3528843D01*
Y7984232D01*
X3536831D01*
Y7988227D01*
X3540826D01*
Y7992221D01*
X3544820D01*
Y7996215D01*
X3552808D01*
Y8000209D01*
X3556802D01*
Y8004203D01*
X3564791D01*
Y8008198D01*
X3568785D01*
Y8012192D01*
X3576773D01*
Y8016186D01*
X3584762D01*
Y8020180D01*
X3588756D01*
Y8024174D01*
X3596744D01*
Y8028169D01*
X3600739D01*
Y8032163D01*
X3608727D01*
Y8036157D01*
X3616715D01*
Y8040151D01*
X3620709D01*
Y8044145D01*
X3628698D01*
Y8048139D01*
X3632692D01*
Y8052134D01*
X3640680D01*
Y8056128D01*
X3648669D01*
Y8060122D01*
X3652663D01*
Y8064116D01*
X3660651D01*
Y8068110D01*
X3664645D01*
Y8072105D01*
X3672634D01*
Y8076099D01*
X3680622D01*
Y8080093D01*
X3688611D01*
Y8084087D01*
X3696599D01*
Y8088081D01*
X3700593D01*
Y8092076D01*
X3708581D01*
Y8096070D01*
X3716570D01*
Y8100064D01*
X3720564D01*
Y8104058D01*
X3728552D01*
Y8108052D01*
X3736541D01*
Y8112047D01*
X3744529D01*
Y8116041D01*
X3748523D01*
Y8120035D01*
X3760506D01*
Y8124029D01*
X3764500D01*
Y8128023D01*
X3760506D01*
Y8132017D01*
X3744529D01*
Y8128023D01*
X3708581D01*
Y8124029D01*
X3676628D01*
Y8120035D01*
X3624703D01*
Y8116041D01*
X3600739D01*
Y8112047D01*
X3556802D01*
Y8108052D01*
X3532837D01*
Y8104058D01*
X3500884D01*
Y8100064D01*
X3468930D01*
Y8096070D01*
X3448959D01*
Y8092076D01*
X3405023D01*
Y8088081D01*
X3385052D01*
Y8084087D01*
X3357093D01*
Y8080093D01*
X3333128D01*
Y8076099D01*
X3313157D01*
Y8072105D01*
X3281203D01*
Y8068110D01*
X3265227D01*
Y8064116D01*
X3233273D01*
Y8060122D01*
X3217297D01*
Y8056128D01*
X3197326D01*
Y8052134D01*
X3173360D01*
Y8048139D01*
X3157384D01*
Y8044145D01*
X3133419D01*
Y8040151D01*
X3113448D01*
Y8036157D01*
X3089483D01*
Y8032163D01*
X3069512D01*
Y8028169D01*
X3053535D01*
Y8024174D01*
X3033564D01*
Y8020180D01*
X3017587D01*
Y8016186D01*
X2993622D01*
Y8012192D01*
X2981640D01*
Y8008198D01*
X2961669D01*
Y8004203D01*
X2941698D01*
Y8000209D01*
X2929715D01*
Y7996215D01*
X2905750D01*
Y7992221D01*
X2893767D01*
Y7988227D01*
X2873797D01*
Y7984232D01*
X2857820D01*
Y7980238D01*
X2845837D01*
Y7976244D01*
X2825866D01*
Y7972250D01*
X2813884D01*
Y7968256D01*
X2793913D01*
Y7964261D01*
X2781930D01*
Y7960267D01*
X2765954D01*
Y7956273D01*
X2749977D01*
Y7952279D01*
X2737994D01*
Y7948285D01*
X2714029D01*
Y7944291D01*
X2706041D01*
Y7940297D01*
X2690064D01*
Y7936302D01*
X2678082D01*
Y7932308D01*
X2666099D01*
Y7928314D01*
X2646128D01*
Y7924320D01*
X2638140D01*
Y7920326D01*
X2618169D01*
Y7916331D01*
X2610180D01*
Y7912337D01*
X2594204D01*
Y7908343D01*
X2578227D01*
Y7904349D01*
X2570238D01*
Y7900355D01*
X2550267D01*
Y7896360D01*
X2542279D01*
Y7892366D01*
X2526302D01*
Y7888372D01*
X2514320D01*
Y7884378D01*
X2506332D01*
Y7880384D01*
X2490355D01*
Y7876389D01*
X2482366D01*
Y7872395D01*
X2462395D01*
Y7868401D01*
X2454407D01*
Y7864407D01*
X2442424D01*
Y7860413D01*
X2426448D01*
Y7856419D01*
X2418459D01*
Y7852424D01*
X2402483D01*
Y7848430D01*
X2394494D01*
Y7844436D01*
X2378517D01*
Y7840442D01*
X2366535D01*
Y7836448D01*
X2358546D01*
Y7832453D01*
X2346564D01*
Y7828459D01*
X2338576D01*
Y7824465D01*
X2322599D01*
Y7820471D01*
X2314611D01*
Y7816477D01*
X2302628D01*
Y7812482D01*
X2290645D01*
Y7808488D01*
X2282657D01*
Y7804494D01*
X2266680D01*
Y7800500D01*
X2258692D01*
Y7796506D01*
X2242715D01*
Y7792511D01*
X2234727D01*
Y7788517D01*
X2226738D01*
Y7784523D01*
X2210762D01*
Y7780529D01*
X2206767D01*
Y7776535D01*
X2190791D01*
Y7772541D01*
X2182802D01*
Y7768546D01*
X2174814D01*
Y7764552D01*
X2162832D01*
Y7760558D01*
X2154843D01*
Y7756564D01*
X2138866D01*
Y7752570D01*
X2134872D01*
Y7748576D01*
X2118895D01*
Y7744581D01*
X2110907D01*
Y7740587D01*
X2102919D01*
Y7736593D01*
X2090936D01*
Y7732599D01*
X2082948D01*
Y7728605D01*
X2066971D01*
Y7724610D01*
X2062977D01*
Y7720616D01*
X2050994D01*
Y7716622D01*
X2043006D01*
Y7712628D01*
X2035018D01*
Y7708634D01*
X2023035D01*
Y7704639D01*
X2015047D01*
Y7700645D01*
X2003064D01*
Y7696651D01*
X1995076D01*
Y7692657D01*
X1987087D01*
Y7688663D01*
X1975105D01*
Y7684668D01*
X1971111D01*
Y7680674D01*
X1955134D01*
Y7676680D01*
X1951140D01*
Y7672686D01*
X1939157D01*
Y7668692D01*
X1931169D01*
Y7664698D01*
X1923180D01*
Y7660703D01*
X1911198D01*
Y7656709D01*
X1903209D01*
Y7652715D01*
X1895221D01*
Y7648721D01*
X1887233D01*
Y7644727D01*
X1879244D01*
Y7640732D01*
X1867262D01*
Y7636738D01*
X1863268D01*
Y7632744D01*
X1851285D01*
Y7628750D01*
X1843297D01*
Y7624756D01*
X1835308D01*
Y7620761D01*
X1827320D01*
Y7616767D01*
X1819331D01*
Y7612773D01*
X1807349D01*
Y7608779D01*
X1803355D01*
Y7604785D01*
X1791372D01*
Y7600791D01*
X1783384D01*
Y7596796D01*
X1775395D01*
Y7592802D01*
X1767407D01*
Y7588808D01*
X1759419D01*
Y7584814D01*
X1747436D01*
Y7580820D01*
X1743442D01*
Y7576826D01*
X1735453D01*
Y7572831D01*
X1727465D01*
Y7568837D01*
X1719477D01*
Y7564843D01*
X1711488D01*
Y7560849D01*
X1703500D01*
Y7556855D01*
X1695512D01*
Y7552860D01*
X1687523D01*
Y7548866D01*
X1679535D01*
Y7544872D01*
X1671547D01*
Y7540878D01*
X1667552D01*
Y7536884D01*
X1655570D01*
Y7532889D01*
X1647581D01*
Y7528895D01*
X1639593D01*
Y7524901D01*
X1631605D01*
Y7520907D01*
X1627611D01*
Y7516913D01*
X1615628D01*
Y7512918D01*
X1611634D01*
Y7508924D01*
X1511779D01*
Y7524901D01*
X1519768D01*
Y7528895D01*
X1527756D01*
Y7532889D01*
X1531750D01*
Y7536884D01*
X1539738D01*
Y7540878D01*
X1547727D01*
Y7544872D01*
X1555715D01*
Y7548866D01*
X1559709D01*
Y7552860D01*
X1567698D01*
Y7556855D01*
X1575686D01*
Y7560849D01*
X1583675D01*
Y7564843D01*
X1591663D01*
Y7568837D01*
X1599651D01*
Y7572831D01*
X1607640D01*
Y7576826D01*
X1615628D01*
Y7580820D01*
X1619622D01*
Y7584814D01*
X1631605D01*
Y7588808D01*
X1635599D01*
Y7592802D01*
X1643587D01*
Y7596796D01*
X1651576D01*
Y7600791D01*
X1659564D01*
Y7604785D01*
X1667552D01*
Y7608779D01*
X1671547D01*
Y7612773D01*
X1683529D01*
Y7616767D01*
X1691518D01*
Y7620761D01*
X1699506D01*
Y7624756D01*
X1707494D01*
Y7628750D01*
X1711488D01*
Y7632744D01*
X1723471D01*
Y7636738D01*
X1731459D01*
Y7640732D01*
X1739448D01*
Y7644727D01*
X1747436D01*
Y7648721D01*
X1755424D01*
Y7652715D01*
X1763413D01*
Y7656709D01*
X1767407D01*
Y7660703D01*
X1779390D01*
Y7664698D01*
X1787378D01*
Y7668692D01*
X1795366D01*
Y7672686D01*
X1803355D01*
Y7676680D01*
X1811343D01*
Y7680674D01*
X1823326D01*
Y7684668D01*
X1827320D01*
Y7688663D01*
X1839302D01*
Y7692657D01*
X1847291D01*
Y7696651D01*
X1851285D01*
Y7700645D01*
X1863268D01*
Y7704639D01*
X1867262D01*
Y7708634D01*
X1879244D01*
Y7712628D01*
X1887233D01*
Y7716622D01*
X1895221D01*
Y7720616D01*
X1907203D01*
Y7724610D01*
X1911198D01*
Y7728605D01*
X1923180D01*
Y7732599D01*
X1931169D01*
Y7736593D01*
X1943151D01*
Y7740587D01*
X1951140D01*
Y7744581D01*
X1959128D01*
Y7748576D01*
X1967116D01*
Y7752570D01*
X1975105D01*
Y7756564D01*
X1987087D01*
Y7760558D01*
X1995076D01*
Y7764552D01*
X2003064D01*
Y7768546D01*
X2015047D01*
Y7772541D01*
X2023035D01*
Y7776535D01*
X2035018D01*
Y7780529D01*
X2039012D01*
Y7784523D01*
X2050994D01*
Y7788517D01*
X2058983D01*
Y7792511D01*
X2066971D01*
Y7796506D01*
X2078954D01*
Y7800500D01*
X2086942D01*
Y7804494D01*
X2098924D01*
Y7808488D01*
X2106913D01*
Y7812482D01*
X2118895D01*
Y7816477D01*
X2126884D01*
Y7820471D01*
X2134872D01*
Y7824465D01*
X2146855D01*
Y7828459D01*
X2154843D01*
Y7832453D01*
X2166826D01*
Y7836448D01*
X2174814D01*
Y7840442D01*
X2182802D01*
Y7844436D01*
X2194785D01*
Y7848430D01*
X2202773D01*
Y7852424D01*
X2218750D01*
Y7856419D01*
X2226738D01*
Y7860413D01*
X2234727D01*
Y7864407D01*
X2246709D01*
Y7868401D01*
X2254698D01*
Y7872395D01*
X2270674D01*
Y7876389D01*
X2274669D01*
Y7880384D01*
X2290645D01*
Y7884378D01*
X2298634D01*
Y7888372D01*
X2310616D01*
Y7892366D01*
X2322599D01*
Y7896360D01*
X2326593D01*
Y7900355D01*
X2342570D01*
Y7904349D01*
X2350558D01*
Y7908343D01*
X2362541D01*
Y7912337D01*
X2374523D01*
Y7916331D01*
X2382512D01*
Y7920326D01*
X2398488D01*
Y7924320D01*
X2406477D01*
Y7928314D01*
X2422454D01*
Y7932308D01*
X2430442D01*
Y7936302D01*
X2442424D01*
Y7940297D01*
X2454407D01*
Y7944291D01*
X2462395D01*
Y7948285D01*
X2478372D01*
Y7952279D01*
X2486361D01*
Y7956273D01*
X2498343D01*
Y7960267D01*
X2510326D01*
Y7964261D01*
X2522308D01*
Y7968256D01*
X2538285D01*
Y7972250D01*
X2546273D01*
Y7976244D01*
X2558256D01*
Y7980238D01*
X2570238D01*
Y7984232D01*
X2582221D01*
Y7988227D01*
X2598198D01*
Y7992221D01*
X2606186D01*
Y7996215D01*
X2622163D01*
Y8000209D01*
X2630151D01*
Y8004203D01*
X2646128D01*
Y8008198D01*
X2658111D01*
Y8012192D01*
X2670093D01*
Y8016186D01*
X2686070D01*
Y8020180D01*
X2694058D01*
Y8024174D01*
X2714029D01*
Y8028169D01*
X2722017D01*
Y8032163D01*
X2734000D01*
Y8036157D01*
X2753971D01*
Y8040151D01*
X2761959D01*
Y8044145D01*
X2777936D01*
Y8048139D01*
X2789919D01*
Y8052134D01*
X2805895D01*
Y8056128D01*
X2817878D01*
Y8060122D01*
X2829860D01*
Y8064116D01*
X2849831D01*
Y8068110D01*
X2857820D01*
Y8072105D01*
X2877791D01*
Y8076099D01*
X2889773D01*
Y8080093D01*
X2901756D01*
Y8084087D01*
X2921727D01*
Y8088081D01*
X2933709D01*
Y8092076D01*
X2953680D01*
Y8096070D01*
X2965663D01*
Y8100064D01*
X2981640D01*
Y8104058D01*
X2997616D01*
Y8108052D01*
X3009599D01*
Y8112047D01*
X3029570D01*
Y8116041D01*
X3041552D01*
Y8120035D01*
X3061523D01*
Y8124029D01*
X3073506D01*
Y8128023D01*
X3089483D01*
Y8132017D01*
X3109454D01*
Y8136012D01*
X3121436D01*
Y8140006D01*
X3145401D01*
Y8144000D01*
X3157384D01*
Y8147994D01*
X3177355D01*
Y8151988D01*
X3193331D01*
Y8155982D01*
X3209308D01*
Y8159977D01*
X3233273D01*
Y8163971D01*
X3245256D01*
Y8167965D01*
X3269221D01*
Y8171959D01*
X3285198D01*
Y8175953D01*
X3301174D01*
Y8179948D01*
X3325140D01*
Y8183942D01*
X3337122D01*
Y8187936D01*
X3365081D01*
Y8191930D01*
X3381058D01*
Y8195924D01*
X3405023D01*
Y8199919D01*
X3421000D01*
Y8203913D01*
X3440971D01*
Y8207907D01*
X3468930D01*
Y8211901D01*
X3484907D01*
Y8215895D01*
X3512866D01*
Y8219889D01*
X3528843D01*
Y8223884D01*
X3552808D01*
Y8227878D01*
X3580768D01*
Y8231872D01*
X3596744D01*
Y8235866D01*
X3628698D01*
Y8239860D01*
X3644674D01*
Y8243854D01*
X3676628D01*
Y8247849D01*
X3700593D01*
Y8251843D01*
X3720564D01*
Y8255837D01*
X3756512D01*
Y8259831D01*
X3776483D01*
Y8263825D01*
X3816424D01*
Y8267820D01*
X3836395D01*
Y8271814D01*
X3868349D01*
Y8275808D01*
X3904296D01*
Y8279802D01*
X3928262D01*
Y8283796D01*
X3972198D01*
Y8287791D01*
X3996163D01*
Y8291785D01*
X4040099D01*
Y8295779D01*
X4076046D01*
Y8299773D01*
X4108000D01*
Y8303767D01*
X4143948D01*
Y8307762D01*
X4151936D01*
Y8311756D01*
X4167913D01*
Y8315750D01*
X4175901D01*
Y8319744D01*
X4183890D01*
Y8323738D01*
X4195872D01*
Y8327732D01*
X4199866D01*
Y8331727D01*
X4215843D01*
Y8335721D01*
X4223832D01*
Y8339715D01*
X4235814D01*
Y8343709D01*
X4247797D01*
Y8347703D01*
X4251791D01*
Y8351698D01*
X4267767D01*
Y8355692D01*
X4271762D01*
Y8359686D01*
X4287738D01*
Y8363680D01*
X4295727D01*
Y8367674D01*
X4303715D01*
Y8371669D01*
X4315698D01*
Y8375663D01*
X4323686D01*
Y8379657D01*
X4339663D01*
Y8383651D01*
X4347651D01*
Y8387645D01*
X4363628D01*
Y8391640D01*
X4371616D01*
Y8395634D01*
X4379605D01*
Y8399628D01*
X4395582D01*
Y8403622D01*
X4403570D01*
Y8407616D01*
X4419547D01*
Y8411610D01*
X4427535D01*
Y8415604D01*
X4435523D01*
Y8419599D01*
X4451500D01*
Y8423593D01*
X4459488D01*
Y8427587D01*
X4475465D01*
Y8431581D01*
X4483454D01*
Y8435575D01*
X4495436D01*
Y8439570D01*
X4507419D01*
Y8443564D01*
X4519401D01*
Y8447558D01*
X4535378D01*
Y8451552D01*
X4539372D01*
Y8455546D01*
X4555349D01*
Y8459541D01*
X4567331D01*
Y8463535D01*
X4579314D01*
Y8467529D01*
X4591297D01*
Y8471523D01*
X4599285D01*
Y8475517D01*
X4619256D01*
Y8479512D01*
X4627244D01*
Y8483506D01*
X4643221D01*
Y8487500D01*
X4655204D01*
Y8491494D01*
X4663192D01*
Y8495488D01*
X4683163D01*
Y8499482D01*
X4691151D01*
Y8503477D01*
X4707128D01*
Y8507471D01*
X4715116D01*
Y8511465D01*
X4731093D01*
Y8515459D01*
X4747070D01*
Y8519453D01*
X4755058D01*
Y8523448D01*
X4775029D01*
Y8527442D01*
X4783018D01*
Y8531436D01*
X4798994D01*
Y8535430D01*
X4810977D01*
Y8539424D01*
X4822959D01*
Y8543419D01*
X4838936D01*
Y8547413D01*
X4846925D01*
Y8551407D01*
X4866896D01*
Y8555401D01*
X4878878D01*
Y8559395D01*
X4894855D01*
Y8563390D01*
X4910831D01*
Y8567384D01*
X4918820D01*
Y8571378D01*
X4938791D01*
Y8575372D01*
X4950773D01*
Y8579366D01*
X4966750D01*
Y8583360D01*
X4978733D01*
Y8587355D01*
X4990715D01*
Y8591349D01*
X5010686D01*
Y8595343D01*
X5022669D01*
Y8599337D01*
X5042640D01*
Y8603331D01*
X5054622D01*
Y8607325D01*
X5070599D01*
Y8611320D01*
X5086576D01*
Y8615314D01*
X5098558D01*
Y8619308D01*
X5118529D01*
Y8623302D01*
X5126518D01*
Y8627296D01*
X5146488D01*
Y8631291D01*
X5162465D01*
Y8635285D01*
X5174448D01*
Y8639279D01*
X5198413D01*
Y8643273D01*
X5206401D01*
Y8647267D01*
X5230366D01*
Y8651262D01*
X5242349D01*
Y8655256D01*
X5258326D01*
Y8659250D01*
X5278297D01*
Y8663244D01*
X5290279D01*
Y8667238D01*
X5310250D01*
Y8671233D01*
X5322233D01*
Y8675227D01*
X5346198D01*
Y8679221D01*
X5358180D01*
Y8683215D01*
X5374157D01*
Y8687209D01*
X5398122D01*
Y8691203D01*
X5406111D01*
Y8695197D01*
X5430076D01*
Y8699192D01*
X5442058D01*
Y8703186D01*
X5462029D01*
Y8707180D01*
X5482000D01*
Y8711174D01*
X5497977D01*
Y8715168D01*
X5521942D01*
Y8719163D01*
X5533924D01*
Y8723157D01*
X5557890D01*
Y8727151D01*
X5573866D01*
Y8731145D01*
X5585849D01*
Y8735140D01*
X5609814D01*
Y8739134D01*
X5621796D01*
Y8743128D01*
X5649756D01*
Y8747122D01*
X5661738D01*
Y8751116D01*
X5685704D01*
Y8755111D01*
X5705674D01*
Y8759105D01*
X5721651D01*
Y8763099D01*
X5749611D01*
Y8767093D01*
X5761593D01*
Y8771087D01*
X5785558D01*
Y8775081D01*
X5801535D01*
Y8779075D01*
X5821506D01*
Y8783070D01*
X5845471D01*
Y8787064D01*
X5861448D01*
Y8791058D01*
X5889407D01*
Y8795052D01*
X5905384D01*
Y8799046D01*
X5925355D01*
Y8803041D01*
X5949320D01*
Y8807035D01*
X5965297D01*
Y8811029D01*
X5997250D01*
Y8815023D01*
X6009233D01*
Y8819017D01*
X6037192D01*
Y8823012D01*
X6057163D01*
Y8827006D01*
X6073139D01*
Y8831000D01*
X6105093D01*
Y8834994D01*
X6121070D01*
Y8838988D01*
X6149029D01*
Y8842983D01*
X6169000D01*
Y8846977D01*
X6192965D01*
Y8850971D01*
X6216930D01*
Y8854965D01*
X6232907D01*
Y8858959D01*
X6268855D01*
Y8862953D01*
X6280837D01*
Y8866947D01*
X6312791D01*
Y8870942D01*
X6332762D01*
Y8874936D01*
X6352733D01*
Y8878930D01*
X6388680D01*
Y8882924D01*
X6404657D01*
Y8886918D01*
X6436610D01*
Y8890913D01*
X6456581D01*
Y8894907D01*
X6480547D01*
Y8898901D01*
X6508506D01*
Y8902895D01*
X6528477D01*
Y8906889D01*
X6568419D01*
Y8910884D01*
X6584396D01*
Y8914878D01*
X6620343D01*
Y8918872D01*
X6640314D01*
Y8922866D01*
X6664279D01*
Y8926860D01*
X6696233D01*
Y8930855D01*
X6720198D01*
Y8934849D01*
X6752151D01*
Y8938843D01*
X6780111D01*
Y8942837D01*
X6800081D01*
Y8946831D01*
X6840023D01*
Y8950825D01*
X6852006D01*
Y8954820D01*
X6887953D01*
Y8950825D01*
D02*
G37*
G36*
X2765954Y7429041D02*
X2769948D01*
Y7417058D01*
X2765954D01*
Y7401081D01*
X2761959D01*
Y7385105D01*
X2757965D01*
Y7357145D01*
X2753971D01*
Y7345163D01*
X2749977D01*
Y7317203D01*
X2745983D01*
Y7305221D01*
X2741988D01*
Y7281256D01*
X2737994D01*
Y7261285D01*
X2734000D01*
Y7245308D01*
X2730006D01*
Y7217349D01*
X2726012D01*
Y7205366D01*
X2722017D01*
Y7181401D01*
X2718023D01*
Y7161430D01*
X2714029D01*
Y7145453D01*
X2710035D01*
Y7121488D01*
X2706041D01*
Y7105512D01*
X2702047D01*
Y7081546D01*
X2698053D01*
Y7065570D01*
X2694058D01*
Y7045599D01*
X2690064D01*
Y7021634D01*
X2686070D01*
Y7009651D01*
X2682076D01*
Y6981692D01*
X2678082D01*
Y6969709D01*
X2674087D01*
Y6941750D01*
X2670093D01*
Y6925773D01*
X2666099D01*
Y6909796D01*
X2662105D01*
Y6881837D01*
X2658111D01*
Y6869855D01*
X2654116D01*
Y6845890D01*
X2650122D01*
Y6841895D01*
X2646128D01*
Y6833907D01*
X2642134D01*
Y6825919D01*
X2638140D01*
Y6821924D01*
X2634145D01*
Y6813936D01*
X2630151D01*
Y6809942D01*
X2626157D01*
Y6805948D01*
X2622163D01*
Y6801953D01*
X2614175D01*
Y6797959D01*
X2610180D01*
Y6793965D01*
X2606186D01*
Y6789971D01*
X2594204D01*
Y6785977D01*
X2590209D01*
Y6781982D01*
X2578227D01*
Y6777988D01*
X2566244D01*
Y6773994D01*
X2558256D01*
Y6770000D01*
X2470384D01*
Y6773994D01*
X2466390D01*
Y6777988D01*
X2446419D01*
Y6781982D01*
X2438430D01*
Y6785977D01*
X2430442D01*
Y6789971D01*
X2418459D01*
Y6793965D01*
X2414465D01*
Y6797959D01*
X2402483D01*
Y6801953D01*
X2398488D01*
Y6805948D01*
X2390500D01*
Y6809942D01*
X2386506D01*
Y6813936D01*
X2382512D01*
Y6817930D01*
X2378517D01*
Y6821924D01*
X2374523D01*
Y6825919D01*
X2366535D01*
Y6829913D01*
X2362541D01*
Y6833907D01*
X2358546D01*
Y6837901D01*
X2354552D01*
Y6841895D01*
X2350558D01*
Y6845890D01*
X2346564D01*
Y6849884D01*
X2342570D01*
Y6853878D01*
X2334582D01*
Y6857872D01*
X2330587D01*
Y6861866D01*
X2326593D01*
Y6865860D01*
X2322599D01*
Y6869855D01*
X2318605D01*
Y6873849D01*
X2314611D01*
Y6877843D01*
X2306622D01*
Y6881837D01*
X2302628D01*
Y6885831D01*
X2298634D01*
Y6889825D01*
X2294640D01*
Y6893820D01*
X2290645D01*
Y6897814D01*
X2286651D01*
Y6901808D01*
X2278663D01*
Y6905802D01*
X2274669D01*
Y6909796D01*
X2270674D01*
Y6913791D01*
X2266680D01*
Y6917785D01*
X2262686D01*
Y6921779D01*
X2254698D01*
Y6925773D01*
X2250704D01*
Y6929767D01*
X2246709D01*
Y6933762D01*
X2242715D01*
Y6937756D01*
X2238721D01*
Y6941750D01*
X2234727D01*
Y6945744D01*
X2230733D01*
Y6949738D01*
X2226738D01*
Y6953733D01*
X2222744D01*
Y6957727D01*
X2218750D01*
Y6961721D01*
X2214756D01*
Y6965715D01*
X2210762D01*
Y6969709D01*
X2206767D01*
Y6973703D01*
X2202773D01*
Y6977697D01*
X2198779D01*
Y6981692D01*
X2190791D01*
Y6985686D01*
X2186796D01*
Y6989680D01*
X2182802D01*
Y6993674D01*
X2178808D01*
Y6997669D01*
X2174814D01*
Y7001663D01*
X2170820D01*
Y7005657D01*
X2166826D01*
Y7009651D01*
X2162832D01*
Y7013645D01*
X2158837D01*
Y7017640D01*
X2154843D01*
Y7021634D01*
X2150849D01*
Y7025628D01*
X2146855D01*
Y7029622D01*
X2142861D01*
Y7033616D01*
X2138866D01*
Y7037611D01*
X2130878D01*
Y7041605D01*
X2126884D01*
Y7045599D01*
X2122890D01*
Y7049593D01*
X2118895D01*
Y7053587D01*
X2114901D01*
Y7057581D01*
X2110907D01*
Y7061575D01*
X2106913D01*
Y7065570D01*
X2102919D01*
Y7069564D01*
X2098924D01*
Y7073558D01*
X2094930D01*
Y7077552D01*
X2090936D01*
Y7081546D01*
X2086942D01*
Y7085541D01*
X2082948D01*
Y7089535D01*
X2078954D01*
Y7093529D01*
X2074959D01*
Y7097523D01*
X2070965D01*
Y7101517D01*
X2066971D01*
Y7105512D01*
X2058983D01*
Y7113500D01*
X2050994D01*
Y7117494D01*
X2047000D01*
Y7121488D01*
X2043006D01*
Y7125483D01*
X2039012D01*
Y7129477D01*
X2035018D01*
Y7133471D01*
X2031023D01*
Y7137465D01*
X2027029D01*
Y7141459D01*
X2023035D01*
Y7145453D01*
X2019041D01*
Y7149447D01*
X2015047D01*
Y7153442D01*
X2011052D01*
Y7157436D01*
X2007058D01*
Y7161430D01*
X2003064D01*
Y7165424D01*
X1999070D01*
Y7169418D01*
X1995076D01*
Y7173413D01*
X1991081D01*
Y7177407D01*
X1987087D01*
Y7181401D01*
X1983093D01*
Y7185395D01*
X1979099D01*
Y7189389D01*
X1975105D01*
Y7193384D01*
X1971111D01*
Y7197378D01*
X1967116D01*
Y7201372D01*
X1963122D01*
Y7205366D01*
X1959128D01*
Y7209360D01*
X1955134D01*
Y7213355D01*
X1951140D01*
Y7217349D01*
X1947145D01*
Y7221343D01*
X1943151D01*
Y7225337D01*
X1939157D01*
Y7229331D01*
X1935163D01*
Y7233325D01*
X1931169D01*
Y7237320D01*
X1927174D01*
Y7241314D01*
X1923180D01*
Y7245308D01*
X1919186D01*
Y7249302D01*
X1907203D01*
Y7225337D01*
X1903209D01*
Y7209360D01*
X1899215D01*
Y7189389D01*
X1895221D01*
Y7165424D01*
X1891227D01*
Y7153442D01*
X1887233D01*
Y7125483D01*
X1883239D01*
Y7109506D01*
X1879244D01*
Y7089535D01*
X1875250D01*
Y7069564D01*
X1871256D01*
Y7053587D01*
X1867262D01*
Y7025628D01*
X1863268D01*
Y7013645D01*
X1859273D01*
Y6985686D01*
X1855279D01*
Y6969709D01*
X1851285D01*
Y6953733D01*
X1847291D01*
Y6929767D01*
X1843297D01*
Y6913791D01*
X1839302D01*
Y6885831D01*
X1835308D01*
Y6873849D01*
X1831314D01*
Y6849884D01*
X1827320D01*
Y6829913D01*
X1823326D01*
Y6813936D01*
X1819331D01*
Y6785977D01*
X1815337D01*
Y6781982D01*
X1807349D01*
Y6777988D01*
X1639593D01*
Y6781982D01*
X1635599D01*
Y6777988D01*
X1623616D01*
Y6781982D01*
X1619622D01*
Y6805948D01*
X1623616D01*
Y6817930D01*
X1627611D01*
Y6845890D01*
X1631605D01*
Y6861866D01*
X1635599D01*
Y6881837D01*
X1639593D01*
Y6905802D01*
X1643587D01*
Y6917785D01*
X1647581D01*
Y6945744D01*
X1651576D01*
Y6961721D01*
X1655570D01*
Y6985686D01*
X1659564D01*
Y7005657D01*
X1663558D01*
Y7021634D01*
X1667552D01*
Y7045599D01*
X1671547D01*
Y7061575D01*
X1675541D01*
Y7089535D01*
X1679535D01*
Y7105512D01*
X1683529D01*
Y7125483D01*
X1687523D01*
Y7145453D01*
X1691518D01*
Y7161430D01*
X1695512D01*
Y7189389D01*
X1699506D01*
Y7201372D01*
X1703500D01*
Y7229331D01*
X1707494D01*
Y7245308D01*
X1711488D01*
Y7261285D01*
X1715483D01*
Y7289244D01*
X1719477D01*
Y7301227D01*
X1723471D01*
Y7321198D01*
X1727465D01*
Y7329186D01*
X1731459D01*
Y7341168D01*
X1735453D01*
Y7349157D01*
X1739448D01*
Y7353151D01*
X1743442D01*
Y7361139D01*
X1747436D01*
Y7365134D01*
X1751430D01*
Y7373122D01*
X1755424D01*
Y7377116D01*
X1759419D01*
Y7381110D01*
X1763413D01*
Y7385105D01*
X1767407D01*
Y7389099D01*
X1771401D01*
Y7393093D01*
X1775395D01*
Y7397087D01*
X1779390D01*
Y7401081D01*
X1787378D01*
Y7405076D01*
X1791372D01*
Y7409070D01*
X1799361D01*
Y7413064D01*
X1807349D01*
Y7417058D01*
X1815337D01*
Y7421052D01*
X1827320D01*
Y7425046D01*
X1835308D01*
Y7429041D01*
X1855279D01*
Y7433035D01*
X1923180D01*
Y7429041D01*
X1943151D01*
Y7425046D01*
X1951140D01*
Y7421052D01*
X1963122D01*
Y7417058D01*
X1967116D01*
Y7413064D01*
X1975105D01*
Y7409070D01*
X1983093D01*
Y7405076D01*
X1987087D01*
Y7401081D01*
X1991081D01*
Y7397087D01*
X1995076D01*
Y7393093D01*
X1999070D01*
Y7389099D01*
X2003064D01*
Y7385105D01*
X2011052D01*
Y7381110D01*
X2015047D01*
Y7377116D01*
X2019041D01*
Y7373122D01*
X2023035D01*
Y7369128D01*
X2027029D01*
Y7365134D01*
X2031023D01*
Y7361139D01*
X2035018D01*
Y7357145D01*
X2039012D01*
Y7353151D01*
X2043006D01*
Y7349157D01*
X2047000D01*
Y7345163D01*
X2054989D01*
Y7341168D01*
X2058983D01*
Y7337174D01*
X2062977D01*
Y7333180D01*
X2066971D01*
Y7329186D01*
X2070965D01*
Y7325192D01*
X2074959D01*
Y7321198D01*
X2078954D01*
Y7317203D01*
X2082948D01*
Y7313209D01*
X2086942D01*
Y7309215D01*
X2090936D01*
Y7305221D01*
X2094930D01*
Y7301227D01*
X2098924D01*
Y7297233D01*
X2106913D01*
Y7289244D01*
X2114901D01*
Y7285250D01*
X2118895D01*
Y7281256D01*
X2122890D01*
Y7277262D01*
X2126884D01*
Y7273267D01*
X2130878D01*
Y7269273D01*
X2134872D01*
Y7265279D01*
X2138866D01*
Y7261285D01*
X2142861D01*
Y7257291D01*
X2146855D01*
Y7253296D01*
X2150849D01*
Y7249302D01*
X2158837D01*
Y7245308D01*
X2162832D01*
Y7241314D01*
X2166826D01*
Y7237320D01*
X2170820D01*
Y7233325D01*
X2174814D01*
Y7229331D01*
X2178808D01*
Y7225337D01*
X2182802D01*
Y7221343D01*
X2186796D01*
Y7217349D01*
X2190791D01*
Y7213355D01*
X2194785D01*
Y7209360D01*
X2202773D01*
Y7201372D01*
X2210762D01*
Y7197378D01*
X2214756D01*
Y7193384D01*
X2218750D01*
Y7189389D01*
X2222744D01*
Y7185395D01*
X2226738D01*
Y7181401D01*
X2230733D01*
Y7177407D01*
X2234727D01*
Y7173413D01*
X2238721D01*
Y7169418D01*
X2242715D01*
Y7165424D01*
X2246709D01*
Y7161430D01*
X2250704D01*
Y7157436D01*
X2254698D01*
Y7153442D01*
X2262686D01*
Y7149447D01*
X2266680D01*
Y7145453D01*
X2270674D01*
Y7141459D01*
X2274669D01*
Y7137465D01*
X2278663D01*
Y7133471D01*
X2282657D01*
Y7129477D01*
X2286651D01*
Y7125483D01*
X2290645D01*
Y7121488D01*
X2294640D01*
Y7117494D01*
X2298634D01*
Y7113500D01*
X2306622D01*
Y7109506D01*
X2310616D01*
Y7105512D01*
X2314611D01*
Y7101517D01*
X2318605D01*
Y7097523D01*
X2322599D01*
Y7093529D01*
X2326593D01*
Y7089535D01*
X2330587D01*
Y7085541D01*
X2334582D01*
Y7081546D01*
X2338576D01*
Y7077552D01*
X2342570D01*
Y7073558D01*
X2346564D01*
Y7069564D01*
X2350558D01*
Y7065570D01*
X2358546D01*
Y7057581D01*
X2366535D01*
Y7053587D01*
X2370529D01*
Y7049593D01*
X2374523D01*
Y7045599D01*
X2378517D01*
Y7041605D01*
X2382512D01*
Y7037611D01*
X2386506D01*
Y7033616D01*
X2390500D01*
Y7029622D01*
X2394494D01*
Y7025628D01*
X2398488D01*
Y7021634D01*
X2406477D01*
Y7017640D01*
X2410471D01*
Y7013645D01*
X2414465D01*
Y7009651D01*
X2418459D01*
Y7005657D01*
X2422454D01*
Y7001663D01*
X2426448D01*
Y6997669D01*
X2430442D01*
Y6993674D01*
X2434436D01*
Y6989680D01*
X2438430D01*
Y6985686D01*
X2442424D01*
Y6981692D01*
X2446419D01*
Y6977697D01*
X2450413D01*
Y6973703D01*
X2454407D01*
Y6969709D01*
X2458401D01*
Y6973703D01*
X2462395D01*
Y6977697D01*
X2466390D01*
Y6993674D01*
X2470384D01*
Y7017640D01*
X2474378D01*
Y7029622D01*
X2478372D01*
Y7045599D01*
X2482366D01*
Y7069564D01*
X2486361D01*
Y7081546D01*
X2490355D01*
Y7105512D01*
X2494349D01*
Y7121488D01*
X2498343D01*
Y7141459D01*
X2502337D01*
Y7161430D01*
X2506332D01*
Y7173413D01*
X2510326D01*
Y7197378D01*
X2514320D01*
Y7209360D01*
X2518314D01*
Y7233325D01*
X2522308D01*
Y7249302D01*
X2526302D01*
Y7265279D01*
X2530297D01*
Y7289244D01*
X2534291D01*
Y7301227D01*
X2538285D01*
Y7325192D01*
X2542279D01*
Y7341168D01*
X2546273D01*
Y7361139D01*
X2550267D01*
Y7377116D01*
X2554262D01*
Y7393093D01*
X2558256D01*
Y7417058D01*
X2562250D01*
Y7429041D01*
X2566244D01*
Y7433035D01*
X2765954D01*
Y7429041D01*
D02*
G37*
G36*
X7986355Y7177407D02*
X7990349D01*
Y7165424D01*
X7986355D01*
Y7149447D01*
X7982360D01*
Y7125483D01*
X7978366D01*
Y7105512D01*
X7974372D01*
Y7089535D01*
X7970378D01*
Y7065570D01*
X7966384D01*
Y7049593D01*
X7962389D01*
Y7045599D01*
X7958395D01*
Y7041605D01*
X7371250D01*
Y7033616D01*
X7367256D01*
Y7009651D01*
X7363262D01*
Y6997669D01*
X7359267D01*
Y6969709D01*
X7355273D01*
Y6953733D01*
X7351279D01*
Y6937756D01*
X7347285D01*
Y6929767D01*
X7351279D01*
Y6925773D01*
X8158105D01*
Y6921779D01*
X8162099D01*
Y6909796D01*
X8158105D01*
Y6897814D01*
X8154110D01*
Y6869855D01*
X8150116D01*
Y6853878D01*
X8146122D01*
Y6833907D01*
X8142128D01*
Y6809942D01*
X8138134D01*
Y6797959D01*
X8134140D01*
Y6781982D01*
X8130145D01*
Y6777988D01*
X8118163D01*
Y6781982D01*
X8114169D01*
Y6777988D01*
X7123611D01*
Y6781982D01*
X7111628D01*
Y6789971D01*
X7115622D01*
Y6805948D01*
X7119616D01*
Y6829913D01*
X7123611D01*
Y6841895D01*
X7127605D01*
Y6869855D01*
X7131599D01*
Y6885831D01*
X7135593D01*
Y6905802D01*
X7139587D01*
Y6929767D01*
X7143581D01*
Y6941750D01*
X7147576D01*
Y6969709D01*
X7151570D01*
Y6981692D01*
X7155564D01*
Y7009651D01*
X7159558D01*
Y7025628D01*
X7163552D01*
Y7041605D01*
X7167546D01*
Y7069564D01*
X7171541D01*
Y7081546D01*
X7175535D01*
Y7109506D01*
X7179529D01*
Y7125483D01*
X7183523D01*
Y7145453D01*
X7187518D01*
Y7165424D01*
X7191512D01*
Y7177407D01*
X7199500D01*
Y7181401D01*
X7986355D01*
Y7177407D01*
D02*
G37*
G36*
X8230000Y7413064D02*
X8226006D01*
Y7409070D01*
X8222012D01*
Y7389099D01*
X8218018D01*
Y7369128D01*
X8214023D01*
Y7357145D01*
X8210029D01*
Y7333180D01*
X8206035D01*
Y7321198D01*
X8202041D01*
Y7301227D01*
X8198047D01*
Y7297233D01*
X6244889D01*
Y7293238D01*
X6240895D01*
Y7289244D01*
X6236901D01*
Y7261285D01*
X6232907D01*
Y7245308D01*
X6228913D01*
Y7221343D01*
X6224919D01*
Y7205366D01*
X6220925D01*
Y7189389D01*
X6216930D01*
Y7161430D01*
X6212936D01*
Y7149447D01*
X6208942D01*
Y7121488D01*
X6204948D01*
Y7105512D01*
X6200954D01*
Y7085541D01*
X6196959D01*
Y7065570D01*
X6192965D01*
Y7049593D01*
X6188971D01*
Y7021634D01*
X6184977D01*
Y7009651D01*
X6180983D01*
Y6985686D01*
X6176988D01*
Y6965715D01*
X6172994D01*
Y6949738D01*
X6169000D01*
Y6925773D01*
X6165006D01*
Y6917785D01*
X6169000D01*
Y6913791D01*
X7071686D01*
Y6893820D01*
X7067692D01*
Y6877843D01*
X7063698D01*
Y6857872D01*
X7059703D01*
Y6833907D01*
X7055709D01*
Y6821924D01*
X7051715D01*
Y6793965D01*
X7047721D01*
Y6781982D01*
X7035739D01*
Y6777988D01*
X6017221D01*
Y6781982D01*
X5997250D01*
Y6785977D01*
X5989262D01*
Y6789971D01*
X5977279D01*
Y6793965D01*
X5973285D01*
Y6797959D01*
X5969291D01*
Y6801953D01*
X5961302D01*
Y6809942D01*
X5957308D01*
Y6813936D01*
X5953314D01*
Y6821924D01*
X5949320D01*
Y6885831D01*
X5953314D01*
Y6901808D01*
X5957308D01*
Y6921779D01*
X5961302D01*
Y6941750D01*
X5965297D01*
Y6957727D01*
X5969291D01*
Y6985686D01*
X5973285D01*
Y6997669D01*
X5977279D01*
Y7021634D01*
X5981273D01*
Y7041605D01*
X5985267D01*
Y7057581D01*
X5989262D01*
Y7081546D01*
X5993256D01*
Y7097523D01*
X5997250D01*
Y7121488D01*
X6001244D01*
Y7137465D01*
X6005238D01*
Y7161430D01*
X6009233D01*
Y7181401D01*
X6013227D01*
Y7197378D01*
X6017221D01*
Y7221343D01*
X6021215D01*
Y7237320D01*
X6025209D01*
Y7261285D01*
X6029204D01*
Y7277262D01*
X6033198D01*
Y7297233D01*
X6037192D01*
Y7321198D01*
X6041186D01*
Y7333180D01*
X6045180D01*
Y7353151D01*
X6049175D01*
Y7357145D01*
X6053169D01*
Y7369128D01*
X6057163D01*
Y7373122D01*
X6061157D01*
Y7381110D01*
X6065151D01*
Y7389099D01*
X6069145D01*
Y7393093D01*
X6073139D01*
Y7397087D01*
X6077134D01*
Y7401081D01*
X6081128D01*
Y7405076D01*
X6085122D01*
Y7409070D01*
X6093110D01*
Y7413064D01*
X6097105D01*
Y7417058D01*
X6105093D01*
Y7421052D01*
X6113082D01*
Y7425046D01*
X6121070D01*
Y7429041D01*
X6137047D01*
Y7433035D01*
X8230000D01*
Y7413064D01*
D02*
G37*
G36*
X5909378Y7429041D02*
X5929349D01*
Y7425046D01*
X5937337D01*
Y7421052D01*
X5949320D01*
Y7417058D01*
X5953314D01*
Y7413064D01*
X5961302D01*
Y7409070D01*
X5969291D01*
Y7401081D01*
X5977279D01*
Y7393093D01*
X5981273D01*
Y7389099D01*
X5985267D01*
Y7381110D01*
X5989262D01*
Y7345163D01*
Y7341168D01*
Y7325192D01*
X5985267D01*
Y7305221D01*
X5981273D01*
Y7289244D01*
X5977279D01*
Y7265279D01*
X5973285D01*
Y7249302D01*
X5969291D01*
Y7225337D01*
X5965297D01*
Y7209360D01*
X5961302D01*
Y7189389D01*
X5957308D01*
Y7165424D01*
X5953314D01*
Y7153442D01*
X5949320D01*
Y7125483D01*
X5945326D01*
Y7109506D01*
X5941332D01*
Y7085541D01*
X5937337D01*
Y7069564D01*
X5933343D01*
Y7053587D01*
X5929349D01*
Y7025628D01*
X5925355D01*
Y7013645D01*
X5921361D01*
Y6985686D01*
X5917366D01*
Y6969709D01*
X5913372D01*
Y6949738D01*
X5909378D01*
Y6929767D01*
X5905384D01*
Y6913791D01*
X5901390D01*
Y6885831D01*
X5897395D01*
Y6873849D01*
X5893401D01*
Y6849884D01*
X5889407D01*
Y6829913D01*
X5885413D01*
Y6813936D01*
X5881419D01*
Y6789971D01*
X5877424D01*
Y6781982D01*
X5869436D01*
Y6777988D01*
X5701680D01*
Y6781982D01*
X5697686D01*
Y6777988D01*
X5685704D01*
Y6781982D01*
X5681709D01*
Y6797959D01*
X5685704D01*
Y6813936D01*
X5689698D01*
Y6837901D01*
X5693692D01*
Y6853878D01*
X5697686D01*
Y6873849D01*
X5701680D01*
Y6897814D01*
X5705674D01*
Y6909796D01*
X5709669D01*
Y6937756D01*
X5713663D01*
Y6949738D01*
X5717657D01*
Y6973703D01*
X5721651D01*
Y6993674D01*
X5725645D01*
Y7009651D01*
X5729640D01*
Y7041605D01*
X5158471D01*
Y7045599D01*
X5154477D01*
Y7077552D01*
X5158471D01*
Y7093529D01*
X5162465D01*
Y7113500D01*
X5166459D01*
Y7133471D01*
X5170453D01*
Y7149447D01*
X5174448D01*
Y7169418D01*
X5753605D01*
Y7173413D01*
X5757599D01*
Y7177407D01*
X5761593D01*
Y7189389D01*
X5765587D01*
Y7209360D01*
X5769582D01*
Y7233325D01*
X5773576D01*
Y7249302D01*
X5777570D01*
Y7273267D01*
X5781564D01*
Y7289244D01*
X5777570D01*
Y7293238D01*
X5773576D01*
Y7297233D01*
X5102552D01*
Y7301227D01*
X5098558D01*
Y7309215D01*
X5102552D01*
Y7321198D01*
X5106547D01*
Y7353151D01*
X5110541D01*
Y7365134D01*
X5114535D01*
Y7389099D01*
X5118529D01*
Y7409070D01*
X5122523D01*
Y7425046D01*
X5126518D01*
Y7433035D01*
X5909378D01*
Y7429041D01*
D02*
G37*
G36*
X4998703D02*
X5010686D01*
Y7425046D01*
X5018674D01*
Y7421052D01*
X5026663D01*
Y7417058D01*
X5030657D01*
Y7413064D01*
X5034651D01*
Y7409070D01*
X5038645D01*
Y7405076D01*
X5042640D01*
Y7401081D01*
X5046634D01*
Y7393093D01*
X5050628D01*
Y7377116D01*
X5054622D01*
Y7337174D01*
X5050628D01*
Y7309215D01*
X5046634D01*
Y7293238D01*
X5042640D01*
Y7277262D01*
X5038645D01*
Y7249302D01*
X5034651D01*
Y7233325D01*
X5030657D01*
Y7209360D01*
X5026663D01*
Y7193384D01*
X5022669D01*
Y7173413D01*
X5018674D01*
Y7149447D01*
X5014680D01*
Y7137465D01*
X5010686D01*
Y7121488D01*
X5006692D01*
Y7113500D01*
X5002698D01*
Y7105512D01*
X4998703D01*
Y7097523D01*
X4994709D01*
Y7093529D01*
X4990715D01*
Y7085541D01*
X4986721D01*
Y7081546D01*
X4982727D01*
Y7077552D01*
X4978733D01*
Y7073558D01*
X4974738D01*
Y7069564D01*
X4966750D01*
Y7065570D01*
X4962756D01*
Y7061575D01*
X4958762D01*
Y7057581D01*
X4946779D01*
Y7053587D01*
X4942785D01*
Y7049593D01*
X4930802D01*
Y7045599D01*
X4910831D01*
Y7041605D01*
X4171907D01*
Y7037611D01*
X4167913D01*
Y7013645D01*
X4163919D01*
Y6997669D01*
X4159924D01*
Y6977697D01*
X4155930D01*
Y6957727D01*
X4151936D01*
Y6941750D01*
X4147942D01*
Y6917785D01*
X4143948D01*
Y6901808D01*
X4139954D01*
Y6877843D01*
X4135959D01*
Y6861866D01*
X4131965D01*
Y6845890D01*
X4127971D01*
Y6817930D01*
X4123977D01*
Y6805948D01*
X4119983D01*
Y6781982D01*
X4111994D01*
Y6777988D01*
X3928262D01*
Y6781982D01*
X3920273D01*
Y6793965D01*
X3924267D01*
Y6809942D01*
X3928262D01*
Y6833907D01*
X3932256D01*
Y6849884D01*
X3936250D01*
Y6873849D01*
X3940244D01*
Y6893820D01*
X3944238D01*
Y6909796D01*
X3948233D01*
Y6933762D01*
X3952227D01*
Y6949738D01*
X3956221D01*
Y6973703D01*
X3960215D01*
Y6989680D01*
X3964209D01*
Y7009651D01*
X3968204D01*
Y7033616D01*
X3972198D01*
Y7045599D01*
X3976192D01*
Y7073558D01*
X3980186D01*
Y7089535D01*
X3984180D01*
Y7113500D01*
X3988174D01*
Y7129477D01*
X3992169D01*
Y7145453D01*
X3996163D01*
Y7169418D01*
X4000157D01*
Y7177407D01*
X4004151D01*
Y7181401D01*
X4822959D01*
Y7185395D01*
X4826954D01*
Y7205366D01*
X4830948D01*
Y7225337D01*
X4834942D01*
Y7237320D01*
X4838936D01*
Y7265279D01*
X4842930D01*
Y7277262D01*
X4846925D01*
Y7297233D01*
X3001610D01*
Y7289244D01*
X2997616D01*
Y7265279D01*
X2993622D01*
Y7249302D01*
X2989628D01*
Y7225337D01*
X2985634D01*
Y7209360D01*
X2981640D01*
Y7193384D01*
X2977645D01*
Y7185395D01*
X2981640D01*
Y7181401D01*
X3788465D01*
Y7177407D01*
X3792459D01*
Y7165424D01*
X3788465D01*
Y7149447D01*
X3784471D01*
Y7125483D01*
X3780477D01*
Y7109506D01*
X3776483D01*
Y7085541D01*
X3772489D01*
Y7065570D01*
X3768494D01*
Y7049593D01*
X3764500D01*
Y7025628D01*
X3760506D01*
Y7009651D01*
X3756512D01*
Y6985686D01*
X3752518D01*
Y6969709D01*
X3748523D01*
Y6949738D01*
X3744529D01*
Y6925773D01*
X3740535D01*
Y6913791D01*
X3736541D01*
Y6885831D01*
X3732547D01*
Y6873849D01*
X3728552D01*
Y6857872D01*
X3724558D01*
Y6849884D01*
X3720564D01*
Y6841895D01*
X3716570D01*
Y6833907D01*
X3712576D01*
Y6829913D01*
X3708581D01*
Y6821924D01*
X3704587D01*
Y6817930D01*
X3700593D01*
Y6813936D01*
X3696599D01*
Y6809942D01*
X3692605D01*
Y6805948D01*
X3688611D01*
Y6801953D01*
X3684616D01*
Y6797959D01*
X3676628D01*
Y6793965D01*
X3668640D01*
Y6789971D01*
X3656657D01*
Y6785977D01*
X3644674D01*
Y6781982D01*
X3608727D01*
Y6777988D01*
X2710035D01*
Y6781982D01*
X2706041D01*
Y6777988D01*
X2698053D01*
Y6781982D01*
X2694058D01*
Y6785977D01*
X2690064D01*
Y6789971D01*
X2694058D01*
Y6805948D01*
X2698053D01*
Y6817930D01*
X2702047D01*
Y6845890D01*
X2706041D01*
Y6857872D01*
X2710035D01*
Y6885831D01*
X2714029D01*
Y6901808D01*
X2718023D01*
Y6909796D01*
X2722017D01*
Y6913791D01*
X3540826D01*
Y6917785D01*
X3544820D01*
Y6941750D01*
X3548814D01*
Y6953733D01*
X3552808D01*
Y6961721D01*
Y6965715D01*
Y6977697D01*
X3556802D01*
Y6997669D01*
X3560797D01*
Y7009651D01*
X3564791D01*
Y7041605D01*
X2749977D01*
Y7045599D01*
X2745983D01*
Y7057581D01*
X2749977D01*
Y7081546D01*
X2753971D01*
Y7097523D01*
X2757965D01*
Y7121488D01*
X2761959D01*
Y7137465D01*
X2765954D01*
Y7157436D01*
X2769948D01*
Y7181401D01*
X2773942D01*
Y7197378D01*
X2777936D01*
Y7221343D01*
X2781930D01*
Y7237320D01*
X2785925D01*
Y7261285D01*
X2789919D01*
Y7281256D01*
X2793913D01*
Y7297233D01*
X2797907D01*
Y7321198D01*
X2801901D01*
Y7333180D01*
X2805895D01*
Y7353151D01*
X2809889D01*
Y7361139D01*
X2813884D01*
Y7369128D01*
X2817878D01*
Y7377116D01*
X2821872D01*
Y7381110D01*
X2825866D01*
Y7389099D01*
X2829860D01*
Y7393093D01*
X2833855D01*
Y7397087D01*
X2837849D01*
Y7401081D01*
X2841843D01*
Y7405076D01*
X2845837D01*
Y7409070D01*
X2849831D01*
Y7413064D01*
X2857820D01*
Y7417058D01*
X2861814D01*
Y7421052D01*
X2873797D01*
Y7425046D01*
X2881785D01*
Y7429041D01*
X2897762D01*
Y7433035D01*
X4998703D01*
Y7429041D01*
D02*
G37*
G36*
X1695512Y7409070D02*
X1691518D01*
Y7397087D01*
X1687523D01*
Y7373122D01*
X1683529D01*
Y7353151D01*
X1679535D01*
Y7337174D01*
X1675541D01*
Y7309215D01*
X1671547D01*
Y7297233D01*
X1667552D01*
Y7269273D01*
X1663558D01*
Y7253296D01*
X1659564D01*
Y7237320D01*
X1655570D01*
Y7213355D01*
X1651576D01*
Y7197378D01*
X1647581D01*
Y7173413D01*
X1643587D01*
Y7157436D01*
X1639593D01*
Y7133471D01*
X1635599D01*
Y7113500D01*
X1631605D01*
Y7097523D01*
X1627611D01*
Y7073558D01*
X1623616D01*
Y7057581D01*
X1619622D01*
Y7033616D01*
X1615628D01*
Y7017640D01*
X1611634D01*
Y6997669D01*
X1607640D01*
Y6973703D01*
X1603646D01*
Y6961721D01*
X1599651D01*
Y6933762D01*
X1595657D01*
Y6921779D01*
X1591663D01*
Y6897814D01*
X1587669D01*
Y6877843D01*
X1583675D01*
Y6861866D01*
X1579680D01*
Y6833907D01*
X1575686D01*
Y6821924D01*
X1571692D01*
Y6797959D01*
X1567698D01*
Y6781982D01*
X1555715D01*
Y6777988D01*
X1371983D01*
Y6781982D01*
X1360000D01*
Y6801953D01*
X1363994D01*
Y6805948D01*
X1367988D01*
Y6829913D01*
X1371983D01*
Y6849884D01*
X1375977D01*
Y6865860D01*
X1379971D01*
Y6893820D01*
X1383965D01*
Y6905802D01*
X1387959D01*
Y6933762D01*
X1391954D01*
Y6949738D01*
X1395948D01*
Y6965715D01*
X1399942D01*
Y6989680D01*
X1403936D01*
Y7005657D01*
X1407930D01*
Y7033616D01*
X1411925D01*
Y7045599D01*
X1415919D01*
Y7069564D01*
X1419913D01*
Y7089535D01*
X1423907D01*
Y7105512D01*
X1427901D01*
Y7129477D01*
X1431896D01*
Y7145453D01*
X1435890D01*
Y7169418D01*
X1439884D01*
Y7185395D01*
X1443878D01*
Y7205366D01*
X1447872D01*
Y7229331D01*
X1451866D01*
Y7241314D01*
X1455860D01*
Y7269273D01*
X1459855D01*
Y7285250D01*
X1463849D01*
Y7305221D01*
X1467843D01*
Y7325192D01*
X1471837D01*
Y7341168D01*
X1475831D01*
Y7369128D01*
X1479826D01*
Y7381110D01*
X1483820D01*
Y7409070D01*
X1487814D01*
Y7425046D01*
X1491808D01*
Y7429041D01*
X1495802D01*
Y7433035D01*
X1695512D01*
Y7409070D01*
D02*
G37*
G36*
X8016675Y5778747D02*
X8017160D01*
X8018477Y5778609D01*
X8019934Y5778401D01*
X8021459Y5778054D01*
X8023123Y5777638D01*
X8024649Y5777083D01*
X8024718D01*
X8024857Y5777014D01*
X8025065Y5776875D01*
X8025342Y5776736D01*
X8026036Y5776390D01*
X8026937Y5775766D01*
X8027977Y5775072D01*
X8029017Y5774171D01*
X8029988Y5773131D01*
X8030890Y5771952D01*
Y5771883D01*
X8030959Y5771813D01*
X8031098Y5771605D01*
X8031236Y5771397D01*
X8031583Y5770704D01*
X8031999Y5769802D01*
X8032485Y5768693D01*
X8032831Y5767375D01*
X8033178Y5765988D01*
X8033317Y5764463D01*
X8027215Y5763978D01*
Y5764047D01*
Y5764186D01*
X8027145Y5764394D01*
X8027076Y5764740D01*
X8026868Y5765503D01*
X8026590Y5766543D01*
X8026174Y5767653D01*
X8025550Y5768762D01*
X8024788Y5769802D01*
X8023817Y5770773D01*
X8023678Y5770842D01*
X8023331Y5771120D01*
X8022638Y5771536D01*
X8021737Y5771952D01*
X8020558Y5772368D01*
X8019171Y5772784D01*
X8017437Y5773061D01*
X8015496Y5773131D01*
X8014525D01*
X8014109Y5773061D01*
X8013554Y5772992D01*
X8012306Y5772853D01*
X8010919Y5772576D01*
X8009532Y5772229D01*
X8008215Y5771675D01*
X8007660Y5771328D01*
X8007105Y5770981D01*
X8006967Y5770912D01*
X8006689Y5770634D01*
X8006273Y5770149D01*
X8005857Y5769594D01*
X8005372Y5768831D01*
X8004956Y5767999D01*
X8004678Y5767029D01*
X8004540Y5765919D01*
Y5765780D01*
Y5765503D01*
X8004609Y5765018D01*
X8004748Y5764463D01*
X8004956Y5763770D01*
X8005303Y5763076D01*
X8005719Y5762383D01*
X8006343Y5761689D01*
X8006412Y5761620D01*
X8006759Y5761412D01*
X8007036Y5761204D01*
X8007313Y5761065D01*
X8007729Y5760857D01*
X8008215Y5760580D01*
X8008839Y5760372D01*
X8009532Y5760094D01*
X8010295Y5759817D01*
X8011197Y5759470D01*
X8012167Y5759193D01*
X8013277Y5758846D01*
X8014525Y5758569D01*
X8015912Y5758222D01*
X8015981D01*
X8016259Y5758153D01*
X8016675Y5758083D01*
X8017160Y5757945D01*
X8017784Y5757806D01*
X8018547Y5757598D01*
X8019310Y5757390D01*
X8020142Y5757182D01*
X8021945Y5756697D01*
X8023678Y5756211D01*
X8024510Y5755934D01*
X8025273Y5755657D01*
X8025966Y5755448D01*
X8026521Y5755171D01*
X8026590D01*
X8026729Y5755102D01*
X8026937Y5754963D01*
X8027215Y5754824D01*
X8027977Y5754408D01*
X8028879Y5753854D01*
X8029919Y5753091D01*
X8030959Y5752259D01*
X8031930Y5751288D01*
X8032762Y5750248D01*
X8032831Y5750109D01*
X8033109Y5749762D01*
X8033386Y5749138D01*
X8033802Y5748306D01*
X8034149Y5747335D01*
X8034495Y5746157D01*
X8034704Y5744839D01*
X8034773Y5743452D01*
Y5743383D01*
Y5743314D01*
Y5743106D01*
Y5742828D01*
X8034634Y5742065D01*
X8034495Y5741095D01*
X8034218Y5739985D01*
X8033871Y5738806D01*
X8033317Y5737558D01*
X8032554Y5736241D01*
Y5736171D01*
X8032485Y5736102D01*
X8032138Y5735686D01*
X8031652Y5735062D01*
X8030959Y5734369D01*
X8030058Y5733536D01*
X8028948Y5732635D01*
X8027700Y5731803D01*
X8026244Y5731040D01*
X8026174D01*
X8026036Y5730971D01*
X8025828Y5730901D01*
X8025550Y5730763D01*
X8025134Y5730624D01*
X8024649Y5730416D01*
X8023539Y5730139D01*
X8022222Y5729792D01*
X8020627Y5729445D01*
X8018894Y5729237D01*
X8017021Y5729168D01*
X8015912D01*
X8015357Y5729237D01*
X8014733D01*
X8014040Y5729307D01*
X8013207Y5729376D01*
X8011474Y5729653D01*
X8009671Y5729931D01*
X8007868Y5730416D01*
X8006135Y5731040D01*
X8006065D01*
X8005927Y5731109D01*
X8005719Y5731248D01*
X8005441Y5731387D01*
X8004609Y5731803D01*
X8003638Y5732427D01*
X8002529Y5733259D01*
X8001350Y5734230D01*
X8000241Y5735409D01*
X7999200Y5736726D01*
Y5736795D01*
X7999062Y5736934D01*
X7998992Y5737142D01*
X7998784Y5737420D01*
X7998646Y5737766D01*
X7998438Y5738182D01*
X7997952Y5739222D01*
X7997467Y5740540D01*
X7997051Y5741996D01*
X7996773Y5743660D01*
X7996635Y5745394D01*
X8002598Y5745949D01*
Y5745879D01*
Y5745810D01*
X8002668Y5745602D01*
Y5745325D01*
X8002806Y5744700D01*
X8003014Y5743799D01*
X8003292Y5742898D01*
X8003569Y5741857D01*
X8004054Y5740887D01*
X8004540Y5739985D01*
X8004609Y5739916D01*
X8004817Y5739639D01*
X8005164Y5739153D01*
X8005719Y5738668D01*
X8006412Y5738044D01*
X8007175Y5737420D01*
X8008215Y5736795D01*
X8009324Y5736241D01*
X8009394D01*
X8009463Y5736171D01*
X8009671Y5736102D01*
X8009879Y5736033D01*
X8010572Y5735825D01*
X8011474Y5735547D01*
X8012583Y5735270D01*
X8013832Y5735062D01*
X8015218Y5734923D01*
X8016744Y5734854D01*
X8017368D01*
X8018061Y5734923D01*
X8018894Y5734993D01*
X8019864Y5735131D01*
X8020974Y5735270D01*
X8022083Y5735547D01*
X8023123Y5735894D01*
X8023262Y5735963D01*
X8023609Y5736102D01*
X8024094Y5736379D01*
X8024718Y5736657D01*
X8025342Y5737142D01*
X8026036Y5737628D01*
X8026729Y5738182D01*
X8027284Y5738876D01*
X8027353Y5738945D01*
X8027492Y5739222D01*
X8027700Y5739569D01*
X8027977Y5740124D01*
X8028255Y5740679D01*
X8028463Y5741372D01*
X8028601Y5742135D01*
X8028671Y5742967D01*
Y5743036D01*
Y5743383D01*
X8028601Y5743799D01*
X8028532Y5744354D01*
X8028324Y5744908D01*
X8028116Y5745602D01*
X8027769Y5746295D01*
X8027284Y5746919D01*
X8027215Y5746989D01*
X8027007Y5747197D01*
X8026729Y5747474D01*
X8026244Y5747890D01*
X8025689Y5748306D01*
X8024926Y5748792D01*
X8024025Y5749277D01*
X8022985Y5749693D01*
X8022915Y5749762D01*
X8022569Y5749832D01*
X8022014Y5750040D01*
X8021667Y5750109D01*
X8021182Y5750248D01*
X8020696Y5750456D01*
X8020072Y5750595D01*
X8019379Y5750803D01*
X8018547Y5751011D01*
X8017715Y5751219D01*
X8016744Y5751496D01*
X8015634Y5751773D01*
X8014456Y5752051D01*
X8014386D01*
X8014178Y5752120D01*
X8013832Y5752189D01*
X8013416Y5752328D01*
X8012861Y5752467D01*
X8012237Y5752605D01*
X8010850Y5753022D01*
X8009324Y5753507D01*
X8007729Y5753992D01*
X8006343Y5754478D01*
X8005719Y5754755D01*
X8005164Y5755032D01*
X8005094D01*
X8005025Y5755102D01*
X8004609Y5755379D01*
X8003985Y5755726D01*
X8003292Y5756281D01*
X8002459Y5756905D01*
X8001627Y5757667D01*
X8000795Y5758569D01*
X8000102Y5759540D01*
X8000033Y5759678D01*
X7999824Y5760025D01*
X7999547Y5760580D01*
X7999270Y5761273D01*
X7998992Y5762175D01*
X7998715Y5763215D01*
X7998507Y5764324D01*
X7998438Y5765503D01*
Y5765572D01*
Y5765642D01*
Y5765850D01*
Y5766127D01*
X7998576Y5766821D01*
X7998715Y5767722D01*
X7998923Y5768762D01*
X7999270Y5769941D01*
X7999755Y5771120D01*
X8000449Y5772299D01*
Y5772368D01*
X8000518Y5772437D01*
X8000865Y5772853D01*
X8001350Y5773408D01*
X8001974Y5774101D01*
X8002806Y5774864D01*
X8003846Y5775696D01*
X8005094Y5776459D01*
X8006481Y5777153D01*
X8006551D01*
X8006689Y5777222D01*
X8006897Y5777291D01*
X8007175Y5777430D01*
X8007521Y5777569D01*
X8008007Y5777707D01*
X8009047Y5777985D01*
X8010364Y5778262D01*
X8011890Y5778539D01*
X8013485Y5778747D01*
X8015288Y5778817D01*
X8016189D01*
X8016675Y5778747D01*
D02*
G37*
G36*
X8064590Y5755171D02*
X8082549Y5730000D01*
X8074714D01*
X8062579Y5747058D01*
X8062510Y5747127D01*
X8062371Y5747335D01*
X8062232Y5747613D01*
X8061955Y5747960D01*
X8061331Y5748930D01*
X8060637Y5749970D01*
X8060568Y5749901D01*
X8060360Y5749624D01*
X8060083Y5749208D01*
X8059736Y5748653D01*
X8058973Y5747543D01*
X8058627Y5747058D01*
X8058349Y5746642D01*
X8046214Y5730000D01*
X8038587D01*
X8057101Y5754824D01*
X8040736Y5777985D01*
X8048295D01*
X8057032Y5765642D01*
Y5765572D01*
X8057170Y5765503D01*
X8057309Y5765295D01*
X8057517Y5765018D01*
X8057933Y5764324D01*
X8058557Y5763492D01*
X8059181Y5762521D01*
X8059805Y5761551D01*
X8060360Y5760649D01*
X8060845Y5759817D01*
X8060915Y5759956D01*
X8061123Y5760233D01*
X8061470Y5760788D01*
X8061955Y5761481D01*
X8062510Y5762244D01*
X8063203Y5763215D01*
X8063896Y5764186D01*
X8064729Y5765226D01*
X8074298Y5777985D01*
X8081232D01*
X8064590Y5755171D01*
D02*
G37*
G36*
X7861973Y5750317D02*
Y5730000D01*
X7855593D01*
Y5750317D01*
X7837079Y5777985D01*
X7844776D01*
X7854206Y5763423D01*
Y5763353D01*
X7854345Y5763215D01*
X7854484Y5763007D01*
X7854622Y5762729D01*
X7854900Y5762383D01*
X7855177Y5761967D01*
X7855801Y5760927D01*
X7856564Y5759678D01*
X7857396Y5758292D01*
X7858297Y5756835D01*
X7859130Y5755310D01*
Y5755379D01*
X7859199Y5755518D01*
X7859338Y5755726D01*
X7859546Y5756003D01*
X7859754Y5756350D01*
X7860031Y5756766D01*
X7860655Y5757806D01*
X7861418Y5759054D01*
X7862319Y5760510D01*
X7863359Y5762105D01*
X7864469Y5763839D01*
X7873691Y5777985D01*
X7881111D01*
X7861973Y5750317D01*
D02*
G37*
G36*
X7901498Y5778123D02*
X7902052Y5778054D01*
X7902746Y5777985D01*
X7903508Y5777846D01*
X7904271Y5777707D01*
X7906074Y5777222D01*
X7907877Y5776528D01*
X7908778Y5776112D01*
X7909680Y5775627D01*
X7910512Y5775003D01*
X7911275Y5774310D01*
X7911344Y5774240D01*
X7911483Y5774171D01*
X7911621Y5773893D01*
X7911899Y5773616D01*
X7912246Y5773269D01*
X7912592Y5772784D01*
X7912939Y5772299D01*
X7913355Y5771675D01*
X7914048Y5770357D01*
X7914742Y5768693D01*
X7915019Y5767861D01*
X7915158Y5766890D01*
X7915297Y5765919D01*
X7915366Y5764879D01*
Y5764740D01*
Y5764394D01*
X7915297Y5763839D01*
X7915227Y5763076D01*
X7915089Y5762244D01*
X7914811Y5761273D01*
X7914534Y5760233D01*
X7914118Y5759193D01*
X7914048Y5759054D01*
X7913910Y5758708D01*
X7913632Y5758153D01*
X7913216Y5757390D01*
X7912662Y5756558D01*
X7911968Y5755518D01*
X7911136Y5754478D01*
X7910165Y5753299D01*
X7910027Y5753160D01*
X7909680Y5752744D01*
X7909333Y5752397D01*
X7908986Y5752051D01*
X7908570Y5751635D01*
X7908016Y5751080D01*
X7907461Y5750525D01*
X7906768Y5749901D01*
X7906074Y5749208D01*
X7905242Y5748445D01*
X7904341Y5747682D01*
X7903370Y5746781D01*
X7902260Y5745879D01*
X7901151Y5744908D01*
X7901081Y5744839D01*
X7900943Y5744700D01*
X7900665Y5744492D01*
X7900319Y5744215D01*
X7899903Y5743799D01*
X7899417Y5743383D01*
X7898308Y5742482D01*
X7897129Y5741441D01*
X7896020Y5740401D01*
X7895049Y5739500D01*
X7894633Y5739153D01*
X7894286Y5738806D01*
X7894217Y5738737D01*
X7894009Y5738529D01*
X7893731Y5738252D01*
X7893385Y5737836D01*
X7893038Y5737350D01*
X7892622Y5736865D01*
X7891790Y5735686D01*
X7915435D01*
Y5730000D01*
X7883607D01*
Y5730069D01*
Y5730347D01*
Y5730763D01*
X7883677Y5731317D01*
X7883746Y5731942D01*
X7883885Y5732635D01*
X7884023Y5733328D01*
X7884301Y5734091D01*
Y5734160D01*
X7884370Y5734230D01*
X7884509Y5734646D01*
X7884786Y5735270D01*
X7885202Y5736102D01*
X7885757Y5737073D01*
X7886450Y5738182D01*
X7887213Y5739292D01*
X7888184Y5740471D01*
Y5740540D01*
X7888323Y5740609D01*
X7888669Y5741025D01*
X7889293Y5741649D01*
X7890195Y5742551D01*
X7891235Y5743591D01*
X7892552Y5744839D01*
X7894147Y5746226D01*
X7895881Y5747682D01*
X7895950Y5747752D01*
X7896228Y5747960D01*
X7896644Y5748306D01*
X7897129Y5748722D01*
X7897753Y5749277D01*
X7898516Y5749901D01*
X7899279Y5750595D01*
X7900180Y5751357D01*
X7901914Y5753022D01*
X7903647Y5754686D01*
X7904479Y5755518D01*
X7905242Y5756350D01*
X7905935Y5757113D01*
X7906490Y5757875D01*
Y5757945D01*
X7906629Y5758014D01*
X7906768Y5758222D01*
X7906906Y5758500D01*
X7907392Y5759262D01*
X7907946Y5760164D01*
X7908432Y5761273D01*
X7908917Y5762452D01*
X7909194Y5763770D01*
X7909333Y5765018D01*
Y5765087D01*
Y5765156D01*
X7909264Y5765572D01*
X7909194Y5766266D01*
X7908986Y5767029D01*
X7908709Y5767999D01*
X7908224Y5768970D01*
X7907600Y5769941D01*
X7906768Y5770912D01*
X7906629Y5771050D01*
X7906282Y5771328D01*
X7905797Y5771675D01*
X7905034Y5772160D01*
X7904063Y5772576D01*
X7902954Y5772992D01*
X7901636Y5773269D01*
X7900180Y5773339D01*
X7899764D01*
X7899487Y5773269D01*
X7898655Y5773200D01*
X7897684Y5772992D01*
X7896644Y5772715D01*
X7895465Y5772229D01*
X7894355Y5771605D01*
X7893315Y5770773D01*
X7893176Y5770634D01*
X7892899Y5770288D01*
X7892483Y5769733D01*
X7892067Y5768901D01*
X7891582Y5767930D01*
X7891166Y5766682D01*
X7890888Y5765295D01*
X7890750Y5763700D01*
X7884717Y5764324D01*
Y5764394D01*
X7884786Y5764602D01*
Y5764948D01*
X7884855Y5765434D01*
X7884994Y5765988D01*
X7885133Y5766613D01*
X7885341Y5767375D01*
X7885549Y5768138D01*
X7886104Y5769802D01*
X7886936Y5771466D01*
X7887421Y5772299D01*
X7888045Y5773131D01*
X7888669Y5773893D01*
X7889363Y5774587D01*
X7889432Y5774656D01*
X7889571Y5774726D01*
X7889779Y5774934D01*
X7890125Y5775142D01*
X7890541Y5775419D01*
X7891027Y5775696D01*
X7891582Y5776043D01*
X7892275Y5776390D01*
X7893038Y5776736D01*
X7893870Y5777083D01*
X7894771Y5777361D01*
X7895742Y5777638D01*
X7896782Y5777846D01*
X7897892Y5778054D01*
X7899071Y5778123D01*
X7900319Y5778193D01*
X7901012D01*
X7901498Y5778123D01*
D02*
G37*
G36*
X7784864Y5730000D02*
X7777653D01*
X7772036Y5744562D01*
X7751927D01*
X7746726Y5730000D01*
X7740000D01*
X7758306Y5777985D01*
X7765241D01*
X7784864Y5730000D01*
D02*
G37*
G36*
X7976110Y5778123D02*
X7977011Y5777985D01*
X7978051Y5777777D01*
X7979161Y5777499D01*
X7980339Y5777153D01*
X7981449Y5776598D01*
X7981518D01*
X7981588Y5776528D01*
X7981934Y5776320D01*
X7982489Y5775974D01*
X7983182Y5775488D01*
X7983945Y5774795D01*
X7984777Y5774032D01*
X7985540Y5773131D01*
X7986303Y5772091D01*
X7986372Y5771952D01*
X7986650Y5771605D01*
X7986927Y5770981D01*
X7987412Y5770080D01*
X7987828Y5769040D01*
X7988383Y5767861D01*
X7988868Y5766474D01*
X7989285Y5764948D01*
Y5764879D01*
X7989354Y5764740D01*
X7989423Y5764532D01*
X7989493Y5764186D01*
X7989562Y5763770D01*
X7989631Y5763284D01*
X7989770Y5762660D01*
X7989839Y5761967D01*
X7989978Y5761204D01*
X7990047Y5760372D01*
X7990117Y5759401D01*
X7990255Y5758430D01*
X7990325Y5757321D01*
Y5756211D01*
X7990394Y5754963D01*
Y5753646D01*
Y5753576D01*
Y5753299D01*
Y5752813D01*
Y5752259D01*
X7990325Y5751496D01*
Y5750664D01*
X7990255Y5749762D01*
X7990186Y5748792D01*
X7989978Y5746573D01*
X7989631Y5744284D01*
X7989215Y5742065D01*
X7988938Y5741025D01*
X7988591Y5739985D01*
Y5739916D01*
X7988522Y5739777D01*
X7988383Y5739500D01*
X7988244Y5739153D01*
X7988106Y5738668D01*
X7987828Y5738182D01*
X7987274Y5737004D01*
X7986580Y5735755D01*
X7985679Y5734369D01*
X7984639Y5733120D01*
X7983390Y5731942D01*
X7983321D01*
X7983252Y5731803D01*
X7983044Y5731664D01*
X7982766Y5731525D01*
X7982420Y5731317D01*
X7982073Y5731040D01*
X7981033Y5730555D01*
X7979785Y5730069D01*
X7978328Y5729584D01*
X7976595Y5729307D01*
X7974723Y5729168D01*
X7974029D01*
X7973544Y5729237D01*
X7972989Y5729307D01*
X7972296Y5729445D01*
X7971533Y5729584D01*
X7970701Y5729792D01*
X7969869Y5730069D01*
X7968967Y5730347D01*
X7968066Y5730763D01*
X7967164Y5731248D01*
X7966263Y5731803D01*
X7965362Y5732496D01*
X7964529Y5733259D01*
X7963767Y5734091D01*
X7963697Y5734160D01*
X7963559Y5734369D01*
X7963351Y5734715D01*
X7963004Y5735270D01*
X7962657Y5735894D01*
X7962310Y5736726D01*
X7961825Y5737697D01*
X7961409Y5738806D01*
X7960993Y5740055D01*
X7960577Y5741511D01*
X7960161Y5743106D01*
X7959814Y5744908D01*
X7959467Y5746850D01*
X7959259Y5748930D01*
X7959121Y5751219D01*
X7959051Y5753646D01*
Y5753715D01*
Y5753992D01*
Y5754478D01*
Y5755032D01*
X7959121Y5755795D01*
Y5756627D01*
X7959190Y5757529D01*
X7959259Y5758569D01*
X7959467Y5760718D01*
X7959814Y5763007D01*
X7960230Y5765295D01*
X7960508Y5766335D01*
X7960785Y5767375D01*
Y5767445D01*
X7960854Y5767583D01*
X7960993Y5767861D01*
X7961132Y5768207D01*
X7961270Y5768693D01*
X7961548Y5769178D01*
X7962102Y5770357D01*
X7962796Y5771605D01*
X7963697Y5772923D01*
X7964737Y5774240D01*
X7965986Y5775350D01*
X7966055D01*
X7966124Y5775488D01*
X7966332Y5775627D01*
X7966610Y5775766D01*
X7966956Y5776043D01*
X7967372Y5776251D01*
X7968413Y5776806D01*
X7969661Y5777291D01*
X7971117Y5777777D01*
X7972850Y5778054D01*
X7974723Y5778193D01*
X7975347D01*
X7976110Y5778123D01*
D02*
G37*
G36*
X7938387D02*
X7938942Y5778054D01*
X7939566Y5777985D01*
X7940260Y5777915D01*
X7940953Y5777707D01*
X7942617Y5777291D01*
X7944282Y5776667D01*
X7945114Y5776251D01*
X7945946Y5775766D01*
X7946709Y5775142D01*
X7947471Y5774518D01*
X7947541Y5774448D01*
X7947610Y5774379D01*
X7947818Y5774171D01*
X7948095Y5773893D01*
X7948373Y5773477D01*
X7948719Y5773061D01*
X7949413Y5772021D01*
X7950106Y5770704D01*
X7950730Y5769178D01*
X7951216Y5767445D01*
X7951285Y5766543D01*
X7951354Y5765572D01*
Y5765503D01*
Y5765434D01*
Y5765018D01*
X7951285Y5764394D01*
X7951146Y5763631D01*
X7950938Y5762660D01*
X7950592Y5761689D01*
X7950176Y5760718D01*
X7949552Y5759748D01*
X7949482Y5759609D01*
X7949205Y5759332D01*
X7948789Y5758916D01*
X7948234Y5758361D01*
X7947471Y5757737D01*
X7946570Y5757113D01*
X7945530Y5756489D01*
X7944282Y5755934D01*
X7944351D01*
X7944490Y5755865D01*
X7944698Y5755795D01*
X7944975Y5755657D01*
X7945807Y5755310D01*
X7946778Y5754824D01*
X7947818Y5754131D01*
X7948927Y5753368D01*
X7949968Y5752397D01*
X7950938Y5751288D01*
Y5751219D01*
X7951008Y5751149D01*
X7951285Y5750733D01*
X7951701Y5750040D01*
X7952117Y5749138D01*
X7952533Y5748029D01*
X7952949Y5746711D01*
X7953227Y5745255D01*
X7953296Y5743660D01*
Y5743591D01*
Y5743383D01*
Y5743036D01*
X7953227Y5742620D01*
X7953157Y5742135D01*
X7953088Y5741511D01*
X7952949Y5740817D01*
X7952741Y5740055D01*
X7952256Y5738460D01*
X7951909Y5737558D01*
X7951424Y5736726D01*
X7950938Y5735825D01*
X7950384Y5734993D01*
X7949690Y5734160D01*
X7948927Y5733328D01*
X7948858Y5733259D01*
X7948719Y5733120D01*
X7948511Y5732912D01*
X7948165Y5732704D01*
X7947679Y5732358D01*
X7947194Y5732011D01*
X7946570Y5731664D01*
X7945876Y5731248D01*
X7945114Y5730832D01*
X7944212Y5730485D01*
X7943241Y5730139D01*
X7942271Y5729792D01*
X7941161Y5729584D01*
X7939982Y5729376D01*
X7938804Y5729237D01*
X7937486Y5729168D01*
X7936793D01*
X7936307Y5729237D01*
X7935683Y5729307D01*
X7934990Y5729376D01*
X7934227Y5729515D01*
X7933395Y5729723D01*
X7931523Y5730208D01*
X7930552Y5730555D01*
X7929650Y5730901D01*
X7928680Y5731387D01*
X7927709Y5731942D01*
X7926807Y5732566D01*
X7925975Y5733328D01*
X7925906Y5733398D01*
X7925767Y5733536D01*
X7925559Y5733744D01*
X7925282Y5734091D01*
X7925004Y5734507D01*
X7924588Y5734993D01*
X7924242Y5735547D01*
X7923826Y5736241D01*
X7923410Y5736934D01*
X7923063Y5737766D01*
X7922369Y5739500D01*
X7922092Y5740540D01*
X7921884Y5741580D01*
X7921745Y5742690D01*
X7921676Y5743799D01*
Y5743868D01*
Y5744007D01*
Y5744284D01*
X7921745Y5744562D01*
Y5744978D01*
X7921815Y5745463D01*
X7921953Y5746573D01*
X7922231Y5747821D01*
X7922647Y5749069D01*
X7923271Y5750387D01*
X7924034Y5751635D01*
Y5751704D01*
X7924172Y5751773D01*
X7924450Y5752120D01*
X7925004Y5752675D01*
X7925767Y5753368D01*
X7926738Y5754062D01*
X7927917Y5754824D01*
X7929234Y5755448D01*
X7930829Y5755934D01*
X7930760D01*
X7930691Y5756003D01*
X7930482Y5756073D01*
X7930205Y5756211D01*
X7929581Y5756489D01*
X7928749Y5756905D01*
X7927847Y5757459D01*
X7926946Y5758153D01*
X7926114Y5758916D01*
X7925351Y5759748D01*
X7925282Y5759886D01*
X7925074Y5760164D01*
X7924796Y5760718D01*
X7924519Y5761412D01*
X7924172Y5762313D01*
X7923895Y5763353D01*
X7923687Y5764532D01*
X7923618Y5765780D01*
Y5765850D01*
Y5765988D01*
Y5766266D01*
X7923687Y5766682D01*
X7923756Y5767098D01*
X7923826Y5767653D01*
X7924103Y5768831D01*
X7924519Y5770218D01*
X7925212Y5771675D01*
X7925629Y5772437D01*
X7926114Y5773200D01*
X7926738Y5773893D01*
X7927362Y5774587D01*
X7927431Y5774656D01*
X7927570Y5774726D01*
X7927778Y5774934D01*
X7928056Y5775142D01*
X7928402Y5775419D01*
X7928888Y5775696D01*
X7929442Y5776043D01*
X7929997Y5776390D01*
X7930691Y5776736D01*
X7931453Y5777083D01*
X7932285Y5777361D01*
X7933187Y5777638D01*
X7935128Y5778054D01*
X7936238Y5778123D01*
X7937347Y5778193D01*
X7937971D01*
X7938387Y5778123D01*
D02*
G37*
G36*
X7811769Y5778747D02*
X7812393D01*
X7813017Y5778678D01*
X7813849Y5778539D01*
X7814681Y5778401D01*
X7816484Y5778054D01*
X7818564Y5777499D01*
X7820575Y5776667D01*
X7821616Y5776182D01*
X7822656Y5775627D01*
X7822725Y5775558D01*
X7822864Y5775488D01*
X7823141Y5775280D01*
X7823557Y5775072D01*
X7823973Y5774726D01*
X7824528Y5774310D01*
X7825707Y5773339D01*
X7826955Y5772091D01*
X7828342Y5770565D01*
X7829659Y5768762D01*
X7830769Y5766751D01*
Y5766682D01*
X7830907Y5766474D01*
X7831046Y5766196D01*
X7831185Y5765780D01*
X7831462Y5765226D01*
X7831670Y5764602D01*
X7831948Y5763839D01*
X7832225Y5763007D01*
X7832433Y5762105D01*
X7832710Y5761135D01*
X7832988Y5760094D01*
X7833196Y5758985D01*
X7833473Y5756558D01*
X7833612Y5753992D01*
Y5753923D01*
Y5753715D01*
Y5753438D01*
Y5753022D01*
X7833542Y5752467D01*
Y5751843D01*
X7833473Y5751149D01*
X7833404Y5750456D01*
X7833196Y5748792D01*
X7832849Y5746989D01*
X7832433Y5745117D01*
X7831809Y5743314D01*
Y5743244D01*
X7831739Y5743106D01*
X7831601Y5742828D01*
X7831462Y5742551D01*
X7831254Y5742135D01*
X7831046Y5741649D01*
X7830491Y5740540D01*
X7829729Y5739222D01*
X7828758Y5737836D01*
X7827648Y5736449D01*
X7826400Y5735062D01*
X7826469D01*
X7826608Y5734923D01*
X7826816Y5734785D01*
X7827163Y5734577D01*
X7827510Y5734299D01*
X7827995Y5734022D01*
X7829035Y5733398D01*
X7830283Y5732635D01*
X7831670Y5731872D01*
X7833126Y5731248D01*
X7834513Y5730624D01*
X7832641Y5726256D01*
X7832572D01*
X7832433Y5726325D01*
X7832156Y5726464D01*
X7831739Y5726602D01*
X7831254Y5726810D01*
X7830699Y5727088D01*
X7830075Y5727365D01*
X7829382Y5727712D01*
X7827856Y5728544D01*
X7826123Y5729515D01*
X7824251Y5730763D01*
X7822309Y5732150D01*
X7822240D01*
X7822101Y5732011D01*
X7821754Y5731872D01*
X7821408Y5731664D01*
X7820853Y5731456D01*
X7820298Y5731179D01*
X7819605Y5730971D01*
X7818842Y5730693D01*
X7818010Y5730416D01*
X7817108Y5730139D01*
X7815097Y5729653D01*
X7812878Y5729307D01*
X7811700Y5729237D01*
X7810521Y5729168D01*
X7809897D01*
X7809411Y5729237D01*
X7808857D01*
X7808163Y5729307D01*
X7807400Y5729445D01*
X7806568Y5729584D01*
X7804765Y5729931D01*
X7802755Y5730485D01*
X7800674Y5731248D01*
X7799703Y5731734D01*
X7798663Y5732288D01*
X7798594Y5732358D01*
X7798455Y5732427D01*
X7798178Y5732635D01*
X7797831Y5732843D01*
X7797346Y5733190D01*
X7796860Y5733606D01*
X7795682Y5734577D01*
X7794364Y5735825D01*
X7793047Y5737350D01*
X7791729Y5739084D01*
X7790550Y5741095D01*
Y5741164D01*
X7790412Y5741372D01*
X7790273Y5741649D01*
X7790134Y5742065D01*
X7789926Y5742620D01*
X7789649Y5743244D01*
X7789372Y5744007D01*
X7789163Y5744839D01*
X7788886Y5745741D01*
X7788609Y5746711D01*
X7788401Y5747752D01*
X7788123Y5748930D01*
X7787846Y5751357D01*
X7787707Y5753923D01*
Y5753992D01*
Y5754270D01*
Y5754616D01*
X7787777Y5755102D01*
Y5755726D01*
X7787846Y5756489D01*
X7787915Y5757321D01*
X7788054Y5758222D01*
X7788401Y5760233D01*
X7788886Y5762383D01*
X7789580Y5764671D01*
X7790550Y5766890D01*
X7790620Y5766959D01*
X7790689Y5767167D01*
X7790828Y5767445D01*
X7791105Y5767861D01*
X7791382Y5768346D01*
X7791729Y5768901D01*
X7792700Y5770218D01*
X7793809Y5771605D01*
X7795266Y5773061D01*
X7796860Y5774518D01*
X7798733Y5775766D01*
X7798802Y5775835D01*
X7799010Y5775904D01*
X7799287Y5776043D01*
X7799703Y5776251D01*
X7800189Y5776459D01*
X7800744Y5776736D01*
X7801437Y5777014D01*
X7802200Y5777291D01*
X7803101Y5777569D01*
X7804003Y5777846D01*
X7806014Y5778331D01*
X7808233Y5778678D01*
X7809411Y5778817D01*
X7811284D01*
X7811769Y5778747D01*
D02*
G37*
G36*
X5092207Y2719102D02*
X5093476Y2718961D01*
X5095026Y2718820D01*
X5096577Y2718679D01*
X5098410Y2718256D01*
X5102216Y2717410D01*
X5106445Y2716142D01*
X5108560Y2715296D01*
X5110533Y2714309D01*
X5112507Y2713040D01*
X5114480Y2711772D01*
X5114621Y2711631D01*
X5114903Y2711490D01*
X5115467Y2711067D01*
X5116172Y2710362D01*
X5116877Y2709657D01*
X5117864Y2708670D01*
X5118850Y2707542D01*
X5119978Y2706415D01*
X5121106Y2705005D01*
X5122234Y2703313D01*
X5123502Y2701622D01*
X5124630Y2699789D01*
X5125617Y2697675D01*
X5126745Y2695560D01*
X5127590Y2693304D01*
X5128436Y2690767D01*
X5115749Y2687807D01*
Y2687948D01*
X5115608Y2688230D01*
X5115326Y2688793D01*
X5115044Y2689498D01*
X5114762Y2690344D01*
X5114339Y2691472D01*
X5113212Y2693727D01*
X5111802Y2696265D01*
X5110110Y2698802D01*
X5107996Y2701199D01*
X5105740Y2703313D01*
X5105458Y2703595D01*
X5104612Y2704159D01*
X5103203Y2704864D01*
X5101370Y2705851D01*
X5098974Y2706697D01*
X5096295Y2707542D01*
X5093053Y2708106D01*
X5089529Y2708247D01*
X5088401D01*
X5087696Y2708106D01*
X5086709D01*
X5085581Y2707965D01*
X5082903Y2707542D01*
X5079943Y2706979D01*
X5076841Y2705992D01*
X5073599Y2704582D01*
X5070639Y2702749D01*
X5070498D01*
X5070357Y2702468D01*
X5069370Y2701763D01*
X5068101Y2700635D01*
X5066550Y2698943D01*
X5064718Y2696829D01*
X5063026Y2694432D01*
X5061476Y2691472D01*
X5060066Y2688230D01*
Y2688089D01*
X5059925Y2687807D01*
X5059784Y2687384D01*
X5059643Y2686679D01*
X5059361Y2685833D01*
X5059079Y2684846D01*
X5058656Y2682450D01*
X5058092Y2679630D01*
X5057528Y2676529D01*
X5057246Y2673146D01*
X5057105Y2669481D01*
Y2669340D01*
Y2668917D01*
Y2668212D01*
Y2667366D01*
X5057246Y2666379D01*
Y2665110D01*
X5057387Y2663701D01*
X5057528Y2662150D01*
X5057951Y2658767D01*
X5058656Y2655102D01*
X5059502Y2651436D01*
X5060630Y2647771D01*
Y2647630D01*
X5060771Y2647348D01*
X5061053Y2646925D01*
X5061335Y2646221D01*
X5062180Y2644529D01*
X5063449Y2642555D01*
X5065000Y2640300D01*
X5066973Y2637903D01*
X5069229Y2635789D01*
X5071907Y2633815D01*
X5072048D01*
X5072330Y2633674D01*
X5072753Y2633392D01*
X5073317Y2633110D01*
X5074022Y2632828D01*
X5074868Y2632405D01*
X5076841Y2631560D01*
X5079379Y2630714D01*
X5082198Y2630009D01*
X5085299Y2629445D01*
X5088542Y2629304D01*
X5089529D01*
X5090374Y2629445D01*
X5091361D01*
X5092348Y2629586D01*
X5094885Y2630150D01*
X5097846Y2630855D01*
X5100806Y2631983D01*
X5103907Y2633533D01*
X5105458Y2634379D01*
X5106868Y2635507D01*
X5107009Y2635648D01*
X5107150Y2635789D01*
X5107573Y2636212D01*
X5108137Y2636635D01*
X5108700Y2637339D01*
X5109405Y2638185D01*
X5110251Y2639031D01*
X5110956Y2640159D01*
X5111802Y2641428D01*
X5112789Y2642837D01*
X5113634Y2644247D01*
X5114480Y2645939D01*
X5115185Y2647771D01*
X5115890Y2649745D01*
X5116595Y2651859D01*
X5117159Y2654115D01*
X5130128Y2650873D01*
Y2650732D01*
X5129987Y2650168D01*
X5129705Y2649322D01*
X5129282Y2648194D01*
X5128859Y2646925D01*
X5128295Y2645375D01*
X5127590Y2643683D01*
X5126745Y2641850D01*
X5124771Y2637903D01*
X5122234Y2633956D01*
X5120683Y2631983D01*
X5119132Y2630009D01*
X5117441Y2628317D01*
X5115467Y2626626D01*
X5115326Y2626485D01*
X5115044Y2626203D01*
X5114339Y2625921D01*
X5113634Y2625357D01*
X5112507Y2624652D01*
X5111379Y2623947D01*
X5109828Y2623242D01*
X5108278Y2622538D01*
X5106445Y2621692D01*
X5104471Y2620987D01*
X5102357Y2620282D01*
X5100101Y2619577D01*
X5097705Y2619013D01*
X5095167Y2618731D01*
X5092489Y2618449D01*
X5089670Y2618308D01*
X5088119D01*
X5086991Y2618449D01*
X5085722D01*
X5084172Y2618590D01*
X5082480Y2618872D01*
X5080506Y2619154D01*
X5076418Y2619859D01*
X5072189Y2620987D01*
X5067960Y2622538D01*
X5065987Y2623524D01*
X5064013Y2624652D01*
X5063872Y2624793D01*
X5063590Y2624934D01*
X5063026Y2625357D01*
X5062462Y2625921D01*
X5061616Y2626485D01*
X5060630Y2627331D01*
X5059502Y2628317D01*
X5058374Y2629445D01*
X5057246Y2630714D01*
X5055978Y2631983D01*
X5053440Y2635225D01*
X5051044Y2639031D01*
X5048929Y2643260D01*
Y2643401D01*
X5048647Y2643824D01*
X5048506Y2644529D01*
X5048083Y2645375D01*
X5047801Y2646502D01*
X5047379Y2647912D01*
X5046815Y2649463D01*
X5046392Y2651154D01*
X5045969Y2652987D01*
X5045405Y2655102D01*
X5044700Y2659472D01*
X5044136Y2664406D01*
X5043854Y2669481D01*
Y2669622D01*
Y2670185D01*
Y2671031D01*
X5043995Y2672018D01*
Y2673428D01*
X5044136Y2674837D01*
X5044277Y2676670D01*
X5044559Y2678503D01*
X5045264Y2682591D01*
X5046251Y2687102D01*
X5047660Y2691613D01*
X5049634Y2695983D01*
X5049775Y2696124D01*
X5049916Y2696547D01*
X5050198Y2697111D01*
X5050762Y2697816D01*
X5051326Y2698802D01*
X5052031Y2699930D01*
X5053863Y2702468D01*
X5056260Y2705287D01*
X5059079Y2708106D01*
X5062321Y2710926D01*
X5066128Y2713322D01*
X5066269Y2713463D01*
X5066691Y2713604D01*
X5067255Y2713886D01*
X5067960Y2714309D01*
X5069088Y2714732D01*
X5070216Y2715155D01*
X5071625Y2715719D01*
X5073176Y2716283D01*
X5074868Y2716846D01*
X5076700Y2717410D01*
X5080647Y2718256D01*
X5085158Y2718961D01*
X5089810Y2719243D01*
X5091220D01*
X5092207Y2719102D01*
D02*
G37*
G36*
X4443040Y2620000D02*
X4430635D01*
Y2701622D01*
X4402159Y2620000D01*
X4390599D01*
X4362405Y2703031D01*
Y2620000D01*
X4350000D01*
Y2717551D01*
X4369313D01*
X4392432Y2648335D01*
Y2648194D01*
X4392573Y2647912D01*
X4392714Y2647489D01*
X4392996Y2646784D01*
X4393560Y2645093D01*
X4394265Y2642978D01*
X4394969Y2640582D01*
X4395815Y2638185D01*
X4396520Y2635930D01*
X4397084Y2633956D01*
X4397225Y2634238D01*
X4397366Y2634943D01*
X4397789Y2636212D01*
X4398353Y2637903D01*
X4399057Y2640159D01*
X4400044Y2642837D01*
X4401031Y2645939D01*
X4402300Y2649604D01*
X4425701Y2717551D01*
X4443040D01*
Y2620000D01*
D02*
G37*
G36*
X5026938Y2704864D02*
X4987889D01*
X4982673Y2678503D01*
X4982814Y2678644D01*
X4983096Y2678785D01*
X4983519Y2679067D01*
X4984224Y2679489D01*
X4985070Y2679912D01*
X4986057Y2680476D01*
X4988312Y2681604D01*
X4991131Y2682732D01*
X4994233Y2683719D01*
X4997616Y2684423D01*
X4999308Y2684705D01*
X5002409D01*
X5003255Y2684564D01*
X5004383Y2684423D01*
X5005651Y2684282D01*
X5007061Y2684000D01*
X5008612Y2683578D01*
X5011995Y2682591D01*
X5013828Y2681886D01*
X5015660Y2680899D01*
X5017493Y2679912D01*
X5019325Y2678785D01*
X5021017Y2677375D01*
X5022709Y2675824D01*
X5022850Y2675683D01*
X5023132Y2675401D01*
X5023555Y2674978D01*
X5024118Y2674274D01*
X5024823Y2673287D01*
X5025528Y2672300D01*
X5026374Y2671031D01*
X5027220Y2669622D01*
X5027925Y2668071D01*
X5028770Y2666379D01*
X5029475Y2664406D01*
X5030180Y2662432D01*
X5030744Y2660318D01*
X5031167Y2657921D01*
X5031449Y2655525D01*
X5031590Y2652987D01*
Y2652846D01*
Y2652423D01*
Y2651718D01*
X5031449Y2650732D01*
X5031308Y2649604D01*
X5031167Y2648335D01*
X5030885Y2646784D01*
X5030603Y2645234D01*
X5029757Y2641569D01*
X5028348Y2637762D01*
X5027502Y2635789D01*
X5026374Y2633956D01*
X5025246Y2631983D01*
X5023837Y2630150D01*
X5023696Y2630009D01*
X5023414Y2629586D01*
X5022850Y2629022D01*
X5022145Y2628317D01*
X5021158Y2627472D01*
X5020030Y2626344D01*
X5018621Y2625357D01*
X5017070Y2624229D01*
X5015378Y2623101D01*
X5013405Y2622115D01*
X5011290Y2621128D01*
X5009035Y2620141D01*
X5006638Y2619436D01*
X5003960Y2618872D01*
X5001140Y2618449D01*
X4998180Y2618308D01*
X4996911D01*
X4995924Y2618449D01*
X4994797Y2618590D01*
X4993528Y2618731D01*
X4991977Y2618872D01*
X4990427Y2619295D01*
X4986902Y2620141D01*
X4983378Y2621410D01*
X4981546Y2622256D01*
X4979713Y2623242D01*
X4978021Y2624370D01*
X4976330Y2625639D01*
X4976189Y2625780D01*
X4975907Y2625921D01*
X4975625Y2626485D01*
X4975061Y2627049D01*
X4974356Y2627753D01*
X4973651Y2628599D01*
X4972805Y2629727D01*
X4972101Y2630996D01*
X4971255Y2632264D01*
X4970409Y2633815D01*
X4968858Y2637198D01*
X4967590Y2641146D01*
X4967167Y2643260D01*
X4966885Y2645516D01*
X4979431Y2646502D01*
Y2646361D01*
Y2646080D01*
X4979572Y2645657D01*
X4979713Y2644952D01*
X4980136Y2643401D01*
X4980700Y2641287D01*
X4981546Y2639172D01*
X4982673Y2636776D01*
X4984083Y2634661D01*
X4985775Y2632687D01*
X4986057Y2632546D01*
X4986620Y2631983D01*
X4987748Y2631278D01*
X4989299Y2630432D01*
X4990991Y2629586D01*
X4993105Y2628881D01*
X4995502Y2628317D01*
X4998180Y2628176D01*
X4999026D01*
X4999590Y2628317D01*
X5001281Y2628458D01*
X5003255Y2629022D01*
X5005651Y2629727D01*
X5008048Y2630855D01*
X5010585Y2632546D01*
X5011713Y2633533D01*
X5012841Y2634661D01*
X5012982Y2634802D01*
X5013123Y2634943D01*
X5013405Y2635366D01*
X5013828Y2635789D01*
X5014814Y2637339D01*
X5015942Y2639313D01*
X5016929Y2641709D01*
X5017916Y2644670D01*
X5018621Y2648194D01*
X5018903Y2650027D01*
Y2652000D01*
Y2652141D01*
Y2652423D01*
Y2652987D01*
X5018762Y2653692D01*
Y2654538D01*
X5018621Y2655525D01*
X5018198Y2657780D01*
X5017493Y2660458D01*
X5016506Y2663137D01*
X5015096Y2665674D01*
X5013123Y2668071D01*
Y2668212D01*
X5012841Y2668353D01*
X5012136Y2669058D01*
X5010867Y2670044D01*
X5009176Y2671172D01*
X5006920Y2672159D01*
X5004383Y2673146D01*
X5001422Y2673851D01*
X4999731Y2674133D01*
X4997052D01*
X4995924Y2673992D01*
X4994515Y2673851D01*
X4992823Y2673428D01*
X4991131Y2673005D01*
X4989299Y2672300D01*
X4987466Y2671454D01*
X4987325Y2671313D01*
X4986761Y2671031D01*
X4985916Y2670326D01*
X4984788Y2669622D01*
X4983660Y2668635D01*
X4982532Y2667366D01*
X4981264Y2666097D01*
X4980277Y2664547D01*
X4968999Y2666097D01*
X4978444Y2716283D01*
X5026938D01*
Y2704864D01*
D02*
G37*
G36*
X4875254D02*
X4836205D01*
X4830990Y2678503D01*
X4831131Y2678644D01*
X4831412Y2678785D01*
X4831835Y2679067D01*
X4832540Y2679489D01*
X4833386Y2679912D01*
X4834373Y2680476D01*
X4836628Y2681604D01*
X4839448Y2682732D01*
X4842549Y2683719D01*
X4845932Y2684423D01*
X4847624Y2684705D01*
X4850725D01*
X4851571Y2684564D01*
X4852699Y2684423D01*
X4853968Y2684282D01*
X4855377Y2684000D01*
X4856928Y2683578D01*
X4860311Y2682591D01*
X4862144Y2681886D01*
X4863977Y2680899D01*
X4865809Y2679912D01*
X4867642Y2678785D01*
X4869333Y2677375D01*
X4871025Y2675824D01*
X4871166Y2675683D01*
X4871448Y2675401D01*
X4871871Y2674978D01*
X4872435Y2674274D01*
X4873140Y2673287D01*
X4873844Y2672300D01*
X4874690Y2671031D01*
X4875536Y2669622D01*
X4876241Y2668071D01*
X4877087Y2666379D01*
X4877792Y2664406D01*
X4878496Y2662432D01*
X4879060Y2660318D01*
X4879483Y2657921D01*
X4879765Y2655525D01*
X4879906Y2652987D01*
Y2652846D01*
Y2652423D01*
Y2651718D01*
X4879765Y2650732D01*
X4879624Y2649604D01*
X4879483Y2648335D01*
X4879201Y2646784D01*
X4878919Y2645234D01*
X4878074Y2641569D01*
X4876664Y2637762D01*
X4875818Y2635789D01*
X4874690Y2633956D01*
X4873563Y2631983D01*
X4872153Y2630150D01*
X4872012Y2630009D01*
X4871730Y2629586D01*
X4871166Y2629022D01*
X4870461Y2628317D01*
X4869474Y2627472D01*
X4868347Y2626344D01*
X4866937Y2625357D01*
X4865386Y2624229D01*
X4863695Y2623101D01*
X4861721Y2622115D01*
X4859606Y2621128D01*
X4857351Y2620141D01*
X4854954Y2619436D01*
X4852276Y2618872D01*
X4849457Y2618449D01*
X4846496Y2618308D01*
X4845228D01*
X4844241Y2618449D01*
X4843113Y2618590D01*
X4841844Y2618731D01*
X4840294Y2618872D01*
X4838743Y2619295D01*
X4835219Y2620141D01*
X4831694Y2621410D01*
X4829862Y2622256D01*
X4828029Y2623242D01*
X4826338Y2624370D01*
X4824646Y2625639D01*
X4824505Y2625780D01*
X4824223Y2625921D01*
X4823941Y2626485D01*
X4823377Y2627049D01*
X4822672Y2627753D01*
X4821967Y2628599D01*
X4821122Y2629727D01*
X4820417Y2630996D01*
X4819571Y2632264D01*
X4818725Y2633815D01*
X4817175Y2637198D01*
X4815906Y2641146D01*
X4815483Y2643260D01*
X4815201Y2645516D01*
X4827747Y2646502D01*
Y2646361D01*
Y2646080D01*
X4827888Y2645657D01*
X4828029Y2644952D01*
X4828452Y2643401D01*
X4829016Y2641287D01*
X4829862Y2639172D01*
X4830990Y2636776D01*
X4832399Y2634661D01*
X4834091Y2632687D01*
X4834373Y2632546D01*
X4834937Y2631983D01*
X4836064Y2631278D01*
X4837615Y2630432D01*
X4839307Y2629586D01*
X4841421Y2628881D01*
X4843818Y2628317D01*
X4846496Y2628176D01*
X4847342D01*
X4847906Y2628317D01*
X4849598Y2628458D01*
X4851571Y2629022D01*
X4853968Y2629727D01*
X4856364Y2630855D01*
X4858902Y2632546D01*
X4860029Y2633533D01*
X4861157Y2634661D01*
X4861298Y2634802D01*
X4861439Y2634943D01*
X4861721Y2635366D01*
X4862144Y2635789D01*
X4863131Y2637339D01*
X4864258Y2639313D01*
X4865245Y2641709D01*
X4866232Y2644670D01*
X4866937Y2648194D01*
X4867219Y2650027D01*
Y2652000D01*
Y2652141D01*
Y2652423D01*
Y2652987D01*
X4867078Y2653692D01*
Y2654538D01*
X4866937Y2655525D01*
X4866514Y2657780D01*
X4865809Y2660458D01*
X4864822Y2663137D01*
X4863413Y2665674D01*
X4861439Y2668071D01*
Y2668212D01*
X4861157Y2668353D01*
X4860452Y2669058D01*
X4859184Y2670044D01*
X4857492Y2671172D01*
X4855236Y2672159D01*
X4852699Y2673146D01*
X4849739Y2673851D01*
X4848047Y2674133D01*
X4845369D01*
X4844241Y2673992D01*
X4842831Y2673851D01*
X4841139Y2673428D01*
X4839448Y2673005D01*
X4837615Y2672300D01*
X4835783Y2671454D01*
X4835642Y2671313D01*
X4835078Y2671031D01*
X4834232Y2670326D01*
X4833104Y2669622D01*
X4831976Y2668635D01*
X4830849Y2667366D01*
X4829580Y2666097D01*
X4828593Y2664547D01*
X4817315Y2666097D01*
X4826760Y2716283D01*
X4875254D01*
Y2704864D01*
D02*
G37*
G36*
X5215979Y2705992D02*
X5183837D01*
Y2620000D01*
X5170868D01*
Y2705992D01*
X5138727D01*
Y2717551D01*
X5215979D01*
Y2705992D01*
D02*
G37*
G36*
X4941369Y2654397D02*
X4954620D01*
Y2643401D01*
X4941369D01*
Y2620000D01*
X4929387D01*
Y2643401D01*
X4886955D01*
Y2654397D01*
X4931642Y2717551D01*
X4941369D01*
Y2654397D01*
D02*
G37*
G36*
X4774038Y2717833D02*
X4775165Y2717692D01*
X4776575Y2717551D01*
X4778126Y2717269D01*
X4779676Y2716987D01*
X4783342Y2716001D01*
X4787007Y2714591D01*
X4788840Y2713745D01*
X4790672Y2712758D01*
X4792364Y2711490D01*
X4793914Y2710080D01*
X4794055Y2709939D01*
X4794337Y2709798D01*
X4794619Y2709234D01*
X4795183Y2708670D01*
X4795888Y2707965D01*
X4796593Y2706979D01*
X4797298Y2705992D01*
X4798144Y2704723D01*
X4799553Y2702045D01*
X4800963Y2698661D01*
X4801527Y2696970D01*
X4801809Y2694996D01*
X4802091Y2693023D01*
X4802232Y2690908D01*
Y2690626D01*
Y2689921D01*
X4802091Y2688793D01*
X4801950Y2687243D01*
X4801668Y2685551D01*
X4801104Y2683578D01*
X4800540Y2681463D01*
X4799694Y2679348D01*
X4799553Y2679067D01*
X4799271Y2678362D01*
X4798707Y2677234D01*
X4797862Y2675683D01*
X4796734Y2673992D01*
X4795324Y2671877D01*
X4793633Y2669763D01*
X4791659Y2667366D01*
X4791377Y2667084D01*
X4790672Y2666238D01*
X4789967Y2665533D01*
X4789262Y2664829D01*
X4788417Y2663983D01*
X4787289Y2662855D01*
X4786161Y2661727D01*
X4784751Y2660458D01*
X4783342Y2659049D01*
X4781650Y2657498D01*
X4779817Y2655947D01*
X4777844Y2654115D01*
X4775588Y2652282D01*
X4773333Y2650309D01*
X4773192Y2650168D01*
X4772910Y2649886D01*
X4772346Y2649463D01*
X4771641Y2648899D01*
X4770795Y2648053D01*
X4769809Y2647207D01*
X4767553Y2645375D01*
X4765157Y2643260D01*
X4762901Y2641146D01*
X4760927Y2639313D01*
X4760082Y2638608D01*
X4759377Y2637903D01*
X4759236Y2637762D01*
X4758813Y2637339D01*
X4758249Y2636776D01*
X4757544Y2635930D01*
X4756839Y2634943D01*
X4755994Y2633956D01*
X4754302Y2631560D01*
X4802373D01*
Y2620000D01*
X4737667D01*
Y2620141D01*
Y2620705D01*
Y2621551D01*
X4737808Y2622679D01*
X4737949Y2623947D01*
X4738231Y2625357D01*
X4738513Y2626767D01*
X4739077Y2628317D01*
Y2628458D01*
X4739218Y2628599D01*
X4739500Y2629445D01*
X4740064Y2630714D01*
X4740910Y2632405D01*
X4742038Y2634379D01*
X4743447Y2636635D01*
X4744998Y2638890D01*
X4746971Y2641287D01*
Y2641428D01*
X4747253Y2641569D01*
X4747958Y2642414D01*
X4749227Y2643683D01*
X4751060Y2645516D01*
X4753174Y2647630D01*
X4755853Y2650168D01*
X4759095Y2652987D01*
X4762619Y2655947D01*
X4762760Y2656088D01*
X4763324Y2656511D01*
X4764170Y2657216D01*
X4765157Y2658062D01*
X4766425Y2659190D01*
X4767976Y2660458D01*
X4769527Y2661868D01*
X4771359Y2663419D01*
X4774884Y2666802D01*
X4778408Y2670185D01*
X4780099Y2671877D01*
X4781650Y2673569D01*
X4783060Y2675119D01*
X4784188Y2676670D01*
Y2676811D01*
X4784469Y2676952D01*
X4784751Y2677375D01*
X4785033Y2677939D01*
X4786020Y2679489D01*
X4787148Y2681322D01*
X4788135Y2683578D01*
X4789121Y2685974D01*
X4789685Y2688652D01*
X4789967Y2691190D01*
Y2691331D01*
Y2691472D01*
X4789826Y2692318D01*
X4789685Y2693727D01*
X4789262Y2695278D01*
X4788699Y2697252D01*
X4787712Y2699225D01*
X4786443Y2701199D01*
X4784751Y2703172D01*
X4784469Y2703454D01*
X4783765Y2704018D01*
X4782778Y2704723D01*
X4781227Y2705710D01*
X4779254Y2706556D01*
X4776998Y2707401D01*
X4774320Y2707965D01*
X4771359Y2708106D01*
X4770513D01*
X4769950Y2707965D01*
X4768258Y2707824D01*
X4766284Y2707401D01*
X4764170Y2706838D01*
X4761773Y2705851D01*
X4759518Y2704582D01*
X4757403Y2702890D01*
X4757121Y2702609D01*
X4756557Y2701904D01*
X4755712Y2700776D01*
X4754866Y2699084D01*
X4753879Y2697111D01*
X4753033Y2694573D01*
X4752469Y2691754D01*
X4752187Y2688512D01*
X4739923Y2689780D01*
Y2689921D01*
X4740064Y2690344D01*
Y2691049D01*
X4740205Y2692036D01*
X4740487Y2693164D01*
X4740769Y2694432D01*
X4741192Y2695983D01*
X4741615Y2697534D01*
X4742742Y2700917D01*
X4744434Y2704300D01*
X4745421Y2705992D01*
X4746690Y2707683D01*
X4747958Y2709234D01*
X4749368Y2710644D01*
X4749509Y2710785D01*
X4749791Y2710926D01*
X4750214Y2711349D01*
X4750919Y2711772D01*
X4751764Y2712335D01*
X4752751Y2712899D01*
X4753879Y2713604D01*
X4755289Y2714309D01*
X4756839Y2715014D01*
X4758531Y2715719D01*
X4760364Y2716283D01*
X4762337Y2716846D01*
X4764452Y2717269D01*
X4766707Y2717692D01*
X4769104Y2717833D01*
X4771641Y2717974D01*
X4773051D01*
X4774038Y2717833D01*
D02*
G37*
G36*
X4692134Y2717410D02*
X4693262D01*
X4695799Y2717128D01*
X4698619Y2716846D01*
X4701579Y2716283D01*
X4704539Y2715578D01*
X4707218Y2714591D01*
X4707359D01*
X4707500Y2714450D01*
X4708346Y2714027D01*
X4709614Y2713322D01*
X4711024Y2712335D01*
X4712716Y2711067D01*
X4714548Y2709516D01*
X4716240Y2707542D01*
X4717791Y2705428D01*
X4717932Y2705146D01*
X4718355Y2704300D01*
X4719059Y2703172D01*
X4719764Y2701481D01*
X4720469Y2699507D01*
X4721174Y2697393D01*
X4721597Y2694996D01*
X4721738Y2692600D01*
Y2692318D01*
Y2691613D01*
X4721597Y2690344D01*
X4721315Y2688793D01*
X4720892Y2686961D01*
X4720187Y2684987D01*
X4719341Y2683014D01*
X4718214Y2680899D01*
X4718073Y2680617D01*
X4717650Y2680053D01*
X4716804Y2678926D01*
X4715676Y2677798D01*
X4714266Y2676388D01*
X4712575Y2674837D01*
X4710460Y2673428D01*
X4708064Y2672018D01*
X4708205D01*
X4708487Y2671877D01*
X4708910Y2671736D01*
X4709473Y2671454D01*
X4711165Y2670890D01*
X4713139Y2669903D01*
X4715253Y2668635D01*
X4717650Y2667084D01*
X4719764Y2665251D01*
X4721738Y2662996D01*
X4721879Y2662714D01*
X4722443Y2661868D01*
X4723288Y2660599D01*
X4724134Y2658908D01*
X4724980Y2656652D01*
X4725826Y2654256D01*
X4726390Y2651436D01*
X4726531Y2648335D01*
Y2648194D01*
Y2648053D01*
Y2647207D01*
X4726390Y2645798D01*
X4726108Y2644106D01*
X4725826Y2642132D01*
X4725262Y2640018D01*
X4724557Y2637762D01*
X4723570Y2635507D01*
X4723429Y2635225D01*
X4723007Y2634520D01*
X4722443Y2633533D01*
X4721597Y2632124D01*
X4720469Y2630714D01*
X4719341Y2629163D01*
X4717932Y2627612D01*
X4716381Y2626344D01*
X4716240Y2626203D01*
X4715676Y2625780D01*
X4714689Y2625216D01*
X4713421Y2624652D01*
X4711870Y2623806D01*
X4710037Y2622960D01*
X4708064Y2622256D01*
X4705667Y2621551D01*
X4705385D01*
X4704539Y2621269D01*
X4703130Y2621128D01*
X4701297Y2620846D01*
X4699042Y2620564D01*
X4696363Y2620282D01*
X4693403Y2620141D01*
X4690020Y2620000D01*
X4652803D01*
Y2717551D01*
X4691147D01*
X4692134Y2717410D01*
D02*
G37*
G36*
X4601490D02*
X4602759D01*
X4605720Y2717269D01*
X4608821Y2716846D01*
X4612204Y2716424D01*
X4615305Y2715719D01*
X4616856Y2715296D01*
X4618125Y2714873D01*
X4618266D01*
X4618407Y2714732D01*
X4619253Y2714309D01*
X4620521Y2713745D01*
X4622072Y2712758D01*
X4623764Y2711490D01*
X4625596Y2709798D01*
X4627288Y2707824D01*
X4628980Y2705569D01*
Y2705428D01*
X4629121Y2705287D01*
X4629684Y2704441D01*
X4630248Y2703031D01*
X4631094Y2701199D01*
X4631799Y2699084D01*
X4632504Y2696547D01*
X4632927Y2693868D01*
X4633068Y2690908D01*
Y2690767D01*
Y2690485D01*
Y2689921D01*
X4632927Y2689216D01*
Y2688230D01*
X4632786Y2687243D01*
X4632222Y2684846D01*
X4631376Y2682027D01*
X4630248Y2679067D01*
X4628557Y2676106D01*
X4627429Y2674696D01*
X4626301Y2673287D01*
X4626160Y2673146D01*
X4626019Y2673005D01*
X4625596Y2672582D01*
X4625032Y2672159D01*
X4624328Y2671595D01*
X4623482Y2671031D01*
X4622354Y2670326D01*
X4621226Y2669481D01*
X4619817Y2668776D01*
X4618266Y2668071D01*
X4616574Y2667225D01*
X4614742Y2666520D01*
X4612627Y2665956D01*
X4610512Y2665251D01*
X4608116Y2664829D01*
X4605579Y2664406D01*
X4605860Y2664265D01*
X4606424Y2663983D01*
X4607270Y2663419D01*
X4608398Y2662855D01*
X4610935Y2661304D01*
X4612204Y2660318D01*
X4613332Y2659472D01*
X4613614Y2659190D01*
X4614319Y2658485D01*
X4615446Y2657357D01*
X4616856Y2655947D01*
X4618407Y2653974D01*
X4620239Y2651859D01*
X4622072Y2649322D01*
X4624046Y2646502D01*
X4640821Y2620000D01*
X4624750D01*
X4611922Y2640300D01*
Y2640441D01*
X4611640Y2640723D01*
X4611358Y2641146D01*
X4610935Y2641709D01*
X4609949Y2643260D01*
X4608680Y2645234D01*
X4607129Y2647348D01*
X4605579Y2649604D01*
X4604028Y2651718D01*
X4602618Y2653692D01*
X4602477Y2653833D01*
X4602054Y2654397D01*
X4601349Y2655243D01*
X4600363Y2656229D01*
X4598248Y2658344D01*
X4597120Y2659331D01*
X4595993Y2660177D01*
X4595852Y2660318D01*
X4595570Y2660458D01*
X4595006Y2660740D01*
X4594160Y2661163D01*
X4593314Y2661586D01*
X4592327Y2662009D01*
X4590072Y2662714D01*
X4589931D01*
X4589649Y2662855D01*
X4589085D01*
X4588380Y2662996D01*
X4587393Y2663137D01*
X4586266D01*
X4584715Y2663278D01*
X4568081D01*
Y2620000D01*
X4555111D01*
Y2717551D01*
X4600363D01*
X4601490Y2717410D01*
D02*
G37*
G36*
X4502811D02*
X4503939D01*
X4506477Y2717128D01*
X4509296Y2716846D01*
X4512256Y2716283D01*
X4515217Y2715578D01*
X4517895Y2714591D01*
X4518036D01*
X4518177Y2714450D01*
X4519023Y2714027D01*
X4520292Y2713322D01*
X4521701Y2712335D01*
X4523393Y2711067D01*
X4525226Y2709516D01*
X4526917Y2707542D01*
X4528468Y2705428D01*
X4528609Y2705146D01*
X4529032Y2704300D01*
X4529737Y2703172D01*
X4530442Y2701481D01*
X4531146Y2699507D01*
X4531851Y2697393D01*
X4532274Y2694996D01*
X4532415Y2692600D01*
Y2692318D01*
Y2691613D01*
X4532274Y2690344D01*
X4531992Y2688793D01*
X4531569Y2686961D01*
X4530864Y2684987D01*
X4530019Y2683014D01*
X4528891Y2680899D01*
X4528750Y2680617D01*
X4528327Y2680053D01*
X4527481Y2678926D01*
X4526353Y2677798D01*
X4524944Y2676388D01*
X4523252Y2674837D01*
X4521138Y2673428D01*
X4518741Y2672018D01*
X4518882D01*
X4519164Y2671877D01*
X4519587Y2671736D01*
X4520151Y2671454D01*
X4521842Y2670890D01*
X4523816Y2669903D01*
X4525930Y2668635D01*
X4528327Y2667084D01*
X4530442Y2665251D01*
X4532415Y2662996D01*
X4532556Y2662714D01*
X4533120Y2661868D01*
X4533966Y2660599D01*
X4534812Y2658908D01*
X4535657Y2656652D01*
X4536503Y2654256D01*
X4537067Y2651436D01*
X4537208Y2648335D01*
Y2648194D01*
Y2648053D01*
Y2647207D01*
X4537067Y2645798D01*
X4536785Y2644106D01*
X4536503Y2642132D01*
X4535939Y2640018D01*
X4535235Y2637762D01*
X4534248Y2635507D01*
X4534107Y2635225D01*
X4533684Y2634520D01*
X4533120Y2633533D01*
X4532274Y2632124D01*
X4531146Y2630714D01*
X4530019Y2629163D01*
X4528609Y2627612D01*
X4527058Y2626344D01*
X4526917Y2626203D01*
X4526353Y2625780D01*
X4525367Y2625216D01*
X4524098Y2624652D01*
X4522547Y2623806D01*
X4520715Y2622960D01*
X4518741Y2622256D01*
X4516345Y2621551D01*
X4516063D01*
X4515217Y2621269D01*
X4513807Y2621128D01*
X4511974Y2620846D01*
X4509719Y2620564D01*
X4507041Y2620282D01*
X4504080Y2620141D01*
X4500697Y2620000D01*
X4463481D01*
Y2717551D01*
X4501825D01*
X4502811Y2717410D01*
D02*
G37*
G36*
X8492207Y2689102D02*
X8493476Y2688961D01*
X8495026Y2688820D01*
X8496577Y2688679D01*
X8498410Y2688256D01*
X8502216Y2687410D01*
X8506445Y2686141D01*
X8508560Y2685296D01*
X8510533Y2684309D01*
X8512507Y2683040D01*
X8514480Y2681771D01*
X8514621Y2681630D01*
X8514903Y2681489D01*
X8515467Y2681067D01*
X8516172Y2680362D01*
X8516877Y2679657D01*
X8517864Y2678670D01*
X8518850Y2677542D01*
X8519978Y2676415D01*
X8521106Y2675005D01*
X8522234Y2673313D01*
X8523502Y2671622D01*
X8524630Y2669789D01*
X8525617Y2667674D01*
X8526745Y2665560D01*
X8527591Y2663304D01*
X8528436Y2660767D01*
X8515749Y2657806D01*
Y2657947D01*
X8515608Y2658229D01*
X8515326Y2658793D01*
X8515044Y2659498D01*
X8514762Y2660344D01*
X8514339Y2661472D01*
X8513212Y2663727D01*
X8511802Y2666265D01*
X8510110Y2668802D01*
X8507996Y2671199D01*
X8505740Y2673313D01*
X8505458Y2673595D01*
X8504612Y2674159D01*
X8503203Y2674864D01*
X8501370Y2675851D01*
X8498974Y2676696D01*
X8496295Y2677542D01*
X8493053Y2678106D01*
X8489529Y2678247D01*
X8488401D01*
X8487696Y2678106D01*
X8486709D01*
X8485581Y2677965D01*
X8482903Y2677542D01*
X8479943Y2676978D01*
X8476841Y2675992D01*
X8473599Y2674582D01*
X8470639Y2672749D01*
X8470498D01*
X8470357Y2672467D01*
X8469370Y2671763D01*
X8468101Y2670635D01*
X8466551Y2668943D01*
X8464718Y2666829D01*
X8463026Y2664432D01*
X8461476Y2661472D01*
X8460066Y2658229D01*
Y2658088D01*
X8459925Y2657806D01*
X8459784Y2657384D01*
X8459643Y2656679D01*
X8459361Y2655833D01*
X8459079Y2654846D01*
X8458656Y2652450D01*
X8458092Y2649630D01*
X8457528Y2646529D01*
X8457246Y2643146D01*
X8457106Y2639480D01*
Y2639339D01*
Y2638916D01*
Y2638212D01*
Y2637366D01*
X8457246Y2636379D01*
Y2635110D01*
X8457387Y2633701D01*
X8457528Y2632150D01*
X8457951Y2628767D01*
X8458656Y2625101D01*
X8459502Y2621436D01*
X8460630Y2617771D01*
Y2617630D01*
X8460771Y2617348D01*
X8461053Y2616925D01*
X8461335Y2616220D01*
X8462180Y2614529D01*
X8463449Y2612555D01*
X8465000Y2610300D01*
X8466973Y2607903D01*
X8469229Y2605789D01*
X8471907Y2603815D01*
X8472048D01*
X8472330Y2603674D01*
X8472753Y2603392D01*
X8473317Y2603110D01*
X8474022Y2602828D01*
X8474868Y2602405D01*
X8476841Y2601559D01*
X8479379Y2600714D01*
X8482198Y2600009D01*
X8485300Y2599445D01*
X8488542Y2599304D01*
X8489529D01*
X8490374Y2599445D01*
X8491361D01*
X8492348Y2599586D01*
X8494885Y2600150D01*
X8497846Y2600855D01*
X8500806Y2601982D01*
X8503908Y2603533D01*
X8505458Y2604379D01*
X8506868Y2605507D01*
X8507009Y2605648D01*
X8507150Y2605789D01*
X8507573Y2606211D01*
X8508137Y2606634D01*
X8508701Y2607339D01*
X8509405Y2608185D01*
X8510251Y2609031D01*
X8510956Y2610159D01*
X8511802Y2611427D01*
X8512789Y2612837D01*
X8513634Y2614247D01*
X8514480Y2615938D01*
X8515185Y2617771D01*
X8515890Y2619745D01*
X8516595Y2621859D01*
X8517159Y2624115D01*
X8530128Y2620872D01*
Y2620731D01*
X8529987Y2620167D01*
X8529705Y2619322D01*
X8529282Y2618194D01*
X8528859Y2616925D01*
X8528295Y2615374D01*
X8527591Y2613683D01*
X8526745Y2611850D01*
X8524771Y2607903D01*
X8522234Y2603956D01*
X8520683Y2601982D01*
X8519132Y2600009D01*
X8517441Y2598317D01*
X8515467Y2596625D01*
X8515326Y2596485D01*
X8515044Y2596203D01*
X8514339Y2595921D01*
X8513634Y2595357D01*
X8512507Y2594652D01*
X8511379Y2593947D01*
X8509828Y2593242D01*
X8508278Y2592537D01*
X8506445Y2591692D01*
X8504471Y2590987D01*
X8502357Y2590282D01*
X8500101Y2589577D01*
X8497705Y2589013D01*
X8495167Y2588731D01*
X8492489Y2588449D01*
X8489670Y2588308D01*
X8488119D01*
X8486991Y2588449D01*
X8485722D01*
X8484172Y2588590D01*
X8482480Y2588872D01*
X8480507Y2589154D01*
X8476418Y2589859D01*
X8472189Y2590987D01*
X8467960Y2592537D01*
X8465987Y2593524D01*
X8464013Y2594652D01*
X8463872Y2594793D01*
X8463590Y2594934D01*
X8463026Y2595357D01*
X8462462Y2595921D01*
X8461617Y2596485D01*
X8460630Y2597330D01*
X8459502Y2598317D01*
X8458374Y2599445D01*
X8457246Y2600714D01*
X8455978Y2601982D01*
X8453440Y2605225D01*
X8451044Y2609031D01*
X8448929Y2613260D01*
Y2613401D01*
X8448647Y2613824D01*
X8448506Y2614529D01*
X8448083Y2615374D01*
X8447801Y2616502D01*
X8447379Y2617912D01*
X8446815Y2619463D01*
X8446392Y2621154D01*
X8445969Y2622987D01*
X8445405Y2625101D01*
X8444700Y2629471D01*
X8444136Y2634405D01*
X8443854Y2639480D01*
Y2639621D01*
Y2640185D01*
Y2641031D01*
X8443995Y2642018D01*
Y2643428D01*
X8444136Y2644837D01*
X8444277Y2646670D01*
X8444559Y2648502D01*
X8445264Y2652591D01*
X8446251Y2657102D01*
X8447661Y2661613D01*
X8449634Y2665983D01*
X8449775Y2666124D01*
X8449916Y2666547D01*
X8450198Y2667110D01*
X8450762Y2667815D01*
X8451326Y2668802D01*
X8452031Y2669930D01*
X8453863Y2672467D01*
X8456260Y2675287D01*
X8459079Y2678106D01*
X8462321Y2680926D01*
X8466128Y2683322D01*
X8466269Y2683463D01*
X8466691Y2683604D01*
X8467255Y2683886D01*
X8467960Y2684309D01*
X8469088Y2684732D01*
X8470216Y2685155D01*
X8471625Y2685719D01*
X8473176Y2686282D01*
X8474868Y2686846D01*
X8476700Y2687410D01*
X8480648Y2688256D01*
X8485159Y2688961D01*
X8489811Y2689243D01*
X8491220D01*
X8492207Y2689102D01*
D02*
G37*
G36*
X7843040Y2590000D02*
X7830635D01*
Y2671622D01*
X7802159Y2590000D01*
X7790599D01*
X7762405Y2673031D01*
Y2590000D01*
X7750000D01*
Y2687551D01*
X7769313D01*
X7792432Y2618335D01*
Y2618194D01*
X7792573Y2617912D01*
X7792714Y2617489D01*
X7792996Y2616784D01*
X7793560Y2615093D01*
X7794265Y2612978D01*
X7794969Y2610582D01*
X7795815Y2608185D01*
X7796520Y2605930D01*
X7797084Y2603956D01*
X7797225Y2604238D01*
X7797366Y2604943D01*
X7797789Y2606211D01*
X7798353Y2607903D01*
X7799058Y2610159D01*
X7800044Y2612837D01*
X7801031Y2615938D01*
X7802300Y2619604D01*
X7825701Y2687551D01*
X7843040D01*
Y2590000D01*
D02*
G37*
G36*
X8426938Y2674864D02*
X8387889D01*
X8382673Y2648502D01*
X8382814Y2648643D01*
X8383096Y2648784D01*
X8383519Y2649066D01*
X8384224Y2649489D01*
X8385070Y2649912D01*
X8386057Y2650476D01*
X8388312Y2651604D01*
X8391132Y2652732D01*
X8394233Y2653718D01*
X8397616Y2654423D01*
X8399308Y2654705D01*
X8402409D01*
X8403255Y2654564D01*
X8404383Y2654423D01*
X8405651Y2654282D01*
X8407061Y2654000D01*
X8408612Y2653577D01*
X8411995Y2652591D01*
X8413828Y2651886D01*
X8415660Y2650899D01*
X8417493Y2649912D01*
X8419326Y2648784D01*
X8421017Y2647375D01*
X8422709Y2645824D01*
X8422850Y2645683D01*
X8423132Y2645401D01*
X8423555Y2644978D01*
X8424119Y2644273D01*
X8424823Y2643287D01*
X8425528Y2642300D01*
X8426374Y2641031D01*
X8427220Y2639621D01*
X8427925Y2638071D01*
X8428771Y2636379D01*
X8429475Y2634405D01*
X8430180Y2632432D01*
X8430744Y2630317D01*
X8431167Y2627921D01*
X8431449Y2625524D01*
X8431590Y2622987D01*
Y2622846D01*
Y2622423D01*
Y2621718D01*
X8431449Y2620731D01*
X8431308Y2619604D01*
X8431167Y2618335D01*
X8430885Y2616784D01*
X8430603Y2615234D01*
X8429757Y2611568D01*
X8428348Y2607762D01*
X8427502Y2605789D01*
X8426374Y2603956D01*
X8425246Y2601982D01*
X8423837Y2600150D01*
X8423696Y2600009D01*
X8423414Y2599586D01*
X8422850Y2599022D01*
X8422145Y2598317D01*
X8421158Y2597471D01*
X8420030Y2596344D01*
X8418621Y2595357D01*
X8417070Y2594229D01*
X8415378Y2593101D01*
X8413405Y2592114D01*
X8411290Y2591128D01*
X8409035Y2590141D01*
X8406638Y2589436D01*
X8403960Y2588872D01*
X8401140Y2588449D01*
X8398180Y2588308D01*
X8396911D01*
X8395925Y2588449D01*
X8394797Y2588590D01*
X8393528Y2588731D01*
X8391977Y2588872D01*
X8390427Y2589295D01*
X8386902Y2590141D01*
X8383378Y2591410D01*
X8381546Y2592255D01*
X8379713Y2593242D01*
X8378021Y2594370D01*
X8376330Y2595639D01*
X8376189Y2595780D01*
X8375907Y2595921D01*
X8375625Y2596485D01*
X8375061Y2597048D01*
X8374356Y2597753D01*
X8373651Y2598599D01*
X8372805Y2599727D01*
X8372101Y2600996D01*
X8371255Y2602264D01*
X8370409Y2603815D01*
X8368858Y2607198D01*
X8367590Y2611145D01*
X8367167Y2613260D01*
X8366885Y2615515D01*
X8379431Y2616502D01*
Y2616361D01*
Y2616079D01*
X8379572Y2615656D01*
X8379713Y2614952D01*
X8380136Y2613401D01*
X8380700Y2611286D01*
X8381546Y2609172D01*
X8382673Y2606775D01*
X8384083Y2604661D01*
X8385775Y2602687D01*
X8386057Y2602546D01*
X8386621Y2601982D01*
X8387748Y2601278D01*
X8389299Y2600432D01*
X8390991Y2599586D01*
X8393105Y2598881D01*
X8395502Y2598317D01*
X8398180Y2598176D01*
X8399026D01*
X8399590Y2598317D01*
X8401281Y2598458D01*
X8403255Y2599022D01*
X8405651Y2599727D01*
X8408048Y2600855D01*
X8410585Y2602546D01*
X8411713Y2603533D01*
X8412841Y2604661D01*
X8412982Y2604802D01*
X8413123Y2604943D01*
X8413405Y2605366D01*
X8413828Y2605789D01*
X8414815Y2607339D01*
X8415942Y2609313D01*
X8416929Y2611709D01*
X8417916Y2614670D01*
X8418621Y2618194D01*
X8418903Y2620027D01*
Y2622000D01*
Y2622141D01*
Y2622423D01*
Y2622987D01*
X8418762Y2623692D01*
Y2624538D01*
X8418621Y2625524D01*
X8418198Y2627780D01*
X8417493Y2630458D01*
X8416506Y2633137D01*
X8415096Y2635674D01*
X8413123Y2638071D01*
Y2638212D01*
X8412841Y2638353D01*
X8412136Y2639057D01*
X8410867Y2640044D01*
X8409176Y2641172D01*
X8406920Y2642159D01*
X8404383Y2643146D01*
X8401422Y2643850D01*
X8399731Y2644132D01*
X8397052D01*
X8395925Y2643991D01*
X8394515Y2643850D01*
X8392823Y2643428D01*
X8391132Y2643005D01*
X8389299Y2642300D01*
X8387466Y2641454D01*
X8387325Y2641313D01*
X8386761Y2641031D01*
X8385916Y2640326D01*
X8384788Y2639621D01*
X8383660Y2638635D01*
X8382532Y2637366D01*
X8381264Y2636097D01*
X8380277Y2634546D01*
X8368999Y2636097D01*
X8378444Y2686282D01*
X8426938D01*
Y2674864D01*
D02*
G37*
G36*
X8275254D02*
X8236206D01*
X8230990Y2648502D01*
X8231131Y2648643D01*
X8231413Y2648784D01*
X8231835Y2649066D01*
X8232540Y2649489D01*
X8233386Y2649912D01*
X8234373Y2650476D01*
X8236628Y2651604D01*
X8239448Y2652732D01*
X8242549Y2653718D01*
X8245932Y2654423D01*
X8247624Y2654705D01*
X8250725D01*
X8251571Y2654564D01*
X8252699Y2654423D01*
X8253968Y2654282D01*
X8255377Y2654000D01*
X8256928Y2653577D01*
X8260311Y2652591D01*
X8262144Y2651886D01*
X8263977Y2650899D01*
X8265809Y2649912D01*
X8267642Y2648784D01*
X8269333Y2647375D01*
X8271025Y2645824D01*
X8271166Y2645683D01*
X8271448Y2645401D01*
X8271871Y2644978D01*
X8272435Y2644273D01*
X8273140Y2643287D01*
X8273845Y2642300D01*
X8274690Y2641031D01*
X8275536Y2639621D01*
X8276241Y2638071D01*
X8277087Y2636379D01*
X8277792Y2634405D01*
X8278497Y2632432D01*
X8279060Y2630317D01*
X8279483Y2627921D01*
X8279765Y2625524D01*
X8279906Y2622987D01*
Y2622846D01*
Y2622423D01*
Y2621718D01*
X8279765Y2620731D01*
X8279624Y2619604D01*
X8279483Y2618335D01*
X8279201Y2616784D01*
X8278919Y2615234D01*
X8278074Y2611568D01*
X8276664Y2607762D01*
X8275818Y2605789D01*
X8274690Y2603956D01*
X8273563Y2601982D01*
X8272153Y2600150D01*
X8272012Y2600009D01*
X8271730Y2599586D01*
X8271166Y2599022D01*
X8270461Y2598317D01*
X8269474Y2597471D01*
X8268347Y2596344D01*
X8266937Y2595357D01*
X8265386Y2594229D01*
X8263695Y2593101D01*
X8261721Y2592114D01*
X8259607Y2591128D01*
X8257351Y2590141D01*
X8254955Y2589436D01*
X8252276Y2588872D01*
X8249457Y2588449D01*
X8246496Y2588308D01*
X8245228D01*
X8244241Y2588449D01*
X8243113Y2588590D01*
X8241844Y2588731D01*
X8240294Y2588872D01*
X8238743Y2589295D01*
X8235219Y2590141D01*
X8231694Y2591410D01*
X8229862Y2592255D01*
X8228029Y2593242D01*
X8226338Y2594370D01*
X8224646Y2595639D01*
X8224505Y2595780D01*
X8224223Y2595921D01*
X8223941Y2596485D01*
X8223377Y2597048D01*
X8222672Y2597753D01*
X8221968Y2598599D01*
X8221122Y2599727D01*
X8220417Y2600996D01*
X8219571Y2602264D01*
X8218725Y2603815D01*
X8217175Y2607198D01*
X8215906Y2611145D01*
X8215483Y2613260D01*
X8215201Y2615515D01*
X8227747Y2616502D01*
Y2616361D01*
Y2616079D01*
X8227888Y2615656D01*
X8228029Y2614952D01*
X8228452Y2613401D01*
X8229016Y2611286D01*
X8229862Y2609172D01*
X8230990Y2606775D01*
X8232399Y2604661D01*
X8234091Y2602687D01*
X8234373Y2602546D01*
X8234937Y2601982D01*
X8236065Y2601278D01*
X8237615Y2600432D01*
X8239307Y2599586D01*
X8241421Y2598881D01*
X8243818Y2598317D01*
X8246496Y2598176D01*
X8247342D01*
X8247906Y2598317D01*
X8249598Y2598458D01*
X8251571Y2599022D01*
X8253968Y2599727D01*
X8256364Y2600855D01*
X8258902Y2602546D01*
X8260029Y2603533D01*
X8261157Y2604661D01*
X8261298Y2604802D01*
X8261439Y2604943D01*
X8261721Y2605366D01*
X8262144Y2605789D01*
X8263131Y2607339D01*
X8264259Y2609313D01*
X8265245Y2611709D01*
X8266232Y2614670D01*
X8266937Y2618194D01*
X8267219Y2620027D01*
Y2622000D01*
Y2622141D01*
Y2622423D01*
Y2622987D01*
X8267078Y2623692D01*
Y2624538D01*
X8266937Y2625524D01*
X8266514Y2627780D01*
X8265809Y2630458D01*
X8264822Y2633137D01*
X8263413Y2635674D01*
X8261439Y2638071D01*
Y2638212D01*
X8261157Y2638353D01*
X8260452Y2639057D01*
X8259184Y2640044D01*
X8257492Y2641172D01*
X8255236Y2642159D01*
X8252699Y2643146D01*
X8249739Y2643850D01*
X8248047Y2644132D01*
X8245369D01*
X8244241Y2643991D01*
X8242831Y2643850D01*
X8241139Y2643428D01*
X8239448Y2643005D01*
X8237615Y2642300D01*
X8235783Y2641454D01*
X8235642Y2641313D01*
X8235078Y2641031D01*
X8234232Y2640326D01*
X8233104Y2639621D01*
X8231976Y2638635D01*
X8230849Y2637366D01*
X8229580Y2636097D01*
X8228593Y2634546D01*
X8217316Y2636097D01*
X8226761Y2686282D01*
X8275254D01*
Y2674864D01*
D02*
G37*
G36*
X8615979Y2675992D02*
X8583838D01*
Y2590000D01*
X8570868D01*
Y2675992D01*
X8538727D01*
Y2687551D01*
X8615979D01*
Y2675992D01*
D02*
G37*
G36*
X8341369Y2624397D02*
X8354620D01*
Y2613401D01*
X8341369D01*
Y2590000D01*
X8329387D01*
Y2613401D01*
X8286955D01*
Y2624397D01*
X8331642Y2687551D01*
X8341369D01*
Y2624397D01*
D02*
G37*
G36*
X8174038Y2687833D02*
X8175166Y2687692D01*
X8176575Y2687551D01*
X8178126Y2687269D01*
X8179677Y2686987D01*
X8183342Y2686000D01*
X8187007Y2684591D01*
X8188840Y2683745D01*
X8190672Y2682758D01*
X8192364Y2681489D01*
X8193915Y2680080D01*
X8194055Y2679939D01*
X8194337Y2679798D01*
X8194619Y2679234D01*
X8195183Y2678670D01*
X8195888Y2677965D01*
X8196593Y2676978D01*
X8197298Y2675992D01*
X8198144Y2674723D01*
X8199553Y2672044D01*
X8200963Y2668661D01*
X8201527Y2666970D01*
X8201809Y2664996D01*
X8202091Y2663022D01*
X8202232Y2660908D01*
Y2660626D01*
Y2659921D01*
X8202091Y2658793D01*
X8201950Y2657243D01*
X8201668Y2655551D01*
X8201104Y2653577D01*
X8200540Y2651463D01*
X8199694Y2649348D01*
X8199553Y2649066D01*
X8199271Y2648361D01*
X8198708Y2647234D01*
X8197862Y2645683D01*
X8196734Y2643991D01*
X8195324Y2641877D01*
X8193633Y2639762D01*
X8191659Y2637366D01*
X8191377Y2637084D01*
X8190672Y2636238D01*
X8189967Y2635533D01*
X8189263Y2634828D01*
X8188417Y2633983D01*
X8187289Y2632855D01*
X8186161Y2631727D01*
X8184751Y2630458D01*
X8183342Y2629049D01*
X8181650Y2627498D01*
X8179818Y2625947D01*
X8177844Y2624115D01*
X8175588Y2622282D01*
X8173333Y2620308D01*
X8173192Y2620167D01*
X8172910Y2619886D01*
X8172346Y2619463D01*
X8171641Y2618899D01*
X8170795Y2618053D01*
X8169809Y2617207D01*
X8167553Y2615374D01*
X8165157Y2613260D01*
X8162901Y2611145D01*
X8160928Y2609313D01*
X8160082Y2608608D01*
X8159377Y2607903D01*
X8159236Y2607762D01*
X8158813Y2607339D01*
X8158249Y2606775D01*
X8157544Y2605930D01*
X8156839Y2604943D01*
X8155994Y2603956D01*
X8154302Y2601559D01*
X8202373D01*
Y2590000D01*
X8137667D01*
Y2590141D01*
Y2590705D01*
Y2591551D01*
X8137808Y2592678D01*
X8137949Y2593947D01*
X8138231Y2595357D01*
X8138513Y2596766D01*
X8139077Y2598317D01*
Y2598458D01*
X8139218Y2598599D01*
X8139500Y2599445D01*
X8140064Y2600714D01*
X8140910Y2602405D01*
X8142038Y2604379D01*
X8143447Y2606634D01*
X8144998Y2608890D01*
X8146972Y2611286D01*
Y2611427D01*
X8147253Y2611568D01*
X8147958Y2612414D01*
X8149227Y2613683D01*
X8151060Y2615515D01*
X8153174Y2617630D01*
X8155853Y2620167D01*
X8159095Y2622987D01*
X8162619Y2625947D01*
X8162760Y2626088D01*
X8163324Y2626511D01*
X8164170Y2627216D01*
X8165157Y2628062D01*
X8166425Y2629190D01*
X8167976Y2630458D01*
X8169527Y2631868D01*
X8171359Y2633419D01*
X8174884Y2636802D01*
X8178408Y2640185D01*
X8180099Y2641877D01*
X8181650Y2643568D01*
X8183060Y2645119D01*
X8184188Y2646670D01*
Y2646811D01*
X8184470Y2646952D01*
X8184751Y2647375D01*
X8185033Y2647939D01*
X8186020Y2649489D01*
X8187148Y2651322D01*
X8188135Y2653577D01*
X8189122Y2655974D01*
X8189685Y2658652D01*
X8189967Y2661190D01*
Y2661331D01*
Y2661472D01*
X8189826Y2662318D01*
X8189685Y2663727D01*
X8189263Y2665278D01*
X8188699Y2667251D01*
X8187712Y2669225D01*
X8186443Y2671199D01*
X8184751Y2673172D01*
X8184470Y2673454D01*
X8183765Y2674018D01*
X8182778Y2674723D01*
X8181227Y2675710D01*
X8179254Y2676555D01*
X8176998Y2677401D01*
X8174320Y2677965D01*
X8171359Y2678106D01*
X8170514D01*
X8169950Y2677965D01*
X8168258Y2677824D01*
X8166284Y2677401D01*
X8164170Y2676837D01*
X8161773Y2675851D01*
X8159518Y2674582D01*
X8157403Y2672890D01*
X8157121Y2672608D01*
X8156557Y2671903D01*
X8155712Y2670776D01*
X8154866Y2669084D01*
X8153879Y2667110D01*
X8153033Y2664573D01*
X8152469Y2661754D01*
X8152187Y2658511D01*
X8139923Y2659780D01*
Y2659921D01*
X8140064Y2660344D01*
Y2661049D01*
X8140205Y2662036D01*
X8140487Y2663163D01*
X8140769Y2664432D01*
X8141192Y2665983D01*
X8141615Y2667533D01*
X8142742Y2670917D01*
X8144434Y2674300D01*
X8145421Y2675992D01*
X8146690Y2677683D01*
X8147958Y2679234D01*
X8149368Y2680644D01*
X8149509Y2680785D01*
X8149791Y2680926D01*
X8150214Y2681348D01*
X8150919Y2681771D01*
X8151764Y2682335D01*
X8152751Y2682899D01*
X8153879Y2683604D01*
X8155289Y2684309D01*
X8156839Y2685014D01*
X8158531Y2685719D01*
X8160364Y2686282D01*
X8162337Y2686846D01*
X8164452Y2687269D01*
X8166707Y2687692D01*
X8169104Y2687833D01*
X8171641Y2687974D01*
X8173051D01*
X8174038Y2687833D01*
D02*
G37*
G36*
X8092134Y2687410D02*
X8093262D01*
X8095799Y2687128D01*
X8098619Y2686846D01*
X8101579Y2686282D01*
X8104540Y2685578D01*
X8107218Y2684591D01*
X8107359D01*
X8107500Y2684450D01*
X8108346Y2684027D01*
X8109614Y2683322D01*
X8111024Y2682335D01*
X8112716Y2681067D01*
X8114548Y2679516D01*
X8116240Y2677542D01*
X8117791Y2675428D01*
X8117932Y2675146D01*
X8118355Y2674300D01*
X8119059Y2673172D01*
X8119764Y2671481D01*
X8120469Y2669507D01*
X8121174Y2667392D01*
X8121597Y2664996D01*
X8121738Y2662599D01*
Y2662318D01*
Y2661613D01*
X8121597Y2660344D01*
X8121315Y2658793D01*
X8120892Y2656961D01*
X8120187Y2654987D01*
X8119341Y2653013D01*
X8118214Y2650899D01*
X8118073Y2650617D01*
X8117650Y2650053D01*
X8116804Y2648925D01*
X8115676Y2647798D01*
X8114266Y2646388D01*
X8112575Y2644837D01*
X8110460Y2643428D01*
X8108064Y2642018D01*
X8108205D01*
X8108487Y2641877D01*
X8108910Y2641736D01*
X8109473Y2641454D01*
X8111165Y2640890D01*
X8113139Y2639903D01*
X8115253Y2638635D01*
X8117650Y2637084D01*
X8119764Y2635251D01*
X8121738Y2632996D01*
X8121879Y2632714D01*
X8122443Y2631868D01*
X8123289Y2630599D01*
X8124134Y2628908D01*
X8124980Y2626652D01*
X8125826Y2624256D01*
X8126390Y2621436D01*
X8126531Y2618335D01*
Y2618194D01*
Y2618053D01*
Y2617207D01*
X8126390Y2615797D01*
X8126108Y2614106D01*
X8125826Y2612132D01*
X8125262Y2610018D01*
X8124557Y2607762D01*
X8123570Y2605507D01*
X8123430Y2605225D01*
X8123007Y2604520D01*
X8122443Y2603533D01*
X8121597Y2602123D01*
X8120469Y2600714D01*
X8119341Y2599163D01*
X8117932Y2597612D01*
X8116381Y2596344D01*
X8116240Y2596203D01*
X8115676Y2595780D01*
X8114689Y2595216D01*
X8113421Y2594652D01*
X8111870Y2593806D01*
X8110037Y2592960D01*
X8108064Y2592255D01*
X8105667Y2591551D01*
X8105385D01*
X8104540Y2591269D01*
X8103130Y2591128D01*
X8101297Y2590846D01*
X8099042Y2590564D01*
X8096363Y2590282D01*
X8093403Y2590141D01*
X8090020Y2590000D01*
X8052804D01*
Y2687551D01*
X8091147D01*
X8092134Y2687410D01*
D02*
G37*
G36*
X8001490D02*
X8002759D01*
X8005720Y2687269D01*
X8008821Y2686846D01*
X8012204Y2686423D01*
X8015306Y2685719D01*
X8016856Y2685296D01*
X8018125Y2684873D01*
X8018266D01*
X8018407Y2684732D01*
X8019253Y2684309D01*
X8020521Y2683745D01*
X8022072Y2682758D01*
X8023764Y2681489D01*
X8025596Y2679798D01*
X8027288Y2677824D01*
X8028980Y2675569D01*
Y2675428D01*
X8029121Y2675287D01*
X8029684Y2674441D01*
X8030248Y2673031D01*
X8031094Y2671199D01*
X8031799Y2669084D01*
X8032504Y2666547D01*
X8032927Y2663868D01*
X8033068Y2660908D01*
Y2660767D01*
Y2660485D01*
Y2659921D01*
X8032927Y2659216D01*
Y2658229D01*
X8032786Y2657243D01*
X8032222Y2654846D01*
X8031376Y2652027D01*
X8030248Y2649066D01*
X8028557Y2646106D01*
X8027429Y2644696D01*
X8026301Y2643287D01*
X8026160Y2643146D01*
X8026019Y2643005D01*
X8025596Y2642582D01*
X8025032Y2642159D01*
X8024328Y2641595D01*
X8023482Y2641031D01*
X8022354Y2640326D01*
X8021226Y2639480D01*
X8019817Y2638776D01*
X8018266Y2638071D01*
X8016574Y2637225D01*
X8014742Y2636520D01*
X8012627Y2635956D01*
X8010513Y2635251D01*
X8008116Y2634828D01*
X8005579Y2634405D01*
X8005861Y2634264D01*
X8006424Y2633983D01*
X8007270Y2633419D01*
X8008398Y2632855D01*
X8010935Y2631304D01*
X8012204Y2630317D01*
X8013332Y2629471D01*
X8013614Y2629190D01*
X8014319Y2628485D01*
X8015447Y2627357D01*
X8016856Y2625947D01*
X8018407Y2623974D01*
X8020239Y2621859D01*
X8022072Y2619322D01*
X8024046Y2616502D01*
X8040821Y2590000D01*
X8024751D01*
X8011922Y2610300D01*
Y2610441D01*
X8011640Y2610722D01*
X8011358Y2611145D01*
X8010935Y2611709D01*
X8009949Y2613260D01*
X8008680Y2615234D01*
X8007129Y2617348D01*
X8005579Y2619604D01*
X8004028Y2621718D01*
X8002618Y2623692D01*
X8002477Y2623833D01*
X8002054Y2624397D01*
X8001350Y2625242D01*
X8000363Y2626229D01*
X7998248Y2628344D01*
X7997120Y2629331D01*
X7995993Y2630176D01*
X7995852Y2630317D01*
X7995570Y2630458D01*
X7995006Y2630740D01*
X7994160Y2631163D01*
X7993314Y2631586D01*
X7992327Y2632009D01*
X7990072Y2632714D01*
X7989931D01*
X7989649Y2632855D01*
X7989085D01*
X7988380Y2632996D01*
X7987393Y2633137D01*
X7986266D01*
X7984715Y2633278D01*
X7968081D01*
Y2590000D01*
X7955111D01*
Y2687551D01*
X8000363D01*
X8001490Y2687410D01*
D02*
G37*
G36*
X7902811D02*
X7903939D01*
X7906477Y2687128D01*
X7909296Y2686846D01*
X7912256Y2686282D01*
X7915217Y2685578D01*
X7917895Y2684591D01*
X7918036D01*
X7918177Y2684450D01*
X7919023Y2684027D01*
X7920292Y2683322D01*
X7921701Y2682335D01*
X7923393Y2681067D01*
X7925226Y2679516D01*
X7926917Y2677542D01*
X7928468Y2675428D01*
X7928609Y2675146D01*
X7929032Y2674300D01*
X7929737Y2673172D01*
X7930442Y2671481D01*
X7931146Y2669507D01*
X7931851Y2667392D01*
X7932274Y2664996D01*
X7932415Y2662599D01*
Y2662318D01*
Y2661613D01*
X7932274Y2660344D01*
X7931992Y2658793D01*
X7931569Y2656961D01*
X7930865Y2654987D01*
X7930019Y2653013D01*
X7928891Y2650899D01*
X7928750Y2650617D01*
X7928327Y2650053D01*
X7927481Y2648925D01*
X7926353Y2647798D01*
X7924944Y2646388D01*
X7923252Y2644837D01*
X7921138Y2643428D01*
X7918741Y2642018D01*
X7918882D01*
X7919164Y2641877D01*
X7919587Y2641736D01*
X7920151Y2641454D01*
X7921842Y2640890D01*
X7923816Y2639903D01*
X7925931Y2638635D01*
X7928327Y2637084D01*
X7930442Y2635251D01*
X7932415Y2632996D01*
X7932556Y2632714D01*
X7933120Y2631868D01*
X7933966Y2630599D01*
X7934812Y2628908D01*
X7935657Y2626652D01*
X7936503Y2624256D01*
X7937067Y2621436D01*
X7937208Y2618335D01*
Y2618194D01*
Y2618053D01*
Y2617207D01*
X7937067Y2615797D01*
X7936785Y2614106D01*
X7936503Y2612132D01*
X7935939Y2610018D01*
X7935235Y2607762D01*
X7934248Y2605507D01*
X7934107Y2605225D01*
X7933684Y2604520D01*
X7933120Y2603533D01*
X7932274Y2602123D01*
X7931146Y2600714D01*
X7930019Y2599163D01*
X7928609Y2597612D01*
X7927058Y2596344D01*
X7926917Y2596203D01*
X7926353Y2595780D01*
X7925367Y2595216D01*
X7924098Y2594652D01*
X7922547Y2593806D01*
X7920715Y2592960D01*
X7918741Y2592255D01*
X7916345Y2591551D01*
X7916063D01*
X7915217Y2591269D01*
X7913807Y2591128D01*
X7911975Y2590846D01*
X7909719Y2590564D01*
X7907041Y2590282D01*
X7904080Y2590141D01*
X7900697Y2590000D01*
X7863481D01*
Y2687551D01*
X7901825D01*
X7902811Y2687410D01*
D02*
G37*
%LPC*%
G36*
X7761635Y5772992D02*
Y5772923D01*
X7761565Y5772784D01*
Y5772507D01*
X7761427Y5772229D01*
X7761357Y5771744D01*
X7761219Y5771258D01*
X7760941Y5770080D01*
X7760595Y5768693D01*
X7760109Y5767167D01*
X7759624Y5765503D01*
X7759000Y5763770D01*
X7753799Y5749762D01*
X7770025D01*
X7765032Y5762937D01*
Y5763007D01*
X7764963Y5763215D01*
X7764824Y5763561D01*
X7764686Y5763978D01*
X7764478Y5764463D01*
X7764270Y5765087D01*
X7764062Y5765780D01*
X7763784Y5766474D01*
X7763230Y5768069D01*
X7762675Y5769733D01*
X7762120Y5771397D01*
X7761635Y5772992D01*
D02*
G37*
G36*
X7974653Y5773339D02*
X7974237D01*
X7973960Y5773269D01*
X7973197Y5773131D01*
X7972296Y5772923D01*
X7971256Y5772507D01*
X7970146Y5771883D01*
X7969591Y5771466D01*
X7969037Y5771050D01*
X7968551Y5770496D01*
X7968066Y5769872D01*
Y5769802D01*
X7967927Y5769664D01*
X7967788Y5769386D01*
X7967580Y5769040D01*
X7967372Y5768485D01*
X7967095Y5767861D01*
X7966887Y5767098D01*
X7966610Y5766196D01*
X7966332Y5765156D01*
X7966055Y5763978D01*
X7965778Y5762660D01*
X7965570Y5761204D01*
X7965362Y5759540D01*
X7965223Y5757737D01*
X7965153Y5755795D01*
X7965084Y5753646D01*
Y5753507D01*
Y5753160D01*
Y5752536D01*
X7965153Y5751704D01*
Y5750803D01*
X7965223Y5749693D01*
X7965292Y5748514D01*
X7965431Y5747266D01*
X7965778Y5744562D01*
X7965986Y5743244D01*
X7966263Y5741996D01*
X7966540Y5740817D01*
X7966956Y5739708D01*
X7967372Y5738737D01*
X7967858Y5737905D01*
Y5737836D01*
X7967997Y5737766D01*
X7968343Y5737281D01*
X7968967Y5736657D01*
X7969730Y5735963D01*
X7970770Y5735270D01*
X7971949Y5734646D01*
X7973267Y5734160D01*
X7973960Y5734091D01*
X7974723Y5734022D01*
X7975139D01*
X7975416Y5734091D01*
X7976110Y5734230D01*
X7977080Y5734507D01*
X7978120Y5734993D01*
X7979299Y5735686D01*
X7979854Y5736102D01*
X7980409Y5736657D01*
X7980963Y5737212D01*
X7981518Y5737905D01*
Y5737974D01*
X7981657Y5738113D01*
X7981796Y5738321D01*
X7981934Y5738668D01*
X7982212Y5739153D01*
X7982420Y5739777D01*
X7982697Y5740471D01*
X7982974Y5741303D01*
X7983182Y5742343D01*
X7983460Y5743452D01*
X7983737Y5744770D01*
X7983945Y5746157D01*
X7984084Y5747821D01*
X7984223Y5749554D01*
X7984361Y5751496D01*
Y5753646D01*
Y5753715D01*
Y5753784D01*
Y5754131D01*
Y5754755D01*
X7984292Y5755587D01*
Y5756489D01*
X7984223Y5757598D01*
X7984153Y5758777D01*
X7984015Y5760094D01*
X7983668Y5762729D01*
X7983460Y5764047D01*
X7983182Y5765295D01*
X7982905Y5766474D01*
X7982489Y5767583D01*
X7982073Y5768554D01*
X7981588Y5769386D01*
Y5769456D01*
X7981449Y5769525D01*
X7981310Y5769733D01*
X7981102Y5770010D01*
X7980478Y5770634D01*
X7979715Y5771397D01*
X7978675Y5772091D01*
X7977496Y5772715D01*
X7976872Y5772992D01*
X7976179Y5773200D01*
X7975416Y5773269D01*
X7974653Y5773339D01*
D02*
G37*
G36*
X7937486D02*
X7936931D01*
X7936307Y5773200D01*
X7935475Y5773061D01*
X7934574Y5772784D01*
X7933603Y5772437D01*
X7932701Y5771883D01*
X7931800Y5771120D01*
X7931731Y5771050D01*
X7931453Y5770773D01*
X7931107Y5770288D01*
X7930760Y5769664D01*
X7930344Y5768901D01*
X7929997Y5767999D01*
X7929720Y5767029D01*
X7929650Y5765919D01*
Y5765850D01*
Y5765780D01*
X7929720Y5765364D01*
X7929789Y5764740D01*
X7929928Y5763978D01*
X7930205Y5763076D01*
X7930552Y5762175D01*
X7931107Y5761204D01*
X7931800Y5760372D01*
X7931869Y5760302D01*
X7932216Y5760025D01*
X7932701Y5759678D01*
X7933326Y5759332D01*
X7934158Y5758916D01*
X7935128Y5758569D01*
X7936238Y5758292D01*
X7937486Y5758222D01*
X7937625D01*
X7938041Y5758292D01*
X7938665Y5758361D01*
X7939497Y5758500D01*
X7940398Y5758777D01*
X7941300Y5759124D01*
X7942271Y5759678D01*
X7943103Y5760372D01*
X7943172Y5760441D01*
X7943449Y5760788D01*
X7943796Y5761204D01*
X7944212Y5761828D01*
X7944628Y5762591D01*
X7944975Y5763492D01*
X7945252Y5764532D01*
X7945322Y5765642D01*
Y5765711D01*
Y5765780D01*
Y5766196D01*
X7945183Y5766821D01*
X7945044Y5767583D01*
X7944767Y5768415D01*
X7944351Y5769317D01*
X7943796Y5770218D01*
X7943033Y5771120D01*
X7942964Y5771189D01*
X7942617Y5771466D01*
X7942132Y5771813D01*
X7941508Y5772229D01*
X7940676Y5772645D01*
X7939774Y5772992D01*
X7938665Y5773269D01*
X7937486Y5773339D01*
D02*
G37*
G36*
X7937278Y5753438D02*
X7936862D01*
X7936585Y5753368D01*
X7935822Y5753299D01*
X7934851Y5753091D01*
X7933742Y5752744D01*
X7932632Y5752259D01*
X7931453Y5751565D01*
X7930413Y5750664D01*
X7930274Y5750525D01*
X7929997Y5750178D01*
X7929581Y5749554D01*
X7929096Y5748792D01*
X7928541Y5747752D01*
X7928125Y5746573D01*
X7927847Y5745255D01*
X7927709Y5743799D01*
Y5743660D01*
Y5743383D01*
X7927778Y5742898D01*
X7927847Y5742274D01*
X7927986Y5741511D01*
X7928194Y5740679D01*
X7928472Y5739847D01*
X7928818Y5738945D01*
X7928888Y5738876D01*
X7929026Y5738529D01*
X7929304Y5738113D01*
X7929720Y5737628D01*
X7930205Y5737004D01*
X7930829Y5736379D01*
X7931523Y5735825D01*
X7932355Y5735270D01*
X7932493Y5735201D01*
X7932771Y5735062D01*
X7933256Y5734854D01*
X7933880Y5734646D01*
X7934643Y5734438D01*
X7935544Y5734230D01*
X7936515Y5734091D01*
X7937486Y5734022D01*
X7937902D01*
X7938179Y5734091D01*
X7939012Y5734160D01*
X7939982Y5734369D01*
X7941092Y5734715D01*
X7942271Y5735131D01*
X7943380Y5735825D01*
X7944490Y5736726D01*
X7944628Y5736865D01*
X7944906Y5737212D01*
X7945391Y5737836D01*
X7945876Y5738598D01*
X7946362Y5739569D01*
X7946847Y5740748D01*
X7947125Y5742135D01*
X7947263Y5743591D01*
Y5743660D01*
Y5743799D01*
Y5744007D01*
X7947194Y5744284D01*
X7947125Y5745047D01*
X7946917Y5746087D01*
X7946570Y5747127D01*
X7946084Y5748306D01*
X7945391Y5749485D01*
X7944420Y5750595D01*
X7944282Y5750733D01*
X7943935Y5751011D01*
X7943311Y5751496D01*
X7942479Y5752051D01*
X7941439Y5752536D01*
X7940190Y5753022D01*
X7938804Y5753299D01*
X7937278Y5753438D01*
D02*
G37*
G36*
X7810660Y5773339D02*
X7809966D01*
X7809481Y5773269D01*
X7808857Y5773200D01*
X7808163Y5773061D01*
X7807400Y5772923D01*
X7806568Y5772715D01*
X7805598Y5772437D01*
X7804696Y5772160D01*
X7803725Y5771744D01*
X7802685Y5771258D01*
X7801714Y5770704D01*
X7800744Y5770010D01*
X7799773Y5769317D01*
X7798871Y5768415D01*
X7798802Y5768346D01*
X7798663Y5768207D01*
X7798455Y5767930D01*
X7798178Y5767514D01*
X7797762Y5767029D01*
X7797415Y5766405D01*
X7796999Y5765642D01*
X7796583Y5764810D01*
X7796098Y5763839D01*
X7795682Y5762729D01*
X7795335Y5761551D01*
X7794988Y5760233D01*
X7794642Y5758846D01*
X7794433Y5757321D01*
X7794295Y5755657D01*
X7794225Y5753923D01*
Y5753784D01*
Y5753507D01*
Y5753022D01*
X7794295Y5752397D01*
X7794364Y5751635D01*
X7794503Y5750733D01*
X7794642Y5749693D01*
X7794780Y5748653D01*
X7795335Y5746295D01*
X7795682Y5745117D01*
X7796167Y5743938D01*
X7796652Y5742759D01*
X7797277Y5741649D01*
X7797970Y5740540D01*
X7798802Y5739569D01*
X7798871Y5739500D01*
X7799010Y5739361D01*
X7799287Y5739084D01*
X7799634Y5738806D01*
X7800120Y5738390D01*
X7800674Y5737974D01*
X7801298Y5737558D01*
X7802061Y5737073D01*
X7802824Y5736587D01*
X7803725Y5736171D01*
X7804696Y5735755D01*
X7805736Y5735339D01*
X7806915Y5735062D01*
X7808094Y5734785D01*
X7809342Y5734646D01*
X7810660Y5734577D01*
X7811284D01*
X7811908Y5734646D01*
X7812740Y5734715D01*
X7813780Y5734854D01*
X7814820Y5735131D01*
X7815999Y5735409D01*
X7817108Y5735825D01*
X7816970Y5735894D01*
X7816623Y5736171D01*
X7815999Y5736518D01*
X7815236Y5736934D01*
X7814265Y5737350D01*
X7813225Y5737836D01*
X7812046Y5738252D01*
X7810798Y5738598D01*
X7812393Y5743175D01*
X7812462D01*
X7812670Y5743106D01*
X7812948Y5743036D01*
X7813295Y5742898D01*
X7813780Y5742759D01*
X7814335Y5742551D01*
X7815583Y5742065D01*
X7817039Y5741372D01*
X7818564Y5740609D01*
X7820021Y5739708D01*
X7821477Y5738598D01*
X7821546Y5738668D01*
X7821754Y5738806D01*
X7822032Y5739153D01*
X7822378Y5739569D01*
X7822794Y5740124D01*
X7823280Y5740748D01*
X7823765Y5741511D01*
X7824320Y5742412D01*
X7824805Y5743452D01*
X7825291Y5744631D01*
X7825776Y5745879D01*
X7826192Y5747197D01*
X7826608Y5748722D01*
X7826886Y5750317D01*
X7827024Y5752051D01*
X7827094Y5753923D01*
Y5753992D01*
Y5754200D01*
Y5754478D01*
Y5754894D01*
X7827024Y5755448D01*
Y5756003D01*
X7826955Y5756697D01*
X7826816Y5757390D01*
X7826608Y5758985D01*
X7826261Y5760718D01*
X7825776Y5762452D01*
X7825083Y5764116D01*
Y5764186D01*
X7825013Y5764324D01*
X7824875Y5764532D01*
X7824736Y5764810D01*
X7824251Y5765642D01*
X7823626Y5766613D01*
X7822794Y5767722D01*
X7821754Y5768831D01*
X7820575Y5769941D01*
X7819258Y5770912D01*
X7819189D01*
X7819119Y5771050D01*
X7818911Y5771120D01*
X7818564Y5771328D01*
X7818218Y5771466D01*
X7817802Y5771675D01*
X7816762Y5772160D01*
X7815513Y5772576D01*
X7814057Y5772992D01*
X7812393Y5773269D01*
X7810660Y5773339D01*
D02*
G37*
G36*
X4929387Y2698097D02*
X4898655Y2654397D01*
X4929387D01*
Y2698097D01*
D02*
G37*
G36*
X4688892Y2705992D02*
X4665773D01*
Y2676670D01*
X4689738D01*
X4691570Y2676811D01*
X4693544Y2676952D01*
X4695517Y2677093D01*
X4697491Y2677375D01*
X4699042Y2677657D01*
X4699324Y2677798D01*
X4699887Y2677939D01*
X4700733Y2678362D01*
X4701861Y2678926D01*
X4702989Y2679489D01*
X4704258Y2680335D01*
X4705526Y2681463D01*
X4706513Y2682591D01*
X4706654Y2682732D01*
X4706936Y2683155D01*
X4707359Y2684000D01*
X4707782Y2684987D01*
X4708205Y2686115D01*
X4708628Y2687525D01*
X4708910Y2689216D01*
X4709051Y2691049D01*
Y2691331D01*
Y2691895D01*
X4708910Y2692741D01*
X4708769Y2693868D01*
X4708487Y2695278D01*
X4708064Y2696688D01*
X4707500Y2698097D01*
X4706654Y2699507D01*
X4706513Y2699648D01*
X4706231Y2700071D01*
X4705667Y2700776D01*
X4704962Y2701481D01*
X4703976Y2702327D01*
X4702848Y2703172D01*
X4701438Y2704018D01*
X4699887Y2704582D01*
X4699747D01*
X4699042Y2704864D01*
X4698055Y2705005D01*
X4696504Y2705287D01*
X4694390Y2705569D01*
X4691993Y2705710D01*
X4688892Y2705992D01*
D02*
G37*
G36*
X4691429Y2665110D02*
X4665773D01*
Y2631560D01*
X4693544D01*
X4696504Y2631701D01*
X4697773Y2631842D01*
X4698901Y2631983D01*
X4699042D01*
X4699606Y2632124D01*
X4700451Y2632264D01*
X4701438Y2632546D01*
X4703835Y2633392D01*
X4706231Y2634520D01*
X4706372Y2634661D01*
X4706795Y2634943D01*
X4707359Y2635366D01*
X4708064Y2635930D01*
X4708769Y2636776D01*
X4709755Y2637621D01*
X4710460Y2638749D01*
X4711306Y2640018D01*
X4711447Y2640159D01*
X4711588Y2640582D01*
X4711870Y2641428D01*
X4712293Y2642414D01*
X4712716Y2643542D01*
X4712998Y2644952D01*
X4713139Y2646643D01*
X4713280Y2648335D01*
Y2648617D01*
Y2649181D01*
X4713139Y2650309D01*
X4712857Y2651577D01*
X4712575Y2652987D01*
X4712011Y2654538D01*
X4711306Y2656088D01*
X4710319Y2657639D01*
X4710178Y2657780D01*
X4709755Y2658344D01*
X4709191Y2659049D01*
X4708346Y2659895D01*
X4707218Y2660881D01*
X4705808Y2661868D01*
X4704258Y2662714D01*
X4702425Y2663419D01*
X4702143Y2663560D01*
X4701579Y2663701D01*
X4700310Y2663983D01*
X4698760Y2664265D01*
X4696786Y2664547D01*
X4694390Y2664829D01*
X4691429Y2665110D01*
D02*
G37*
G36*
X4598812Y2706697D02*
X4568081D01*
Y2674415D01*
X4597120D01*
X4598812Y2674555D01*
X4600786Y2674696D01*
X4603041Y2674837D01*
X4605297Y2675119D01*
X4607552Y2675542D01*
X4609526Y2676106D01*
X4609808Y2676247D01*
X4610372Y2676529D01*
X4611217Y2676952D01*
X4612345Y2677516D01*
X4613614Y2678362D01*
X4614883Y2679348D01*
X4616151Y2680617D01*
X4617138Y2682027D01*
X4617279Y2682168D01*
X4617561Y2682732D01*
X4617984Y2683578D01*
X4618548Y2684705D01*
X4618971Y2685974D01*
X4619394Y2687384D01*
X4619676Y2689075D01*
X4619817Y2690767D01*
Y2690908D01*
Y2691049D01*
X4619676Y2691895D01*
X4619535Y2693164D01*
X4619253Y2694855D01*
X4618548Y2696547D01*
X4617702Y2698520D01*
X4616433Y2700353D01*
X4614742Y2702186D01*
X4614460Y2702327D01*
X4613755Y2702890D01*
X4612627Y2703595D01*
X4610794Y2704441D01*
X4608680Y2705287D01*
X4605860Y2705992D01*
X4602618Y2706556D01*
X4598812Y2706697D01*
D02*
G37*
G36*
X4499569Y2705992D02*
X4476450D01*
Y2676670D01*
X4500415D01*
X4502248Y2676811D01*
X4504221Y2676952D01*
X4506195Y2677093D01*
X4508168Y2677375D01*
X4509719Y2677657D01*
X4510001Y2677798D01*
X4510565Y2677939D01*
X4511411Y2678362D01*
X4512538Y2678926D01*
X4513666Y2679489D01*
X4514935Y2680335D01*
X4516204Y2681463D01*
X4517190Y2682591D01*
X4517331Y2682732D01*
X4517613Y2683155D01*
X4518036Y2684000D01*
X4518459Y2684987D01*
X4518882Y2686115D01*
X4519305Y2687525D01*
X4519587Y2689216D01*
X4519728Y2691049D01*
Y2691331D01*
Y2691895D01*
X4519587Y2692741D01*
X4519446Y2693868D01*
X4519164Y2695278D01*
X4518741Y2696688D01*
X4518177Y2698097D01*
X4517331Y2699507D01*
X4517190Y2699648D01*
X4516908Y2700071D01*
X4516345Y2700776D01*
X4515640Y2701481D01*
X4514653Y2702327D01*
X4513525Y2703172D01*
X4512115Y2704018D01*
X4510565Y2704582D01*
X4510424D01*
X4509719Y2704864D01*
X4508732Y2705005D01*
X4507181Y2705287D01*
X4505067Y2705569D01*
X4502670Y2705710D01*
X4499569Y2705992D01*
D02*
G37*
G36*
X4502107Y2665110D02*
X4476450D01*
Y2631560D01*
X4504221D01*
X4507181Y2631701D01*
X4508450Y2631842D01*
X4509578Y2631983D01*
X4509719D01*
X4510283Y2632124D01*
X4511129Y2632264D01*
X4512115Y2632546D01*
X4514512Y2633392D01*
X4516908Y2634520D01*
X4517049Y2634661D01*
X4517472Y2634943D01*
X4518036Y2635366D01*
X4518741Y2635930D01*
X4519446Y2636776D01*
X4520433Y2637621D01*
X4521138Y2638749D01*
X4521983Y2640018D01*
X4522124Y2640159D01*
X4522265Y2640582D01*
X4522547Y2641428D01*
X4522970Y2642414D01*
X4523393Y2643542D01*
X4523675Y2644952D01*
X4523816Y2646643D01*
X4523957Y2648335D01*
Y2648617D01*
Y2649181D01*
X4523816Y2650309D01*
X4523534Y2651577D01*
X4523252Y2652987D01*
X4522688Y2654538D01*
X4521983Y2656088D01*
X4520997Y2657639D01*
X4520856Y2657780D01*
X4520433Y2658344D01*
X4519869Y2659049D01*
X4519023Y2659895D01*
X4517895Y2660881D01*
X4516486Y2661868D01*
X4514935Y2662714D01*
X4513102Y2663419D01*
X4512820Y2663560D01*
X4512256Y2663701D01*
X4510988Y2663983D01*
X4509437Y2664265D01*
X4507463Y2664547D01*
X4505067Y2664829D01*
X4502107Y2665110D01*
D02*
G37*
G36*
X8329387Y2668097D02*
X8298655Y2624397D01*
X8329387D01*
Y2668097D01*
D02*
G37*
G36*
X8088892Y2675992D02*
X8065773D01*
Y2646670D01*
X8089738D01*
X8091570Y2646811D01*
X8093544Y2646952D01*
X8095517Y2647093D01*
X8097491Y2647375D01*
X8099042Y2647657D01*
X8099324Y2647798D01*
X8099888Y2647939D01*
X8100733Y2648361D01*
X8101861Y2648925D01*
X8102989Y2649489D01*
X8104258Y2650335D01*
X8105526Y2651463D01*
X8106513Y2652591D01*
X8106654Y2652732D01*
X8106936Y2653154D01*
X8107359Y2654000D01*
X8107782Y2654987D01*
X8108205Y2656115D01*
X8108628Y2657525D01*
X8108910Y2659216D01*
X8109051Y2661049D01*
Y2661331D01*
Y2661895D01*
X8108910Y2662740D01*
X8108769Y2663868D01*
X8108487Y2665278D01*
X8108064Y2666688D01*
X8107500Y2668097D01*
X8106654Y2669507D01*
X8106513Y2669648D01*
X8106231Y2670071D01*
X8105667Y2670776D01*
X8104962Y2671481D01*
X8103976Y2672326D01*
X8102848Y2673172D01*
X8101438Y2674018D01*
X8099888Y2674582D01*
X8099747D01*
X8099042Y2674864D01*
X8098055Y2675005D01*
X8096504Y2675287D01*
X8094390Y2675569D01*
X8091993Y2675710D01*
X8088892Y2675992D01*
D02*
G37*
G36*
X8091429Y2635110D02*
X8065773D01*
Y2601559D01*
X8093544D01*
X8096504Y2601700D01*
X8097773Y2601841D01*
X8098901Y2601982D01*
X8099042D01*
X8099606Y2602123D01*
X8100451Y2602264D01*
X8101438Y2602546D01*
X8103835Y2603392D01*
X8106231Y2604520D01*
X8106372Y2604661D01*
X8106795Y2604943D01*
X8107359Y2605366D01*
X8108064Y2605930D01*
X8108769Y2606775D01*
X8109755Y2607621D01*
X8110460Y2608749D01*
X8111306Y2610018D01*
X8111447Y2610159D01*
X8111588Y2610582D01*
X8111870Y2611427D01*
X8112293Y2612414D01*
X8112716Y2613542D01*
X8112998Y2614952D01*
X8113139Y2616643D01*
X8113280Y2618335D01*
Y2618617D01*
Y2619181D01*
X8113139Y2620308D01*
X8112857Y2621577D01*
X8112575Y2622987D01*
X8112011Y2624538D01*
X8111306Y2626088D01*
X8110319Y2627639D01*
X8110178Y2627780D01*
X8109755Y2628344D01*
X8109192Y2629049D01*
X8108346Y2629894D01*
X8107218Y2630881D01*
X8105808Y2631868D01*
X8104258Y2632714D01*
X8102425Y2633419D01*
X8102143Y2633560D01*
X8101579Y2633701D01*
X8100310Y2633983D01*
X8098760Y2634264D01*
X8096786Y2634546D01*
X8094390Y2634828D01*
X8091429Y2635110D01*
D02*
G37*
G36*
X7998812Y2676696D02*
X7968081D01*
Y2644414D01*
X7997120D01*
X7998812Y2644555D01*
X8000786Y2644696D01*
X8003041Y2644837D01*
X8005297Y2645119D01*
X8007552Y2645542D01*
X8009526Y2646106D01*
X8009808Y2646247D01*
X8010372Y2646529D01*
X8011217Y2646952D01*
X8012345Y2647516D01*
X8013614Y2648361D01*
X8014883Y2649348D01*
X8016151Y2650617D01*
X8017138Y2652027D01*
X8017279Y2652168D01*
X8017561Y2652732D01*
X8017984Y2653577D01*
X8018548Y2654705D01*
X8018971Y2655974D01*
X8019394Y2657384D01*
X8019676Y2659075D01*
X8019817Y2660767D01*
Y2660908D01*
Y2661049D01*
X8019676Y2661895D01*
X8019535Y2663163D01*
X8019253Y2664855D01*
X8018548Y2666547D01*
X8017702Y2668520D01*
X8016433Y2670353D01*
X8014742Y2672185D01*
X8014460Y2672326D01*
X8013755Y2672890D01*
X8012627Y2673595D01*
X8010794Y2674441D01*
X8008680Y2675287D01*
X8005861Y2675992D01*
X8002618Y2676555D01*
X7998812Y2676696D01*
D02*
G37*
G36*
X7899569Y2675992D02*
X7876450D01*
Y2646670D01*
X7900415D01*
X7902248Y2646811D01*
X7904221Y2646952D01*
X7906195Y2647093D01*
X7908168Y2647375D01*
X7909719Y2647657D01*
X7910001Y2647798D01*
X7910565Y2647939D01*
X7911411Y2648361D01*
X7912538Y2648925D01*
X7913666Y2649489D01*
X7914935Y2650335D01*
X7916204Y2651463D01*
X7917190Y2652591D01*
X7917331Y2652732D01*
X7917613Y2653154D01*
X7918036Y2654000D01*
X7918459Y2654987D01*
X7918882Y2656115D01*
X7919305Y2657525D01*
X7919587Y2659216D01*
X7919728Y2661049D01*
Y2661331D01*
Y2661895D01*
X7919587Y2662740D01*
X7919446Y2663868D01*
X7919164Y2665278D01*
X7918741Y2666688D01*
X7918177Y2668097D01*
X7917331Y2669507D01*
X7917190Y2669648D01*
X7916908Y2670071D01*
X7916345Y2670776D01*
X7915640Y2671481D01*
X7914653Y2672326D01*
X7913525Y2673172D01*
X7912115Y2674018D01*
X7910565Y2674582D01*
X7910424D01*
X7909719Y2674864D01*
X7908732Y2675005D01*
X7907182Y2675287D01*
X7905067Y2675569D01*
X7902671Y2675710D01*
X7899569Y2675992D01*
D02*
G37*
G36*
X7902107Y2635110D02*
X7876450D01*
Y2601559D01*
X7904221D01*
X7907182Y2601700D01*
X7908450Y2601841D01*
X7909578Y2601982D01*
X7909719D01*
X7910283Y2602123D01*
X7911129Y2602264D01*
X7912115Y2602546D01*
X7914512Y2603392D01*
X7916908Y2604520D01*
X7917049Y2604661D01*
X7917472Y2604943D01*
X7918036Y2605366D01*
X7918741Y2605930D01*
X7919446Y2606775D01*
X7920433Y2607621D01*
X7921138Y2608749D01*
X7921983Y2610018D01*
X7922124Y2610159D01*
X7922265Y2610582D01*
X7922547Y2611427D01*
X7922970Y2612414D01*
X7923393Y2613542D01*
X7923675Y2614952D01*
X7923816Y2616643D01*
X7923957Y2618335D01*
Y2618617D01*
Y2619181D01*
X7923816Y2620308D01*
X7923534Y2621577D01*
X7923252Y2622987D01*
X7922688Y2624538D01*
X7921983Y2626088D01*
X7920997Y2627639D01*
X7920856Y2627780D01*
X7920433Y2628344D01*
X7919869Y2629049D01*
X7919023Y2629894D01*
X7917895Y2630881D01*
X7916486Y2631868D01*
X7914935Y2632714D01*
X7913102Y2633419D01*
X7912820Y2633560D01*
X7912256Y2633701D01*
X7910988Y2633983D01*
X7909437Y2634264D01*
X7907463Y2634546D01*
X7905067Y2634828D01*
X7902107Y2635110D01*
D02*
G37*
%LPD*%
D22*
X8243041Y5593825D02*
Y5746175D01*
X8319217D01*
X8344608Y5720784D01*
Y5670000D01*
X8319217Y5644608D01*
X8243041D01*
X8293825D02*
X8344608Y5593825D01*
X8471567D02*
Y5746175D01*
X8395392Y5670000D01*
X8496959D01*
X8133041Y3793825D02*
Y3946175D01*
X8209217D01*
X8234608Y3920783D01*
Y3870000D01*
X8209217Y3844608D01*
X8133041D01*
X8183825D02*
X8234608Y3793825D01*
X8386959Y3946175D02*
X8336175Y3920783D01*
X8285392Y3870000D01*
Y3819216D01*
X8310784Y3793825D01*
X8361567D01*
X8386959Y3819216D01*
Y3844608D01*
X8361567Y3870000D01*
X8285392D01*
X5593732Y2673825D02*
Y2826175D01*
X5644515Y2775392D01*
X5695299Y2826175D01*
Y2673825D01*
X5746082D02*
Y2775392D01*
X5796866Y2826175D01*
X5847649Y2775392D01*
Y2673825D01*
Y2750000D01*
X5746082D01*
X5898433Y2826175D02*
X6000000D01*
X5949216D01*
Y2673825D01*
X6152351Y2800784D02*
X6126959Y2826175D01*
X6076176D01*
X6050784Y2800784D01*
Y2699217D01*
X6076176Y2673825D01*
X6126959D01*
X6152351Y2699217D01*
X6203134Y2826175D02*
Y2673825D01*
Y2750000D01*
X6304702D01*
Y2826175D01*
Y2673825D01*
X6355485D02*
X6406269D01*
X6380877D01*
Y2826175D01*
X6355485Y2800784D01*
X4913041Y5553825D02*
Y5706175D01*
X4989217D01*
X5014608Y5680783D01*
Y5630000D01*
X4989217Y5604608D01*
X4913041D01*
X4963825D02*
X5014608Y5553825D01*
X5065392Y5680783D02*
X5090784Y5706175D01*
X5141567D01*
X5166959Y5680783D01*
Y5655392D01*
X5141567Y5630000D01*
X5116175D01*
X5141567D01*
X5166959Y5604608D01*
Y5579216D01*
X5141567Y5553825D01*
X5090784D01*
X5065392Y5579216D01*
X6658340Y2653825D02*
Y2806175D01*
X6709123Y2755392D01*
X6759907Y2806175D01*
Y2653825D01*
X6810690D02*
Y2755392D01*
X6861474Y2806175D01*
X6912258Y2755392D01*
Y2653825D01*
Y2730000D01*
X6810690D01*
X6963041Y2806175D02*
X7064608D01*
X7013825D01*
Y2653825D01*
X7216959Y2780783D02*
X7191567Y2806175D01*
X7140784D01*
X7115392Y2780783D01*
Y2679216D01*
X7140784Y2653825D01*
X7191567D01*
X7216959Y2679216D01*
X7267743Y2806175D02*
Y2653825D01*
Y2730000D01*
X7369310D01*
Y2806175D01*
Y2653825D01*
X7521661D02*
X7420093D01*
X7521661Y2755392D01*
Y2780783D01*
X7496269Y2806175D01*
X7445485D01*
X7420093Y2780783D01*
X2843825Y1204860D02*
X2996175D01*
Y1281036D01*
X2970783Y1306427D01*
X2945392D01*
X2920000Y1281036D01*
Y1204860D01*
Y1281036D01*
X2894608Y1306427D01*
X2869217D01*
X2843825Y1281036D01*
Y1204860D01*
X2996175Y1357211D02*
X2894608D01*
X2843825Y1407994D01*
X2894608Y1458778D01*
X2996175D01*
X2920000D01*
Y1357211D01*
X2843825Y1509562D02*
Y1611129D01*
Y1560345D01*
X2996175D01*
X2843825Y1661912D02*
Y1763480D01*
Y1712696D01*
X2996175D01*
X2843825Y1966614D02*
Y2017397D01*
Y1992006D01*
X2996175D01*
Y1966614D01*
Y2017397D01*
Y2093573D02*
X2843825D01*
X2996175Y2195140D01*
X2843825D01*
X4773041Y3853825D02*
Y4006175D01*
X4849217D01*
X4874608Y3980784D01*
Y3930000D01*
X4849217Y3904608D01*
X4773041D01*
X4823825D02*
X4874608Y3853825D01*
X5026959Y4006175D02*
X4925392D01*
Y3930000D01*
X4976175Y3955392D01*
X5001567D01*
X5026959Y3930000D01*
Y3879217D01*
X5001567Y3853825D01*
X4950784D01*
X4925392Y3879217D01*
X8163041Y6443825D02*
Y6596175D01*
X8239216D01*
X8264608Y6570783D01*
Y6520000D01*
X8239216Y6494608D01*
X8163041D01*
X8213825D02*
X8264608Y6443825D01*
X8416959D02*
X8315392D01*
X8416959Y6545392D01*
Y6570783D01*
X8391567Y6596175D01*
X8340784D01*
X8315392Y6570783D01*
X4728433Y6403825D02*
Y6556175D01*
X4804608D01*
X4830000Y6530783D01*
Y6480000D01*
X4804608Y6454608D01*
X4728433D01*
X4779217D02*
X4830000Y6403825D01*
X4880784D02*
X4931567D01*
X4906176D01*
Y6556175D01*
X4880784Y6530783D01*
D36*
X5158300Y3170000D02*
G03*
X5158300Y3170000I-12500J0D01*
G01*
X4649500Y6185156D02*
G03*
X4649500Y6185156I-12500J0D01*
G01*
X8558300Y3150000D02*
G03*
X8558300Y3150000I-12500J0D01*
G01*
X6212500Y2642500D02*
G03*
X6212500Y2642500I-12500J0D01*
G01*
X5807500Y2410000D02*
G03*
X5807500Y2410000I-12500J0D01*
G01*
X3387500D02*
G03*
X3387500Y2410000I-12500J0D01*
G01*
X3792500Y2642500D02*
G03*
X3792500Y2642500I-12500J0D01*
G01*
X7312500D02*
G03*
X7312500Y2642500I-12500J0D01*
G01*
X6907500Y2410000D02*
G03*
X6907500Y2410000I-12500J0D01*
G01*
X8048000Y6245156D02*
G03*
X8048000Y6245156I-12500J0D01*
G01*
D37*
X4675000Y5809853D02*
G03*
X4675000Y5809853I-25000J0D01*
G01*
X8073500Y5869853D02*
G03*
X8073500Y5869853I-25000J0D01*
G01*
D38*
X8113200Y5203900D02*
G03*
X8113200Y5203900I-10000J0D01*
G01*
X4719700Y5223900D02*
G03*
X4719700Y5223900I-10000J0D01*
G01*
X5284500Y2604000D02*
Y2765000D01*
X4287500Y2604000D02*
Y2765000D01*
X5284500D01*
X4725000Y5555147D02*
Y5884853D01*
X4295000Y5555147D02*
X4725000D01*
X4295000D02*
Y5884853D01*
X4725000D01*
X8684500Y2584000D02*
Y2745000D01*
X7687500Y2584000D02*
Y2745000D01*
X8684500D01*
X8330000Y5410000D02*
Y5530000D01*
X8067500Y3795000D02*
Y3945000D01*
X7752500Y3795000D02*
Y3945000D01*
X5491000Y1041000D02*
Y2359000D01*
Y1041000D02*
X6489000D01*
Y2359000D01*
X6375000D02*
X6489000D01*
X5955000D02*
X6025000D01*
X5491000D02*
X5605000D01*
X5000000Y5380000D02*
Y5500000D01*
X3071000Y2359000D02*
X3185000D01*
X3535000D02*
X3605000D01*
X3955000D02*
X4069000D01*
Y1041000D02*
Y2359000D01*
X3071000Y1041000D02*
X4069000D01*
X3071000D02*
Y2359000D01*
X6591000Y1041000D02*
Y2359000D01*
Y1041000D02*
X7589000D01*
Y2359000D01*
X7475000D02*
X7589000D01*
X7055000D02*
X7125000D01*
X6591000D02*
X6705000D01*
X4707500Y3845000D02*
Y3995000D01*
X4392500Y3845000D02*
Y3995000D01*
X7980000Y6520000D02*
X8100000D01*
X4550000Y6490000D02*
X4670000D01*
X8123500Y5615147D02*
Y5944853D01*
X7693500Y5615147D02*
X8123500D01*
X7693500D02*
Y5944853D01*
X8123500D01*
D39*
X7651000Y4603000D02*
Y4993000D01*
X8156000Y4603000D02*
Y4993000D01*
X4257500Y4623000D02*
Y5013000D01*
X4762500Y4623000D02*
Y5013000D01*
D40*
X7938500Y1010000D02*
Y1209936D01*
X8071790Y1010000D01*
Y1209936D01*
X8271726D02*
X8138436D01*
Y1010000D01*
X8271726D01*
X8138436Y1109968D02*
X8205081D01*
X8338371Y1209936D02*
X8405016D01*
X8371694D01*
Y1010000D01*
X8338371D01*
X8405016D01*
X8504984Y1209936D02*
Y1010000D01*
X8638274D01*
X8704920Y1209936D02*
Y1010000D01*
X8838210D01*
X7938500Y1310000D02*
Y1509936D01*
X8038468D01*
X8071790Y1476613D01*
Y1409968D01*
X8038468Y1376645D01*
X7938500D01*
X8005145D02*
X8071790Y1310000D01*
X8238403Y1509936D02*
X8171758D01*
X8138436Y1476613D01*
Y1343322D01*
X8171758Y1310000D01*
X8238403D01*
X8271726Y1343322D01*
Y1476613D01*
X8238403Y1509936D01*
X8338371D02*
Y1310000D01*
X8471661D01*
X8538307D02*
Y1443290D01*
X8604952Y1509936D01*
X8671597Y1443290D01*
Y1310000D01*
Y1409968D01*
X8538307D01*
X8738242Y1310000D02*
Y1509936D01*
X8871533Y1310000D01*
Y1509936D01*
X8938178D02*
Y1310000D01*
X9038146D01*
X9071468Y1343322D01*
Y1476613D01*
X9038146Y1509936D01*
X8938178D01*
X910193Y1010000D02*
X776903D01*
X910193Y1143290D01*
Y1176613D01*
X876871Y1209936D01*
X810225D01*
X776903Y1176613D01*
X976839D02*
X1010161Y1209936D01*
X1076806D01*
X1110129Y1176613D01*
Y1043323D01*
X1076806Y1010000D01*
X1010161D01*
X976839Y1043323D01*
Y1176613D01*
X1310064Y1010000D02*
X1176774D01*
X1310064Y1143290D01*
Y1176613D01*
X1276742Y1209936D01*
X1210097D01*
X1176774Y1176613D01*
X1510000Y1010000D02*
X1376710D01*
X1510000Y1143290D01*
Y1176613D01*
X1476678Y1209936D01*
X1410032D01*
X1376710Y1176613D01*
D41*
X3700000Y2773290D02*
X3966580D01*
X3833290Y2906580D02*
Y2640000D01*
X3270000Y2770000D02*
X3536580D01*
D42*
X7660000Y4744982D02*
X7696655D01*
X7678327D01*
Y4690000D01*
X7751637Y4735819D02*
X7742473Y4744982D01*
X7724146D01*
X7714982Y4735819D01*
Y4726655D01*
X7724146Y4717491D01*
X7742473D01*
X7751637Y4708327D01*
Y4699164D01*
X7742473Y4690000D01*
X7724146D01*
X7714982Y4699164D01*
X7769964Y4690000D02*
Y4744982D01*
X7788292Y4726655D01*
X7806619Y4744982D01*
Y4690000D01*
X7824946Y4735819D02*
X7834110Y4744982D01*
X7852437D01*
X7861601Y4735819D01*
Y4699164D01*
X7852437Y4690000D01*
X7834110D01*
X7824946Y4699164D01*
Y4735819D01*
X7879928D02*
X7889092Y4744982D01*
X7907419D01*
X7916583Y4735819D01*
Y4726655D01*
X7907419Y4717491D01*
X7916583Y4708327D01*
Y4699164D01*
X7907419Y4690000D01*
X7889092D01*
X7879928Y4699164D01*
Y4708327D01*
X7889092Y4717491D01*
X7879928Y4726655D01*
Y4735819D01*
X7889092Y4717491D02*
X7907419D01*
X7971565Y4744982D02*
X7934910D01*
Y4717491D01*
X7953238Y4726655D01*
X7962401D01*
X7971565Y4717491D01*
Y4699164D01*
X7962401Y4690000D01*
X7944074D01*
X7934910Y4699164D01*
X7989893Y4690000D02*
Y4744982D01*
X8017384D01*
X8026547Y4735819D01*
Y4717491D01*
X8017384Y4708327D01*
X7989893D01*
X8044875Y4735819D02*
X8054039Y4744982D01*
X8072366D01*
X8081529Y4735819D01*
Y4699164D01*
X8072366Y4690000D01*
X8054039D01*
X8044875Y4699164D01*
Y4735819D01*
X8099857D02*
X8109021Y4744982D01*
X8127348D01*
X8136512Y4735819D01*
Y4726655D01*
X8127348Y4717491D01*
X8118184D01*
X8127348D01*
X8136512Y4708327D01*
Y4699164D01*
X8127348Y4690000D01*
X8109021D01*
X8099857Y4699164D01*
X4340000Y5680000D02*
Y5709990D01*
X4354995Y5724986D01*
X4369990Y5709990D01*
Y5680000D01*
Y5702493D01*
X4340000D01*
X4414976Y5687498D02*
Y5717488D01*
X4407478Y5724986D01*
X4392483D01*
X4384985Y5717488D01*
Y5687498D01*
X4392483Y5680000D01*
X4407478D01*
X4399981Y5694995D02*
X4414976Y5680000D01*
X4407478D02*
X4414976Y5687498D01*
X4429971Y5724986D02*
Y5717488D01*
X4444966Y5702493D01*
X4459961Y5717488D01*
Y5724986D01*
X4444966Y5702493D02*
Y5680000D01*
X4504947D02*
X4474956D01*
X4504947Y5709990D01*
Y5717488D01*
X4497449Y5724986D01*
X4482454D01*
X4474956Y5717488D01*
X4519942D02*
X4527439Y5724986D01*
X4542434D01*
X4549932Y5717488D01*
Y5709990D01*
X4542434Y5702493D01*
X4549932Y5694995D01*
Y5687498D01*
X4542434Y5680000D01*
X4527439D01*
X4519942Y5687498D01*
Y5694995D01*
X4527439Y5702493D01*
X4519942Y5709990D01*
Y5717488D01*
X4527439Y5702493D02*
X4542434D01*
X4564927Y5717488D02*
X4572425Y5724986D01*
X4587420D01*
X4594917Y5717488D01*
Y5687498D01*
X4587420Y5680000D01*
X4572425D01*
X4564927Y5687498D01*
Y5717488D01*
X4639903D02*
X4632405Y5724986D01*
X4617410D01*
X4609913Y5717488D01*
Y5709990D01*
X4617410Y5702493D01*
X4632405D01*
X4639903Y5694995D01*
Y5687498D01*
X4632405Y5680000D01*
X4617410D01*
X4609913Y5687498D01*
X4654898Y5724986D02*
X4684888Y5680000D01*
Y5724986D02*
X4654898Y5680000D01*
X4270000Y4804982D02*
X4306655D01*
X4288327D01*
Y4750000D01*
X4361637Y4795818D02*
X4352473Y4804982D01*
X4334146D01*
X4324982Y4795818D01*
Y4786655D01*
X4334146Y4777491D01*
X4352473D01*
X4361637Y4768327D01*
Y4759164D01*
X4352473Y4750000D01*
X4334146D01*
X4324982Y4759164D01*
X4379964Y4750000D02*
Y4804982D01*
X4398292Y4786655D01*
X4416619Y4804982D01*
Y4750000D01*
X4434946Y4795818D02*
X4444110Y4804982D01*
X4462437D01*
X4471601Y4795818D01*
Y4759164D01*
X4462437Y4750000D01*
X4444110D01*
X4434946Y4759164D01*
Y4795818D01*
X4489929D02*
X4499092Y4804982D01*
X4517419D01*
X4526583Y4795818D01*
Y4786655D01*
X4517419Y4777491D01*
X4526583Y4768327D01*
Y4759164D01*
X4517419Y4750000D01*
X4499092D01*
X4489929Y4759164D01*
Y4768327D01*
X4499092Y4777491D01*
X4489929Y4786655D01*
Y4795818D01*
X4499092Y4777491D02*
X4517419D01*
X4581565Y4804982D02*
X4544911D01*
Y4777491D01*
X4563238Y4786655D01*
X4572402D01*
X4581565Y4777491D01*
Y4759164D01*
X4572402Y4750000D01*
X4554074D01*
X4544911Y4759164D01*
X4599893Y4750000D02*
Y4804982D01*
X4627384D01*
X4636547Y4795818D01*
Y4777491D01*
X4627384Y4768327D01*
X4599893D01*
X4654875Y4795818D02*
X4664039Y4804982D01*
X4682366D01*
X4691530Y4795818D01*
Y4759164D01*
X4682366Y4750000D01*
X4664039D01*
X4654875Y4759164D01*
Y4795818D01*
X4709857D02*
X4719021Y4804982D01*
X4737348D01*
X4746512Y4795818D01*
Y4786655D01*
X4737348Y4777491D01*
X4728184D01*
X4737348D01*
X4746512Y4768327D01*
Y4759164D01*
X4737348Y4750000D01*
X4719021D01*
X4709857Y4759164D01*
D43*
X8089300Y680703D02*
Y380800D01*
X8239251D01*
X8289235Y430784D01*
Y630719D01*
X8239251Y680703D01*
X8089300D01*
X8589138D02*
X8389203D01*
Y380800D01*
X8589138D01*
X8389203Y530752D02*
X8489170D01*
X8689106Y380800D02*
Y680703D01*
X8839057D01*
X8889041Y630719D01*
Y530752D01*
X8839057Y480768D01*
X8689106D01*
X399556Y350800D02*
Y650703D01*
X549507D01*
X599491Y600719D01*
Y500751D01*
X549507Y450767D01*
X399556D01*
X499524D02*
X599491Y350800D01*
X899394Y650703D02*
X699459D01*
Y350800D01*
X899394D01*
X699459Y500751D02*
X799426D01*
X999362Y650703D02*
Y450767D01*
X1099329Y350800D01*
X1199297Y450767D01*
Y650703D01*
X1499200Y600719D02*
X1449216Y650703D01*
X1349249D01*
X1299265Y600719D01*
Y400784D01*
X1349249Y350800D01*
X1449216D01*
X1499200Y400784D01*
%TF.MD5,1f4876ef5022a63b069b80a4d7e599b1*%
M02*
