G04*
G04 #@! TF.GenerationSoftware,Altium Limited,Altium Designer,22.11.1 (43)*
G04*
G04 Layer_Color=255*
%FSLAX44Y44*%
%MOMM*%
G71*
G04*
G04 #@! TF.SameCoordinates,FC654CB9-28C8-48F1-B545-0E8A54867809*
G04*
G04*
G04 #@! TF.FilePolarity,Positive*
G04*
G01*
G75*
%ADD14R,2.5000X5.0000*%
%ADD15R,0.6600X4.5720*%
D14*
X423200Y366000D02*
D03*
X270800D02*
D03*
X220000D02*
D03*
X372400D02*
D03*
X321600D02*
D03*
X524800D02*
D03*
X575600D02*
D03*
X474000D02*
D03*
X626400D02*
D03*
X118400D02*
D03*
X169200D02*
D03*
X145200Y439000D02*
D03*
X94400D02*
D03*
X754800D02*
D03*
X602400D02*
D03*
X450000D02*
D03*
X704000D02*
D03*
X551600D02*
D03*
X500800D02*
D03*
X653200D02*
D03*
X297600D02*
D03*
X348400D02*
D03*
X196000D02*
D03*
X246800D02*
D03*
X399200D02*
D03*
X576200Y547000D02*
D03*
X525400D02*
D03*
X474600D02*
D03*
X423800D02*
D03*
X373000D02*
D03*
X322200D02*
D03*
X271400D02*
D03*
X220600D02*
D03*
X169800D02*
D03*
X627000D02*
D03*
X677800D02*
D03*
X728600D02*
D03*
X398200Y619000D02*
D03*
X245800D02*
D03*
X195000D02*
D03*
X347400D02*
D03*
X296600D02*
D03*
X652200D02*
D03*
X499800D02*
D03*
X550600D02*
D03*
X703000D02*
D03*
X449000D02*
D03*
X601400D02*
D03*
X753800D02*
D03*
X119000Y547000D02*
D03*
X93400Y619000D02*
D03*
X144200D02*
D03*
X830200Y547000D02*
D03*
X855400Y619000D02*
D03*
D15*
X231765Y976000D02*
D03*
X244465D02*
D03*
X257165D02*
D03*
X269865D02*
D03*
X282565D02*
D03*
X295265D02*
D03*
X307965D02*
D03*
X320665D02*
D03*
X333365D02*
D03*
X346065D02*
D03*
X358765D02*
D03*
X371465D02*
D03*
X384165D02*
D03*
X396865D02*
D03*
X409565D02*
D03*
X422265D02*
D03*
X434965D02*
D03*
X447665D02*
D03*
X460365D02*
D03*
X473065D02*
D03*
X485765D02*
D03*
X498465D02*
D03*
X511165D02*
D03*
X523865D02*
D03*
X549265D02*
D03*
X561965D02*
D03*
X574665D02*
D03*
X587365D02*
D03*
X600065D02*
D03*
X612765D02*
D03*
X625465D02*
D03*
X638165D02*
D03*
X650865D02*
D03*
X663565D02*
D03*
X676265D02*
D03*
X688965D02*
D03*
X701665D02*
D03*
X714365D02*
D03*
X727065D02*
D03*
M02*
