G04*
G04 #@! TF.GenerationSoftware,Altium Limited,Altium Designer,22.11.1 (43)*
G04*
G04 Layer_Color=16711935*
%FSLAX44Y44*%
%MOMM*%
G71*
G04*
G04 #@! TF.SameCoordinates,FC654CB9-28C8-48F1-B545-0E8A54867809*
G04*
G04*
G04 #@! TF.FilePolarity,Negative*
G04*
G01*
G75*
%ADD17R,0.8632X4.7752*%
%ADD18C,0.8382*%
%ADD19C,0.6472*%
D17*
X523870Y976000D02*
D03*
X727070D02*
D03*
X714370D02*
D03*
X701670D02*
D03*
X688970D02*
D03*
X676270D02*
D03*
X663570D02*
D03*
X650870D02*
D03*
X638170D02*
D03*
X625470D02*
D03*
X612770D02*
D03*
X600070D02*
D03*
X587370D02*
D03*
X574670D02*
D03*
X561970D02*
D03*
X549270D02*
D03*
X511170D02*
D03*
X498470D02*
D03*
X485770D02*
D03*
X473070D02*
D03*
X460370D02*
D03*
X447670D02*
D03*
X434970D02*
D03*
X422270D02*
D03*
X409570D02*
D03*
X396870D02*
D03*
X384170D02*
D03*
X371470D02*
D03*
X358770D02*
D03*
X346070D02*
D03*
X333370D02*
D03*
X320670D02*
D03*
X307970D02*
D03*
X295270D02*
D03*
X282570D02*
D03*
X269870D02*
D03*
X257170D02*
D03*
X244470D02*
D03*
X231770D02*
D03*
D18*
X714370Y946000D02*
D03*
X727070Y946000D02*
D03*
X244470D02*
D03*
X257170D02*
D03*
D19*
X706000Y935000D02*
D03*
X623189Y938559D02*
D03*
X455000Y938000D02*
D03*
X440480Y938881D02*
D03*
X786260Y341000D02*
D03*
X829000Y610000D02*
D03*
X810260Y401000D02*
D03*
X678000Y591000D02*
D03*
X803000Y382000D02*
D03*
X793642Y361054D02*
D03*
X749740Y663200D02*
D03*
X771000Y297000D02*
D03*
X779000Y320000D02*
D03*
X847000Y698000D02*
D03*
X839000Y708000D02*
D03*
X821000Y716000D02*
D03*
X830200Y583800D02*
D03*
X605169Y946099D02*
D03*
X593497Y937236D02*
D03*
X574000Y439000D02*
D03*
X294700Y344000D02*
D03*
X245000D02*
D03*
X728600Y590400D02*
D03*
X195000Y344000D02*
D03*
X423800Y587200D02*
D03*
X499800Y664200D02*
D03*
X142000Y344000D02*
D03*
X652000Y663000D02*
D03*
X619000Y896000D02*
D03*
X610000Y682000D02*
D03*
X627000Y591000D02*
D03*
X625620Y439908D02*
D03*
X590000Y681000D02*
D03*
X601400Y663600D02*
D03*
X582660Y909740D02*
D03*
X568140D02*
D03*
X575400D02*
D03*
X546160Y919929D02*
D03*
X542000Y680000D02*
D03*
X525000Y439000D02*
D03*
X574595Y945220D02*
D03*
X576200Y580438D02*
D03*
X550600Y664400D02*
D03*
X524695Y941000D02*
D03*
X410000Y740000D02*
D03*
X384000Y738000D02*
D03*
X495000Y939000D02*
D03*
X702000Y662000D02*
D03*
X473000Y939000D02*
D03*
X525400Y588600D02*
D03*
X474000Y589000D02*
D03*
X346070Y941000D02*
D03*
X449000Y666000D02*
D03*
X373000Y586799D02*
D03*
X362000Y736000D02*
D03*
X322200Y587800D02*
D03*
X320670Y942937D02*
D03*
X322000Y732000D02*
D03*
X295270Y941000D02*
D03*
X271400Y586600D02*
D03*
X220600Y586400D02*
D03*
X195000Y657000D02*
D03*
X269867Y945135D02*
D03*
X169800Y585800D02*
D03*
X93400Y654600D02*
D03*
X231770Y941000D02*
D03*
M02*
