G04*
G04 #@! TF.GenerationSoftware,Altium Limited,Altium Designer,22.11.1 (43)*
G04*
G04 Layer_Color=32896*
%FSLAX44Y44*%
%MOMM*%
G71*
G04*
G04 #@! TF.SameCoordinates,FC654CB9-28C8-48F1-B545-0E8A54867809*
G04*
G04*
G04 #@! TF.FilePolarity,Positive*
G04*
G01*
G75*
%ADD11C,0.2540*%
D11*
X922225Y555303D02*
Y560382D01*
Y557842D01*
X934921D01*
X937460Y560382D01*
Y562921D01*
X934921Y565460D01*
X922225Y550225D02*
X937460D01*
Y540068D01*
X924764Y524833D02*
X922225Y527372D01*
Y532451D01*
X924764Y534990D01*
X934921D01*
X937460Y532451D01*
Y527372D01*
X934921Y524833D01*
X922225Y509598D02*
Y514676D01*
Y512137D01*
X934921D01*
X937460Y514676D01*
Y517216D01*
X934921Y519755D01*
X922225Y504520D02*
X937460D01*
Y494363D01*
X924764Y479128D02*
X922225Y481667D01*
Y486745D01*
X924764Y489285D01*
X934921D01*
X937460Y486745D01*
Y481667D01*
X934921Y479128D01*
X922225Y463893D02*
Y468971D01*
Y466432D01*
X934921D01*
X937460Y468971D01*
Y471510D01*
X934921Y474049D01*
X922225Y458815D02*
X937460D01*
Y448658D01*
X924764Y433423D02*
X922225Y435962D01*
Y441040D01*
X924764Y443579D01*
X934921D01*
X937460Y441040D01*
Y435962D01*
X934921Y433423D01*
X922225Y418188D02*
Y423266D01*
Y420727D01*
X934921D01*
X937460Y423266D01*
Y425805D01*
X934921Y428344D01*
X922225Y413109D02*
X937460D01*
Y402952D01*
X924764Y387718D02*
X922225Y390257D01*
Y395335D01*
X924764Y397874D01*
X934921D01*
X937460Y395335D01*
Y390257D01*
X934921Y387718D01*
X236768Y885540D02*
X226772D01*
Y892205D01*
X236768Y902201D02*
Y895537D01*
X226772D01*
Y902201D01*
X231770Y895537D02*
Y898869D01*
X236768Y905534D02*
X226772D01*
Y910532D01*
X228438Y912198D01*
X235102D01*
X236768Y910532D01*
Y905534D01*
X231770Y915530D02*
Y922195D01*
X226772Y925527D02*
X231770Y930526D01*
X236768Y925527D01*
M02*
