G04*
G04 #@! TF.GenerationSoftware,Altium Limited,Altium Designer,22.11.1 (43)*
G04*
G04 Layer_Physical_Order=3*
G04 Layer_Color=128*
%FSLAX44Y44*%
%MOMM*%
G71*
G04*
G04 #@! TF.SameCoordinates,FC654CB9-28C8-48F1-B545-0E8A54867809*
G04*
G04*
G04 #@! TF.FilePolarity,Negative*
G04*
G01*
G75*
%ADD24C,1.0160*%
%ADD25C,1.3720*%
%ADD26C,1.2700*%
D24*
Y50000D02*
G03*
X50000Y0I50000J0D01*
G01*
Y908050D02*
G03*
X0Y858050I0J-50000D01*
G01*
X958850D02*
G03*
X908850Y908050I-50000J0D01*
G01*
Y0D02*
G03*
X958850Y50000I0J50000D01*
G01*
X783850Y25000D02*
G03*
X808850Y0I25000J0D01*
G01*
X783850Y70000D02*
G03*
X758850Y95000I-25000J0D01*
G01*
X200000D02*
G03*
X175000Y70000I0J-25000D01*
G01*
X150000Y0D02*
G03*
X175000Y25000I-0J25000D01*
G01*
X0Y50000D02*
Y858050D01*
X50000Y908050D02*
X216025D01*
X216020Y998250D02*
X216025Y908050D01*
X216020Y998250D02*
X231020Y1013230D01*
X517020D01*
X532020Y1003230D01*
X532025Y944450D01*
X541120D01*
Y1003230D01*
X556120Y1013230D01*
Y1013250D01*
X727820D01*
X727820Y1013230D02*
X727820Y1013250D01*
X727820Y1013230D02*
X742820Y998250D01*
Y908050D02*
Y998250D01*
Y908050D02*
X908850D01*
X958850Y50000D02*
Y858050D01*
X808850Y0D02*
X908850D01*
X783850Y25000D02*
Y70000D01*
X200000Y95000D02*
X758850D01*
X175000Y25000D02*
X175000Y70000D01*
X50000Y0D02*
X150000D01*
D25*
X727070Y946000D02*
D03*
D26*
X706000Y935000D02*
D03*
X623189Y938559D02*
D03*
X455000Y938000D02*
D03*
X440480Y938881D02*
D03*
X786260Y341000D02*
D03*
X829000Y610000D02*
D03*
X810260Y401000D02*
D03*
X678000Y591000D02*
D03*
X803000Y382000D02*
D03*
X793642Y361054D02*
D03*
X749740Y663200D02*
D03*
X771000Y297000D02*
D03*
X779000Y320000D02*
D03*
X847000Y698000D02*
D03*
X839000Y708000D02*
D03*
X821000Y716000D02*
D03*
X605169Y946099D02*
D03*
X593497Y937236D02*
D03*
X574000Y439000D02*
D03*
X294700Y344000D02*
D03*
X245000D02*
D03*
X728600Y590400D02*
D03*
X195000Y344000D02*
D03*
X423800Y587200D02*
D03*
X499800Y664200D02*
D03*
X142000Y344000D02*
D03*
X652000Y663000D02*
D03*
X619000Y896000D02*
D03*
X610000Y682000D02*
D03*
X627000Y591000D02*
D03*
X625620Y439908D02*
D03*
X590000Y681000D02*
D03*
X601400Y663600D02*
D03*
X582660Y909740D02*
D03*
X568140D02*
D03*
X575400D02*
D03*
X546160Y919929D02*
D03*
X542000Y680000D02*
D03*
X525000Y439000D02*
D03*
X574595Y945220D02*
D03*
X576200Y580438D02*
D03*
X550600Y664400D02*
D03*
X524695Y941000D02*
D03*
X410000Y740000D02*
D03*
X384000Y738000D02*
D03*
X495000Y939000D02*
D03*
X702000Y662000D02*
D03*
X473000Y939000D02*
D03*
X525400Y588600D02*
D03*
X474000Y589000D02*
D03*
X346070Y941000D02*
D03*
X449000Y666000D02*
D03*
X373000Y586799D02*
D03*
X362000Y736000D02*
D03*
X322200Y587800D02*
D03*
X320670Y942937D02*
D03*
X322000Y732000D02*
D03*
X295270Y941000D02*
D03*
X271400Y586600D02*
D03*
X220600Y586400D02*
D03*
X195000Y657000D02*
D03*
X269867Y945135D02*
D03*
X169800Y585800D02*
D03*
X93400Y654600D02*
D03*
X231770Y941000D02*
D03*
M02*
