G04*
G04 #@! TF.GenerationSoftware,Altium Limited,Altium Designer,22.11.1 (43)*
G04*
G04 Layer_Physical_Order=4*
G04 Layer_Color=16711680*
%FSLAX44Y44*%
%MOMM*%
G71*
G04*
G04 #@! TF.SameCoordinates,FC654CB9-28C8-48F1-B545-0E8A54867809*
G04*
G04*
G04 #@! TF.FilePolarity,Positive*
G04*
G01*
G75*
%ADD11C,0.2540*%
%ADD15R,0.6600X4.5720*%
%ADD20C,0.5000*%
%ADD21C,0.2930*%
%ADD22C,0.6350*%
%ADD23C,0.4440*%
D11*
X958850Y858050D02*
G03*
X908850Y908050I-50000J0D01*
G01*
X50000D02*
G03*
X0Y858050I0J-50000D01*
G01*
X908850Y0D02*
G03*
X958850Y50000I0J50000D01*
G01*
X783850Y70000D02*
G03*
X758850Y95000I-25000J0D01*
G01*
X783850Y25000D02*
G03*
X808850Y0I25000J0D01*
G01*
X200000Y95000D02*
G03*
X175000Y70000I0J-25000D01*
G01*
X150000Y0D02*
G03*
X175000Y25000I-0J25000D01*
G01*
X0Y50000D02*
G03*
X50000Y0I50000J0D01*
G01*
X541120Y1003230D02*
X556120Y1013230D01*
X541120Y944450D02*
Y1003230D01*
X532020Y944450D02*
X541120D01*
X532020Y1003230D02*
X532025Y944450D01*
X517020Y1013230D02*
X532020Y1003230D01*
X231020Y1013230D02*
X517020D01*
X216020Y998250D02*
X231020Y1013230D01*
X727820D02*
X742820Y998250D01*
X50000Y908050D02*
X216020D01*
X556120Y1013250D02*
X727820D01*
X742820Y908050D02*
Y998250D01*
X216020D02*
X216025Y908050D01*
X742820D02*
X908850D01*
X808850Y0D02*
X908850D01*
X200000Y95000D02*
X758850D01*
X783850Y25000D02*
Y70000D01*
X175000Y25000D02*
Y70000D01*
X958850Y50000D02*
Y858050D01*
X50000Y0D02*
X150000D01*
X0Y50000D02*
Y858050D01*
D15*
X523870Y976000D02*
D03*
X727070D02*
D03*
X714370D02*
D03*
X701670D02*
D03*
X688970D02*
D03*
X676270D02*
D03*
X663570D02*
D03*
X650870D02*
D03*
X638170D02*
D03*
X625470D02*
D03*
X612770D02*
D03*
X600070D02*
D03*
X587370D02*
D03*
X574670D02*
D03*
X561970D02*
D03*
X549270D02*
D03*
X511170D02*
D03*
X498470D02*
D03*
X485770D02*
D03*
X473070D02*
D03*
X460370D02*
D03*
X447670D02*
D03*
X434970D02*
D03*
X422270D02*
D03*
X409570D02*
D03*
X396870D02*
D03*
X384170D02*
D03*
X371470D02*
D03*
X358770D02*
D03*
X346070D02*
D03*
X333370D02*
D03*
X320670D02*
D03*
X307970D02*
D03*
X295270D02*
D03*
X282570D02*
D03*
X269870D02*
D03*
X257170D02*
D03*
X244470D02*
D03*
X231770D02*
D03*
D20*
X714185Y975815D02*
X714370Y976000D01*
X714185Y946185D02*
Y975815D01*
X714000Y946000D02*
X714185Y946185D01*
X617130Y948748D02*
X620059Y945819D01*
X617130Y948748D02*
Y952080D01*
X620059Y945819D02*
X626196D01*
X613570Y955640D02*
X617130Y952080D01*
X612770Y976000D02*
X613570Y975200D01*
Y955640D02*
Y975200D01*
X626196Y945819D02*
X771000Y801015D01*
X626270Y955640D02*
X626901D01*
X625470Y956440D02*
X626270Y955640D01*
X779000Y320000D02*
Y801882D01*
X625470Y956440D02*
Y976000D01*
X629830Y951052D02*
X779000Y801882D01*
X626901Y955640D02*
X629830Y952711D01*
Y951052D02*
Y952711D01*
X771000Y297000D02*
Y801015D01*
X638170Y976000D02*
X638970Y975200D01*
Y950779D02*
Y975200D01*
Y950779D02*
X786382Y803367D01*
X433220Y894985D02*
X601400Y726805D01*
X433220Y943890D02*
X434970Y945640D01*
Y976000D01*
X447740Y900260D02*
X627000Y721000D01*
X447670Y943709D02*
X447740Y943639D01*
Y900260D02*
Y943639D01*
X433220Y894985D02*
Y943890D01*
X786382Y341382D02*
Y803367D01*
X786260Y341260D02*
X786382Y341382D01*
X786260Y341000D02*
Y341260D01*
X829000Y610000D02*
Y796218D01*
X688970Y936248D02*
X829000Y796218D01*
X688970Y936248D02*
Y976000D01*
X678000Y591000D02*
Y699000D01*
X810260Y401000D02*
Y806091D01*
X676270Y940081D02*
Y976000D01*
Y940081D02*
X810260Y806091D01*
X727070Y946000D02*
Y976000D01*
X803000Y382000D02*
Y804484D01*
X663570Y943914D02*
X803000Y804484D01*
X663570Y943914D02*
Y976000D01*
X651670Y946947D02*
X793642Y804974D01*
Y361054D02*
Y804974D01*
X511170Y905830D02*
X749740Y667260D01*
X754071Y267700D02*
X757000Y270629D01*
X371000Y267700D02*
X754071D01*
X749740Y663200D02*
Y667260D01*
X597909Y943091D02*
X757000Y784000D01*
Y270629D02*
Y784000D01*
X847000Y306000D02*
Y698000D01*
X766159Y245000D02*
X839000Y317841D01*
Y708000D01*
X819000Y310841D02*
Y714000D01*
X821000Y716000D01*
X775000Y234000D02*
X847000Y306000D01*
X762159Y254000D02*
X819000Y310841D01*
X252000Y234000D02*
X775000D01*
X335000Y254000D02*
X762159D01*
X651670Y946947D02*
Y975200D01*
X650870Y976000D02*
X651670Y975200D01*
X294000Y245000D02*
X766159D01*
X294700Y344000D02*
X371000Y267700D01*
X142000Y344000D02*
X252000Y234000D01*
X245000Y344000D02*
X335000Y254000D01*
X195000Y344000D02*
X294000Y245000D01*
X486530Y903470D02*
X702000Y688000D01*
X480260Y896740D02*
X678000Y699000D01*
X511170Y905830D02*
Y976000D01*
X465740Y898260D02*
X652000Y712000D01*
X702000Y662000D02*
Y688000D01*
X652000Y663000D02*
Y712000D01*
X728600Y590400D02*
Y675400D01*
X502830Y901170D02*
X728600Y675400D01*
X502830Y901170D02*
Y952080D01*
X498470Y956440D02*
X502830Y952080D01*
X498470Y956440D02*
Y976000D01*
X465740Y898260D02*
Y942007D01*
X480260Y896740D02*
Y942007D01*
X599270Y950467D02*
Y975200D01*
X600070Y976000D01*
X597909Y949106D02*
X599270Y950467D01*
X597909Y943091D02*
Y949106D01*
X574000Y439000D02*
X590000Y455000D01*
X474000Y589000D02*
Y757000D01*
X410000Y601000D02*
X423800Y587200D01*
X499800Y664200D02*
Y752505D01*
X384170Y868135D02*
X499800Y752505D01*
X525400Y588600D02*
Y740600D01*
X396870Y869130D02*
X525400Y740600D01*
X372270Y858730D02*
X474000Y757000D01*
X542000Y456000D02*
Y680000D01*
X525000Y439000D02*
X542000Y456000D01*
X590000Y455000D02*
Y681000D01*
X322200Y587800D02*
Y628533D01*
X362000Y668333D01*
X271400Y586600D02*
X322000Y637200D01*
Y732000D01*
X627000Y591000D02*
Y721000D01*
X570089Y896000D02*
X619000D01*
X610000Y568764D02*
Y682000D01*
X625620Y439908D02*
Y553144D01*
X610000Y568764D02*
X625620Y553144D01*
X486530Y903470D02*
Y975240D01*
X601400Y663600D02*
Y726805D01*
X582660Y909740D02*
Y921080D01*
X546160Y919929D02*
X570089Y896000D01*
X568140Y909740D02*
Y914860D01*
X575400Y909740D02*
Y920942D01*
X550000Y933000D02*
X568140Y914860D01*
X564000Y932342D02*
X575400Y920942D01*
X581930Y921810D02*
X582660Y921080D01*
X581930Y921810D02*
Y948152D01*
X564000Y932342D02*
Y933000D01*
X561970Y935030D02*
X564000Y933000D01*
X561970Y935030D02*
Y976000D01*
X550000Y933000D02*
Y975270D01*
X576200Y580438D02*
Y728800D01*
X422270Y882730D02*
X576200Y728800D01*
X422270Y882730D02*
Y976000D01*
X464607Y943140D02*
X465740Y942007D01*
X461170Y950743D02*
Y975200D01*
X460370Y976000D02*
X461170Y975200D01*
X464607Y943140D02*
Y947306D01*
X461170Y950743D02*
X464607Y947306D01*
X579030Y951052D02*
X581930Y948152D01*
X579030Y951052D02*
Y952080D01*
X574670Y976000D02*
X575470Y975200D01*
Y955640D02*
Y975200D01*
Y955640D02*
X579030Y952080D01*
X550600Y664400D02*
Y739905D01*
X549270Y976000D02*
X550000Y975270D01*
X410000Y601000D02*
Y740000D01*
X373000Y586799D02*
Y727000D01*
X384000Y738000D01*
X485770Y976000D02*
X486530Y975240D01*
X473870Y948397D02*
Y955640D01*
X473070Y956440D02*
X473870Y955640D01*
X473070Y956440D02*
Y976000D01*
X473870Y948397D02*
X480260Y942007D01*
X447670Y943709D02*
Y976000D01*
X409570Y880935D02*
X550600Y739905D01*
X409570Y880935D02*
Y976000D01*
X396870Y869130D02*
Y976000D01*
X384170Y868135D02*
Y976000D01*
X372270Y858730D02*
Y975200D01*
X371470Y976000D02*
X372270Y975200D01*
X449000Y666000D02*
Y766105D01*
X358770Y856335D02*
Y976000D01*
Y856335D02*
X449000Y766105D01*
X362000Y668333D02*
Y736000D01*
X220600Y657600D02*
X333370Y770370D01*
Y976000D01*
X307970Y769970D02*
Y976000D01*
X195000Y657000D02*
X307970Y769970D01*
X220600Y586400D02*
Y657600D01*
X282570Y791570D02*
Y976000D01*
X169800Y678800D02*
X282570Y791570D01*
X169800Y585800D02*
Y678800D01*
X244470Y946000D02*
Y976000D01*
X231770D02*
X232570Y975200D01*
X244212Y946258D02*
X244470Y946000D01*
X232570Y951430D02*
X237742Y946258D01*
X244212D01*
X232570Y951430D02*
Y975200D01*
X257170Y946000D02*
Y976000D01*
D21*
X701670Y939739D02*
Y976000D01*
Y939739D02*
X706000Y935409D01*
Y935000D02*
Y935409D01*
X587370Y943229D02*
X593362Y937236D01*
X593497D01*
X587370Y943229D02*
Y976000D01*
X524695Y941000D02*
Y941408D01*
X523870Y942233D02*
X524695Y941408D01*
X523870Y942233D02*
Y976000D01*
X346070Y941000D02*
Y976000D01*
X320670Y942937D02*
Y976000D01*
X295270Y941000D02*
Y976000D01*
X269867Y945135D02*
X269869Y945136D01*
Y975999D01*
X269870Y976000D01*
D22*
X714370Y946000D02*
D03*
X727070Y946000D02*
D03*
X244470D02*
D03*
X257170D02*
D03*
D23*
X706000Y935000D02*
D03*
X623189Y938559D02*
D03*
X455000Y938000D02*
D03*
X440480Y938881D02*
D03*
X786260Y341000D02*
D03*
X829000Y610000D02*
D03*
X810260Y401000D02*
D03*
X678000Y591000D02*
D03*
X803000Y382000D02*
D03*
X793642Y361054D02*
D03*
X749740Y663200D02*
D03*
X771000Y297000D02*
D03*
X779000Y320000D02*
D03*
X847000Y698000D02*
D03*
X839000Y708000D02*
D03*
X821000Y716000D02*
D03*
X830200Y583800D02*
D03*
X605169Y946099D02*
D03*
X593497Y937236D02*
D03*
X574000Y439000D02*
D03*
X294700Y344000D02*
D03*
X245000D02*
D03*
X728600Y590400D02*
D03*
X195000Y344000D02*
D03*
X423800Y587200D02*
D03*
X499800Y664200D02*
D03*
X142000Y344000D02*
D03*
X652000Y663000D02*
D03*
X619000Y896000D02*
D03*
X610000Y682000D02*
D03*
X627000Y591000D02*
D03*
X625620Y439908D02*
D03*
X590000Y681000D02*
D03*
X601400Y663600D02*
D03*
X582660Y909740D02*
D03*
X568140D02*
D03*
X575400D02*
D03*
X546160Y919929D02*
D03*
X542000Y680000D02*
D03*
X525000Y439000D02*
D03*
X574595Y945220D02*
D03*
X576200Y580438D02*
D03*
X550600Y664400D02*
D03*
X524695Y941000D02*
D03*
X410000Y740000D02*
D03*
X384000Y738000D02*
D03*
X495000Y939000D02*
D03*
X702000Y662000D02*
D03*
X473000Y939000D02*
D03*
X525400Y588600D02*
D03*
X474000Y589000D02*
D03*
X346070Y941000D02*
D03*
X449000Y666000D02*
D03*
X373000Y586799D02*
D03*
X362000Y736000D02*
D03*
X322200Y587800D02*
D03*
X320670Y942937D02*
D03*
X322000Y732000D02*
D03*
X295270Y941000D02*
D03*
X271400Y586600D02*
D03*
X220600Y586400D02*
D03*
X195000Y657000D02*
D03*
X269867Y945135D02*
D03*
X169800Y585800D02*
D03*
X93400Y654600D02*
D03*
X231770Y941000D02*
D03*
M02*
