%TF.GenerationSoftware,Altium Limited,Altium Designer,22.11.1 (43)*%
G04 Layer_Color=0*
%FSLAX45Y45*%
%MOMM*%
%TF.SameCoordinates,AD8EF09A-55C0-4CAF-97A9-B7ED8585E017*%
%TF.FilePolarity,Positive*%
%TF.FileFunction,Plated,1,4,PTH,Drill*%
%TF.Part,Single*%
G01*
G75*
%TA.AperFunction,ViaDrill,NotFilled*%
%ADD28C,0.35600*%
%ADD29C,0.25400*%
D28*
X7143700Y9460000D02*
D03*
X7270699Y9460001D02*
D03*
X2444699D02*
D03*
X2571699D02*
D03*
D29*
X7060000Y9350000D02*
D03*
X6231889Y9385591D02*
D03*
X4550000Y9380000D02*
D03*
X4404800Y9388814D02*
D03*
X7862600Y3410000D02*
D03*
X8290000Y6100000D02*
D03*
X8102600Y4010000D02*
D03*
X6780000Y5910000D02*
D03*
X8030000Y3820000D02*
D03*
X7936422Y3610536D02*
D03*
X7497400Y6632001D02*
D03*
X7710000Y2970000D02*
D03*
X7790000Y3200000D02*
D03*
X8470000Y6980000D02*
D03*
X8390000Y7080000D02*
D03*
X8210000Y7160000D02*
D03*
X8302000Y5838000D02*
D03*
X6051686Y9460986D02*
D03*
X5934965Y9372364D02*
D03*
X5739999Y4389999D02*
D03*
X2947004Y3440000D02*
D03*
X2450000D02*
D03*
X7286000Y5904000D02*
D03*
X1950000Y3440000D02*
D03*
X4238000Y5872000D02*
D03*
X4997999Y6642001D02*
D03*
X1420000Y3440000D02*
D03*
X6520000Y6630000D02*
D03*
X6190000Y8960000D02*
D03*
X6100000Y6820000D02*
D03*
X6270000Y5910000D02*
D03*
X6256199Y4399080D02*
D03*
X5900000Y6810000D02*
D03*
X6013999Y6636001D02*
D03*
X5826599Y9097400D02*
D03*
X5681399D02*
D03*
X5753999D02*
D03*
X5461601Y9199289D02*
D03*
X5420000Y6800000D02*
D03*
X5250000Y4390000D02*
D03*
X5745949Y9452203D02*
D03*
X5762000Y5804380D02*
D03*
X5505999Y6644001D02*
D03*
X5246948Y9409999D02*
D03*
X4100000Y7400000D02*
D03*
X3840000Y7380000D02*
D03*
X4950000Y9390000D02*
D03*
X7020000Y6620000D02*
D03*
X4730000Y9390000D02*
D03*
X5254000Y5886000D02*
D03*
X4740000Y5890000D02*
D03*
X3460699Y9409999D02*
D03*
X4489999Y6659999D02*
D03*
X3730000Y5867993D02*
D03*
X3620000Y7360000D02*
D03*
X3222000Y5878000D02*
D03*
X3206699Y9429371D02*
D03*
X3220000Y7320000D02*
D03*
X2952699Y9409999D02*
D03*
X2714000Y5866000D02*
D03*
X2206000Y5864000D02*
D03*
X1949999Y6569999D02*
D03*
X2698674Y9451346D02*
D03*
X1698000Y5858000D02*
D03*
X933999Y6546001D02*
D03*
X2317699Y9409999D02*
D03*
%TF.MD5,e3c0872a7b3f1e674ed5d35d2d39beb2*%
M02*
