%TF.GenerationSoftware,Altium Limited,Altium Designer,22.11.1 (43)*%
G04 Layer_Color=32896*
%FSLAX45Y45*%
%MOMM*%
%TF.SameCoordinates,AD8EF09A-55C0-4CAF-97A9-B7ED8585E017*%
%TF.FilePolarity,Positive*%
%TF.FileFunction,Legend,Bot*%
%TF.Part,Single*%
G01*
G75*
%TA.AperFunction,NonConductor*%
%ADD14C,0.25400*%
D14*
X9222249Y5553033D02*
Y5603816D01*
Y5578424D01*
X9349208D01*
X9374600Y5603816D01*
Y5629208D01*
X9349208Y5654600D01*
X9222249Y5502249D02*
X9374600D01*
Y5400682D01*
X9247641Y5248331D02*
X9222249Y5273723D01*
Y5324506D01*
X9247641Y5349898D01*
X9349208D01*
X9374600Y5324506D01*
Y5273723D01*
X9349208Y5248331D01*
X9222249Y5095980D02*
Y5146764D01*
Y5121372D01*
X9349208D01*
X9374600Y5146764D01*
Y5172156D01*
X9349208Y5197548D01*
X9222249Y5045197D02*
X9374600D01*
Y4943630D01*
X9247641Y4791279D02*
X9222249Y4816671D01*
Y4867454D01*
X9247641Y4892846D01*
X9349208D01*
X9374600Y4867454D01*
Y4816671D01*
X9349208Y4791279D01*
X9222249Y4638928D02*
Y4689712D01*
Y4664320D01*
X9349208D01*
X9374600Y4689712D01*
Y4715104D01*
X9349208Y4740495D01*
X9222249Y4588145D02*
X9374600D01*
Y4486578D01*
X9247641Y4334227D02*
X9222249Y4359619D01*
Y4410402D01*
X9247641Y4435794D01*
X9349208D01*
X9374600Y4410402D01*
Y4359619D01*
X9349208Y4334227D01*
X9222249Y4181876D02*
Y4232660D01*
Y4207268D01*
X9349208D01*
X9374600Y4232660D01*
Y4258051D01*
X9349208Y4283443D01*
X9222249Y4131093D02*
X9374600D01*
Y4029525D01*
X9247641Y3877175D02*
X9222249Y3902566D01*
Y3953350D01*
X9247641Y3978742D01*
X9349208D01*
X9374600Y3953350D01*
Y3902566D01*
X9349208Y3877175D01*
X2367684Y8855400D02*
X2267716D01*
Y8922045D01*
X2367684Y9022013D02*
Y8955368D01*
X2267716D01*
Y9022013D01*
X2317700Y8955368D02*
Y8988690D01*
X2367684Y9055336D02*
X2267716D01*
Y9105320D01*
X2284377Y9121981D01*
X2351022D01*
X2367684Y9105320D01*
Y9055336D01*
X2317700Y9155304D02*
Y9221949D01*
X2267716Y9255271D02*
X2317700Y9305255D01*
X2367684Y9255271D01*
%TF.MD5,a5c333d66bc2893abe373264575e0205*%
M02*
