%TF.GenerationSoftware,Altium Limited,Altium Designer,22.11.1 (43)*%
G04 Layer_Physical_Order=2*
G04 Layer_Color=32768*
%FSLAX45Y45*%
%MOMM*%
%TF.SameCoordinates,AD8EF09A-55C0-4CAF-97A9-B7ED8585E017*%
%TF.FilePolarity,Negative*%
%TF.FileFunction,Copper,L2,Inr,Plane*%
%TF.Part,Single*%
G01*
G75*
%TA.AperFunction,NonConductor*%
%ADD17C,1.01600*%
%TA.AperFunction,ViaPad*%
%ADD18C,1.37200*%
%ADD19C,1.27000*%
D17*
Y500000D02*
G03*
X500000Y0I500000J0D01*
G01*
Y9080500D02*
G03*
X0Y8580500I0J-500000D01*
G01*
X9588500D02*
G03*
X9088500Y9080500I-500000J0D01*
G01*
Y0D02*
G03*
X9588500Y500000I0J500000D01*
G01*
X7838500Y250000D02*
G03*
X8088500Y0I250000J0D01*
G01*
X7838500Y700000D02*
G03*
X7588500Y950000I-250000J0D01*
G01*
X2000000D02*
G03*
X1750000Y700000I0J-250000D01*
G01*
X1500000Y0D02*
G03*
X1750000Y250000I-0J250000D01*
G01*
X0Y500000D02*
Y8580500D01*
X500000Y9080500D02*
X2160250D01*
X2160200Y9982500D02*
X2160250Y9080500D01*
X2160200Y9982500D02*
X2310200Y10132300D01*
X5170200D01*
X5320200Y10032300D01*
X5320250Y9444500D01*
X5411200D01*
Y10032300D01*
X5561200Y10132300D01*
Y10132500D01*
X7278200D01*
X7278200Y10132300D02*
X7278200Y10132500D01*
X7278200Y10132300D02*
X7428200Y9982500D01*
Y9080500D02*
Y9982500D01*
Y9080500D02*
X9088500D01*
X9588500Y500000D02*
Y8580500D01*
X8088500Y0D02*
X9088500D01*
X7838500Y250000D02*
Y700000D01*
X2000000Y950000D02*
X7588500D01*
X1750000Y250000D02*
X1750000Y700000D01*
X500000Y0D02*
X1500000D01*
D18*
X7143700Y9460000D02*
D03*
X7270699Y9460001D02*
D03*
X2444699D02*
D03*
X2571699D02*
D03*
D19*
X7862600Y3410000D02*
D03*
X8290000Y6100000D02*
D03*
X8102600Y4010000D02*
D03*
X6780000Y5910000D02*
D03*
X8030000Y3820000D02*
D03*
X7936422Y3610536D02*
D03*
X7497400Y6632001D02*
D03*
X7710000Y2970000D02*
D03*
X7790000Y3200000D02*
D03*
X8470000Y6980000D02*
D03*
X8390000Y7080000D02*
D03*
X8210000Y7160000D02*
D03*
X8302000Y5838000D02*
D03*
X5739999Y4389999D02*
D03*
X2947004Y3440000D02*
D03*
X2450000D02*
D03*
X7286000Y5904000D02*
D03*
X1950000Y3440000D02*
D03*
X4238000Y5872000D02*
D03*
X4997999Y6642001D02*
D03*
X1420000Y3440000D02*
D03*
X6520000Y6630000D02*
D03*
X6190000Y8960000D02*
D03*
X6100000Y6820000D02*
D03*
X6270000Y5910000D02*
D03*
X6256199Y4399080D02*
D03*
X5900000Y6810000D02*
D03*
X6013999Y6636001D02*
D03*
X5826599Y9097400D02*
D03*
X5681399D02*
D03*
X5753999D02*
D03*
X5461601Y9199289D02*
D03*
X5420000Y6800000D02*
D03*
X5250000Y4390000D02*
D03*
X5762000Y5804380D02*
D03*
X5505999Y6644001D02*
D03*
X4100000Y7400000D02*
D03*
X3840000Y7380000D02*
D03*
X7020000Y6620000D02*
D03*
X5254000Y5886000D02*
D03*
X4740000Y5890000D02*
D03*
X4489999Y6659999D02*
D03*
X3730000Y5867993D02*
D03*
X3620000Y7360000D02*
D03*
X3222000Y5878000D02*
D03*
X3220000Y7320000D02*
D03*
X2714000Y5866000D02*
D03*
X2206000Y5864000D02*
D03*
X1949999Y6569999D02*
D03*
X1698000Y5858000D02*
D03*
%TF.MD5,727bf239e363e223499a64a882625935*%
M02*
