%TF.GenerationSoftware,Altium Limited,Altium Designer,22.11.1 (43)*%
G04 Layer_Color=255*
%FSLAX45Y45*%
%MOMM*%
%TF.SameCoordinates,AD8EF09A-55C0-4CAF-97A9-B7ED8585E017*%
%TF.FilePolarity,Positive*%
%TF.FileFunction,Pads,Bot*%
%TF.Part,Single*%
G01*
G75*
%TA.AperFunction,SMDPad,CuDef*%
%ADD11R,0.66000X4.57200*%
D11*
X5238699Y9760001D02*
D03*
X7270699D02*
D03*
X7143699D02*
D03*
X7016699D02*
D03*
X6889699D02*
D03*
X6762699D02*
D03*
X6635699D02*
D03*
X6508699D02*
D03*
X6381699D02*
D03*
X6254699D02*
D03*
X6127699D02*
D03*
X6000699D02*
D03*
X5873699D02*
D03*
X5746699D02*
D03*
X5619699D02*
D03*
X5492699D02*
D03*
X5111699D02*
D03*
X4984699D02*
D03*
X4857699D02*
D03*
X4730699D02*
D03*
X4603699D02*
D03*
X4476699D02*
D03*
X4349699D02*
D03*
X4222699D02*
D03*
X4095699D02*
D03*
X3968699D02*
D03*
X3841699D02*
D03*
X3714699D02*
D03*
X3587699D02*
D03*
X3460699D02*
D03*
X3333699D02*
D03*
X3206699D02*
D03*
X3079699D02*
D03*
X2952699D02*
D03*
X2825699D02*
D03*
X2698699D02*
D03*
X2571699D02*
D03*
X2444699D02*
D03*
X2317699D02*
D03*
%TF.MD5,ecf623576e86643e1e4f6b1f0feb8e1f*%
M02*
