%TF.GenerationSoftware,Altium Limited,Altium Designer,22.11.1 (43)*%
G04 Layer_Color=0*
%FSLAX45Y45*%
%MOMM*%
%TF.SameCoordinates,C297AA42-F212-4987-B5A2-20FF98F52B47*%
%TF.FilePolarity,Positive*%
%TF.FileFunction,Plated,1,4,PTH,Drill*%
%TF.Part,Single*%
G01*
G75*
%TA.AperFunction,ComponentDrill*%
%ADD29C,1.15000*%
%TA.AperFunction,ViaDrill,NotFilled*%
%ADD30C,0.25400*%
%ADD31C,0.35600*%
D29*
X8826500Y2095500D02*
D03*
X8572500D02*
D03*
X8826500Y2349500D02*
D03*
X8572500D02*
D03*
X8826500Y2603500D02*
D03*
X8572500D02*
D03*
X8826500Y2857500D02*
D03*
X8572500D02*
D03*
X8826500Y3111500D02*
D03*
X8572500D02*
D03*
X8826500Y3365500D02*
D03*
X8572500D02*
D03*
X8826500Y3619500D02*
D03*
X8572500D02*
D03*
X8826500Y3873500D02*
D03*
X8572500D02*
D03*
X8826500Y4127500D02*
D03*
X8572500D02*
D03*
X8826500Y4381500D02*
D03*
X8572500D02*
D03*
X8826500Y4635500D02*
D03*
X8572500D02*
D03*
X8826500Y4889500D02*
D03*
X8572500D02*
D03*
X8826500Y5143500D02*
D03*
X8572500D02*
D03*
X8826500Y5397500D02*
D03*
X8572500D02*
D03*
X8826500Y5651500D02*
D03*
X8572500D02*
D03*
X8826500Y5905500D02*
D03*
X8572500D02*
D03*
X8826500Y6159500D02*
D03*
X8572500D02*
D03*
X8826500Y6413500D02*
D03*
X8572500D02*
D03*
X8826500Y6667500D02*
D03*
X8572500D02*
D03*
X8826500Y6921500D02*
D03*
X8572500D02*
D03*
X1079500Y1968500D02*
D03*
X825500D02*
D03*
X1079500Y2222500D02*
D03*
X825500D02*
D03*
X1079500Y2476500D02*
D03*
X825500D02*
D03*
X1079500Y2730500D02*
D03*
X825500D02*
D03*
X1079500Y2984500D02*
D03*
X825500D02*
D03*
X1079500Y3238500D02*
D03*
X825500D02*
D03*
X1079500Y3492500D02*
D03*
X825500D02*
D03*
X1079500Y3746500D02*
D03*
X825500D02*
D03*
X1079500Y4000500D02*
D03*
X825500D02*
D03*
X1079500Y4254500D02*
D03*
X825500D02*
D03*
X1079500Y4508500D02*
D03*
X825500D02*
D03*
X1079500Y4762500D02*
D03*
X825500D02*
D03*
X1079500Y5016500D02*
D03*
X825500D02*
D03*
X1079500Y5270500D02*
D03*
X825500D02*
D03*
X1079500Y5524500D02*
D03*
X825500D02*
D03*
X1079500Y5778500D02*
D03*
X825500D02*
D03*
X1079500Y6032500D02*
D03*
X825500D02*
D03*
X1079500Y6286500D02*
D03*
X825500D02*
D03*
X1079500Y6540500D02*
D03*
X825500D02*
D03*
X1079500Y6794500D02*
D03*
X825500D02*
D03*
D30*
X4968664Y6531336D02*
D03*
X6000700Y9410000D02*
D03*
X6130000Y9220000D02*
D03*
X6254700Y9410000D02*
D03*
X6460000Y7340000D02*
D03*
Y5840000D02*
D03*
X5970000Y6340000D02*
D03*
X6300000Y6000000D02*
D03*
Y7340000D02*
D03*
X6140000D02*
D03*
Y6160000D02*
D03*
X6390000Y8088000D02*
D03*
X6130000Y8856000D02*
D03*
X6240000Y9130000D02*
D03*
X6390000Y9000000D02*
D03*
X6240000Y8500000D02*
D03*
X6510000Y8860000D02*
D03*
X5970000Y7340000D02*
D03*
X5810000Y4680000D02*
D03*
Y6480000D02*
D03*
X5873700Y9410000D02*
D03*
X5746700D02*
D03*
X5620000Y6680000D02*
D03*
X5490000Y6800000D02*
D03*
X5620000Y5130000D02*
D03*
X5490000Y5500000D02*
D03*
X5240000Y7160000D02*
D03*
X5090000Y7250000D02*
D03*
X5240000Y7990000D02*
D03*
X5100000Y7490000D02*
D03*
X4970000Y7380000D02*
D03*
X5110000Y8140000D02*
D03*
X4984700Y9410000D02*
D03*
X5090000Y6130000D02*
D03*
X4860000Y7520000D02*
D03*
Y6890000D02*
D03*
X4730000Y7260000D02*
D03*
Y7680000D02*
D03*
X4860000Y7940000D02*
D03*
X4476700Y9410000D02*
D03*
X4860000Y8390000D02*
D03*
X6880000Y6590000D02*
D03*
Y8480000D02*
D03*
X6770000Y6950000D02*
D03*
Y8590000D02*
D03*
X6640000Y8730000D02*
D03*
Y7310000D02*
D03*
X6510000Y7700000D02*
D03*
X5238700Y9410000D02*
D03*
X7016700D02*
D03*
X3457750D02*
D03*
X4349700D02*
D03*
X2952700D02*
D03*
X4730700D02*
D03*
X3206700D02*
D03*
X2698700D02*
D03*
X2317700D02*
D03*
D31*
X2444700Y9460000D02*
D03*
X2571700D02*
D03*
X7270700D02*
D03*
X7143700D02*
D03*
%TF.MD5,ab0fea696358ae546193219b3a96e047*%
M02*
