%TF.GenerationSoftware,Altium Limited,Altium Designer,22.11.1 (43)*%
G04 Layer_Color=16711935*
%FSLAX45Y45*%
%MOMM*%
%TF.SameCoordinates,C297AA42-F212-4987-B5A2-20FF98F52B47*%
%TF.FilePolarity,Negative*%
%TF.FileFunction,Soldermask,Bot*%
%TF.Part,Single*%
G01*
G75*
%TA.AperFunction,SMDPad,CuDef*%
%ADD21R,0.73320X4.77520*%
%TA.AperFunction,ComponentPad*%
%ADD22C,1.92820*%
%ADD23R,1.92820X1.92820*%
%TA.AperFunction,ViaPad*%
%ADD24C,0.64720*%
%ADD25C,0.83820*%
G36*
X7485519Y3054711D02*
X7486926Y3051196D01*
X7487629Y3048383D01*
X7491145Y3039241D01*
X7492551Y3034319D01*
X7493606Y3033264D01*
X7494661Y3029397D01*
X7497474Y3023068D01*
X7498177Y3019552D01*
X7500990Y3013223D01*
X7501693Y3010411D01*
X7503099Y3006895D01*
X7504154Y3004433D01*
X7505209Y2999863D01*
X7507318Y2996347D01*
X7508022Y2992831D01*
X7510131Y2987908D01*
X7511537Y2984393D01*
X7512241Y2981580D01*
X7514350Y2976657D01*
X7515054Y2973845D01*
X7517515Y2967868D01*
X7518569Y2964000D01*
X7521382Y2957671D01*
X7522789Y2952046D01*
X7524195Y2950639D01*
X7524898Y2947123D01*
X7527711Y2940795D01*
X7528414Y2936576D01*
X7529821Y2933060D01*
X7531227Y2931653D01*
X7531930Y2927434D01*
X7533336Y2923918D01*
X7534391Y2922863D01*
X7535094Y2920051D01*
X7536149Y2915480D01*
X7537204Y2914425D01*
X7538259Y2910558D01*
X7540017Y2905987D01*
X7542478Y2899306D01*
X7543181Y2896494D01*
X7544587Y2895087D01*
X7545291Y2891571D01*
X7548104Y2885243D01*
X7549510Y2879617D01*
X7551268Y2875749D01*
X7552323Y2871882D01*
X7553729Y2868366D01*
X7554784Y2867311D01*
X7555839Y2862741D01*
X7558651Y2856412D01*
X7560058Y2850786D01*
X7561464Y2849380D01*
X7562167Y2845161D01*
X7563925Y2841293D01*
X7565683Y2836723D01*
X7567090Y2831800D01*
X7570254Y2829339D01*
X7575879Y2832152D01*
X7601194Y2845512D01*
X7604710Y2847622D01*
X7609281Y2850083D01*
X7613852Y2851841D01*
X7615258Y2853248D01*
X7616664Y2853951D01*
X7620181Y2855357D01*
X7621587Y2856763D01*
X7622993Y2857466D01*
X7626509Y2858873D01*
X7632838Y2862389D01*
X7636354Y2864498D01*
X7639167Y2865202D01*
X7640925Y2866960D01*
X7644792Y2868014D01*
X7646199Y2869421D01*
X7649714Y2871530D01*
X7654285Y2873991D01*
X7658153Y2875046D01*
X7660262Y2877156D01*
X7661669Y2877859D01*
X7665185Y2879266D01*
X7666591Y2880672D01*
X7670107Y2881375D01*
X7671513Y2882781D01*
X7677842Y2886297D01*
X7681358Y2887001D01*
X7682413Y2885946D01*
X7681006Y2883133D01*
X7680303Y2880320D01*
X7679600Y2875398D01*
X7678897Y2872585D01*
X7677491Y2869069D01*
X7676787Y2862741D01*
X7675381Y2857818D01*
X7674326Y2853951D01*
X7673271Y2847270D01*
X7671513Y2841293D01*
X7670459Y2837426D01*
X7669756Y2832503D01*
X7667997Y2826526D01*
X7667294Y2823713D01*
X7666591Y2818088D01*
X7665888Y2814572D01*
X7664481Y2811056D01*
X7663427Y2804376D01*
X7660966Y2796289D01*
X7659911Y2789609D01*
X7658856Y2785741D01*
X7657450Y2780116D01*
X7656395Y2773435D01*
X7655340Y2770271D01*
X7654285Y2766403D01*
X7653582Y2763591D01*
X7652879Y2758668D01*
X7651824Y2755504D01*
X7650418Y2749878D01*
X7649363Y2743198D01*
X7647605Y2737221D01*
X7646902Y2733705D01*
X7646199Y2729486D01*
X7645144Y2724915D01*
X7643737Y2721399D01*
X7643034Y2715774D01*
X7642331Y2712961D01*
X7640573Y2706984D01*
X7639518Y2700303D01*
X7638815Y2697491D01*
X7636706Y2689756D01*
X7636002Y2684833D01*
X7635299Y2682021D01*
X7633893Y2678505D01*
X7633189Y2672879D01*
X7632486Y2670066D01*
X7630728Y2664089D01*
X7629322Y2655651D01*
X7628619Y2652135D01*
X7627212Y2648619D01*
X7626158Y2641939D01*
X7624400Y2635961D01*
X7623345Y2632094D01*
X7622642Y2627172D01*
X7621939Y2624359D01*
X7620884Y2620491D01*
X7619126Y2610295D01*
X7617719Y2606779D01*
X7617016Y2604670D01*
X7616313Y2599044D01*
X7615610Y2596231D01*
X7614555Y2593067D01*
X7613852Y2590254D01*
X7612797Y2585683D01*
X7612094Y2580761D01*
X7611039Y2577597D01*
X7610336Y2574784D01*
X7609281Y2568104D01*
X7608578Y2565291D01*
X7606468Y2558259D01*
X7605765Y2553337D01*
X7605062Y2550524D01*
X7602952Y2542789D01*
X7602249Y2537866D01*
X7601546Y2535054D01*
X7600491Y2531186D01*
X7599436Y2526615D01*
X7598733Y2524506D01*
X7599085Y2522045D01*
X7601897Y2521341D01*
X7603656Y2525209D01*
X7612797Y2534351D01*
X7613500Y2535757D01*
X7614907Y2536460D01*
X7616664Y2538921D01*
X7619126Y2540679D01*
X7619829Y2542086D01*
X7620884Y2543140D01*
X7622290Y2543844D01*
X7622642Y2544898D01*
X7624751Y2547008D01*
X7625454Y2548414D01*
X7627212Y2550172D01*
X7628619Y2550876D01*
X7628970Y2551930D01*
X7630728Y2553688D01*
X7632135Y2554391D01*
X7632486Y2555446D01*
X7635299Y2558259D01*
X7636002Y2559665D01*
X7644089Y2567752D01*
X7647253Y2571620D01*
X7647957Y2573026D01*
X7649011Y2573378D01*
X7651121Y2576190D01*
X7652527Y2576893D01*
X7653582Y2577948D01*
X7654285Y2579355D01*
X7655340Y2579706D01*
X7657450Y2583222D01*
X7658856Y2583925D01*
X7659911Y2584980D01*
X7660614Y2586386D01*
X7662724Y2587793D01*
X7664481Y2590254D01*
X7665888Y2590957D01*
X7667646Y2594122D01*
X7669052Y2594825D01*
X7670810Y2597286D01*
X7672217Y2597989D01*
X7673623Y2600099D01*
X7676084Y2601857D01*
X7676787Y2603263D01*
X7678897Y2605373D01*
X7679600Y2606779D01*
X7689445Y2616624D01*
X7690148Y2618030D01*
X7699289Y2627172D01*
X7699993Y2628578D01*
X7707728Y2636313D01*
X7708431Y2637719D01*
X7719682Y2648971D01*
X7720385Y2650377D01*
X7726011Y2656003D01*
X7727769Y2658464D01*
X7729175Y2659167D01*
X7730933Y2661628D01*
X7731636Y2663034D01*
X7741481Y2672879D01*
X7742184Y2674285D01*
X7743591Y2674989D01*
X7744294Y2676395D01*
X7751326Y2683427D01*
X7752029Y2684833D01*
X7763280Y2696084D01*
X7763983Y2697491D01*
X7773124Y2706632D01*
X7775234Y2710148D01*
X7782617Y2717532D01*
X7786134Y2721751D01*
X7787540Y2722454D01*
X7787891Y2723509D01*
X7794220Y2729838D01*
X7794923Y2731244D01*
X7796681Y2733002D01*
X7798088Y2732299D01*
X7799142Y2728431D01*
X7799846Y2719290D01*
X7800901Y2716125D01*
X7801604Y2709796D01*
X7802307Y2702765D01*
X7803010Y2697139D01*
X7803713Y2693623D01*
X7804416Y2690810D01*
X7805120Y2685185D01*
X7805823Y2677450D01*
X7806526Y2671824D01*
X7807229Y2669011D01*
X7807932Y2664792D01*
X7808987Y2651080D01*
X7809690Y2648971D01*
X7810394Y2644048D01*
X7812152Y2640181D01*
X7813558Y2639478D01*
X7817074Y2640884D01*
X7820590Y2641587D01*
X7823403Y2642290D01*
X7828325Y2644400D01*
X7833247Y2645103D01*
X7836060Y2645806D01*
X7840982Y2647916D01*
X7845201Y2648619D01*
X7848366Y2649674D01*
X7851882Y2651080D01*
X7857859Y2652135D01*
X7862781Y2654244D01*
X7867000Y2654948D01*
X7869813Y2655651D01*
X7874736Y2657760D01*
X7878955Y2658464D01*
X7881767Y2659167D01*
X7885635Y2660925D01*
X7890909Y2661980D01*
X7894776Y2663034D01*
X7899347Y2664792D01*
X7904973Y2666199D01*
X7909543Y2667957D01*
X7915521Y2669011D01*
X7920091Y2670769D01*
X7927475Y2672528D01*
X7931342Y2674285D01*
X7939429Y2676043D01*
X7944351Y2678153D01*
X7948571Y2678856D01*
X7952438Y2679911D01*
X7955954Y2681317D01*
X7961228Y2682372D01*
X7964392Y2683427D01*
X7968963Y2685185D01*
X7971073Y2685888D01*
X7974237Y2685536D01*
X7974940Y2684130D01*
X7973534Y2679208D01*
X7971073Y2674637D01*
X7970018Y2670066D01*
X7968963Y2669011D01*
X7967205Y2664441D01*
X7966502Y2661628D01*
X7964392Y2659518D01*
X7963689Y2655299D01*
X7961579Y2651783D01*
X7960876Y2650377D01*
X7960173Y2647564D01*
X7958415Y2643697D01*
X7955954Y2637016D01*
X7954548Y2635610D01*
X7953844Y2632797D01*
X7952438Y2629281D01*
X7951383Y2628226D01*
X7950329Y2624359D01*
X7946812Y2616624D01*
X7946109Y2613811D01*
X7944703Y2612405D01*
X7944000Y2609592D01*
X7940484Y2601857D01*
X7939781Y2599044D01*
X7937671Y2595528D01*
X7936968Y2593418D01*
X7934858Y2588496D01*
X7933452Y2584980D01*
X7931342Y2580058D01*
X7929936Y2576542D01*
X7929233Y2573729D01*
X7928178Y2572674D01*
X7926420Y2568104D01*
X7925717Y2565291D01*
X7924311Y2563884D01*
X7923607Y2562478D01*
X7922904Y2559665D01*
X7921146Y2555798D01*
X7919388Y2551227D01*
X7916927Y2546656D01*
X7915872Y2542086D01*
X7914817Y2541031D01*
X7913059Y2536460D01*
X7910247Y2530131D01*
X7908137Y2525209D01*
X7907434Y2523803D01*
X7903918Y2516068D01*
X7903215Y2511848D01*
X7901105Y2509739D01*
X7901457Y2507278D01*
X7904973Y2505871D01*
X7908840Y2504113D01*
X7912356Y2503410D01*
X7916575Y2502707D01*
X7920091Y2501301D01*
X7927475Y2499543D01*
X7931342Y2498488D01*
X7935913Y2496730D01*
X7940835Y2496027D01*
X7945758Y2493917D01*
X7950680Y2493214D01*
X7953493Y2492511D01*
X7958064Y2490753D01*
X7963337Y2489698D01*
X7967205Y2488643D01*
X7967908Y2487237D01*
X7967205Y2484424D01*
X7964392Y2483018D01*
X7960525Y2479853D01*
X7959118Y2479150D01*
X7957712Y2477744D01*
X7956306Y2477041D01*
X7954196Y2474931D01*
X7950680Y2472821D01*
X7949274Y2471415D01*
X7945758Y2469305D01*
X7943648Y2467196D01*
X7942242Y2466493D01*
X7940132Y2464383D01*
X7936616Y2462273D01*
X7935210Y2460867D01*
X7931694Y2458758D01*
X7929584Y2456648D01*
X7928178Y2455945D01*
X7926772Y2454538D01*
X7922904Y2452077D01*
X7919036Y2448913D01*
X7917630Y2448210D01*
X7915521Y2446100D01*
X7914114Y2445397D01*
X7912708Y2443991D01*
X7909192Y2441881D01*
X7908840Y2440826D01*
X7904269Y2438365D01*
X7902863Y2436959D01*
X7901457Y2436255D01*
X7899347Y2434146D01*
X7895831Y2432036D01*
X7893722Y2429927D01*
X7892315Y2429223D01*
X7890909Y2427817D01*
X7887393Y2425708D01*
X7885283Y2423598D01*
X7881767Y2421488D01*
X7879658Y2419379D01*
X7878251Y2418676D01*
X7876845Y2417269D01*
X7873329Y2415160D01*
X7871219Y2413050D01*
X7869813Y2412347D01*
X7868407Y2410941D01*
X7864891Y2408831D01*
X7863484Y2407425D01*
X7859969Y2405315D01*
X7858914Y2404260D01*
X7858211Y2402854D01*
X7855749Y2401799D01*
X7854343Y2400393D01*
X7850827Y2398283D01*
X7849421Y2396877D01*
X7845905Y2394767D01*
X7845553Y2393712D01*
X7842389Y2391954D01*
X7840982Y2390548D01*
X7837466Y2388438D01*
X7836060Y2387032D01*
X7832192Y2384571D01*
X7831489Y2383164D01*
X7824809Y2378594D01*
X7823403Y2377891D01*
X7821293Y2375781D01*
X7819887Y2375078D01*
X7818480Y2373671D01*
X7814964Y2371562D01*
X7813558Y2370156D01*
X7810042Y2368046D01*
X7807932Y2365936D01*
X7806526Y2365233D01*
X7804416Y2363124D01*
X7800901Y2361014D01*
X7799494Y2359608D01*
X7795978Y2357498D01*
X7793869Y2355388D01*
X7792462Y2354685D01*
X7790704Y2352927D01*
X7786485Y2350115D01*
X7777695Y2343434D01*
X7772773Y2339918D01*
X7766444Y2334996D01*
X7765038Y2334293D01*
X7763631Y2332886D01*
X7760116Y2330777D01*
X7758709Y2329370D01*
X7756248Y2327613D01*
X7752380Y2324448D01*
X7750974Y2323745D01*
X7749567Y2322339D01*
X7746052Y2320229D01*
X7743942Y2318119D01*
X7742536Y2317416D01*
X7741129Y2316010D01*
X7737613Y2313900D01*
X7736207Y2311791D01*
X7731988Y2311088D01*
X7727417Y2313549D01*
X7722846Y2314603D01*
X7719330Y2316010D01*
X7718276Y2317065D01*
X7713705Y2318119D01*
X7707376Y2320932D01*
X7704563Y2321635D01*
X7699641Y2323745D01*
X7694016Y2325151D01*
X7690148Y2326909D01*
X7686280Y2327964D01*
X7681358Y2329370D01*
X7680303Y2330425D01*
X7672217Y2332183D01*
X7670810Y2333590D01*
X7665185Y2334996D01*
X7659208Y2337457D01*
X7653231Y2338512D01*
X7649363Y2340270D01*
X7645495Y2341325D01*
X7642683Y2342028D01*
X7637760Y2344138D01*
X7632135Y2344841D01*
X7625806Y2347653D01*
X7620181Y2348356D01*
X7617016Y2349411D01*
X7613500Y2350818D01*
X7609281Y2351521D01*
X7605765Y2352224D01*
X7600139Y2354334D01*
X7593459Y2355388D01*
X7588889Y2357146D01*
X7584318Y2358201D01*
X7579396Y2358904D01*
X7576583Y2359608D01*
X7573067Y2361014D01*
X7566738Y2361717D01*
X7561112Y2363124D01*
X7557597Y2364530D01*
X7549861Y2365233D01*
X7547049Y2365936D01*
X7543181Y2366991D01*
X7540368Y2367694D01*
X7531579Y2368749D01*
X7527711Y2369804D01*
X7519976Y2371210D01*
X7512241Y2371913D01*
X7505561Y2372968D01*
X7501693Y2374023D01*
X7496067Y2374726D01*
X7488332Y2375429D01*
X7482004Y2376133D01*
X7479191Y2376836D01*
X7477433Y2376484D01*
X7473917Y2377891D01*
X7458447Y2378594D01*
X7456337Y2379297D01*
X7436648Y2380000D01*
X7434538Y2380703D01*
X7369845Y2381406D01*
X7367735Y2380703D01*
X7360000Y2380000D01*
X7341717Y2378594D01*
X7326247Y2377187D01*
X7322379Y2376133D01*
X7316051Y2375429D01*
X7308316Y2374726D01*
X7305503Y2374023D01*
X7298471Y2372617D01*
X7291791Y2371562D01*
X7286868Y2370859D01*
X7280891Y2369101D01*
X7274211Y2368046D01*
X7264366Y2365233D01*
X7259444Y2364530D01*
X7254873Y2362772D01*
X7249599Y2361717D01*
X7245732Y2360663D01*
X7242216Y2359256D01*
X7237645Y2358201D01*
X7234832Y2357498D01*
X7230964Y2355740D01*
X7227097Y2354685D01*
X7222175Y2353279D01*
X7221120Y2352224D01*
X7216549Y2351169D01*
X7210220Y2348356D01*
X7207408Y2347653D01*
X7202485Y2345544D01*
X7198969Y2344841D01*
X7197914Y2345895D01*
X7197211Y2350115D01*
X7195453Y2354685D01*
X7193695Y2364881D01*
X7191586Y2369804D01*
X7190883Y2378242D01*
X7189125Y2384219D01*
X7188421Y2387735D01*
X7187718Y2393361D01*
X7186664Y2400744D01*
X7185609Y2404612D01*
X7184906Y2407425D01*
X7183851Y2419730D01*
X7182796Y2423598D01*
X7181389Y2434849D01*
X7180335Y2449968D01*
X7179280Y2453835D01*
X7177874Y2472118D01*
X7177170Y2486885D01*
X7176467Y2506574D01*
X7175764Y2529780D01*
X7175061Y2533296D01*
X7173654Y2609240D01*
X7172600Y2726321D01*
X7175764Y2726673D01*
X7176819Y2725618D01*
X7177522Y2724212D01*
X7178928Y2722806D01*
X7180686Y2720344D01*
X7182093Y2719641D01*
X7183851Y2717883D01*
X7184554Y2716477D01*
X7185609Y2716125D01*
X7186664Y2715071D01*
X7187367Y2713664D01*
X7193695Y2707335D01*
X7194399Y2705929D01*
X7195453Y2705578D01*
X7196508Y2704523D01*
X7197211Y2703116D01*
X7200024Y2700303D01*
X7200727Y2698897D01*
X7209869Y2689756D01*
X7210572Y2688349D01*
X7220417Y2678505D01*
X7221120Y2677098D01*
X7230964Y2667253D01*
X7231668Y2665847D01*
X7240809Y2656706D01*
X7241512Y2655299D01*
X7244325Y2652486D01*
X7245028Y2651080D01*
X7254170Y2641939D01*
X7254873Y2640532D01*
X7264014Y2631391D01*
X7264718Y2629984D01*
X7274562Y2620140D01*
X7275266Y2618733D01*
X7282649Y2611350D01*
X7285813Y2607482D01*
X7286517Y2606076D01*
X7288626Y2604670D01*
X7289329Y2603263D01*
X7290384Y2602208D01*
X7291791Y2601505D01*
X7292142Y2600450D01*
X7295658Y2596934D01*
X7296361Y2595528D01*
X7297768Y2594825D01*
X7298471Y2593418D01*
X7300229Y2591661D01*
X7301635Y2590957D01*
X7301987Y2589903D01*
X7303745Y2588145D01*
X7305151Y2587441D01*
X7305503Y2586386D01*
X7307612Y2584277D01*
X7308316Y2582871D01*
X7318863Y2572323D01*
X7319567Y2570916D01*
X7328005Y2562478D01*
X7328708Y2561072D01*
X7332927Y2556853D01*
X7333630Y2555446D01*
X7334685Y2555095D01*
X7337498Y2552282D01*
X7340311Y2548063D01*
X7341717Y2547359D01*
X7343123Y2545250D01*
X7345584Y2543492D01*
X7346288Y2542086D01*
X7347342Y2541031D01*
X7348749Y2540328D01*
X7349101Y2539273D01*
X7351913Y2536460D01*
X7352616Y2535054D01*
X7353671Y2533999D01*
X7355078Y2533296D01*
X7356484Y2531186D01*
X7358945Y2529428D01*
X7359648Y2528022D01*
X7361758Y2525912D01*
X7362461Y2524506D01*
X7365626Y2522045D01*
X7367735Y2521341D01*
X7368087Y2522396D01*
X7367032Y2526264D01*
X7365977Y2532241D01*
X7365274Y2535054D01*
X7363867Y2538570D01*
X7363164Y2544898D01*
X7362461Y2547711D01*
X7360703Y2553688D01*
X7359297Y2562126D01*
X7358594Y2564939D01*
X7357187Y2568455D01*
X7356132Y2575136D01*
X7355429Y2577948D01*
X7354374Y2581113D01*
X7353671Y2583925D01*
X7352616Y2592012D01*
X7350859Y2596583D01*
X7349101Y2606779D01*
X7347342Y2611350D01*
X7346288Y2618030D01*
X7345584Y2620843D01*
X7344178Y2625765D01*
X7343475Y2627875D01*
X7342772Y2634907D01*
X7341014Y2639478D01*
X7340311Y2642993D01*
X7339256Y2648971D01*
X7337498Y2654948D01*
X7336795Y2657760D01*
X7335740Y2664441D01*
X7335037Y2667253D01*
X7333630Y2670769D01*
X7332927Y2676395D01*
X7331521Y2682021D01*
X7330114Y2686943D01*
X7329411Y2689756D01*
X7328708Y2694678D01*
X7328005Y2697491D01*
X7326599Y2701007D01*
X7325895Y2707335D01*
X7324489Y2712961D01*
Y2713664D01*
X7323434Y2716125D01*
X7322379Y2722806D01*
X7320621Y2728783D01*
X7319567Y2732650D01*
X7318863Y2737573D01*
X7318160Y2740385D01*
X7317105Y2743550D01*
X7316402Y2746363D01*
X7315347Y2754449D01*
X7313589Y2759020D01*
X7312535Y2764294D01*
X7311831Y2769216D01*
X7310074Y2773787D01*
X7309019Y2780467D01*
X7308316Y2783280D01*
X7307261Y2787148D01*
X7306557Y2789960D01*
X7305503Y2796641D01*
X7303393Y2803673D01*
X7302690Y2806485D01*
X7301987Y2811408D01*
X7300229Y2817385D01*
X7299526Y2820198D01*
X7298471Y2826878D01*
X7296713Y2832855D01*
X7295306Y2841293D01*
X7294252Y2845161D01*
X7292845Y2848677D01*
X7292142Y2854302D01*
X7291439Y2857115D01*
X7290384Y2860983D01*
X7288626Y2868366D01*
X7287923Y2873288D01*
X7286517Y2876804D01*
X7285813Y2881727D01*
X7285110Y2883836D01*
X7285462Y2887001D01*
X7287571Y2887704D01*
X7288978Y2886297D01*
X7300932Y2879969D01*
X7307261Y2876453D01*
X7310777Y2874343D01*
X7314293Y2872937D01*
X7321324Y2868718D01*
X7322731Y2868014D01*
X7326247Y2866608D01*
X7332576Y2863092D01*
X7336092Y2860983D01*
X7339607Y2859576D01*
X7340662Y2858521D01*
X7344530Y2857466D01*
X7345936Y2856060D01*
X7355078Y2851138D01*
X7358594Y2849731D01*
X7358945Y2848677D01*
X7361406Y2847622D01*
X7365977Y2845161D01*
X7370548Y2843403D01*
X7372306Y2841645D01*
X7376877Y2839887D01*
X7378283Y2838480D01*
X7379689Y2837777D01*
X7390237Y2832855D01*
X7392347Y2830745D01*
X7397972Y2830042D01*
X7399730Y2831800D01*
X7400434Y2836019D01*
X7401840Y2839535D01*
X7402895Y2840590D01*
X7403949Y2845161D01*
X7406762Y2851489D01*
X7407465Y2854302D01*
X7408872Y2857818D01*
X7409927Y2860279D01*
X7410981Y2864850D01*
X7413091Y2868366D01*
X7413794Y2872585D01*
X7416255Y2877156D01*
X7417310Y2881727D01*
X7419068Y2885594D01*
X7420826Y2890165D01*
X7421529Y2892978D01*
X7423287Y2896845D01*
X7424342Y2900713D01*
X7427155Y2907041D01*
X7428561Y2912667D01*
X7429967Y2914073D01*
X7430671Y2917589D01*
X7434187Y2926731D01*
X7434890Y2929544D01*
X7436648Y2932708D01*
X7437702Y2936576D01*
X7439812Y2941498D01*
X7440515Y2944311D01*
X7443328Y2950639D01*
X7444031Y2953452D01*
X7445086Y2956616D01*
X7447196Y2962242D01*
X7448250Y2966813D01*
X7449305Y2967868D01*
X7451063Y2972438D01*
X7451766Y2975251D01*
X7453524Y2978415D01*
X7454579Y2982986D01*
X7457392Y2989315D01*
X7458095Y2992128D01*
X7460908Y2999159D01*
X7462314Y3004082D01*
X7463369Y3005136D01*
X7464424Y3009004D01*
X7465127Y3011817D01*
X7467237Y3015333D01*
X7467940Y3019552D01*
X7469698Y3023420D01*
X7471456Y3027990D01*
X7473565Y3032913D01*
X7474269Y3036429D01*
X7476378Y3041351D01*
X7477784Y3044867D01*
X7478488Y3047680D01*
X7480597Y3052602D01*
X7482004Y3057524D01*
X7483762Y3057876D01*
X7485519Y3054711D01*
D02*
G37*
D21*
X5238700Y9760000D02*
D03*
X7270700D02*
D03*
X7143700D02*
D03*
X7016700D02*
D03*
X6889700D02*
D03*
X6762700D02*
D03*
X6635700D02*
D03*
X6508700D02*
D03*
X6381700D02*
D03*
X6254700D02*
D03*
X6127700D02*
D03*
X6000700D02*
D03*
X5873700D02*
D03*
X5746700D02*
D03*
X5619700D02*
D03*
X5492700D02*
D03*
X5111700D02*
D03*
X4984700D02*
D03*
X4857700D02*
D03*
X4730700D02*
D03*
X4603700D02*
D03*
X4476700D02*
D03*
X4349700D02*
D03*
X4222700D02*
D03*
X4095700D02*
D03*
X3968700D02*
D03*
X3841700D02*
D03*
X3714700D02*
D03*
X3587700D02*
D03*
X3460700D02*
D03*
X3333700D02*
D03*
X3206700D02*
D03*
X3079700D02*
D03*
X2952700D02*
D03*
X2825700D02*
D03*
X2698700D02*
D03*
X2571700D02*
D03*
X2444700D02*
D03*
X2317700D02*
D03*
D22*
X8826500Y2095500D02*
D03*
X8572500D02*
D03*
X8826500Y2349500D02*
D03*
X8572500D02*
D03*
X8826500Y2603500D02*
D03*
X8572500D02*
D03*
X8826500Y2857500D02*
D03*
X8572500D02*
D03*
X8826500Y3111500D02*
D03*
X8572500D02*
D03*
X8826500Y3365500D02*
D03*
X8572500D02*
D03*
X8826500Y3619500D02*
D03*
X8572500D02*
D03*
X8826500Y3873500D02*
D03*
X8572500D02*
D03*
X8826500Y4127500D02*
D03*
X8572500D02*
D03*
X8826500Y4381500D02*
D03*
X8572500D02*
D03*
X8826500Y4635500D02*
D03*
X8572500D02*
D03*
X8826500Y4889500D02*
D03*
X8572500D02*
D03*
X8826500Y5143500D02*
D03*
X8572500D02*
D03*
X8826500Y5397500D02*
D03*
X8572500D02*
D03*
X8826500Y5651500D02*
D03*
X8572500D02*
D03*
X8826500Y5905500D02*
D03*
X8572500D02*
D03*
X8826500Y6159500D02*
D03*
X8572500D02*
D03*
X8826500Y6413500D02*
D03*
X8572500D02*
D03*
X8826500Y6667500D02*
D03*
X8572500D02*
D03*
X8826500Y6921500D02*
D03*
X1079500Y1968500D02*
D03*
X825500D02*
D03*
X1079500Y2222500D02*
D03*
X825500D02*
D03*
X1079500Y2476500D02*
D03*
X825500D02*
D03*
X1079500Y2730500D02*
D03*
X825500D02*
D03*
X1079500Y2984500D02*
D03*
X825500D02*
D03*
X1079500Y3238500D02*
D03*
X825500D02*
D03*
X1079500Y3492500D02*
D03*
X825500D02*
D03*
X1079500Y3746500D02*
D03*
X825500D02*
D03*
X1079500Y4000500D02*
D03*
X825500D02*
D03*
X1079500Y4254500D02*
D03*
X825500D02*
D03*
X1079500Y4508500D02*
D03*
X825500D02*
D03*
X1079500Y4762500D02*
D03*
X825500D02*
D03*
X1079500Y5016500D02*
D03*
X825500D02*
D03*
X1079500Y5270500D02*
D03*
X825500D02*
D03*
X1079500Y5524500D02*
D03*
X825500D02*
D03*
X1079500Y5778500D02*
D03*
X825500D02*
D03*
X1079500Y6032500D02*
D03*
X825500D02*
D03*
X1079500Y6286500D02*
D03*
X825500D02*
D03*
X1079500Y6540500D02*
D03*
X825500D02*
D03*
X1079500Y6794500D02*
D03*
D23*
X8572500Y6921500D02*
D03*
X825500Y6794500D02*
D03*
D24*
X4968664Y6531336D02*
D03*
X6000700Y9410000D02*
D03*
X6130000Y9220000D02*
D03*
X6254700Y9410000D02*
D03*
X6460000Y7340000D02*
D03*
Y5840000D02*
D03*
X5970000Y6340000D02*
D03*
X6300000Y6000000D02*
D03*
Y7340000D02*
D03*
X6140000D02*
D03*
Y6160000D02*
D03*
X6390000Y8088000D02*
D03*
X6130000Y8856000D02*
D03*
X6240000Y9130000D02*
D03*
X6390000Y9000000D02*
D03*
X6240000Y8500000D02*
D03*
X6510000Y8860000D02*
D03*
X5970000Y7340000D02*
D03*
X5810000Y4680000D02*
D03*
Y6480000D02*
D03*
X5873700Y9410000D02*
D03*
X5746700D02*
D03*
X5620000Y6680000D02*
D03*
X5490000Y6800000D02*
D03*
X5620000Y5130000D02*
D03*
X5490000Y5500000D02*
D03*
X5240000Y7160000D02*
D03*
X5090000Y7250000D02*
D03*
X5240000Y7990000D02*
D03*
X5100000Y7490000D02*
D03*
X4970000Y7380000D02*
D03*
X5110000Y8140000D02*
D03*
X4984700Y9410000D02*
D03*
X5090000Y6130000D02*
D03*
X4860000Y7520000D02*
D03*
Y6890000D02*
D03*
X4730000Y7260000D02*
D03*
Y7680000D02*
D03*
X4860000Y7940000D02*
D03*
X4476700Y9410000D02*
D03*
X4860000Y8390000D02*
D03*
X6880000Y6590000D02*
D03*
Y8480000D02*
D03*
X6770000Y6950000D02*
D03*
Y8590000D02*
D03*
X6640000Y8730000D02*
D03*
Y7310000D02*
D03*
X6510000Y7700000D02*
D03*
X5238700Y9410000D02*
D03*
X7016700D02*
D03*
X3457750D02*
D03*
X4349700D02*
D03*
X2952700D02*
D03*
X4730700D02*
D03*
X3206700D02*
D03*
X2698700D02*
D03*
X2317700D02*
D03*
D25*
X2444700Y9460000D02*
D03*
X2571700D02*
D03*
X7270700D02*
D03*
X7143700D02*
D03*
%TF.MD5,81611767f1fed96864b3429e11c3a335*%
M02*
