%TF.GenerationSoftware,Altium Limited,Altium Designer,22.11.1 (43)*%
G04 Layer_Physical_Order=1*
G04 Layer_Color=255*
%FSLAX45Y45*%
%MOMM*%
%TF.SameCoordinates,C297AA42-F212-4987-B5A2-20FF98F52B47*%
%TF.FilePolarity,Positive*%
%TF.FileFunction,Copper,L1,Top,Signal*%
%TF.Part,Single*%
G01*
G75*
%TA.AperFunction,SMDPad,CuDef*%
%ADD10R,0.53000X4.57200*%
%TA.AperFunction,Conductor*%
%ADD11C,0.29300*%
%ADD12C,0.50000*%
%TA.AperFunction,NonConductor*%
%ADD13C,0.25400*%
%TA.AperFunction,ComponentPad*%
%ADD14C,1.72500*%
%ADD15R,1.72500X1.72500*%
%TA.AperFunction,ViaPad*%
%ADD16C,0.44400*%
%ADD17C,0.63500*%
G36*
X4955054Y2504812D02*
X4980163Y2492723D01*
X4982023Y2489003D01*
X4988533Y2484353D01*
X4995042Y2474124D01*
X4998762Y2464824D01*
X5004342Y2444365D01*
X5002482Y2416466D01*
X5000622Y2410886D01*
X4998762Y2397867D01*
X4995972Y2382057D01*
X4994112Y2374618D01*
X4991323Y2364388D01*
X4989462Y2351369D01*
X4986673Y2335559D01*
X4984813Y2328120D01*
X4982023Y2317890D01*
X4980163Y2299291D01*
X4976443Y2284411D01*
X4972723Y2271392D01*
X4970863Y2252793D01*
X4969003Y2245353D01*
X4963424Y2226754D01*
X4960634Y2214664D01*
X4954124Y2202575D01*
X4948544Y2193275D01*
X4940175Y2183046D01*
X4937385Y2180256D01*
X4935525Y2176536D01*
X4932735Y2173746D01*
X4929015Y2171886D01*
X4921575Y2164446D01*
X4917855Y2162586D01*
X4914135Y2158867D01*
X4902046Y2154217D01*
X4889956Y2147707D01*
X4876007Y2144917D01*
X4850898Y2142127D01*
X4193415Y2143057D01*
X4182255Y2141197D01*
X4178535Y2137477D01*
X4176675Y2124458D01*
X4173886Y2108649D01*
X4171096Y2098419D01*
X4169236Y2090979D01*
X4164586Y2064010D01*
X4161796Y2053781D01*
X4159936Y2046341D01*
X4157146Y2024952D01*
X4152496Y2009143D01*
X4150637Y1996123D01*
X4147847Y1980314D01*
X4145057Y1970084D01*
X4141337Y1955205D01*
X4139477Y1936605D01*
X4137617Y1931026D01*
X4133897Y1918006D01*
X4132037Y1904987D01*
X4130177Y1901267D01*
X4127387Y1898477D01*
X3948835Y1900337D01*
X3946045Y1903127D01*
X3947905Y1910567D01*
X3951625Y1919866D01*
X3953485Y1938466D01*
X3955344Y1945905D01*
X3958134Y1957995D01*
X3960924Y1968224D01*
X3962784Y1981244D01*
X3965574Y1997053D01*
X3967434Y2004493D01*
X3970224Y2014722D01*
X3974874Y2043551D01*
X3977664Y2053781D01*
X3979523Y2061220D01*
X3984173Y2088189D01*
X3987893Y2103069D01*
X3991613Y2127248D01*
X3993473Y2134688D01*
X3996263Y2144917D01*
X3998123Y2152357D01*
X4000913Y2173746D01*
X4005562Y2189555D01*
X4007422Y2202575D01*
X4010212Y2218384D01*
X4012072Y2225824D01*
X4014862Y2236053D01*
X4016722Y2249073D01*
X4019512Y2263022D01*
X4024162Y2269532D01*
X4781151Y2271392D01*
X4787661Y2274182D01*
X4790451Y2276972D01*
X4792310Y2284411D01*
X4795100Y2305801D01*
X4799750Y2321610D01*
X4801610Y2334629D01*
X4804400Y2350439D01*
X4807190Y2360668D01*
X4810910Y2373688D01*
X4808120Y2380198D01*
X3299721D01*
X3091410Y2378338D01*
X3088620Y2375548D01*
X3086760Y2351369D01*
X3083040Y2342069D01*
X3081180Y2334629D01*
X3077460Y2308591D01*
X3071880Y2289991D01*
X3070021Y2276972D01*
X3071880Y2273252D01*
X3074670Y2270462D01*
X3826080Y2268602D01*
X3827010Y2258372D01*
X3823290Y2249073D01*
X3819570Y2226754D01*
X3816780Y2210945D01*
X3812130Y2195135D01*
X3809340Y2173746D01*
X3807481Y2166306D01*
X3804691Y2156077D01*
X3802831Y2148637D01*
X3800041Y2127248D01*
X3798181Y2119808D01*
X3795391Y2109578D01*
X3793531Y2102139D01*
X3790741Y2080750D01*
X3787951Y2070520D01*
X3784231Y2055641D01*
X3782372Y2037041D01*
X3780512Y2031462D01*
X3776792Y2018442D01*
X3774932Y1999843D01*
X3768422Y1982174D01*
X3766562Y1972874D01*
X3762842Y1963574D01*
X3758193Y1955205D01*
X3750753Y1942185D01*
X3742383Y1931956D01*
X3739593Y1929166D01*
X3737733Y1925446D01*
X3723784Y1915216D01*
X3707045Y1907777D01*
X3681006Y1900337D01*
X3662406Y1898477D01*
X2804051Y1899407D01*
X2802191Y1906847D01*
X2805911Y1921726D01*
X2809631Y1934746D01*
X2811491Y1947765D01*
X2814281Y1961715D01*
X2816141Y1969154D01*
X2818931Y1979384D01*
X2823581Y2006353D01*
X2825440Y2013793D01*
X2828230Y2020302D01*
X2831020Y2023092D01*
X2838460Y2024952D01*
X3594519Y2025882D01*
X3596379Y2033322D01*
X3598239Y2046341D01*
X3601959Y2059361D01*
X3605679Y2074240D01*
X3607539Y2092839D01*
X3609399Y2098419D01*
X3613119Y2111439D01*
X3616838Y2137477D01*
X3612188Y2142127D01*
X3604749Y2143987D01*
X3597309Y2142127D01*
X2871008Y2143057D01*
X2860779Y2142127D01*
X2854269Y2146777D01*
X2857059Y2173746D01*
X2858919Y2183046D01*
X2863569Y2198855D01*
X2866359Y2220244D01*
X2871939Y2242563D01*
X2873798Y2253723D01*
X2877518Y2274182D01*
X2881238Y2289061D01*
X2884958Y2313240D01*
X2886818Y2320680D01*
X2889608Y2330909D01*
X2891468Y2343929D01*
X2894258Y2359738D01*
X2897048Y2369968D01*
X2898907Y2377408D01*
X2900767Y2390427D01*
X2903557Y2406236D01*
X2908207Y2422046D01*
X2911927Y2436925D01*
X2915647Y2440645D01*
X2919367Y2449945D01*
X2921227Y2453665D01*
X2926806Y2459244D01*
X2932386Y2468544D01*
X2950055Y2486213D01*
X2959355Y2491793D01*
X2983534Y2502953D01*
X2996554Y2504812D01*
X3020733Y2506672D01*
X4955054Y2504812D01*
D02*
G37*
G36*
X1873159D02*
X1874089Y2490863D01*
X1872229Y2485283D01*
X1869439Y2475054D01*
X1867579Y2467614D01*
X1862000Y2434135D01*
X1859210Y2423906D01*
X1857350Y2416466D01*
X1852700Y2389497D01*
X1849910Y2379268D01*
X1848050Y2371828D01*
X1845260Y2350439D01*
X1843400Y2342999D01*
X1840610Y2332770D01*
X1838750Y2325330D01*
X1836891Y2306730D01*
X1835031Y2301151D01*
X1831311Y2288131D01*
X1829451Y2275112D01*
X1826661Y2259303D01*
X1823871Y2249073D01*
X1822011Y2241633D01*
X1817361Y2212804D01*
X1814571Y2202575D01*
X1812712Y2195135D01*
X1808062Y2168166D01*
X1805272Y2157937D01*
X1803412Y2150497D01*
X1800622Y2129108D01*
X1798762Y2121668D01*
X1795972Y2111439D01*
X1794112Y2103999D01*
X1792252Y2085399D01*
X1790392Y2079820D01*
X1786673Y2066800D01*
X1784813Y2053781D01*
X1782023Y2037972D01*
X1779233Y2027742D01*
X1777373Y2020302D01*
X1775513Y2007283D01*
X1772723Y1991473D01*
X1769933Y1981244D01*
X1768073Y1973804D01*
X1763424Y1946835D01*
X1760634Y1936605D01*
X1758774Y1929166D01*
X1755984Y1907777D01*
X1753194Y1901267D01*
X1744824Y1898477D01*
X1561622Y1899407D01*
X1562552Y1918936D01*
X1566272Y1920796D01*
X1569061Y1931026D01*
X1570921Y1949625D01*
X1572781Y1957065D01*
X1575571Y1967294D01*
X1577431Y1974734D01*
X1579291Y1985894D01*
X1583011Y2006353D01*
X1584871Y2013793D01*
X1587661Y2024022D01*
X1590451Y2045411D01*
X1592311Y2052851D01*
X1595100Y2063080D01*
X1596960Y2070520D01*
X1599750Y2091909D01*
X1604400Y2107719D01*
X1606260Y2120738D01*
X1609050Y2136547D01*
X1610910Y2143987D01*
X1613700Y2154217D01*
X1615560Y2167236D01*
X1618350Y2183046D01*
X1621139Y2193275D01*
X1622999Y2200715D01*
X1627649Y2227684D01*
X1630439Y2237913D01*
X1632299Y2245353D01*
X1635089Y2266742D01*
X1636949Y2274182D01*
X1639739Y2284411D01*
X1641598Y2291851D01*
X1644388Y2313240D01*
X1649038Y2329050D01*
X1650898Y2342069D01*
X1653688Y2357878D01*
X1656478Y2368108D01*
X1658338Y2375548D01*
X1660198Y2388567D01*
X1662988Y2404376D01*
X1665777Y2414606D01*
X1667638Y2422046D01*
X1672287Y2449015D01*
X1675077Y2459244D01*
X1676937Y2466684D01*
X1679727Y2488073D01*
X1681587Y2495513D01*
X1684377Y2502023D01*
X1689027Y2506672D01*
X1808062D01*
X1873159Y2504812D01*
D02*
G37*
G36*
X2074031Y2506672D02*
X2075891D01*
X2083331Y2504812D01*
X2100070Y2502953D01*
X2116809Y2495513D01*
X2124249Y2493653D01*
X2129829Y2488073D01*
X2137268Y2486213D01*
X2144708Y2478774D01*
X2148428Y2476914D01*
X2165167Y2460174D01*
X2168887Y2458314D01*
X2183767Y2443435D01*
X2187486Y2441575D01*
X2204226Y2424836D01*
X2207946Y2422976D01*
X2224685Y2406236D01*
X2228405Y2404376D01*
X2252584Y2380198D01*
X2256304Y2378338D01*
X2273043Y2361598D01*
X2276763Y2359738D01*
X2280483Y2354159D01*
X2284202Y2352299D01*
X2300942Y2335559D01*
X2304662Y2333699D01*
X2313961Y2324400D01*
X2317681Y2322540D01*
X2341860Y2298361D01*
X2345580Y2296501D01*
X2362319Y2279762D01*
X2365109Y2278832D01*
X2366969Y2275112D01*
X2373479Y2270462D01*
X2395798Y2248143D01*
X2399518Y2246283D01*
X2408817Y2236983D01*
X2412537Y2235124D01*
X2431136Y2216524D01*
X2434856Y2214664D01*
X2436716Y2210945D01*
X2440436Y2209084D01*
X2449736Y2199785D01*
X2452526Y2198855D01*
X2454385Y2195135D01*
X2457175Y2192345D01*
X2460895Y2190485D01*
X2485074Y2166306D01*
X2488794Y2164446D01*
X2505533Y2147707D01*
X2509253Y2145847D01*
X2511113Y2142127D01*
X2514833Y2140267D01*
X2525993Y2129108D01*
X2529712Y2127248D01*
X2546452Y2110509D01*
X2550172Y2108649D01*
X2552031Y2104929D01*
X2555751Y2103069D01*
X2574351Y2084470D01*
X2577140Y2083540D01*
X2579000Y2079820D01*
X2581790Y2077030D01*
X2589230Y2078890D01*
X2591090Y2086330D01*
X2593880Y2096559D01*
X2595740Y2103999D01*
X2597600Y2117018D01*
X2600390Y2129108D01*
X2605039Y2144917D01*
X2608759Y2169096D01*
X2612479Y2178396D01*
X2616199Y2204435D01*
X2621779Y2223034D01*
X2623639Y2230474D01*
X2626429Y2248143D01*
X2631078Y2263952D01*
X2632938Y2276972D01*
X2637588Y2296501D01*
X2640378Y2306730D01*
X2642238Y2319750D01*
X2644098Y2330909D01*
X2647818Y2340209D01*
X2649677Y2353229D01*
X2651537Y2360668D01*
X2654327Y2374618D01*
X2657117Y2384847D01*
X2658977Y2392287D01*
X2661767Y2409956D01*
X2666417Y2425766D01*
X2668277Y2438785D01*
X2671067Y2450875D01*
X2672927Y2458314D01*
X2675717Y2468544D01*
X2677577Y2475984D01*
X2679436Y2492723D01*
X2685946Y2504812D01*
X2693386Y2506672D01*
X2871939Y2504812D01*
X2874728Y2496443D01*
X2872869Y2490863D01*
X2870079Y2478774D01*
X2866359Y2463894D01*
X2862639Y2439715D01*
X2860779Y2432276D01*
X2857989Y2422046D01*
X2854269Y2396007D01*
X2850549Y2382987D01*
X2848690Y2375548D01*
X2846829Y2362528D01*
X2844040Y2348579D01*
X2842180Y2341139D01*
X2839390Y2330909D01*
X2837530Y2312310D01*
X2835670Y2304871D01*
X2831950Y2291851D01*
X2830090Y2284411D01*
X2827300Y2264882D01*
X2825440Y2257443D01*
X2822650Y2247213D01*
X2818931Y2221174D01*
X2817071Y2213734D01*
X2813351Y2200715D01*
X2811491Y2187695D01*
X2808701Y2171886D01*
X2805911Y2161656D01*
X2804051Y2154217D01*
X2802191Y2141197D01*
X2799402Y2127248D01*
X2796612Y2117018D01*
X2794752Y2109578D01*
X2792892Y2090979D01*
X2791032Y2083540D01*
X2787312Y2070520D01*
X2785452Y2063080D01*
X2782662Y2041691D01*
X2780802Y2034252D01*
X2778012Y2025882D01*
X2776152Y2012862D01*
X2773362Y1997053D01*
X2771503Y1989613D01*
X2768713Y1979384D01*
X2766853Y1966364D01*
X2763133Y1957065D01*
X2753833Y1940326D01*
X2750113Y1936605D01*
X2748254Y1932886D01*
X2732444Y1917076D01*
X2723145Y1911497D01*
X2719425Y1907777D01*
X2707335Y1903127D01*
X2704545Y1900337D01*
X2682226Y1894757D01*
X2679436Y1891968D01*
X2678506Y1889178D01*
X2597600Y1890107D01*
X2595740Y1893827D01*
X2585510Y1896617D01*
X2565981Y1901267D01*
X2563191Y1904057D01*
X2555751Y1905917D01*
X2527852Y1920796D01*
X2524133Y1924516D01*
X2520413Y1926376D01*
X2512973Y1933816D01*
X2509253Y1935676D01*
X2501814Y1943115D01*
X2498094Y1944975D01*
X2485074Y1957995D01*
X2481354Y1959855D01*
X2473915Y1967294D01*
X2470195Y1969154D01*
X2460895Y1978454D01*
X2457175Y1980314D01*
X2447876Y1989613D01*
X2445086Y1990543D01*
X2443226Y1994263D01*
X2436716Y1998913D01*
X2431136Y2004493D01*
X2427417Y2006353D01*
X2419977Y2013793D01*
X2416257Y2015652D01*
X2408817Y2023092D01*
X2405098Y2024952D01*
X2397658Y2032392D01*
X2393938Y2034252D01*
X2369759Y2058431D01*
X2366039Y2060291D01*
X2362319Y2065870D01*
X2358599Y2067730D01*
X2332560Y2093769D01*
X2328841Y2095629D01*
X2302802Y2121668D01*
X2299082Y2123528D01*
X2282342Y2140267D01*
X2278623Y2142127D01*
X2245144Y2175606D01*
X2241424Y2177466D01*
X2237704Y2183046D01*
X2233984Y2184905D01*
X2207946Y2210945D01*
X2204226Y2212804D01*
X2200506Y2218384D01*
X2196786Y2220244D01*
X2081471Y2335559D01*
X2073101Y2334629D01*
X2071241Y2327190D01*
X2068451Y2307661D01*
X2066591Y2300221D01*
X2063801Y2289991D01*
X2061942Y2276972D01*
X2059152Y2261162D01*
X2057292Y2253723D01*
X2054502Y2243493D01*
X2052642Y2230474D01*
X2049852Y2214664D01*
X2047062Y2204435D01*
X2045202Y2196995D01*
X2043342Y2183976D01*
X2040552Y2170026D01*
X2037762Y2159797D01*
X2035902Y2152357D01*
X2034043Y2133757D01*
X2032183Y2126318D01*
X2028463Y2113298D01*
X2026603Y2105859D01*
X2023813Y2084470D01*
X2019163Y2068660D01*
X2017303Y2055641D01*
X2014513Y2039831D01*
X2012654Y2032392D01*
X2009864Y2022162D01*
X2008004Y2009143D01*
X2005214Y1993333D01*
X2002424Y1983104D01*
X2000564Y1975664D01*
X1998704Y1962645D01*
X1995914Y1948695D01*
X1992194Y1933816D01*
X1990334Y1922656D01*
X1986615Y1902197D01*
X1977315Y1898477D01*
X1804342Y1900337D01*
X1801552Y1906847D01*
X1803412Y1912426D01*
X1806202Y1924516D01*
X1808992Y1934746D01*
X1810852Y1942185D01*
X1813642Y1963574D01*
X1815502Y1971014D01*
X1818291Y1981244D01*
X1820151Y1994263D01*
X1822941Y2010073D01*
X1824801Y2017512D01*
X1827591Y2027742D01*
X1829451Y2040761D01*
X1832241Y2058431D01*
X1836891Y2074240D01*
X1838750Y2092839D01*
X1846190Y2122598D01*
X1850840Y2149567D01*
X1854560Y2164446D01*
X1859210Y2195135D01*
X1861070Y2200715D01*
X1864790Y2215594D01*
X1867579Y2236983D01*
X1872229Y2252793D01*
X1874089Y2265812D01*
X1876879Y2283482D01*
X1879669Y2293711D01*
X1881529Y2301151D01*
X1883389Y2314170D01*
X1886179Y2329980D01*
X1888969Y2340209D01*
X1890828Y2347649D01*
X1892688Y2366248D01*
X1894548Y2373688D01*
X1898268Y2386707D01*
X1900128Y2394147D01*
X1902918Y2406236D01*
X1914077Y2428555D01*
X1923377Y2443435D01*
X1926167Y2446225D01*
X1928027Y2449945D01*
X1954996Y2476914D01*
X1964296Y2482493D01*
X1981035Y2491793D01*
X1990334Y2495513D01*
X2008004Y2502023D01*
X2018233Y2504812D01*
X2056362Y2507602D01*
X2074031Y2506672D01*
D02*
G37*
G36*
X7013990Y2270462D02*
X7732851Y2271392D01*
X7736571Y2269532D01*
X7737501Y2263022D01*
X7735641Y2253723D01*
X7733781Y2246283D01*
X7730991Y2236053D01*
X7729131Y2217454D01*
X7721691Y2187695D01*
X7717042Y2158867D01*
X7713322Y2149567D01*
X7709602Y2143987D01*
X7702162Y2142127D01*
X7693793Y2143057D01*
X7179523Y2142127D01*
X7173944Y2143987D01*
X7168364Y2142127D01*
X7159994Y2137477D01*
X7158134Y2124458D01*
X7155344Y2108649D01*
X7150695Y2092839D01*
X7146045Y2065870D01*
X7144185Y2058431D01*
X7141395Y2048201D01*
X7143255Y2033322D01*
X7896524Y2031462D01*
X7898384Y2024022D01*
X7894664Y2014722D01*
X7891874Y2002633D01*
X7888155Y1978454D01*
X7882575Y1956135D01*
X7880715Y1941255D01*
X7878855Y1931956D01*
X7876995Y1924516D01*
X7874205Y1914286D01*
X7871415Y1900337D01*
X7865836Y1898477D01*
X7531049D01*
X6922854Y1900337D01*
X6920064Y1904987D01*
X6923784Y1914286D01*
X6925644Y1921726D01*
X6928434Y1943115D01*
X6931224Y1953345D01*
X6934943Y1968224D01*
X6936803Y1986824D01*
X6938663Y1992403D01*
X6942383Y2005423D01*
X6944243Y2018442D01*
X6947033Y2034252D01*
X6949823Y2044481D01*
X6951683Y2051921D01*
X6956333Y2080750D01*
X6959122Y2090979D01*
X6960982Y2098419D01*
X6965632Y2125388D01*
X6968422Y2135618D01*
X6970282Y2143057D01*
X6973072Y2164446D01*
X6974932Y2171886D01*
X6977722Y2182116D01*
X6979582Y2189555D01*
X6982372Y2210945D01*
X6987021Y2226754D01*
X6991671Y2255583D01*
X6995391Y2264882D01*
X6999111Y2270462D01*
X7008410Y2272322D01*
X7013990Y2270462D01*
D02*
G37*
G36*
X7961622Y2505743D02*
X7960692Y2489933D01*
X7956972Y2488073D01*
X7954182Y2477844D01*
X7952322Y2464824D01*
X7949532Y2450875D01*
X7944882Y2435065D01*
X7942093Y2417396D01*
X7940233Y2409956D01*
X7935583Y2394147D01*
X7933723Y2382987D01*
X7930933Y2380198D01*
X6733142D01*
X6110067Y2378338D01*
X6107277Y2375548D01*
X6105417Y2356949D01*
X6103557Y2349509D01*
X6101697Y2338349D01*
X6099837Y2332770D01*
X6096118Y2317890D01*
X6094258Y2299291D01*
X6092398Y2293711D01*
X6088678Y2280692D01*
X6084028Y2253723D01*
X6080308Y2238843D01*
X6078448Y2227684D01*
X6074728Y2207225D01*
X6071939Y2196995D01*
X6070079Y2189555D01*
X6067289Y2168166D01*
X6064499Y2157937D01*
X6060779Y2143057D01*
X6058919Y2124458D01*
X6057059Y2118878D01*
X6053339Y2105859D01*
X6051479Y2092839D01*
X6048689Y2077030D01*
X6045900Y2066800D01*
X6044040Y2059361D01*
X6042180Y2046341D01*
X6039390Y2032392D01*
X6038460Y2029602D01*
X6043110Y2024952D01*
X6052409Y2023092D01*
X6057989Y2024952D01*
X6880076Y2023092D01*
X6882866Y2020302D01*
X6880076Y2000773D01*
X6876356Y1985894D01*
X6873566Y1975664D01*
X6870776Y1954275D01*
X6867986Y1944045D01*
X6864266Y1929166D01*
X6861476Y1909637D01*
X6857757Y1900337D01*
X6850317Y1898477D01*
X5883156Y1900337D01*
X5862697Y1911497D01*
X5846888Y1923586D01*
X5845028Y1927306D01*
X5841308Y1931026D01*
X5837588Y1940326D01*
X5835728Y1970084D01*
X5837588Y1983104D01*
X5839448Y2001703D01*
X5843168Y2011003D01*
X5845028Y2024022D01*
X5846888Y2031462D01*
X5848748Y2048201D01*
X5852467Y2057501D01*
X5856187Y2083540D01*
X5858977Y2093769D01*
X5862697Y2108649D01*
X5864557Y2123528D01*
X5866417Y2132828D01*
X5868277Y2140267D01*
X5871067Y2150497D01*
X5872927Y2163516D01*
X5875716Y2179326D01*
X5878506Y2189555D01*
X5880366Y2196995D01*
X5882226Y2210014D01*
X5885016Y2225824D01*
X5889666Y2241633D01*
X5892456Y2263022D01*
X5894316Y2270462D01*
X5897106Y2280692D01*
X5898966Y2288131D01*
X5901755Y2309520D01*
X5904545Y2319750D01*
X5908265Y2334629D01*
X5910125Y2353229D01*
X5911985Y2358808D01*
X5915705Y2371828D01*
X5917565Y2384847D01*
X5920355Y2400657D01*
X5925004Y2416466D01*
X5928724Y2433205D01*
X5934304Y2442505D01*
X5941744Y2455524D01*
X5951043Y2468544D01*
X5954763Y2472264D01*
X5956623Y2475984D01*
X5963133Y2480634D01*
X5968713Y2486213D01*
X5978012Y2491793D01*
X6002191Y2502953D01*
X6015211Y2504812D01*
X6039390Y2506672D01*
X7961622Y2505743D01*
D02*
G37*
G36*
X5806899Y2504812D02*
X5812479Y2502953D01*
X5819919Y2501093D01*
X5832938Y2495513D01*
X5842238Y2489933D01*
X5855257Y2480634D01*
X5863627Y2472264D01*
X5865487Y2468544D01*
X5869207Y2464824D01*
X5872927Y2455524D01*
X5874787Y2431345D01*
X5871997Y2402517D01*
X5866417Y2380198D01*
X5864557Y2370898D01*
X5862697Y2356019D01*
X5860837Y2348579D01*
X5858047Y2338349D01*
X5856187Y2330909D01*
X5854327Y2312310D01*
X5852467Y2304871D01*
X5848748Y2291851D01*
X5846888Y2284411D01*
X5844098Y2264882D01*
X5842238Y2257443D01*
X5839448Y2247213D01*
X5837588Y2234193D01*
X5834798Y2218384D01*
X5832008Y2208155D01*
X5830148Y2200715D01*
X5828288Y2187695D01*
X5825498Y2173746D01*
X5823639Y2166306D01*
X5820849Y2156077D01*
X5818989Y2137477D01*
X5817129Y2130038D01*
X5813409Y2117018D01*
X5811549Y2109578D01*
X5809689Y2090979D01*
X5805969Y2077960D01*
X5802250Y2063080D01*
X5799460Y2043551D01*
X5797600Y2036111D01*
X5794810Y2025882D01*
X5792950Y2012862D01*
X5790160Y1997053D01*
X5787370Y1986824D01*
X5785510Y1979384D01*
X5783650Y1966364D01*
X5780860Y1952415D01*
X5779000Y1944975D01*
X5776210Y1934746D01*
X5774351Y1916147D01*
X5772491Y1908707D01*
X5767841Y1900337D01*
X5760401Y1898477D01*
X5589288Y1900337D01*
X5586498Y1904987D01*
X5588358Y1910567D01*
X5591148Y1922656D01*
X5593938Y1932886D01*
X5597658Y1958925D01*
X5603237Y1977524D01*
X5605098Y1990543D01*
X5607887Y2006353D01*
X5610677Y2016582D01*
X5612537Y2024022D01*
X5614397Y2037041D01*
X5617187Y2050991D01*
X5619047Y2058431D01*
X5621837Y2068660D01*
X5626487Y2095629D01*
X5630206Y2110509D01*
X5632996Y2135618D01*
X5631136Y2141197D01*
X5622767Y2143987D01*
X5615327Y2142127D01*
X5110358Y2143057D01*
X5105708Y2142127D01*
X5103848D01*
X5095478Y2146777D01*
X5097338Y2174676D01*
X5099198Y2180256D01*
X5102918Y2193275D01*
X5104778Y2200715D01*
X5106638Y2219314D01*
X5108498Y2224894D01*
X5112218Y2237913D01*
X5114077Y2250933D01*
X5115937Y2258372D01*
X5120587Y2263022D01*
X5658105Y2264882D01*
X5660895Y2267672D01*
X5666475Y2289991D01*
X5668335Y2308591D01*
X5670195Y2316030D01*
X5673915Y2329050D01*
X5677635Y2355089D01*
X5679494Y2362528D01*
X5677635Y2375548D01*
X5674845Y2378338D01*
X5667405Y2380198D01*
X5046190Y2382057D01*
X5045260Y2390427D01*
X5048980Y2399727D01*
X5052700Y2425766D01*
X5055490Y2437855D01*
X5058280Y2448085D01*
X5060139Y2455524D01*
X5062929Y2476914D01*
X5064789Y2484353D01*
X5067579Y2494583D01*
X5069439Y2502023D01*
X5074089Y2506672D01*
X5806899Y2504812D01*
D02*
G37*
D10*
X2317650Y9760000D02*
D03*
X2444650D02*
D03*
X2571650D02*
D03*
X2698650D02*
D03*
X2825650D02*
D03*
X2952650D02*
D03*
X3079650D02*
D03*
X3206650D02*
D03*
X3333650D02*
D03*
X3460650D02*
D03*
X3587650D02*
D03*
X3714650D02*
D03*
X3841650D02*
D03*
X3968650D02*
D03*
X4095650D02*
D03*
X4222650D02*
D03*
X4349650D02*
D03*
X4476650D02*
D03*
X4603650D02*
D03*
X4730650D02*
D03*
X4857650D02*
D03*
X4984650D02*
D03*
X5111650D02*
D03*
X5238650D02*
D03*
X5492650D02*
D03*
X5619650D02*
D03*
X5746650D02*
D03*
X5873650D02*
D03*
X6000650D02*
D03*
X6127650D02*
D03*
X6254650D02*
D03*
X6381650D02*
D03*
X6508650D02*
D03*
X6635650D02*
D03*
X6762650D02*
D03*
X6889650D02*
D03*
X7016650D02*
D03*
X7143650D02*
D03*
X7270650D02*
D03*
D11*
X4969332Y6532004D02*
Y7379332D01*
X4970000Y7380000D01*
X4968664Y6531336D02*
X4969332Y6532004D01*
X8826500Y3619500D02*
X9100000Y3893000D01*
X8877415Y4763200D02*
X9100000Y4540615D01*
Y3893000D02*
Y4540615D01*
X8826500Y3365500D02*
X9250000Y3789000D01*
Y4644615D01*
X8877415Y5017200D02*
X9250000Y4644615D01*
X6062950Y9272950D02*
Y9493200D01*
X5950000Y7850000D02*
Y9160000D01*
X6062950Y9272950D01*
X5950000Y7850000D02*
X6460000Y7340000D01*
X6000675Y9410025D02*
X6000700Y9410000D01*
X6000675Y9410025D02*
Y9759975D01*
X6000650Y9760000D02*
X6000675Y9759975D01*
X6062950Y9493200D02*
X6127650Y9557900D01*
X6130000Y8856000D02*
Y9220000D01*
X6127650Y9557900D02*
Y9760000D01*
X6254650D02*
X6254675Y9759975D01*
Y9410025D02*
X6254700Y9410000D01*
X6254675Y9410025D02*
Y9759975D01*
X6460000Y5840000D02*
X7282800Y5017200D01*
X8877415D01*
X6300000Y5900000D02*
X7436800Y4763200D01*
X8877415D01*
X6300000Y5900000D02*
Y6000000D01*
X5970000Y5780000D02*
Y6340000D01*
Y5780000D02*
X7494800Y4255200D01*
X5811450Y7828550D02*
X6300000Y7340000D01*
X5619650Y7860350D02*
Y9760000D01*
Y7860350D02*
X6140000Y7340000D01*
X5811450Y7828550D02*
Y9495700D01*
X6140000Y5850000D02*
X7480800Y4509200D01*
X6140000Y5850000D02*
Y6160000D01*
X5240000Y7158035D02*
Y7160000D01*
Y7158035D02*
X6618835Y5779200D01*
X8700200D01*
X6390000Y8088000D02*
Y9000000D01*
X6510000Y7700000D02*
Y8860000D01*
X6240000Y8500000D02*
Y9130000D01*
X5811450Y9495700D02*
X5873650Y9557900D01*
X5100000Y7490000D02*
X6556800Y6033200D01*
X8700200D01*
X7480800Y4509200D02*
X8877415D01*
X5873650Y9557900D02*
Y9760000D01*
X8877415Y4509200D02*
X8952800Y4433815D01*
X8826500Y3873500D02*
X8952800Y3999800D01*
Y4433815D01*
X7494800Y4255200D02*
X8698800D01*
X8826500Y4127500D01*
X5492650Y7817350D02*
X5970000Y7340000D01*
X5492650Y7817350D02*
Y9760000D01*
X4603650Y8466350D02*
Y9760000D01*
Y8466350D02*
X6666815Y6403185D01*
X7103185D01*
X4860000Y7940000D02*
X6512800Y6287200D01*
X8700200D01*
X5810000Y4680000D02*
Y6480000D01*
X5746675Y9410025D02*
X5746700Y9410000D01*
X5746675Y9410025D02*
Y9759975D01*
X5746650Y9760000D02*
X5746675Y9759975D01*
X5620000Y5130000D02*
Y6680000D01*
X5490000Y5500000D02*
Y6800000D01*
X5090000Y6130000D02*
Y7250000D01*
X5176450Y9343550D02*
X5240000Y9280000D01*
Y7990000D02*
Y9280000D01*
X5176450Y9343550D02*
Y9495700D01*
X5111650Y8141650D02*
Y9760000D01*
X5110000Y8140000D02*
X5111650Y8141650D01*
X4984675Y9410025D02*
X4984700Y9410000D01*
X4984675Y9410025D02*
Y9759975D01*
X4860000Y6890000D02*
Y7520000D01*
X4730000Y7260000D02*
Y7680000D01*
X4476675Y9410025D02*
X4476700Y9410000D01*
X4476650Y9760000D02*
X4476675Y9759975D01*
Y9410025D02*
Y9759975D01*
X8700200Y5779200D02*
X8826500Y5905500D01*
X8700200Y6033200D02*
X8826500Y6159500D01*
X5176450Y9495700D02*
X5238650Y9557900D01*
Y9760000D01*
X8700200Y6287200D02*
X8826500Y6413500D01*
X7241200Y6541200D02*
X8700200D01*
X8826500Y6667500D01*
X7103185Y6403185D02*
X7241200Y6541200D01*
X4858825Y8391175D02*
Y9758825D01*
X4857650Y9760000D02*
X4858825Y9758825D01*
Y8391175D02*
X4860000Y8390000D01*
X6880000Y6590000D02*
Y8480000D01*
X6770000Y6950000D02*
Y8590000D01*
X6640000Y7310000D02*
Y8730000D01*
X4222650Y5365650D02*
Y9760000D01*
X1079500Y2222500D02*
X4222650Y5365650D01*
X1079500Y2476500D02*
X4095650Y5492650D01*
X1079500Y2730500D02*
X3968650Y5619650D01*
Y9760000D01*
X4095650Y5492650D02*
Y9760000D01*
X3714650Y5873650D02*
Y9760000D01*
X3841650Y5746650D02*
Y9760000D01*
X1079500Y2984500D02*
X3841650Y5746650D01*
X1079500Y3238500D02*
X3714650Y5873650D01*
X3460000Y6127000D02*
Y9280000D01*
X1079500Y3746500D02*
X3460000Y6127000D01*
X3380000Y9360000D02*
X3460000Y9280000D01*
X3380000Y9360000D02*
Y9477250D01*
X3460650Y9557900D01*
X1079500Y4000500D02*
X3333650Y6254650D01*
Y9760000D01*
X3587650Y6000650D02*
Y9760000D01*
X1079500Y3492500D02*
X3587650Y6000650D01*
X3460650Y9557900D02*
Y9760000D01*
X4349650D02*
X4349675Y9759975D01*
Y9410025D02*
Y9759975D01*
Y9410025D02*
X4349700Y9410000D01*
X1204200Y6414200D02*
X3079650Y8289650D01*
X1028585Y6414200D02*
X1204200D01*
X951800Y6337415D02*
X1028585Y6414200D01*
X951800Y6158800D02*
Y6337415D01*
X825500Y6032500D02*
X951800Y6158800D01*
X3079650Y8289650D02*
Y9760000D01*
X2952675Y9410025D02*
Y9759975D01*
X2952650Y9760000D02*
X2952675Y9759975D01*
Y9410025D02*
X2952700Y9410000D01*
X825500Y6794500D02*
Y7405500D01*
X2825650Y9405650D01*
Y9760000D01*
X4984650D02*
X4984675Y9759975D01*
X4730675Y9410025D02*
Y9759975D01*
Y9410025D02*
X4730700Y9410000D01*
X4730650Y9760000D02*
X4730675Y9759975D01*
X3206675Y9410025D02*
Y9759975D01*
X3206650Y9760000D02*
X3206675Y9759975D01*
Y9410025D02*
X3206700Y9410000D01*
X2698675Y9410025D02*
Y9759975D01*
Y9410025D02*
X2698700Y9410000D01*
X2698650Y9760000D02*
X2698675Y9759975D01*
X2317650Y9760000D02*
X2317675Y9759975D01*
Y9410025D02*
Y9759975D01*
Y9410025D02*
X2317700Y9410000D01*
D12*
X2444675Y9460025D02*
Y9759975D01*
Y9460025D02*
X2444700Y9460000D01*
X2571675Y9460025D02*
Y9759975D01*
Y9460025D02*
X2571700Y9460000D01*
X2571650Y9760000D02*
X2571675Y9759975D01*
X2444650Y9760000D02*
X2444675Y9759975D01*
X7270675Y9460025D02*
Y9759975D01*
Y9460025D02*
X7270700Y9460000D01*
X7270650Y9760000D02*
X7270675Y9759975D01*
X7143675Y9460025D02*
Y9759975D01*
Y9460025D02*
X7143700Y9460000D01*
X7143650Y9760000D02*
X7143675Y9759975D01*
D13*
X9588500Y8580500D02*
G03*
X9088500Y9080500I-500000J0D01*
G01*
X500000D02*
G03*
X0Y8580500I0J-500000D01*
G01*
X9088500Y0D02*
G03*
X9588500Y500000I0J500000D01*
G01*
X7838500Y700000D02*
G03*
X7588500Y950000I-250000J0D01*
G01*
X7838500Y250000D02*
G03*
X8088500Y0I250000J0D01*
G01*
X2000000Y950000D02*
G03*
X1750000Y700000I0J-250000D01*
G01*
X1500000Y0D02*
G03*
X1750000Y250000I-0J250000D01*
G01*
X0Y500000D02*
G03*
X500000Y0I500000J0D01*
G01*
X5228700Y10101500D02*
X5303700Y10026500D01*
X5303700D02*
X5303750Y9385500D01*
X5427700D02*
Y10026500D01*
X5502700Y10101500D01*
X5303700Y9385500D02*
X5427700D01*
X2326700Y10101500D02*
X5228700D01*
X2176700Y9951700D02*
X2326700Y10101500D01*
X7261700D02*
X7411700Y9951700D01*
X500000Y9080500D02*
X2176700D01*
X5502700Y10101500D02*
X7261700D01*
X7411700Y9080500D02*
Y9951700D01*
X2176700D02*
X2176750Y9080500D01*
X7411700D02*
X9088500D01*
X8088500Y0D02*
X9088500D01*
X2000000Y950000D02*
X7588500D01*
X7838500Y250000D02*
Y700000D01*
X1750000Y250000D02*
Y700000D01*
X9588500Y500000D02*
Y8580500D01*
X500000Y0D02*
X1500000D01*
X0Y500000D02*
Y8580500D01*
D14*
X8826500Y2095500D02*
D03*
X8572500D02*
D03*
X8826500Y2349500D02*
D03*
X8572500D02*
D03*
X8826500Y2603500D02*
D03*
X8572500D02*
D03*
X8826500Y2857500D02*
D03*
X8572500D02*
D03*
X8826500Y3111500D02*
D03*
X8572500D02*
D03*
X8826500Y3365500D02*
D03*
X8572500D02*
D03*
X8826500Y3619500D02*
D03*
X8572500D02*
D03*
X8826500Y3873500D02*
D03*
X8572500D02*
D03*
X8826500Y4127500D02*
D03*
X8572500D02*
D03*
X8826500Y4381500D02*
D03*
X8572500D02*
D03*
X8826500Y4635500D02*
D03*
X8572500D02*
D03*
X8826500Y4889500D02*
D03*
X8572500D02*
D03*
X8826500Y5143500D02*
D03*
X8572500D02*
D03*
X8826500Y5397500D02*
D03*
X8572500D02*
D03*
X8826500Y5651500D02*
D03*
X8572500D02*
D03*
X8826500Y5905500D02*
D03*
X8572500D02*
D03*
X8826500Y6159500D02*
D03*
X8572500D02*
D03*
X8826500Y6413500D02*
D03*
X8572500D02*
D03*
X8826500Y6667500D02*
D03*
X8572500D02*
D03*
X8826500Y6921500D02*
D03*
X1079500Y1968500D02*
D03*
X825500D02*
D03*
X1079500Y2222500D02*
D03*
X825500D02*
D03*
X1079500Y2476500D02*
D03*
X825500D02*
D03*
X1079500Y2730500D02*
D03*
X825500D02*
D03*
X1079500Y2984500D02*
D03*
X825500D02*
D03*
X1079500Y3238500D02*
D03*
X825500D02*
D03*
X1079500Y3492500D02*
D03*
X825500D02*
D03*
X1079500Y3746500D02*
D03*
X825500D02*
D03*
X1079500Y4000500D02*
D03*
X825500D02*
D03*
X1079500Y4254500D02*
D03*
X825500D02*
D03*
X1079500Y4508500D02*
D03*
X825500D02*
D03*
X1079500Y4762500D02*
D03*
X825500D02*
D03*
X1079500Y5016500D02*
D03*
X825500D02*
D03*
X1079500Y5270500D02*
D03*
X825500D02*
D03*
X1079500Y5524500D02*
D03*
X825500D02*
D03*
X1079500Y5778500D02*
D03*
X825500D02*
D03*
X1079500Y6032500D02*
D03*
X825500D02*
D03*
X1079500Y6286500D02*
D03*
X825500D02*
D03*
X1079500Y6540500D02*
D03*
X825500D02*
D03*
X1079500Y6794500D02*
D03*
D15*
X8572500Y6921500D02*
D03*
X825500Y6794500D02*
D03*
D16*
X4968664Y6531336D02*
D03*
X6000700Y9410000D02*
D03*
X6130000Y9220000D02*
D03*
X6254700Y9410000D02*
D03*
X6460000Y7340000D02*
D03*
Y5840000D02*
D03*
X5970000Y6340000D02*
D03*
X6300000Y6000000D02*
D03*
Y7340000D02*
D03*
X6140000D02*
D03*
Y6160000D02*
D03*
X6390000Y8088000D02*
D03*
X6130000Y8856000D02*
D03*
X6240000Y9130000D02*
D03*
X6390000Y9000000D02*
D03*
X6240000Y8500000D02*
D03*
X6510000Y8860000D02*
D03*
X5970000Y7340000D02*
D03*
X5810000Y4680000D02*
D03*
Y6480000D02*
D03*
X5873700Y9410000D02*
D03*
X5746700D02*
D03*
X5620000Y6680000D02*
D03*
X5490000Y6800000D02*
D03*
X5620000Y5130000D02*
D03*
X5490000Y5500000D02*
D03*
X5240000Y7160000D02*
D03*
X5090000Y7250000D02*
D03*
X5240000Y7990000D02*
D03*
X5100000Y7490000D02*
D03*
X4970000Y7380000D02*
D03*
X5110000Y8140000D02*
D03*
X4984700Y9410000D02*
D03*
X5090000Y6130000D02*
D03*
X4860000Y7520000D02*
D03*
Y6890000D02*
D03*
X4730000Y7260000D02*
D03*
Y7680000D02*
D03*
X4860000Y7940000D02*
D03*
X4476700Y9410000D02*
D03*
X4860000Y8390000D02*
D03*
X6880000Y6590000D02*
D03*
Y8480000D02*
D03*
X6770000Y6950000D02*
D03*
Y8590000D02*
D03*
X6640000Y8730000D02*
D03*
Y7310000D02*
D03*
X6510000Y7700000D02*
D03*
X5238700Y9410000D02*
D03*
X7016700D02*
D03*
X3457750D02*
D03*
X4349700D02*
D03*
X2952700D02*
D03*
X4730700D02*
D03*
X3206700D02*
D03*
X2698700D02*
D03*
X2317700D02*
D03*
D17*
X2444700Y9460000D02*
D03*
X2571700D02*
D03*
X7270700D02*
D03*
X7143700D02*
D03*
%TF.MD5,610f6cb6a84b81296b24af47e556d7f4*%
M02*
