%TF.GenerationSoftware,Altium Limited,Altium Designer,22.11.1 (43)*%
G04 Layer_Color=65535*
%FSLAX45Y45*%
%MOMM*%
%TF.SameCoordinates,C297AA42-F212-4987-B5A2-20FF98F52B47*%
%TF.FilePolarity,Positive*%
%TF.FileFunction,Legend,Top*%
%TF.Part,Single*%
G01*
G75*
%TA.AperFunction,NonConductor*%
%ADD18C,0.20000*%
%ADD19C,0.40000*%
%ADD20C,0.50800*%
G36*
X6177954Y4462383D02*
X6181674Y4440064D01*
X6183534Y4432624D01*
X6188184Y4383336D01*
X6190044Y4372177D01*
X6191904Y4364737D01*
X6195623Y4361017D01*
X6224452Y4358227D01*
X6246771Y4354507D01*
X6265371Y4352647D01*
X6296989Y4350788D01*
X6302569Y4348928D01*
X6300709Y4345208D01*
X6290480Y4342418D01*
X6245841Y4336838D01*
X6244912Y4335908D01*
X6203993Y4332188D01*
X6196554Y4330328D01*
X6192834Y4326609D01*
X6189114Y4313589D01*
X6187254Y4300570D01*
X6182604Y4255001D01*
X6180744Y4243842D01*
X6178884Y4234542D01*
X6176094Y4228032D01*
X6173304Y4225243D01*
X6170514Y4228032D01*
X6168655Y4252211D01*
X6166795Y4270811D01*
X6164935Y4294990D01*
X6163075Y4300570D01*
X6161215Y4313589D01*
X6158425Y4325678D01*
X6154705Y4331258D01*
X6136106Y4333118D01*
X6105417Y4335908D01*
X6094258Y4337768D01*
X6079378Y4339628D01*
X6055199Y4343348D01*
X6048689Y4346138D01*
X6047760Y4347068D01*
X6050549Y4349857D01*
X6057989Y4351717D01*
X6102627Y4353577D01*
X6108207Y4355437D01*
X6125876Y4358227D01*
X6140756Y4360087D01*
X6157495Y4361947D01*
X6159355Y4367527D01*
X6165865Y4407515D01*
X6167725Y4433554D01*
X6169585Y4455873D01*
X6171444Y4465173D01*
X6173304Y4467033D01*
X6177954Y4462383D01*
D02*
G37*
G36*
X2748254Y4326609D02*
X2751973Y4311729D01*
X2755693Y4285690D01*
X2760343Y4238262D01*
X2764063Y4215943D01*
X2765923Y4201063D01*
X2767783Y4193624D01*
X2773362Y4191764D01*
X2809631Y4187114D01*
X2818931Y4185254D01*
X2833810Y4183394D01*
X2857989Y4181534D01*
X2878448Y4179674D01*
X2889608Y4177815D01*
X2898907Y4174095D01*
X2897977Y4169445D01*
X2890538Y4167585D01*
X2877518Y4165725D01*
X2839390Y4162935D01*
X2815211Y4159215D01*
X2790102Y4156425D01*
X2769643Y4152705D01*
X2766853Y4149916D01*
X2762203Y4119227D01*
X2760343Y4108067D01*
X2758483Y4091328D01*
X2756623Y4067149D01*
X2754763Y4050410D01*
X2752903Y4039250D01*
X2751044Y4029951D01*
X2749183Y4022511D01*
X2745464Y4016931D01*
X2742674Y4017861D01*
X2740814Y4036460D01*
X2736164Y4085748D01*
X2734304Y4095048D01*
X2732444Y4109927D01*
X2731514Y4122017D01*
Y4123877D01*
X2728724Y4147126D01*
X2723145Y4154565D01*
X2679436Y4159215D01*
X2668277Y4161075D01*
X2643168Y4163865D01*
X2608759Y4166655D01*
X2599460Y4168515D01*
X2595740Y4170375D01*
X2596670Y4175025D01*
X2609689Y4178744D01*
X2628288Y4180604D01*
X2652467Y4182464D01*
X2671067Y4184324D01*
X2678506Y4186184D01*
X2696176Y4188974D01*
X2714775Y4190834D01*
X2724075Y4192694D01*
X2727794Y4194554D01*
X2729654Y4201994D01*
X2731514Y4226173D01*
X2734304Y4249422D01*
X2738024Y4271741D01*
X2739884Y4297780D01*
X2741744Y4321959D01*
X2744534Y4328468D01*
X2745464Y4329398D01*
X2748254Y4326609D01*
D02*
G37*
G36*
X6761970Y3928585D02*
X6751741Y3925795D01*
X6737791Y3926725D01*
Y3928585D01*
X6761041Y3929515D01*
X6761970Y3928585D01*
D02*
G37*
G36*
X4001843Y3798390D02*
X4004633Y3786301D01*
X4008352Y3749102D01*
X4010212Y3745382D01*
X4017652Y3743522D01*
X4039041Y3740732D01*
X4063220Y3737012D01*
X4072520Y3735153D01*
X4078100Y3731433D01*
X4075310Y3728643D01*
X4051131Y3726783D01*
X4018582Y3723993D01*
X4012072Y3721203D01*
X4007422Y3716553D01*
X4004633Y3680285D01*
X4002773Y3672845D01*
X3999053Y3663545D01*
X3995333Y3665405D01*
X3992543Y3673775D01*
X3990683Y3686795D01*
X3987893Y3717483D01*
X3982313Y3723063D01*
X3963714Y3724923D01*
X3956275Y3726783D01*
X3920936Y3728643D01*
X3918146Y3731433D01*
X3920936Y3734222D01*
X3928376Y3736082D01*
X3941395Y3737942D01*
X3948835Y3739802D01*
X3961854Y3741662D01*
X3963714D01*
X3981383Y3744452D01*
X3987893Y3747242D01*
X3989753Y3765841D01*
X3991613Y3788160D01*
X3993473Y3797460D01*
X3997193Y3803040D01*
X4001843Y3798390D01*
D02*
G37*
G36*
X7357146Y3348288D02*
X7359936Y3336199D01*
X7362726Y3311090D01*
X7365516Y3282261D01*
X7367376Y3271101D01*
X7368306Y3270171D01*
Y3268311D01*
X7370166Y3257152D01*
X7372956Y3254362D01*
X7380395Y3252502D01*
X7393415Y3250642D01*
X7400854Y3248782D01*
X7413874Y3246922D01*
X7438053Y3245062D01*
X7464092Y3243203D01*
X7470602Y3240413D01*
X7468742Y3236693D01*
X7458512Y3233903D01*
X7451072Y3232043D01*
X7438053Y3230183D01*
X7392485Y3225533D01*
X7376675Y3222743D01*
X7372026Y3219953D01*
X7370166Y3216234D01*
X7368306Y3210654D01*
X7365516Y3192984D01*
X7363656Y3174385D01*
X7361796Y3152066D01*
X7358076Y3131607D01*
X7355286Y3125097D01*
X7352496Y3124167D01*
X7349707Y3126957D01*
X7347847Y3145557D01*
X7345987Y3152996D01*
X7344127Y3190195D01*
X7342267Y3195774D01*
X7340407Y3208794D01*
X7338547Y3216234D01*
X7333897Y3222743D01*
X7307858Y3226463D01*
X7283679Y3228323D01*
X7265080Y3230183D01*
X7257640Y3232043D01*
X7245551Y3234833D01*
X7239041Y3237623D01*
X7238111Y3240413D01*
X7246481Y3243203D01*
X7276239Y3245062D01*
X7303208Y3247852D01*
X7312508Y3249712D01*
X7334827Y3253432D01*
X7338547Y3257152D01*
X7340407Y3270171D01*
X7342267Y3277611D01*
X7344127Y3296210D01*
X7345987Y3303650D01*
X7347847Y3340849D01*
X7349707Y3346428D01*
X7351566Y3350148D01*
X7354356Y3351078D01*
X7357146Y3348288D01*
D02*
G37*
G36*
X6712683Y3922075D02*
X6715472Y3919285D01*
X6703383Y3914635D01*
X6673624Y3912775D01*
X6660605Y3907195D01*
X6647585Y3905336D01*
X6624336Y3902546D01*
X6616896Y3900686D01*
X6606667Y3897896D01*
X6593647Y3896036D01*
X6575978Y3893246D01*
X6561099Y3889526D01*
X6536920Y3885806D01*
X6527620Y3883947D01*
X6517390Y3881157D01*
X6491352Y3877437D01*
X6469032Y3871857D01*
X6456013Y3869997D01*
X6442063Y3867207D01*
X6427184Y3863487D01*
X6417885Y3861627D01*
X6397425Y3857907D01*
X6381616Y3853258D01*
X6360227Y3850468D01*
X6352787Y3848608D01*
X6342558Y3845818D01*
X6335118Y3843958D01*
X6317449Y3841168D01*
X6310009Y3839308D01*
X6299779Y3836518D01*
X6292339Y3834658D01*
X6273740Y3832799D01*
X6264441Y3829079D01*
X6257001Y3827219D01*
X6243981Y3825359D01*
X6231892Y3822569D01*
X6216083Y3817919D01*
X6203063Y3816059D01*
X6190974Y3813269D01*
X6180744Y3810480D01*
X6173304Y3808620D01*
X6160285Y3806759D01*
X6148195Y3803970D01*
X6132386Y3799320D01*
X6116577Y3796530D01*
X6109137Y3794670D01*
X6100767Y3791880D01*
X6093328Y3790020D01*
X6075658Y3787230D01*
X6059849Y3782580D01*
X6052409Y3780721D01*
X6038460Y3777931D01*
X6022650Y3773281D01*
X6009631Y3771421D01*
X5997541Y3768631D01*
X5988242Y3764911D01*
X5977082Y3763051D01*
X5967783Y3761191D01*
X5960343Y3759332D01*
X5948254Y3754682D01*
X5930584Y3751892D01*
X5909195Y3745382D01*
X5893386Y3742592D01*
X5871997Y3736082D01*
X5857117Y3734222D01*
X5844098Y3728643D01*
X5831078Y3726783D01*
X5823639Y3724923D01*
X5814339Y3721203D01*
X5799460Y3717483D01*
X5789230Y3714693D01*
X5777140Y3710044D01*
X5758541Y3708184D01*
X5745522Y3702604D01*
X5724133Y3697954D01*
X5712043Y3693304D01*
X5704604Y3691444D01*
X5691584Y3689584D01*
X5678564Y3684005D01*
X5659035Y3679355D01*
X5643226Y3674705D01*
X5635786Y3672845D01*
X5625557Y3670055D01*
X5613467Y3665405D01*
X5598588Y3663545D01*
X5585568Y3657966D01*
X5578129Y3656106D01*
X5566039Y3653316D01*
X5555810Y3648666D01*
X5536280Y3644016D01*
X5524191Y3639366D01*
X5504662Y3634717D01*
X5492572Y3630067D01*
X5478623Y3627277D01*
X5469323Y3623557D01*
X5459093Y3620767D01*
X5451654Y3618907D01*
X5438634Y3613328D01*
X5431195Y3611468D01*
X5419105Y3608678D01*
X5408875Y3604028D01*
X5396786Y3601238D01*
X5389346Y3599378D01*
X5379117Y3594728D01*
X5359587Y3590078D01*
X5349358Y3585429D01*
X5332618Y3581709D01*
X5319599Y3576129D01*
X5309369Y3573339D01*
X5299140Y3568689D01*
X5291700Y3566829D01*
X5281471Y3564039D01*
X5271241Y3559390D01*
X5263801Y3557530D01*
X5252642Y3555670D01*
X5248922Y3551950D01*
X5238692Y3549160D01*
X5229393Y3547300D01*
X5213583Y3540790D01*
X5206144Y3538930D01*
X5189404Y3531491D01*
X5178245Y3529631D01*
X5161506Y3522191D01*
X5151276Y3519401D01*
X5141046Y3514751D01*
X5133607Y3512892D01*
X5123377Y3510102D01*
X5120587Y3507312D01*
X5107568Y3503592D01*
X5090828Y3496152D01*
X5078739Y3493362D01*
X5070369Y3488713D01*
X5062929Y3486853D01*
X5050840Y3482203D01*
X5040610Y3477553D01*
X5029451Y3475693D01*
X5012712Y3468253D01*
X5005272Y3466393D01*
X5001552Y3462674D01*
X4988533Y3458954D01*
X4971793Y3451514D01*
X4964354Y3449654D01*
X4947614Y3442214D01*
X4935525Y3437565D01*
X4925295Y3432915D01*
X4915996Y3431055D01*
X4899256Y3423615D01*
X4878797Y3414315D01*
X4871357Y3412456D01*
X4867637Y3408736D01*
X4860198Y3406876D01*
X4848108Y3402226D01*
X4845318Y3399436D01*
X4835089Y3396646D01*
X4825789Y3392926D01*
X4822999Y3390136D01*
X4808120Y3386417D01*
X4798820Y3380837D01*
X4786731Y3376187D01*
X4778361Y3371537D01*
X4766272Y3366887D01*
X4756042Y3362238D01*
X4745812Y3359448D01*
X4742093Y3352008D01*
X4744882Y3349218D01*
X4819279Y3351078D01*
X4959704Y3348288D01*
X5008062Y3346428D01*
X5060139Y3344568D01*
X5140116Y3342708D01*
X5175455Y3340849D01*
X5197774Y3338988D01*
X5223813Y3337129D01*
X5257291Y3335269D01*
X5301930Y3333409D01*
X5326109Y3331549D01*
X5344708Y3329689D01*
X5359587Y3327829D01*
X5389346Y3325969D01*
X5422825Y3324109D01*
X5441424Y3322249D01*
X5466533Y3319459D01*
X5473973Y3317599D01*
X5521401Y3314809D01*
X5536280Y3312950D01*
X5561389Y3310160D01*
X5568829Y3308300D01*
X5607887Y3306440D01*
X5613467Y3304580D01*
X5631136Y3301790D01*
X5647876Y3299930D01*
X5672055Y3298070D01*
X5686934Y3296210D01*
X5696234Y3294350D01*
X5707393Y3292490D01*
X5722273Y3290630D01*
X5746452Y3288771D01*
X5768771Y3285051D01*
X5778070Y3283191D01*
X5794810Y3281331D01*
X5813409Y3279471D01*
X5824568Y3277611D01*
X5843168Y3273891D01*
X5861767Y3272031D01*
X5878506Y3270171D01*
X5893386Y3266451D01*
X5904545Y3264592D01*
X5923145Y3262732D01*
X5945464Y3259012D01*
X5952903Y3257152D01*
X5964063Y3255292D01*
X5984522Y3253432D01*
X5993822Y3251572D01*
X6008701Y3247852D01*
X6033810Y3245062D01*
X6041250Y3243203D01*
X6053339Y3240413D01*
X6060779Y3238553D01*
X6085888Y3235763D01*
X6097977Y3232973D01*
X6105417Y3231113D01*
X6114717Y3229253D01*
X6125876Y3227393D01*
X6146335Y3223673D01*
X6156565Y3220883D01*
X6189114Y3216234D01*
X6199343Y3213444D01*
X6214223Y3209724D01*
X6231892Y3206934D01*
X6242122Y3204144D01*
X6249561Y3202284D01*
X6262581Y3200424D01*
X6276530Y3197634D01*
X6292339Y3192984D01*
X6319308Y3188335D01*
X6335118Y3183685D01*
X6354647Y3180895D01*
X6370456Y3176245D01*
X6377896Y3174385D01*
X6392775Y3172525D01*
X6398355Y3170665D01*
X6407655Y3166946D01*
X6434624Y3162296D01*
X6450433Y3157646D01*
X6457873Y3155786D01*
X6470892Y3153926D01*
X6480192Y3150206D01*
X6487632Y3148346D01*
X6500651Y3146486D01*
X6524830Y3139047D01*
X6540639Y3136257D01*
X6562029Y3129747D01*
X6576908Y3127887D01*
X6589927Y3122307D01*
X6602947Y3120447D01*
X6620616Y3113938D01*
X6629916Y3112078D01*
X6641075Y3110218D01*
X6650375Y3106498D01*
X6660605Y3103708D01*
X6680134Y3099058D01*
X6692223Y3094409D01*
X6708033Y3091619D01*
X6720122Y3086969D01*
X6727562Y3085109D01*
X6739651Y3082319D01*
X6748951Y3078599D01*
X6756391Y3076739D01*
X6765690Y3074879D01*
X6773130Y3073020D01*
X6783360Y3068370D01*
X6802889Y3063720D01*
X6813118Y3059070D01*
X6828928Y3056280D01*
X6838227Y3052560D01*
X6846597Y3049770D01*
X6858687Y3046980D01*
X6865196Y3044191D01*
X6874496Y3040471D01*
X6888445Y3037681D01*
X6898675Y3033031D01*
X6906114Y3031171D01*
X6918204Y3028381D01*
X6928434Y3023731D01*
X6945173Y3020011D01*
X6958193Y3014432D01*
X6973072Y3010712D01*
X6986091Y3005132D01*
X6998181Y3002342D01*
X7013990Y2995832D01*
X7026080Y2993043D01*
X7028870Y2990253D01*
X7043749Y2986533D01*
X7067928Y2977233D01*
X7077228Y2975373D01*
X7090247Y2969794D01*
X7097687Y2967934D01*
X7114426Y2960494D01*
X7125586Y2958634D01*
X7142325Y2951194D01*
X7152555Y2948405D01*
X7160924Y2943755D01*
X7175804Y2940035D01*
X7192543Y2932595D01*
X7201843Y2930735D01*
X7218582Y2923295D01*
X7226022Y2921436D01*
X7229741Y2917716D01*
X7239971Y2914926D01*
X7247411Y2913066D01*
X7255780Y2908416D01*
X7263220Y2906556D01*
X7272520Y2902836D01*
X7285539Y2897257D01*
X7292979Y2895397D01*
X7309718Y2887957D01*
X7317158Y2886097D01*
X7333897Y2878657D01*
X7341337Y2876797D01*
X7345057Y2873078D01*
X7352496Y2871218D01*
X7361796Y2867498D01*
X7374816Y2861918D01*
X7384115Y2858198D01*
X7397135Y2852618D01*
X7406434Y2848899D01*
X7419454Y2843319D01*
X7426893Y2841459D01*
X7430613Y2837739D01*
X7448283Y2831229D01*
X7451072Y2828439D01*
X7458512Y2826579D01*
X7470602Y2821930D01*
X7480831Y2817280D01*
X7490131Y2813560D01*
X7503150Y2807980D01*
X7544069Y2789381D01*
X7560808Y2781941D01*
X7570108Y2778221D01*
X7573827Y2774501D01*
X7581267Y2772642D01*
X7590567Y2768922D01*
X7594287Y2765202D01*
X7606376Y2762412D01*
X7612886Y2757762D01*
X7622185Y2754042D01*
X7642645Y2744743D01*
X7646364Y2742883D01*
X7650084Y2739163D01*
X7667754Y2732653D01*
X7670543Y2729863D01*
X7685423Y2724284D01*
X7689143Y2720564D01*
X7699372Y2717774D01*
X7705882Y2713124D01*
X7715182Y2709404D01*
X7735641Y2700105D01*
X7739361Y2698245D01*
X7743081Y2694525D01*
X7755170Y2689875D01*
X7767260Y2683365D01*
X7813758Y2659186D01*
X7823057Y2655466D01*
X7826777Y2653606D01*
X7830497Y2649886D01*
X7845376Y2644307D01*
X7849096Y2640587D01*
X7861186Y2635937D01*
X7865836Y2631287D01*
X7877925Y2626638D01*
X7880715Y2623848D01*
X7890015Y2620128D01*
X7893735Y2618268D01*
X7897454Y2614548D01*
X7909544Y2609898D01*
X7916054Y2605248D01*
X7940233Y2592229D01*
X7943022Y2589439D01*
X7941162Y2578280D01*
X7930933Y2575490D01*
X7004691Y2577349D01*
X6993531Y2584789D01*
X6983302Y2587579D01*
X6978652Y2592229D01*
X6966562Y2596879D01*
X6958193Y2601528D01*
X6934014Y2612688D01*
X6913554Y2621988D01*
X6909835Y2623848D01*
X6878216Y2638727D01*
X6868916Y2644307D01*
X6859616Y2648027D01*
X6854037Y2649886D01*
X6844737Y2655466D01*
X6834508Y2658256D01*
X6831718Y2661046D01*
X6822418Y2664766D01*
X6810329Y2669416D01*
X6807539Y2672206D01*
X6800099Y2674066D01*
X6759181Y2692665D01*
X6753601Y2694525D01*
X6736862Y2701964D01*
X6729422Y2703824D01*
X6725702Y2707544D01*
X6708033Y2714054D01*
X6705243Y2716844D01*
X6693153Y2719634D01*
X6681064Y2726143D01*
X6673624Y2728003D01*
X6664324Y2731723D01*
X6651305Y2737303D01*
X6634566Y2744743D01*
X6627126Y2746603D01*
X6610387Y2754042D01*
X6598297Y2758692D01*
X6595507Y2761482D01*
X6575978Y2766132D01*
X6573188Y2768922D01*
X6560169Y2772642D01*
X6543429Y2780081D01*
X6535990Y2781941D01*
X6519250Y2789381D01*
X6507161Y2792171D01*
X6498791Y2796821D01*
X6491352Y2798680D01*
X6479262Y2803330D01*
X6469032Y2807980D01*
X6457873Y2809840D01*
X6441133Y2817280D01*
X6433694Y2819140D01*
X6420674Y2824720D01*
X6405795Y2828439D01*
X6392775Y2834019D01*
X6385336Y2835879D01*
X6368596Y2843319D01*
X6354647Y2846109D01*
X6344417Y2850758D01*
X6336978Y2852618D01*
X6326748Y2855408D01*
X6316518Y2860058D01*
X6309079Y2861918D01*
X6298849Y2864708D01*
X6288620Y2869358D01*
X6276530Y2872148D01*
X6266301Y2876797D01*
X6258861Y2878657D01*
X6246771Y2881447D01*
X6237472Y2885167D01*
X6229102Y2887957D01*
X6217013Y2890747D01*
X6206783Y2895397D01*
X6199343Y2897257D01*
X6188184Y2899116D01*
X6175164Y2904696D01*
X6167725Y2906556D01*
X6156565Y2908416D01*
X6143545Y2913996D01*
X6124016Y2918646D01*
X6113787Y2923295D01*
X6099837Y2926085D01*
X6090538Y2929805D01*
X6080308Y2932595D01*
X6065429Y2934455D01*
X6052409Y2940035D01*
X6044970Y2941895D01*
X6033810Y2943755D01*
X6020791Y2949334D01*
X6003121Y2952124D01*
X5981732Y2958634D01*
X5974292Y2960494D01*
X5963133Y2962354D01*
X5953833Y2966074D01*
X5946393Y2967934D01*
X5933374Y2969794D01*
X5921285Y2974443D01*
X5911055Y2977233D01*
X5896176Y2979093D01*
X5883156Y2984673D01*
X5870137Y2986533D01*
X5862697Y2988393D01*
X5844098Y2993973D01*
X5831078Y2995832D01*
X5818989Y2998622D01*
X5803179Y3003272D01*
X5790160Y3005132D01*
X5769701Y3010712D01*
X5762261Y3012572D01*
X5744592Y3015362D01*
X5728783Y3020011D01*
X5721343Y3021872D01*
X5703673Y3024661D01*
X5687864Y3029311D01*
X5680425Y3031171D01*
X5662755Y3033961D01*
X5646946Y3038611D01*
X5633926Y3040471D01*
X5621837Y3043261D01*
X5606027Y3047910D01*
X5588358Y3050700D01*
X5579058Y3052560D01*
X5568829Y3055350D01*
X5561389Y3057210D01*
X5540000Y3060000D01*
X5532560Y3061860D01*
X5522331Y3064650D01*
X5514891Y3066510D01*
X5493502Y3069299D01*
X5471183Y3074879D01*
X5452584Y3076739D01*
X5441424Y3078599D01*
X5431195Y3081389D01*
X5423755Y3083249D01*
X5389346Y3087899D01*
X5381906Y3089759D01*
X5372607Y3091619D01*
X5347498Y3094409D01*
X5334479Y3096268D01*
X5319599Y3099988D01*
X5282401Y3103708D01*
X5261011Y3108358D01*
X5249852Y3110218D01*
X5229393Y3112078D01*
X5207074Y3115798D01*
X5197774Y3117657D01*
X5186614Y3119518D01*
X5164295Y3121378D01*
X5128957Y3126957D01*
X5110358Y3128817D01*
X5070369Y3131607D01*
X5064789Y3133467D01*
X5047120Y3136257D01*
X5026661Y3138117D01*
X5004342Y3139977D01*
X4989462Y3141836D01*
X4964354Y3144626D01*
X4951334Y3146486D01*
X4903906Y3149276D01*
X4878797Y3152066D01*
X4871357Y3153926D01*
X4836019Y3155786D01*
X4811840Y3157646D01*
X4779291Y3160436D01*
X4760692Y3162296D01*
X4705824Y3165086D01*
X4660256Y3167876D01*
X4639797Y3169735D01*
X4608178Y3171595D01*
X4557960Y3173455D01*
X4487283Y3175315D01*
X4403586Y3177175D01*
X4402656Y3178105D01*
X4397077Y3176245D01*
X4378477Y3174385D01*
X4365458Y3165086D01*
X4358018Y3163226D01*
X4352438Y3157646D01*
X4313380Y3135327D01*
X4309660Y3131607D01*
X4283621Y3116728D01*
X4279901Y3113008D01*
X4270602Y3109288D01*
X4266882Y3105568D01*
X4263162Y3103708D01*
X4253862Y3098128D01*
X4250143Y3094409D01*
X4240843Y3088829D01*
X4223174Y3076739D01*
X4216664Y3073949D01*
X4211084Y3068370D01*
X4198065Y3060930D01*
X4185045Y3051630D01*
X4167376Y3039541D01*
X4155286Y3031171D01*
X4151566Y3029311D01*
X4145987Y3023731D01*
X4142267Y3021872D01*
X4129248Y3012572D01*
X4125528Y3010712D01*
X4119948Y3005132D01*
X4116228Y3003272D01*
X4110648Y2997693D01*
X4106928Y2995832D01*
X4087399Y2981883D01*
X4086469Y2979093D01*
X4077170Y2973513D01*
X4071590Y2967934D01*
X4067870Y2966074D01*
X4062290Y2960494D01*
X4052991Y2954914D01*
X4047411Y2949334D01*
X4043691Y2947474D01*
X4036251Y2940035D01*
X4033461Y2939105D01*
X4031601Y2935385D01*
X4025092Y2930735D01*
X4019512Y2925155D01*
X4015792Y2923295D01*
X4008352Y2915856D01*
X3999983Y2911206D01*
X3999053Y2908416D01*
X3995333Y2906556D01*
X3986033Y2897257D01*
X3982313Y2895397D01*
X3978594Y2889817D01*
X3974874Y2887957D01*
X3958134Y2871218D01*
X3954414Y2869358D01*
X3880948Y2795891D01*
X3879087Y2792171D01*
X3864208Y2777291D01*
X3862348Y2773572D01*
X3847469Y2758692D01*
X3845609Y2754972D01*
X3838169Y2747533D01*
X3836309Y2743813D01*
X3828870Y2736373D01*
X3827010Y2732653D01*
X3821430Y2727074D01*
X3819570Y2723354D01*
X3816780Y2718704D01*
X3813060Y2716844D01*
X3806550Y2706614D01*
X3802831Y2702895D01*
X3800971Y2699175D01*
X3795391Y2693595D01*
X3793531Y2689875D01*
X3784231Y2676855D01*
X3782372Y2673136D01*
X3776792Y2667556D01*
X3769352Y2654536D01*
X3756333Y2635937D01*
X3750753Y2626638D01*
X3735873Y2600599D01*
X3730294Y2591299D01*
X3728434Y2587579D01*
X3723784Y2582929D01*
X3708904Y2581070D01*
X3703325Y2582929D01*
X3177896Y2581999D01*
X3173246Y2582929D01*
X3167667Y2581070D01*
X3163017Y2585719D01*
X3164877Y2593159D01*
X3168596Y2596879D01*
X3170456Y2602459D01*
X3177896Y2613618D01*
X3179756Y2619198D01*
X3185336Y2624778D01*
X3189056Y2634077D01*
X3194635Y2639657D01*
X3196495Y2645237D01*
X3205795Y2658256D01*
X3207655Y2661976D01*
X3211375Y2665696D01*
X3216954Y2674996D01*
X3220674Y2678715D01*
X3226254Y2688015D01*
X3229974Y2691735D01*
X3235554Y2701034D01*
X3239274Y2704754D01*
X3241133Y2708474D01*
X3248573Y2715914D01*
X3254153Y2725213D01*
X3257873Y2728933D01*
X3259733Y2732653D01*
X3267173Y2740093D01*
X3269032Y2743813D01*
X3276472Y2751253D01*
X3278332Y2754972D01*
X3283912Y2758692D01*
X3285772Y2762412D01*
X3293211Y2769852D01*
X3295071Y2773572D01*
X3300651Y2777291D01*
X3302511Y2781011D01*
X3319250Y2797751D01*
X3321110Y2801470D01*
X3339710Y2820070D01*
X3340639Y2822859D01*
X3344359Y2824720D01*
X3362958Y2843319D01*
X3366678Y2845179D01*
X3385278Y2863778D01*
X3388998Y2865638D01*
X3392717Y2871218D01*
X3396437Y2873078D01*
X3411317Y2887957D01*
X3415036Y2889817D01*
X3422476Y2897257D01*
X3426196Y2899116D01*
X3433636Y2906556D01*
X3437356Y2908416D01*
X3444795Y2915856D01*
X3448515Y2917716D01*
X3455955Y2925155D01*
X3459675Y2927015D01*
X3467114Y2934455D01*
X3470834Y2936315D01*
X3476414Y2941895D01*
X3480134Y2943755D01*
X3485714Y2949334D01*
X3495013Y2954914D01*
X3498733Y2958634D01*
X3502453Y2960494D01*
X3509893Y2967934D01*
X3519192Y2973513D01*
X3522912Y2977233D01*
X3532212Y2982813D01*
X3535931Y2986533D01*
X3539651Y2988393D01*
X3545231Y2993973D01*
X3558251Y3001412D01*
X3561971Y3005132D01*
X3571270Y3010712D01*
X3584290Y3020011D01*
X3607539Y3035821D01*
X3610329Y3038611D01*
X3623348Y3046051D01*
X3643807Y3059070D01*
X3647527Y3060930D01*
X3651247Y3064650D01*
X3677286Y3079529D01*
X3681006Y3083249D01*
X3690305Y3086969D01*
X3695885Y3092549D01*
X3708904Y3099988D01*
X3725644Y3109288D01*
X3738663Y3116728D01*
X3772142Y3135327D01*
X3785161Y3142767D01*
X3794461Y3146486D01*
X3798181Y3148346D01*
X3800971Y3151136D01*
X3800041Y3155786D01*
X3757262Y3153926D01*
X3751683Y3152066D01*
X3730294Y3149276D01*
X3707975Y3147416D01*
X3667986Y3144626D01*
X3662406Y3142767D01*
X3643807Y3140907D01*
X3636367Y3139047D01*
X3599169Y3137187D01*
X3593589Y3135327D01*
X3571270Y3131607D01*
X3558251Y3129747D01*
X3523842Y3125097D01*
X3514542Y3123237D01*
X3489433Y3120447D01*
X3461535Y3118588D01*
X3455955Y3116728D01*
X3441075Y3113008D01*
X3416896Y3111148D01*
X3409457Y3109288D01*
X3397367Y3106498D01*
X3388068Y3104638D01*
X3362958Y3101848D01*
X3341569Y3097199D01*
X3332270Y3095338D01*
X3315531Y3093478D01*
X3300651Y3091619D01*
X3293211Y3089759D01*
X3282982Y3086969D01*
X3269962Y3085109D01*
X3252293Y3082319D01*
X3242063Y3079529D01*
X3234624Y3077669D01*
X3221604Y3075809D01*
X3200215Y3071159D01*
X3192775Y3069299D01*
X3181616Y3067440D01*
X3166737Y3065580D01*
X3157437Y3063720D01*
X3147207Y3060930D01*
X3139768Y3059070D01*
X3122098Y3056280D01*
X3106289Y3051630D01*
X3098849Y3049770D01*
X3079320Y3046980D01*
X3063511Y3042331D01*
X3056071Y3040471D01*
X3038402Y3037681D01*
X3022592Y3033031D01*
X3015153Y3031171D01*
X2997483Y3028381D01*
X2981674Y3023731D01*
X2968655Y3021872D01*
X2944476Y3014432D01*
X2924946Y3009782D01*
X2909137Y3005132D01*
X2893328Y3002342D01*
X2884028Y2998622D01*
X2876588Y2996763D01*
X2865429Y2994903D01*
X2857989Y2993043D01*
X2848690Y2989323D01*
X2839390Y2987463D01*
X2828230Y2985603D01*
X2813351Y2980023D01*
X2805911Y2978163D01*
X2794752Y2976303D01*
X2778942Y2969794D01*
X2763133Y2967004D01*
X2753833Y2963284D01*
X2745464Y2960494D01*
X2731514Y2957704D01*
X2722215Y2953984D01*
X2711985Y2951194D01*
X2700825Y2949334D01*
X2687806Y2943755D01*
X2680366Y2941895D01*
X2669207Y2940035D01*
X2656187Y2934455D01*
X2641308Y2930735D01*
X2628288Y2925155D01*
X2611549Y2921436D01*
X2598530Y2915856D01*
X2586440Y2913066D01*
X2576210Y2908416D01*
X2568771Y2906556D01*
X2558541Y2903766D01*
X2548312Y2899116D01*
X2531572Y2895397D01*
X2518553Y2889817D01*
X2503673Y2886097D01*
X2486934Y2878657D01*
X2479494Y2876797D01*
X2466475Y2871218D01*
X2454385Y2868428D01*
X2446016Y2863778D01*
X2431136Y2860058D01*
X2427417Y2858198D01*
X2414397Y2852618D01*
X2405098Y2850758D01*
X2388358Y2843319D01*
X2379058Y2841459D01*
X2366039Y2835879D01*
X2358599Y2834019D01*
X2354879Y2832159D01*
X2341860Y2826579D01*
X2329771Y2821930D01*
X2326981Y2819140D01*
X2314891Y2816350D01*
X2295362Y2807980D01*
X2287922Y2806120D01*
X2271183Y2798680D01*
X2263743Y2796821D01*
X2260023Y2793101D01*
X2245144Y2789381D01*
X2228405Y2781941D01*
X2216315Y2777291D01*
X2213525Y2774501D01*
X2203296Y2771712D01*
X2183767Y2763342D01*
X2163307Y2754042D01*
X2155868Y2752182D01*
X2152148Y2748463D01*
X2134479Y2741953D01*
X2131689Y2739163D01*
X2121459Y2736373D01*
X2112159Y2732653D01*
X2109369Y2729863D01*
X2101930Y2728003D01*
X2092630Y2724284D01*
X2079611Y2718704D01*
X2038692Y2700105D01*
X2034973Y2698245D01*
X2025673Y2692665D01*
X2018233Y2690805D01*
X2007074Y2683365D01*
X1997774Y2681505D01*
X1994054Y2677785D01*
X1984754Y2674066D01*
X1943836Y2655466D01*
X1940117Y2653606D01*
X1901058Y2633147D01*
X1891758Y2629427D01*
X1882459Y2623848D01*
X1873159Y2620128D01*
X1869439Y2618268D01*
X1860140Y2612688D01*
X1787603Y2577349D01*
X1780163Y2575490D01*
X1705766Y2577349D01*
X1702976Y2580139D01*
X1704836Y2591299D01*
X1707626Y2594089D01*
X1715066Y2595949D01*
X1720645Y2601528D01*
X1729945Y2605248D01*
X1733665Y2608968D01*
X1742965Y2612688D01*
X1746684Y2614548D01*
X1755984Y2620128D01*
X1769003Y2627568D01*
X1835961Y2662906D01*
X1845260Y2666626D01*
X1848980Y2668486D01*
X1852700Y2672206D01*
X1864790Y2676855D01*
X1876879Y2683365D01*
X1968015Y2728003D01*
X1977315Y2733583D01*
X1986615Y2737303D01*
X1994054Y2739163D01*
X1999634Y2744743D01*
X2009864Y2747533D01*
X2012654Y2750322D01*
X2016373Y2752182D01*
X2021953Y2754042D01*
X2124249Y2800540D01*
X2127969Y2802400D01*
X2140988Y2807980D01*
X2161447Y2817280D01*
X2168887Y2819140D01*
X2178187Y2824720D01*
X2190276Y2829369D01*
X2193066Y2832159D01*
X2200506Y2834019D01*
X2209805Y2837739D01*
X2243284Y2852618D01*
X2250724Y2854478D01*
X2260023Y2860058D01*
X2267463Y2861918D01*
X2287922Y2871218D01*
X2295362Y2873078D01*
X2328841Y2887957D01*
X2339070Y2890747D01*
X2347440Y2895397D01*
X2354879Y2897257D01*
X2366969Y2901906D01*
X2369759Y2904696D01*
X2381848Y2907486D01*
X2401378Y2915856D01*
X2408817Y2917716D01*
X2421837Y2923295D01*
X2446016Y2932595D01*
X2453456Y2934455D01*
X2457175Y2936315D01*
X2470195Y2941895D01*
X2480425Y2944685D01*
X2488794Y2949334D01*
X2503673Y2953054D01*
X2520413Y2960494D01*
X2529712Y2962354D01*
X2542732Y2967934D01*
X2550172Y2969794D01*
X2566911Y2977233D01*
X2579000Y2980023D01*
X2594810Y2986533D01*
X2605039Y2989323D01*
X2615269Y2993973D01*
X2622709Y2995832D01*
X2632938Y2998622D01*
X2643168Y3003272D01*
X2655257Y3006062D01*
X2661767Y3008852D01*
X2671067Y3012572D01*
X2683156Y3015362D01*
X2693386Y3020011D01*
X2700825Y3021872D01*
X2711055Y3024661D01*
X2717565Y3027451D01*
X2726864Y3031171D01*
X2740814Y3033961D01*
X2751044Y3038611D01*
X2767783Y3042331D01*
X2780802Y3047910D01*
X2800331Y3052560D01*
X2810561Y3057210D01*
X2824510Y3060000D01*
X2833810Y3063720D01*
X2844040Y3066510D01*
X2856129Y3069299D01*
X2865429Y3073020D01*
X2885888Y3078599D01*
X2895188Y3082319D01*
X2902627Y3084179D01*
X2913787Y3086039D01*
X2923086Y3089759D01*
X2933316Y3092549D01*
X2940756Y3094409D01*
X2950055Y3096268D01*
X2963075Y3101848D01*
X2977954Y3103708D01*
X2990974Y3109288D01*
X3017013Y3114868D01*
X3026312Y3118588D01*
X3033752Y3120447D01*
X3048631Y3122307D01*
X3061651Y3127887D01*
X3074670Y3129747D01*
X3098849Y3137187D01*
X3111869Y3139047D01*
X3123958Y3143697D01*
X3131398Y3145557D01*
X3142558Y3147416D01*
X3151857Y3149276D01*
X3161157Y3152996D01*
X3168596Y3154856D01*
X3179756Y3156716D01*
X3189056Y3158576D01*
X3204865Y3163226D01*
X3212305Y3165086D01*
X3227184Y3166946D01*
X3236484Y3170665D01*
X3243923Y3172525D01*
X3256943Y3174385D01*
X3264383Y3176245D01*
X3282982Y3181825D01*
X3309951Y3186475D01*
X3318321Y3189265D01*
X3325760Y3191125D01*
X3345289Y3193914D01*
X3361099Y3198564D01*
X3368538Y3200424D01*
X3387137Y3202284D01*
X3392717Y3204144D01*
X3405737Y3207864D01*
X3418756Y3209724D01*
X3434566Y3212514D01*
X3442005Y3214374D01*
X3452235Y3217163D01*
X3465254Y3219024D01*
X3481064Y3221813D01*
X3491293Y3224603D01*
X3498733Y3226463D01*
X3521982Y3229253D01*
X3531282Y3231113D01*
X3546161Y3234833D01*
X3579640Y3240413D01*
X3587079Y3242272D01*
X3596379Y3244132D01*
X3613119Y3245992D01*
X3633578Y3249712D01*
X3641017Y3251572D01*
X3666126Y3254362D01*
X3673566Y3256222D01*
X3687515Y3259012D01*
X3694955Y3260872D01*
X3709835Y3262732D01*
X3728434Y3264592D01*
X3739593Y3266451D01*
X3747033Y3268311D01*
X3756333Y3270171D01*
X3771212Y3272031D01*
X3789811Y3273891D01*
X3808410Y3277611D01*
X3819570Y3279471D01*
X3838169Y3281331D01*
X3854908Y3283191D01*
X3866068Y3285051D01*
X3873508Y3286911D01*
X3898617Y3289701D01*
X3925586Y3292490D01*
X3936745Y3294350D01*
X3946045Y3296210D01*
X3962784Y3298070D01*
X3985103Y3299930D01*
X4001843Y3301790D01*
X4024162Y3305510D01*
X4044621Y3307370D01*
X4070660Y3309230D01*
X4085539Y3311090D01*
X4096699Y3312950D01*
X4111578Y3314809D01*
X4135757Y3316670D01*
X4152496Y3318529D01*
X4159006Y3321319D01*
X4168306Y3325039D01*
X4178535Y3327829D01*
X4190625Y3334339D01*
X4200854Y3337129D01*
X4209224Y3341778D01*
X4216664Y3343638D01*
X4225964Y3347358D01*
X4238983Y3352938D01*
X4248283Y3354798D01*
X4252002Y3358518D01*
X4265022Y3362238D01*
X4281761Y3369677D01*
X4289201Y3371537D01*
X4305940Y3378977D01*
X4313380Y3380837D01*
X4330119Y3388277D01*
X4339419Y3390136D01*
X4356158Y3397576D01*
X4365458Y3399436D01*
X4378477Y3405016D01*
X4385917Y3406876D01*
X4402656Y3414315D01*
X4412886Y3417105D01*
X4428695Y3423615D01*
X4438925Y3426405D01*
X4449154Y3431055D01*
X4464034Y3434775D01*
X4477053Y3440355D01*
X4491933Y3444074D01*
X4504952Y3449654D01*
X4519831Y3453374D01*
X4523552Y3457094D01*
X4530991Y3458954D01*
X4543081Y3461744D01*
X4551450Y3466393D01*
X4558890Y3468253D01*
X4570979Y3471043D01*
X4581209Y3475693D01*
X4588649Y3477553D01*
X4597948Y3479413D01*
X4610968Y3484993D01*
X4627707Y3488713D01*
X4640727Y3494292D01*
X4648166Y3496152D01*
X4658396Y3498942D01*
X4668625Y3503592D01*
X4682575Y3506382D01*
X4692804Y3511032D01*
X4700244Y3512892D01*
X4714194Y3515681D01*
X4724423Y3520331D01*
X4743952Y3524981D01*
X4756042Y3529631D01*
X4763482Y3531491D01*
X4774641Y3533351D01*
X4787661Y3538930D01*
X4799750Y3541720D01*
X4809050Y3545440D01*
X4819279Y3548230D01*
X4831369Y3551020D01*
X4840668Y3554740D01*
X4848108Y3556600D01*
X4859268Y3558460D01*
X4866708Y3560320D01*
X4876937Y3564970D01*
X4889956Y3566829D01*
X4897396Y3568689D01*
X4906696Y3572409D01*
X4921575Y3576129D01*
X4931805Y3578919D01*
X4943894Y3583569D01*
X4959704Y3586359D01*
X4969003Y3590078D01*
X4979233Y3592868D01*
X4994112Y3594728D01*
X5003412Y3598448D01*
X5016431Y3602168D01*
X5030381Y3604958D01*
X5039681Y3608678D01*
X5047120Y3610538D01*
X5058280Y3612397D01*
X5079669Y3618907D01*
X5087108Y3620767D01*
X5101058Y3623557D01*
X5113148Y3628207D01*
X5131747Y3630067D01*
X5141046Y3633786D01*
X5154066Y3637507D01*
X5168945Y3639366D01*
X5178245Y3643086D01*
X5191264Y3646806D01*
X5206144Y3648666D01*
X5215443Y3652386D01*
X5230323Y3656106D01*
X5244272Y3658896D01*
X5260081Y3663545D01*
X5284260Y3667265D01*
X5293560Y3670985D01*
X5301000Y3672845D01*
X5318669Y3675635D01*
X5334479Y3680285D01*
X5341918Y3682145D01*
X5357727Y3684934D01*
X5367027Y3688654D01*
X5376327Y3690514D01*
X5391206Y3692374D01*
X5398646Y3694234D01*
X5408875Y3697024D01*
X5423755Y3700744D01*
X5441424Y3703534D01*
X5451654Y3706324D01*
X5459093Y3708184D01*
X5472113Y3710044D01*
X5484202Y3712833D01*
X5500012Y3717483D01*
X5517681Y3720273D01*
X5525121Y3722133D01*
X5535350Y3724923D01*
X5542790Y3726783D01*
X5562319Y3729573D01*
X5578129Y3734222D01*
X5591148Y3736082D01*
X5608817Y3738872D01*
X5624627Y3743522D01*
X5637646Y3745382D01*
X5651596Y3748172D01*
X5666475Y3751892D01*
X5675775Y3753752D01*
X5696234Y3757472D01*
X5711113Y3761191D01*
X5744592Y3766771D01*
X5754821Y3769561D01*
X5787370Y3774211D01*
X5797600Y3777001D01*
X5812479Y3780721D01*
X5831078Y3782580D01*
X5836658Y3784440D01*
X5849677Y3788160D01*
X5868277Y3790020D01*
X5884086Y3792810D01*
X5891526Y3794670D01*
X5901755Y3797460D01*
X5925004Y3800250D01*
X5947324Y3805830D01*
X5977082Y3809549D01*
X5986382Y3811409D01*
X5996612Y3814199D01*
X6004051Y3816059D01*
X6029160Y3818849D01*
X6044040Y3822569D01*
X6055199Y3824429D01*
X6065429Y3825359D01*
X6067289D01*
X6088678Y3830009D01*
X6096118Y3831869D01*
X6121227Y3834658D01*
X6137036Y3837448D01*
X6147265Y3840238D01*
X6173304Y3843958D01*
X6190974Y3846748D01*
X6201203Y3849538D01*
X6219802Y3851398D01*
X6232822Y3853258D01*
X6248631Y3856048D01*
X6256071Y3857907D01*
X6267231Y3859767D01*
X6283970Y3861627D01*
X6304429Y3865347D01*
X6311869Y3867207D01*
X6323028Y3869067D01*
X6343487Y3870927D01*
X6354647Y3872787D01*
X6362087Y3874647D01*
X6371386Y3876507D01*
X6386266Y3878367D01*
X6406725Y3880227D01*
X6417885Y3882086D01*
X6425324Y3883947D01*
X6434624Y3885806D01*
X6451363Y3887666D01*
X6466242Y3889526D01*
X6484842Y3893246D01*
X6496001Y3895106D01*
X6512741Y3896966D01*
X6527620Y3898826D01*
X6538779Y3900686D01*
X6548079Y3902546D01*
X6559239Y3904406D01*
X6592717Y3908126D01*
X6615036Y3911845D01*
X6624336Y3913705D01*
X6641075Y3915565D01*
X6661535Y3917425D01*
X6668974Y3919285D01*
X6679204Y3922075D01*
X6692223Y3923935D01*
X6712683Y3922075D01*
D02*
G37*
D18*
X8572500Y7081500D02*
X8949500D01*
Y1905500D02*
Y7081500D01*
X8449500Y1905500D02*
X8949500D01*
X8449500D02*
Y6921500D01*
X825500Y6954500D02*
X1202500D01*
Y1778500D02*
Y6954500D01*
X702500Y1778500D02*
X1202500D01*
X702500D02*
Y6794500D01*
D19*
X8071790Y1209936D02*
X8005145D01*
X8038468D01*
Y1043323D01*
X8005145Y1010000D01*
X7971823D01*
X7938500Y1043323D01*
X8138436Y1209936D02*
Y1043323D01*
X8171758Y1010000D01*
X8238403D01*
X8271726Y1043323D01*
Y1209936D01*
X8338371D02*
Y1010000D01*
X8471661D01*
X8538307Y1209936D02*
Y1010000D01*
X8671597D01*
X910193D02*
X776903D01*
X910193Y1143290D01*
Y1176613D01*
X876871Y1209936D01*
X810225D01*
X776903Y1176613D01*
X976839D02*
X1010161Y1209936D01*
X1076806D01*
X1110129Y1176613D01*
Y1043323D01*
X1076806Y1010000D01*
X1010161D01*
X976839Y1043323D01*
Y1176613D01*
X1310064Y1010000D02*
X1176774D01*
X1310064Y1143290D01*
Y1176613D01*
X1276742Y1209936D01*
X1210097D01*
X1176774Y1176613D01*
X1510000Y1010000D02*
X1376710D01*
X1510000Y1143290D01*
Y1176613D01*
X1476678Y1209936D01*
X1410032D01*
X1376710Y1176613D01*
X7938500Y1509936D02*
Y1310000D01*
X8038468D01*
X8071790Y1343322D01*
Y1476613D01*
X8038468Y1509936D01*
X7938500D01*
X8138436Y1310000D02*
Y1443290D01*
X8205081Y1509936D01*
X8271726Y1443290D01*
Y1310000D01*
Y1409968D01*
X8138436D01*
X8338371Y1310000D02*
Y1509936D01*
X8438339D01*
X8471661Y1476613D01*
Y1409968D01*
X8438339Y1376645D01*
X8338371D01*
X8405016D02*
X8471661Y1310000D01*
X8538307Y1509936D02*
Y1310000D01*
X8604952Y1376645D01*
X8671597Y1310000D01*
Y1509936D01*
X8738242D02*
X8804887D01*
X8771565D01*
Y1310000D01*
X8738242D01*
X8804887D01*
X8904855D02*
Y1509936D01*
X9038145Y1310000D01*
Y1509936D01*
D20*
X8089300Y680703D02*
X8189268D01*
X8139284D01*
Y380800D01*
X8089300D01*
X8189268D01*
X8339219D02*
Y680703D01*
X8539155Y380800D01*
Y680703D01*
X8639122D02*
X8839058D01*
X8739090D01*
Y380800D01*
X399556D02*
Y680703D01*
X549507D01*
X599491Y630719D01*
Y530752D01*
X549507Y480768D01*
X399556D01*
X499524D02*
X599491Y380800D01*
X899394Y680703D02*
X699459D01*
Y380800D01*
X899394D01*
X699459Y530752D02*
X799426D01*
X999362Y680703D02*
Y480768D01*
X1099329Y380800D01*
X1199297Y480768D01*
Y680703D01*
X1299265Y380800D02*
Y580735D01*
X1399232Y680703D01*
X1499200Y580735D01*
Y380800D01*
Y530752D01*
X1299265D01*
%TF.MD5,ae682ba22aef0091530e4d9a82e9cf1f*%
M02*
