%TF.GenerationSoftware,Altium Limited,Altium Designer,22.11.1 (43)*%
G04 Layer_Color=255*
%FSLAX45Y45*%
%MOMM*%
%TF.SameCoordinates,C297AA42-F212-4987-B5A2-20FF98F52B47*%
%TF.FilePolarity,Positive*%
%TF.FileFunction,Pads,Top*%
%TF.Part,Single*%
G01*
G75*
%TA.AperFunction,SMDPad,CuDef*%
%ADD10R,0.53000X4.57200*%
%TA.AperFunction,ComponentPad*%
%ADD14C,1.72500*%
%ADD15R,1.72500X1.72500*%
D10*
X2317650Y9760000D02*
D03*
X2444650D02*
D03*
X2571650D02*
D03*
X2698650D02*
D03*
X2825650D02*
D03*
X2952650D02*
D03*
X3079650D02*
D03*
X3206650D02*
D03*
X3333650D02*
D03*
X3460650D02*
D03*
X3587650D02*
D03*
X3714650D02*
D03*
X3841650D02*
D03*
X3968650D02*
D03*
X4095650D02*
D03*
X4222650D02*
D03*
X4349650D02*
D03*
X4476650D02*
D03*
X4603650D02*
D03*
X4730650D02*
D03*
X4857650D02*
D03*
X4984650D02*
D03*
X5111650D02*
D03*
X5238650D02*
D03*
X5492650D02*
D03*
X5619650D02*
D03*
X5746650D02*
D03*
X5873650D02*
D03*
X6000650D02*
D03*
X6127650D02*
D03*
X6254650D02*
D03*
X6381650D02*
D03*
X6508650D02*
D03*
X6635650D02*
D03*
X6762650D02*
D03*
X6889650D02*
D03*
X7016650D02*
D03*
X7143650D02*
D03*
X7270650D02*
D03*
D14*
X8826500Y2095500D02*
D03*
X8572500D02*
D03*
X8826500Y2349500D02*
D03*
X8572500D02*
D03*
X8826500Y2603500D02*
D03*
X8572500D02*
D03*
X8826500Y2857500D02*
D03*
X8572500D02*
D03*
X8826500Y3111500D02*
D03*
X8572500D02*
D03*
X8826500Y3365500D02*
D03*
X8572500D02*
D03*
X8826500Y3619500D02*
D03*
X8572500D02*
D03*
X8826500Y3873500D02*
D03*
X8572500D02*
D03*
X8826500Y4127500D02*
D03*
X8572500D02*
D03*
X8826500Y4381500D02*
D03*
X8572500D02*
D03*
X8826500Y4635500D02*
D03*
X8572500D02*
D03*
X8826500Y4889500D02*
D03*
X8572500D02*
D03*
X8826500Y5143500D02*
D03*
X8572500D02*
D03*
X8826500Y5397500D02*
D03*
X8572500D02*
D03*
X8826500Y5651500D02*
D03*
X8572500D02*
D03*
X8826500Y5905500D02*
D03*
X8572500D02*
D03*
X8826500Y6159500D02*
D03*
X8572500D02*
D03*
X8826500Y6413500D02*
D03*
X8572500D02*
D03*
X8826500Y6667500D02*
D03*
X8572500D02*
D03*
X8826500Y6921500D02*
D03*
X1079500Y1968500D02*
D03*
X825500D02*
D03*
X1079500Y2222500D02*
D03*
X825500D02*
D03*
X1079500Y2476500D02*
D03*
X825500D02*
D03*
X1079500Y2730500D02*
D03*
X825500D02*
D03*
X1079500Y2984500D02*
D03*
X825500D02*
D03*
X1079500Y3238500D02*
D03*
X825500D02*
D03*
X1079500Y3492500D02*
D03*
X825500D02*
D03*
X1079500Y3746500D02*
D03*
X825500D02*
D03*
X1079500Y4000500D02*
D03*
X825500D02*
D03*
X1079500Y4254500D02*
D03*
X825500D02*
D03*
X1079500Y4508500D02*
D03*
X825500D02*
D03*
X1079500Y4762500D02*
D03*
X825500D02*
D03*
X1079500Y5016500D02*
D03*
X825500D02*
D03*
X1079500Y5270500D02*
D03*
X825500D02*
D03*
X1079500Y5524500D02*
D03*
X825500D02*
D03*
X1079500Y5778500D02*
D03*
X825500D02*
D03*
X1079500Y6032500D02*
D03*
X825500D02*
D03*
X1079500Y6286500D02*
D03*
X825500D02*
D03*
X1079500Y6540500D02*
D03*
X825500D02*
D03*
X1079500Y6794500D02*
D03*
D15*
X8572500Y6921500D02*
D03*
X825500Y6794500D02*
D03*
%TF.MD5,b7fed87251068df9765829f5587b7658*%
M02*
