%TF.GenerationSoftware,Altium Limited,Altium Designer,22.11.1 (43)*%
G04 Layer_Color=2752767*
%FSLAX45Y45*%
%MOMM*%
%TF.SameCoordinates,C297AA42-F212-4987-B5A2-20FF98F52B47*%
%TF.FilePolarity,Positive*%
%TF.FileFunction,Drawing*%
%TF.Part,Single*%
G01*
G75*
%TA.AperFunction,NonConductor*%
%ADD33C,0.12700*%
%ADD34C,0.16933*%
D33*
X8775700Y2044700D02*
Y2146300D01*
X8877300D01*
Y2044700D01*
X8775700D01*
X8521700D02*
Y2146300D01*
X8623300D01*
Y2044700D01*
X8521700D01*
X8775700Y2298700D02*
Y2400300D01*
X8877300D01*
Y2298700D01*
X8775700D01*
X8521700D02*
Y2400300D01*
X8623300D01*
Y2298700D01*
X8521700D01*
X8775700Y2552700D02*
Y2654300D01*
X8877300D01*
Y2552700D01*
X8775700D01*
X8521700D02*
Y2654300D01*
X8623300D01*
Y2552700D01*
X8521700D01*
X8775700Y2806700D02*
Y2908300D01*
X8877300D01*
Y2806700D01*
X8775700D01*
X8521700D02*
Y2908300D01*
X8623300D01*
Y2806700D01*
X8521700D01*
X8775700Y3060700D02*
Y3162300D01*
X8877300D01*
Y3060700D01*
X8775700D01*
X8521700D02*
Y3162300D01*
X8623300D01*
Y3060700D01*
X8521700D01*
X8775700Y3314700D02*
Y3416300D01*
X8877300D01*
Y3314700D01*
X8775700D01*
X8521700D02*
Y3416300D01*
X8623300D01*
Y3314700D01*
X8521700D01*
X8775700Y3568700D02*
Y3670300D01*
X8877300D01*
Y3568700D01*
X8775700D01*
X8521700D02*
Y3670300D01*
X8623300D01*
Y3568700D01*
X8521700D01*
X8775700Y3822700D02*
Y3924300D01*
X8877300D01*
Y3822700D01*
X8775700D01*
X8521700D02*
Y3924300D01*
X8623300D01*
Y3822700D01*
X8521700D01*
X8775700Y4076700D02*
Y4178300D01*
X8877300D01*
Y4076700D01*
X8775700D01*
X8521700D02*
Y4178300D01*
X8623300D01*
Y4076700D01*
X8521700D01*
X8775700Y4330700D02*
Y4432300D01*
X8877300D01*
Y4330700D01*
X8775700D01*
X8521700D02*
Y4432300D01*
X8623300D01*
Y4330700D01*
X8521700D01*
X8775700Y4584700D02*
Y4686300D01*
X8877300D01*
Y4584700D01*
X8775700D01*
X8521700D02*
Y4686300D01*
X8623300D01*
Y4584700D01*
X8521700D01*
X8775700Y4838700D02*
Y4940300D01*
X8877300D01*
Y4838700D01*
X8775700D01*
X8521700D02*
Y4940300D01*
X8623300D01*
Y4838700D01*
X8521700D01*
X8775700Y5092700D02*
Y5194300D01*
X8877300D01*
Y5092700D01*
X8775700D01*
X8521700D02*
Y5194300D01*
X8623300D01*
Y5092700D01*
X8521700D01*
X8775700Y5346700D02*
Y5448300D01*
X8877300D01*
Y5346700D01*
X8775700D01*
X8521700D02*
Y5448300D01*
X8623300D01*
Y5346700D01*
X8521700D01*
X8775700Y5600700D02*
Y5702300D01*
X8877300D01*
Y5600700D01*
X8775700D01*
X8521700D02*
Y5702300D01*
X8623300D01*
Y5600700D01*
X8521700D01*
X8775700Y5854700D02*
Y5956300D01*
X8877300D01*
Y5854700D01*
X8775700D01*
X8521700D02*
Y5956300D01*
X8623300D01*
Y5854700D01*
X8521700D01*
X8775700Y6108700D02*
Y6210300D01*
X8877300D01*
Y6108700D01*
X8775700D01*
X8521700D02*
Y6210300D01*
X8623300D01*
Y6108700D01*
X8521700D01*
X8775700Y6362700D02*
Y6464300D01*
X8877300D01*
Y6362700D01*
X8775700D01*
X8521700D02*
Y6464300D01*
X8623300D01*
Y6362700D01*
X8521700D01*
X8775700Y6616700D02*
Y6718300D01*
X8877300D01*
Y6616700D01*
X8775700D01*
X8521700D02*
Y6718300D01*
X8623300D01*
Y6616700D01*
X8521700D01*
X8775700Y6870700D02*
Y6972300D01*
X8877300D01*
Y6870700D01*
X8775700D01*
X8521700D02*
Y6972300D01*
X8623300D01*
Y6870700D01*
X8521700D01*
X1028700Y1917700D02*
Y2019300D01*
X1130300D01*
Y1917700D01*
X1028700D01*
X774700D02*
Y2019300D01*
X876300D01*
Y1917700D01*
X774700D01*
X1028700Y2171700D02*
Y2273300D01*
X1130300D01*
Y2171700D01*
X1028700D01*
X774700D02*
Y2273300D01*
X876300D01*
Y2171700D01*
X774700D01*
X1028700Y2425700D02*
Y2527300D01*
X1130300D01*
Y2425700D01*
X1028700D01*
X774700D02*
Y2527300D01*
X876300D01*
Y2425700D01*
X774700D01*
X1028700Y2679700D02*
Y2781300D01*
X1130300D01*
Y2679700D01*
X1028700D01*
X774700D02*
Y2781300D01*
X876300D01*
Y2679700D01*
X774700D01*
X1028700Y2933700D02*
Y3035300D01*
X1130300D01*
Y2933700D01*
X1028700D01*
X774700D02*
Y3035300D01*
X876300D01*
Y2933700D01*
X774700D01*
X1028700Y3187700D02*
Y3289300D01*
X1130300D01*
Y3187700D01*
X1028700D01*
X774700D02*
Y3289300D01*
X876300D01*
Y3187700D01*
X774700D01*
X1028700Y3441700D02*
Y3543300D01*
X1130300D01*
Y3441700D01*
X1028700D01*
X774700D02*
Y3543300D01*
X876300D01*
Y3441700D01*
X774700D01*
X1028700Y3695700D02*
Y3797300D01*
X1130300D01*
Y3695700D01*
X1028700D01*
X774700D02*
Y3797300D01*
X876300D01*
Y3695700D01*
X774700D01*
X1028700Y3949700D02*
Y4051300D01*
X1130300D01*
Y3949700D01*
X1028700D01*
X774700D02*
Y4051300D01*
X876300D01*
Y3949700D01*
X774700D01*
X1028700Y4203700D02*
Y4305300D01*
X1130300D01*
Y4203700D01*
X1028700D01*
X774700D02*
Y4305300D01*
X876300D01*
Y4203700D01*
X774700D01*
X1028700Y4457700D02*
Y4559300D01*
X1130300D01*
Y4457700D01*
X1028700D01*
X774700D02*
Y4559300D01*
X876300D01*
Y4457700D01*
X774700D01*
X1028700Y4711700D02*
Y4813300D01*
X1130300D01*
Y4711700D01*
X1028700D01*
X774700D02*
Y4813300D01*
X876300D01*
Y4711700D01*
X774700D01*
X1028700Y4965700D02*
Y5067300D01*
X1130300D01*
Y4965700D01*
X1028700D01*
X774700D02*
Y5067300D01*
X876300D01*
Y4965700D01*
X774700D01*
X1028700Y5219700D02*
Y5321300D01*
X1130300D01*
Y5219700D01*
X1028700D01*
X774700D02*
Y5321300D01*
X876300D01*
Y5219700D01*
X774700D01*
X1028700Y5473700D02*
Y5575300D01*
X1130300D01*
Y5473700D01*
X1028700D01*
X774700D02*
Y5575300D01*
X876300D01*
Y5473700D01*
X774700D01*
X1028700Y5727700D02*
Y5829300D01*
X1130300D01*
Y5727700D01*
X1028700D01*
X774700D02*
Y5829300D01*
X876300D01*
Y5727700D01*
X774700D01*
X1028700Y5981700D02*
Y6083300D01*
X1130300D01*
Y5981700D01*
X1028700D01*
X774700D02*
Y6083300D01*
X876300D01*
Y5981700D01*
X774700D01*
X1028700Y6235700D02*
Y6337300D01*
X1130300D01*
Y6235700D01*
X1028700D01*
X774700D02*
Y6337300D01*
X876300D01*
Y6235700D01*
X774700D01*
X1028700Y6489700D02*
Y6591300D01*
X1130300D01*
Y6489700D01*
X1028700D01*
X774700D02*
Y6591300D01*
X876300D01*
Y6489700D01*
X774700D01*
X1028700Y6743700D02*
Y6845300D01*
X1130300D01*
Y6743700D01*
X1028700D01*
X774700D02*
Y6845300D01*
X876300D01*
Y6743700D01*
X774700D01*
X4968664Y6480536D02*
X4917864Y6582136D01*
X5019464D01*
X4968664Y6480536D01*
X6000700Y9359200D02*
X5949900Y9460800D01*
X6051500D01*
X6000700Y9359200D01*
X6130000Y9169200D02*
X6079200Y9270800D01*
X6180800D01*
X6130000Y9169200D01*
X6254700Y9359200D02*
X6203900Y9460800D01*
X6305500D01*
X6254700Y9359200D01*
X6460000Y7289200D02*
X6409200Y7390800D01*
X6510800D01*
X6460000Y7289200D01*
Y5789200D02*
X6409200Y5890800D01*
X6510800D01*
X6460000Y5789200D01*
X5970000Y6289200D02*
X5919200Y6390800D01*
X6020800D01*
X5970000Y6289200D01*
X6300000Y5949200D02*
X6249200Y6050800D01*
X6350800D01*
X6300000Y5949200D01*
Y7289200D02*
X6249200Y7390800D01*
X6350800D01*
X6300000Y7289200D01*
X6140000D02*
X6089200Y7390800D01*
X6190800D01*
X6140000Y7289200D01*
Y6109200D02*
X6089200Y6210800D01*
X6190800D01*
X6140000Y6109200D01*
X6390000Y8037200D02*
X6339200Y8138800D01*
X6440800D01*
X6390000Y8037200D01*
X6130000Y8805200D02*
X6079200Y8906800D01*
X6180800D01*
X6130000Y8805200D01*
X6240000Y9079200D02*
X6189200Y9180800D01*
X6290800D01*
X6240000Y9079200D01*
X6390000Y8949200D02*
X6339200Y9050800D01*
X6440800D01*
X6390000Y8949200D01*
X6240000Y8449200D02*
X6189200Y8550800D01*
X6290800D01*
X6240000Y8449200D01*
X6510000Y8809200D02*
X6459200Y8910800D01*
X6560800D01*
X6510000Y8809200D01*
X5970000Y7289200D02*
X5919200Y7390800D01*
X6020800D01*
X5970000Y7289200D01*
X5810000Y4629200D02*
X5759200Y4730800D01*
X5860800D01*
X5810000Y4629200D01*
Y6429200D02*
X5759200Y6530800D01*
X5860800D01*
X5810000Y6429200D01*
X5873700Y9359200D02*
X5822900Y9460800D01*
X5924500D01*
X5873700Y9359200D01*
X5746700D02*
X5695900Y9460800D01*
X5797500D01*
X5746700Y9359200D01*
X5620000Y6629200D02*
X5569200Y6730800D01*
X5670800D01*
X5620000Y6629200D01*
X5490000Y6749200D02*
X5439200Y6850800D01*
X5540800D01*
X5490000Y6749200D01*
X5620000Y5079200D02*
X5569200Y5180800D01*
X5670800D01*
X5620000Y5079200D01*
X5490000Y5449200D02*
X5439200Y5550800D01*
X5540800D01*
X5490000Y5449200D01*
X5240000Y7109200D02*
X5189200Y7210800D01*
X5290800D01*
X5240000Y7109200D01*
X5090000Y7199200D02*
X5039200Y7300800D01*
X5140800D01*
X5090000Y7199200D01*
X5240000Y7939200D02*
X5189200Y8040800D01*
X5290800D01*
X5240000Y7939200D01*
X5100000Y7439200D02*
X5049200Y7540800D01*
X5150800D01*
X5100000Y7439200D01*
X4970000Y7329200D02*
X4919200Y7430800D01*
X5020800D01*
X4970000Y7329200D01*
X5110000Y8089200D02*
X5059200Y8190800D01*
X5160800D01*
X5110000Y8089200D01*
X4984700Y9359200D02*
X4933900Y9460800D01*
X5035500D01*
X4984700Y9359200D01*
X5090000Y6079200D02*
X5039200Y6180800D01*
X5140800D01*
X5090000Y6079200D01*
X4860000Y7469200D02*
X4809200Y7570800D01*
X4910800D01*
X4860000Y7469200D01*
Y6839200D02*
X4809200Y6940800D01*
X4910800D01*
X4860000Y6839200D01*
X4730000Y7209200D02*
X4679200Y7310800D01*
X4780800D01*
X4730000Y7209200D01*
Y7629200D02*
X4679200Y7730800D01*
X4780800D01*
X4730000Y7629200D01*
X4860000Y7889200D02*
X4809200Y7990800D01*
X4910800D01*
X4860000Y7889200D01*
X4476700Y9359200D02*
X4425900Y9460800D01*
X4527500D01*
X4476700Y9359200D01*
X4860000Y8339200D02*
X4809200Y8440800D01*
X4910800D01*
X4860000Y8339200D01*
X6880000Y6539200D02*
X6829200Y6640800D01*
X6930800D01*
X6880000Y6539200D01*
Y8429200D02*
X6829200Y8530800D01*
X6930800D01*
X6880000Y8429200D01*
X6770000Y6899200D02*
X6719200Y7000800D01*
X6820800D01*
X6770000Y6899200D01*
Y8539200D02*
X6719200Y8640800D01*
X6820800D01*
X6770000Y8539200D01*
X6640000Y8679200D02*
X6589200Y8780800D01*
X6690800D01*
X6640000Y8679200D01*
Y7259200D02*
X6589200Y7360800D01*
X6690800D01*
X6640000Y7259200D01*
X6510000Y7649200D02*
X6459200Y7750800D01*
X6560800D01*
X6510000Y7649200D01*
X5238700Y9359200D02*
X5187900Y9460800D01*
X5289500D01*
X5238700Y9359200D01*
X7016700D02*
X6965900Y9460800D01*
X7067500D01*
X7016700Y9359200D01*
X3457750D02*
X3406950Y9460800D01*
X3508550D01*
X3457750Y9359200D01*
X4349700D02*
X4298900Y9460800D01*
X4400500D01*
X4349700Y9359200D01*
X2952700D02*
X2901900Y9460800D01*
X3003500D01*
X2952700Y9359200D01*
X4730700D02*
X4679900Y9460800D01*
X4781500D01*
X4730700Y9359200D01*
X3206700D02*
X3155900Y9460800D01*
X3257500D01*
X3206700Y9359200D01*
X2698700D02*
X2647900Y9460800D01*
X2749500D01*
X2698700Y9359200D01*
X2317700D02*
X2266900Y9460800D01*
X2368500D01*
X2317700Y9359200D01*
D34*
X2495500Y9460000D02*
G03*
X2495500Y9460000I-50800J0D01*
G01*
X2622500D02*
G03*
X2622500Y9460000I-50800J0D01*
G01*
X7321500D02*
G03*
X7321500Y9460000I-50800J0D01*
G01*
X7194500D02*
G03*
X7194500Y9460000I-50800J0D01*
G01*
%TF.MD5,c157ce9516af48d17d4d78b481fbedab*%
M02*
