%TF.GenerationSoftware,Altium Limited,Altium Designer,22.11.1 (43)*%
G04 Layer_Color=255*
%FSLAX45Y45*%
%MOMM*%
%TF.SameCoordinates,C297AA42-F212-4987-B5A2-20FF98F52B47*%
%TF.FilePolarity,Positive*%
%TF.FileFunction,Pads,Bot*%
%TF.Part,Single*%
G01*
G75*
%TA.AperFunction,SMDPad,CuDef*%
%ADD10R,0.53000X4.57200*%
%TA.AperFunction,ComponentPad*%
%ADD14C,1.72500*%
%ADD15R,1.72500X1.72500*%
D10*
X5238700Y9760000D02*
D03*
X7270700D02*
D03*
X7143700D02*
D03*
X7016700D02*
D03*
X6889700D02*
D03*
X6762700D02*
D03*
X6635700D02*
D03*
X6508700D02*
D03*
X6381700D02*
D03*
X6254700D02*
D03*
X6127700D02*
D03*
X6000700D02*
D03*
X5873700D02*
D03*
X5746700D02*
D03*
X5619700D02*
D03*
X5492700D02*
D03*
X5111700D02*
D03*
X4984700D02*
D03*
X4857700D02*
D03*
X4730700D02*
D03*
X4603700D02*
D03*
X4476700D02*
D03*
X4349700D02*
D03*
X4222700D02*
D03*
X4095700D02*
D03*
X3968700D02*
D03*
X3841700D02*
D03*
X3714700D02*
D03*
X3587700D02*
D03*
X3460700D02*
D03*
X3333700D02*
D03*
X3206700D02*
D03*
X3079700D02*
D03*
X2952700D02*
D03*
X2825700D02*
D03*
X2698700D02*
D03*
X2571700D02*
D03*
X2444700D02*
D03*
X2317700D02*
D03*
D14*
X8826500Y2095500D02*
D03*
X8572500D02*
D03*
X8826500Y2349500D02*
D03*
X8572500D02*
D03*
X8826500Y2603500D02*
D03*
X8572500D02*
D03*
X8826500Y2857500D02*
D03*
X8572500D02*
D03*
X8826500Y3111500D02*
D03*
X8572500D02*
D03*
X8826500Y3365500D02*
D03*
X8572500D02*
D03*
X8826500Y3619500D02*
D03*
X8572500D02*
D03*
X8826500Y3873500D02*
D03*
X8572500D02*
D03*
X8826500Y4127500D02*
D03*
X8572500D02*
D03*
X8826500Y4381500D02*
D03*
X8572500D02*
D03*
X8826500Y4635500D02*
D03*
X8572500D02*
D03*
X8826500Y4889500D02*
D03*
X8572500D02*
D03*
X8826500Y5143500D02*
D03*
X8572500D02*
D03*
X8826500Y5397500D02*
D03*
X8572500D02*
D03*
X8826500Y5651500D02*
D03*
X8572500D02*
D03*
X8826500Y5905500D02*
D03*
X8572500D02*
D03*
X8826500Y6159500D02*
D03*
X8572500D02*
D03*
X8826500Y6413500D02*
D03*
X8572500D02*
D03*
X8826500Y6667500D02*
D03*
X8572500D02*
D03*
X8826500Y6921500D02*
D03*
X1079500Y1968500D02*
D03*
X825500D02*
D03*
X1079500Y2222500D02*
D03*
X825500D02*
D03*
X1079500Y2476500D02*
D03*
X825500D02*
D03*
X1079500Y2730500D02*
D03*
X825500D02*
D03*
X1079500Y2984500D02*
D03*
X825500D02*
D03*
X1079500Y3238500D02*
D03*
X825500D02*
D03*
X1079500Y3492500D02*
D03*
X825500D02*
D03*
X1079500Y3746500D02*
D03*
X825500D02*
D03*
X1079500Y4000500D02*
D03*
X825500D02*
D03*
X1079500Y4254500D02*
D03*
X825500D02*
D03*
X1079500Y4508500D02*
D03*
X825500D02*
D03*
X1079500Y4762500D02*
D03*
X825500D02*
D03*
X1079500Y5016500D02*
D03*
X825500D02*
D03*
X1079500Y5270500D02*
D03*
X825500D02*
D03*
X1079500Y5524500D02*
D03*
X825500D02*
D03*
X1079500Y5778500D02*
D03*
X825500D02*
D03*
X1079500Y6032500D02*
D03*
X825500D02*
D03*
X1079500Y6286500D02*
D03*
X825500D02*
D03*
X1079500Y6540500D02*
D03*
X825500D02*
D03*
X1079500Y6794500D02*
D03*
D15*
X8572500Y6921500D02*
D03*
X825500Y6794500D02*
D03*
%TF.MD5,34ec5be75795a4be377f9e735ad8da47*%
M02*
