%TF.GenerationSoftware,Altium Limited,Altium Designer,22.11.1 (43)*%
G04 Layer_Color=65535*
%FSLAX45Y45*%
%MOMM*%
%TF.SameCoordinates,CC3570FD-A2D7-4FBA-AFAC-830B96578B4B*%
%TF.FilePolarity,Positive*%
%TF.FileFunction,Legend,Top*%
%TF.Part,Single*%
G01*
G75*
%TA.AperFunction,NonConductor*%
%ADD14C,0.25400*%
%ADD24C,0.25000*%
%ADD25C,0.20000*%
%ADD26C,0.10000*%
%ADD27C,1.00000*%
%ADD28C,0.60000*%
%ADD29C,0.40000*%
%ADD30C,0.50800*%
D14*
X1773824Y1115989D02*
X1926175D01*
Y1192164D01*
X1900783Y1217556D01*
X1875392D01*
X1850000Y1192164D01*
Y1115989D01*
Y1192164D01*
X1824608Y1217556D01*
X1799216D01*
X1773824Y1192164D01*
Y1115989D01*
X1926175Y1268339D02*
X1824608D01*
X1773824Y1319123D01*
X1824608Y1369907D01*
X1926175D01*
X1850000D01*
Y1268339D01*
X1773824Y1420690D02*
Y1522257D01*
Y1471474D01*
X1926175D01*
X1773824Y1573041D02*
Y1674608D01*
Y1623824D01*
X1926175D01*
X1773824Y1953918D02*
Y1903134D01*
X1799216Y1877742D01*
X1900783D01*
X1926175Y1903134D01*
Y1953918D01*
X1900783Y1979309D01*
X1799216D01*
X1773824Y1953918D01*
Y2030093D02*
X1900783D01*
X1926175Y2055485D01*
Y2106268D01*
X1900783Y2131660D01*
X1773824D01*
Y2182444D02*
Y2284011D01*
Y2233227D01*
X1926175D01*
X4143824Y1115989D02*
X4296175D01*
Y1192164D01*
X4270783Y1217556D01*
X4245392D01*
X4220000Y1192164D01*
Y1115989D01*
Y1192164D01*
X4194608Y1217556D01*
X4169216D01*
X4143824Y1192164D01*
Y1115989D01*
X4296175Y1268339D02*
X4194608D01*
X4143824Y1319123D01*
X4194608Y1369907D01*
X4296175D01*
X4220000D01*
Y1268339D01*
X4143824Y1420690D02*
Y1522257D01*
Y1471474D01*
X4296175D01*
X4143824Y1573041D02*
Y1674608D01*
Y1623824D01*
X4296175D01*
X4143824Y1953918D02*
Y1903134D01*
X4169216Y1877742D01*
X4270783D01*
X4296175Y1903134D01*
Y1953918D01*
X4270783Y1979309D01*
X4169216D01*
X4143824Y1953918D01*
Y2030093D02*
X4270783D01*
X4296175Y2055485D01*
Y2106268D01*
X4270783Y2131660D01*
X4143824D01*
Y2182444D02*
Y2284011D01*
Y2233227D01*
X4296175D01*
X6389216Y1171726D02*
X6363824Y1146334D01*
Y1095551D01*
X6389216Y1070159D01*
X6414608D01*
X6440000Y1095551D01*
Y1146334D01*
X6465392Y1171726D01*
X6490783D01*
X6516175Y1146334D01*
Y1095551D01*
X6490783Y1070159D01*
X6516175Y1222509D02*
X6363824D01*
Y1298685D01*
X6389216Y1324077D01*
X6440000D01*
X6465392Y1298685D01*
Y1222509D01*
Y1273293D02*
X6516175Y1324077D01*
Y1374860D02*
X6414608D01*
X6363824Y1425644D01*
X6414608Y1476427D01*
X6516175D01*
X6440000D01*
Y1374860D01*
X6363824Y1527211D02*
X6516175D01*
Y1603386D01*
X6490783Y1628778D01*
X6389216D01*
X6363824Y1603386D01*
Y1527211D01*
X6389216Y1933479D02*
X6363824Y1908088D01*
Y1857304D01*
X6389216Y1831912D01*
X6414608D01*
X6440000Y1857304D01*
Y1908088D01*
X6465392Y1933479D01*
X6490783D01*
X6516175Y1908088D01*
Y1857304D01*
X6490783Y1831912D01*
X6363824Y1984263D02*
X6516175D01*
X6465392Y2035046D01*
X6516175Y2085830D01*
X6363824D01*
Y2136614D02*
Y2187397D01*
Y2162006D01*
X6516175D01*
Y2136614D01*
Y2187397D01*
X6363824Y2263573D02*
Y2365140D01*
Y2314356D01*
X6516175D01*
X6389216Y2517491D02*
X6363824Y2492099D01*
Y2441315D01*
X6389216Y2415923D01*
X6490783D01*
X6516175Y2441315D01*
Y2492099D01*
X6490783Y2517491D01*
X6363824Y2568274D02*
X6516175D01*
X6440000D01*
Y2669841D01*
X6363824D01*
X6516175D01*
D24*
X7311000Y2642500D02*
G03*
X7311000Y2642500I-12500J0D01*
G01*
X6906000Y2410000D02*
G03*
X6906000Y2410000I-12500J0D01*
G01*
X3792500Y2642500D02*
G03*
X3792500Y2642500I-12500J0D01*
G01*
X3387500Y2410000D02*
G03*
X3387500Y2410000I-12500J0D01*
G01*
X2722500Y2642500D02*
G03*
X2722500Y2642500I-12500J0D01*
G01*
X2317500Y2410000D02*
G03*
X2317500Y2410000I-12500J0D01*
G01*
D25*
X6589500Y1041000D02*
Y2359000D01*
Y1041000D02*
X7587500D01*
Y2359000D01*
X7473500D02*
X7587500D01*
X7053500D02*
X7123500D01*
X6589500D02*
X6703500D01*
X3071000Y1041000D02*
Y2359000D01*
Y1041000D02*
X4069000D01*
Y2359000D01*
X3955000D02*
X4069000D01*
X3535000D02*
X3605000D01*
X3071000D02*
X3185000D01*
X2001000Y1041000D02*
Y2359000D01*
Y1041000D02*
X2999000D01*
Y2359000D01*
X2885000D02*
X2999000D01*
X2465000D02*
X2535000D01*
X2001000D02*
X2115000D01*
D26*
X941250Y7989000D02*
X7294250D01*
X941250Y4011000D02*
Y7989000D01*
Y4011000D02*
X8647250D01*
Y7989000D01*
X8644250D02*
X8647250D01*
X7794250D02*
X8644250D01*
D27*
X8723387Y5066000D02*
X9056613D01*
X8890000Y5232613D02*
Y4899387D01*
X3226710Y2930000D02*
X3493290D01*
X2156710D02*
X2423290D01*
X2576710D02*
X2843290D01*
X2710000Y3063290D02*
Y2796710D01*
X3646710Y2930000D02*
X3913290D01*
X3780000Y3063290D02*
Y2796710D01*
X578500Y6812387D02*
Y7145613D01*
X578500Y5232613D02*
Y4899387D01*
X8723387Y6979000D02*
X9056613D01*
X8890000Y7145613D02*
Y6812387D01*
D28*
X1295360Y8449935D02*
Y8316645D01*
X1362005Y8250000D01*
X1428650Y8316645D01*
Y8449935D01*
X1628586D02*
X1495295D01*
Y8250000D01*
X1628586D01*
X1495295Y8349968D02*
X1561940D01*
X1695231Y8250000D02*
Y8449935D01*
X1795199D01*
X1828521Y8416613D01*
Y8349968D01*
X1795199Y8316645D01*
X1695231D01*
X1761876D02*
X1828521Y8250000D01*
X1895167Y8449935D02*
X1961812D01*
X1928489D01*
Y8250000D01*
X1895167D01*
X1961812D01*
X2195070Y8449935D02*
X2061779D01*
Y8349968D01*
X2128424D01*
X2061779D01*
Y8250000D01*
X2261715Y8449935D02*
Y8416613D01*
X2328360Y8349968D01*
X2395005Y8416613D01*
Y8449935D01*
X2328360Y8349968D02*
Y8250000D01*
X2661586D02*
Y8383290D01*
X2728231Y8449935D01*
X2794877Y8383290D01*
Y8250000D01*
Y8349968D01*
X2661586D01*
X2861522Y8449935D02*
Y8250000D01*
X2994812D01*
X3061457Y8449935D02*
X3128102D01*
X3094780D01*
Y8250000D01*
X3061457D01*
X3128102D01*
X3361361Y8416613D02*
X3328038Y8449935D01*
X3261393D01*
X3228070Y8416613D01*
Y8283322D01*
X3261393Y8250000D01*
X3328038D01*
X3361361Y8283322D01*
Y8349968D01*
X3294715D01*
X3428006Y8250000D02*
Y8449935D01*
X3561296Y8250000D01*
Y8449935D01*
X3627941Y8250000D02*
Y8449935D01*
X3694586Y8383290D01*
X3761232Y8449935D01*
Y8250000D01*
X3961167Y8449935D02*
X3827877D01*
Y8250000D01*
X3961167D01*
X3827877Y8349968D02*
X3894522D01*
X4027813Y8250000D02*
Y8449935D01*
X4161103Y8250000D01*
Y8449935D01*
X4227748D02*
X4361039D01*
X4294393D01*
Y8250000D01*
X4627619D02*
Y8449935D01*
X4727587D01*
X4760910Y8416613D01*
Y8349968D01*
X4727587Y8316645D01*
X4627619D01*
X4827555Y8250000D02*
Y8449935D01*
X4927523D01*
X4960845Y8416613D01*
Y8349968D01*
X4927523Y8316645D01*
X4827555D01*
X4894200D02*
X4960845Y8250000D01*
X5027491Y8449935D02*
X5094136D01*
X5060813D01*
Y8250000D01*
X5027491D01*
X5094136D01*
X5294071Y8449935D02*
X5227426D01*
X5194103Y8416613D01*
Y8283322D01*
X5227426Y8250000D01*
X5294071D01*
X5327394Y8283322D01*
Y8416613D01*
X5294071Y8449935D01*
X5394039Y8250000D02*
Y8449935D01*
X5494007D01*
X5527329Y8416613D01*
Y8349968D01*
X5494007Y8316645D01*
X5394039D01*
X5460684D02*
X5527329Y8250000D01*
X5793910Y8449935D02*
X5927200D01*
X5860555D01*
Y8250000D01*
X6093814Y8449935D02*
X6027168D01*
X5993846Y8416613D01*
Y8283322D01*
X6027168Y8250000D01*
X6093814D01*
X6127136Y8283322D01*
Y8416613D01*
X6093814Y8449935D01*
X6527007Y8416613D02*
X6493685Y8449935D01*
X6427039D01*
X6393717Y8416613D01*
Y8283322D01*
X6427039Y8250000D01*
X6493685D01*
X6527007Y8283322D01*
X6693620Y8449935D02*
X6626975D01*
X6593653Y8416613D01*
Y8283322D01*
X6626975Y8250000D01*
X6693620D01*
X6726943Y8283322D01*
Y8416613D01*
X6693620Y8449935D01*
X6793588Y8250000D02*
Y8449935D01*
X6926878Y8250000D01*
Y8449935D01*
X6993524Y8250000D02*
Y8449935D01*
X7126814Y8250000D01*
Y8449935D01*
X7326750D02*
X7193459D01*
Y8250000D01*
X7326750D01*
X7193459Y8349968D02*
X7260104D01*
X7526685Y8416613D02*
X7493363Y8449935D01*
X7426717D01*
X7393395Y8416613D01*
Y8283322D01*
X7426717Y8250000D01*
X7493363D01*
X7526685Y8283322D01*
X7593331Y8449935D02*
X7726621D01*
X7659976D01*
Y8250000D01*
X7793266Y8449935D02*
X7859911D01*
X7826589D01*
Y8250000D01*
X7793266D01*
X7859911D01*
X8059847Y8449935D02*
X7993201D01*
X7959879Y8416613D01*
Y8283322D01*
X7993201Y8250000D01*
X8059847D01*
X8093169Y8283322D01*
Y8416613D01*
X8059847Y8449935D01*
X8159815Y8250000D02*
Y8449935D01*
X8293105Y8250000D01*
Y8449935D01*
D29*
X8071790Y1209936D02*
X8005145D01*
X8038468D01*
Y1043323D01*
X8005145Y1010000D01*
X7971823D01*
X7938500Y1043323D01*
X8138436Y1209936D02*
Y1043323D01*
X8171758Y1010000D01*
X8238403D01*
X8271726Y1043323D01*
Y1209936D01*
X8338371D02*
Y1010000D01*
X8471661D01*
X8538307Y1209936D02*
Y1010000D01*
X8671597D01*
X7938500Y1509936D02*
Y1310000D01*
X8038468D01*
X8071790Y1343322D01*
Y1476613D01*
X8038468Y1509936D01*
X7938500D01*
X8138436Y1310000D02*
Y1443290D01*
X8205081Y1509936D01*
X8271726Y1443290D01*
Y1310000D01*
Y1409968D01*
X8138436D01*
X8338371Y1310000D02*
Y1509936D01*
X8438339D01*
X8471661Y1476613D01*
Y1409968D01*
X8438339Y1376645D01*
X8338371D01*
X8405016D02*
X8471661Y1310000D01*
X8538307Y1509936D02*
Y1310000D01*
X8604952Y1376645D01*
X8671597Y1310000D01*
Y1509936D01*
X8738242D02*
X8804887D01*
X8771565D01*
Y1310000D01*
X8738242D01*
X8804887D01*
X8904855D02*
Y1509936D01*
X9038145Y1310000D01*
Y1509936D01*
X910193Y1010000D02*
X776903D01*
X910193Y1143290D01*
Y1176613D01*
X876871Y1209936D01*
X810225D01*
X776903Y1176613D01*
X976839D02*
X1010161Y1209936D01*
X1076806D01*
X1110129Y1176613D01*
Y1043323D01*
X1076806Y1010000D01*
X1010161D01*
X976839Y1043323D01*
Y1176613D01*
X1310064Y1010000D02*
X1176774D01*
X1310064Y1143290D01*
Y1176613D01*
X1276742Y1209936D01*
X1210097D01*
X1176774Y1176613D01*
X1510000Y1010000D02*
X1376710D01*
X1510000Y1143290D01*
Y1176613D01*
X1476678Y1209936D01*
X1410032D01*
X1376710Y1176613D01*
D30*
X8289235Y630719D02*
X8239251Y680703D01*
X8139284D01*
X8089300Y630719D01*
Y430784D01*
X8139284Y380800D01*
X8239251D01*
X8289235Y430784D01*
X8539154Y680703D02*
X8439187D01*
X8389203Y630719D01*
Y430784D01*
X8439187Y380800D01*
X8539154D01*
X8589138Y430784D01*
Y630719D01*
X8539154Y680703D01*
X8689106Y380800D02*
Y680703D01*
X8889041Y380800D01*
Y680703D01*
X399556Y380800D02*
Y680703D01*
X549507D01*
X599491Y630719D01*
Y530752D01*
X549507Y480768D01*
X399556D01*
X499524D02*
X599491Y380800D01*
X899394Y680703D02*
X699459D01*
Y380800D01*
X899394D01*
X699459Y530752D02*
X799426D01*
X999362Y680703D02*
Y480768D01*
X1099329Y380800D01*
X1199297Y480768D01*
Y680703D01*
X1299265D02*
Y380800D01*
X1449216D01*
X1499200Y430784D01*
Y630719D01*
X1449216Y680703D01*
X1299265D01*
%TF.MD5,6ae0fc40c0e2d4975d713619ed10ff71*%
M02*
