%TF.GenerationSoftware,Altium Limited,Altium Designer,22.11.1 (43)*%
G04 Layer_Color=255*
%FSLAX45Y45*%
%MOMM*%
%TF.SameCoordinates,CC3570FD-A2D7-4FBA-AFAC-830B96578B4B*%
%TF.FilePolarity,Positive*%
%TF.FileFunction,Pads,Top*%
%TF.Part,Single*%
G01*
G75*
%TA.AperFunction,SMDPad,CuDef*%
%ADD10R,0.53000X4.57200*%
%TA.AperFunction,ComponentPad*%
%ADD15C,3.00000*%
%ADD16R,2.75000X2.75000*%
%ADD17C,2.75000*%
%ADD18C,1.98000*%
%ADD19C,3.57000*%
%ADD20C,5.32500*%
%ADD21C,4.77000*%
D10*
X2317650Y9760000D02*
D03*
X2444650D02*
D03*
X2571650D02*
D03*
X2698650D02*
D03*
X2825650D02*
D03*
X2952650D02*
D03*
X3079650D02*
D03*
X3206650D02*
D03*
X3333650D02*
D03*
X3460650D02*
D03*
X3587650D02*
D03*
X3714650D02*
D03*
X3841650D02*
D03*
X3968650D02*
D03*
X4095650D02*
D03*
X4222650D02*
D03*
X4349650D02*
D03*
X4476650D02*
D03*
X4603650D02*
D03*
X4730650D02*
D03*
X4857650D02*
D03*
X4984650D02*
D03*
X5111650D02*
D03*
X5238650D02*
D03*
X5492650D02*
D03*
X5619650D02*
D03*
X5746650D02*
D03*
X5873650D02*
D03*
X6000650D02*
D03*
X6127650D02*
D03*
X6254650D02*
D03*
X6381650D02*
D03*
X6508650D02*
D03*
X6635650D02*
D03*
X6762650D02*
D03*
X6889650D02*
D03*
X7016650D02*
D03*
X7143650D02*
D03*
X7270650D02*
D03*
D15*
X7088500Y1720000D02*
D03*
X3570000D02*
D03*
X2500000D02*
D03*
D16*
X7298500Y2450000D02*
D03*
X3780000D02*
D03*
X2710000D02*
D03*
D17*
X6878500D02*
D03*
X3360000D02*
D03*
X2290000D02*
D03*
D18*
X8405250Y6979000D02*
D03*
Y5066000D02*
D03*
X1183250Y6979000D02*
D03*
Y5066000D02*
D03*
D19*
X8405250Y4229000D02*
D03*
D20*
X7554250Y7771000D02*
D03*
Y6024000D02*
D03*
D21*
X2034250Y4271000D02*
D03*
Y6024000D02*
D03*
%TF.MD5,7409fa60d7a3ea842c6544ee56d36747*%
M02*
