%TF.GenerationSoftware,Altium Limited,Altium Designer,22.11.1 (43)*%
G04 Layer_Color=128*
%FSLAX45Y45*%
%MOMM*%
%TF.SameCoordinates,CC3570FD-A2D7-4FBA-AFAC-830B96578B4B*%
%TF.FilePolarity,Positive*%
%TF.FileFunction,Drillmap*%
%TF.Part,Single*%
G01*
G75*
%TA.AperFunction,NonConductor*%
%ADD48C,0.12700*%
D48*
X6938500Y1720000D02*
X7238500D01*
X7088500Y1570000D02*
Y1870000D01*
X7208500Y2450000D02*
X7388500D01*
X7298500Y2360000D02*
Y2540000D01*
X6788500Y2450000D02*
X6968500D01*
X6878500Y2360000D02*
Y2540000D01*
X3420000Y1720000D02*
X3720000D01*
X3570000Y1570000D02*
Y1870000D01*
X3690000Y2450000D02*
X3870000D01*
X3780000Y2360000D02*
Y2540000D01*
X3270000Y2450000D02*
X3450000D01*
X3360000Y2360000D02*
Y2540000D01*
X2350000Y1720000D02*
X2650000D01*
X2500000Y1570000D02*
Y1870000D01*
X2620000Y2450000D02*
X2800000D01*
X2710000Y2360000D02*
Y2540000D01*
X2200000Y2450000D02*
X2380000D01*
X2290000Y2360000D02*
Y2540000D01*
X8339250Y6979000D02*
X8471250D01*
X8405250Y6913000D02*
Y7045000D01*
X8339250Y5066000D02*
X8471250D01*
X8405250Y5000000D02*
Y5132000D01*
X1117250Y6979000D02*
X1249250D01*
X1183250Y6913000D02*
Y7045000D01*
X1117250Y5066000D02*
X1249250D01*
X1183250Y5000000D02*
Y5132000D01*
X8286250Y4229000D02*
X8524250D01*
X8405250Y4110000D02*
Y4348000D01*
X7376750Y7771000D02*
X7731750D01*
X7554250Y7593500D02*
Y7948500D01*
X7376750Y6024000D02*
X7731750D01*
X7554250Y5846500D02*
Y6201500D01*
X1875250Y4271000D02*
X2193250D01*
X2034250Y4112000D02*
Y4430000D01*
X1875250Y6024000D02*
X2193250D01*
X2034250Y5865000D02*
Y6183000D01*
X7004000Y9410000D02*
X7029400D01*
X7016700Y9397300D02*
Y9422700D01*
X6242000Y9410000D02*
X6267400D01*
X6254700Y9397300D02*
Y9422700D01*
X5988000Y9410000D02*
X6013400D01*
X6000700Y9397300D02*
Y9422700D01*
X5861000Y9410000D02*
X5886400D01*
X5873700Y9397300D02*
Y9422700D01*
X5734000Y9410000D02*
X5759400D01*
X5746700Y9397300D02*
Y9422700D01*
X5226000Y9410000D02*
X5251400D01*
X5238700Y9397300D02*
Y9422700D01*
X4972000Y9410000D02*
X4997400D01*
X4984700Y9397300D02*
Y9422700D01*
X4718000Y9410000D02*
X4743400D01*
X4730700Y9397300D02*
Y9422700D01*
X4464000Y9410000D02*
X4489400D01*
X4476700Y9397300D02*
Y9422700D01*
X4337000Y9410000D02*
X4362400D01*
X4349700Y9397300D02*
Y9422700D01*
X3448000Y9410000D02*
X3473400D01*
X3460700Y9397300D02*
Y9422700D01*
X3194000Y9410000D02*
X3219400D01*
X3206700Y9397300D02*
Y9422700D01*
X2940000Y9410000D02*
X2965400D01*
X2952700Y9397300D02*
Y9422700D01*
X2686000Y9410000D02*
X2711400D01*
X2698700Y9397300D02*
Y9422700D01*
X2305000Y9410000D02*
X2330400D01*
X2317700Y9397300D02*
Y9422700D01*
X2426900Y9460000D02*
X2462500D01*
X2444700Y9442200D02*
Y9477800D01*
X2553900Y9460000D02*
X2589500D01*
X2571700Y9442200D02*
Y9477800D01*
X7252900Y9460000D02*
X7288500D01*
X7270700Y9442200D02*
Y9477800D01*
X7125900Y9460000D02*
X7161500D01*
X7143700Y9442200D02*
Y9477800D01*
%TF.MD5,249e3bcc20430587792a9b047bdcc5a8*%
M02*
