%TF.GenerationSoftware,Altium Limited,Altium Designer,22.11.1 (43)*%
G04 Layer_Physical_Order=1*
G04 Layer_Color=255*
%FSLAX45Y45*%
%MOMM*%
%TF.SameCoordinates,CC3570FD-A2D7-4FBA-AFAC-830B96578B4B*%
%TF.FilePolarity,Positive*%
%TF.FileFunction,Copper,L1,Top,Signal*%
%TF.Part,Single*%
G01*
G75*
%TA.AperFunction,SMDPad,CuDef*%
%ADD10R,0.53000X4.57200*%
%TA.AperFunction,Conductor*%
%ADD11C,4.00000*%
%ADD12C,0.29300*%
%ADD13C,0.50000*%
%TA.AperFunction,NonConductor*%
%ADD14C,0.25400*%
%TA.AperFunction,ComponentPad*%
%ADD15C,3.00000*%
%ADD16R,2.75000X2.75000*%
%ADD17C,2.75000*%
%ADD18C,1.98000*%
%ADD19C,3.57000*%
%ADD20C,5.32500*%
%ADD21C,4.77000*%
%TA.AperFunction,ViaPad*%
%ADD22C,0.44400*%
%ADD23C,0.63500*%
G36*
X3200464Y3824363D02*
X3198838Y3806479D01*
X3195586Y3798349D01*
X3192334Y3778838D01*
X3189896Y3766644D01*
X3188270Y3760140D01*
X3185831Y3751198D01*
X3183392Y3732500D01*
X3181766Y3725996D01*
X3179327Y3717054D01*
X3177701Y3710550D01*
X3175263Y3691853D01*
X3172824Y3682910D01*
X3169572Y3669903D01*
X3167946Y3653644D01*
X3166320Y3648766D01*
X3163068Y3637385D01*
X3161442Y3626004D01*
X3159004Y3612184D01*
X3156565Y3603241D01*
X3154939Y3596738D01*
X3153313Y3585356D01*
X3150874Y3571536D01*
X3146809Y3557716D01*
X3144370Y3539018D01*
X3142745Y3532514D01*
X3140306Y3523572D01*
X3138680Y3517068D01*
X3136241Y3498370D01*
X3134615Y3491867D01*
X3132176Y3482924D01*
X3130550Y3476421D01*
X3128924Y3460162D01*
X3127299Y3455284D01*
X3124047Y3443903D01*
X3122421Y3432522D01*
X3119982Y3418702D01*
X3117543Y3409759D01*
X3115917Y3403256D01*
X3114291Y3391874D01*
X3111853Y3378054D01*
X3109414Y3369112D01*
X3107788Y3362608D01*
X3105349Y3348788D01*
X3099658Y3338219D01*
X3094780Y3330090D01*
X3091529Y3326838D01*
X3089903Y3323586D01*
X3079334Y3313018D01*
X3076083Y3311392D01*
X3074457Y3308140D01*
X3063075Y3301637D01*
X3041939Y3291881D01*
X3035435Y3290256D01*
X3019989Y3287817D01*
X2998039Y3285378D01*
X2970399Y3287004D01*
X2965522Y3288630D01*
X2949263Y3290256D01*
X2938694Y3294320D01*
X2931378Y3296759D01*
X2920809Y3300824D01*
X2913493Y3304888D01*
X2902112Y3311392D01*
X2890730Y3319522D01*
X2881788Y3326838D01*
X2879349Y3329277D01*
X2876097Y3330903D01*
X2869593Y3337407D01*
X2866342Y3339032D01*
X2853334Y3352040D01*
X2850083Y3353666D01*
X2843579Y3360169D01*
X2840327Y3361795D01*
X2832198Y3369924D01*
X2828946Y3371551D01*
X2822442Y3378054D01*
X2819191Y3379680D01*
X2817565Y3382932D01*
X2814313Y3384558D01*
X2807809Y3391061D01*
X2804558Y3392687D01*
X2798054Y3399191D01*
X2794802Y3400817D01*
X2783421Y3412198D01*
X2780169Y3413824D01*
X2770414Y3423579D01*
X2767162Y3425205D01*
X2752529Y3439838D01*
X2749277Y3441464D01*
X2746025Y3446342D01*
X2742773Y3447968D01*
X2720011Y3470730D01*
X2717572Y3471543D01*
X2715946Y3474795D01*
X2713507Y3477234D01*
X2710255Y3478860D01*
X2707817Y3481299D01*
X2707003Y3483738D01*
X2703752Y3485363D01*
X2680989Y3508126D01*
X2677737Y3509752D01*
X2650097Y3537392D01*
X2646845Y3539018D01*
X2635464Y3550399D01*
X2633025Y3551212D01*
X2631399Y3554464D01*
X2625708Y3558529D01*
X2611076Y3573162D01*
X2608637Y3573975D01*
X2607011Y3577227D01*
X2596442Y3587795D01*
X2594003Y3588608D01*
X2592378Y3591860D01*
X2588313Y3595924D01*
X2585874Y3596738D01*
X2584248Y3599989D01*
X2581809Y3602428D01*
X2578557Y3604054D01*
X2576119Y3606493D01*
X2574493Y3609745D01*
X2569615Y3612997D01*
X2567989Y3616248D01*
X2565550Y3618687D01*
X2562298Y3620313D01*
X2557421Y3626817D01*
X2554169Y3628443D01*
X2550917Y3633320D01*
X2547665Y3634946D01*
X2545227Y3637385D01*
X2543601Y3640637D01*
X2537910Y3644702D01*
X2534658Y3649579D01*
X2531406Y3651205D01*
X2528968Y3653644D01*
X2527342Y3656896D01*
X2522464Y3660148D01*
X2520838Y3663399D01*
X2515147Y3667464D01*
X2511896Y3672342D01*
X2508644Y3673968D01*
X2505392Y3677219D01*
X2499701Y3676406D01*
X2497262Y3656083D01*
X2495637Y3647953D01*
X2493198Y3639011D01*
X2491572Y3632507D01*
X2487507Y3607306D01*
X2485068Y3598363D01*
X2483442Y3591860D01*
X2479378Y3568284D01*
X2476939Y3559342D01*
X2475313Y3552838D01*
X2472874Y3534140D01*
X2471248Y3527637D01*
X2468809Y3518694D01*
X2467184Y3512191D01*
X2464745Y3493493D01*
X2460680Y3479673D01*
X2459054Y3468292D01*
X2457428Y3455284D01*
X2455802Y3450407D01*
X2452550Y3439025D01*
X2450924Y3422766D01*
X2449299Y3416263D01*
X2446047Y3404881D01*
X2444421Y3398378D01*
X2440356Y3374802D01*
X2437104Y3361795D01*
X2433852Y3340658D01*
X2432227Y3334155D01*
X2429788Y3325212D01*
X2428162Y3313831D01*
X2425723Y3300011D01*
X2420845Y3295133D01*
X2268824Y3294320D01*
X2265572Y3295946D01*
X2263946Y3302450D01*
X2266385Y3313018D01*
X2268011Y3319522D01*
X2270450Y3328464D01*
X2272075Y3344723D01*
X2275327Y3357730D01*
X2278579Y3369112D01*
X2281018Y3387809D01*
X2285896Y3407320D01*
X2289960Y3434148D01*
X2293212Y3442277D01*
X2294838Y3458536D01*
X2296464Y3465040D01*
X2298090Y3474795D01*
X2301342Y3482924D01*
X2302968Y3499184D01*
X2307032Y3516255D01*
X2308658Y3522759D01*
X2310284Y3530889D01*
X2311910Y3543896D01*
X2313536Y3552025D01*
X2315975Y3560968D01*
X2317601Y3567471D01*
X2319227Y3583730D01*
X2320852Y3590234D01*
X2324104Y3601615D01*
X2325730Y3608119D01*
X2328169Y3626817D01*
X2329795Y3633320D01*
X2332234Y3642263D01*
X2333860Y3648766D01*
X2336299Y3667464D01*
X2338737Y3676406D01*
X2340363Y3682910D01*
X2341989Y3694291D01*
X2344428Y3708111D01*
X2346867Y3717054D01*
X2348493Y3723558D01*
X2351745Y3738191D01*
X2358248Y3752824D01*
X2359874Y3756076D01*
X2363126Y3759328D01*
X2369629Y3770709D01*
X2372881Y3773960D01*
X2376946Y3781277D01*
X2380198Y3782903D01*
X2384262Y3788594D01*
X2394018Y3796723D01*
X2406212Y3805665D01*
X2411090Y3807291D01*
X2414342Y3810543D01*
X2422471Y3813795D01*
X2428975Y3815421D01*
X2432227Y3818673D01*
X2438730Y3820299D01*
X2457428Y3824363D01*
X2466370Y3826802D01*
X2489946Y3827615D01*
X2506205Y3825989D01*
X2515147Y3823550D01*
X2534658Y3818673D01*
X2542788Y3813795D01*
X2549291Y3812169D01*
X2554169Y3807291D01*
X2562298Y3802414D01*
X2567176Y3797536D01*
X2570428Y3795910D01*
X2576932Y3789406D01*
X2580183Y3787781D01*
X2594817Y3773148D01*
X2598068Y3771522D01*
X2619205Y3750385D01*
X2622457Y3748759D01*
X2625708Y3743881D01*
X2628960Y3742255D01*
X2643593Y3727622D01*
X2646845Y3725996D01*
X2661478Y3711363D01*
X2664730Y3709738D01*
X2672860Y3701608D01*
X2675298Y3700795D01*
X2676924Y3697543D01*
X2682615Y3693479D01*
X2697248Y3678845D01*
X2699687Y3678033D01*
X2701313Y3674781D01*
X2707003Y3670716D01*
X2721637Y3656083D01*
X2724888Y3654457D01*
X2728140Y3649579D01*
X2731392Y3647953D01*
X2746025Y3633320D01*
X2749277Y3631694D01*
X2757406Y3623565D01*
X2760658Y3621939D01*
X2780169Y3602428D01*
X2783421Y3600802D01*
X2798054Y3586169D01*
X2801306Y3584543D01*
X2804558Y3579665D01*
X2806183D01*
X2806996Y3578853D01*
X2828946Y3556903D01*
X2832198Y3555277D01*
X2846831Y3540644D01*
X2850083Y3539018D01*
X2864716Y3524385D01*
X2867968Y3522759D01*
X2882601Y3508126D01*
X2885852Y3506500D01*
X2906989Y3485363D01*
X2910241Y3483738D01*
X2912680Y3481299D01*
X2913493Y3478860D01*
X2916744Y3477234D01*
X2931378Y3462601D01*
X2934629Y3460975D01*
X2943572Y3452032D01*
X2944385Y3449594D01*
X2950888Y3451219D01*
X2953327Y3460162D01*
X2956579Y3471543D01*
X2958205Y3478047D01*
X2960644Y3493493D01*
X2962270Y3499997D01*
X2964709Y3507313D01*
X2966334Y3518694D01*
X2970399Y3535766D01*
X2972838Y3544709D01*
X2974464Y3556090D01*
X2976090Y3565845D01*
X2979342Y3573975D01*
X2980968Y3585356D01*
X2982593Y3591860D01*
X2985032Y3604054D01*
X2987471Y3612997D01*
X2989097Y3619500D01*
X2991536Y3634946D01*
X2993162Y3641450D01*
X2995601Y3650392D01*
X2997227Y3656896D01*
X2999665Y3672342D01*
X3003730Y3686162D01*
X3005356Y3697543D01*
X3008608Y3712176D01*
X3010234Y3717054D01*
X3011860Y3723558D01*
X3013485Y3734939D01*
X3015924Y3745507D01*
X3019989Y3759328D01*
X3023241Y3780464D01*
X3024867Y3785342D01*
X3028119Y3796723D01*
X3030558Y3813795D01*
X3033809Y3821925D01*
X3038687Y3826802D01*
X3195586Y3827615D01*
X3200464Y3824363D01*
D02*
G37*
G36*
X4256486Y3826802D02*
X5012529Y3825176D01*
X5020658Y3821925D01*
X5031226Y3819486D01*
X5035291Y3815421D01*
X5038543Y3813795D01*
X5044234Y3809730D01*
X5045860Y3806479D01*
X5049111Y3804853D01*
X5055615Y3793471D01*
X5057241Y3788594D01*
X5060493Y3769083D01*
X5058867Y3739816D01*
X5057241Y3734939D01*
X5054802Y3719493D01*
X5052363Y3710550D01*
X5050737Y3704047D01*
X5048299Y3685349D01*
X5045860Y3676406D01*
X5042608Y3663399D01*
X5040169Y3644702D01*
X5037730Y3635759D01*
X5036104Y3629255D01*
X5034478Y3617874D01*
X5032039Y3604054D01*
X5029601Y3595112D01*
X5026349Y3582104D01*
X5024723Y3573975D01*
X5013342Y3552838D01*
X5005212Y3541457D01*
X4994644Y3530889D01*
X4991392Y3529263D01*
X4986514Y3524385D01*
X4981636Y3522759D01*
X4971881Y3516255D01*
X4962939Y3513817D01*
X4960500Y3511378D01*
X4953996Y3509752D01*
X4942615Y3508126D01*
X4342658Y3506500D01*
X4340219Y3504061D01*
X4337781Y3485363D01*
X4333716Y3471543D01*
X4332090Y3460162D01*
X4329651Y3446342D01*
X4327212Y3437399D01*
X4325586Y3430896D01*
X4323960Y3419514D01*
X4321521Y3407320D01*
X4319083Y3398378D01*
X4317457Y3391874D01*
X4315831Y3375615D01*
X4312579Y3364234D01*
X4309327Y3351227D01*
X4305262Y3327651D01*
X4302824Y3318709D01*
X4301198Y3312205D01*
X4299572Y3299198D01*
X4295507Y3295133D01*
X4143485Y3294320D01*
X4138608Y3297572D01*
X4140234Y3312205D01*
X4141860Y3317083D01*
X4143485Y3323586D01*
X4145111Y3334968D01*
X4147550Y3347162D01*
X4149176Y3353666D01*
X4151615Y3362608D01*
X4154054Y3381306D01*
X4155680Y3387809D01*
X4158119Y3396752D01*
X4159745Y3403256D01*
X4162183Y3421953D01*
X4163809Y3428457D01*
X4166248Y3437399D01*
X4167874Y3443903D01*
X4170313Y3462601D01*
X4172752Y3471543D01*
X4174378Y3478047D01*
X4176004Y3489428D01*
X4178442Y3501622D01*
X4180068Y3508126D01*
X4182507Y3517068D01*
X4184133Y3533327D01*
X4185759Y3539831D01*
X4189011Y3551212D01*
X4190637Y3557716D01*
X4194701Y3581292D01*
X4197140Y3590234D01*
X4198766Y3596738D01*
X4201205Y3615435D01*
X4209334Y3618687D01*
X4871075Y3620313D01*
X4873514Y3622752D01*
X4876766Y3635759D01*
X4878392Y3647140D01*
X4882457Y3664212D01*
X4884083Y3670716D01*
X4885709Y3678845D01*
X4887334Y3691853D01*
X4888960Y3698356D01*
X4891399Y3705673D01*
X4889773Y3715428D01*
X4230471Y3716241D01*
X4225594Y3714615D01*
X4219090Y3716241D01*
X4020730D01*
X3391507Y3714615D01*
X3389068Y3712176D01*
X3387442Y3700795D01*
X3383378Y3683723D01*
X3380939Y3674781D01*
X3378500Y3657709D01*
X3376874Y3651205D01*
X3374435Y3642263D01*
X3372809Y3635759D01*
X3371996Y3621939D01*
X3375248Y3618687D01*
X4032111Y3617061D01*
X4032924Y3608119D01*
X4029673Y3599989D01*
X4028047Y3593486D01*
X4025608Y3574788D01*
X4023169Y3565845D01*
X4019917Y3552838D01*
X4018291Y3536579D01*
X4016665Y3531702D01*
X4013414Y3520320D01*
X4011788Y3504061D01*
X4010162Y3497558D01*
X4006910Y3486176D01*
X4005284Y3479673D01*
X4001219Y3454471D01*
X3998780Y3445529D01*
X3997155Y3439025D01*
X3994716Y3421953D01*
X3989838Y3402443D01*
X3986586Y3381306D01*
X3980896Y3362608D01*
X3978457Y3353666D01*
X3974392Y3346349D01*
X3971140Y3338219D01*
X3966263Y3333342D01*
X3961385Y3325212D01*
X3949190Y3313018D01*
X3945939Y3311392D01*
X3941061Y3306514D01*
X3932119Y3304076D01*
X3924802Y3300011D01*
X3918298Y3298385D01*
X3902852Y3295946D01*
X3148435Y3294320D01*
X3142745Y3293507D01*
X3138680Y3297572D01*
X3140306Y3313831D01*
X3143558Y3321961D01*
X3146809Y3344723D01*
X3149248Y3353666D01*
X3152500Y3366673D01*
X3155752Y3387809D01*
X3160629Y3400817D01*
X3163881Y3404068D01*
X3170385Y3405694D01*
X3175263Y3404068D01*
X3828874Y3405694D01*
X3831313Y3408133D01*
X3832939Y3419514D01*
X3835378Y3431709D01*
X3837817Y3440651D01*
X3839442Y3447155D01*
X3841881Y3465853D01*
X3844320Y3474795D01*
X3847572Y3487802D01*
X3849198Y3505687D01*
X3846759Y3508126D01*
X3183392Y3509752D01*
X3182579Y3518694D01*
X3184205Y3523572D01*
X3186644Y3540644D01*
X3188270Y3547148D01*
X3190709Y3556090D01*
X3192334Y3567471D01*
X3194773Y3581292D01*
X3196399Y3587795D01*
X3198838Y3596738D01*
X3200464Y3608119D01*
X3202903Y3621939D01*
X3205342Y3630881D01*
X3206968Y3637385D01*
X3208594Y3648766D01*
X3210219Y3661773D01*
X3213471Y3669903D01*
X3215097Y3681284D01*
X3216723Y3687788D01*
X3218349Y3702421D01*
X3221601Y3710550D01*
X3224853Y3733313D01*
X3227291Y3742255D01*
X3231356Y3756076D01*
X3233795Y3765018D01*
X3236234Y3767457D01*
X3239486Y3775586D01*
X3241111Y3778838D01*
X3245989Y3783716D01*
X3247615Y3786968D01*
X3254932Y3795910D01*
X3264687Y3805665D01*
X3267939Y3807291D01*
X3272816Y3812169D01*
X3280946Y3815421D01*
X3284198Y3818673D01*
X3297205Y3821925D01*
X3306147Y3824363D01*
X3315903Y3825989D01*
X4241040Y3827615D01*
X4251608Y3828428D01*
X4256486Y3826802D01*
D02*
G37*
G36*
X2325730Y3825989D02*
X2327356Y3819486D01*
X2325730Y3812982D01*
X2324104Y3799975D01*
X2320852Y3791845D01*
X2317601Y3769083D01*
X2315975Y3762579D01*
X2312723Y3751198D01*
X2311097Y3739816D01*
X2308658Y3725996D01*
X2307032Y3719493D01*
X2304594Y3710550D01*
X2302968Y3699169D01*
X2300529Y3685349D01*
X2298090Y3676406D01*
X2296464Y3669903D01*
X2294838Y3658522D01*
X2292399Y3646327D01*
X2290773Y3639824D01*
X2288335Y3630881D01*
X2285896Y3612184D01*
X2284270Y3605680D01*
X2281831Y3596738D01*
X2280205Y3590234D01*
X2277766Y3571536D01*
X2273701Y3557716D01*
X2272075Y3546335D01*
X2269637Y3532514D01*
X2268011Y3526011D01*
X2265572Y3517068D01*
X2263946Y3505687D01*
X2261507Y3491867D01*
X2259068Y3482924D01*
X2257443Y3476421D01*
X2255816Y3465040D01*
X2253378Y3452845D01*
X2251752Y3446342D01*
X2249313Y3437399D01*
X2246874Y3418702D01*
X2245248Y3412198D01*
X2242809Y3403256D01*
X2241183Y3396752D01*
X2238745Y3378054D01*
X2236306Y3369112D01*
X2233054Y3356104D01*
X2231428Y3339845D01*
X2229802Y3334968D01*
X2226550Y3323586D01*
X2223299Y3300824D01*
X2217608Y3295133D01*
X2059083Y3294320D01*
X2055831Y3295946D01*
X2054205Y3302450D01*
X2055831Y3308953D01*
X2057457Y3313831D01*
X2060709Y3326838D01*
X2062334Y3343097D01*
X2063960Y3347975D01*
X2067212Y3359356D01*
X2068838Y3370737D01*
X2071277Y3384558D01*
X2072090Y3385371D01*
X2073716Y3395126D01*
X2075342Y3400004D01*
X2079407Y3425205D01*
X2081845Y3434148D01*
X2083471Y3440651D01*
X2087536Y3464227D01*
X2089975Y3473169D01*
X2091601Y3479673D01*
X2094039Y3498370D01*
X2095665Y3504874D01*
X2098104Y3513817D01*
X2099730Y3520320D01*
X2102169Y3539018D01*
X2106234Y3552838D01*
X2107860Y3564219D01*
X2110299Y3578040D01*
X2111924Y3584543D01*
X2114363Y3593486D01*
X2118428Y3618687D01*
X2120867Y3627630D01*
X2122493Y3634133D01*
X2126558Y3657709D01*
X2129809Y3670716D01*
X2133061Y3691853D01*
X2134687Y3698356D01*
X2137126Y3707299D01*
X2138752Y3713802D01*
X2141191Y3732500D01*
X2145255Y3746320D01*
X2146881Y3757701D01*
X2148507Y3770709D01*
X2150133Y3775586D01*
X2153385Y3786968D01*
X2155011Y3798349D01*
X2157450Y3812169D01*
X2162327Y3825176D01*
X2167205Y3826802D01*
X2325730Y3825989D01*
D02*
G37*
G36*
X5755565Y3825176D02*
X5763694Y3821925D01*
X5776701Y3820299D01*
X5797838Y3808917D01*
X5801090Y3805665D01*
X5804342Y3804040D01*
X5814910Y3793471D01*
X5816536Y3786968D01*
X5819788Y3783716D01*
X5821414Y3777212D01*
X5823039Y3765831D01*
X5821414Y3739816D01*
X5818162Y3731687D01*
X5815723Y3721119D01*
X5814097Y3708111D01*
X5812471Y3698356D01*
X5808406Y3684536D01*
X5806780Y3673155D01*
X5804342Y3659335D01*
X5801903Y3650392D01*
X5800277Y3643889D01*
X5796212Y3620313D01*
X5792960Y3607306D01*
X5791334Y3597550D01*
X5788083Y3579665D01*
X5785644Y3570723D01*
X5784018Y3564219D01*
X5781579Y3545522D01*
X5779140Y3536579D01*
X5775888Y3523572D01*
X5773449Y3504874D01*
X5769385Y3491054D01*
X5767759Y3474795D01*
X5766133Y3468292D01*
X5762881Y3456910D01*
X5761255Y3450407D01*
X5759629Y3434148D01*
X5758003Y3427644D01*
X5754752Y3416263D01*
X5753126Y3409759D01*
X5750687Y3392687D01*
X5749061Y3386183D01*
X5746622Y3377241D01*
X5744996Y3370737D01*
X5742557Y3352040D01*
X5740932Y3345536D01*
X5738493Y3336594D01*
X5736867Y3330090D01*
X5734428Y3311392D01*
X5729550Y3298385D01*
X5726298Y3295133D01*
X5719795Y3293507D01*
X5714917Y3295133D01*
X5577529Y3294320D01*
X5572651Y3297572D01*
X5574277Y3320334D01*
X5577529Y3328464D01*
X5579154Y3334968D01*
X5580781Y3346349D01*
X5583219Y3360169D01*
X5585658Y3369112D01*
X5587284Y3375615D01*
X5591349Y3399191D01*
X5593788Y3408133D01*
X5595413Y3414637D01*
X5597852Y3431709D01*
X5602730Y3451219D01*
X5605982Y3472356D01*
X5607608Y3478860D01*
X5610047Y3487802D01*
X5611673Y3499184D01*
X5613298Y3504061D01*
X5609234Y3508126D01*
X5140975Y3509752D01*
X5138536Y3513817D01*
X5141788Y3521946D01*
X5143414Y3528450D01*
X5145852Y3547148D01*
X5149917Y3560968D01*
X5151543Y3572349D01*
X5153982Y3586169D01*
X5156421Y3595112D01*
X5159672Y3608119D01*
X5163737Y3612184D01*
X5179996Y3610558D01*
X5621428Y3611370D01*
X5630371Y3610558D01*
X5634435Y3612997D01*
X5638500Y3631694D01*
X5641752Y3644702D01*
X5643378Y3657709D01*
X5645003Y3667464D01*
X5646629Y3673968D01*
X5649068Y3682910D01*
X5650694Y3694291D01*
X5652320Y3707299D01*
X5649881Y3711363D01*
X5638500Y3714615D01*
X5100327Y3716241D01*
X5097888Y3718680D01*
X5099514Y3733313D01*
X5101140Y3738191D01*
X5104392Y3751198D01*
X5106831Y3769896D01*
X5109270Y3778838D01*
X5110896Y3785342D01*
X5112521Y3796723D01*
X5114960Y3810543D01*
X5119838Y3823550D01*
X5121464Y3826802D01*
X5544198D01*
X5755565Y3825176D01*
D02*
G37*
G36*
X7448126Y3617061D02*
X7448939Y3609745D01*
X7447313Y3604867D01*
X7445687Y3598363D01*
X7444061Y3580478D01*
X7440809Y3572349D01*
X7439183Y3560968D01*
X7437557Y3554464D01*
X7435932Y3539831D01*
X7432680Y3531702D01*
X7431054Y3520320D01*
X7429428Y3510565D01*
X7422111Y3508126D01*
X6947349Y3506500D01*
X6944910Y3497558D01*
X6942471Y3486989D01*
X6940032Y3478047D01*
X6938406Y3466666D01*
X6935968Y3454471D01*
X6934341Y3447968D01*
X6931903Y3439025D01*
X6928651Y3416263D01*
X6932716Y3412198D01*
X7586327Y3410572D01*
X7588766Y3408133D01*
X7586327Y3392687D01*
X7584701Y3379680D01*
X7583075Y3373176D01*
X7580637Y3364234D01*
X7579011Y3357730D01*
X7576572Y3339032D01*
X7574133Y3330090D01*
X7570881Y3317083D01*
X7569255Y3300824D01*
X7563565Y3295133D01*
X7394471D01*
X6741673Y3294320D01*
X6736795Y3297572D01*
X6738421Y3310579D01*
X6740047Y3315457D01*
X6741673Y3321961D01*
X6743298Y3333342D01*
X6745737Y3347162D01*
X6748176Y3356104D01*
X6749802Y3362608D01*
X6751428Y3373989D01*
X6753867Y3387809D01*
X6756306Y3396752D01*
X6757932Y3403256D01*
X6761996Y3426831D01*
X6764435Y3435773D01*
X6766061Y3442277D01*
X6768500Y3460975D01*
X6770126Y3467478D01*
X6772565Y3476421D01*
X6774190Y3482924D01*
X6776629Y3501622D01*
X6780694Y3515443D01*
X6782320Y3526824D01*
X6784759Y3540644D01*
X6786385Y3547148D01*
X6788824Y3556090D01*
X6792888Y3581292D01*
X6795327Y3590234D01*
X6796953Y3596738D01*
X6800205Y3616248D01*
X6807522Y3618687D01*
X7448126Y3617061D01*
D02*
G37*
G36*
X7644047Y3822738D02*
X7640795Y3803227D01*
X7638356Y3792658D01*
X7634291Y3778838D01*
X7632665Y3767457D01*
X7630227Y3756889D01*
X7626162Y3743068D01*
X7622910Y3721932D01*
X7617219Y3716241D01*
X7610716Y3714615D01*
X6028716Y3712989D01*
X6026277Y3710550D01*
X6024651Y3704047D01*
X6023025Y3691040D01*
X6019773Y3682910D01*
X6018960Y3678845D01*
X6018147Y3678033D01*
X6016521Y3656896D01*
X6014896Y3652018D01*
X6011644Y3640637D01*
X6008392Y3617874D01*
X6003514Y3601615D01*
X6001888Y3590234D01*
X5999450Y3576414D01*
X5997011Y3567471D01*
X5995385Y3560968D01*
X5993759Y3544709D01*
X5990507Y3533327D01*
X5987255Y3520320D01*
X5983190Y3496745D01*
X5980752Y3487802D01*
X5979126Y3481299D01*
X5976687Y3462601D01*
X5974248Y3453658D01*
X5970996Y3440651D01*
X5968558Y3421953D01*
X5964493Y3411385D01*
X5966931Y3405694D01*
X5978313Y3404068D01*
X6699399Y3404881D01*
X6702651Y3401629D01*
X6701025Y3385371D01*
X6697773Y3377241D01*
X6695334Y3356917D01*
X6692895Y3347975D01*
X6689644Y3334968D01*
X6685579Y3311392D01*
X6680701Y3298385D01*
X6679075Y3295133D01*
X6672572Y3293507D01*
X6666068Y3295133D01*
X5827104Y3296759D01*
X5805968Y3308140D01*
X5793773Y3320334D01*
X5790522Y3328464D01*
X5788895Y3344723D01*
X5790522Y3378867D01*
X5792147Y3383745D01*
X5793773Y3396752D01*
X5797025Y3404881D01*
X5798651Y3416263D01*
X5801090Y3431709D01*
X5803529Y3440651D01*
X5806780Y3453658D01*
X5808406Y3469917D01*
X5810032Y3474795D01*
X5813284Y3486176D01*
X5814910Y3497558D01*
X5817349Y3511378D01*
X5819788Y3520320D01*
X5821414Y3526824D01*
X5825478Y3550399D01*
X5828730Y3563407D01*
X5830356Y3573162D01*
X5833608Y3591047D01*
X5836047Y3599989D01*
X5837673Y3606493D01*
X5840112Y3625191D01*
X5841737Y3631694D01*
X5844176Y3640637D01*
X5845802Y3647140D01*
X5847428Y3665025D01*
X5850680Y3673155D01*
X5852306Y3679658D01*
X5853932Y3695917D01*
X5857183Y3708925D01*
X5860435Y3720306D01*
X5862061Y3736565D01*
X5867752Y3752011D01*
X5869378Y3760140D01*
X5872629Y3768270D01*
X5875068Y3770709D01*
X5878320Y3778838D01*
X5881572Y3782090D01*
X5883198Y3785342D01*
X5890514Y3794284D01*
X5901895Y3805665D01*
X5905147Y3807291D01*
X5910025Y3812169D01*
X5918155Y3815421D01*
X5921406Y3818673D01*
X5934414Y3821925D01*
X5943356Y3824363D01*
X5953111Y3825989D01*
X7639982Y3826802D01*
X7644047Y3822738D01*
D02*
G37*
D10*
X2317650Y9760000D02*
D03*
X2444650D02*
D03*
X2571650D02*
D03*
X2698650D02*
D03*
X2825650D02*
D03*
X2952650D02*
D03*
X3079650D02*
D03*
X3206650D02*
D03*
X3333650D02*
D03*
X3460650D02*
D03*
X3587650D02*
D03*
X3714650D02*
D03*
X3841650D02*
D03*
X3968650D02*
D03*
X4095650D02*
D03*
X4222650D02*
D03*
X4349650D02*
D03*
X4476650D02*
D03*
X4603650D02*
D03*
X4730650D02*
D03*
X4857650D02*
D03*
X4984650D02*
D03*
X5111650D02*
D03*
X5238650D02*
D03*
X5492650D02*
D03*
X5619650D02*
D03*
X5746650D02*
D03*
X5873650D02*
D03*
X6000650D02*
D03*
X6127650D02*
D03*
X6254650D02*
D03*
X6381650D02*
D03*
X6508650D02*
D03*
X6635650D02*
D03*
X6762650D02*
D03*
X6889650D02*
D03*
X7016650D02*
D03*
X7143650D02*
D03*
X7270650D02*
D03*
D11*
X7930000Y4936000D02*
X8060000Y5066000D01*
X7298500Y2450000D02*
X7930000Y3081500D01*
Y4936000D01*
X8060000Y5066000D02*
Y6979000D01*
X8405250D01*
X8060000Y5066000D02*
X8405250D01*
X2710000Y2450000D02*
Y2990000D01*
X3780000D01*
X6348500D02*
X6878500Y2460000D01*
Y2450000D02*
Y2460000D01*
X3780000Y2450000D02*
Y2990000D01*
X6348500D01*
D12*
X6254675Y9410025D02*
Y9759975D01*
Y9410025D02*
X6254700Y9410000D01*
X6254650Y9760000D02*
X6254675Y9759975D01*
X6000675Y9410025D02*
X6000700Y9410000D01*
X6000650Y9760000D02*
X6000675Y9759975D01*
Y9410025D02*
Y9759975D01*
X5746675Y9410025D02*
X5746700Y9410000D01*
X5746650Y9760000D02*
X5746675Y9759975D01*
Y9410025D02*
Y9759975D01*
X4984675Y9410025D02*
Y9759975D01*
Y9410025D02*
X4984700Y9410000D01*
X4984650Y9760000D02*
X4984675Y9759975D01*
X4730675Y9410025D02*
Y9759975D01*
Y9410025D02*
X4730700Y9410000D01*
X4730650Y9760000D02*
X4730675Y9759975D01*
X4476675Y9410025D02*
Y9759975D01*
X4476650Y9760000D02*
X4476675Y9759975D01*
Y9410025D02*
X4476700Y9410000D01*
X4349650Y9760000D02*
X4349675Y9759975D01*
Y9410025D02*
Y9759975D01*
Y9410025D02*
X4349700Y9410000D01*
X3206675Y9410025D02*
Y9759975D01*
X3206650Y9760000D02*
X3206675Y9759975D01*
Y9410025D02*
X3206700Y9410000D01*
X2952675Y9410025D02*
X2952700Y9410000D01*
X2952650Y9760000D02*
X2952675Y9759975D01*
Y9410025D02*
Y9759975D01*
X2698675Y9410025D02*
Y9759975D01*
Y9410025D02*
X2698700Y9410000D01*
X2698650Y9760000D02*
X2698675Y9759975D01*
X2317650Y9760000D02*
X2317675Y9759975D01*
Y9410025D02*
Y9759975D01*
Y9410025D02*
X2317700Y9410000D01*
D13*
X2444675Y9460025D02*
X2444700Y9460000D01*
X2444675Y9460025D02*
Y9759975D01*
X2571675Y9460025D02*
Y9759975D01*
X2571650Y9760000D02*
X2571675Y9759975D01*
Y9460025D02*
X2571700Y9460000D01*
X2444650Y9760000D02*
X2444675Y9759975D01*
X7270675Y9460025D02*
Y9759975D01*
Y9460025D02*
X7270700Y9460000D01*
X7270650Y9760000D02*
X7270675Y9759975D01*
X7143675Y9460025D02*
Y9759975D01*
Y9460025D02*
X7143700Y9460000D01*
X7143650Y9760000D02*
X7143675Y9759975D01*
D14*
X9588500Y8580500D02*
G03*
X9088500Y9080500I-500000J0D01*
G01*
X500000D02*
G03*
X0Y8580500I0J-500000D01*
G01*
X9088500Y0D02*
G03*
X9588500Y500000I0J500000D01*
G01*
X7838500Y700000D02*
G03*
X7588500Y950000I-250000J0D01*
G01*
X7838500Y250000D02*
G03*
X8088500Y0I250000J0D01*
G01*
X2000000Y950000D02*
G03*
X1750000Y700000I0J-250000D01*
G01*
X1500000Y0D02*
G03*
X1750000Y250000I-0J250000D01*
G01*
X0Y500000D02*
G03*
X500000Y0I500000J0D01*
G01*
X5228700Y10101500D02*
X5303700Y10026500D01*
X5303700D02*
X5303750Y9385500D01*
X5427700D02*
Y10026500D01*
X5502700Y10101500D01*
X5303700Y9385500D02*
X5427700D01*
X2326700Y10101500D02*
X5228700D01*
X2176700Y9951700D02*
X2326700Y10101500D01*
X7261700D02*
X7411700Y9951700D01*
X500000Y9080500D02*
X2176700D01*
X5502700Y10101500D02*
X7261700D01*
X7411700Y9080500D02*
Y9951700D01*
X2176700D02*
X2176750Y9080500D01*
X7411700D02*
X9088500D01*
X8088500Y0D02*
X9088500D01*
X2000000Y950000D02*
X7588500D01*
X7838500Y250000D02*
Y700000D01*
X1750000Y250000D02*
Y700000D01*
X9588500Y500000D02*
Y8580500D01*
X500000Y0D02*
X1500000D01*
X0Y500000D02*
Y8580500D01*
D15*
X7088500Y1720000D02*
D03*
X3570000D02*
D03*
X2500000D02*
D03*
D16*
X7298500Y2450000D02*
D03*
X3780000D02*
D03*
X2710000D02*
D03*
D17*
X6878500D02*
D03*
X3360000D02*
D03*
X2290000D02*
D03*
D18*
X8405250Y6979000D02*
D03*
Y5066000D02*
D03*
X1183250Y6979000D02*
D03*
Y5066000D02*
D03*
D19*
X8405250Y4229000D02*
D03*
D20*
X7554250Y7771000D02*
D03*
Y6024000D02*
D03*
D21*
X2034250Y4271000D02*
D03*
Y6024000D02*
D03*
D22*
X7016700Y9410000D02*
D03*
X6254700D02*
D03*
X6000700D02*
D03*
X5873700D02*
D03*
X5746700D02*
D03*
X5238700D02*
D03*
X4984700D02*
D03*
X4730700D02*
D03*
X4476700D02*
D03*
X4349700D02*
D03*
X3460700D02*
D03*
X3206700D02*
D03*
X2952700D02*
D03*
X2698700D02*
D03*
X2317700D02*
D03*
D23*
X2444700Y9460000D02*
D03*
X2571700D02*
D03*
X7270700D02*
D03*
X7143700D02*
D03*
%TF.MD5,82db6c0cba89497e7fa6f132e67b1e7d*%
M02*
