%TF.GenerationSoftware,Altium Limited,Altium Designer,22.11.1 (43)*%
G04 Layer_Physical_Order=2*
G04 Layer_Color=16711680*
%FSLAX45Y45*%
%MOMM*%
%TF.SameCoordinates,CC3570FD-A2D7-4FBA-AFAC-830B96578B4B*%
%TF.FilePolarity,Positive*%
%TF.FileFunction,Copper,L2,Bot,Signal*%
%TF.Part,Single*%
G01*
G75*
%TA.AperFunction,SMDPad,CuDef*%
%ADD10R,0.53000X4.57200*%
%TA.AperFunction,Conductor*%
%ADD11C,4.00000*%
%ADD12C,0.29300*%
%ADD13C,0.50000*%
%TA.AperFunction,NonConductor*%
%ADD14C,0.25400*%
%TA.AperFunction,ComponentPad*%
%ADD15C,3.00000*%
%ADD16R,2.75000X2.75000*%
%ADD17C,2.75000*%
%ADD18C,1.98000*%
%ADD19C,3.57000*%
%ADD20C,5.32500*%
%ADD21C,4.77000*%
%TA.AperFunction,ViaPad*%
%ADD22C,0.44400*%
%ADD23C,0.63500*%
G36*
X6654274Y5372238D02*
X6655309Y5368099D01*
X6655826Y5363442D01*
X6656861Y5360855D01*
X6657378Y5358786D01*
X6657896Y5355164D01*
X6658413Y5353094D01*
X6659448Y5349472D01*
X6660483Y5345332D01*
X6661000Y5341193D01*
X6662035Y5338606D01*
X6662553Y5336536D01*
X6663329Y5331621D01*
X6663846Y5329551D01*
X6665140Y5325153D01*
X6665916Y5320755D01*
X6666433Y5318168D01*
X6667727Y5314805D01*
X6668244Y5309630D01*
X6668762Y5308078D01*
X6669797Y5304456D01*
X6670314Y5302386D01*
X6671090Y5297471D01*
X6672384Y5294108D01*
X6673677Y5286605D01*
X6674971Y5283242D01*
X6675747Y5277291D01*
X6676264Y5275222D01*
X6677040Y5272893D01*
X6677558Y5270824D01*
X6678334Y5265908D01*
X6679369Y5263321D01*
X6679886Y5261251D01*
X6680921Y5255042D01*
X6682215Y5250644D01*
X6682732Y5248574D01*
X6683250Y5243918D01*
X6684284Y5241331D01*
X6684802Y5239261D01*
X6685578Y5234863D01*
X6686354Y5232017D01*
X6686095Y5231241D01*
X6684543Y5231758D01*
X6682215Y5233569D01*
X6681697Y5234604D01*
X6680145Y5236156D01*
X6679627Y5237191D01*
X6677817Y5238485D01*
X6676782Y5240037D01*
X6675747Y5240554D01*
X6674971Y5241331D01*
X6674454Y5242365D01*
X6672384Y5244435D01*
X6672125Y5245211D01*
X6671090Y5245729D01*
X6670314Y5246505D01*
X6669797Y5247540D01*
X6667986Y5248833D01*
X6666951Y5250385D01*
X6665916Y5250903D01*
X6663846Y5254008D01*
X6661777Y5256077D01*
X6661000Y5256336D01*
X6660483Y5257371D01*
X6657378Y5260475D01*
X6656861Y5261510D01*
X6650652Y5267719D01*
X6650135Y5268754D01*
X6642373Y5276515D01*
X6641856Y5277550D01*
X6640303Y5279102D01*
X6640045Y5279879D01*
X6639010Y5280396D01*
X6637716Y5281690D01*
X6637458Y5282466D01*
X6636423Y5282983D01*
X6635129Y5284277D01*
X6634612Y5285312D01*
X6633577Y5285829D01*
X6633060Y5286864D01*
X6630472Y5289451D01*
X6630214Y5290227D01*
X6629179Y5290745D01*
X6628403Y5291521D01*
X6627885Y5292556D01*
X6626333Y5293590D01*
X6625816Y5294625D01*
X6623487Y5297471D01*
X6618054Y5302904D01*
X6617537Y5303939D01*
X6610293Y5311183D01*
X6609776Y5312217D01*
X6603049Y5318944D01*
X6602532Y5319979D01*
X6595805Y5326705D01*
X6595288Y5327740D01*
X6593218Y5329810D01*
X6592701Y5330845D01*
X6585974Y5337571D01*
X6585457Y5338606D01*
X6578213Y5345850D01*
X6577696Y5346885D01*
X6570451Y5354129D01*
X6569934Y5355164D01*
X6563208Y5361890D01*
X6562690Y5362925D01*
X6560620Y5364995D01*
X6560103Y5366029D01*
X6559327Y5366806D01*
X6558551Y5367064D01*
X6558033Y5368099D01*
X6553377Y5372756D01*
X6552859Y5373791D01*
X6552083Y5374567D01*
X6551307Y5374826D01*
X6550790Y5375860D01*
X6549496Y5377154D01*
X6548461Y5377671D01*
X6547168Y5379483D01*
X6546133Y5380517D01*
X6545615Y5381552D01*
X6544839Y5382328D01*
X6542511Y5382069D01*
X6543287Y5295919D01*
X6544322Y5240037D01*
X6544839Y5237450D01*
X6545356Y5220375D01*
X6545874Y5205887D01*
X6546391Y5195021D01*
X6547426Y5181568D01*
X6548202Y5178722D01*
X6548979Y5167598D01*
X6550013Y5159319D01*
X6550790Y5156473D01*
X6551566Y5147418D01*
X6552083Y5145349D01*
X6552859Y5142503D01*
X6553635Y5137070D01*
X6554153Y5132931D01*
X6554670Y5130344D01*
X6555964Y5125946D01*
X6556481Y5119737D01*
X6558033Y5116114D01*
X6559327Y5108612D01*
X6560620Y5105249D01*
X6561138Y5102144D01*
X6561914Y5101368D01*
X6564501Y5101885D01*
X6568123Y5103438D01*
X6570193Y5103955D01*
X6574850Y5106025D01*
X6578213Y5106801D01*
X6578989Y5107577D01*
X6582611Y5108612D01*
X6585457Y5109388D01*
X6588303Y5110681D01*
X6590372Y5111199D01*
X6593736Y5111975D01*
X6596323Y5113010D01*
X6599168Y5113786D01*
X6603049Y5114562D01*
X6606412Y5115856D01*
X6610034Y5116373D01*
X6617278Y5118443D01*
X6622194Y5119219D01*
X6626592Y5120512D01*
X6630214Y5121030D01*
X6635129Y5121806D01*
X6640303Y5122841D01*
X6642373Y5123358D01*
X6648065Y5123876D01*
X6652722Y5124393D01*
X6655568Y5125169D01*
X6666951Y5126204D01*
X6680404Y5127239D01*
X6686095Y5127757D01*
X6687648Y5128274D01*
X6735250Y5127757D01*
X6736803Y5127239D01*
X6751291Y5126722D01*
X6752843Y5126204D01*
X6764226Y5125687D01*
X6766813Y5124652D01*
X6768107Y5124911D01*
X6770176Y5124393D01*
X6774833Y5123876D01*
X6780525Y5123358D01*
X6784664Y5122841D01*
X6787510Y5122065D01*
X6792426Y5121289D01*
X6798117Y5120771D01*
X6803809Y5119737D01*
X6806655Y5118960D01*
X6813123Y5118184D01*
X6815192Y5117667D01*
X6818038Y5116890D01*
X6820108Y5116373D01*
X6825799Y5115856D01*
X6828387Y5114821D01*
X6832526Y5113786D01*
X6837183Y5113269D01*
X6839770Y5112234D01*
X6841840Y5111716D01*
X6845462Y5111199D01*
X6848825Y5110423D01*
X6852188Y5109129D01*
X6857103Y5108353D01*
X6861243Y5106801D01*
X6863830Y5106283D01*
X6866934Y5105766D01*
X6869522Y5104731D01*
X6871850Y5103955D01*
X6875989Y5103438D01*
X6880646Y5101368D01*
X6884786Y5100851D01*
X6888408Y5099298D01*
X6890477Y5098781D01*
X6893323Y5098005D01*
X6896169Y5096711D01*
X6900567Y5095935D01*
X6904965Y5094124D01*
X6909104Y5093089D01*
X6910139Y5092054D01*
X6916090Y5090761D01*
X6916866Y5089985D01*
X6920488Y5088950D01*
X6923334Y5088174D01*
X6926179Y5086880D01*
X6930319Y5085845D01*
X6933941Y5084293D01*
X6936010Y5083775D01*
X6940667Y5081706D01*
X6944030Y5080930D01*
X6944807Y5080154D01*
X6947394Y5079119D01*
X6950757Y5078343D01*
X6954120Y5076532D01*
X6957225Y5077049D01*
X6958260Y5078601D01*
X6960847Y5080154D01*
X6961881Y5081188D01*
X6962916Y5081706D01*
X6964469Y5083258D01*
X6967056Y5084811D01*
X6968090Y5085845D01*
X6969126Y5086363D01*
X6971971Y5088691D01*
X6973782Y5089985D01*
X6974817Y5091020D01*
X6977404Y5092572D01*
X6978439Y5093607D01*
X6979474Y5094124D01*
X6984131Y5097746D01*
X6987753Y5100333D01*
X6994220Y5105249D01*
X6997325Y5107318D01*
X6998618Y5108612D01*
X6999653Y5109129D01*
X7001206Y5110681D01*
X7003793Y5112234D01*
X7004827Y5113269D01*
X7007415Y5114821D01*
X7008967Y5116373D01*
X7010002Y5116890D01*
X7011554Y5118443D01*
X7014141Y5119995D01*
X7015176Y5121030D01*
X7017763Y5122582D01*
X7018798Y5123617D01*
X7019833Y5124135D01*
X7021385Y5125687D01*
X7022420Y5126204D01*
X7027335Y5129567D01*
X7027853Y5130602D01*
X7030699Y5132413D01*
X7031733Y5133448D01*
X7034321Y5135000D01*
X7035356Y5136035D01*
X7037684Y5137329D01*
X7037942Y5138105D01*
X7040530Y5139657D01*
X7041565Y5140692D01*
X7044152Y5142244D01*
X7045187Y5143279D01*
X7046998Y5144055D01*
X7047515Y5145090D01*
X7048291Y5145866D01*
X7050878Y5147418D01*
X7051913Y5148453D01*
X7054500Y5150006D01*
X7055535Y5151040D01*
X7056570Y5151558D01*
X7058122Y5153110D01*
X7060709Y5154662D01*
X7061744Y5155697D01*
X7062779Y5156215D01*
X7064331Y5157767D01*
X7066918Y5159319D01*
X7068470Y5160872D01*
X7071057Y5162424D01*
X7072093Y5163459D01*
X7073127Y5163976D01*
X7074680Y5165528D01*
X7077267Y5167081D01*
X7078819Y5168633D01*
X7079854Y5169150D01*
X7080889Y5170185D01*
X7084252Y5171996D01*
X7084511Y5172772D01*
X7087098Y5174324D01*
X7088133Y5175359D01*
X7089167Y5175877D01*
X7090720Y5177429D01*
X7091754Y5177946D01*
X7094600Y5180275D01*
X7097446Y5182086D01*
X7098481Y5183121D01*
X7099516Y5183638D01*
X7101068Y5185190D01*
X7103655Y5186742D01*
X7104690Y5187778D01*
X7107277Y5189330D01*
X7108829Y5190882D01*
X7109864Y5191399D01*
X7111417Y5192952D01*
X7114004Y5194504D01*
X7115039Y5195539D01*
X7117626Y5197091D01*
X7119178Y5198643D01*
X7120213Y5199161D01*
X7121248Y5200196D01*
X7122282Y5200713D01*
X7125128Y5203041D01*
X7127198Y5204076D01*
X7127715Y5206146D01*
X7127198Y5207181D01*
X7124352Y5207957D01*
X7120471Y5208733D01*
X7117108Y5210027D01*
X7115039Y5210544D01*
X7111417Y5211061D01*
X7107795Y5212614D01*
X7104173Y5213131D01*
X7100809Y5214425D01*
X7097963Y5215201D01*
X7092531Y5216494D01*
X7089943Y5217529D01*
X7086839Y5218047D01*
X7084252Y5218564D01*
X7081406Y5219858D01*
X7078819Y5220893D01*
X7078560Y5222704D01*
X7080113Y5224256D01*
X7080630Y5227360D01*
X7083217Y5233052D01*
X7083734Y5234087D01*
X7085287Y5237709D01*
X7087356Y5242365D01*
X7088650Y5245729D01*
X7089426Y5246505D01*
X7090202Y5249868D01*
X7092013Y5253231D01*
X7093307Y5256595D01*
X7094600Y5259440D01*
X7095118Y5261510D01*
X7095635Y5262545D01*
X7096670Y5263580D01*
X7097187Y5265650D01*
X7098481Y5269013D01*
X7099257Y5269789D01*
X7099774Y5271859D01*
X7100809Y5274446D01*
X7102362Y5278068D01*
X7103397Y5280655D01*
X7104949Y5284277D01*
X7105466Y5285829D01*
X7107019Y5288416D01*
X7107536Y5290486D01*
X7110123Y5296177D01*
X7110640Y5298247D01*
X7111675Y5299282D01*
X7112193Y5301352D01*
X7114780Y5307043D01*
X7115556Y5309889D01*
X7116332Y5310665D01*
X7117367Y5313252D01*
X7117884Y5315322D01*
X7118919Y5316357D01*
X7120730Y5321272D01*
X7122024Y5324118D01*
X7122541Y5326188D01*
X7123059Y5327223D01*
X7124611Y5329810D01*
X7125128Y5332914D01*
X7126680Y5334467D01*
X7127198Y5336536D01*
X7128491Y5339900D01*
X7129268Y5340676D01*
X7130044Y5344039D01*
X7131855Y5347402D01*
X7132889Y5351024D01*
X7132372Y5352059D01*
X7130044Y5352318D01*
X7128491Y5351800D01*
X7125128Y5350507D01*
X7122800Y5349731D01*
X7118919Y5348955D01*
X7116332Y5347920D01*
X7113486Y5347143D01*
X7110382Y5346626D01*
X7106760Y5345074D01*
X7100809Y5343780D01*
X7097963Y5342487D01*
X7092531Y5341193D01*
X7089167Y5339900D01*
X7084769Y5339123D01*
X7081406Y5337830D01*
X7077267Y5336795D01*
X7073904Y5335501D01*
X7071057Y5334725D01*
X7067177Y5333949D01*
X7064331Y5332656D01*
X7062261Y5332138D01*
X7059157Y5331621D01*
X7055535Y5330069D01*
X7053465Y5329551D01*
X7050361Y5329034D01*
X7046739Y5327481D01*
X7042341Y5326705D01*
X7039754Y5325671D01*
X7037425Y5324894D01*
X7034321Y5324377D01*
X7030699Y5322825D01*
X7028629Y5322307D01*
X7025007Y5321790D01*
X7021385Y5320238D01*
X7019315Y5319720D01*
X7016728Y5319203D01*
X7014141Y5318168D01*
X7013106Y5318685D01*
X7011813Y5321531D01*
X7011295Y5325153D01*
X7010778Y5326705D01*
X7010002Y5336795D01*
X7009484Y5339900D01*
X7008967Y5341969D01*
X7008450Y5346109D01*
X7007932Y5351800D01*
X7007415Y5355940D01*
X7006897Y5358009D01*
X7006380Y5360597D01*
X7005862Y5364736D01*
X7005345Y5369910D01*
X7004827Y5374567D01*
X7004052Y5376895D01*
X7003534Y5383622D01*
X7002758Y5386468D01*
X7001723Y5386985D01*
X7000429Y5385692D01*
X6999912Y5384657D01*
X6995255Y5380000D01*
X6994996Y5379224D01*
X6993962Y5378706D01*
X6991375Y5375602D01*
X6985942Y5370169D01*
X6984389Y5367582D01*
X6977663Y5360855D01*
X6977146Y5359820D01*
X6968867Y5351541D01*
X6968349Y5350507D01*
X6963175Y5345332D01*
X6962658Y5344298D01*
X6961623Y5343780D01*
X6961105Y5342745D01*
X6953861Y5335501D01*
X6953344Y5334467D01*
X6952050Y5332656D01*
X6951016Y5332138D01*
X6949722Y5330327D01*
X6945583Y5326188D01*
X6945065Y5325153D01*
X6936786Y5316874D01*
X6936269Y5315840D01*
X6930577Y5310148D01*
X6930060Y5309113D01*
X6923334Y5302386D01*
X6922816Y5301352D01*
X6915572Y5294108D01*
X6915055Y5293073D01*
X6913503Y5291521D01*
X6912985Y5290486D01*
X6911174Y5289192D01*
X6910139Y5287640D01*
X6909104Y5287123D01*
X6907811Y5285312D01*
X6906776Y5284794D01*
X6905483Y5282466D01*
X6904448Y5281948D01*
X6903154Y5280137D01*
X6901602Y5279102D01*
X6901084Y5278068D01*
X6900308Y5277291D01*
X6899273Y5276774D01*
X6897721Y5274187D01*
X6896945Y5273928D01*
X6896428Y5272893D01*
X6895651Y5272117D01*
X6894617Y5271600D01*
X6893064Y5269530D01*
X6892288Y5269271D01*
X6891771Y5268237D01*
X6889442Y5265391D01*
X6883492Y5259440D01*
X6882975Y5258406D01*
X6880905Y5256336D01*
X6880646Y5255560D01*
X6879611Y5255042D01*
X6878318Y5253749D01*
X6878059Y5252973D01*
X6877024Y5252455D01*
X6875731Y5251162D01*
X6875213Y5250127D01*
X6873661Y5248574D01*
X6873402Y5247798D01*
X6872368Y5247281D01*
X6871591Y5246505D01*
X6871074Y5245470D01*
X6869263Y5244176D01*
X6867969Y5242365D01*
X6866934Y5241848D01*
X6866417Y5240813D01*
X6859691Y5234087D01*
X6858397Y5231241D01*
X6856327Y5231758D01*
X6856069Y5233569D01*
X6856586Y5235122D01*
X6857362Y5238485D01*
X6858138Y5241331D01*
X6858656Y5243400D01*
X6859173Y5247022D01*
X6860725Y5252714D01*
X6861243Y5254784D01*
X6861760Y5258406D01*
X6863313Y5263580D01*
X6863830Y5265650D01*
X6864606Y5270565D01*
X6865123Y5272635D01*
X6865900Y5274963D01*
X6866417Y5278585D01*
X6867193Y5281948D01*
X6867711Y5284018D01*
X6868487Y5286346D01*
X6869004Y5288416D01*
X6869522Y5292556D01*
X6870039Y5294108D01*
X6871074Y5296695D01*
X6872368Y5304197D01*
X6873143Y5307043D01*
X6873661Y5309113D01*
X6874179Y5312735D01*
X6874954Y5315581D01*
X6876248Y5319979D01*
X6877024Y5324894D01*
X6878059Y5327481D01*
X6878577Y5330069D01*
X6879611Y5336278D01*
X6880905Y5340676D01*
X6881422Y5342745D01*
X6881940Y5346885D01*
X6882975Y5349472D01*
X6883492Y5351541D01*
X6884009Y5355164D01*
X6885562Y5360855D01*
X6886079Y5362925D01*
X6886855Y5367840D01*
X6888149Y5372238D01*
X6888666Y5374308D01*
X6889184Y5378447D01*
X6890218Y5381035D01*
X6890995Y5384398D01*
X6891512Y5387503D01*
X6892029Y5390090D01*
X6893323Y5394488D01*
X6894099Y5399403D01*
X6895134Y5403543D01*
X6895910Y5405871D01*
X6896428Y5409493D01*
X6896945Y5411563D01*
X6897721Y5414409D01*
X6898497Y5416737D01*
X6899273Y5421652D01*
X6900308Y5425792D01*
X6901084Y5428638D01*
X6901860Y5433553D01*
X6903671Y5439503D01*
X6904448Y5444419D01*
X6905483Y5447006D01*
X6906000Y5449593D01*
X6906517Y5453733D01*
X6907035Y5455802D01*
X6908328Y5460200D01*
X6908846Y5463822D01*
X6909622Y5466668D01*
X6910915Y5471066D01*
X6911692Y5475982D01*
X6912468Y5478827D01*
X6913503Y5482450D01*
X6914020Y5487106D01*
X6915055Y5489693D01*
X6915572Y5491763D01*
X6916090Y5495385D01*
X6916607Y5497455D01*
X6917642Y5499524D01*
X6916866Y5500301D01*
X6914279Y5499783D01*
X6909622Y5497196D01*
X6908587Y5496161D01*
X6906000Y5495644D01*
X6904965Y5494609D01*
X6902378Y5493574D01*
X6901343Y5493057D01*
X6899791Y5491504D01*
X6896945Y5490728D01*
X6893582Y5488917D01*
X6890995Y5487365D01*
X6889960Y5486330D01*
X6887114Y5485554D01*
X6885820Y5484261D01*
X6883751Y5483743D01*
X6881164Y5482191D01*
X6876507Y5479604D01*
X6873920Y5478569D01*
X6872885Y5478051D01*
X6871850Y5477016D01*
X6869263Y5475982D01*
X6868228Y5475464D01*
X6867193Y5474429D01*
X6863830Y5473136D01*
X6860467Y5471325D01*
X6857880Y5469773D01*
X6839253Y5459942D01*
X6835113Y5457872D01*
X6832785Y5459683D01*
X6831750Y5463305D01*
X6830456Y5466668D01*
X6829163Y5469514D01*
X6828645Y5472618D01*
X6827610Y5473653D01*
X6826576Y5477793D01*
X6824506Y5482450D01*
X6823730Y5485813D01*
X6822954Y5486589D01*
X6821919Y5489176D01*
X6821143Y5492022D01*
X6819849Y5494868D01*
X6818814Y5499007D01*
X6816745Y5503664D01*
X6816227Y5506251D01*
X6815192Y5507286D01*
X6814675Y5509356D01*
X6812864Y5514271D01*
X6811570Y5517634D01*
X6810794Y5520480D01*
X6810018Y5521256D01*
X6809242Y5524619D01*
X6808725Y5526689D01*
X6807948Y5527465D01*
X6806913Y5530052D01*
X6806396Y5533157D01*
X6805361Y5534192D01*
X6804326Y5536779D01*
X6803809Y5539883D01*
X6801739Y5544540D01*
X6801222Y5547127D01*
X6800187Y5548162D01*
X6799152Y5552302D01*
X6797082Y5556958D01*
X6796306Y5559804D01*
X6794495Y5564202D01*
X6793978Y5566272D01*
X6792426Y5569894D01*
X6791908Y5571963D01*
X6790873Y5574551D01*
X6789321Y5578172D01*
X6788804Y5580760D01*
X6787251Y5583347D01*
X6786475Y5586710D01*
X6785699Y5588521D01*
X6784664Y5591108D01*
X6784147Y5593178D01*
X6782077Y5597835D01*
X6781560Y5600422D01*
X6779490Y5605078D01*
X6778714Y5607924D01*
X6777938Y5608700D01*
X6776903Y5612323D01*
X6774316Y5619049D01*
X6773798Y5621119D01*
X6772764Y5623706D01*
X6771470Y5626034D01*
X6770176Y5625775D01*
X6769142Y5622154D01*
X6767589Y5618532D01*
X6767072Y5616462D01*
X6766037Y5613875D01*
X6764485Y5610253D01*
X6763967Y5607666D01*
X6762415Y5604044D01*
X6761122Y5600680D01*
X6759828Y5597835D01*
X6759311Y5594730D01*
X6757758Y5592143D01*
X6757241Y5590073D01*
X6756465Y5587228D01*
X6755689Y5586451D01*
X6754654Y5582829D01*
X6752584Y5577655D01*
X6752067Y5575585D01*
X6749997Y5570929D01*
X6749221Y5567565D01*
X6747927Y5565237D01*
X6747410Y5563167D01*
X6746116Y5559804D01*
X6745340Y5559028D01*
X6744564Y5555665D01*
X6743012Y5551525D01*
X6742236Y5549197D01*
X6741718Y5547127D01*
X6739649Y5542470D01*
X6739131Y5540401D01*
X6737579Y5536779D01*
X6736803Y5533933D01*
X6735509Y5531605D01*
X6734992Y5529535D01*
X6732405Y5522808D01*
X6731887Y5520221D01*
X6730852Y5519187D01*
X6729818Y5515047D01*
X6727748Y5510390D01*
X6726972Y5507544D01*
X6725678Y5504699D01*
X6725161Y5502629D01*
X6723867Y5499266D01*
X6722574Y5496420D01*
X6721798Y5493057D01*
X6719987Y5489693D01*
X6719469Y5486589D01*
X6717917Y5484002D01*
X6717141Y5480639D01*
X6716365Y5478827D01*
X6715330Y5476241D01*
X6714812Y5474171D01*
X6712743Y5469514D01*
X6711967Y5466151D01*
X6711190Y5465375D01*
X6710155Y5462787D01*
X6709638Y5459683D01*
X6708344Y5458389D01*
X6704205Y5458907D01*
X6702653Y5460459D01*
X6694892Y5464081D01*
X6693857Y5464598D01*
X6692822Y5465633D01*
X6689459Y5466927D01*
X6688165Y5468220D01*
X6684802Y5469514D01*
X6681439Y5471325D01*
X6679627Y5472101D01*
X6679369Y5472877D01*
X6676782Y5473912D01*
X6670055Y5477534D01*
X6669020Y5478569D01*
X6666175Y5479345D01*
X6665398Y5480121D01*
X6662811Y5481156D01*
X6660224Y5482708D01*
X6655568Y5485295D01*
X6652980Y5486330D01*
X6651946Y5486848D01*
X6646771Y5489952D01*
X6644184Y5490987D01*
X6641597Y5492539D01*
X6636940Y5495126D01*
X6628144Y5499783D01*
X6627109Y5500818D01*
X6625557Y5500301D01*
X6625298Y5497972D01*
X6625816Y5496420D01*
X6626333Y5492798D01*
X6627368Y5490211D01*
X6627885Y5486589D01*
X6629179Y5481156D01*
X6629955Y5478310D01*
X6630472Y5476241D01*
X6630990Y5472101D01*
X6632025Y5469514D01*
X6632801Y5466668D01*
X6633836Y5460459D01*
X6635129Y5456061D01*
X6635905Y5451145D01*
X6636423Y5449076D01*
X6637716Y5444678D01*
X6638234Y5441056D01*
X6638751Y5438986D01*
X6640303Y5433812D01*
X6641080Y5428896D01*
X6641597Y5426827D01*
X6642373Y5423981D01*
X6642891Y5421911D01*
X6643667Y5416996D01*
X6644960Y5413632D01*
X6645478Y5410010D01*
X6646254Y5406130D01*
X6647548Y5402766D01*
X6648324Y5396816D01*
X6648841Y5394746D01*
X6649617Y5392418D01*
X6650135Y5390348D01*
X6650652Y5386726D01*
X6651428Y5383881D01*
X6652722Y5379483D01*
X6653498Y5374567D01*
X6654274Y5372756D01*
Y5372238D01*
D02*
G37*
D10*
X5238700Y9760000D02*
D03*
X7270700D02*
D03*
X7143700D02*
D03*
X7016700D02*
D03*
X6889700D02*
D03*
X6762700D02*
D03*
X6635700D02*
D03*
X6508700D02*
D03*
X6381700D02*
D03*
X6254700D02*
D03*
X6127700D02*
D03*
X6000700D02*
D03*
X5873700D02*
D03*
X5746700D02*
D03*
X5619700D02*
D03*
X5492700D02*
D03*
X5111700D02*
D03*
X4984700D02*
D03*
X4857700D02*
D03*
X4730700D02*
D03*
X4603700D02*
D03*
X4476700D02*
D03*
X4349700D02*
D03*
X4222700D02*
D03*
X4095700D02*
D03*
X3968700D02*
D03*
X3841700D02*
D03*
X3714700D02*
D03*
X3587700D02*
D03*
X3460700D02*
D03*
X3333700D02*
D03*
X3206700D02*
D03*
X3079700D02*
D03*
X2952700D02*
D03*
X2825700D02*
D03*
X2698700D02*
D03*
X2571700D02*
D03*
X2444700D02*
D03*
X2317700D02*
D03*
D11*
X2290000Y2990000D02*
X3360000D01*
Y2450000D02*
Y2990000D01*
X2290000Y2450000D02*
Y2990000D01*
X1183250Y4096750D02*
X2290000Y2990000D01*
X1183250Y4096750D02*
Y5066000D01*
Y6979000D01*
D12*
X2698700Y9410000D02*
Y9760000D01*
X2952700Y9410000D02*
Y9760000D01*
X3206700Y9410000D02*
Y9760000D01*
X3460700Y9410000D02*
Y9760000D01*
X5238700Y9410000D02*
Y9760000D01*
X5873700Y9410000D02*
Y9760000D01*
X7016700Y9410000D02*
Y9760000D01*
D13*
X2444700Y9460000D02*
Y9760000D01*
X2317700D02*
X2325700Y9752000D01*
X2442117Y9462583D02*
X2444700Y9460000D01*
X2325700Y9514300D02*
X2377417Y9462583D01*
X2442117D01*
X2325700Y9514300D02*
Y9752000D01*
X7270700Y9460000D02*
Y9760000D01*
X7143700Y9460000D02*
Y9760000D01*
X2571700Y9460000D02*
Y9760000D01*
D14*
X9588500Y8580500D02*
G03*
X9088500Y9080500I-500000J0D01*
G01*
X500000D02*
G03*
X0Y8580500I0J-500000D01*
G01*
X9088500Y0D02*
G03*
X9588500Y500000I0J500000D01*
G01*
X7838500Y700000D02*
G03*
X7588500Y950000I-250000J0D01*
G01*
X7838500Y250000D02*
G03*
X8088500Y0I250000J0D01*
G01*
X2000000Y950000D02*
G03*
X1750000Y700000I0J-250000D01*
G01*
X1500000Y0D02*
G03*
X1750000Y250000I-0J250000D01*
G01*
X0Y500000D02*
G03*
X500000Y0I500000J0D01*
G01*
X5228700Y10101500D02*
X5303700Y10026500D01*
X5303700D02*
X5303750Y9385500D01*
X5427700D02*
Y10026500D01*
X5502700Y10101500D01*
X5303700Y9385500D02*
X5427700D01*
X2326700Y10101500D02*
X5228700D01*
X2176700Y9951700D02*
X2326700Y10101500D01*
X7261700D02*
X7411700Y9951700D01*
X500000Y9080500D02*
X2176700D01*
X5502700Y10101500D02*
X7261700D01*
X7411700Y9080500D02*
Y9951700D01*
X2176700D02*
X2176750Y9080500D01*
X7411700D02*
X9088500D01*
X8088500Y0D02*
X9088500D01*
X2000000Y950000D02*
X7588500D01*
X7838500Y250000D02*
Y700000D01*
X1750000Y250000D02*
Y700000D01*
X9588500Y500000D02*
Y8580500D01*
X500000Y0D02*
X1500000D01*
X0Y500000D02*
Y8580500D01*
D15*
X7088500Y1720000D02*
D03*
X3570000D02*
D03*
X2500000D02*
D03*
D16*
X7298500Y2450000D02*
D03*
X3780000D02*
D03*
X2710000D02*
D03*
D17*
X6878500D02*
D03*
X3360000D02*
D03*
X2290000D02*
D03*
D18*
X8405250Y6979000D02*
D03*
Y5066000D02*
D03*
X1183250Y6979000D02*
D03*
Y5066000D02*
D03*
D19*
X8405250Y4229000D02*
D03*
D20*
X7554250Y7771000D02*
D03*
Y6024000D02*
D03*
D21*
X2034250Y4271000D02*
D03*
Y6024000D02*
D03*
D22*
X7016700Y9410000D02*
D03*
X6254700D02*
D03*
X6000700D02*
D03*
X5873700D02*
D03*
X5746700D02*
D03*
X5238700D02*
D03*
X4984700D02*
D03*
X4730700D02*
D03*
X4476700D02*
D03*
X4349700D02*
D03*
X3460700D02*
D03*
X3206700D02*
D03*
X2952700D02*
D03*
X2698700D02*
D03*
X2317700D02*
D03*
D23*
X2444700Y9460000D02*
D03*
X2571700D02*
D03*
X7270700D02*
D03*
X7143700D02*
D03*
%TF.MD5,0df59212c19b97438a532088dd5a7819*%
M02*
