%TF.GenerationSoftware,Altium Limited,Altium Designer,22.11.1 (43)*%
G04 Layer_Color=32896*
%FSLAX45Y45*%
%MOMM*%
%TF.SameCoordinates,CC3570FD-A2D7-4FBA-AFAC-830B96578B4B*%
%TF.FilePolarity,Positive*%
%TF.FileFunction,Legend,Bot*%
%TF.Part,Single*%
G01*
G75*
%TA.AperFunction,NonConductor*%
%ADD14C,0.25400*%
G36*
X2926763Y5528500D02*
X2927539Y5526689D01*
X2927281Y5520221D01*
Y5519704D01*
Y5504181D01*
X2927798Y5500559D01*
X2928574Y5499783D01*
X2939699Y5500042D01*
X2941510Y5499783D01*
X2942286Y5499007D01*
X2942803Y5481932D01*
X2942027Y5481156D01*
X2932714Y5480639D01*
X2929092Y5481156D01*
X2927798Y5479862D01*
X2927281Y5418289D01*
X2926763Y5414667D01*
X2925211Y5411045D01*
X2924694Y5408975D01*
X2923659Y5407941D01*
X2921848Y5405095D01*
X2920813Y5404577D01*
X2919778Y5403543D01*
X2912017Y5399403D01*
X2905808Y5398368D01*
X2904256Y5397851D01*
X2894942Y5397333D01*
X2887957Y5398110D01*
X2884076Y5397851D01*
X2883300Y5398627D01*
X2882782Y5415184D01*
X2883817Y5417772D01*
X2896236Y5418289D01*
X2899081Y5419065D01*
X2900375Y5420359D01*
X2900892Y5421394D01*
X2901927Y5422429D01*
X2902445Y5479862D01*
X2900892Y5480897D01*
X2884076Y5480639D01*
X2883300Y5481415D01*
X2882782Y5497455D01*
X2883300Y5499524D01*
X2884335Y5500042D01*
X2901151Y5499783D01*
X2901927Y5500559D01*
X2902445Y5527465D01*
X2904514Y5529017D01*
X2923400Y5528759D01*
X2924952Y5529276D01*
X2926763Y5528500D01*
D02*
G37*
G36*
X4777842Y5617238D02*
X4778618Y5616462D01*
X4779135Y5532639D01*
X4778618Y5531087D01*
X4779135Y5529535D01*
X4779911Y5528759D01*
X4808887Y5528241D01*
X4809663Y5527465D01*
X4810181Y5484519D01*
X4809663Y5466927D01*
X4808887Y5464598D01*
X4794917Y5464081D01*
X4793365Y5464598D01*
X4779911Y5465116D01*
X4778618Y5463822D01*
X4778100Y5322049D01*
X4777583Y5274963D01*
X4777066Y5273411D01*
X4776290Y5268495D01*
X4775513Y5265132D01*
X4774737Y5258147D01*
X4773702Y5255560D01*
X4772409Y5249610D01*
X4771115Y5246764D01*
X4770339Y5243400D01*
X4769046Y5240554D01*
X4767752Y5237191D01*
X4762319Y5227102D01*
X4760250Y5223997D01*
X4757921Y5221151D01*
X4757404Y5220116D01*
X4756628Y5219858D01*
X4755334Y5217529D01*
X4751453Y5213648D01*
X4750418Y5213131D01*
X4748349Y5211061D01*
X4747314Y5210544D01*
X4746538Y5209768D01*
X4743692Y5207439D01*
X4740070Y5204852D01*
X4735413Y5202265D01*
X4732826Y5200713D01*
X4730239Y5199678D01*
X4727652Y5198126D01*
X4724030Y5197091D01*
X4723254Y5196315D01*
X4719890Y5195539D01*
X4717045Y5194763D01*
X4714458Y5193728D01*
X4711870Y5193210D01*
X4706955Y5192434D01*
X4704885Y5191917D01*
X4703333Y5191399D01*
X4692467Y5190882D01*
X4690915Y5190365D01*
X4658317Y5190882D01*
X4656765Y5191399D01*
X4652626Y5191917D01*
X4651073Y5192434D01*
X4646416Y5192952D01*
X4642795Y5193469D01*
X4640725Y5193987D01*
X4638396Y5194763D01*
X4632705Y5195798D01*
X4630118Y5196315D01*
X4627530Y5197350D01*
X4621580Y5198643D01*
X4620287Y5199937D01*
X4619769Y5200972D01*
X4620545Y5207957D01*
X4621063Y5212096D01*
X4621580Y5218305D01*
X4622356Y5225808D01*
X4623132Y5228136D01*
X4624167Y5238485D01*
X4624685Y5243142D01*
X4625202Y5247281D01*
X4625720Y5249351D01*
X4626496Y5259440D01*
X4627013Y5263062D01*
X4627789Y5263839D01*
X4630894Y5264356D01*
X4633481Y5263321D01*
X4643829Y5262286D01*
X4647451Y5261769D01*
X4649004Y5261251D01*
X4663750Y5261510D01*
X4665820Y5262028D01*
X4669701Y5262804D01*
X4674357Y5264873D01*
X4677462Y5266943D01*
X4678497Y5267460D01*
X4679532Y5268495D01*
X4681860Y5271341D01*
X4683930Y5274963D01*
X4684706Y5275739D01*
X4685999Y5279102D01*
X4686517Y5281172D01*
X4687810Y5285570D01*
X4688328Y5290745D01*
X4688845Y5393712D01*
X4688587Y5411563D01*
Y5412080D01*
X4688845Y5460976D01*
X4688587Y5463822D01*
X4687810Y5464598D01*
X4632446Y5465116D01*
X4631153Y5466409D01*
X4630635Y5525913D01*
X4631153Y5527983D01*
X4633222Y5528500D01*
X4686258Y5528241D01*
X4688328Y5528759D01*
X4688845Y5529794D01*
X4688587Y5605596D01*
X4689104Y5607148D01*
X4689621Y5616979D01*
X4690656Y5617497D01*
X4777842Y5617238D01*
D02*
G37*
G36*
X3258431Y5502111D02*
X3263347Y5501335D01*
X3264899Y5501853D01*
X3266192Y5501594D01*
X3273178Y5500818D01*
X3276800Y5499266D01*
X3279904Y5498748D01*
X3282491Y5497713D01*
X3283526Y5496679D01*
X3285596Y5496161D01*
X3289218Y5493574D01*
X3290252Y5493057D01*
X3292322Y5490987D01*
X3294651Y5488141D01*
X3295168Y5487106D01*
X3297238Y5485037D01*
X3297755Y5482967D01*
X3299825Y5479345D01*
X3300342Y5475205D01*
X3301377Y5472618D01*
X3301895Y5467962D01*
X3301118Y5467185D01*
X3279904Y5466668D01*
X3277834Y5467185D01*
X3276282Y5470290D01*
X3275506Y5473653D01*
X3274471Y5476241D01*
X3273436Y5477275D01*
X3272919Y5478310D01*
X3269297Y5480897D01*
X3266451Y5481673D01*
X3263864Y5482708D01*
X3251963Y5483226D01*
X3249117Y5482450D01*
X3245754Y5481673D01*
X3243167Y5480639D01*
X3242908Y5479862D01*
X3241356Y5478827D01*
X3239804Y5476241D01*
X3238769Y5475205D01*
X3238252Y5468996D01*
X3239804Y5465375D01*
X3242132Y5463046D01*
X3243167Y5462529D01*
X3243943Y5461753D01*
X3247306Y5460976D01*
X3249894Y5459942D01*
X3255585Y5459424D01*
X3259207Y5458907D01*
X3269038Y5458389D01*
X3272660Y5457872D01*
X3275506Y5457096D01*
X3280421Y5456320D01*
X3282491Y5455802D01*
X3285078Y5454767D01*
X3286113Y5454250D01*
X3289735Y5453215D01*
X3290770Y5452180D01*
X3291805Y5451663D01*
X3293875Y5451145D01*
X3295427Y5449593D01*
X3296462Y5449076D01*
X3300342Y5445195D01*
X3300860Y5444160D01*
X3301636Y5443901D01*
X3302929Y5440538D01*
X3304482Y5438986D01*
X3305517Y5434329D01*
X3306034Y5432777D01*
X3305775Y5419583D01*
X3304999Y5415702D01*
X3303964Y5413115D01*
X3302412Y5410528D01*
X3301895Y5409493D01*
X3300342Y5407941D01*
X3299825Y5406906D01*
X3298014Y5405095D01*
X3296979Y5404577D01*
X3295427Y5403025D01*
X3291805Y5400955D01*
X3289218Y5399403D01*
X3287148Y5398886D01*
X3281974Y5396816D01*
X3266969Y5396299D01*
X3260242Y5396816D01*
X3256620Y5397333D01*
X3252998Y5398886D01*
X3250928Y5399403D01*
X3249376Y5399921D01*
X3245754Y5401990D01*
X3244719Y5403025D01*
X3242132Y5404577D01*
X3240839Y5406388D01*
X3240321Y5407423D01*
X3239545Y5408199D01*
X3237734Y5407941D01*
X3237217Y5404836D01*
X3236182Y5402249D01*
X3235665Y5400179D01*
X3234371Y5398886D01*
X3211346Y5399144D01*
X3210828Y5402249D01*
X3211863Y5403284D01*
X3212380Y5404319D01*
X3212898Y5405871D01*
X3213415Y5421911D01*
Y5422429D01*
X3213674Y5473912D01*
X3214191Y5477016D01*
X3214709Y5479086D01*
X3215485Y5482450D01*
X3218072Y5488141D01*
X3224540Y5494609D01*
X3229197Y5497196D01*
X3229973Y5497972D01*
X3233336Y5498748D01*
X3236182Y5500042D01*
X3238252Y5500559D01*
X3241356Y5501077D01*
X3247565Y5501594D01*
X3250411Y5501335D01*
X3252481Y5501853D01*
X3254033Y5502370D01*
X3258431Y5502111D01*
D02*
G37*
G36*
X6757500Y5645179D02*
X6757758Y5643368D01*
X6757241Y5641298D01*
X6755171Y5636641D01*
X6754654Y5633537D01*
X6752843Y5630174D01*
X6752067Y5626810D01*
X6749997Y5622154D01*
X6749480Y5620084D01*
X6746893Y5613357D01*
X6745340Y5609735D01*
X6744823Y5607666D01*
X6743788Y5604044D01*
X6742753Y5603009D01*
X6742236Y5599904D01*
X6741201Y5597317D01*
X6740166Y5596282D01*
X6739649Y5593178D01*
X6737579Y5588521D01*
X6736544Y5584382D01*
X6735768Y5583606D01*
X6734992Y5580760D01*
X6734474Y5578690D01*
X6733181Y5576362D01*
X6732405Y5573516D01*
X6730335Y5568859D01*
X6729818Y5566789D01*
X6729041Y5564461D01*
X6728007Y5561874D01*
X6727230Y5559028D01*
X6726196Y5556441D01*
X6725419Y5555665D01*
X6724643Y5552302D01*
X6722574Y5547645D01*
X6721539Y5543505D01*
X6720763Y5542729D01*
X6719987Y5539883D01*
X6719469Y5537814D01*
X6718176Y5535485D01*
X6717399Y5532639D01*
X6715330Y5527983D01*
X6714812Y5525913D01*
X6713260Y5522291D01*
X6712743Y5520221D01*
X6711449Y5516858D01*
X6709638Y5511942D01*
X6708086Y5508320D01*
X6707051Y5504181D01*
X6705499Y5501594D01*
X6704464Y5497455D01*
X6703170Y5494609D01*
X6702394Y5491763D01*
X6700324Y5487106D01*
X6699290Y5483484D01*
X6697479Y5483226D01*
X6690752Y5486330D01*
X6687648Y5488400D01*
X6685578Y5488917D01*
X6682474Y5490987D01*
X6680404Y5491504D01*
X6678852Y5493057D01*
X6677299Y5493574D01*
X6673936Y5495385D01*
X6670573Y5496679D01*
X6669279Y5497972D01*
X6665916Y5499266D01*
X6664881Y5500301D01*
X6663846Y5500818D01*
X6661259Y5501853D01*
X6656602Y5504440D01*
X6654015Y5505992D01*
X6651428Y5507027D01*
X6647806Y5509097D01*
X6618313Y5524619D01*
X6613139Y5527724D01*
X6612104Y5528241D01*
X6609517Y5529276D01*
X6604860Y5531863D01*
X6602273Y5533416D01*
X6600721Y5533933D01*
X6599945Y5533674D01*
X6599427Y5532122D01*
X6600203Y5529794D01*
X6600979Y5523843D01*
X6602014Y5521256D01*
X6603049Y5516599D01*
X6603566Y5512977D01*
X6604084Y5510908D01*
X6605119Y5508320D01*
X6605636Y5505216D01*
X6606154Y5501594D01*
X6607447Y5498231D01*
X6608223Y5493315D01*
X6609258Y5489176D01*
X6610034Y5486330D01*
X6610811Y5481415D01*
X6612104Y5477016D01*
X6612880Y5474171D01*
X6613397Y5470549D01*
X6614432Y5466927D01*
X6615209Y5464081D01*
X6616243Y5457355D01*
X6617278Y5454767D01*
X6618054Y5450369D01*
X6618572Y5448299D01*
X6619348Y5445454D01*
X6619865Y5443384D01*
X6621159Y5435881D01*
X6622452Y5432518D01*
X6623487Y5426309D01*
X6624522Y5422170D01*
X6625298Y5419324D01*
X6625816Y5417254D01*
X6626333Y5413632D01*
X6627368Y5411045D01*
X6628403Y5404319D01*
X6629955Y5400697D01*
X6630472Y5395523D01*
X6631507Y5391383D01*
X6632542Y5388796D01*
X6633060Y5384657D01*
X6633577Y5382587D01*
X6634871Y5378189D01*
X6635905Y5371980D01*
X6636423Y5369393D01*
X6637458Y5366806D01*
X6638234Y5361890D01*
X6640045Y5355940D01*
X6640562Y5351800D01*
X6641338Y5348437D01*
X6642373Y5345850D01*
X6642891Y5341193D01*
X6644443Y5336019D01*
X6644960Y5334467D01*
X6645478Y5330327D01*
X6646254Y5327481D01*
X6646771Y5325412D01*
X6647548Y5322566D01*
X6648065Y5320496D01*
X6648582Y5316874D01*
X6649358Y5314546D01*
X6650135Y5311183D01*
X6650652Y5307561D01*
X6651687Y5303939D01*
X6652463Y5301093D01*
X6652980Y5297988D01*
X6653757Y5294108D01*
X6654791Y5291521D01*
X6654015Y5290745D01*
X6652980Y5291779D01*
X6651169Y5293073D01*
X6649876Y5294884D01*
X6648841Y5295401D01*
X6648582Y5296177D01*
X6647289Y5297471D01*
X6646254Y5297988D01*
X6645478Y5299282D01*
X6644960Y5300317D01*
X6644184Y5300576D01*
X6643925Y5301352D01*
X6642632Y5302645D01*
X6641597Y5303163D01*
X6641338Y5303939D01*
X6640045Y5305232D01*
X6639010Y5305750D01*
X6637458Y5308337D01*
X6637199Y5308596D01*
X6630990Y5314805D01*
X6630472Y5315840D01*
X6625816Y5320496D01*
X6625298Y5321531D01*
X6624522Y5321790D01*
X6620383Y5326964D01*
X6619348Y5327481D01*
X6618572Y5328258D01*
X6618054Y5329292D01*
X6617278Y5329551D01*
X6615209Y5332138D01*
X6614174Y5332656D01*
X6613915Y5333432D01*
X6608741Y5338606D01*
X6608223Y5339641D01*
X6607188Y5340158D01*
X6605636Y5342745D01*
X6598910Y5349472D01*
X6598392Y5350507D01*
X6591148Y5357751D01*
X6590631Y5358786D01*
X6583905Y5365512D01*
X6583387Y5366547D01*
X6576143Y5373791D01*
X6575626Y5374826D01*
X6573556Y5376895D01*
X6573039Y5377930D01*
X6566830Y5384139D01*
X6566312Y5385174D01*
X6559068Y5392418D01*
X6558551Y5393453D01*
X6551307Y5400697D01*
X6550790Y5401732D01*
X6545356Y5407164D01*
X6543028Y5410010D01*
X6542511Y5524878D01*
X6541993Y5526948D01*
X6541476Y5528500D01*
X6541734Y5579984D01*
X6542769Y5584123D01*
X6544063Y5587486D01*
X6547426Y5590849D01*
X6548461Y5591367D01*
X6549496Y5592402D01*
X6552083Y5593437D01*
X6554670Y5594989D01*
X6557775Y5595506D01*
X6562431Y5597576D01*
X6565536Y5598093D01*
X6570193Y5600163D01*
X6573297Y5600680D01*
X6576143Y5601974D01*
X6581576Y5603268D01*
X6584422Y5604561D01*
X6587268Y5605337D01*
X6589337Y5605855D01*
X6592183Y5607148D01*
X6596064Y5607924D01*
X6599686Y5609477D01*
X6603825Y5610512D01*
X6610552Y5612581D01*
X6612622Y5613099D01*
X6615467Y5613875D01*
X6618054Y5614910D01*
X6622452Y5615686D01*
X6626074Y5617238D01*
X6629179Y5617755D01*
X6635129Y5619566D01*
X6638492Y5620343D01*
X6640562Y5620860D01*
X6644960Y5622154D01*
X6648324Y5622930D01*
X6654274Y5624741D01*
X6658672Y5625517D01*
X6664622Y5627328D01*
X6669538Y5628104D01*
X6672901Y5629397D01*
X6679110Y5630432D01*
X6682474Y5631208D01*
X6685061Y5632243D01*
X6689200Y5632761D01*
X6691270Y5633278D01*
X6694115Y5634054D01*
X6696185Y5634572D01*
X6700583Y5635348D01*
X6704205Y5635865D01*
X6706792Y5636900D01*
X6708862Y5637417D01*
X6716106Y5638452D01*
X6718952Y5639228D01*
X6721021Y5639746D01*
X6727489Y5640522D01*
X6729559Y5641040D01*
X6732405Y5641815D01*
X6734992Y5642333D01*
X6739649Y5642850D01*
X6745082Y5643627D01*
X6747669Y5644661D01*
X6753878Y5645179D01*
X6755430Y5645696D01*
X6757500Y5645179D01*
D02*
G37*
G36*
X2582936Y5538072D02*
X2585006Y5537555D01*
X2588628Y5536520D01*
X2596389Y5532898D01*
X2597424Y5531346D01*
X2598459Y5530828D01*
X2599235Y5530052D01*
X2599752Y5529017D01*
X2601822Y5526948D01*
X2602339Y5525396D01*
X2604150Y5523067D01*
X2604927Y5519704D01*
X2606479Y5516082D01*
X2606996Y5502629D01*
X2607514Y5500559D01*
X2608290Y5499783D01*
X2619415Y5500042D01*
X2621225Y5499783D01*
X2622002Y5499007D01*
X2622519Y5483484D01*
X2621743Y5481156D01*
X2611395Y5480639D01*
X2609842Y5481156D01*
X2607773Y5480639D01*
X2607255Y5479604D01*
X2606738Y5399403D01*
X2583454Y5398886D01*
X2582678Y5399662D01*
X2582160Y5479862D01*
X2580608Y5480897D01*
X2564309Y5480639D01*
X2562239Y5481156D01*
X2561463Y5481932D01*
X2560946Y5496420D01*
X2561463Y5498490D01*
X2562239Y5499266D01*
X2580867Y5499783D01*
X2581643Y5500559D01*
X2582160Y5507803D01*
X2581643Y5509873D01*
X2579314Y5515306D01*
X2578279Y5515823D01*
X2575175Y5517893D01*
X2563792Y5518410D01*
X2562757D01*
X2560687Y5518928D01*
X2560428Y5537296D01*
X2561204Y5538072D01*
X2576210Y5538590D01*
X2582936Y5538072D01*
D02*
G37*
G36*
X2877091Y5499524D02*
X2877608Y5496420D01*
X2876056Y5493833D01*
X2875539Y5491763D01*
X2874504Y5488141D01*
X2873728Y5487365D01*
X2872175Y5481673D01*
X2871917Y5481415D01*
Y5480897D01*
X2870882Y5479862D01*
X2870364Y5476758D01*
X2867777Y5470031D01*
X2867260Y5467962D01*
X2865966Y5465116D01*
X2865190Y5462270D01*
X2863638Y5458648D01*
X2863121Y5457096D01*
X2862603Y5455026D01*
X2860792Y5450628D01*
X2860016Y5447265D01*
X2858722Y5444936D01*
X2857946Y5442090D01*
X2857429Y5440021D01*
X2856135Y5437692D01*
X2855359Y5434329D01*
X2852772Y5427603D01*
X2852255Y5425533D01*
X2850702Y5421911D01*
X2850185Y5419841D01*
X2849150Y5417254D01*
X2848374Y5415443D01*
X2847598Y5412080D01*
X2846304Y5408717D01*
X2845528Y5405353D01*
X2845011Y5403801D01*
X2844493Y5393453D01*
X2845528Y5389831D01*
X2846046Y5387761D01*
X2847598Y5386209D01*
X2848115Y5385174D01*
X2850444Y5383363D01*
X2853031Y5381811D01*
X2854583Y5381293D01*
X2869071Y5380776D01*
X2869847Y5380000D01*
X2870364Y5361373D01*
X2869588Y5360597D01*
X2851478Y5360079D01*
X2847856Y5360597D01*
X2845787Y5361114D01*
X2844235Y5361631D01*
X2840095Y5362149D01*
X2833369Y5365253D01*
X2829747Y5367323D01*
X2826383Y5370686D01*
X2825866Y5371721D01*
X2824831Y5372756D01*
X2822244Y5376378D01*
X2820174Y5380000D01*
X2818622Y5381552D01*
X2818105Y5384657D01*
X2816035Y5387761D01*
X2815518Y5390866D01*
X2813965Y5393453D01*
X2812930Y5398110D01*
X2811378Y5400697D01*
X2810861Y5402766D01*
X2809826Y5406388D01*
X2808274Y5410010D01*
X2807756Y5412080D01*
X2805687Y5417254D01*
X2805169Y5419324D01*
X2803617Y5422946D01*
X2802582Y5427085D01*
X2801547Y5428120D01*
X2801030Y5430707D01*
X2799995Y5434329D01*
X2798960Y5435364D01*
X2798443Y5437434D01*
X2797408Y5441056D01*
X2795855Y5444678D01*
X2795338Y5446747D01*
X2793268Y5451922D01*
X2792751Y5453991D01*
X2791199Y5457613D01*
X2790164Y5461753D01*
X2789129Y5462787D01*
X2788612Y5465375D01*
X2788094Y5467444D01*
X2786024Y5472101D01*
X2785507Y5474171D01*
X2784731Y5476499D01*
X2783437Y5479862D01*
X2782920Y5481932D01*
X2781626Y5484778D01*
X2780850Y5487624D01*
X2778781Y5492281D01*
X2778263Y5494350D01*
X2777228Y5496937D01*
X2777487Y5499266D01*
X2799219Y5499783D01*
X2800771Y5500301D01*
X2802323Y5499783D01*
X2805169Y5494350D01*
X2805687Y5490728D01*
X2807756Y5486071D01*
X2808274Y5482967D01*
X2810343Y5478310D01*
X2810861Y5475205D01*
X2811378Y5473136D01*
X2812672Y5470290D01*
X2813448Y5466409D01*
X2814741Y5463046D01*
X2816035Y5457613D01*
X2817587Y5453991D01*
X2818105Y5450887D01*
X2818622Y5448817D01*
X2819916Y5445971D01*
X2820692Y5442090D01*
X2821468Y5439245D01*
X2822503Y5436658D01*
X2823796Y5430707D01*
X2824831Y5428120D01*
X2825349Y5425016D01*
X2826125Y5422170D01*
X2827160Y5421652D01*
X2827936Y5422429D01*
X2828970Y5426568D01*
X2830523Y5431742D01*
X2831040Y5435364D01*
X2832334Y5438210D01*
X2833110Y5442608D01*
X2833886Y5445454D01*
X2834921Y5448041D01*
X2835697Y5451922D01*
X2836732Y5454509D01*
X2837508Y5456320D01*
X2838543Y5461494D01*
X2840095Y5465633D01*
X2840871Y5468996D01*
X2841647Y5471325D01*
X2842941Y5474688D01*
X2843458Y5476758D01*
X2845011Y5480380D01*
X2845528Y5483484D01*
X2846822Y5486330D01*
X2848115Y5491763D01*
X2849150Y5494350D01*
X2850702Y5498490D01*
X2851478Y5499266D01*
X2873728Y5499783D01*
X2875280Y5500301D01*
X2877091Y5499524D01*
D02*
G37*
G36*
X5782676Y5530828D02*
X5796646Y5529794D01*
X5798975Y5529017D01*
X5804149Y5528500D01*
X5808288Y5527983D01*
X5814497Y5526430D01*
X5819413Y5525654D01*
X5823035Y5524102D01*
X5826139Y5523585D01*
X5828209Y5523067D01*
X5830537Y5522291D01*
X5833901Y5520997D01*
X5835971Y5520480D01*
X5838299Y5519704D01*
X5841662Y5518410D01*
X5846319Y5516341D01*
X5848389Y5515823D01*
X5853045Y5513754D01*
X5864429Y5508579D01*
X5867016Y5507544D01*
X5869603Y5505992D01*
X5872966Y5504181D01*
X5876329Y5502888D01*
X5877364Y5501853D01*
X5879951Y5500818D01*
X5881245Y5499524D01*
X5884608Y5498231D01*
X5886160Y5496679D01*
X5887195Y5496161D01*
X5889782Y5494609D01*
X5892628Y5492798D01*
X5893146Y5490728D01*
X5893663Y5489176D01*
X5894180Y5420876D01*
X5893404Y5418548D01*
X5830279Y5418030D01*
X5828726Y5417513D01*
X5826657Y5418030D01*
X5826139Y5419065D01*
X5825363Y5422946D01*
X5824846Y5424498D01*
X5824070Y5428896D01*
X5823552Y5432001D01*
X5823035Y5437175D01*
X5822000Y5442349D01*
X5821483Y5444419D01*
X5820706Y5450887D01*
X5820189Y5452956D01*
X5816826Y5455285D01*
X5810099Y5458907D01*
X5808030Y5459424D01*
X5804408Y5460976D01*
X5800268Y5462011D01*
X5797681Y5463046D01*
X5796129Y5463564D01*
X5788368Y5464081D01*
X5786815Y5464598D01*
X5782159Y5465116D01*
X5776984Y5465633D01*
X5775432Y5466151D01*
X5772069Y5465892D01*
X5767153Y5465116D01*
X5758357Y5464081D01*
X5754735Y5463564D01*
X5751889Y5462787D01*
X5748526Y5461494D01*
X5740765Y5457872D01*
X5738178Y5456320D01*
X5737143Y5455285D01*
X5734297Y5453474D01*
X5733779Y5452439D01*
X5732227Y5451404D01*
X5731710Y5450369D01*
X5730158Y5448817D01*
X5728605Y5446230D01*
X5727570Y5445195D01*
X5725501Y5441573D01*
X5724725Y5440797D01*
X5723949Y5437951D01*
X5722138Y5434588D01*
X5721361Y5429672D01*
X5720844Y5428120D01*
X5720327Y5423981D01*
X5719809Y5421911D01*
X5719292Y5420359D01*
X5719550Y5389055D01*
X5719292Y5386726D01*
X5720068Y5384398D01*
X5765084Y5383881D01*
X5767930Y5383104D01*
X5783711Y5383363D01*
X5785263Y5382846D01*
X5793024Y5382328D01*
X5795094Y5381811D01*
X5804925Y5381293D01*
X5806995Y5380776D01*
X5808547Y5380258D01*
X5815274Y5379741D01*
X5817343Y5379224D01*
X5820965Y5378706D01*
X5823811Y5377930D01*
X5831314Y5376637D01*
X5834160Y5375343D01*
X5840110Y5374049D01*
X5843732Y5372497D01*
X5848389Y5371462D01*
X5849423Y5370427D01*
X5851493Y5369910D01*
X5856150Y5367840D01*
X5860289Y5366288D01*
X5861324Y5365253D01*
X5862359Y5364736D01*
X5869086Y5361631D01*
X5870120Y5360597D01*
X5873742Y5358527D01*
X5876329Y5356975D01*
X5877882Y5355422D01*
X5878917Y5354905D01*
X5879693Y5354129D01*
X5882538Y5351800D01*
X5883573Y5351283D01*
X5890817Y5344039D01*
X5893146Y5341193D01*
X5893663Y5340158D01*
X5894439Y5339900D01*
X5895733Y5337571D01*
X5896768Y5336536D01*
X5898320Y5333949D01*
X5899872Y5332397D01*
X5900390Y5330327D01*
X5901424Y5329292D01*
X5902977Y5326705D01*
X5903494Y5324636D01*
X5904529Y5323601D01*
X5905564Y5321014D01*
X5907375Y5316615D01*
X5908151Y5313252D01*
X5909962Y5307302D01*
X5910479Y5302645D01*
X5910997Y5298506D01*
X5911773Y5294625D01*
X5911255Y5293073D01*
X5911514Y5291779D01*
X5912290Y5288934D01*
X5911514Y5273670D01*
X5910738Y5270306D01*
X5909703Y5259958D01*
X5908668Y5257371D01*
X5907634Y5252714D01*
X5907116Y5250644D01*
X5905564Y5247022D01*
X5904529Y5243400D01*
X5903494Y5242365D01*
X5902977Y5239261D01*
X5900907Y5236156D01*
X5899872Y5233569D01*
X5898837Y5232534D01*
X5896768Y5228913D01*
X5895215Y5226325D01*
X5893663Y5224773D01*
X5893146Y5223738D01*
X5891076Y5221668D01*
X5890558Y5220634D01*
X5888489Y5218564D01*
X5887971Y5217529D01*
X5884091Y5213648D01*
X5883056Y5213131D01*
X5880469Y5210544D01*
X5879434Y5210027D01*
X5877882Y5208474D01*
X5876847Y5207957D01*
X5875812Y5206922D01*
X5873225Y5205370D01*
X5872190Y5204335D01*
X5871155Y5203818D01*
X5868051Y5201748D01*
X5858220Y5196574D01*
X5855632Y5195539D01*
X5852011Y5193987D01*
X5850458Y5193469D01*
X5847612Y5192693D01*
X5845543Y5192176D01*
X5842956Y5191141D01*
X5838558Y5190365D01*
X5836488Y5189847D01*
X5833642Y5189071D01*
X5831572Y5188554D01*
X5821483Y5187778D01*
X5819930Y5187260D01*
X5795611Y5186742D01*
X5794059Y5187260D01*
X5784228Y5188295D01*
X5780606Y5188812D01*
X5777760Y5189588D01*
X5772328Y5190882D01*
X5765601Y5192952D01*
X5763531Y5193469D01*
X5761203Y5194763D01*
X5758357Y5195539D01*
X5755770Y5196574D01*
X5754735Y5197608D01*
X5752665Y5198126D01*
X5749561Y5200196D01*
X5747491Y5200713D01*
X5746456Y5201748D01*
X5742058Y5204076D01*
X5735591Y5208474D01*
X5734556Y5208992D01*
X5734297Y5209768D01*
X5732486Y5210544D01*
X5730416Y5212614D01*
X5729381Y5213131D01*
X5727312Y5215201D01*
X5726277Y5215718D01*
X5726018Y5216494D01*
X5724207Y5217788D01*
X5723172Y5218305D01*
X5717739Y5223738D01*
X5717222Y5224773D01*
X5715929Y5226067D01*
X5714376Y5225549D01*
X5713600Y5221151D01*
X5713083Y5219082D01*
X5712048Y5216494D01*
X5711530Y5213390D01*
X5709978Y5209768D01*
X5708943Y5205628D01*
X5706356Y5198902D01*
X5705321Y5196315D01*
X5704804Y5195280D01*
X5703510Y5193987D01*
X5687988Y5193469D01*
X5603131D01*
X5600802Y5194245D01*
X5600285Y5247022D01*
X5601061Y5247798D01*
X5610892Y5249351D01*
X5612444Y5249868D01*
X5618653Y5250385D01*
X5623827Y5250903D01*
X5625897Y5251420D01*
X5626932Y5252455D01*
X5628225Y5255819D01*
X5628743Y5257371D01*
X5628225Y5258406D01*
X5628484Y5262804D01*
X5629001Y5265391D01*
X5629519Y5417513D01*
X5630036Y5429931D01*
X5630554Y5435105D01*
X5631071Y5437175D01*
X5632623Y5446489D01*
X5633141Y5448558D01*
X5634435Y5451922D01*
X5634952Y5453991D01*
X5636504Y5457613D01*
X5637021Y5461235D01*
X5639091Y5464340D01*
X5639609Y5466927D01*
X5641678Y5470031D01*
X5642196Y5472101D01*
X5643231Y5473136D01*
X5647370Y5480380D01*
X5648922Y5481932D01*
X5649440Y5482967D01*
X5651509Y5485037D01*
X5652027Y5486071D01*
X5653579Y5487624D01*
X5654097Y5488659D01*
X5661858Y5496420D01*
X5664704Y5498748D01*
X5665738Y5499266D01*
X5667291Y5500818D01*
X5668326Y5501335D01*
X5669878Y5502888D01*
X5670913Y5503405D01*
X5671948Y5504440D01*
X5675570Y5506510D01*
X5677122Y5508062D01*
X5678157Y5508579D01*
X5681261Y5510649D01*
X5682296Y5511167D01*
X5684883Y5512719D01*
X5685918Y5513236D01*
X5688505Y5514271D01*
X5689540Y5514788D01*
X5690316Y5515565D01*
X5693162Y5516341D01*
X5694714Y5517893D01*
X5696784Y5518410D01*
X5700406Y5519963D01*
X5702993Y5520997D01*
X5705839Y5521774D01*
X5710754Y5523585D01*
X5716705Y5525396D01*
X5721103Y5526172D01*
X5723172Y5526689D01*
X5728864Y5528241D01*
X5735849Y5529017D01*
X5738436Y5529535D01*
X5743869Y5530311D01*
X5750596Y5530828D01*
X5763531Y5531346D01*
X5782676Y5530828D01*
D02*
G37*
G36*
X3153136Y5501853D02*
X3156240Y5501335D01*
X3157793Y5501853D01*
X3159604Y5501594D01*
X3164519Y5500818D01*
X3174350Y5497713D01*
X3175385Y5496679D01*
X3177454Y5496161D01*
X3178489Y5495126D01*
X3182111Y5493057D01*
X3183664Y5491504D01*
X3184698Y5490987D01*
X3185474Y5490211D01*
X3185992Y5489176D01*
X3186768Y5488917D01*
X3187544Y5488141D01*
X3188062Y5487106D01*
X3190131Y5485037D01*
X3190649Y5484002D01*
X3192719Y5481932D01*
X3193236Y5479862D01*
X3194271Y5478827D01*
X3195823Y5476241D01*
X3197375Y5472618D01*
X3197893Y5471066D01*
X3198928Y5467444D01*
X3200221Y5463046D01*
X3200997Y5450887D01*
X3200480Y5436399D01*
X3199186Y5432001D01*
X3198410Y5429155D01*
X3197375Y5425533D01*
X3196599Y5424757D01*
X3195823Y5421911D01*
X3193753Y5418807D01*
X3193236Y5417254D01*
X3192201Y5416219D01*
X3190649Y5413632D01*
X3184957Y5407941D01*
X3178489Y5403025D01*
X3171763Y5399403D01*
X3167624Y5398368D01*
X3165036Y5397333D01*
X3163484Y5396816D01*
X3148996Y5396299D01*
X3140718Y5396816D01*
X3137096Y5397333D01*
X3134250Y5398627D01*
X3130887Y5399403D01*
X3128299Y5400438D01*
X3123642Y5403025D01*
X3121055Y5404577D01*
X3119503Y5406130D01*
X3118468Y5406647D01*
X3113553Y5411563D01*
X3110966Y5415184D01*
X3110448Y5416219D01*
X3109413Y5417254D01*
X3108896Y5418289D01*
X3107861Y5420876D01*
X3106826Y5421911D01*
X3106309Y5423981D01*
X3105533Y5426827D01*
X3104498Y5429414D01*
X3103722Y5435364D01*
X3104498Y5436140D01*
X3127782Y5436658D01*
X3128558Y5435881D01*
X3129852Y5432001D01*
X3131663Y5427085D01*
X3133215Y5425533D01*
X3133732Y5424498D01*
X3135026Y5423205D01*
X3137613Y5421652D01*
X3139683Y5419583D01*
X3141752Y5419065D01*
X3145374Y5417513D01*
X3154170Y5416996D01*
X3157016Y5417772D01*
X3160380Y5419065D01*
X3162449Y5419583D01*
X3164002Y5421135D01*
X3165036Y5421652D01*
X3168400Y5425016D01*
X3168917Y5426050D01*
X3169952Y5427085D01*
X3170469Y5428120D01*
X3172798Y5432001D01*
X3173574Y5435364D01*
X3174091Y5437434D01*
X3175126Y5441056D01*
X3175644Y5442608D01*
X3175385Y5455285D01*
X3174867Y5457355D01*
X3174350Y5459942D01*
X3173056Y5465892D01*
X3171504Y5468479D01*
X3170987Y5470031D01*
X3169434Y5471584D01*
X3168917Y5472618D01*
X3165554Y5475982D01*
X3164519Y5476499D01*
X3162967Y5478051D01*
X3161932Y5478569D01*
X3158568Y5479862D01*
X3155723Y5480639D01*
X3154170Y5481156D01*
X3145892Y5480639D01*
X3143305Y5479604D01*
X3138648Y5477534D01*
X3136061Y5475982D01*
X3133732Y5473136D01*
X3133215Y5472101D01*
X3131921Y5470807D01*
X3130628Y5467444D01*
X3129076Y5463822D01*
X3128299Y5463046D01*
X3105533Y5462529D01*
X3105015D01*
X3104757Y5462787D01*
X3104239Y5466409D01*
X3105533Y5470807D01*
X3106826Y5476241D01*
X3107861Y5477275D01*
X3108379Y5478310D01*
X3109413Y5480897D01*
X3111483Y5484519D01*
X3113553Y5486589D01*
X3114070Y5487624D01*
X3115622Y5489176D01*
X3118468Y5491504D01*
X3122090Y5494091D01*
X3123125Y5494609D01*
X3124160Y5495644D01*
X3126747Y5496679D01*
X3127523Y5497455D01*
X3133991Y5499783D01*
X3136578Y5500818D01*
X3146409Y5501335D01*
X3147961Y5501853D01*
X3151583Y5502370D01*
X3153136Y5501853D01*
D02*
G37*
G36*
X3408484Y5537296D02*
X3409001Y5400179D01*
X3407707Y5398886D01*
X3382612Y5399144D01*
X3382095Y5455544D01*
X3381319Y5457872D01*
X3318193Y5458389D01*
X3317417Y5459165D01*
X3316900Y5480380D01*
X3317676Y5481156D01*
X3380801Y5481673D01*
X3381578Y5482450D01*
X3382095Y5512460D01*
X3381319Y5513236D01*
X3368901Y5513754D01*
X3314571D01*
X3312502Y5513236D01*
X3310432Y5513754D01*
X3309656Y5515047D01*
X3309915Y5516858D01*
X3310432Y5537555D01*
X3406155Y5538072D01*
X3408484Y5537296D01*
D02*
G37*
G36*
X2979540D02*
X2980058Y5400179D01*
X2979282Y5399403D01*
X2955998Y5398886D01*
X2955222Y5399662D01*
X2954704Y5535226D01*
X2955480Y5537555D01*
X2957550Y5538072D01*
X2978764D01*
X2979540Y5537296D01*
D02*
G37*
G36*
X3002566Y5499783D02*
X3021969Y5500042D01*
X3023780Y5499783D01*
X3024815Y5497196D01*
X3024556Y5488659D01*
Y5488141D01*
Y5438986D01*
X3025074Y5436916D01*
X3026109Y5434329D01*
X3027143Y5429672D01*
X3028178Y5428638D01*
X3029731Y5426050D01*
X3031024Y5424757D01*
X3032059Y5424239D01*
X3034129Y5422170D01*
X3035163Y5421652D01*
X3038268Y5419583D01*
X3042925Y5418548D01*
X3044477Y5418030D01*
X3050945Y5418289D01*
X3054308Y5419065D01*
X3057154Y5419841D01*
X3060000Y5422170D01*
X3062328Y5425016D01*
X3063880Y5427603D01*
X3064398Y5429672D01*
X3064915Y5431225D01*
X3065433Y5496937D01*
X3066209Y5499266D01*
X3089493Y5499783D01*
X3090786Y5498490D01*
X3090527Y5426309D01*
X3090010Y5423722D01*
X3088716Y5417772D01*
X3085612Y5411045D01*
X3084060Y5408458D01*
X3079662Y5404060D01*
X3076040Y5401473D01*
X3075005Y5400955D01*
X3074229Y5400179D01*
X3070866Y5398886D01*
X3066209Y5396816D01*
X3054308Y5396299D01*
X3046029Y5396816D01*
X3043960Y5397333D01*
X3036716Y5400438D01*
X3033094Y5402508D01*
X3032059Y5403543D01*
X3031024Y5404060D01*
X3027661Y5407423D01*
X3027143Y5408458D01*
X3025332Y5410269D01*
X3024556Y5410010D01*
X3024039Y5400179D01*
X3022745Y5398886D01*
X3000237Y5399144D01*
X2999461Y5400955D01*
X2999720Y5499007D01*
X3001531Y5500301D01*
X3002566Y5499783D01*
D02*
G37*
G36*
X2680212Y5501853D02*
X2681764Y5501335D01*
X2683575Y5501594D01*
X2686421Y5501335D01*
X2691595Y5500818D01*
X2693923Y5500042D01*
X2697286Y5498748D01*
X2700908Y5497713D01*
X2701685Y5496937D01*
X2704531Y5496161D01*
X2705307Y5495385D01*
X2708411Y5493315D01*
X2711257Y5490987D01*
X2711774D01*
X2714362Y5488400D01*
X2715396Y5487882D01*
X2716172Y5486589D01*
X2716690Y5485554D01*
X2718242Y5484002D01*
X2718760Y5482967D01*
X2719794Y5481932D01*
X2721864Y5478310D01*
X2722899Y5477275D01*
X2724969Y5472101D01*
X2725745Y5471325D01*
X2726521Y5467444D01*
X2728073Y5463822D01*
X2728591Y5456578D01*
X2729108Y5452956D01*
X2728591Y5438469D01*
X2728073Y5434847D01*
X2727038Y5432259D01*
X2726003Y5428120D01*
X2723934Y5423463D01*
X2722899Y5420876D01*
X2720829Y5417254D01*
X2719794Y5416219D01*
X2719277Y5415184D01*
X2710740Y5406647D01*
X2709705Y5406130D01*
X2708153Y5404577D01*
X2707118Y5404060D01*
X2704013Y5401990D01*
X2701943Y5401473D01*
X2700391Y5399921D01*
X2696252Y5398886D01*
X2693665Y5397851D01*
X2691595Y5397333D01*
X2690043Y5396816D01*
X2677107Y5396299D01*
X2665724Y5396816D01*
X2663654Y5397333D01*
X2661067Y5398368D01*
X2658480Y5398886D01*
X2653823Y5400955D01*
X2652788Y5401473D01*
X2650201Y5402508D01*
X2646579Y5404577D01*
X2645027Y5406130D01*
X2643992Y5406647D01*
X2638042Y5412598D01*
X2636748Y5414409D01*
X2633385Y5419324D01*
X2631833Y5421911D01*
X2630539Y5424757D01*
X2629245Y5428120D01*
X2628728Y5430190D01*
X2627693Y5432777D01*
X2627176Y5434329D01*
X2626658Y5452956D01*
X2627176Y5462787D01*
X2628469Y5467185D01*
X2629245Y5470031D01*
X2630798Y5473653D01*
X2631315Y5474688D01*
X2632867Y5478310D01*
X2634937Y5481932D01*
X2637007Y5484002D01*
X2637524Y5485037D01*
X2639077Y5486589D01*
X2639594Y5487624D01*
X2640370Y5488400D01*
X2641405Y5488917D01*
X2642957Y5490470D01*
X2643992Y5490987D01*
X2645544Y5492539D01*
X2646579Y5493057D01*
X2650201Y5495644D01*
X2652788Y5496679D01*
X2653564Y5497455D01*
X2656928Y5498748D01*
X2658997Y5499266D01*
X2662619Y5500818D01*
X2671416Y5501335D01*
X2675037Y5501853D01*
X2676590Y5502370D01*
X2680212Y5501853D01*
D02*
G37*
G36*
X3064139Y5303680D02*
X3064657Y5282466D01*
X3064398Y5281172D01*
X3063622Y5280396D01*
X3042925Y5279879D01*
X3040079Y5280655D01*
X3039561Y5287899D01*
Y5288416D01*
Y5301352D01*
X3040079Y5303421D01*
X3042407Y5304715D01*
X3059223Y5304456D01*
X3061552Y5304715D01*
X3064139Y5303680D01*
D02*
G37*
G36*
X2614240Y5303939D02*
X2614758Y5292556D01*
Y5292038D01*
Y5281172D01*
X2613982Y5280396D01*
X2592250Y5279879D01*
X2590180Y5280396D01*
X2589663Y5281431D01*
X2589921Y5303421D01*
X2590698Y5304197D01*
X2592250Y5304715D01*
X2593802Y5304197D01*
X2594837Y5304715D01*
X2609584Y5304456D01*
X2611912Y5304715D01*
X2614240Y5303939D01*
D02*
G37*
G36*
Y5267202D02*
X2614758Y5248057D01*
Y5247540D01*
Y5169409D01*
X2613982Y5166563D01*
X2611395Y5166046D01*
X2609842Y5166563D01*
X2609325Y5166046D01*
X2594578Y5166304D01*
X2591215Y5166046D01*
X2590439Y5166822D01*
X2589921Y5263062D01*
X2589404Y5265132D01*
X2589921Y5267202D01*
X2591474Y5267719D01*
X2610360Y5267460D01*
X2611912Y5267978D01*
X2614240Y5267202D01*
D02*
G37*
G36*
X4994900Y5533157D02*
X5000075Y5532639D01*
X5006284Y5531605D01*
X5008871Y5531087D01*
X5013010Y5530570D01*
X5015597Y5530052D01*
X5018185Y5529017D01*
X5022583Y5528241D01*
X5024652Y5527724D01*
X5028274Y5526172D01*
X5031379Y5525654D01*
X5033966Y5524102D01*
X5036036Y5523585D01*
X5041727Y5520997D01*
X5049489Y5517376D01*
X5056732Y5513236D01*
X5057767Y5512201D01*
X5058802Y5511684D01*
X5061907Y5509614D01*
X5064494Y5508062D01*
X5066046Y5506510D01*
X5067081Y5505992D01*
X5068633Y5504440D01*
X5069668Y5503922D01*
X5072255Y5501335D01*
X5073290Y5500818D01*
X5084932Y5489176D01*
X5085449Y5488141D01*
X5088037Y5485554D01*
X5088554Y5484519D01*
X5090106Y5482967D01*
X5090624Y5481932D01*
X5091658Y5480897D01*
X5093211Y5478310D01*
X5094763Y5476758D01*
X5095280Y5475723D01*
X5096315Y5474688D01*
X5098385Y5471066D01*
X5099937Y5469514D01*
X5100972Y5466927D01*
X5102007Y5465892D01*
X5104077Y5462270D01*
X5106664Y5457613D01*
X5108216Y5455026D01*
X5110027Y5451663D01*
X5110803Y5448299D01*
X5112097Y5447006D01*
X5113390Y5443643D01*
X5114943Y5440021D01*
X5115460Y5437951D01*
X5117530Y5433294D01*
X5118047Y5430190D01*
X5119599Y5426568D01*
X5120634Y5421911D01*
X5122445Y5415961D01*
X5122963Y5412856D01*
X5123739Y5407941D01*
X5124256Y5405871D01*
X5125032Y5403025D01*
X5125808Y5393453D01*
X5126326Y5391901D01*
X5126843Y5386209D01*
X5127361Y5384657D01*
X5127878Y5351541D01*
X5127361Y5341711D01*
X5126843Y5330327D01*
X5125808Y5326188D01*
X5125291Y5319462D01*
X5124774Y5315840D01*
X5123221Y5310665D01*
X5122704Y5305491D01*
X5121928Y5302645D01*
X5120634Y5299282D01*
X5120117Y5295660D01*
X5118564Y5293073D01*
X5118047Y5289968D01*
X5115460Y5283242D01*
X5114943Y5281172D01*
X5114166Y5280396D01*
X5112355Y5275480D01*
X5111320Y5274446D01*
X5110803Y5273411D01*
X5107181Y5265650D01*
X5104594Y5260993D01*
X5103042Y5258406D01*
X5100972Y5256336D01*
X5100455Y5254266D01*
X5099420Y5253231D01*
X5097868Y5250644D01*
X5096315Y5249092D01*
X5095798Y5248057D01*
X5094763Y5247022D01*
X5093211Y5244435D01*
X5090624Y5241848D01*
X5090106Y5240813D01*
X5083897Y5234604D01*
X5083380Y5233569D01*
X5080534Y5230724D01*
X5078723Y5229430D01*
X5078205Y5228395D01*
X5077429Y5228136D01*
X5072772Y5223480D01*
X5071738Y5222962D01*
X5070962Y5222186D01*
X5068116Y5219858D01*
X5060872Y5214683D01*
X5057250Y5212614D01*
X5055698Y5211061D01*
X5053111Y5210027D01*
X5051817Y5208733D01*
X5048454Y5207439D01*
X5047419Y5206405D01*
X5043279Y5204852D01*
X5042245Y5203818D01*
X5038105Y5202265D01*
X5037070Y5201230D01*
X5035001Y5200713D01*
X5030603Y5198902D01*
X5027757Y5198126D01*
X5025687Y5197608D01*
X5022841Y5196315D01*
X5018960Y5195539D01*
X5013010Y5193728D01*
X5004990Y5192434D01*
X5002920Y5191917D01*
X5001368Y5191399D01*
X4996711Y5190882D01*
X4996194D01*
X4987398Y5190365D01*
X4985328Y5189847D01*
X4983776Y5189330D01*
X4954024Y5189588D01*
X4951955Y5190106D01*
X4936690Y5190882D01*
X4935138Y5191399D01*
X4930223Y5192176D01*
X4928153Y5192693D01*
X4921685Y5193469D01*
X4919616Y5193987D01*
X4917287Y5194763D01*
X4915217Y5195280D01*
X4910302Y5196056D01*
X4906680Y5197608D01*
X4903575Y5198126D01*
X4901506Y5198643D01*
X4897884Y5200196D01*
X4893744Y5201230D01*
X4891416Y5202524D01*
X4888053Y5203300D01*
X4884689Y5205111D01*
X4881326Y5205887D01*
X4880550Y5206663D01*
X4877187Y5207957D01*
X4864251Y5214166D01*
X4860629Y5216236D01*
X4858042Y5217788D01*
X4852351Y5221410D01*
X4849763Y5222962D01*
X4848729Y5223997D01*
X4846141Y5225549D01*
X4843813Y5228395D01*
X4845365Y5233569D01*
X4846141Y5234345D01*
X4847952Y5239261D01*
X4848729Y5240037D01*
X4850022Y5243400D01*
X4852092Y5248057D01*
X4858560Y5262286D01*
X4859853Y5265650D01*
X4862440Y5271341D01*
X4864510Y5275998D01*
X4867615Y5282725D01*
X4868908Y5282983D01*
X4872530Y5281431D01*
X4884431Y5275222D01*
X4895814Y5270048D01*
X4897884Y5269530D01*
X4900212Y5268237D01*
X4903058Y5267460D01*
X4905128Y5266943D01*
X4906163Y5265908D01*
X4908750Y5265391D01*
X4910819Y5264873D01*
X4914441Y5263321D01*
X4919357Y5262545D01*
X4925307Y5261251D01*
X4926859Y5260734D01*
X4933069Y5260217D01*
X4934621Y5259699D01*
X4948074Y5259182D01*
X4949626Y5258664D01*
X4965149Y5258147D01*
X4967477Y5258923D01*
X4972651Y5259440D01*
X4978602Y5260217D01*
X4980671Y5260734D01*
X4987398Y5262804D01*
X4991020Y5264356D01*
X4992055Y5264873D01*
X4997746Y5267460D01*
X5000333Y5269013D01*
X5003179Y5270824D01*
X5006025Y5273152D01*
X5007060Y5273670D01*
X5013528Y5280137D01*
X5014821Y5281948D01*
X5017150Y5284794D01*
X5019737Y5288416D01*
X5021289Y5291003D01*
X5022841Y5292556D01*
X5023359Y5293590D01*
X5024394Y5296177D01*
X5025687Y5297988D01*
X5026463Y5300834D01*
X5027498Y5301869D01*
X5028533Y5304456D01*
X5029568Y5308078D01*
X5030344Y5308854D01*
X5031120Y5312217D01*
X5031637Y5314287D01*
X5032414Y5316615D01*
X5033190Y5319462D01*
X5034225Y5326705D01*
X5034742Y5331880D01*
X5033966Y5334208D01*
X4878222Y5334725D01*
X4838898Y5335243D01*
X4836569Y5336019D01*
X4836052Y5338089D01*
X4836569Y5339641D01*
X4837087Y5381035D01*
X4837604Y5409493D01*
X4838121Y5411045D01*
X4838639Y5415184D01*
X4839156Y5416737D01*
X4839674Y5421394D01*
X4840191Y5425016D01*
X4840709Y5427085D01*
X4841485Y5429414D01*
X4842261Y5433294D01*
X4842778Y5435364D01*
X4844072Y5439762D01*
X4844848Y5442608D01*
X4845365Y5444678D01*
X4846659Y5447524D01*
X4847435Y5450369D01*
X4849505Y5455026D01*
X4852092Y5460718D01*
X4853127Y5463305D01*
X4854679Y5465892D01*
X4855714Y5468479D01*
X4859853Y5475723D01*
X4860888Y5476758D01*
X4862958Y5480380D01*
X4863993Y5481415D01*
X4864510Y5482450D01*
X4866580Y5484519D01*
X4867097Y5485554D01*
X4868132Y5486589D01*
X4869684Y5489176D01*
X4873824Y5493315D01*
X4874341Y5494350D01*
X4880291Y5500301D01*
X4881326Y5500818D01*
X4883396Y5502888D01*
X4884431Y5503405D01*
X4885724Y5504699D01*
X4892192Y5509614D01*
X4894779Y5511167D01*
X4896849Y5513236D01*
X4898919Y5513754D01*
X4899953Y5514788D01*
X4906680Y5518410D01*
X4909267Y5519445D01*
X4910043Y5520221D01*
X4913406Y5521515D01*
X4915735Y5522808D01*
X4918581Y5523585D01*
X4921944Y5525396D01*
X4925825Y5526172D01*
X4929188Y5527465D01*
X4934621Y5528759D01*
X4939019Y5530052D01*
X4941606Y5530570D01*
X4946263Y5531087D01*
X4951178Y5531863D01*
X4952731Y5532381D01*
X4959975Y5532898D01*
X4961527Y5533416D01*
X4994900Y5533157D01*
D02*
G37*
G36*
X2428744Y5269530D02*
X2431073Y5268754D01*
X2433919Y5267978D01*
X2437540Y5266943D01*
X2438317Y5266167D01*
X2441680Y5264873D01*
X2445302Y5262286D01*
X2446337Y5261769D01*
X2452287Y5255819D01*
X2452805Y5254784D01*
X2453839Y5253749D01*
X2457720Y5248316D01*
X2458496Y5245470D01*
X2459531Y5244435D01*
X2460566Y5241848D01*
X2461342Y5239002D01*
X2462377Y5236415D01*
X2462894Y5233828D01*
X2463670Y5226843D01*
X2464188Y5225291D01*
X2463929Y5211061D01*
X2462636Y5202007D01*
X2461342Y5198643D01*
X2460048Y5193210D01*
X2458755Y5191917D01*
X2457461Y5188554D01*
X2456426Y5187519D01*
X2455909Y5186484D01*
X2453322Y5182862D01*
X2452805Y5181827D01*
X2449441Y5178464D01*
X2448406Y5177946D01*
X2448148Y5177170D01*
X2446337Y5175877D01*
X2445302Y5175359D01*
X2444267Y5174324D01*
X2440645Y5172255D01*
X2438058Y5170702D01*
X2433401Y5168633D01*
X2428227Y5168115D01*
X2426675Y5167598D01*
X2413222Y5167081D01*
X2409082Y5168115D01*
X2405460Y5168633D01*
X2398216Y5171737D01*
X2395629Y5173290D01*
X2394077Y5174842D01*
X2393042Y5175359D01*
X2391749Y5176653D01*
X2391231Y5177688D01*
X2389938Y5178981D01*
X2388644Y5178722D01*
X2388127Y5170444D01*
X2388644Y5162165D01*
X2389162Y5160095D01*
X2391231Y5155439D01*
X2392266Y5154404D01*
X2393818Y5151816D01*
X2396664Y5150006D01*
X2403391Y5146384D01*
X2410117Y5145866D01*
X2411670Y5145349D01*
X2412187D01*
X2417879Y5145866D01*
X2421500Y5146384D01*
X2425122Y5147936D01*
X2427710Y5148971D01*
X2430555Y5151816D01*
X2431073Y5152852D01*
X2432625Y5154404D01*
X2433142Y5155956D01*
X2434177Y5159578D01*
X2435471Y5160872D01*
X2456168Y5161389D01*
X2458237Y5160872D01*
X2459531Y5159578D01*
X2459272Y5158802D01*
X2458496Y5155956D01*
X2457979Y5152334D01*
X2456426Y5148712D01*
X2455909Y5147677D01*
X2454874Y5145090D01*
X2453322Y5142503D01*
X2451252Y5140433D01*
X2450735Y5139398D01*
X2449959Y5138622D01*
X2448924Y5138105D01*
X2447889Y5136553D01*
X2446854Y5136035D01*
X2445302Y5134483D01*
X2441680Y5132413D01*
X2439093Y5130861D01*
X2435471Y5129309D01*
X2433919Y5128791D01*
X2427710Y5127239D01*
X2426157Y5126722D01*
X2408048Y5126204D01*
X2399769Y5126722D01*
X2396923Y5127498D01*
X2391490Y5128791D01*
X2387868Y5130344D01*
X2386316Y5130861D01*
X2383729Y5131896D01*
X2380107Y5133966D01*
X2378554Y5135518D01*
X2377520Y5136035D01*
X2375967Y5137587D01*
X2374933Y5138105D01*
X2369499Y5145090D01*
X2368982Y5146125D01*
X2366912Y5149229D01*
X2366395Y5150264D01*
X2365878Y5152334D01*
X2363808Y5156991D01*
X2363290Y5166822D01*
X2362773Y5168374D01*
X2362256Y5266167D01*
X2363032Y5266943D01*
X2386316Y5267460D01*
X2387351Y5266426D01*
X2387092Y5259958D01*
X2387868Y5257630D01*
X2390196Y5258406D01*
X2390714Y5259440D01*
X2393042Y5261769D01*
X2394077Y5262286D01*
X2395629Y5263839D01*
X2402356Y5267460D01*
X2404425Y5267978D01*
X2408048Y5269530D01*
X2423570Y5270048D01*
X2428744Y5269530D01*
D02*
G37*
G36*
X6137110Y5657597D02*
X6142284Y5657080D01*
X6149011Y5656562D01*
X6151857Y5655786D01*
X6160394Y5655010D01*
X6162464Y5654492D01*
X6165310Y5653716D01*
X6171001Y5652681D01*
X6173589Y5652164D01*
X6175658Y5651647D01*
X6178245Y5650612D01*
X6181350Y5650094D01*
X6183937Y5649577D01*
X6188852Y5647766D01*
X6190922Y5647249D01*
X6193768Y5645955D01*
X6196614Y5645179D01*
X6200236Y5643627D01*
X6202823Y5642592D01*
X6204893Y5642074D01*
X6205669Y5641298D01*
X6209032Y5640004D01*
X6216793Y5636383D01*
X6220415Y5634313D01*
X6225072Y5631726D01*
X6232316Y5627586D01*
X6233351Y5626552D01*
X6234386Y5626034D01*
X6239560Y5622412D01*
X6240595Y5621895D01*
X6242923Y5620084D01*
X6245769Y5617755D01*
X6246804Y5617238D01*
X6248356Y5615686D01*
X6249391Y5615168D01*
X6251461Y5613099D01*
X6252495Y5612581D01*
X6256635Y5608442D01*
X6257670Y5607924D01*
X6271899Y5593695D01*
X6272416Y5592660D01*
X6275521Y5589556D01*
X6276038Y5588521D01*
X6277590Y5586969D01*
X6278108Y5585934D01*
X6278884Y5585675D01*
X6280178Y5583864D01*
X6280695Y5582829D01*
X6282247Y5581277D01*
X6282765Y5580242D01*
X6283799Y5579208D01*
X6285352Y5576620D01*
X6286645Y5575327D01*
X6291044Y5568859D01*
X6293113Y5565237D01*
X6294665Y5563685D01*
X6295183Y5562650D01*
X6297253Y5559545D01*
X6297770Y5558511D01*
X6299322Y5555923D01*
X6309153Y5536779D01*
X6310188Y5534192D01*
X6311482Y5531346D01*
X6312775Y5527983D01*
X6313293Y5525913D01*
X6314327Y5524878D01*
X6315362Y5520739D01*
X6316656Y5517893D01*
X6317432Y5515047D01*
X6317950Y5512977D01*
X6319502Y5509356D01*
X6320019Y5506251D01*
X6320537Y5504181D01*
X6321571Y5501594D01*
X6322606Y5497455D01*
X6323123Y5493833D01*
X6324417Y5489435D01*
X6325193Y5484519D01*
X6326228Y5478310D01*
X6327263Y5475723D01*
X6327780Y5463822D01*
X6328298Y5462270D01*
X6328815Y5456578D01*
X6329333Y5454509D01*
X6329850Y5452956D01*
X6329591Y5447006D01*
X6329850Y5392935D01*
X6329333Y5391383D01*
X6328815Y5385174D01*
X6328298Y5383622D01*
X6327522Y5373532D01*
X6326746Y5367064D01*
X6325711Y5364477D01*
X6325193Y5359820D01*
X6324676Y5356198D01*
X6323123Y5350507D01*
X6322606Y5348437D01*
X6322089Y5344815D01*
X6320795Y5341452D01*
X6320019Y5337054D01*
X6318467Y5333432D01*
X6317432Y5329292D01*
X6315880Y5325671D01*
X6314327Y5319462D01*
X6313293Y5318426D01*
X6312775Y5316357D01*
X6311223Y5312735D01*
X6309671Y5308596D01*
X6308377Y5305750D01*
X6307083Y5302386D01*
X6306049Y5301352D01*
X6304496Y5297212D01*
X6303462Y5296177D01*
X6302944Y5295143D01*
X6301909Y5292556D01*
X6299322Y5287899D01*
X6297253Y5284277D01*
X6295700Y5282725D01*
X6295183Y5280655D01*
X6293631Y5279102D01*
X6291561Y5275480D01*
X6290009Y5272893D01*
X6288715Y5271600D01*
X6286645Y5268495D01*
X6281730Y5262028D01*
X6281471Y5261769D01*
X6280695Y5260993D01*
X6280178Y5259958D01*
X6278108Y5257888D01*
X6277590Y5256853D01*
X6276038Y5255301D01*
X6275521Y5254266D01*
X6270347Y5249092D01*
X6269829Y5248057D01*
X6261809Y5240037D01*
X6260774Y5239520D01*
X6260516Y5238744D01*
X6259739Y5238485D01*
X6255082Y5233828D01*
X6253272Y5232534D01*
X6250426Y5230206D01*
X6249391Y5229689D01*
X6247839Y5228136D01*
X6246804Y5227619D01*
X6244734Y5225549D01*
X6243699Y5225032D01*
X6242664Y5223997D01*
X6240077Y5222445D01*
X6239301Y5221668D01*
X6232833Y5217270D01*
X6229212Y5215201D01*
X6228177Y5214166D01*
X6224555Y5212096D01*
X6207480Y5203300D01*
X6201788Y5200713D01*
X6198166Y5199678D01*
X6197390Y5198902D01*
X6194544Y5198126D01*
X6190146Y5196315D01*
X6186783Y5195539D01*
X6184713Y5195021D01*
X6181867Y5193728D01*
X6178763Y5193210D01*
X6176176Y5192693D01*
X6174106Y5192176D01*
X6171519Y5191141D01*
X6165569Y5190365D01*
X6161170Y5189071D01*
X6158066Y5188554D01*
X6148494Y5187778D01*
X6146941Y5187260D01*
X6142284Y5186742D01*
X6140732Y5186225D01*
X6110204Y5185708D01*
X6106582Y5186225D01*
X6093647Y5186742D01*
X6090801Y5187519D01*
X6081229Y5188295D01*
X6077607Y5188812D01*
X6074761Y5189588D01*
X6065447Y5191141D01*
X6062860Y5191658D01*
X6059497Y5192952D01*
X6055875Y5193469D01*
X6051477Y5194763D01*
X6046044Y5196056D01*
X6043198Y5197350D01*
X6040352Y5198126D01*
X6035954Y5199937D01*
X6033108Y5200713D01*
X6031039Y5201230D01*
X6030263Y5202007D01*
X6026899Y5203300D01*
X6022242Y5205370D01*
X6011377Y5210544D01*
X6008013Y5212355D01*
X6004650Y5213648D01*
X6003098Y5215201D01*
X6001028Y5215718D01*
X5999993Y5216753D01*
X5992750Y5220893D01*
X5991197Y5222445D01*
X5990162Y5222962D01*
X5987058Y5225032D01*
X5986023Y5225549D01*
X5984988Y5226584D01*
X5982401Y5228136D01*
X5981366Y5229171D01*
X5978779Y5230724D01*
X5976709Y5232793D01*
X5975675Y5233311D01*
X5973605Y5235380D01*
X5972570Y5235898D01*
X5972053Y5236933D01*
X5971018Y5237450D01*
X5968948Y5239520D01*
X5967913Y5240037D01*
X5966878Y5241589D01*
X5965844Y5242107D01*
X5964550Y5243400D01*
X5964033Y5244435D01*
X5962998Y5244953D01*
X5961704Y5246764D01*
X5960669Y5247281D01*
X5959893Y5248057D01*
X5959376Y5249092D01*
X5958599Y5249351D01*
X5957823Y5250127D01*
X5956530Y5251938D01*
X5955495Y5252455D01*
X5954719Y5253231D01*
X5954201Y5254266D01*
X5952649Y5255819D01*
X5952132Y5282207D01*
X5952649Y5346367D01*
X5953425Y5347143D01*
X6018621Y5347661D01*
X6020690Y5347143D01*
X6021466Y5346367D01*
X6021984Y5343780D01*
X6023019Y5334984D01*
X6023795Y5332138D01*
X6024571Y5324636D01*
X6025088Y5321014D01*
X6025606Y5319462D01*
X6026382Y5314546D01*
X6026899Y5310406D01*
X6027676Y5303421D01*
X6028451Y5300576D01*
X6028969Y5298506D01*
X6029745Y5292038D01*
X6030263Y5286864D01*
X6031297Y5285829D01*
X6031815Y5284794D01*
X6033626Y5282983D01*
X6034661Y5282466D01*
X6035437Y5281690D01*
X6038283Y5279361D01*
X6045527Y5274187D01*
X6048114Y5272635D01*
X6050701Y5271600D01*
X6051477Y5270824D01*
X6054840Y5269530D01*
X6055616Y5268754D01*
X6058979Y5267460D01*
X6063636Y5265391D01*
X6065706Y5264873D01*
X6070104Y5263062D01*
X6073209Y5262545D01*
X6075278Y5262028D01*
X6077865Y5260993D01*
X6084592Y5259958D01*
X6088473Y5259182D01*
X6090025Y5258664D01*
X6095199Y5258147D01*
X6096751Y5257630D01*
X6121070Y5257112D01*
X6134523Y5258147D01*
X6137369Y5258923D01*
X6141767Y5259699D01*
X6143837Y5260217D01*
X6147459Y5260734D01*
X6150822Y5262028D01*
X6152892Y5262545D01*
X6156255Y5263321D01*
X6157290Y5264356D01*
X6159360Y5264873D01*
X6164792Y5267202D01*
X6167638Y5267978D01*
X6168673Y5269013D01*
X6173330Y5271600D01*
X6176952Y5273670D01*
X6179539Y5275222D01*
X6180574Y5276257D01*
X6183161Y5277809D01*
X6185230Y5279879D01*
X6186266Y5280396D01*
X6187818Y5281948D01*
X6188852Y5282466D01*
X6197907Y5291521D01*
X6198425Y5292556D01*
X6200495Y5294625D01*
X6201012Y5295660D01*
X6202564Y5297212D01*
X6203082Y5298247D01*
X6204116Y5299282D01*
X6206704Y5302904D01*
X6208773Y5306526D01*
X6210326Y5308078D01*
X6214465Y5315322D01*
X6218604Y5323083D01*
X6219898Y5325412D01*
X6221192Y5328775D01*
X6222744Y5331362D01*
X6223261Y5333949D01*
X6224296Y5336536D01*
X6225331Y5337571D01*
X6225848Y5340676D01*
X6227659Y5345074D01*
X6228177Y5347143D01*
X6228694Y5349731D01*
X6230246Y5353870D01*
X6231022Y5358786D01*
X6232316Y5362149D01*
X6232833Y5364736D01*
X6233351Y5368875D01*
X6233868Y5371980D01*
X6234386Y5374049D01*
X6234903Y5376637D01*
X6235679Y5385692D01*
X6236197Y5387244D01*
X6236714Y5400697D01*
X6237232Y5402766D01*
X6237749Y5404319D01*
X6237490Y5441832D01*
X6236973Y5444419D01*
X6236197Y5457096D01*
X6235679Y5459165D01*
X6235162Y5467444D01*
X6234386Y5470290D01*
X6233868Y5473395D01*
X6233092Y5478827D01*
X6232575Y5480897D01*
X6231799Y5483743D01*
X6231281Y5485813D01*
X6230505Y5490728D01*
X6228953Y5494350D01*
X6227918Y5499007D01*
X6226366Y5502629D01*
X6225848Y5504699D01*
X6223779Y5509356D01*
X6222744Y5513495D01*
X6221709Y5514530D01*
X6220674Y5517117D01*
X6220156Y5519187D01*
X6219122Y5520221D01*
X6217569Y5524361D01*
X6216535Y5525396D01*
X6216017Y5526948D01*
X6213947Y5530052D01*
X6210843Y5535744D01*
X6209808Y5536779D01*
X6207738Y5540401D01*
X6206962Y5540659D01*
X6205410Y5543246D01*
X6203082Y5546092D01*
X6202564Y5547127D01*
X6201012Y5548680D01*
X6200495Y5549714D01*
X6189887Y5560322D01*
X6188852Y5560839D01*
X6187818Y5561874D01*
X6186007Y5563167D01*
X6183161Y5565496D01*
X6182126Y5566013D01*
X6181091Y5567048D01*
X6178504Y5568600D01*
X6177469Y5569635D01*
X6169708Y5573774D01*
X6168673Y5574809D01*
X6166086Y5575844D01*
X6164016Y5576362D01*
X6163240Y5577138D01*
X6159877Y5578431D01*
X6157290Y5579466D01*
X6155479Y5580242D01*
X6151598Y5581018D01*
X6147976Y5582571D01*
X6144354Y5583088D01*
X6138145Y5584640D01*
X6136593Y5585158D01*
X6128314Y5585675D01*
X6126762Y5586193D01*
X6110204Y5586710D01*
X6105030Y5586193D01*
X6088473Y5585158D01*
X6086403Y5584640D01*
X6083816Y5583606D01*
X6079676Y5583088D01*
X6076054Y5582571D01*
X6073209Y5581277D01*
X6069328Y5580501D01*
X6066482Y5579208D01*
X6063119Y5577914D01*
X6058462Y5575844D01*
X6052770Y5573257D01*
X6049666Y5571187D01*
X6047596Y5570670D01*
X6046561Y5569635D01*
X6042939Y5567565D01*
X6041905Y5566531D01*
X6040870Y5566013D01*
X6038800Y5563943D01*
X6037765Y5563426D01*
X6035696Y5561356D01*
X6034661Y5560839D01*
X6032074Y5558252D01*
X6031039Y5555665D01*
X6030521Y5553078D01*
X6029487Y5546351D01*
X6028969Y5541177D01*
X6028451Y5539107D01*
X6027934Y5536520D01*
X6027417Y5534450D01*
X6026899Y5528759D01*
X6026123Y5523843D01*
X6025347Y5520997D01*
X6024830Y5516858D01*
X6024053Y5509873D01*
X6023277Y5507027D01*
X6022760Y5503922D01*
X6021725Y5497196D01*
X5954460Y5496679D01*
X5952908Y5497196D01*
X5953167Y5583864D01*
X5952649Y5585417D01*
X5953684Y5588521D01*
X5954201Y5589556D01*
X5956271Y5591108D01*
X5956789Y5592143D01*
X5958858Y5593695D01*
X5959376Y5594730D01*
X5961445Y5596282D01*
X5961963Y5597317D01*
X5962739Y5598093D01*
X5963774Y5598611D01*
X5964033Y5599387D01*
X5965326Y5600680D01*
X5966361Y5601198D01*
X5967396Y5602750D01*
X5968431Y5603268D01*
X5969983Y5604820D01*
X5971018Y5605337D01*
X5971794Y5606114D01*
X5972311Y5607148D01*
X5973087Y5607407D01*
X5974640Y5608959D01*
X5976451Y5610253D01*
X5982918Y5615168D01*
X5983953Y5615686D01*
X5984988Y5616721D01*
X5987575Y5618273D01*
X5989127Y5619825D01*
X5990680Y5620343D01*
X5991715Y5621377D01*
X5995336Y5623447D01*
X5996889Y5624999D01*
X5998959Y5625517D01*
X5999993Y5626552D01*
X6003615Y5628621D01*
X6006202Y5630174D01*
X6008790Y5631208D01*
X6009824Y5632243D01*
X6010859Y5632761D01*
X6014222Y5634572D01*
X6017586Y5635865D01*
X6018621Y5636900D01*
X6020690Y5637417D01*
X6023277Y5638452D01*
X6025088Y5639746D01*
X6027934Y5640522D01*
X6032591Y5642592D01*
X6039317Y5645179D01*
X6041387Y5645696D01*
X6043716Y5646990D01*
X6047596Y5647766D01*
X6049666Y5648283D01*
X6052512Y5649577D01*
X6056910Y5650353D01*
X6063636Y5652423D01*
X6070880Y5653458D01*
X6073467Y5654492D01*
X6084333Y5655527D01*
X6085885Y5656045D01*
X6090542Y5656562D01*
X6092094Y5657080D01*
X6106582Y5657597D01*
X6111757Y5658114D01*
X6137110Y5657597D01*
D02*
G37*
G36*
X3149255Y5269789D02*
X3151325Y5269271D01*
X3153912Y5268237D01*
X3157275Y5267460D01*
X3159862Y5266426D01*
X3164519Y5263839D01*
X3167106Y5262286D01*
X3168658Y5260734D01*
X3169693Y5260217D01*
X3170728Y5258664D01*
X3172539Y5257371D01*
X3173056Y5256336D01*
X3174091Y5255301D01*
X3176678Y5251679D01*
X3178748Y5248057D01*
X3179783Y5247022D01*
X3180818Y5244435D01*
X3182887Y5239778D01*
X3183405Y5236156D01*
X3184440Y5232534D01*
X3184957Y5230982D01*
X3185474Y5223738D01*
X3185992Y5222186D01*
X3185733Y5214683D01*
X3185216Y5208474D01*
X3184698Y5206405D01*
X3184181Y5203818D01*
X3182887Y5198385D01*
X3182370Y5196315D01*
X3181335Y5195280D01*
X3180818Y5193210D01*
X3179783Y5190623D01*
X3178748Y5189588D01*
X3178231Y5187519D01*
X3177196Y5186484D01*
X3175644Y5183897D01*
X3173574Y5181827D01*
X3173056Y5180792D01*
X3170728Y5178464D01*
X3169693Y5177946D01*
X3167624Y5175877D01*
X3166589Y5175359D01*
X3165036Y5173807D01*
X3162449Y5172772D01*
X3161414Y5171737D01*
X3160380Y5171220D01*
X3154688Y5168633D01*
X3149514Y5168115D01*
X3147961Y5167598D01*
X3136061Y5167081D01*
X3132439Y5167598D01*
X3130369Y5168115D01*
X3126747Y5168633D01*
X3120021Y5171737D01*
X3116399Y5173807D01*
X3112777Y5177429D01*
X3111742Y5177946D01*
X3110707Y5178981D01*
X3109672Y5179499D01*
X3108896Y5177688D01*
X3109155Y5177429D01*
X3109672Y5162941D01*
X3110966Y5159578D01*
X3112518Y5155956D01*
X3114070Y5153369D01*
X3116399Y5151040D01*
X3117433Y5150523D01*
X3118986Y5148971D01*
X3122349Y5147677D01*
X3126488Y5146125D01*
X3132180Y5145607D01*
X3139165Y5145866D01*
X3142787Y5146384D01*
X3148479Y5148971D01*
X3149514Y5149488D01*
X3151842Y5151816D01*
X3155464Y5158543D01*
X3156240Y5160872D01*
X3179524Y5161389D01*
X3180818Y5160095D01*
X3180559Y5157767D01*
X3179783Y5154404D01*
X3178748Y5151816D01*
X3177713Y5147677D01*
X3176678Y5146642D01*
X3175644Y5144055D01*
X3174609Y5143020D01*
X3173056Y5140433D01*
X3169176Y5136553D01*
X3168141Y5136035D01*
X3167106Y5135000D01*
X3163484Y5132931D01*
X3162449Y5131896D01*
X3161414Y5131378D01*
X3155723Y5128791D01*
X3152101Y5128274D01*
X3148479Y5126722D01*
X3125195Y5126204D01*
X3121573Y5126722D01*
X3118727Y5127498D01*
X3116657Y5128015D01*
X3112259Y5128791D01*
X3107602Y5130861D01*
X3105015Y5131896D01*
X3102428Y5133448D01*
X3098806Y5136035D01*
X3097772Y5136553D01*
X3096478Y5137846D01*
X3092856Y5142503D01*
X3090269Y5146125D01*
X3088716Y5148712D01*
X3086906Y5152075D01*
X3086388Y5154145D01*
X3085612Y5157508D01*
X3084577Y5160095D01*
X3084060Y5236156D01*
Y5236674D01*
Y5266684D01*
X3085612Y5267719D01*
X3104498Y5267460D01*
X3106050Y5267978D01*
X3108637Y5266943D01*
X3109155Y5257630D01*
X3110190Y5257112D01*
X3110966Y5257888D01*
X3111483Y5258923D01*
X3113553Y5260993D01*
X3116399Y5263321D01*
X3118210Y5264615D01*
X3121573Y5265908D01*
X3122866Y5267202D01*
X3125712Y5267978D01*
X3128299Y5269013D01*
X3130369Y5269530D01*
X3131921Y5270048D01*
X3149255Y5269789D01*
D02*
G37*
G36*
X4052416Y5536003D02*
X4060694Y5535485D01*
X4065092Y5534192D01*
X4068456Y5533416D01*
X4072078Y5532898D01*
X4074147Y5532381D01*
X4074924Y5531605D01*
X4080874Y5530311D01*
X4081650Y5529535D01*
X4086566Y5527724D01*
X4087342Y5526948D01*
X4090705Y5525654D01*
X4093292Y5524102D01*
X4095879Y5523067D01*
X4096914Y5522032D01*
X4100536Y5519963D01*
X4103123Y5518410D01*
X4104158Y5517376D01*
X4106745Y5515823D01*
X4107780Y5514788D01*
X4110367Y5513236D01*
X4113989Y5509614D01*
X4115024Y5509097D01*
X4124079Y5500042D01*
X4124596Y5499007D01*
X4126666Y5496937D01*
X4127183Y5495902D01*
X4128735Y5494350D01*
X4130029Y5492539D01*
X4132357Y5489693D01*
X4134427Y5486071D01*
X4135203Y5485295D01*
X4136756Y5485813D01*
X4137273Y5492539D01*
X4138049Y5503664D01*
X4138825Y5506510D01*
X4139343Y5513754D01*
X4140119Y5526948D01*
X4140636Y5529017D01*
X4141930Y5530311D01*
X4270251Y5529794D01*
X4271027Y5529017D01*
X4271544Y5477793D01*
X4271027Y5475723D01*
X4268181Y5474429D01*
X4266111Y5473912D01*
X4260937Y5473395D01*
X4258867Y5472877D01*
X4256021Y5472101D01*
X4251106Y5471325D01*
X4247484Y5470807D01*
X4244638Y5470031D01*
X4242051Y5469514D01*
X4235325Y5468479D01*
X4233255Y5467962D01*
X4228080Y5466927D01*
X4225235Y5466151D01*
X4224459Y5465375D01*
X4223941Y5263580D01*
X4224976Y5260993D01*
X4227046Y5260475D01*
X4231185Y5259958D01*
X4235325Y5258923D01*
X4240757Y5257630D01*
X4244379Y5257112D01*
X4246966Y5256077D01*
X4253693Y5255042D01*
X4257315Y5254008D01*
X4258867Y5253490D01*
X4263006Y5252973D01*
X4265852Y5252197D01*
X4266370Y5199419D01*
X4265076Y5198126D01*
X4097690Y5198385D01*
X4097173Y5251679D01*
X4097949Y5252455D01*
X4100018Y5252973D01*
X4105969Y5254784D01*
X4109073Y5255301D01*
X4111661Y5255819D01*
X4114248Y5256853D01*
X4117611Y5257630D01*
X4119681Y5258147D01*
X4124855Y5259699D01*
X4126924Y5260217D01*
X4130546Y5260734D01*
X4133392Y5262028D01*
X4133910Y5285829D01*
Y5286346D01*
Y5417254D01*
X4134427Y5437951D01*
X4132357Y5441056D01*
X4131840Y5442090D01*
X4129770Y5444160D01*
X4129253Y5445195D01*
X4125890Y5448558D01*
X4124855Y5449076D01*
X4122785Y5451145D01*
X4121750Y5451663D01*
X4120715Y5452698D01*
X4118128Y5454250D01*
X4117093Y5455285D01*
X4113472Y5457355D01*
X4112695Y5458131D01*
X4109332Y5459424D01*
X4108556Y5460200D01*
X4105193Y5461494D01*
X4100536Y5463564D01*
X4096397Y5464081D01*
X4093809Y5465116D01*
X4092257Y5465633D01*
X4073630Y5466151D01*
X4065351Y5465633D01*
X4062764Y5464598D01*
X4059660Y5464081D01*
X4057590Y5463564D01*
X4055261Y5462787D01*
X4052674Y5461753D01*
X4049829Y5460976D01*
X4048276Y5459424D01*
X4046207Y5458907D01*
X4044654Y5457355D01*
X4043620Y5456837D01*
X4042843Y5456061D01*
X4039998Y5453733D01*
X4038963Y5453215D01*
X4036634Y5449852D01*
X4034047Y5446230D01*
X4032495Y5443643D01*
X4030684Y5440279D01*
X4029908Y5437434D01*
X4029132Y5435105D01*
X4027838Y5431742D01*
X4026803Y5425533D01*
X4026286Y5423981D01*
X4025768Y5417772D01*
X4025251Y5416219D01*
X4024734Y5264615D01*
X4025768Y5262028D01*
X4028355Y5260993D01*
X4032236Y5260217D01*
X4036375Y5259182D01*
X4038963Y5258147D01*
X4043102Y5257630D01*
X4047500Y5256336D01*
X4049570Y5255819D01*
X4053968Y5255042D01*
X4056038Y5254525D01*
X4058625Y5253490D01*
X4061729Y5252973D01*
X4062505Y5252197D01*
X4063023Y5215459D01*
X4062505Y5200972D01*
X4061729Y5198643D01*
X3891756Y5198902D01*
X3891239Y5250127D01*
X3891756Y5252197D01*
X3895378Y5254266D01*
X3899776Y5255042D01*
X3903398Y5255560D01*
X3905468Y5256077D01*
X3908313Y5256853D01*
X3911677Y5257630D01*
X3915299Y5258147D01*
X3919438Y5259182D01*
X3920990Y5259699D01*
X3925130Y5260217D01*
X3933408Y5262286D01*
X3934185Y5263062D01*
X3934702Y5405353D01*
X3935219Y5418289D01*
X3936254Y5437434D01*
X3936772Y5438986D01*
X3937289Y5442608D01*
X3937807Y5444160D01*
X3938324Y5450369D01*
X3938841Y5452439D01*
X3940135Y5456837D01*
X3940911Y5461235D01*
X3941428Y5463305D01*
X3942722Y5466668D01*
X3943498Y5470549D01*
X3944792Y5473395D01*
X3946085Y5476758D01*
X3948155Y5481415D01*
X3949190Y5484002D01*
X3950742Y5486589D01*
X3951777Y5489176D01*
X3955916Y5496420D01*
X3956951Y5497455D01*
X3958504Y5500042D01*
X3960056Y5501594D01*
X3961349Y5503405D01*
X3962384Y5503922D01*
X3962643Y5504699D01*
X3971180Y5513236D01*
X3972215Y5513754D01*
X3972991Y5514530D01*
X3975837Y5516858D01*
X3979459Y5519445D01*
X3983081Y5521515D01*
X3984116Y5522550D01*
X3990842Y5526172D01*
X4000156Y5530311D01*
X4004813Y5531346D01*
X4007659Y5532639D01*
X4013350Y5533674D01*
X4015420Y5534192D01*
X4018007Y5534709D01*
X4022923Y5535485D01*
X4024475Y5536003D01*
X4047241Y5536520D01*
X4052416Y5536003D01*
D02*
G37*
G36*
X5328120Y5659925D02*
X5328638Y5608183D01*
X5328120Y5606114D01*
X5326568Y5605596D01*
X5323464Y5605078D01*
X5318289Y5604044D01*
X5316220Y5603526D01*
X5311822Y5602750D01*
X5308200Y5602233D01*
X5306130Y5601715D01*
X5303284Y5600939D01*
X5296299Y5600163D01*
X5291901Y5598869D01*
X5287503Y5598093D01*
X5283881Y5597576D01*
X5281811Y5597058D01*
X5281035Y5595765D01*
X5280518Y5552819D01*
X5281035Y5551267D01*
X5280518Y5549714D01*
X5280000Y5380000D01*
X5279483Y5329810D01*
Y5329292D01*
Y5258923D01*
X5280259Y5258147D01*
X5281294Y5257630D01*
X5284916Y5257112D01*
X5289314Y5255819D01*
X5294229Y5255042D01*
X5296299Y5254525D01*
X5299145Y5253749D01*
X5306648Y5252455D01*
X5308717Y5251938D01*
X5314409Y5250385D01*
X5318031Y5249868D01*
X5321653Y5248833D01*
X5322429Y5248057D01*
X5322946Y5238744D01*
X5322429Y5237191D01*
X5321911Y5199937D01*
X5322429Y5198385D01*
X5321911Y5195798D01*
X5319583Y5193987D01*
X5319066Y5194504D01*
X5148833Y5195021D01*
X5146764Y5195539D01*
X5145729Y5197091D01*
X5145988Y5247022D01*
X5146505Y5249092D01*
X5147540Y5249610D01*
X5152456Y5250385D01*
X5156854Y5251679D01*
X5162545Y5252714D01*
X5167461Y5253490D01*
X5170048Y5254525D01*
X5176775Y5255560D01*
X5178844Y5256077D01*
X5181690Y5256853D01*
X5186088Y5257630D01*
X5188158Y5258147D01*
X5189193Y5259182D01*
X5189710Y5349213D01*
X5190486Y5659408D01*
X5191262Y5660184D01*
X5325275Y5660701D01*
X5328120Y5659925D01*
D02*
G37*
G36*
X5373395Y5531863D02*
X5374430Y5532381D01*
X5376758Y5532122D01*
X5378828Y5531605D01*
X5384261Y5530828D01*
X5392540Y5528241D01*
X5399266Y5525137D01*
X5403923Y5522550D01*
X5407545Y5520480D01*
X5409097Y5518928D01*
X5410132Y5518410D01*
X5412202Y5516341D01*
X5413236Y5515823D01*
X5420739Y5508320D01*
X5421256Y5507286D01*
X5423585Y5504957D01*
X5425913Y5502111D01*
X5426431Y5501077D01*
X5427983Y5499524D01*
X5428500Y5497972D01*
X5429535Y5496937D01*
X5431087Y5494350D01*
X5432122Y5493315D01*
X5436262Y5485554D01*
X5437038Y5484778D01*
X5439107Y5481673D01*
X5440142Y5482191D01*
X5440660Y5489435D01*
X5441177Y5498231D01*
X5441695Y5503922D01*
X5442212Y5510131D01*
X5442730Y5512201D01*
X5443247Y5519445D01*
X5443764Y5525654D01*
X5572603Y5526172D01*
X5574672Y5525654D01*
X5574931Y5472101D01*
X5574155Y5471325D01*
X5571050Y5470807D01*
X5568463Y5469773D01*
X5563806Y5469255D01*
X5561737Y5468738D01*
X5558115Y5468220D01*
X5556562Y5467703D01*
X5553458Y5467185D01*
X5551906Y5466668D01*
X5546731Y5466151D01*
X5542592Y5465116D01*
X5541040Y5464598D01*
X5536383Y5464081D01*
X5534313Y5463564D01*
X5530691Y5463046D01*
X5528622Y5462529D01*
X5527587Y5460976D01*
X5527069Y5288157D01*
X5526552Y5285570D01*
X5526811Y5262028D01*
X5526293Y5260475D01*
X5526811Y5258406D01*
X5529139Y5257112D01*
X5533537Y5255819D01*
X5538453Y5255042D01*
X5542075Y5254008D01*
X5544920Y5253231D01*
X5551388Y5252455D01*
X5554751Y5251162D01*
X5558115Y5250385D01*
X5564324Y5249351D01*
X5566393Y5248833D01*
X5569239Y5247540D01*
X5569757Y5196315D01*
X5568980Y5193987D01*
X5502233Y5193469D01*
X5500681Y5193987D01*
X5398231Y5194504D01*
X5396679Y5193987D01*
X5394350Y5194763D01*
X5393833Y5247540D01*
X5395127Y5248833D01*
X5398231Y5249868D01*
X5403405Y5250385D01*
X5407804Y5251679D01*
X5411684Y5252455D01*
X5412202D01*
X5415306Y5252973D01*
X5419446Y5254008D01*
X5420998Y5254525D01*
X5424102Y5255042D01*
X5426172Y5255560D01*
X5429794Y5256077D01*
X5433416Y5257112D01*
X5435744Y5257888D01*
X5436262Y5288416D01*
X5436779Y5289968D01*
X5437296Y5417254D01*
X5435227Y5422429D01*
X5434192Y5423463D01*
X5433675Y5424498D01*
X5431087Y5428120D01*
X5430570Y5429155D01*
X5425655Y5434070D01*
X5424620Y5434588D01*
X5422809Y5436399D01*
X5417893Y5439762D01*
X5415306Y5441314D01*
X5412719Y5442349D01*
X5411943Y5443125D01*
X5406251Y5444678D01*
X5403664Y5445713D01*
X5401594Y5446230D01*
X5396420Y5446747D01*
X5391763Y5447265D01*
X5389176Y5447782D01*
X5378052Y5447524D01*
X5376500Y5448041D01*
X5373395Y5447006D01*
X5349335Y5447265D01*
X5348817Y5448299D01*
X5348300Y5449852D01*
X5347783Y5454509D01*
X5347006Y5457355D01*
X5346489Y5465633D01*
X5345972Y5471325D01*
X5345454Y5473912D01*
X5344937Y5478051D01*
X5344419Y5482708D01*
X5343902Y5488917D01*
X5343385Y5493574D01*
X5342349Y5499783D01*
X5341574Y5509873D01*
X5341056Y5511942D01*
X5340538Y5518669D01*
X5340021Y5520221D01*
X5339504Y5524878D01*
X5338986Y5526430D01*
X5339504Y5527983D01*
X5340538Y5529017D01*
X5343126Y5530052D01*
X5345713Y5530570D01*
X5352698Y5531346D01*
X5354768Y5531863D01*
X5356320Y5532381D01*
X5370808Y5532898D01*
X5373395Y5531863D01*
D02*
G37*
G36*
X4458851Y5535226D02*
X4460921Y5534709D01*
X4467130Y5534192D01*
X4471787Y5533674D01*
X4477478Y5533157D01*
X4480065Y5532639D01*
X4484205Y5531605D01*
X4486792Y5531087D01*
X4489896Y5530570D01*
X4491966Y5530052D01*
X4494553Y5529017D01*
X4498951Y5528241D01*
X4503608Y5526172D01*
X4505678Y5525654D01*
X4509300Y5524102D01*
X4511369Y5523585D01*
X4524305Y5517376D01*
X4527927Y5515306D01*
X4532584Y5512719D01*
X4533619Y5511684D01*
X4534653Y5511167D01*
X4538275Y5508579D01*
X4539310Y5508062D01*
X4540345Y5507027D01*
X4542156Y5505733D01*
X4545002Y5503405D01*
X4546037Y5502888D01*
X4546295Y5502111D01*
X4547071Y5501853D01*
X4552246Y5496679D01*
X4553280Y5496161D01*
X4556126Y5493315D01*
X4556644Y5492281D01*
X4561301Y5487624D01*
X4561818Y5486589D01*
X4563888Y5484519D01*
X4564405Y5483484D01*
X4565440Y5482450D01*
X4566992Y5479862D01*
X4568545Y5478310D01*
X4569062Y5477275D01*
X4571132Y5475205D01*
X4571649Y5473653D01*
X4572684Y5472618D01*
X4574754Y5468996D01*
X4576306Y5467444D01*
X4576823Y5465375D01*
X4577858Y5464340D01*
X4579928Y5460718D01*
X4581480Y5458131D01*
X4582515Y5455544D01*
X4584067Y5452956D01*
X4584585Y5450887D01*
X4585619Y5449852D01*
X4586395Y5448041D01*
X4587172Y5445195D01*
X4587948Y5444419D01*
X4589241Y5441056D01*
X4589759Y5438986D01*
X4590794Y5437951D01*
X4591311Y5435881D01*
X4592346Y5432259D01*
X4593640Y5429414D01*
X4594157Y5426309D01*
X4594674Y5424239D01*
X4595968Y5420876D01*
X4596485Y5418807D01*
X4597003Y5415184D01*
X4598296Y5410786D01*
X4599331Y5402508D01*
X4600107Y5397592D01*
X4600625Y5395523D01*
X4601142Y5393970D01*
X4601660Y5351541D01*
X4602177Y5349989D01*
X4601918Y5348696D01*
X4601401Y5338865D01*
X4600883Y5332656D01*
X4600366Y5330069D01*
X4599331Y5323860D01*
X4598555Y5316874D01*
X4598038Y5314805D01*
X4597261Y5312476D01*
X4596227Y5306785D01*
X4595709Y5304715D01*
X4594674Y5302128D01*
X4593898Y5298765D01*
X4593381Y5296695D01*
X4592087Y5293849D01*
X4591311Y5290486D01*
X4589241Y5285829D01*
X4588724Y5283759D01*
X4586654Y5279102D01*
X4584067Y5273411D01*
X4583032Y5270824D01*
X4581997Y5269789D01*
X4581480Y5267202D01*
X4579669Y5265391D01*
X4578375Y5262028D01*
X4577341Y5260993D01*
X4575271Y5257371D01*
X4574754Y5256336D01*
X4572166Y5252714D01*
X4571649Y5251679D01*
X4570614Y5250644D01*
X4568803Y5247798D01*
X4566475Y5244953D01*
X4565957Y5243918D01*
X4564405Y5242365D01*
X4563888Y5241331D01*
X4559748Y5237191D01*
X4559231Y5236156D01*
X4558455Y5235380D01*
X4557420Y5234863D01*
X4556902Y5233828D01*
X4555091Y5232534D01*
X4554574Y5231500D01*
X4553798Y5230724D01*
X4552763Y5230206D01*
X4551728Y5228654D01*
X4549917Y5227360D01*
X4549400Y5226325D01*
X4547848Y5225291D01*
X4544743Y5222704D01*
X4541897Y5220375D01*
X4540862Y5219858D01*
X4539828Y5218823D01*
X4537240Y5217270D01*
X4536723Y5216236D01*
X4525857Y5210027D01*
X4524822Y5208992D01*
X4520683Y5207439D01*
X4519648Y5206405D01*
X4515509Y5204852D01*
X4514733Y5204076D01*
X4511369Y5202783D01*
X4506713Y5200713D01*
X4504643Y5200196D01*
X4501280Y5198902D01*
X4498434Y5198126D01*
X4494812Y5197091D01*
X4492225Y5196056D01*
X4487568Y5195539D01*
X4483170Y5194245D01*
X4481100Y5193728D01*
X4476961Y5193210D01*
X4470752Y5192693D01*
X4467906Y5191917D01*
X4462731Y5191399D01*
X4461179Y5190882D01*
X4455229Y5191141D01*
X4436861Y5190882D01*
X4435308Y5191399D01*
X4434791Y5190882D01*
X4428323Y5191141D01*
X4426253Y5191658D01*
X4421079Y5192176D01*
X4417716Y5192952D01*
X4410989Y5193469D01*
X4408920Y5193987D01*
X4406074Y5194763D01*
X4403487Y5195280D01*
X4398571Y5196056D01*
X4395726Y5197350D01*
X4389775Y5198643D01*
X4386929Y5199937D01*
X4384083Y5200713D01*
X4379427Y5202783D01*
X4373735Y5205370D01*
X4365974Y5208992D01*
X4358730Y5213131D01*
X4356660Y5215201D01*
X4354590Y5215718D01*
X4353038Y5217270D01*
X4352003Y5217788D01*
X4349934Y5219858D01*
X4348899Y5220375D01*
X4347864Y5221410D01*
X4345277Y5222962D01*
X4341137Y5227102D01*
X4340103Y5227619D01*
X4331565Y5236156D01*
X4331048Y5237191D01*
X4328978Y5239261D01*
X4328460Y5240296D01*
X4326391Y5242365D01*
X4325873Y5243400D01*
X4323804Y5245470D01*
X4323286Y5246505D01*
X4322251Y5247540D01*
X4320440Y5250385D01*
X4317077Y5255301D01*
X4315525Y5257888D01*
X4314490Y5258923D01*
X4311903Y5263580D01*
X4305694Y5275480D01*
X4303624Y5280137D01*
X4302072Y5283759D01*
X4301037Y5286346D01*
X4300520Y5288416D01*
X4299226Y5291262D01*
X4298450Y5294108D01*
X4297674Y5296436D01*
X4296639Y5299023D01*
X4295863Y5303939D01*
X4294311Y5307561D01*
X4293793Y5309113D01*
X4293276Y5315322D01*
X4292241Y5317909D01*
X4291723Y5322049D01*
X4291206Y5323601D01*
X4290689Y5331880D01*
X4290171Y5333432D01*
X4289654Y5340158D01*
X4289136Y5341711D01*
X4289395Y5384398D01*
X4289912Y5390090D01*
X4290430Y5392159D01*
X4290947Y5397333D01*
X4291465Y5403025D01*
X4292500Y5408199D01*
X4293276Y5411563D01*
X4293793Y5415184D01*
X4294311Y5417254D01*
X4295345Y5419841D01*
X4295863Y5423463D01*
X4296380Y5425533D01*
X4297932Y5429155D01*
X4298450Y5432259D01*
X4298968Y5434329D01*
X4300261Y5436658D01*
X4301037Y5439503D01*
X4302331Y5442349D01*
X4303624Y5445713D01*
X4309833Y5458648D01*
X4311903Y5462270D01*
X4314490Y5466927D01*
X4316560Y5470549D01*
X4317336Y5470807D01*
X4317595Y5471584D01*
X4319664Y5474688D01*
X4321217Y5477275D01*
X4322769Y5478827D01*
X4323286Y5479862D01*
X4325356Y5481932D01*
X4325873Y5482967D01*
X4327943Y5485037D01*
X4328460Y5486071D01*
X4330013Y5487624D01*
X4330530Y5488659D01*
X4332600Y5490728D01*
X4333894Y5492539D01*
X4334928Y5493057D01*
X4335704Y5493833D01*
X4336222Y5494868D01*
X4337774Y5495902D01*
X4339068Y5497713D01*
X4340103Y5498231D01*
X4342172Y5500301D01*
X4343207Y5500818D01*
X4345277Y5502888D01*
X4346312Y5503405D01*
X4348381Y5505475D01*
X4349416Y5505992D01*
X4350451Y5507027D01*
X4354849Y5509873D01*
X4361317Y5514271D01*
X4363904Y5515823D01*
X4366491Y5516858D01*
X4367526Y5517893D01*
X4369078Y5518410D01*
X4372183Y5520480D01*
X4374770Y5520997D01*
X4377874Y5523067D01*
X4379944Y5523585D01*
X4384601Y5525654D01*
X4386670Y5526172D01*
X4388999Y5526948D01*
X4391586Y5527983D01*
X4394949Y5528759D01*
X4397795Y5529535D01*
X4400382Y5530570D01*
X4406850Y5531346D01*
X4410472Y5532898D01*
X4418751Y5533416D01*
X4420303Y5533933D01*
X4428064Y5534450D01*
X4429616Y5534968D01*
X4452383Y5535485D01*
X4452901D01*
X4458851Y5535226D01*
D02*
G37*
G36*
X3407707Y5305750D02*
X3408484Y5304974D01*
X3409001Y5169409D01*
X3408484Y5167339D01*
X3407707Y5166563D01*
X3310949Y5166046D01*
X3307327Y5166563D01*
X3306551Y5167339D01*
X3306034Y5189071D01*
X3307327Y5190365D01*
X3377697Y5190882D01*
X3379249Y5190365D01*
X3381578Y5191141D01*
X3382095Y5223738D01*
X3381578Y5225808D01*
X3380025Y5226843D01*
X3316124Y5226584D01*
X3314054Y5227102D01*
X3313278Y5227878D01*
X3312760Y5247022D01*
X3313537Y5249351D01*
X3380801Y5249868D01*
X3381578Y5250644D01*
X3382095Y5279620D01*
X3381578Y5281690D01*
X3380543Y5282207D01*
X3308880Y5281948D01*
X3306034Y5282725D01*
X3305517Y5303421D01*
X3306293Y5305750D01*
X3367866Y5306267D01*
X3405638D01*
X3407707Y5305750D01*
D02*
G37*
G36*
X2874762Y5269530D02*
X2880454Y5267978D01*
X2882524Y5267460D01*
X2887181Y5265391D01*
X2889768Y5264356D01*
X2893390Y5262286D01*
X2894424Y5261251D01*
X2897011Y5259699D01*
X2897529Y5258664D01*
X2899340Y5257371D01*
X2899858Y5256336D01*
X2900634Y5255560D01*
X2901668Y5255042D01*
X2902962Y5252714D01*
X2904514Y5251162D01*
X2905032Y5249610D01*
X2906067Y5248574D01*
X2907619Y5245987D01*
X2909430Y5242624D01*
X2910723Y5239261D01*
X2912276Y5235639D01*
X2912793Y5230465D01*
X2913310Y5228913D01*
X2914345Y5221668D01*
X2914863Y5220116D01*
X2914604Y5214166D01*
X2914087Y5211579D01*
X2913569Y5206405D01*
X2912793Y5203041D01*
X2912276Y5199419D01*
X2910982Y5196574D01*
X2910206Y5193728D01*
X2909171Y5191141D01*
X2906584Y5186484D01*
X2905032Y5183897D01*
X2903479Y5182344D01*
X2902962Y5181310D01*
X2897788Y5176135D01*
X2894942Y5173807D01*
X2893907Y5173290D01*
X2891837Y5171220D01*
X2889768Y5170702D01*
X2888474Y5169409D01*
X2885111Y5168115D01*
X2880713Y5166304D01*
X2875280Y5165528D01*
X2873728Y5165011D01*
X2868553Y5164493D01*
X2867001Y5163976D01*
X2860533Y5164235D01*
X2855359Y5164752D01*
X2852772Y5165270D01*
X2847856Y5166046D01*
X2844235Y5167598D01*
X2842165Y5168115D01*
X2839578Y5169150D01*
X2838543Y5170185D01*
X2836473Y5170702D01*
X2835438Y5171737D01*
X2832851Y5173290D01*
X2832075Y5174066D01*
X2828970Y5176135D01*
X2828453Y5177170D01*
X2827677Y5177946D01*
X2826642Y5178464D01*
X2825349Y5180792D01*
X2823796Y5182344D01*
X2823279Y5183379D01*
X2820692Y5187001D01*
X2820174Y5189071D01*
X2818881Y5190365D01*
X2818105Y5193210D01*
X2817070Y5195798D01*
X2816552Y5196832D01*
X2817329Y5197608D01*
X2840095Y5198126D01*
X2840871Y5197350D01*
X2843458Y5193728D01*
X2843976Y5192693D01*
X2847339Y5189330D01*
X2848374Y5188812D01*
X2852255Y5185967D01*
X2854842Y5185449D01*
X2858205Y5184673D01*
X2859757Y5184155D01*
X2864414Y5183638D01*
X2864932D01*
X2867519Y5184155D01*
X2870364Y5184932D01*
X2873728Y5185708D01*
X2876315Y5186742D01*
X2878902Y5188295D01*
X2882782Y5192176D01*
X2883300Y5193210D01*
X2884335Y5194245D01*
X2886663Y5198643D01*
X2887698Y5201230D01*
X2888215Y5203818D01*
X2888991Y5206663D01*
X2888215Y5208992D01*
X2814741Y5209509D01*
X2813965Y5210285D01*
X2813448Y5215977D01*
X2814483Y5222186D01*
X2815259Y5229171D01*
X2816035Y5234087D01*
X2817329Y5236933D01*
X2818105Y5239778D01*
X2821727Y5247540D01*
X2823279Y5250127D01*
X2824831Y5251679D01*
X2825349Y5252714D01*
X2826901Y5254266D01*
X2828453Y5256853D01*
X2830264Y5258147D01*
X2831299Y5258664D01*
X2833886Y5261251D01*
X2837508Y5263321D01*
X2838543Y5264356D01*
X2841130Y5265391D01*
X2844493Y5267202D01*
X2847856Y5267978D01*
X2849926Y5268495D01*
X2852513Y5269530D01*
X2871141Y5270048D01*
X2874762Y5269530D01*
D02*
G37*
G36*
X2764034D02*
X2768432Y5268237D01*
X2771795Y5267460D01*
X2776452Y5265391D01*
X2779039Y5264356D01*
X2782661Y5262286D01*
X2786283Y5258664D01*
X2788094Y5257371D01*
X2788612Y5256336D01*
X2789388Y5255560D01*
X2790423Y5255042D01*
X2790681Y5254266D01*
X2792751Y5252197D01*
X2793268Y5251162D01*
X2795079Y5249351D01*
X2796373Y5245987D01*
X2797408Y5244953D01*
X2797925Y5243918D01*
X2800254Y5238485D01*
X2801030Y5235122D01*
X2801547Y5233052D01*
X2802582Y5230465D01*
X2803100Y5207698D01*
X2802582Y5205628D01*
X2801806Y5202783D01*
X2801030Y5198902D01*
X2800512Y5196832D01*
X2797408Y5189071D01*
X2796373Y5188036D01*
X2795338Y5185449D01*
X2794303Y5184414D01*
X2793786Y5183379D01*
X2792492Y5182086D01*
X2790423Y5178981D01*
X2789388Y5178464D01*
X2788612Y5177688D01*
X2788094Y5176653D01*
X2786801Y5175877D01*
X2785766Y5175359D01*
X2784731Y5174324D01*
X2782144Y5172772D01*
X2780592Y5171220D01*
X2779039Y5170702D01*
X2775935Y5168633D01*
X2773865Y5168115D01*
X2769467Y5166304D01*
X2765069Y5165528D01*
X2763517Y5165011D01*
X2757308Y5164493D01*
X2755755Y5163976D01*
X2745407Y5164493D01*
X2742561Y5165270D01*
X2736611Y5166046D01*
X2731954Y5168115D01*
X2728332Y5169150D01*
X2727556Y5169926D01*
X2724451Y5171479D01*
X2721605Y5173807D01*
X2720571Y5174324D01*
X2714620Y5180275D01*
X2714103Y5181310D01*
X2712033Y5183379D01*
X2708929Y5189071D01*
X2706342Y5194763D01*
X2706600Y5197608D01*
X2728332Y5198126D01*
X2730402Y5197608D01*
X2732212Y5194245D01*
X2734023Y5191399D01*
X2735058Y5190882D01*
X2736093Y5189847D01*
X2739715Y5187260D01*
X2742302Y5185708D01*
X2746442Y5184673D01*
X2747994Y5184155D01*
X2754720Y5183638D01*
X2757049Y5184414D01*
X2763517Y5185708D01*
X2767656Y5188295D01*
X2768691Y5188812D01*
X2768950Y5189588D01*
X2769726Y5189847D01*
X2772054Y5192176D01*
X2774124Y5195798D01*
X2775417Y5197091D01*
X2776194Y5199937D01*
X2777228Y5202524D01*
Y5203041D01*
X2777746Y5203559D01*
X2778263Y5208216D01*
X2776970Y5209509D01*
X2774641Y5209250D01*
X2708670Y5209509D01*
X2706600Y5208992D01*
X2704272Y5209768D01*
X2703754Y5210803D01*
X2703237Y5212355D01*
X2703754Y5213907D01*
X2703496Y5220375D01*
X2703754Y5224256D01*
X2704272Y5229430D01*
X2704789Y5231500D01*
X2705565Y5233828D01*
X2706342Y5237709D01*
X2712033Y5249610D01*
X2713585Y5251162D01*
X2714103Y5252197D01*
X2715655Y5253749D01*
X2716172Y5254784D01*
X2719018Y5257630D01*
X2723675Y5261251D01*
X2727297Y5263839D01*
X2729884Y5265391D01*
X2732471Y5266426D01*
X2733248Y5267202D01*
X2737646Y5267978D01*
X2741268Y5269530D01*
X2758860Y5270048D01*
X2764034Y5269530D01*
D02*
G37*
G36*
X3245237D02*
X3247824Y5268495D01*
X3249894Y5267978D01*
X3257655Y5264356D01*
X3259207Y5262804D01*
X3260242Y5262286D01*
X3266451Y5256077D01*
X3266969Y5256595D01*
X3267486Y5266943D01*
X3269297Y5267719D01*
X3290252Y5267460D01*
X3291029Y5266684D01*
X3291546Y5186484D01*
Y5185967D01*
Y5170961D01*
X3291029Y5167339D01*
X3290252Y5166563D01*
X3269556Y5166046D01*
X3266969Y5167081D01*
X3266451Y5225032D01*
X3265934Y5228136D01*
X3265158Y5232534D01*
X3263605Y5236156D01*
X3262571Y5238744D01*
X3261018Y5240296D01*
X3260501Y5241331D01*
X3259725Y5242107D01*
X3258690Y5242624D01*
X3257138Y5244176D01*
X3251446Y5247281D01*
X3248341Y5247798D01*
X3246789Y5248316D01*
X3237476Y5247798D01*
X3234888Y5246764D01*
X3233854Y5245729D01*
X3231784Y5245211D01*
X3231008Y5244435D01*
X3230490Y5243400D01*
X3229456Y5242365D01*
X3226868Y5237709D01*
X3226351Y5236674D01*
X3225834Y5235122D01*
X3225316Y5167339D01*
X3224540Y5166563D01*
X3222470Y5166046D01*
X3220918Y5166563D01*
X3220400Y5166046D01*
X3205654Y5166304D01*
X3203326Y5166046D01*
X3200997Y5166822D01*
X3200480Y5235639D01*
X3200997Y5243918D01*
X3202550Y5247540D01*
X3203067Y5250644D01*
X3204102Y5253231D01*
X3206171Y5256853D01*
X3208241Y5258923D01*
X3208759Y5259958D01*
X3209535Y5260217D01*
X3210570Y5261769D01*
X3211604Y5262286D01*
X3213933Y5264615D01*
X3217296Y5265908D01*
X3218072Y5266684D01*
X3221436Y5267978D01*
X3225057Y5269530D01*
X3241615Y5270048D01*
X3245237Y5269530D01*
D02*
G37*
G36*
X3063622Y5267460D02*
X3064657Y5265908D01*
X3064398Y5236674D01*
Y5236156D01*
Y5167339D01*
X3063622Y5166563D01*
X3044477Y5166046D01*
X3040855Y5166563D01*
X3040079Y5167339D01*
X3039561Y5265650D01*
X3040079Y5267202D01*
X3061293Y5267719D01*
X3063622Y5267460D01*
D02*
G37*
G36*
X2974108Y5269530D02*
X2976177Y5269013D01*
X2976953Y5268237D01*
X2980317Y5267460D01*
X2982904Y5265908D01*
X2985491Y5264873D01*
X2987043Y5263321D01*
X2988078Y5262804D01*
X2989630Y5261251D01*
X2990665Y5260734D01*
X2991441Y5259958D01*
X2991959Y5258923D01*
X2993252Y5257630D01*
X2995322Y5257112D01*
X2995580Y5266167D01*
X2996357Y5266943D01*
X3015501Y5267460D01*
X3017054Y5267978D01*
X3019382Y5267202D01*
X3019899Y5168892D01*
X3019123Y5166563D01*
X3008257Y5166046D01*
X2998426D01*
X2995580Y5166822D01*
X2995063Y5221668D01*
X2994546Y5229947D01*
X2993511Y5234087D01*
X2992735Y5234863D01*
X2991959Y5237709D01*
X2990924Y5238744D01*
X2990406Y5239778D01*
X2987560Y5242624D01*
X2986526Y5243142D01*
X2984973Y5244694D01*
X2982386Y5245729D01*
X2980834Y5247281D01*
X2976177Y5247798D01*
X2974625Y5248316D01*
X2966346Y5247798D01*
X2960654Y5245211D01*
X2957291Y5241848D01*
X2956774Y5239778D01*
X2955739Y5238744D01*
X2955222Y5237709D01*
X2954704Y5236156D01*
X2954187Y5167339D01*
X2953411Y5166563D01*
X2931162Y5166046D01*
X2929868Y5167339D01*
X2929351Y5235639D01*
X2929868Y5243918D01*
X2930385Y5245987D01*
X2931420Y5248574D01*
X2931937Y5250644D01*
X2933490Y5254266D01*
X2935042Y5256853D01*
X2936594Y5258406D01*
X2937112Y5259440D01*
X2939440Y5261769D01*
X2940475Y5262286D01*
X2942545Y5264356D01*
X2948236Y5267460D01*
X2950306Y5267978D01*
X2952893Y5269013D01*
X2954445Y5269530D01*
X2970486Y5270048D01*
X2974108Y5269530D01*
D02*
G37*
G36*
X2646579Y5267460D02*
X2649166Y5266426D01*
X2652788Y5264356D01*
X2655634Y5262545D01*
X2656928Y5260734D01*
X2657962Y5260217D01*
X2659256Y5258406D01*
X2659773Y5257371D01*
X2661326Y5255819D01*
X2661843Y5254784D01*
X2663137Y5253490D01*
X2663395Y5253749D01*
X2663913Y5263580D01*
X2663395Y5265132D01*
X2664171Y5266943D01*
X2665982Y5267719D01*
X2686938Y5267460D01*
X2687973Y5265908D01*
X2687714Y5167857D01*
X2686421Y5166563D01*
X2666241Y5166046D01*
X2664171Y5166563D01*
X2663137Y5168115D01*
X2662619Y5220375D01*
X2661843Y5227360D01*
X2661326Y5229430D01*
X2659773Y5232017D01*
X2659256Y5234087D01*
X2657704Y5235639D01*
X2657186Y5236674D01*
X2653823Y5240037D01*
X2652788Y5240554D01*
X2651495Y5241848D01*
X2648131Y5243142D01*
X2644510Y5244694D01*
X2642957Y5245211D01*
X2630022Y5245729D01*
X2627693Y5246505D01*
X2627176Y5265650D01*
Y5266167D01*
X2627693Y5268237D01*
X2628469Y5269013D01*
X2638301Y5269530D01*
X2646579Y5267460D01*
D02*
G37*
G36*
X2523950Y5269530D02*
X2526537Y5268495D01*
X2528607Y5267978D01*
X2532229Y5266426D01*
X2535851Y5264356D01*
X2538438Y5262804D01*
X2541801Y5259440D01*
X2542319Y5258406D01*
X2543612Y5257112D01*
X2545164Y5257630D01*
X2545682Y5266943D01*
X2565861Y5267460D01*
X2567413Y5267978D01*
X2569742Y5267202D01*
X2570259Y5168892D01*
X2569483Y5166563D01*
X2546199Y5166046D01*
X2545423Y5166822D01*
X2544906Y5227360D01*
X2544388Y5230982D01*
X2543095Y5234345D01*
X2542319Y5237191D01*
X2541284Y5238226D01*
X2540766Y5239261D01*
X2536368Y5243659D01*
X2532746Y5245729D01*
X2530159Y5247281D01*
X2527055Y5247798D01*
X2525502Y5248316D01*
X2516189Y5247798D01*
X2513602Y5246764D01*
X2509980Y5244694D01*
X2509204Y5243918D01*
X2507134Y5240296D01*
X2505581Y5238744D01*
X2505064Y5232534D01*
X2504547Y5230982D01*
X2504029Y5174583D01*
Y5174066D01*
Y5167857D01*
X2502736Y5166563D01*
X2482556Y5166046D01*
X2480487Y5166563D01*
X2479711Y5167339D01*
X2479193Y5237709D01*
X2480228Y5243918D01*
X2480745Y5247540D01*
X2483850Y5254784D01*
X2485402Y5257371D01*
X2490835Y5262804D01*
X2491870Y5263321D01*
X2493422Y5264873D01*
X2496009Y5265908D01*
X2497044Y5266943D01*
X2499114Y5267460D01*
X2503771Y5269530D01*
X2520328Y5270048D01*
X2523950Y5269530D01*
D02*
G37*
G36*
X5015597Y5090243D02*
X5016115Y5057646D01*
Y5057128D01*
Y5054024D01*
X5015339Y5053248D01*
X4967736Y5052730D01*
X4966442Y5054024D01*
X4965925Y5087656D01*
X4966701Y5090502D01*
X5014821Y5091020D01*
X5015597Y5090243D01*
D02*
G37*
G36*
X5804925Y5088432D02*
X5805701Y5087656D01*
X5806477Y5054800D01*
X5806219Y5051437D01*
X5805443Y5050660D01*
X5764049Y5050143D01*
X5757840D01*
X5757064Y5050919D01*
X5756546Y5084552D01*
X5756029Y5086104D01*
X5757064Y5088691D01*
X5804925Y5088432D01*
D02*
G37*
G36*
X2686679Y5071099D02*
X2687197Y5051437D01*
X2686421Y5049108D01*
X2663654Y5048591D01*
X2662102Y5050660D01*
X2662361Y5066959D01*
X2661843Y5068512D01*
X2662619Y5071357D01*
X2679694Y5071875D01*
X2685903D01*
X2686679Y5071099D01*
D02*
G37*
G36*
X6951533Y5657080D02*
X6955672Y5656045D01*
X6957225Y5656562D01*
X6962140Y5656303D01*
X6964210Y5655786D01*
X6973524Y5655269D01*
X6983355Y5654751D01*
X6989564Y5654234D01*
X6994738Y5653716D01*
X6996807Y5653199D01*
X7003534Y5652681D01*
X7011813Y5652164D01*
X7014917Y5651647D01*
X7019057Y5651129D01*
X7021126Y5650612D01*
X7027853Y5650094D01*
X7033544Y5649577D01*
X7036132Y5649060D01*
X7038201Y5648542D01*
X7050361Y5647249D01*
X7052430Y5646731D01*
X7053983Y5646214D01*
X7061227Y5645179D01*
X7066401Y5644661D01*
X7069247Y5643885D01*
X7072351Y5643368D01*
X7074938Y5642850D01*
X7081923Y5642074D01*
X7084511Y5641040D01*
X7092272Y5640004D01*
X7094342Y5639487D01*
X7097963Y5638452D01*
X7100033Y5637935D01*
X7105208Y5637417D01*
X7108053Y5636641D01*
X7112193Y5635606D01*
X7118143Y5634830D01*
X7120730Y5633795D01*
X7122282Y5633278D01*
X7126422Y5632761D01*
X7130561Y5631726D01*
X7133407Y5630950D01*
X7135477Y5630432D01*
X7140392Y5629656D01*
X7143755Y5628363D01*
X7146343Y5627845D01*
X7149447Y5627328D01*
X7151517Y5626810D01*
X7154104Y5625775D01*
X7159019Y5624999D01*
X7161348Y5624223D01*
X7164711Y5622930D01*
X7168333Y5622412D01*
X7171179Y5621636D01*
X7174542Y5620343D01*
X7178164Y5619825D01*
X7181786Y5618273D01*
X7184891Y5617755D01*
X7190841Y5615944D01*
X7193687Y5615168D01*
X7195757Y5614651D01*
X7199120Y5613357D01*
X7203518Y5612581D01*
X7206105Y5611546D01*
X7207916Y5610770D01*
X7211797Y5609994D01*
X7215418Y5608442D01*
X7217488Y5607924D01*
X7221110Y5606889D01*
X7223697Y5605855D01*
X7227837Y5604820D01*
X7230683Y5603526D01*
X7234046Y5602750D01*
X7237668Y5601198D01*
X7241807Y5600163D01*
X7245429Y5598611D01*
X7248016Y5598093D01*
X7252673Y5596024D01*
X7254742Y5595506D01*
X7261469Y5592402D01*
X7265350Y5588521D01*
X7265867Y5587486D01*
X7267937Y5584382D01*
X7268454Y5583347D01*
X7268972Y5581795D01*
X7269489Y5574033D01*
X7270007Y5572481D01*
X7269748Y5571187D01*
X7269230Y5569118D01*
X7269489Y5566272D01*
X7268972Y5421394D01*
X7269489Y5292038D01*
Y5291521D01*
X7269230Y5245729D01*
X7268713Y5205887D01*
X7268196Y5195021D01*
X7267419Y5190106D01*
X7267937Y5188554D01*
X7267161Y5185708D01*
X7266385Y5174583D01*
X7265867Y5172513D01*
X7265350Y5165787D01*
X7264573Y5162941D01*
X7264056Y5158284D01*
X7263539Y5152593D01*
X7262245Y5146642D01*
X7261728Y5145090D01*
X7261210Y5138364D01*
X7259917Y5133966D01*
X7259141Y5130085D01*
X7258623Y5126463D01*
X7258106Y5124393D01*
X7257330Y5121547D01*
X7256036Y5115597D01*
X7254484Y5114045D01*
X7253190Y5112234D01*
X7252155Y5111716D01*
X7251379Y5110940D01*
X7250862Y5109905D01*
X7250086Y5109647D01*
X7248792Y5108353D01*
X7248275Y5107318D01*
X7247499Y5107060D01*
X7246205Y5105766D01*
X7245688Y5104731D01*
X7243877Y5103955D01*
X7241031Y5101109D01*
X7238185Y5098781D01*
X7237150Y5098263D01*
X7236633Y5097229D01*
X7235598Y5096711D01*
X7233528Y5094641D01*
X7232493Y5094124D01*
X7230424Y5092054D01*
X7229389Y5091537D01*
X7224215Y5087915D01*
X7220593Y5085328D01*
X7218006Y5083775D01*
X7216971Y5082741D01*
X7213349Y5080671D01*
X7212314Y5079636D01*
X7209727Y5078601D01*
X7208692Y5077566D01*
X7204035Y5074979D01*
X7187995Y5066701D01*
X7185925Y5066183D01*
X7182562Y5064372D01*
X7179199Y5063596D01*
X7178423Y5062820D01*
X7173507Y5061009D01*
X7170661Y5059715D01*
X7167298Y5058939D01*
X7163676Y5057387D01*
X7159019Y5056352D01*
X7156174Y5055576D01*
X7152810Y5054283D01*
X7149188Y5053765D01*
X7147119Y5053248D01*
X7144532Y5052213D01*
X7138323Y5051695D01*
X7136253Y5051178D01*
X7134700Y5050660D01*
X7129785Y5049884D01*
X7126680Y5049367D01*
X7116073Y5048591D01*
X7113228Y5047815D01*
X7108312Y5048073D01*
X7106242Y5047556D01*
X7104690Y5047039D01*
X7080113Y5047297D01*
X7078043Y5047815D01*
X7069764Y5048332D01*
X7063037Y5048849D01*
X7056828Y5049367D01*
X7050361Y5050143D01*
X7048808Y5050660D01*
X7043893Y5051437D01*
X7037425Y5052213D01*
X7034579Y5052989D01*
X7032510Y5053506D01*
X7028112Y5054283D01*
X7024490Y5054800D01*
X7021902Y5055835D01*
X7015176Y5056869D01*
X7011813Y5058163D01*
X7008450Y5058939D01*
X7004310Y5059974D01*
X7001723Y5061009D01*
X6998101Y5061526D01*
X6994479Y5063079D01*
X6989822Y5064114D01*
X6985424Y5065925D01*
X6981544Y5066701D01*
X6977922Y5068253D01*
X6976628Y5069546D01*
X6976887Y5070323D01*
X6979474Y5071875D01*
X6981026Y5073427D01*
X6982061Y5073945D01*
X6983096Y5074979D01*
X6985683Y5076532D01*
X6986718Y5077566D01*
X6989305Y5079119D01*
X6990857Y5080671D01*
X6991892Y5081188D01*
X6992927Y5082223D01*
X6995514Y5083775D01*
X6996549Y5084811D01*
X6999136Y5086363D01*
X7000688Y5087915D01*
X7001723Y5088432D01*
X7003275Y5089985D01*
X7005862Y5091537D01*
X7006897Y5092572D01*
X7009484Y5094124D01*
X7011037Y5095676D01*
X7012072Y5096194D01*
X7013624Y5097746D01*
X7016211Y5099298D01*
X7017763Y5100851D01*
X7018798Y5101368D01*
X7019574Y5102144D01*
X7022679Y5104214D01*
X7025524Y5106542D01*
X7026559Y5107060D01*
X7027594Y5108094D01*
X7028629Y5108612D01*
X7029664Y5109647D01*
X7032251Y5111199D01*
X7033027Y5111975D01*
X7039495Y5116890D01*
X7042082Y5118443D01*
X7043634Y5119995D01*
X7046221Y5121547D01*
X7047774Y5123100D01*
X7048808Y5123617D01*
X7049843Y5124652D01*
X7052430Y5126204D01*
X7053465Y5127239D01*
X7058122Y5130861D01*
X7059157Y5131378D01*
X7060192Y5132413D01*
X7062779Y5133966D01*
X7063037Y5134742D01*
X7065366Y5136035D01*
X7066401Y5137070D01*
X7068988Y5138622D01*
X7070540Y5140175D01*
X7071575Y5140692D01*
X7073127Y5142244D01*
X7075714Y5143796D01*
X7076749Y5144831D01*
X7079336Y5146384D01*
X7080113Y5147160D01*
X7090202Y5154662D01*
X7092013Y5155956D01*
X7098481Y5160872D01*
X7099516Y5161389D01*
X7101068Y5162941D01*
X7102103Y5163459D01*
X7103138Y5164493D01*
X7105725Y5166046D01*
X7107277Y5167598D01*
X7108312Y5168115D01*
X7109347Y5169150D01*
X7111934Y5170702D01*
X7113486Y5172255D01*
X7116073Y5173807D01*
X7116849Y5174583D01*
X7126939Y5182086D01*
X7128750Y5183379D01*
X7131596Y5185708D01*
X7132631Y5186225D01*
X7132889Y5187001D01*
X7136253Y5188812D01*
X7137805Y5190365D01*
X7138840Y5190882D01*
X7139875Y5191917D01*
X7142462Y5193469D01*
X7143497Y5194504D01*
X7146084Y5196056D01*
X7147636Y5197608D01*
X7148671Y5198126D01*
X7150223Y5199678D01*
X7152810Y5201230D01*
X7153069Y5202007D01*
X7157985Y5205370D01*
X7159019Y5205887D01*
X7160572Y5207439D01*
X7161606Y5207957D01*
X7162641Y5208992D01*
X7165228Y5210544D01*
X7166005Y5211320D01*
X7167557Y5213907D01*
X7166781Y5214683D01*
X7162641Y5215718D01*
X7158243Y5217012D01*
X7152810Y5218305D01*
X7149965Y5219082D01*
X7147377Y5220116D01*
X7142979Y5220893D01*
X7139357Y5222445D01*
X7135218Y5222962D01*
X7131855Y5224256D01*
X7126422Y5225549D01*
X7122800Y5226584D01*
X7120213Y5227619D01*
X7116073Y5228136D01*
X7112710Y5229430D01*
X7109864Y5230206D01*
X7105725Y5231241D01*
X7103397Y5232017D01*
X7102879Y5234087D01*
X7103397Y5235639D01*
X7104690Y5237450D01*
X7105466Y5240813D01*
X7106242Y5241589D01*
X7107536Y5244953D01*
X7109347Y5248316D01*
X7110123Y5252197D01*
X7111417Y5253490D01*
X7112710Y5256853D01*
X7113228Y5258923D01*
X7114262Y5259958D01*
X7114780Y5262028D01*
X7116073Y5264873D01*
X7117108Y5267460D01*
X7117884Y5270306D01*
X7119437Y5271859D01*
X7119954Y5274446D01*
X7120989Y5277033D01*
X7121765Y5277809D01*
X7122541Y5280655D01*
X7125128Y5286346D01*
X7125646Y5288416D01*
X7126422Y5289192D01*
X7128233Y5294108D01*
X7129009Y5294884D01*
X7129785Y5297730D01*
X7132372Y5303421D01*
X7134442Y5308078D01*
X7136770Y5313511D01*
X7137546Y5316874D01*
X7139099Y5318426D01*
X7139616Y5320496D01*
X7141945Y5325929D01*
X7142721Y5328775D01*
X7143497Y5329551D01*
X7144790Y5332914D01*
X7145308Y5334984D01*
X7146860Y5336536D01*
X7147377Y5339641D01*
X7148930Y5342228D01*
X7149447Y5343263D01*
X7149965Y5345332D01*
X7151258Y5348178D01*
X7153069Y5353094D01*
X7154104Y5354129D01*
X7154621Y5356198D01*
X7155915Y5359044D01*
X7157208Y5362407D01*
X7159795Y5368099D01*
X7160313Y5370169D01*
X7161348Y5371204D01*
X7162383Y5375343D01*
X7163417Y5376378D01*
X7163935Y5379483D01*
X7162124Y5379741D01*
X7160054Y5379224D01*
X7157208Y5378447D01*
X7154621Y5377413D01*
X7150223Y5376637D01*
X7146860Y5375343D01*
X7144014Y5374567D01*
X7141945Y5374049D01*
X7138323Y5372497D01*
X7134700Y5371980D01*
X7132631Y5371462D01*
X7129785Y5370169D01*
X7126422Y5369393D01*
X7124352Y5368875D01*
X7121765Y5367840D01*
X7117108Y5366806D01*
X7114780Y5366029D01*
X7112193Y5364995D01*
X7107019Y5363960D01*
X7104431Y5362925D01*
X7098999Y5361631D01*
X7096153Y5360338D01*
X7090202Y5359044D01*
X7086839Y5357751D01*
X7084769Y5357233D01*
X7082182Y5356716D01*
X7078043Y5355164D01*
X7074162Y5354387D01*
X7071834Y5353611D01*
X7069247Y5352577D01*
X7065366Y5351800D01*
X7061744Y5350248D01*
X7058122Y5349731D01*
X7053465Y5347661D01*
X7049843Y5347143D01*
X7046998Y5346367D01*
X7044410Y5345332D01*
X7040530Y5344556D01*
X7036908Y5343004D01*
X7034321Y5342487D01*
X7032768Y5341969D01*
X7028112Y5341452D01*
X7027077Y5342487D01*
X7026042Y5347661D01*
X7025524Y5352835D01*
X7025007Y5358527D01*
X7024231Y5362925D01*
X7023713Y5364477D01*
X7023196Y5368617D01*
X7022161Y5378965D01*
X7021385Y5381811D01*
X7020868Y5385950D01*
X7020092Y5395005D01*
X7019315Y5397851D01*
X7018281Y5404060D01*
X7017504Y5413115D01*
X7016728Y5415961D01*
X7015952Y5422946D01*
X7015176Y5425792D01*
X7014141Y5426309D01*
X7013365Y5425533D01*
X7012848Y5424498D01*
X7007932Y5419583D01*
X7005604Y5416737D01*
X7005086Y5415702D01*
X6998360Y5408975D01*
X6997842Y5407941D01*
X6997066Y5407164D01*
X6996031Y5406647D01*
X6995773Y5405871D01*
X6990598Y5400697D01*
X6990081Y5399662D01*
X6981802Y5391383D01*
X6981285Y5390348D01*
X6975852Y5384915D01*
X6973524Y5382069D01*
X6973006Y5381035D01*
X6966797Y5374826D01*
X6965503Y5373015D01*
X6963692Y5371721D01*
X6963175Y5370686D01*
X6962399Y5369910D01*
X6961364Y5369393D01*
X6961105Y5368617D01*
X6958518Y5366029D01*
X6958001Y5364995D01*
X6952568Y5359562D01*
X6951533Y5359044D01*
X6950757Y5357751D01*
X6950240Y5356716D01*
X6943513Y5349989D01*
X6942996Y5348955D01*
X6940926Y5346885D01*
X6940409Y5345850D01*
X6939632Y5345591D01*
X6938339Y5344298D01*
X6937821Y5343263D01*
X6937045Y5343004D01*
X6935752Y5341711D01*
X6935234Y5340676D01*
X6934199Y5339641D01*
X6932906Y5337830D01*
X6931871Y5337312D01*
X6931095Y5336536D01*
X6930577Y5335501D01*
X6929801Y5335243D01*
X6929025Y5334467D01*
X6928508Y5333432D01*
X6926438Y5331362D01*
X6925921Y5330327D01*
X6924368Y5329292D01*
X6923851Y5328258D01*
X6923075Y5327481D01*
X6922040Y5326964D01*
X6921005Y5325412D01*
X6919970Y5324894D01*
X6918677Y5323083D01*
X6918159Y5322049D01*
X6915831Y5319720D01*
X6914796Y5319203D01*
X6914537Y5318426D01*
X6913244Y5317133D01*
X6912209Y5316615D01*
X6911433Y5315322D01*
X6910915Y5314287D01*
X6904189Y5307561D01*
X6903671Y5306526D01*
X6896428Y5299282D01*
X6895910Y5298247D01*
X6892288Y5294625D01*
X6891771Y5293590D01*
X6890995Y5292814D01*
X6888408Y5291779D01*
X6888149Y5292556D01*
X6888666Y5294108D01*
X6889184Y5299282D01*
X6890477Y5302645D01*
X6890995Y5304715D01*
X6891771Y5310665D01*
X6893064Y5314028D01*
X6893582Y5316098D01*
X6894099Y5320238D01*
X6894617Y5322307D01*
X6895651Y5324894D01*
X6896428Y5329810D01*
X6896945Y5331880D01*
X6897980Y5335501D01*
X6898497Y5337054D01*
X6899015Y5342228D01*
X6900049Y5344815D01*
X6901084Y5348955D01*
X6901602Y5352577D01*
X6902895Y5356975D01*
X6903413Y5359044D01*
X6904189Y5364477D01*
X6905483Y5367840D01*
X6906258Y5372756D01*
X6907294Y5376895D01*
X6908328Y5380517D01*
X6908846Y5382587D01*
X6909363Y5386209D01*
X6909881Y5388279D01*
X6910915Y5390866D01*
X6911433Y5395523D01*
X6911950Y5397592D01*
X6913244Y5401990D01*
X6914279Y5408717D01*
X6915314Y5411304D01*
X6916090Y5414667D01*
X6916607Y5418289D01*
X6917383Y5420618D01*
X6918677Y5426050D01*
X6919194Y5429672D01*
X6919970Y5432001D01*
X6921264Y5437434D01*
X6921781Y5441056D01*
X6923334Y5444678D01*
X6923851Y5449852D01*
X6925144Y5454250D01*
X6925921Y5457613D01*
X6926438Y5461235D01*
X6926955Y5463305D01*
X6927990Y5465892D01*
X6928508Y5470031D01*
X6929025Y5472101D01*
X6930319Y5476499D01*
X6931095Y5479862D01*
X6931612Y5483484D01*
X6933164Y5488659D01*
X6934199Y5494868D01*
X6935493Y5499266D01*
X6936269Y5503664D01*
X6936786Y5505733D01*
X6938080Y5510131D01*
X6938856Y5515047D01*
X6939374Y5517117D01*
X6940150Y5519963D01*
X6940667Y5522032D01*
X6941443Y5526948D01*
X6942478Y5529535D01*
X6942996Y5533674D01*
X6942220Y5533933D01*
X6938598Y5532898D01*
X6937304Y5531605D01*
X6934458Y5530828D01*
X6932906Y5529276D01*
X6931871Y5528759D01*
X6929284Y5527724D01*
X6928249Y5527206D01*
X6927473Y5526430D01*
X6924627Y5525654D01*
X6923592Y5524619D01*
X6910657Y5517893D01*
X6908846Y5516599D01*
X6906000Y5515823D01*
X6904706Y5514530D01*
X6901343Y5513236D01*
X6899791Y5511684D01*
X6898238Y5511167D01*
X6894875Y5509356D01*
X6891512Y5508062D01*
X6891253Y5507286D01*
X6890218Y5506768D01*
X6886855Y5505475D01*
X6885820Y5504440D01*
X6884786Y5503922D01*
X6882199Y5502888D01*
X6877542Y5500301D01*
X6874954Y5498748D01*
X6872368Y5497713D01*
X6867193Y5494609D01*
X6866158Y5494091D01*
X6863571Y5493057D01*
X6858914Y5490470D01*
X6856327Y5488917D01*
X6853740Y5487882D01*
X6852964Y5487106D01*
X6849601Y5485813D01*
X6848049Y5484261D01*
X6845462Y5483226D01*
X6843392Y5483743D01*
X6842357Y5484778D01*
X6841581Y5487624D01*
X6840028Y5491246D01*
X6839511Y5492281D01*
X6838994Y5494350D01*
X6837441Y5497972D01*
X6836924Y5500559D01*
X6834854Y5505216D01*
X6834337Y5507286D01*
X6832526Y5511684D01*
X6831750Y5514530D01*
X6830456Y5517893D01*
X6829421Y5520480D01*
X6828645Y5523843D01*
X6827869Y5524619D01*
X6826576Y5527983D01*
X6826058Y5530052D01*
X6824765Y5532898D01*
X6823988Y5536261D01*
X6822436Y5538848D01*
X6821919Y5541436D01*
X6820367Y5545057D01*
X6819332Y5547645D01*
X6818814Y5549714D01*
X6817521Y5552560D01*
X6816745Y5555406D01*
X6815451Y5558252D01*
X6814675Y5561098D01*
X6813123Y5564720D01*
X6812088Y5567307D01*
X6811570Y5569376D01*
X6810277Y5572222D01*
X6809501Y5575068D01*
X6807431Y5579725D01*
X6806396Y5583864D01*
X6805102Y5586193D01*
X6804326Y5589038D01*
X6802257Y5593695D01*
X6801739Y5595765D01*
X6800187Y5599387D01*
X6799670Y5601974D01*
X6797600Y5606631D01*
X6797082Y5609218D01*
X6796048Y5611805D01*
X6795271Y5612581D01*
X6794495Y5615944D01*
X6792426Y5620601D01*
X6791391Y5624223D01*
X6789839Y5627845D01*
X6789321Y5629915D01*
X6787251Y5634572D01*
X6786734Y5636641D01*
X6785182Y5640263D01*
X6784664Y5642850D01*
X6783112Y5646472D01*
X6782595Y5648025D01*
X6783112Y5649577D01*
X6785182Y5650094D01*
X6793978Y5650612D01*
X6796048Y5651129D01*
X6799152Y5651647D01*
X6803291Y5652164D01*
X6811570Y5652681D01*
X6817262Y5653199D01*
X6819849Y5653716D01*
X6824506Y5654234D01*
X6831232Y5654751D01*
X6848049Y5655527D01*
X6849601Y5656045D01*
X6859949Y5656562D01*
X6861502Y5657080D01*
X6910657Y5657597D01*
X6951533Y5657080D01*
D02*
G37*
G36*
X3372264Y5038501D02*
X3378473Y5037466D01*
X3383389Y5036690D01*
X3385458Y5036173D01*
X3387787Y5035397D01*
X3391150Y5034103D01*
X3393220Y5033586D01*
X3394772Y5032033D01*
X3396842Y5031516D01*
X3398394Y5029964D01*
X3399429Y5029446D01*
X3403309Y5025566D01*
X3404862Y5022979D01*
X3406673Y5021168D01*
X3407449Y5018322D01*
X3408742Y5017028D01*
X3409260Y5014958D01*
X3410295Y5008749D01*
X3411329Y5006162D01*
X3411071Y5004869D01*
X3410295Y5004093D01*
X3387269Y5004351D01*
X3385717Y5006938D01*
X3384682Y5010560D01*
X3383647Y5013147D01*
X3382612Y5013665D01*
X3382095Y5014700D01*
X3380543Y5016252D01*
X3377179Y5017545D01*
X3376145Y5018580D01*
X3358552Y5019098D01*
X3356483Y5018580D01*
X3351826Y5016511D01*
X3350532Y5015217D01*
X3350015Y5014182D01*
X3347945Y5011078D01*
X3347428Y5005903D01*
X3350015Y5000212D01*
X3352343Y4998918D01*
X3353378Y4998401D01*
X3354413Y4997366D01*
X3359070Y4996849D01*
X3360622Y4996331D01*
X3368383Y4995814D01*
X3368642Y4995555D01*
X3368901Y4995296D01*
X3372005Y4994779D01*
X3380284Y4994262D01*
X3385458Y4993744D01*
X3388304Y4992968D01*
X3393737Y4991674D01*
X3395807Y4991157D01*
X3396583Y4990381D01*
X3399946Y4989087D01*
X3404085Y4986500D01*
X3405120Y4985983D01*
X3410036Y4981067D01*
X3412105Y4977445D01*
X3413658Y4975893D01*
X3414175Y4973306D01*
X3414693Y4971236D01*
X3415727Y4968649D01*
X3415469Y4957525D01*
X3414951Y4955455D01*
X3414175Y4952091D01*
X3411071Y4945365D01*
X3410036Y4944848D01*
X3409518Y4943813D01*
X3408225Y4942519D01*
X3407190Y4942002D01*
X3406673Y4940967D01*
X3404085Y4939415D01*
X3402792Y4938121D01*
X3399429Y4936828D01*
X3398135Y4935534D01*
X3395289Y4934758D01*
X3393220Y4934241D01*
X3388822Y4932947D01*
X3379767Y4932171D01*
X3371488Y4932688D01*
X3367349Y4933723D01*
X3365796Y4934241D01*
X3362692Y4934758D01*
X3360105Y4935793D01*
X3359329Y4936569D01*
X3356483Y4937345D01*
X3355448Y4938380D01*
X3352861Y4939932D01*
X3352084Y4940708D01*
X3351567Y4941743D01*
X3350532Y4942261D01*
X3350015Y4943295D01*
X3349239Y4944071D01*
X3347686Y4944589D01*
X3346910Y4943813D01*
X3346393Y4940708D01*
X3345358Y4938121D01*
X3344582Y4935275D01*
X3320781Y4934758D01*
X3319487Y4936052D01*
X3321039Y4939156D01*
X3321815Y4940967D01*
X3322333Y4944071D01*
X3322850Y5009267D01*
X3323367Y5012371D01*
X3324661Y5018322D01*
X3327248Y5024013D01*
X3329835Y5027635D01*
X3330353Y5028670D01*
X3332164Y5029446D01*
X3333199Y5030481D01*
X3336821Y5032551D01*
X3338632Y5033844D01*
X3341995Y5034620D01*
X3342771Y5035397D01*
X3346134Y5036690D01*
X3351309Y5037208D01*
X3353896Y5038242D01*
X3355189Y5037984D01*
X3357518Y5038242D01*
X3359070Y5038760D01*
X3372264Y5038501D01*
D02*
G37*
G36*
X2608031Y5037984D02*
X2612171Y5037466D01*
X2616051Y5036690D01*
X2619673Y5035138D01*
X2620708Y5034620D01*
X2624330Y5033068D01*
X2627952Y5030999D01*
X2630022Y5028929D01*
X2631056Y5028411D01*
X2631315Y5027635D01*
X2632091Y5027377D01*
X2633902Y5025566D01*
X2634420Y5024531D01*
X2636490Y5022461D01*
X2637007Y5021426D01*
X2638042Y5020391D01*
X2640111Y5016769D01*
X2641664Y5014182D01*
X2644251Y5008491D01*
X2644768Y5004869D01*
X2646321Y5001247D01*
X2646838Y4991416D01*
X2647355Y4989863D01*
X2646838Y4977445D01*
X2646321Y4973823D01*
X2645803Y4971754D01*
X2645027Y4969425D01*
X2644251Y4966062D01*
X2642699Y4962440D01*
X2641146Y4958301D01*
X2640111Y4957266D01*
X2639077Y4954679D01*
X2638042Y4953644D01*
X2636490Y4951057D01*
X2635455Y4950022D01*
X2634161Y4948211D01*
X2633126Y4947693D01*
X2632350Y4946917D01*
X2631833Y4945882D01*
X2629504Y4944589D01*
X2628469Y4943554D01*
X2625882Y4942002D01*
X2624330Y4940450D01*
X2622260Y4939932D01*
X2619156Y4937862D01*
X2616569Y4937345D01*
X2614499Y4936828D01*
X2611653Y4936052D01*
X2609584Y4935534D01*
X2603375Y4935017D01*
X2595354Y4935275D01*
X2593285Y4935793D01*
X2590439Y4936569D01*
X2586558Y4937345D01*
X2583195Y4939156D01*
X2580608Y4940191D01*
X2577762Y4942519D01*
X2576727Y4943037D01*
X2576469Y4943813D01*
X2574140Y4946141D01*
X2571553Y4946659D01*
X2570777Y4945365D01*
X2571035Y4944071D01*
X2571553Y4931653D01*
X2572329Y4928290D01*
X2574916Y4922598D01*
X2578797Y4918718D01*
X2582419Y4916648D01*
X2584230Y4915355D01*
X2586817Y4914837D01*
X2591215Y4914061D01*
X2592767Y4913544D01*
X2598718Y4913802D01*
X2601305Y4914320D01*
X2604409Y4914837D01*
X2607773Y4915613D01*
X2608807Y4916648D01*
X2611395Y4917683D01*
X2612429Y4919235D01*
X2613464Y4919753D01*
X2615275Y4923116D01*
X2616310Y4924151D01*
X2616827Y4926738D01*
X2617345Y4928808D01*
X2618121Y4929584D01*
X2640888Y4930101D01*
X2641922Y4929066D01*
X2641664Y4923633D01*
X2640888Y4920787D01*
X2639853Y4918200D01*
X2639077Y4915355D01*
X2637524Y4913802D01*
X2637007Y4911733D01*
X2635455Y4910180D01*
X2634937Y4909146D01*
X2631056Y4905265D01*
X2626400Y4901643D01*
X2623813Y4900091D01*
X2620449Y4898280D01*
X2617604Y4897504D01*
X2613982Y4895951D01*
X2609066Y4895175D01*
X2600270Y4894658D01*
X2595872Y4893881D01*
X2592250Y4894399D01*
X2590180Y4894916D01*
X2589663D01*
X2588110Y4894399D01*
X2586299Y4894658D01*
X2579314Y4895434D01*
X2575692Y4896986D01*
X2572588Y4897504D01*
X2564826Y4901126D01*
X2562239Y4902678D01*
X2560170Y4904747D01*
X2559135Y4905265D01*
X2555772Y4908628D01*
X2555254Y4909663D01*
X2553184Y4911733D01*
X2549563Y4918459D01*
X2548269Y4921305D01*
X2547493Y4924151D01*
X2546975Y4925703D01*
X2546458Y4929842D01*
X2545941Y4931395D01*
X2545423Y5034879D01*
X2546717Y5036173D01*
X2569224Y5035914D01*
X2569742Y5026600D01*
X2570259Y5024531D01*
X2571035Y5024272D01*
X2572070Y5025307D01*
X2574140Y5028411D01*
X2575175Y5028929D01*
X2575951Y5029705D01*
X2578797Y5032033D01*
X2579832Y5032551D01*
X2580867Y5033586D01*
X2585006Y5035138D01*
X2586041Y5036173D01*
X2589145Y5036690D01*
X2591215Y5037208D01*
X2593802Y5038242D01*
X2605703Y5038760D01*
X2608031Y5037984D01*
D02*
G37*
G36*
X7242066Y5069029D02*
X7241548Y5066442D01*
X7240255Y5063596D01*
X7238961Y5060233D01*
X7237150Y5055835D01*
X7236374Y5052989D01*
X7235856Y5050919D01*
X7234822Y5049884D01*
X7234304Y5047815D01*
X7221110Y5034620D01*
X7220075Y5034103D01*
X7218006Y5032033D01*
X7216971Y5031516D01*
X7215936Y5029964D01*
X7214901Y5029446D01*
X7213349Y5027894D01*
X7210762Y5026342D01*
X7209727Y5025307D01*
X7207916Y5024013D01*
X7205070Y5021685D01*
X7204035Y5021168D01*
X7203777Y5020391D01*
X7200931Y5019098D01*
X7199378Y5017545D01*
X7197826Y5017028D01*
X7196791Y5015993D01*
X7193169Y5013923D01*
X7192134Y5012889D01*
X7184891Y5008749D01*
X7183597Y5007456D01*
X7180751Y5006680D01*
X7179199Y5005127D01*
X7178164Y5004610D01*
X7175577Y5003575D01*
X7172990Y5002023D01*
X7170403Y5000988D01*
X7167815Y4999436D01*
X7164194Y4997883D01*
X7161606Y4996849D01*
X7159537Y4996331D01*
X7158761Y4995555D01*
X7155397Y4994262D01*
X7150741Y4992192D01*
X7146601Y4991157D01*
X7145825Y4990381D01*
X7142979Y4989605D01*
X7138323Y4987535D01*
X7134700Y4987017D01*
X7131079Y4985465D01*
X7123835Y4983913D01*
X7120213Y4982361D01*
X7116073Y4981843D01*
X7114004Y4981326D01*
X7111675Y4980550D01*
X7107795Y4979774D01*
X7104173Y4979256D01*
X7099774Y4977963D01*
X7096670Y4977445D01*
X7088391Y4976410D01*
X7086322Y4975893D01*
X7080113Y4974858D01*
X7064331Y4973565D01*
X7061744Y4972530D01*
X7042082Y4972012D01*
X7040530Y4971495D01*
X7003016Y4971754D01*
X6989046Y4972271D01*
X6980250Y4972788D01*
X6977663Y4973306D01*
X6963692Y4974341D01*
X6944807Y4975117D01*
X6941184Y4975634D01*
X6939632Y4976152D01*
X6935493Y4975634D01*
X6933941Y4976152D01*
X6931354Y4975634D01*
X6929801Y4976152D01*
X6913761Y4976669D01*
X6903930Y4977187D01*
X6856845Y4976669D01*
X6851671Y4976152D01*
X6850118Y4975634D01*
X6847790Y4975893D01*
X6846496Y4975634D01*
X6844944Y4976152D01*
X6843133Y4975893D01*
X6841063Y4975376D01*
X6822436Y4974341D01*
X6816227Y4973823D01*
X6811570Y4973306D01*
X6809501Y4972788D01*
X6796565Y4971754D01*
X6789839Y4970719D01*
X6787769Y4970201D01*
X6783630Y4969684D01*
X6777938Y4969167D01*
X6775868Y4968649D01*
X6770694Y4967614D01*
X6764226Y4966838D01*
X6762156Y4966321D01*
X6759569Y4965286D01*
X6754395Y4964768D01*
X6750773Y4964251D01*
X6748186Y4963216D01*
X6743529Y4962181D01*
X6739907Y4961664D01*
X6737838Y4961147D01*
X6735250Y4960111D01*
X6731111Y4959594D01*
X6727748Y4958301D01*
X6722315Y4957007D01*
X6719469Y4956231D01*
X6716882Y4955196D01*
X6714295Y4954679D01*
X6712225Y4954161D01*
X6709638Y4953126D01*
X6706792Y4952350D01*
X6704723Y4951833D01*
X6701877Y4950539D01*
X6699031Y4949763D01*
X6695409Y4948211D01*
X6694374Y4947693D01*
X6692304Y4947176D01*
X6687906Y4945365D01*
X6685061Y4944589D01*
X6682474Y4943037D01*
X6680404Y4942519D01*
X6669020Y4937345D01*
X6657120Y4931653D01*
X6656085Y4931136D01*
X6655309Y4930360D01*
X6652463Y4929584D01*
X6650911Y4928032D01*
X6648841Y4927514D01*
X6645995Y4930360D01*
X6645478Y4931395D01*
X6643925Y4932947D01*
X6642373Y4935534D01*
X6641597Y4935793D01*
X6640821Y4937086D01*
X6640303Y4938121D01*
X6639527Y4938897D01*
X6634612Y4945365D01*
X6633060Y4947952D01*
X6632025Y4948987D01*
X6630472Y4951574D01*
X6629438Y4952609D01*
X6627885Y4955196D01*
X6626851Y4956231D01*
X6625298Y4958818D01*
X6624263Y4959853D01*
X6622711Y4962440D01*
X6620642Y4966062D01*
X6619607Y4967097D01*
X6617537Y4970719D01*
X6616502Y4971754D01*
X6612363Y4978997D01*
X6609776Y4982619D01*
X6609258Y4985207D01*
X6610552Y4986500D01*
X6612622Y4987017D01*
X6614174Y4988570D01*
X6618313Y4990122D01*
X6619348Y4991157D01*
X6621935Y4992192D01*
X6626592Y4994262D01*
X6629179Y4995296D01*
X6630990Y4996590D01*
X6634353Y4997366D01*
X6635129Y4998142D01*
X6638492Y4999436D01*
X6643149Y5001505D01*
X6646771Y5002540D01*
X6649617Y5003834D01*
X6652463Y5004610D01*
X6654791Y5005386D01*
X6657378Y5006421D01*
X6660742Y5007197D01*
X6664364Y5008749D01*
X6666951Y5009267D01*
X6669020Y5009784D01*
X6672642Y5011336D01*
X6676782Y5011854D01*
X6682732Y5013665D01*
X6687130Y5014441D01*
X6690752Y5015476D01*
X6693598Y5016252D01*
X6698513Y5017028D01*
X6702135Y5017545D01*
X6704464Y5018322D01*
X6706533Y5018839D01*
X6712225Y5019356D01*
X6717141Y5020133D01*
X6719987Y5020909D01*
X6723091Y5021426D01*
X6733698Y5022202D01*
X6736285Y5023237D01*
X6737838Y5022720D01*
X6740166Y5023496D01*
X6746375Y5024013D01*
X6763709Y5024789D01*
X6766555Y5025566D01*
X6779749Y5025307D01*
X6781819Y5025824D01*
X6783371Y5026342D01*
X6805879Y5026083D01*
X6809759Y5025307D01*
X6832008Y5024789D01*
X6837183Y5024272D01*
X6852447Y5023496D01*
X6857621Y5022979D01*
X6859691Y5022461D01*
X6872109Y5021426D01*
X6877283Y5020909D01*
X6882199Y5020133D01*
X6882457Y5019874D01*
X6894875Y5018839D01*
X6896945Y5018322D01*
X6899532Y5017804D01*
X6904448Y5017028D01*
X6909622Y5016511D01*
X6913244Y5015993D01*
X6916090Y5015217D01*
X6919194Y5014700D01*
X6926179Y5013923D01*
X6928249Y5013406D01*
X6931095Y5012630D01*
X6933682Y5012113D01*
X6938856Y5011595D01*
X6942996Y5010560D01*
X6948687Y5009525D01*
X6954638Y5008749D01*
X6957483Y5007973D01*
X6959553Y5007456D01*
X6963692Y5006938D01*
X6968349Y5006421D01*
X6970936Y5005903D01*
X6976628Y5004869D01*
X6982837Y5004351D01*
X6988011Y5003834D01*
X6990598Y5003316D01*
X6995255Y5002799D01*
X6997325Y5002282D01*
X6999653Y5002540D01*
X7001206Y5002023D01*
X7019315Y5001505D01*
X7020868Y5000988D01*
X7058122Y5000471D01*
X7060450Y5001247D01*
X7070282Y5001764D01*
X7078560Y5002282D01*
X7084769Y5002799D01*
X7087356Y5003316D01*
X7090461Y5003834D01*
X7095635Y5004351D01*
X7102103Y5005127D01*
X7104690Y5006162D01*
X7109347Y5006680D01*
X7112969Y5007197D01*
X7115039Y5007714D01*
X7117626Y5008749D01*
X7121765Y5009267D01*
X7123835Y5009784D01*
X7128233Y5011078D01*
X7130302Y5011595D01*
X7133407Y5012113D01*
X7135477Y5012630D01*
X7138064Y5013665D01*
X7141945Y5014441D01*
X7146601Y5016511D01*
X7149706Y5017028D01*
X7152552Y5018322D01*
X7155397Y5019098D01*
X7160830Y5021426D01*
X7164194Y5022202D01*
X7164970Y5022979D01*
X7168333Y5024272D01*
X7174025Y5026859D01*
X7178681Y5028929D01*
X7181269Y5029964D01*
X7182303Y5030481D01*
X7183080Y5031257D01*
X7185925Y5032033D01*
X7187478Y5033586D01*
X7190065Y5034103D01*
X7192134Y5036173D01*
X7194204Y5036690D01*
X7197309Y5038760D01*
X7199378Y5039277D01*
X7200155Y5040053D01*
X7208433Y5045228D01*
X7214901Y5049626D01*
X7217488Y5051178D01*
X7219040Y5052730D01*
X7221627Y5054283D01*
X7222662Y5055317D01*
X7225249Y5056869D01*
X7226284Y5057905D01*
X7228095Y5059198D01*
X7230941Y5061526D01*
X7231976Y5062044D01*
X7232235Y5062820D01*
X7233011Y5063079D01*
X7235598Y5065666D01*
X7236633Y5066183D01*
X7239737Y5069288D01*
X7242066Y5069029D01*
D02*
G37*
G36*
X2855618Y5038242D02*
X2859240Y5037725D01*
X2860792Y5037208D01*
X2865449Y5036690D01*
X2870106Y5034620D01*
X2872175Y5034103D01*
X2874762Y5032551D01*
X2877350Y5031516D01*
X2878384Y5030481D01*
X2880972Y5028929D01*
X2885628Y5024272D01*
X2888215Y5021168D01*
X2890544Y5018322D01*
X2891061Y5017287D01*
X2892096Y5016252D01*
X2894683Y5011595D01*
X2895977Y5008232D01*
X2897529Y5004093D01*
X2898047Y5000988D01*
X2898822Y4997625D01*
X2899340Y4995555D01*
X2899858Y4994003D01*
X2899599Y4977187D01*
X2899081Y4974082D01*
X2898564Y4972012D01*
X2897788Y4968132D01*
X2897270Y4966062D01*
X2894166Y4958301D01*
X2891579Y4953644D01*
X2890026Y4951057D01*
X2881489Y4942519D01*
X2880454Y4942002D01*
X2879419Y4940967D01*
X2872693Y4937345D01*
X2869847Y4936052D01*
X2866484Y4934758D01*
X2864414Y4934241D01*
X2860016Y4932947D01*
X2851996Y4932171D01*
X2839060Y4932688D01*
X2835438Y4934241D01*
X2831816Y4934758D01*
X2828194Y4936310D01*
X2827160Y4936828D01*
X2820433Y4939932D01*
X2819398Y4940967D01*
X2816811Y4942519D01*
X2816035Y4943295D01*
X2815518Y4944330D01*
X2814741Y4944589D01*
X2813448Y4945882D01*
X2812930Y4946917D01*
X2812154Y4947176D01*
X2811378Y4947952D01*
X2810861Y4948987D01*
X2808791Y4951057D01*
X2807756Y4953644D01*
X2806204Y4955196D01*
X2805687Y4957266D01*
X2803617Y4960370D01*
X2803100Y4963475D01*
X2802582Y4965545D01*
X2803358Y4966321D01*
X2824055Y4966838D01*
X2826642Y4965803D01*
X2828453Y4962440D01*
X2830006Y4960888D01*
X2830523Y4959853D01*
X2831558Y4958818D01*
X2834404Y4956490D01*
X2841130Y4952868D01*
X2854066Y4952350D01*
X2857687Y4953385D01*
X2862862Y4955455D01*
X2863896Y4956490D01*
X2864932Y4957007D01*
X2867519Y4959594D01*
X2869847Y4962440D01*
X2870364Y4963475D01*
X2872434Y4966579D01*
X2873469Y4971236D01*
X2875021Y4974858D01*
X2874245Y4977187D01*
X2800771Y4977704D01*
X2799995Y4978480D01*
X2799478Y4987794D01*
X2799995Y4989346D01*
X2800512Y4995038D01*
Y4995555D01*
X2801030Y5000212D01*
X2802323Y5003058D01*
X2803100Y5006421D01*
X2805687Y5012113D01*
X2806721Y5014700D01*
X2808791Y5018322D01*
X2810343Y5019874D01*
X2810861Y5020909D01*
X2818881Y5028929D01*
X2819916Y5029446D01*
X2821468Y5030999D01*
X2824055Y5032033D01*
X2825607Y5033586D01*
X2827677Y5034103D01*
X2832334Y5036173D01*
X2834404Y5036690D01*
X2840613Y5037725D01*
X2842165Y5038242D01*
X2854066Y5038760D01*
X2855618Y5038242D01*
D02*
G37*
G36*
X3253257Y5038501D02*
X3256362Y5037984D01*
X3258431Y5037466D01*
X3261794Y5036690D01*
X3263864Y5036173D01*
X3266192Y5034879D01*
X3269556Y5033586D01*
X3271108Y5032033D01*
X3272143Y5031516D01*
X3273695Y5029964D01*
X3274730Y5029446D01*
X3276541Y5027635D01*
X3277058Y5026600D01*
X3278869Y5024789D01*
X3280163Y5025048D01*
X3280680Y5034879D01*
X3281456Y5035655D01*
X3304223Y5036173D01*
X3304999Y5034879D01*
X3304740Y4935275D01*
X3282491Y4934758D01*
X3280421Y4935275D01*
X3279904Y4992709D01*
X3279387Y4997883D01*
X3278869Y4999953D01*
X3277576Y5003316D01*
X3277058Y5005386D01*
X3276023Y5006421D01*
X3275506Y5007456D01*
X3271625Y5011336D01*
X3270591Y5011854D01*
X3269556Y5012889D01*
X3266969Y5014441D01*
X3263347Y5015993D01*
X3254033Y5016511D01*
X3251963Y5015993D01*
X3249635Y5015217D01*
X3246272Y5013923D01*
X3245237Y5012889D01*
X3243426Y5011595D01*
X3242908Y5010560D01*
X3240839Y5007456D01*
X3240321Y5005386D01*
X3239804Y5003834D01*
X3239286Y4936052D01*
X3238510Y4935275D01*
X3216261Y4934758D01*
X3213933Y4935534D01*
X3213415Y5004351D01*
X3213933Y5005903D01*
X3214450Y5010043D01*
X3215485Y5014182D01*
X3216002Y5017804D01*
X3216779Y5018580D01*
X3218590Y5023496D01*
X3220142Y5025048D01*
X3220659Y5026083D01*
X3225575Y5030999D01*
X3226610Y5031516D01*
X3227645Y5032551D01*
X3234371Y5036173D01*
X3234888D01*
X3239028Y5037208D01*
X3240580Y5037725D01*
X3244202Y5038242D01*
X3245754Y5038760D01*
X3253257Y5038501D01*
D02*
G37*
G36*
X3034387Y5073686D02*
X3034905Y4936052D01*
X3034129Y4935275D01*
X2973073Y4934758D01*
X2971003Y4935275D01*
X2964277Y4935793D01*
X2961689Y4936828D01*
X2958067Y4937345D01*
X2955222Y4938121D01*
X2952634Y4939156D01*
X2949789Y4939932D01*
X2946425Y4941743D01*
X2943580Y4942519D01*
X2942545Y4943554D01*
X2938923Y4945624D01*
X2936336Y4947176D01*
X2934783Y4948728D01*
X2933749Y4949246D01*
X2932455Y4950539D01*
X2931937Y4951574D01*
X2930903Y4952091D01*
X2929609Y4953902D01*
X2928574Y4954420D01*
X2927798Y4955196D01*
X2927281Y4956231D01*
X2925211Y4958301D01*
X2924694Y4959336D01*
X2923141Y4960888D01*
X2922107Y4963475D01*
X2920554Y4965027D01*
X2919519Y4967614D01*
X2918226Y4968908D01*
X2917450Y4971754D01*
X2915380Y4976410D01*
X2914345Y4980550D01*
X2913310Y4983137D01*
X2912793Y4984689D01*
X2912276Y4992968D01*
X2911758Y4994520D01*
X2911241Y5003834D01*
Y5004351D01*
Y5011595D01*
X2911758Y5013147D01*
X2912793Y5022979D01*
X2913310Y5025048D01*
X2914345Y5027635D01*
X2914863Y5030740D01*
X2915380Y5032809D01*
X2917450Y5037466D01*
X2918485Y5040053D01*
X2920037Y5042640D01*
X2920554Y5044193D01*
X2922624Y5047815D01*
X2924176Y5049367D01*
X2924694Y5050402D01*
X2926763Y5052471D01*
X2927281Y5053506D01*
X2932196Y5058422D01*
X2933231Y5058939D01*
X2935301Y5061009D01*
X2936336Y5061526D01*
X2937888Y5063079D01*
X2938923Y5063596D01*
X2942803Y5065925D01*
X2946167Y5067218D01*
X2946943Y5067994D01*
X2950306Y5069288D01*
X2952376Y5069805D01*
X2953152Y5070581D01*
X2955222Y5071099D01*
X2960396Y5072134D01*
X2962465Y5072651D01*
X2966346Y5073427D01*
X2967899Y5073945D01*
X3032059Y5074462D01*
X3034387Y5073686D01*
D02*
G37*
G36*
X2686679Y5035397D02*
X2687197Y4936052D01*
X2686421Y4935275D01*
X2684351Y4934758D01*
X2662619D01*
X2661843Y4935534D01*
X2662102Y5035655D01*
X2685903Y5036173D01*
X2686679Y5035397D01*
D02*
G37*
G36*
X2475312Y5038242D02*
X2480228Y5037466D01*
X2483074Y5036690D01*
X2486696Y5035655D01*
X2487731Y5034620D01*
X2489800Y5034103D01*
X2493422Y5031516D01*
X2494457Y5030999D01*
X2501183Y5024272D01*
X2501960Y5024531D01*
X2502477Y5033844D01*
X2502994Y5035914D01*
X2524985Y5036173D01*
X2525761Y5035397D01*
X2526278Y4992968D01*
Y4992451D01*
Y4940191D01*
X2526796Y4936569D01*
X2525502Y4935275D01*
X2503253Y4934758D01*
X2501183Y4935275D01*
X2500666Y4936310D01*
X2500925Y4992451D01*
X2500407Y4999177D01*
X2499372Y5002799D01*
X2498596Y5003575D01*
X2497303Y5006938D01*
X2492905Y5011336D01*
X2491870Y5011854D01*
X2490835Y5012889D01*
X2488248Y5014441D01*
X2484885Y5015734D01*
X2479711Y5016769D01*
X2474278Y5016511D01*
X2467551Y5013923D01*
X2463153Y5009525D01*
X2462636Y5007456D01*
X2461859Y5006680D01*
X2460825Y5004093D01*
X2460307Y4935275D01*
X2436506Y4934758D01*
X2435730Y4935534D01*
X2435212Y5002282D01*
X2435730Y5009008D01*
X2436247Y5014182D01*
X2437799Y5017804D01*
X2440904Y5024531D01*
X2441680Y5025307D01*
X2443750Y5028411D01*
X2445561Y5029705D01*
X2448406Y5032033D01*
X2449441Y5032551D01*
X2450476Y5033586D01*
X2451511Y5034103D01*
X2454098Y5035138D01*
X2454874Y5035914D01*
X2457720Y5036690D01*
X2459272Y5037208D01*
X2463412Y5037725D01*
X2464964Y5038242D01*
X2473760Y5038760D01*
X2475312Y5038242D01*
D02*
G37*
G36*
X3121832Y5073686D02*
X3122608Y5071875D01*
X3122349Y5026083D01*
X3123125Y5025824D01*
X3125712Y5026859D01*
X3125971Y5027635D01*
X3128817Y5030481D01*
X3131404Y5032033D01*
X3132956Y5033586D01*
X3135543Y5034620D01*
X3137872Y5035914D01*
X3140718Y5036690D01*
X3142270Y5037208D01*
X3146409Y5037725D01*
X3147961Y5038242D01*
X3153136Y5038760D01*
X3161414Y5038242D01*
X3164002Y5037208D01*
X3168141Y5036690D01*
X3170728Y5035655D01*
X3175385Y5033586D01*
X3180042Y5030999D01*
X3180559Y5029964D01*
X3181594Y5029446D01*
X3187544Y5023496D01*
X3188062Y5022461D01*
X3189614Y5020909D01*
X3195306Y5010043D01*
X3196340Y5005386D01*
X3197893Y5001764D01*
X3198410Y4978997D01*
X3197893Y4969167D01*
X3196599Y4966321D01*
X3195823Y4962440D01*
X3193236Y4956748D01*
X3192201Y4954161D01*
X3190131Y4950539D01*
X3188579Y4948987D01*
X3188062Y4947952D01*
X3182111Y4942002D01*
X3181076Y4941484D01*
X3180818Y4940708D01*
X3177454Y4938897D01*
X3176420Y4937862D01*
X3175385Y4937345D01*
X3172798Y4936310D01*
X3172022Y4935534D01*
X3167882Y4934499D01*
X3165036Y4933723D01*
X3162449Y4932688D01*
X3153136Y4932171D01*
X3146409Y4932688D01*
X3144339Y4933206D01*
X3142011Y4933982D01*
X3138648Y4934758D01*
X3131921Y4937862D01*
X3130369Y4939415D01*
X3129334Y4939932D01*
X3124678Y4944589D01*
X3124419Y4944848D01*
X3123642Y4945624D01*
X3122090Y4946141D01*
X3121832Y4936052D01*
X3121055Y4935275D01*
X3100359Y4934758D01*
X3098030Y4935534D01*
X3097513Y5072651D01*
X3098806Y5073945D01*
X3119503Y5074462D01*
X3121832Y5073686D01*
D02*
G37*
G36*
X2753686Y5038242D02*
X2757825Y5037725D01*
X2759377Y5037208D01*
X2765069Y5036690D01*
X2768432Y5035397D01*
X2773348Y5033586D01*
X2774900Y5032033D01*
X2776970Y5031516D01*
X2778522Y5029964D01*
X2780333Y5028670D01*
X2780850Y5027635D01*
X2781626Y5026859D01*
X2782661Y5026342D01*
X2783955Y5024013D01*
X2784731Y5023237D01*
X2787835Y5017028D01*
X2788870Y5010302D01*
X2788612Y5004351D01*
X2788094Y4999177D01*
X2786801Y4996331D01*
X2785507Y4992968D01*
X2784472Y4991933D01*
X2783955Y4990898D01*
X2781885Y4988828D01*
X2781368Y4987794D01*
X2780592Y4987535D01*
X2778522Y4985465D01*
X2775935Y4983913D01*
X2770243Y4980808D01*
X2767656Y4979774D01*
X2765586Y4979256D01*
X2759636Y4977445D01*
X2752651Y4976669D01*
X2751098Y4976152D01*
X2748511Y4975634D01*
X2746959Y4975117D01*
X2741785Y4974599D01*
X2739715Y4974082D01*
X2732989Y4972012D01*
X2730402Y4970977D01*
X2729367Y4970460D01*
X2727814Y4968908D01*
X2725486Y4966062D01*
X2724969Y4960370D01*
X2726003Y4957783D01*
X2726521Y4955713D01*
X2728332Y4954420D01*
X2729367Y4953902D01*
X2730402Y4952868D01*
X2735576Y4950798D01*
X2750064Y4950281D01*
X2752392Y4951057D01*
X2755755Y4951833D01*
X2758342Y4952868D01*
X2759377Y4953902D01*
X2760412Y4954420D01*
X2762223Y4956231D01*
X2764293Y4959853D01*
X2765328Y4960888D01*
X2765845Y4964510D01*
X2766621Y4966838D01*
X2788353Y4967356D01*
X2790423Y4966838D01*
X2791199Y4965545D01*
X2790681Y4961923D01*
X2790164Y4959853D01*
X2788612Y4954679D01*
X2788094Y4952609D01*
X2786542Y4950022D01*
X2786024Y4948470D01*
X2783955Y4946400D01*
X2783437Y4945365D01*
X2781885Y4943813D01*
X2776711Y4939673D01*
X2773606Y4937604D01*
X2770761Y4936828D01*
X2769208Y4935275D01*
X2765586Y4934758D01*
X2762999Y4933723D01*
X2760929Y4933206D01*
X2759377Y4932688D01*
X2742820Y4932171D01*
X2729884Y4932688D01*
X2726262Y4934241D01*
X2722640Y4934758D01*
X2717983Y4936828D01*
X2715914Y4937345D01*
X2709187Y4942002D01*
X2708153Y4942519D01*
X2707376Y4943295D01*
X2706859Y4944330D01*
X2705307Y4945882D01*
X2703237Y4949504D01*
X2702461Y4950281D01*
X2701426Y4952868D01*
X2700650Y4956231D01*
X2700133Y4957783D01*
X2699615Y4967097D01*
X2700133Y4970719D01*
X2701167Y4973306D01*
X2701685Y4975376D01*
X2702720Y4977963D01*
X2704272Y4980550D01*
X2705824Y4982102D01*
X2706342Y4983137D01*
X2707118Y4983913D01*
X2708153Y4984430D01*
X2709705Y4985983D01*
X2716431Y4989605D01*
X2721605Y4991674D01*
X2729108Y4994003D01*
X2733248Y4994520D01*
X2738163Y4995296D01*
X2741009Y4996073D01*
X2750064Y4997366D01*
X2758342Y4999953D01*
X2759377Y5000988D01*
X2760412Y5001505D01*
X2761188Y5002282D01*
X2763775Y5005903D01*
Y5006421D01*
X2764034Y5008749D01*
X2763775Y5011595D01*
X2763258Y5013665D01*
X2762223Y5014700D01*
X2760929Y5016511D01*
X2759895Y5017028D01*
X2756790Y5019098D01*
X2750581Y5019615D01*
X2749029Y5020133D01*
X2740750Y5019615D01*
X2737128Y5019098D01*
X2731436Y5016511D01*
X2729108Y5014182D01*
X2727038Y5010560D01*
X2726521Y5006938D01*
X2725745Y5004610D01*
X2702978Y5004093D01*
X2701685Y5005903D01*
X2701943Y5007714D01*
X2702978Y5011854D01*
X2703754Y5015217D01*
X2707376Y5022979D01*
X2708929Y5025566D01*
X2710481Y5026600D01*
X2711774Y5028411D01*
X2712809Y5028929D01*
X2714362Y5030481D01*
X2721088Y5034103D01*
X2725745Y5036173D01*
X2730402Y5036690D01*
X2731954Y5037208D01*
X2736611Y5037725D01*
X2738163Y5038242D01*
X2752133Y5038760D01*
X2753686Y5038242D01*
D02*
G37*
G36*
X7207398Y4992968D02*
X7206364Y4989346D01*
X7204811Y4987794D01*
X7203777Y4985207D01*
X7202224Y4983654D01*
X7201707Y4981585D01*
X7200672Y4980550D01*
X7196015Y4972788D01*
X7193945Y4969167D01*
X7192911Y4968132D01*
X7190841Y4964510D01*
X7189289Y4961923D01*
X7188254Y4960888D01*
X7186184Y4957266D01*
X7185149Y4956231D01*
X7184632Y4955196D01*
X7183597Y4954161D01*
X7181527Y4950539D01*
X7179975Y4948987D01*
X7179458Y4947952D01*
X7178423Y4946917D01*
X7176612Y4944071D01*
X7174283Y4941226D01*
X7173766Y4940191D01*
X7172731Y4939156D01*
X7171438Y4937345D01*
X7169109Y4934499D01*
X7168592Y4933464D01*
X7167040Y4931912D01*
X7166522Y4930877D01*
X7164970Y4929325D01*
X7164452Y4928290D01*
X7162383Y4926221D01*
X7161865Y4925185D01*
X7159537Y4922857D01*
X7157208Y4920011D01*
X7156691Y4918976D01*
X7155139Y4917424D01*
X7153845Y4915613D01*
X7152810Y4915096D01*
X7152552Y4914320D01*
X7149447Y4911215D01*
X7148930Y4910180D01*
X7147895Y4909663D01*
X7147377Y4908628D01*
X7144014Y4905265D01*
X7142979Y4904747D01*
X7142203Y4903454D01*
X7141686Y4902419D01*
X7125387Y4886120D01*
X7124352Y4885603D01*
X7117108Y4878359D01*
X7116073Y4877841D01*
X7111417Y4873185D01*
X7110382Y4872667D01*
X7108829Y4871115D01*
X7107795Y4870598D01*
X7105725Y4868528D01*
X7104690Y4868010D01*
X7102103Y4865423D01*
X7101068Y4864906D01*
X7098999Y4862836D01*
X7097963Y4862319D01*
X7096411Y4860767D01*
X7095376Y4860249D01*
X7093307Y4858180D01*
X7092272Y4857662D01*
X7090720Y4856110D01*
X7089685Y4855592D01*
X7088133Y4854040D01*
X7086322Y4852746D01*
X7079854Y4847831D01*
X7078819Y4847314D01*
X7077267Y4845761D01*
X7076232Y4845244D01*
X7074680Y4843692D01*
X7073645Y4843174D01*
X7070023Y4840587D01*
X7068988Y4840070D01*
X7067953Y4839035D01*
X7065366Y4837483D01*
X7064590Y4836706D01*
X7058122Y4832308D01*
X7054500Y4829721D01*
X7051654Y4827910D01*
X7046739Y4824547D01*
X7043117Y4822477D01*
X7039495Y4819890D01*
X7035873Y4817820D01*
X7034838Y4816786D01*
X7027594Y4812646D01*
X7022937Y4810059D01*
X7021385Y4808507D01*
X7019315Y4807989D01*
X7018281Y4806955D01*
X7013624Y4804368D01*
X7010002Y4802298D01*
X7005345Y4799711D01*
X6998618Y4796089D01*
X6995514Y4794019D01*
X6994479Y4793502D01*
X6991892Y4792467D01*
X6987235Y4789880D01*
X6984648Y4788327D01*
X6982578Y4787810D01*
X6981026Y4786258D01*
X6978956Y4785740D01*
X6976369Y4784188D01*
X6975335Y4783671D01*
X6972747Y4782636D01*
X6970160Y4781083D01*
X6967573Y4780049D01*
X6964986Y4778496D01*
X6962399Y4777462D01*
X6959812Y4775909D01*
X6957225Y4774874D01*
X6954638Y4773322D01*
X6952568Y4772805D01*
X6951792Y4772029D01*
X6948429Y4770735D01*
X6945841Y4769183D01*
X6944289Y4768665D01*
X6935493Y4764526D01*
X6931354Y4762974D01*
X6930577Y4762197D01*
X6927214Y4760904D01*
X6925662Y4760386D01*
X6923075Y4758834D01*
X6921005Y4758317D01*
X6918677Y4757023D01*
X6915314Y4755730D01*
X6912726Y4754695D01*
X6901860Y4754177D01*
X6895134Y4756247D01*
X6890477Y4758317D01*
X6879094Y4763491D01*
X6875472Y4765043D01*
X6871332Y4766596D01*
X6870298Y4767631D01*
X6869263Y4768148D01*
X6865641Y4769183D01*
X6864606Y4770218D01*
X6863571Y4770735D01*
X6861502Y4771252D01*
X6858914Y4772805D01*
X6857362Y4773322D01*
X6848566Y4777462D01*
X6845979Y4778496D01*
X6844427Y4779014D01*
X6840805Y4781083D01*
X6836148Y4783153D01*
X6833561Y4784188D01*
X6830974Y4785740D01*
X6828387Y4786775D01*
X6825799Y4788327D01*
X6823730Y4788845D01*
X6822695Y4789880D01*
X6820108Y4790914D01*
X6817521Y4792467D01*
X6816486Y4792984D01*
X6813899Y4794019D01*
X6812864Y4794537D01*
X6812088Y4795312D01*
X6809242Y4796089D01*
X6807948Y4797382D01*
X6804585Y4798676D01*
X6803291Y4799969D01*
X6799928Y4801263D01*
X6798635Y4802557D01*
X6795271Y4803850D01*
X6793719Y4805402D01*
X6791650Y4805920D01*
X6790615Y4806955D01*
X6783371Y4811094D01*
X6781819Y4812646D01*
X6779749Y4813164D01*
X6778714Y4814198D01*
X6775092Y4816268D01*
X6771470Y4818855D01*
X6767848Y4820925D01*
X6766813Y4821960D01*
X6764226Y4823512D01*
X6763191Y4824547D01*
X6759569Y4826617D01*
X6756982Y4828169D01*
X6755947Y4829204D01*
X6753360Y4830756D01*
X6752325Y4831791D01*
X6749738Y4833343D01*
X6748186Y4834895D01*
X6746634Y4835413D01*
X6745082Y4836965D01*
X6742495Y4838517D01*
X6741459Y4839552D01*
X6738872Y4841104D01*
X6737320Y4842657D01*
X6736285Y4843174D01*
X6735250Y4844209D01*
X6732663Y4845761D01*
X6732405Y4847572D01*
X6733698Y4848866D01*
X6737320Y4851453D01*
X6739907Y4853005D01*
X6740942Y4854040D01*
X6744564Y4856110D01*
X6745599Y4857144D01*
X6752325Y4860767D01*
X6753360Y4861801D01*
X6756982Y4863871D01*
X6761639Y4866458D01*
X6765261Y4868528D01*
X6767848Y4870080D01*
X6769918Y4870598D01*
X6771470Y4872150D01*
X6772505Y4872667D01*
X6775092Y4873702D01*
X6777679Y4875254D01*
X6779231Y4875772D01*
X6782853Y4877841D01*
X6786475Y4879394D01*
X6787510Y4879911D01*
X6798893Y4885085D01*
X6803550Y4887155D01*
X6806137Y4887672D01*
X6809501Y4889483D01*
X6812347Y4890260D01*
X6817003Y4892329D01*
X6820625Y4893364D01*
X6820884Y4893623D01*
X6823730Y4894916D01*
X6825799Y4895434D01*
X6829421Y4896986D01*
X6834078Y4898021D01*
X6836924Y4899315D01*
X6839770Y4900091D01*
X6841840Y4900608D01*
X6844685Y4901902D01*
X6848049Y4902678D01*
X6850894Y4903454D01*
X6853482Y4904489D01*
X6855551Y4905006D01*
X6858656Y4905524D01*
X6862795Y4907076D01*
X6865900Y4907593D01*
X6867969Y4908111D01*
X6870556Y4909146D01*
X6874437Y4909922D01*
X6878059Y4910439D01*
X6881681Y4911991D01*
X6886338Y4912509D01*
X6888408Y4913026D01*
X6891253Y4913802D01*
X6893323Y4914320D01*
X6900049Y4915355D01*
X6904189Y4916389D01*
X6909881Y4917424D01*
X6915314Y4918200D01*
X6919712Y4919494D01*
X6928766Y4920270D01*
X6930836Y4920787D01*
X6933682Y4921564D01*
X6937821Y4922081D01*
X6946876Y4922857D01*
X6948429Y4923375D01*
X6953344Y4924151D01*
X6958001Y4924668D01*
X6964727Y4925185D01*
X6970419Y4925703D01*
X6975593Y4926221D01*
X6977663Y4926738D01*
X6990340Y4927514D01*
X6993962Y4928032D01*
X6995514Y4927514D01*
X6996549Y4928032D01*
X7000688Y4928549D01*
X7004310Y4929066D01*
X7005862Y4929584D01*
X7018281Y4930101D01*
X7019833Y4930619D01*
X7023455Y4931136D01*
X7027594Y4932171D01*
X7035873Y4932688D01*
X7037425Y4933206D01*
X7042341Y4933982D01*
X7044410Y4934499D01*
X7050619Y4935017D01*
X7056828Y4936569D01*
X7059933Y4937086D01*
X7064072Y4937604D01*
X7066659Y4938121D01*
X7069505Y4938897D01*
X7073645Y4939932D01*
X7077267Y4940450D01*
X7081665Y4941743D01*
X7086580Y4942519D01*
X7093307Y4944589D01*
X7096929Y4945106D01*
X7099774Y4945882D01*
X7103138Y4947176D01*
X7106760Y4947693D01*
X7109606Y4948987D01*
X7113486Y4949763D01*
X7115556Y4950281D01*
X7118402Y4951574D01*
X7121765Y4952350D01*
X7124352Y4953385D01*
X7126163Y4954161D01*
X7129526Y4954938D01*
X7132372Y4956231D01*
X7135218Y4957007D01*
X7137288Y4957525D01*
X7139875Y4959077D01*
X7142462Y4959594D01*
X7145049Y4960629D01*
X7145825Y4961405D01*
X7148671Y4962181D01*
X7150741Y4962699D01*
X7151775Y4963734D01*
X7154363Y4964768D01*
X7157985Y4966321D01*
X7160572Y4967356D01*
X7162124Y4967873D01*
X7164711Y4969425D01*
X7168333Y4970977D01*
X7172472Y4972530D01*
X7173766Y4973823D01*
X7177129Y4975117D01*
X7178423Y4976410D01*
X7181786Y4977704D01*
X7182821Y4978739D01*
X7183856Y4979256D01*
X7186443Y4980291D01*
X7187478Y4981326D01*
X7188512Y4981843D01*
X7193687Y4984948D01*
X7197309Y4987017D01*
X7202483Y4990639D01*
X7206105Y4993227D01*
X7207398Y4992968D01*
D02*
G37*
G36*
X4740070Y5010302D02*
X4808887Y5009784D01*
X4809663Y5009008D01*
X4810181Y4980550D01*
X4809405Y4979774D01*
X4803713Y4978739D01*
X4801643Y4978221D01*
X4800091Y4977704D01*
X4793882Y4977187D01*
X4793106Y4976410D01*
X4790519Y4971754D01*
X4790001Y4969684D01*
X4787931Y4965027D01*
X4786897Y4960888D01*
X4785862Y4959853D01*
X4785345Y4957783D01*
X4783275Y4953126D01*
X4782757Y4950539D01*
X4781722Y4947952D01*
X4780946Y4947176D01*
X4780170Y4944330D01*
X4778618Y4940708D01*
X4778100Y4939673D01*
X4777583Y4937604D01*
X4775513Y4932947D01*
X4774996Y4930877D01*
X4772926Y4926221D01*
X4771891Y4922598D01*
X4771115Y4921822D01*
X4770339Y4918976D01*
X4768011Y4913544D01*
X4767235Y4910180D01*
X4766459Y4909404D01*
X4765165Y4906041D01*
X4763354Y4901643D01*
X4762578Y4898280D01*
X4761026Y4895693D01*
X4760508Y4893623D01*
X4758956Y4890001D01*
X4757921Y4887414D01*
X4757404Y4885344D01*
X4756110Y4883016D01*
X4755334Y4880170D01*
X4754040Y4877324D01*
X4752747Y4873961D01*
X4752230Y4871891D01*
X4751194Y4870856D01*
X4750677Y4868269D01*
X4749125Y4864647D01*
X4748090Y4862060D01*
X4747573Y4859990D01*
X4746020Y4857403D01*
X4744985Y4852746D01*
X4744209Y4851970D01*
X4740329Y4841881D01*
X4739811Y4839811D01*
X4738776Y4838776D01*
X4737742Y4834637D01*
X4735154Y4828945D01*
X4734637Y4825323D01*
X4735672Y4821701D01*
X4737224Y4818079D01*
X4737742Y4817044D01*
X4738259Y4814975D01*
X4740329Y4810318D01*
Y4809800D01*
X4743174Y4804368D01*
X4745503Y4801522D01*
X4746020Y4800487D01*
X4749901Y4796606D01*
X4752488Y4795054D01*
X4753523Y4794019D01*
X4756110Y4792984D01*
X4759732Y4791432D01*
X4768528Y4790914D01*
X4776807Y4791432D01*
X4778100Y4790138D01*
X4778618Y4787034D01*
X4779135Y4784964D01*
X4779653Y4783412D01*
X4780688Y4773063D01*
X4781205Y4770994D01*
X4781981Y4768148D01*
X4782499Y4764009D01*
X4783275Y4755471D01*
X4781981Y4754177D01*
X4778877Y4753660D01*
X4776807Y4753143D01*
X4773185Y4752625D01*
X4770598Y4751590D01*
X4754040Y4751073D01*
X4747314Y4751590D01*
X4743692Y4752108D01*
X4741622Y4752625D01*
X4738000Y4753660D01*
X4734378Y4754177D01*
X4733602Y4754954D01*
X4728687Y4756765D01*
X4727911Y4757541D01*
X4724547Y4758834D01*
X4722995Y4760386D01*
X4721960Y4760904D01*
X4719890Y4762974D01*
X4718856Y4763491D01*
X4717821Y4765043D01*
X4716010Y4766337D01*
X4715492Y4767372D01*
X4713940Y4768924D01*
X4713423Y4769959D01*
X4712388Y4770994D01*
X4708766Y4775651D01*
X4708248Y4776685D01*
X4706179Y4778755D01*
X4705661Y4780825D01*
X4704627Y4781860D01*
X4698418Y4793760D01*
X4697900Y4795830D01*
X4696348Y4798417D01*
X4695313Y4802557D01*
X4694019Y4804885D01*
X4693243Y4807731D01*
X4691173Y4812388D01*
X4690656Y4814457D01*
X4689104Y4818079D01*
X4688587Y4819114D01*
X4687552Y4823253D01*
X4686775Y4824029D01*
X4685999Y4826875D01*
X4684706Y4830238D01*
X4683671Y4832826D01*
X4682895Y4835672D01*
X4681601Y4838000D01*
X4680825Y4840846D01*
X4680308Y4842915D01*
X4679273Y4843950D01*
X4678755Y4846020D01*
X4677462Y4849383D01*
X4676427Y4851970D01*
X4675651Y4854816D01*
X4673581Y4859473D01*
X4672546Y4863095D01*
X4671512Y4864130D01*
X4670994Y4867234D01*
X4669701Y4870080D01*
X4668407Y4873443D01*
X4667890Y4875513D01*
X4666596Y4877841D01*
X4665820Y4880687D01*
X4665302Y4882757D01*
X4664268Y4883792D01*
X4663750Y4886379D01*
X4661681Y4891036D01*
X4661163Y4893106D01*
X4659093Y4897762D01*
X4658059Y4901902D01*
X4656765Y4904230D01*
X4655989Y4907076D01*
X4653919Y4911733D01*
X4653402Y4913802D01*
X4651849Y4917424D01*
X4651332Y4918459D01*
X4650297Y4922598D01*
X4649521Y4923375D01*
X4648745Y4926221D01*
X4646158Y4932947D01*
X4645640Y4935017D01*
X4644088Y4937604D01*
X4643571Y4940708D01*
X4642536Y4943295D01*
X4641760Y4944071D01*
X4640984Y4947435D01*
X4638914Y4952091D01*
X4638396Y4954161D01*
X4636327Y4958818D01*
X4635809Y4960888D01*
X4633740Y4966062D01*
X4632705Y4969684D01*
X4631929Y4970460D01*
X4631153Y4973306D01*
X4630635Y4975376D01*
X4629342Y4976669D01*
X4625978Y4977963D01*
X4623391Y4978480D01*
X4618993Y4979256D01*
X4613819Y4979774D01*
X4613043Y4980550D01*
X4612525Y5007456D01*
X4613043Y5009525D01*
X4613819Y5010302D01*
X4701781Y5010819D01*
X4702557Y5010043D01*
X4703074Y4984172D01*
X4703592Y4982619D01*
X4702816Y4979774D01*
X4697641Y4979256D01*
X4695313Y4978480D01*
X4693243Y4977963D01*
X4685741Y4977187D01*
X4683671Y4976669D01*
X4683412Y4974341D01*
X4683930Y4972271D01*
X4685223Y4969425D01*
X4685999Y4966579D01*
X4686517Y4964510D01*
X4687810Y4961664D01*
X4688587Y4958301D01*
X4689362Y4955972D01*
X4690656Y4952609D01*
X4691173Y4950539D01*
X4691950Y4947693D01*
X4693243Y4944330D01*
X4694019Y4941484D01*
X4695830Y4936569D01*
X4696607Y4933723D01*
X4698418Y4928808D01*
X4698935Y4926738D01*
X4700487Y4923116D01*
X4701522Y4918976D01*
X4703074Y4915355D01*
X4703592Y4913285D01*
X4704368Y4910439D01*
X4705661Y4907076D01*
X4706179Y4905006D01*
X4707731Y4901384D01*
X4708248Y4898797D01*
X4711094Y4892329D01*
X4712129Y4891812D01*
X4712647Y4892847D01*
X4713423Y4900867D01*
X4714716Y4904230D01*
X4715492Y4907076D01*
X4716527Y4910698D01*
X4717562Y4911733D01*
X4718079Y4914837D01*
X4720149Y4919494D01*
X4720667Y4922598D01*
X4722736Y4927255D01*
X4723254Y4929325D01*
X4724030Y4931653D01*
X4725324Y4935017D01*
X4725841Y4937086D01*
X4726617Y4939415D01*
X4728428Y4944330D01*
X4729204Y4946659D01*
X4730498Y4950022D01*
X4731015Y4952091D01*
X4731791Y4954420D01*
X4733085Y4957783D01*
X4734120Y4961405D01*
X4734896Y4962181D01*
X4735672Y4966062D01*
X4737742Y4970719D01*
X4738776Y4974858D01*
X4738259Y4976410D01*
X4736189Y4976928D01*
X4729722Y4977704D01*
X4727652Y4978221D01*
X4726100Y4978739D01*
X4721960Y4979256D01*
X4719114Y4980032D01*
X4718597Y4985207D01*
X4719114Y4986759D01*
X4719632Y5004869D01*
X4719114Y5006421D01*
X4719632Y5009008D01*
X4720925Y5010302D01*
X4738518Y5010819D01*
X4740070Y5010302D01*
D02*
G37*
G36*
X4878739Y5054800D02*
X4904610Y5054283D01*
X4906680Y5054800D01*
X4908750Y5054283D01*
X4909526Y5053506D01*
X4910043Y5011078D01*
X4910819Y5010302D01*
X4925825Y5009784D01*
X4926859Y5008749D01*
X4926601Y4978480D01*
X4927118Y4976928D01*
X4926342Y4974599D01*
X4911337Y4974082D01*
X4910302Y4973047D01*
X4909784Y4927514D01*
X4909267Y4870080D01*
X4908750Y4865423D01*
X4908232Y4863354D01*
X4907715Y4860249D01*
X4906421Y4854299D01*
X4904869Y4850677D01*
X4900730Y4841881D01*
X4899177Y4839294D01*
X4894003Y4834119D01*
X4891157Y4831791D01*
X4888570Y4830238D01*
X4887018Y4828686D01*
X4884431Y4827652D01*
X4883655Y4826875D01*
X4878739Y4825064D01*
X4875117Y4823512D01*
X4869943Y4822995D01*
X4868391Y4822477D01*
X4860629Y4821960D01*
X4857007Y4821442D01*
X4856490D01*
X4847694Y4821960D01*
X4840967Y4822477D01*
X4838898Y4822995D01*
X4832171Y4823512D01*
X4828808Y4824806D01*
X4824927Y4825582D01*
X4822858Y4826099D01*
X4821046Y4828428D01*
X4821823Y4831274D01*
X4822340Y4835930D01*
X4822858Y4843174D01*
X4823375Y4846279D01*
X4823892Y4850418D01*
X4824410Y4853005D01*
X4824927Y4858180D01*
X4825445Y4862319D01*
X4826997Y4862836D01*
X4832171Y4862319D01*
X4833723Y4861801D01*
X4847952Y4862060D01*
X4850798Y4862836D01*
X4854420Y4865423D01*
X4856749Y4868269D01*
X4858818Y4873443D01*
X4859336Y4874996D01*
X4859853Y4973306D01*
X4859077Y4974082D01*
X4828549Y4974599D01*
X4827773Y4975376D01*
X4827256Y5006938D01*
X4828032Y5009267D01*
X4858560Y5009784D01*
X4859336Y5010560D01*
X4859853Y5052989D01*
X4860371Y5055059D01*
X4877187Y5055317D01*
X4878739Y5054800D01*
D02*
G37*
G36*
X5464720Y5010560D02*
X5467824Y5010043D01*
X5472740Y5009267D01*
X5475586Y5008491D01*
X5478949Y5007197D01*
X5481019Y5006680D01*
X5485676Y5004610D01*
X5487745Y5004093D01*
X5490332Y5002540D01*
X5492919Y5001505D01*
X5494472Y4999953D01*
X5495507Y4999436D01*
X5498611Y4997366D01*
X5499646Y4996849D01*
X5501716Y4994779D01*
X5502750Y4994262D01*
X5512323Y4984689D01*
X5512840Y4983654D01*
X5514393Y4982102D01*
X5515945Y4979515D01*
X5516980Y4978480D01*
X5518532Y4975893D01*
X5521119Y4971236D01*
X5522413Y4969943D01*
X5523189Y4967097D01*
X5524741Y4965545D01*
X5525258Y4963475D01*
X5526293Y4960888D01*
X5527069Y4960111D01*
X5527845Y4957266D01*
X5529656Y4952868D01*
X5530691Y4947693D01*
X5531209Y4945624D01*
X5531985Y4942778D01*
X5532502Y4941226D01*
X5533020Y4932430D01*
X5533537Y4930877D01*
X5534054Y4900867D01*
X5533537Y4898797D01*
X5533020Y4895175D01*
X5532502Y4888449D01*
X5531985Y4886379D01*
X5530950Y4883792D01*
X5530433Y4880687D01*
X5529398Y4877065D01*
X5528622Y4876289D01*
X5527845Y4872926D01*
X5526293Y4869304D01*
X5524741Y4865165D01*
X5523706Y4864130D01*
X5523189Y4862578D01*
X5517756Y4854040D01*
X5515427Y4851194D01*
X5514910Y4850159D01*
X5512840Y4848090D01*
X5512323Y4847055D01*
X5505855Y4840587D01*
X5504820Y4840070D01*
X5502750Y4838000D01*
X5501716Y4837483D01*
X5500163Y4835930D01*
X5499128Y4835413D01*
X5498094Y4834378D01*
X5494472Y4832308D01*
X5493437Y4831274D01*
X5492402Y4830756D01*
X5489815Y4829721D01*
X5487228Y4828169D01*
X5484641Y4827134D01*
X5483865Y4826358D01*
X5481019Y4825582D01*
X5476621Y4823771D01*
X5472740Y4822995D01*
X5468342Y4821701D01*
X5465237Y4821184D01*
X5462650Y4820666D01*
X5456959Y4820149D01*
X5441177Y4820408D01*
X5438073D01*
X5436520Y4819890D01*
X5435227Y4820149D01*
X5428500Y4820666D01*
X5423844Y4821184D01*
X5421774Y4821701D01*
X5416341Y4822995D01*
X5412719Y4823512D01*
X5409873Y4824806D01*
X5403923Y4826099D01*
X5402888Y4827134D01*
X5400818Y4827652D01*
X5396161Y4829721D01*
X5394609Y4830238D01*
X5392022Y4831274D01*
X5390987Y4831791D01*
X5390211Y4832567D01*
X5387365Y4833343D01*
X5386330Y4834378D01*
X5382709Y4836448D01*
X5380121Y4838000D01*
X5378569Y4839552D01*
X5377534Y4840070D01*
X5376758Y4840846D01*
X5376241Y4842398D01*
X5378310Y4847055D01*
X5383485Y4858438D01*
X5384002Y4860508D01*
X5385554Y4863095D01*
X5386072Y4864130D01*
X5387107Y4867752D01*
X5388141Y4868787D01*
X5388659Y4870856D01*
X5389435Y4871632D01*
X5390470Y4872150D01*
X5392022Y4871632D01*
X5394609Y4870080D01*
X5396161Y4869563D01*
X5397972Y4868269D01*
X5400818Y4867493D01*
X5402370Y4865941D01*
X5404440Y4865423D01*
X5409873Y4863095D01*
X5413236Y4862319D01*
X5416858Y4860767D01*
X5422550Y4860249D01*
X5424102Y4859732D01*
X5429794Y4859214D01*
X5431864Y4858697D01*
X5433416Y4858180D01*
X5445575Y4858438D01*
X5447645Y4858955D01*
X5450750Y4859473D01*
X5456182Y4860767D01*
X5458770Y4862319D01*
X5461357Y4862836D01*
X5462392Y4863871D01*
X5464979Y4865423D01*
X5467048Y4867493D01*
X5468083Y4868010D01*
X5470412Y4870339D01*
X5470929Y4871374D01*
X5472481Y4872926D01*
X5472999Y4873961D01*
X5474034Y4874996D01*
X5476621Y4879652D01*
X5478173Y4882240D01*
X5479984Y4886638D01*
X5480501Y4888707D01*
X5481278Y4893623D01*
X5481795Y4895693D01*
X5482571Y4898021D01*
X5482312Y4899315D01*
X5481536Y4900091D01*
X5372877Y4900608D01*
X5372101Y4901384D01*
X5371584Y4932430D01*
X5372101Y4933982D01*
X5373395Y4945624D01*
X5374171Y4952091D01*
X5375464Y4955455D01*
X5376758Y4961405D01*
X5378052Y4964251D01*
X5378828Y4967097D01*
X5379863Y4969684D01*
X5380898Y4970719D01*
X5381415Y4972788D01*
X5383485Y4975893D01*
X5384002Y4977963D01*
X5385554Y4979515D01*
X5386072Y4980550D01*
X5388659Y4984172D01*
X5389176Y4985207D01*
X5391505Y4987535D01*
X5393833Y4990381D01*
X5394350Y4991416D01*
X5396161Y4992192D01*
X5399783Y4995814D01*
X5402370Y4997366D01*
X5403923Y4998918D01*
X5404958Y4999436D01*
X5408062Y5001505D01*
X5409097Y5002023D01*
X5411684Y5003575D01*
X5414271Y5004610D01*
X5416341Y5005127D01*
X5417376Y5006162D01*
X5421515Y5007197D01*
X5424878Y5008491D01*
X5430570Y5009525D01*
X5435486Y5010302D01*
X5437038Y5010819D01*
X5461874Y5011336D01*
X5464720Y5010560D01*
D02*
G37*
G36*
X5043021Y5008491D02*
X5042762Y4999953D01*
X5042245Y4997366D01*
X5042503Y4982102D01*
X5041986Y4980032D01*
X5038623Y4977704D01*
X5033966Y4977187D01*
X5030344Y4976669D01*
X5025946Y4975376D01*
X5019478Y4974599D01*
X5017408Y4974082D01*
X5016115Y4972271D01*
X5015597Y4861543D01*
X5016891Y4860249D01*
X5018443Y4859732D01*
X5021030Y4858697D01*
X5030861Y4857144D01*
X5033448Y4856110D01*
X5036553Y4855592D01*
X5038623Y4855075D01*
X5039399Y4854299D01*
X5039916Y4827393D01*
X5039399Y4825323D01*
X5036812Y4824288D01*
X5005508Y4824547D01*
X5003955Y4825064D01*
X4943934D01*
X4941865Y4825582D01*
X4941347Y4826617D01*
X4941606Y4854299D01*
X4942382Y4855075D01*
X4944969Y4855592D01*
X4948332Y4856886D01*
X4950402Y4857403D01*
X4956353Y4858180D01*
X4960751Y4859473D01*
X4964114Y4860249D01*
X4964890Y4861025D01*
X4965407Y4887931D01*
X4965925Y5007973D01*
X4966701Y5008749D01*
X5042245Y5009267D01*
X5043021Y5008491D01*
D02*
G37*
G36*
X5244557Y5011854D02*
X5249731Y5011336D01*
X5252059Y5010560D01*
X5255423Y5009267D01*
X5257492Y5008749D01*
X5259045Y5007197D01*
X5261114Y5006680D01*
X5262667Y5005127D01*
X5263701Y5004610D01*
X5264736Y5003575D01*
X5266547Y5002282D01*
X5267841Y5000471D01*
X5268876Y4999953D01*
X5269652Y4999177D01*
X5270169Y4998142D01*
X5273274Y4995038D01*
X5274826Y4992451D01*
X5276119Y4991157D01*
X5277413Y4987794D01*
X5278189Y4987017D01*
X5279224Y4986500D01*
X5280259Y4985465D01*
X5280776Y4988570D01*
X5281294Y4990639D01*
X5281811Y4997883D01*
X5282329Y5006162D01*
X5282846Y5008232D01*
X5354768Y5008749D01*
X5355544Y5007973D01*
X5356061Y4990898D01*
Y4990381D01*
Y4980550D01*
X5355544Y4978480D01*
X5353992Y4977445D01*
X5348559Y4976669D01*
X5344937Y4975634D01*
X5343385Y4975117D01*
X5337693Y4974599D01*
X5335623Y4974082D01*
X5334071Y4973565D01*
X5330449Y4973047D01*
X5329673Y4972271D01*
X5329155Y4861543D01*
X5329673Y4859473D01*
X5330449Y4858697D01*
X5333553Y4858180D01*
X5335623Y4857662D01*
X5339245Y4857144D01*
X5341574Y4856368D01*
X5349076Y4855075D01*
X5351146Y4854557D01*
X5352439Y4852746D01*
X5352957Y4826875D01*
X5352439Y4824806D01*
X5351663Y4824029D01*
X5255940Y4823512D01*
X5255164Y4824288D01*
X5254647Y4851712D01*
X5255164Y4853781D01*
X5256199Y4854816D01*
X5262149Y4855592D01*
X5268099Y4857403D01*
X5275085Y4858180D01*
X5277672Y4859214D01*
X5278448Y4859990D01*
X5278965Y4947435D01*
X5278448Y4949504D01*
X5277413Y4950539D01*
X5276896Y4952609D01*
X5270945Y4958559D01*
X5267323Y4960629D01*
X5264736Y4962181D01*
X5262667Y4962699D01*
X5259045Y4964251D01*
X5236278Y4964768D01*
X5234726Y4964251D01*
X5230328Y4964510D01*
X5229551Y4966321D01*
X5228775Y4974858D01*
X5227999Y4977187D01*
X5227223Y4986759D01*
X5226706Y4990381D01*
X5225930Y4997366D01*
X5225153Y5000729D01*
X5224636Y5007456D01*
X5225412Y5009784D01*
X5227223Y5011078D01*
X5230328Y5011595D01*
X5239124Y5012113D01*
X5244557Y5011854D01*
D02*
G37*
G36*
X5550353Y5007714D02*
X5551906Y5007197D01*
X5622016Y5007456D01*
X5624086Y5006938D01*
X5624603Y4977963D01*
X5623827Y4977187D01*
X5619688Y4976152D01*
X5617101Y4975117D01*
X5610374Y4974599D01*
X5608305Y4974082D01*
X5607529Y4973306D01*
X5608046Y4970201D01*
X5609598Y4966579D01*
X5610116Y4962957D01*
X5611409Y4959594D01*
X5612185Y4956231D01*
X5613220Y4952609D01*
X5614255Y4950022D01*
X5614772Y4946400D01*
X5616842Y4941743D01*
X5617360Y4937604D01*
X5618912Y4933982D01*
X5619947Y4929325D01*
X5620464Y4927255D01*
X5621499Y4924668D01*
X5622534Y4920011D01*
X5624086Y4916389D01*
X5624603Y4913285D01*
X5625121Y4911215D01*
X5626673Y4907593D01*
X5627191Y4903971D01*
X5627708Y4901902D01*
X5629260Y4898280D01*
X5629778Y4895175D01*
X5631071Y4890777D01*
X5631847Y4886896D01*
X5632365Y4884827D01*
X5632882Y4879652D01*
X5634176Y4878359D01*
X5634952Y4879135D01*
X5636246Y4882498D01*
X5637021Y4885861D01*
X5637539Y4891036D01*
X5638833Y4894399D01*
X5639609Y4897245D01*
X5640126Y4899315D01*
X5641678Y4902936D01*
X5642196Y4907076D01*
X5643489Y4909922D01*
X5644266Y4912767D01*
X5644783Y4914837D01*
X5645559Y4917683D01*
X5646594Y4920270D01*
X5647370Y4924151D01*
X5648664Y4927514D01*
X5649440Y4930360D01*
X5651251Y4936310D01*
X5652027Y4939156D01*
X5652544Y4941226D01*
X5654097Y4944848D01*
X5654614Y4947952D01*
X5655131Y4950022D01*
X5656425Y4952868D01*
X5657201Y4956231D01*
X5657718Y4958301D01*
X5659012Y4961664D01*
X5659529Y4964251D01*
X5660306Y4967614D01*
X5661340Y4968649D01*
X5661858Y4973306D01*
X5661082Y4974082D01*
X5653838Y4975117D01*
X5651768Y4975634D01*
X5648146Y4976669D01*
X5646077Y4977187D01*
X5644783Y4978480D01*
X5645042Y4981326D01*
X5644783Y5004351D01*
X5645559Y5006680D01*
X5728347Y5007197D01*
X5729123Y5006421D01*
X5729640Y4979515D01*
X5728605Y4976928D01*
X5723172Y4975634D01*
X5721620Y4975117D01*
X5715929Y4974599D01*
X5714376Y4974082D01*
X5712048Y4971236D01*
X5711530Y4968132D01*
X5710496Y4965545D01*
X5709719Y4964768D01*
X5708943Y4961405D01*
X5706874Y4956748D01*
X5706356Y4954679D01*
Y4954161D01*
X5704287Y4949504D01*
X5703252Y4945365D01*
X5702476Y4944589D01*
X5701699Y4941743D01*
X5701182Y4939673D01*
X5699889Y4937345D01*
X5699112Y4934499D01*
X5697301Y4930101D01*
X5696525Y4927255D01*
X5693938Y4920529D01*
X5693162Y4918200D01*
X5692127Y4915613D01*
X5691351Y4912767D01*
X5690057Y4909922D01*
X5689281Y4907076D01*
X5687212Y4902419D01*
X5686177Y4898797D01*
X5684883Y4895951D01*
X5684107Y4893106D01*
X5682813Y4889742D01*
X5681779Y4887155D01*
X5681003Y4883792D01*
X5680226Y4883016D01*
X5679450Y4880170D01*
X5678157Y4876807D01*
X5674276Y4866200D01*
X5673500Y4863871D01*
X5671689Y4858955D01*
X5670654Y4856368D01*
X5669878Y4854557D01*
X5669102Y4851194D01*
X5667808Y4848866D01*
X5667032Y4846020D01*
X5664445Y4839294D01*
X5663669Y4836965D01*
X5661858Y4832050D01*
X5660047Y4827652D01*
X5659012Y4823512D01*
X5657977Y4822995D01*
X5656425Y4822477D01*
X5612703Y4822736D01*
X5610633Y4823253D01*
X5608822Y4827134D01*
X5607529Y4830497D01*
X5606494Y4834637D01*
X5605459Y4835672D01*
X5604424Y4839811D01*
X5602354Y4844985D01*
X5601837Y4847055D01*
X5600285Y4850677D01*
X5599767Y4852746D01*
X5597956Y4857144D01*
X5596921Y4861284D01*
X5595886Y4863871D01*
X5594593Y4867234D01*
X5593817Y4869563D01*
X5592006Y4874478D01*
X5590454Y4878100D01*
X5589936Y4880687D01*
X5588125Y4885085D01*
X5587349Y4887931D01*
X5585538Y4892329D01*
X5584762Y4895175D01*
X5583210Y4898797D01*
X5582692Y4901384D01*
X5581140Y4905006D01*
X5580105Y4907593D01*
X5579070Y4911733D01*
X5578294Y4912509D01*
X5577518Y4915355D01*
X5577001Y4917424D01*
X5575707Y4920270D01*
X5574931Y4923116D01*
X5572861Y4927773D01*
X5572344Y4929842D01*
X5570791Y4933464D01*
X5570274Y4935534D01*
X5569239Y4939156D01*
X5567687Y4942778D01*
X5567169Y4944848D01*
X5565617Y4948470D01*
X5565100Y4950539D01*
X5563030Y4955196D01*
X5562513Y4958301D01*
X5560443Y4962957D01*
X5559926Y4965027D01*
X5558373Y4968649D01*
X5557856Y4971236D01*
X5556821Y4973823D01*
X5554234Y4974858D01*
X5549836Y4975634D01*
X5548284Y4976152D01*
X5543627Y4976669D01*
X5540781Y4977445D01*
X5540263Y4983137D01*
X5540781Y5005386D01*
X5541557Y5007714D01*
X5548284Y5008232D01*
X5550353Y5007714D01*
D02*
G37*
G36*
X5831831Y5006680D02*
X5833125Y5005386D01*
X5832866Y5003058D01*
X5833125Y4992451D01*
Y4991933D01*
Y4979515D01*
X5832607Y4977445D01*
X5828209Y4975117D01*
X5823552Y4974599D01*
X5819930Y4974082D01*
X5816308Y4973047D01*
X5814756Y4972530D01*
X5807512Y4972012D01*
X5806477Y4970977D01*
X5805960Y4860767D01*
X5806219Y4858438D01*
X5806995Y4857662D01*
X5809065Y4857144D01*
X5811393Y4856368D01*
X5815274Y4855592D01*
X5818896Y4855075D01*
X5824587Y4853523D01*
X5828726Y4852488D01*
X5829762Y4851453D01*
X5829503Y4823253D01*
X5827950Y4822218D01*
X5734038Y4822477D01*
X5731968Y4822995D01*
X5731451Y4824547D01*
X5731710Y4848607D01*
X5731193Y4850159D01*
X5732227Y4852746D01*
X5735591Y4853523D01*
X5738436Y4854299D01*
X5744387Y4855592D01*
X5748009Y4856110D01*
X5753183Y4857662D01*
X5755511Y4858438D01*
X5756029Y5002799D01*
X5755511Y5004351D01*
X5756287Y5006162D01*
X5758098Y5006938D01*
X5831831Y5006680D01*
D02*
G37*
G36*
X5937903Y5009267D02*
X5941525Y5008749D01*
X5944888Y5007456D01*
X5948769Y5006680D01*
X5951356Y5005127D01*
X5953425Y5004610D01*
X5956012Y5003575D01*
X5957047Y5002540D01*
X5958082Y5002023D01*
X5962739Y4998918D01*
X5963774Y4998401D01*
X5964809Y4997366D01*
X5965844Y4996849D01*
X5967913Y4994779D01*
X5968948Y4994262D01*
X5969983Y4992709D01*
X5971794Y4991416D01*
X5972311Y4990381D01*
X5973087Y4989605D01*
X5974122Y4989087D01*
X5974898Y4987794D01*
X5975416Y4986759D01*
X5976968Y4985207D01*
X5977485Y4983137D01*
X5978779Y4982361D01*
X5980590Y4985724D01*
X5980073Y4988828D01*
X5980590Y4990381D01*
X5981107Y4997107D01*
X5981625Y4998660D01*
X5982142Y5005386D01*
X5983953Y5006680D01*
X5986799Y5006421D01*
X6052253Y5006680D01*
X6054323Y5006162D01*
X6055099Y5005386D01*
X6055616Y4978480D01*
X6055099Y4976410D01*
X6053805Y4975117D01*
X6050701Y4974599D01*
X6045527Y4974082D01*
X6043198Y4973306D01*
X6041128Y4972788D01*
X6036213Y4972012D01*
X6032591Y4971495D01*
X6030521Y4970977D01*
X6029745Y4970201D01*
X6029228Y4863612D01*
X6028193Y4859990D01*
X6028710Y4857921D01*
X6031556Y4856110D01*
X6034661Y4855592D01*
X6038283Y4855075D01*
X6040352Y4854557D01*
X6042681Y4853781D01*
X6047079Y4853005D01*
X6050701Y4852488D01*
X6051994Y4851194D01*
X6052512Y4824288D01*
X6051736Y4821442D01*
X6027417Y4820925D01*
X6025865Y4821442D01*
X5960669Y4821960D01*
X5958341Y4822736D01*
X5957823Y4848090D01*
X5958341Y4851712D01*
X5959117Y4852488D01*
X5962222Y4853005D01*
X5968172Y4854816D01*
X5972570Y4855592D01*
X5976192Y4856627D01*
X5978003Y4858955D01*
X5978520Y4954161D01*
X5977485Y4956748D01*
X5975416Y4958818D01*
X5974898Y4959853D01*
X5973605Y4961147D01*
X5972570Y4961664D01*
X5971018Y4963216D01*
X5967396Y4965286D01*
X5966361Y4966321D01*
X5965326Y4966838D01*
X5959893Y4969167D01*
X5955495Y4969943D01*
X5951873Y4970460D01*
X5950321Y4970977D01*
X5945405Y4970719D01*
X5942301Y4970201D01*
X5935833Y4969425D01*
X5932211Y4967356D01*
X5930141Y4966838D01*
X5929883Y4966579D01*
X5928589Y4965286D01*
X5927554Y4964768D01*
X5925226Y4962440D01*
X5924708Y4961405D01*
X5923156Y4959853D01*
X5922639Y4958818D01*
X5920828Y4955455D01*
X5920052Y4952091D01*
X5919275Y4949246D01*
X5918758Y4947176D01*
X5918241Y4944071D01*
X5917723Y4860767D01*
X5917982Y4857921D01*
X5919017Y4857403D01*
X5921604Y4856368D01*
X5924450Y4855592D01*
X5928072Y4855075D01*
X5932470Y4853781D01*
X5935833Y4853005D01*
X5938161Y4852229D01*
X5938679Y4827393D01*
X5939196Y4825840D01*
X5938679Y4823253D01*
X5937903Y4822477D01*
X5847354Y4821960D01*
X5845802Y4821442D01*
X5843991Y4822218D01*
X5843473Y4848607D01*
X5842956Y4850159D01*
X5843732Y4852488D01*
X5846836Y4853005D01*
X5848906Y4853523D01*
X5851752Y4854299D01*
X5853822Y4854816D01*
X5858220Y4855592D01*
X5861842Y4856110D01*
X5864429Y4857144D01*
X5866498Y4857662D01*
X5867533Y4858697D01*
X5868051Y4945106D01*
X5868568Y4956490D01*
X5869344Y4959853D01*
X5870379Y4963992D01*
X5870897Y4967614D01*
X5872449Y4971236D01*
X5872966Y4974341D01*
X5874518Y4977963D01*
X5876588Y4983137D01*
X5878658Y4986759D01*
X5879693Y4987794D01*
X5880210Y4988828D01*
X5881762Y4990381D01*
X5883573Y4993227D01*
X5884608Y4993744D01*
X5885384Y4994520D01*
X5885902Y4995555D01*
X5887713Y4996849D01*
X5888748Y4997366D01*
X5890300Y4998918D01*
X5891335Y4999436D01*
X5892369Y5000471D01*
X5894957Y5002023D01*
X5898061Y5004093D01*
X5900131Y5004610D01*
X5902718Y5006162D01*
X5906857Y5007197D01*
X5909444Y5008232D01*
X5911514Y5008749D01*
X5913066Y5009267D01*
X5931176Y5009784D01*
X5937903Y5009267D01*
D02*
G37*
G36*
X5152973Y5011336D02*
X5158147Y5010819D01*
X5159700Y5010302D01*
X5164356Y5009267D01*
X5167978Y5008749D01*
X5170824Y5007456D01*
X5174187Y5006680D01*
X5177550Y5004869D01*
X5180396Y5004093D01*
X5181690Y5002799D01*
X5185053Y5001505D01*
X5186605Y4999953D01*
X5188158Y4999436D01*
X5190227Y4997366D01*
X5191262Y4996849D01*
X5192815Y4995296D01*
X5193849Y4994779D01*
X5197730Y4990898D01*
X5198247Y4989863D01*
X5199024Y4989605D01*
X5199282Y4988828D01*
X5200058Y4988053D01*
X5204974Y4981585D01*
X5205491Y4979515D01*
X5207044Y4977963D01*
X5207561Y4975893D01*
X5209372Y4972530D01*
X5209890Y4969943D01*
X5210665Y4966579D01*
X5211701Y4963992D01*
X5212218Y4949504D01*
X5211183Y4945365D01*
X5210665Y4943813D01*
X5210148Y4940708D01*
X5209631Y4938639D01*
X5206526Y4931912D01*
X5204456Y4928290D01*
X5202904Y4926738D01*
X5202387Y4925703D01*
X5197471Y4920787D01*
X5196436Y4920270D01*
X5194884Y4918718D01*
X5192297Y4917166D01*
X5191262Y4916131D01*
X5187640Y4914061D01*
X5179879Y4909922D01*
X5177809Y4909404D01*
X5177033Y4908628D01*
X5173670Y4907335D01*
X5171600Y4906817D01*
X5168754Y4905524D01*
X5165391Y4904747D01*
X5162545Y4903454D01*
X5159182Y4902678D01*
X5157112Y4902160D01*
X5153490Y4901126D01*
X5151938Y4900608D01*
X5147281Y4900091D01*
X5145212Y4899573D01*
X5142366Y4898797D01*
X5136933Y4897504D01*
X5132535Y4896210D01*
X5129689Y4895434D01*
X5126067Y4893881D01*
X5120893Y4891812D01*
X5118306Y4890260D01*
X5114684Y4887672D01*
X5113649Y4887155D01*
X5113390Y4886379D01*
X5112355Y4885344D01*
X5109251Y4879652D01*
X5108733Y4871891D01*
X5110286Y4868269D01*
X5111320Y4865682D01*
X5115201Y4861801D01*
X5118823Y4859732D01*
X5119858Y4858697D01*
X5123997Y4857662D01*
X5127619Y4856110D01*
X5146764Y4855592D01*
X5150386Y4856110D01*
X5153232Y4856886D01*
X5157112Y4857662D01*
X5160734Y4858697D01*
X5161769Y4859732D01*
X5164356Y4860249D01*
X5167202Y4863095D01*
X5168237Y4867752D01*
X5169530Y4870598D01*
X5170307Y4873961D01*
X5170824Y4876030D01*
X5172118Y4879394D01*
X5172894Y4884309D01*
X5175222Y4886120D01*
X5206267Y4886638D01*
X5208337Y4886120D01*
X5209113Y4885344D01*
X5209631Y4869304D01*
X5209113Y4867752D01*
X5208596Y4863612D01*
Y4863095D01*
Y4846020D01*
X5208078Y4843950D01*
X5206267Y4842657D01*
X5205233Y4842139D01*
X5204974Y4841363D01*
X5203680Y4840587D01*
X5202645Y4840070D01*
X5201093Y4838517D01*
X5198506Y4837483D01*
X5196954Y4835930D01*
X5194367Y4834895D01*
X5193332Y4833861D01*
X5189193Y4832308D01*
X5188158Y4831274D01*
X5185571Y4830238D01*
X5182207Y4828428D01*
X5178327Y4827652D01*
X5177550Y4826875D01*
X5174963Y4825840D01*
X5171859Y4825323D01*
X5169789Y4824806D01*
X5167202Y4823771D01*
X5165132Y4823253D01*
X5160993Y4822736D01*
X5156078Y4821960D01*
X5154525Y4821442D01*
X5146764Y4820925D01*
X5145212Y4820408D01*
X5130465Y4820666D01*
X5123221Y4821184D01*
X5121152Y4821701D01*
X5114943Y4822736D01*
X5110803Y4823253D01*
X5108733Y4823771D01*
X5106146Y4824806D01*
X5100196Y4826099D01*
X5099420Y4826875D01*
X5096057Y4828169D01*
X5091400Y4830238D01*
X5088813Y4831274D01*
X5087778Y4832308D01*
X5084156Y4834378D01*
X5081569Y4835930D01*
X5080017Y4837483D01*
X5078982Y4838000D01*
X5074842Y4842139D01*
X5073807Y4842657D01*
X5073031Y4843433D01*
X5072514Y4844468D01*
X5071479Y4845503D01*
X5070962Y4846537D01*
X5070185Y4847314D01*
X5067857Y4850159D01*
X5067340Y4851194D01*
X5066305Y4852229D01*
X5065787Y4853264D01*
X5063976Y4856627D01*
X5063200Y4859473D01*
X5061131Y4864130D01*
X5060613Y4871374D01*
X5059578Y4873961D01*
X5059837Y4880946D01*
X5060354Y4883016D01*
X5061131Y4891036D01*
X5062424Y4893881D01*
X5063200Y4896727D01*
X5064235Y4899315D01*
X5068892Y4907076D01*
X5069668Y4907335D01*
X5069927Y4908111D01*
X5073807Y4911991D01*
X5074842Y4912509D01*
X5076394Y4914061D01*
X5078205Y4915355D01*
X5083121Y4918718D01*
X5095022Y4924927D01*
X5097091Y4925444D01*
X5099937Y4926738D01*
X5102783Y4927514D01*
X5106405Y4929066D01*
X5111062Y4930101D01*
X5113908Y4930877D01*
X5117271Y4932171D01*
X5123480Y4933206D01*
X5126326Y4933982D01*
X5130724Y4934758D01*
X5134346Y4935275D01*
X5137709Y4936569D01*
X5141590Y4937345D01*
X5144435Y4938121D01*
X5149351Y4939932D01*
X5155043Y4942519D01*
X5155819Y4943295D01*
X5158923Y4945365D01*
X5160993Y4948987D01*
X5161769Y4949246D01*
X5162287Y4950281D01*
X5163063Y4953126D01*
X5164098Y4955713D01*
X5163839Y4959077D01*
X5163063Y4962440D01*
X5161510Y4966062D01*
X5159700Y4968908D01*
X5158665Y4969425D01*
X5157889Y4970201D01*
X5155043Y4972530D01*
X5151421Y4974599D01*
X5146764Y4976669D01*
X5141072Y4977187D01*
X5139520Y4977704D01*
X5131500Y4977445D01*
X5125291Y4976928D01*
X5123221Y4976410D01*
X5120634Y4975376D01*
X5117788Y4974599D01*
X5112097Y4972012D01*
X5106922Y4968908D01*
X5106146Y4967614D01*
X5105111Y4962957D01*
X5104594Y4960888D01*
X5103559Y4958301D01*
X5103042Y4954161D01*
X5102524Y4952091D01*
X5101489Y4948470D01*
X5100196Y4945624D01*
X5070185Y4945106D01*
X5067857Y4945882D01*
X5067340Y4982619D01*
X5066822Y4984172D01*
X5067340Y4985724D01*
X5067857Y4990381D01*
X5068892Y4992968D01*
X5072255Y4994779D01*
X5073807Y4996331D01*
X5083638Y5001505D01*
X5089071Y5003834D01*
X5091917Y5004610D01*
X5096315Y5006421D01*
X5101231Y5007197D01*
X5104594Y5008491D01*
X5110286Y5009525D01*
X5115718Y5010302D01*
X5118306Y5011336D01*
X5150903Y5011854D01*
X5152973Y5011336D01*
D02*
G37*
G36*
X3669264Y5661478D02*
X3669782Y5219599D01*
Y5219082D01*
Y4821701D01*
X3669264Y4819631D01*
X3668488Y4818855D01*
X3655035Y4818338D01*
X3652190Y4819114D01*
X3651672Y5660960D01*
X3652448Y5661736D01*
X3666936Y5662254D01*
X3669264Y5661478D01*
D02*
G37*
G36*
X6076572Y5069805D02*
X6164534Y5069288D01*
X6166086Y5069805D01*
X6167897Y5069029D01*
X6168673Y5067218D01*
X6168414Y5043158D01*
X6168932Y5041606D01*
X6168156Y5039277D01*
X6165569Y5038760D01*
X6163499Y5038242D01*
X6160912Y5037208D01*
X6156255Y5036690D01*
X6152633Y5036173D01*
X6147459Y5034620D01*
X6143837Y5034103D01*
X6143061Y5033327D01*
X6142543Y5000729D01*
X6142026Y4999177D01*
X6141508Y4975893D01*
Y4975376D01*
X6141767Y4900091D01*
X6142802Y4893881D01*
X6143578Y4890001D01*
X6144095Y4886379D01*
X6146165Y4881722D01*
X6149270Y4874996D01*
X6150304Y4873961D01*
X6150822Y4872926D01*
X6156772Y4866976D01*
X6159360Y4865423D01*
X6161429Y4863354D01*
X6163499Y4862836D01*
X6166603Y4860767D01*
X6168673Y4860249D01*
X6173330Y4858180D01*
X6178504Y4857662D01*
X6180056Y4857144D01*
X6186783Y4856627D01*
X6188335Y4856110D01*
X6191440Y4855592D01*
X6192992Y4856110D01*
X6199201Y4856627D01*
X6200753Y4857144D01*
X6206445Y4857662D01*
X6208515Y4858180D01*
X6212136Y4859732D01*
X6216793Y4860767D01*
X6217828Y4861801D01*
X6221450Y4863871D01*
X6224037Y4865423D01*
X6226107Y4867493D01*
X6227142Y4868010D01*
X6227918Y4868787D01*
X6228435Y4869821D01*
X6229212Y4870080D01*
X6229988Y4870856D01*
X6230505Y4871891D01*
X6231540Y4872926D01*
X6233610Y4876548D01*
X6234903Y4877841D01*
X6236714Y4882757D01*
X6237490Y4883533D01*
X6238266Y4887414D01*
X6239819Y4893106D01*
X6240336Y4894658D01*
X6240853Y5029705D01*
X6241371Y5031257D01*
X6240595Y5033586D01*
X6236455Y5034620D01*
X6232833Y5035138D01*
X6230246Y5036173D01*
X6225590Y5036690D01*
X6221967Y5037208D01*
X6218346Y5038242D01*
X6214982Y5039536D01*
X6214465Y5067994D01*
X6215241Y5068770D01*
X6234903Y5069288D01*
X6313034Y5068770D01*
X6314586Y5069288D01*
X6317173Y5068770D01*
X6317950Y5066959D01*
X6317432Y5065407D01*
X6317691Y5041864D01*
X6317432Y5039536D01*
X6316656Y5038760D01*
X6315103Y5038242D01*
X6312516Y5037208D01*
X6306307Y5036690D01*
X6304238Y5036173D01*
X6301392Y5035397D01*
X6299322Y5034879D01*
X6294407Y5034103D01*
X6292078Y5033327D01*
X6291561Y5015217D01*
X6291044Y5013665D01*
X6290526Y4896210D01*
X6290009Y4887931D01*
X6289491Y4885861D01*
X6288715Y4883016D01*
X6287939Y4879652D01*
X6287422Y4876030D01*
X6285869Y4873443D01*
X6285352Y4870339D01*
X6283799Y4866717D01*
X6282247Y4862578D01*
X6281212Y4861543D01*
X6279143Y4857921D01*
X6277590Y4855334D01*
X6277073Y4854299D01*
X6276038Y4853264D01*
X6275521Y4852229D01*
X6273451Y4850159D01*
X6272934Y4849124D01*
X6271381Y4847572D01*
X6270088Y4845761D01*
X6269053Y4845244D01*
X6268277Y4844468D01*
X6267759Y4843433D01*
X6266983Y4843174D01*
X6264914Y4841104D01*
X6263879Y4840587D01*
X6263103Y4839811D01*
X6256635Y4834895D01*
X6253013Y4832826D01*
X6251719Y4831532D01*
X6248356Y4830238D01*
X6246804Y4828686D01*
X6244734Y4828169D01*
X6242147Y4827134D01*
X6241112Y4826099D01*
X6239042Y4825582D01*
X6234386Y4823512D01*
X6231281Y4822995D01*
X6228435Y4822218D01*
X6225848Y4821184D01*
X6220933Y4820408D01*
X6217311Y4819373D01*
X6215758Y4818855D01*
X6205410Y4818338D01*
X6203858Y4817820D01*
X6180315Y4818079D01*
X6172036Y4818597D01*
X6167897Y4819114D01*
X6162464Y4820408D01*
X6158842Y4820925D01*
X6156772Y4821442D01*
X6154185Y4822477D01*
X6151598Y4822995D01*
X6147459Y4824029D01*
X6146683Y4824806D01*
X6143837Y4825582D01*
X6138145Y4828169D01*
X6136593Y4828686D01*
X6135558Y4829204D01*
X6134523Y4830238D01*
X6132454Y4830756D01*
X6131419Y4831791D01*
X6127797Y4833861D01*
X6125209Y4835413D01*
X6124175Y4836448D01*
X6121588Y4838000D01*
X6119518Y4840070D01*
X6118483Y4840587D01*
X6115896Y4843174D01*
X6114861Y4843692D01*
X6112533Y4846020D01*
X6112015Y4847055D01*
X6110722Y4848348D01*
X6108393Y4851194D01*
X6103219Y4858438D01*
X6100632Y4863095D01*
X6099080Y4865682D01*
X6098562Y4867752D01*
X6097269Y4870080D01*
X6096493Y4872926D01*
X6094940Y4876548D01*
X6094164Y4880946D01*
X6093647Y4884050D01*
X6092871Y4887414D01*
X6092353Y4889483D01*
X6091836Y4891036D01*
X6092094Y5015993D01*
X6091836Y5027635D01*
X6092353Y5032809D01*
X6091060Y5034103D01*
X6088473Y5034620D01*
X6086403Y5035138D01*
X6083816Y5036173D01*
X6077607Y5036690D01*
X6075537Y5037208D01*
X6072691Y5037984D01*
X6066741Y5039277D01*
X6065965Y5040053D01*
X6065447Y5066959D01*
X6065965Y5069029D01*
X6066741Y5069805D01*
X6075020Y5070323D01*
X6076572Y5069805D01*
D02*
G37*
%LPC*%
G36*
X3240063Y5445971D02*
X3238769Y5445713D01*
X3238252Y5435364D01*
X3238769Y5433294D01*
X3240321Y5428120D01*
X3240839Y5426568D01*
X3242908Y5422946D01*
X3243685Y5422170D01*
X3244719Y5421652D01*
X3246272Y5420100D01*
X3248859Y5418548D01*
X3249894Y5417513D01*
X3252481Y5416478D01*
X3256103Y5414926D01*
X3267486Y5414409D01*
X3268003D01*
X3270591Y5414926D01*
X3275247Y5416996D01*
X3276282Y5418030D01*
X3278611Y5420876D01*
X3279904Y5422687D01*
X3280421Y5425792D01*
X3280163Y5432259D01*
X3277576Y5435881D01*
X3274471Y5438469D01*
X3271884Y5439503D01*
X3267745Y5441056D01*
X3263088Y5441573D01*
X3257914Y5442090D01*
X3252481Y5442867D01*
X3250928Y5443384D01*
X3245754Y5443901D01*
X3243685Y5444419D01*
X3240063Y5445971D01*
D02*
G37*
G36*
X5722138Y5334208D02*
X5719809Y5333432D01*
X5719292Y5328775D01*
Y5328258D01*
Y5285312D01*
X5719809Y5283242D01*
X5721361Y5281690D01*
X5721879Y5280655D01*
X5729899Y5272635D01*
X5730934Y5272117D01*
X5731193Y5271341D01*
X5733521Y5270048D01*
X5734556Y5269013D01*
X5738178Y5266426D01*
X5741800Y5264356D01*
X5744387Y5262804D01*
X5747233Y5261510D01*
X5753442Y5258406D01*
X5755511Y5257888D01*
X5758874Y5257112D01*
X5759651Y5256336D01*
X5761720Y5255819D01*
X5766636Y5255042D01*
X5768188Y5254525D01*
X5775432Y5254008D01*
X5776984Y5253490D01*
X5782159Y5252973D01*
X5783711Y5253490D01*
X5789402Y5254008D01*
X5790955Y5254525D01*
X5794059Y5255042D01*
X5797681Y5255560D01*
X5802338Y5257630D01*
X5804925Y5258664D01*
X5808547Y5260734D01*
X5809323Y5261510D01*
X5812428Y5263580D01*
X5812945Y5264615D01*
X5814497Y5266167D01*
X5816050Y5268754D01*
X5817085Y5269789D01*
X5818637Y5272376D01*
X5819930Y5275222D01*
X5821741Y5283242D01*
X5822259Y5284794D01*
X5822000Y5293332D01*
X5821224Y5296695D01*
X5820706Y5300317D01*
X5820189Y5302386D01*
X5818896Y5304715D01*
X5818119Y5307561D01*
X5816567Y5309113D01*
X5816050Y5311183D01*
X5814497Y5312735D01*
X5813980Y5313770D01*
X5812428Y5315322D01*
X5810876Y5317909D01*
X5809582Y5319203D01*
X5808547Y5319720D01*
X5806477Y5321790D01*
X5805443Y5322307D01*
X5804408Y5323342D01*
X5800786Y5325412D01*
X5799751Y5326447D01*
X5798716Y5326964D01*
X5796129Y5327999D01*
X5794318Y5329292D01*
X5790179Y5330327D01*
X5786039Y5331880D01*
X5780089Y5332656D01*
X5777502Y5333691D01*
X5722138Y5334208D01*
D02*
G37*
G36*
X2676590Y5481156D02*
X2671416Y5480639D01*
X2668828Y5479604D01*
X2664689Y5478051D01*
X2663654Y5477016D01*
X2662619Y5476499D01*
X2657704Y5471584D01*
X2655117Y5466927D01*
X2654082Y5464340D01*
X2653564Y5462270D01*
X2652530Y5459683D01*
X2652012Y5442608D01*
X2652530Y5438986D01*
X2653047Y5436916D01*
X2654082Y5434329D01*
X2654599Y5432259D01*
X2657445Y5426827D01*
X2658480Y5426309D01*
X2659256Y5425016D01*
X2659773Y5423981D01*
X2660550Y5423722D01*
X2662102Y5422170D01*
X2663137Y5421652D01*
X2664171Y5420618D01*
X2666759Y5419065D01*
X2668828Y5418548D01*
X2672450Y5416996D01*
X2682540Y5417254D01*
X2684610Y5417772D01*
X2687973Y5419065D01*
X2690043Y5419583D01*
X2691077Y5420618D01*
X2693665Y5422170D01*
X2695993Y5424498D01*
X2696510Y5425533D01*
X2697545Y5426568D01*
X2698839Y5428379D01*
X2699615Y5431225D01*
X2700391Y5432001D01*
X2701426Y5434588D01*
X2701943Y5437175D01*
X2702720Y5440538D01*
X2703237Y5442090D01*
X2703754Y5451404D01*
Y5451922D01*
X2703237Y5455544D01*
X2702461Y5458389D01*
X2701943Y5460459D01*
X2701167Y5465375D01*
X2699874Y5466668D01*
X2698580Y5470031D01*
X2697545Y5471066D01*
X2697028Y5472101D01*
X2693147Y5475982D01*
X2692112Y5476499D01*
X2690560Y5478051D01*
X2689525Y5478569D01*
X2684868Y5480639D01*
X2676590Y5481156D01*
D02*
G37*
G36*
X4965149Y5464081D02*
X4958422Y5463564D01*
X4956353Y5463046D01*
X4950661Y5461494D01*
X4948591Y5460976D01*
X4941865Y5457872D01*
X4938243Y5455802D01*
X4937208Y5454767D01*
X4936173Y5454250D01*
X4931775Y5449852D01*
X4928153Y5445195D01*
X4926601Y5442608D01*
X4925566Y5441573D01*
X4921944Y5434847D01*
X4921427Y5432777D01*
X4920133Y5429931D01*
X4919357Y5427085D01*
X4918839Y5425016D01*
X4918063Y5422170D01*
X4917287Y5418289D01*
X4916770Y5416737D01*
X4916252Y5395523D01*
X4917029Y5394746D01*
X4991537Y5394229D01*
X5024652D01*
X5025946Y5395523D01*
X5025428Y5400697D01*
X5024394Y5404319D01*
X5023359Y5411563D01*
X5022065Y5415961D01*
X5021289Y5418807D01*
X5020254Y5422946D01*
X5019478Y5423722D01*
X5018702Y5426568D01*
X5016115Y5432259D01*
X5015597Y5433812D01*
X5013010Y5438469D01*
X5011975Y5439503D01*
X5011458Y5441056D01*
X5010423Y5442090D01*
X5008353Y5445713D01*
X5007319Y5446230D01*
X5006801Y5447265D01*
X5004731Y5449335D01*
X5003438Y5451145D01*
X5002403Y5451663D01*
X5000851Y5453215D01*
X4999816Y5453733D01*
X4998781Y5454767D01*
X4995159Y5457355D01*
X4994124Y5457872D01*
X4993348Y5458648D01*
X4990502Y5459424D01*
X4989209Y5460718D01*
X4986363Y5461494D01*
X4984293Y5462011D01*
X4980671Y5463564D01*
X4965149Y5464081D01*
D02*
G37*
G36*
X2408565Y5248833D02*
X2407013Y5248316D01*
X2402873Y5247798D01*
X2398734Y5245211D01*
X2397699Y5244694D01*
X2395629Y5242624D01*
X2393301Y5239778D01*
X2392784Y5238744D01*
X2391749Y5237709D01*
X2390714Y5235122D01*
X2388644Y5230465D01*
X2388127Y5225291D01*
X2387609Y5223738D01*
X2387092Y5218047D01*
X2387609Y5214425D01*
X2388127Y5212355D01*
X2388644Y5207181D01*
X2389162Y5205111D01*
X2390455Y5202783D01*
X2391231Y5199937D01*
X2392266Y5198902D01*
X2393818Y5196315D01*
X2396664Y5193469D01*
X2397699Y5192952D01*
X2399251Y5191399D01*
X2400286Y5190882D01*
X2404943Y5188812D01*
X2418396Y5188295D01*
X2420466Y5188812D01*
X2424088Y5190365D01*
X2426675Y5191399D01*
X2428744Y5193469D01*
X2429779Y5193987D01*
X2430038Y5194763D01*
X2431331Y5196056D01*
X2431590Y5196315D01*
X2432108Y5196832D01*
X2434177Y5200454D01*
X2435212Y5201489D01*
X2435730Y5203559D01*
X2437799Y5208216D01*
X2438317Y5222186D01*
X2437799Y5227360D01*
X2436247Y5232534D01*
X2433142Y5239261D01*
X2431073Y5241331D01*
X2430555Y5242365D01*
X2429779Y5242624D01*
X2428227Y5244176D01*
X2425640Y5245729D01*
X2424088Y5247281D01*
X2422018Y5247798D01*
X2420466Y5248316D01*
X2408565Y5248833D01*
D02*
G37*
G36*
X3131404Y5249351D02*
X3128299Y5248316D01*
X3125195Y5247798D01*
X3122608Y5246764D01*
X3118986Y5244694D01*
X3118468Y5243659D01*
X3117433Y5243142D01*
X3116140Y5241848D01*
X3115622Y5240813D01*
X3114588Y5240296D01*
X3111483Y5234604D01*
X3110448Y5230982D01*
X3109413Y5228395D01*
X3108896Y5215459D01*
X3109413Y5208733D01*
X3110966Y5205111D01*
X3111483Y5203041D01*
X3112518Y5200454D01*
X3114070Y5197867D01*
X3114588Y5196832D01*
X3115364Y5196574D01*
X3115622Y5196315D01*
X3116140Y5195280D01*
X3117433Y5193987D01*
X3118468Y5193469D01*
X3119503Y5192434D01*
X3126230Y5188812D01*
X3139683Y5188295D01*
X3141752Y5188812D01*
X3148479Y5191917D01*
X3150290Y5193210D01*
X3151583Y5195021D01*
X3152618Y5195539D01*
X3154429Y5198385D01*
X3158051Y5205111D01*
X3158568Y5208216D01*
X3159086Y5209768D01*
X3159604Y5222186D01*
X3158568Y5228395D01*
X3158051Y5232017D01*
X3156499Y5234604D01*
X3155981Y5237191D01*
X3154947Y5238226D01*
X3153394Y5240813D01*
X3150548Y5243659D01*
X3146927Y5245729D01*
X3145892Y5246764D01*
X3143305Y5247798D01*
X3141752Y5248316D01*
X3132956Y5248833D01*
X3131404Y5249351D01*
D02*
G37*
G36*
X4439965Y5466151D02*
X4438413Y5465633D01*
X4434791Y5465116D01*
X4430651Y5464081D01*
X4427029Y5463564D01*
X4422631Y5461753D01*
X4419268Y5460976D01*
X4417716Y5459424D01*
X4415646Y5458907D01*
X4411507Y5456320D01*
X4410472Y5455802D01*
X4410213Y5455026D01*
X4408920Y5454250D01*
X4407885Y5453733D01*
X4402193Y5448041D01*
X4399865Y5445195D01*
X4397278Y5441573D01*
X4396760Y5440538D01*
X4395726Y5439503D01*
X4393656Y5435881D01*
X4393138Y5434847D01*
X4392103Y5432259D01*
X4390551Y5429672D01*
X4387964Y5423981D01*
X4387447Y5421911D01*
X4385894Y5418289D01*
X4385377Y5415702D01*
X4384601Y5412856D01*
X4383566Y5410269D01*
X4382272Y5402249D01*
X4380979Y5398886D01*
X4380203Y5388796D01*
X4379685Y5387244D01*
X4379168Y5378447D01*
X4378650Y5376895D01*
X4378133Y5351024D01*
X4378650Y5349472D01*
X4379168Y5341193D01*
X4379685Y5339641D01*
X4380203Y5332397D01*
X4381238Y5325153D01*
X4382014Y5322825D01*
X4382790Y5319462D01*
X4383307Y5315840D01*
X4385377Y5309113D01*
X4386153Y5306267D01*
X4387964Y5301352D01*
X4390034Y5296695D01*
X4393656Y5288934D01*
X4395726Y5285312D01*
X4397278Y5283759D01*
X4397795Y5282207D01*
X4399347Y5280655D01*
X4399865Y5279620D01*
X4405556Y5273928D01*
X4408402Y5271600D01*
X4410989Y5270048D01*
X4412024Y5269013D01*
X4417198Y5265908D01*
X4419785Y5264873D01*
X4424442Y5262804D01*
X4428064Y5262286D01*
X4430134Y5261769D01*
X4432721Y5260734D01*
X4446691Y5260217D01*
X4456522Y5260734D01*
X4458592Y5261251D01*
X4461438Y5262028D01*
X4464025Y5262545D01*
X4467388Y5263321D01*
X4468165Y5264097D01*
X4471010Y5264873D01*
X4473597Y5265908D01*
X4474374Y5266684D01*
X4477737Y5267978D01*
X4478772Y5269013D01*
X4481359Y5270565D01*
X4482911Y5272117D01*
X4483946Y5272635D01*
X4484981Y5274187D01*
X4486016Y5274704D01*
X4487568Y5276774D01*
X4488603Y5277291D01*
X4490414Y5279620D01*
X4495588Y5286864D01*
X4497140Y5289451D01*
X4498951Y5292814D01*
X4500245Y5296177D01*
X4501021Y5296954D01*
X4502314Y5300317D01*
X4503867Y5303939D01*
X4504384Y5306526D01*
X4504902Y5308596D01*
X4506454Y5312217D01*
X4506971Y5314287D01*
X4507489Y5317909D01*
X4508782Y5322307D01*
X4509300Y5324377D01*
X4509817Y5330069D01*
X4510593Y5337571D01*
X4511628Y5340158D01*
X4512145Y5360338D01*
Y5360855D01*
Y5371721D01*
X4511369Y5386985D01*
X4510334Y5393194D01*
X4509558Y5399144D01*
X4509041Y5402766D01*
X4507747Y5407164D01*
X4506971Y5412080D01*
X4505419Y5415702D01*
X4503867Y5421911D01*
X4503091Y5422687D01*
X4502314Y5425533D01*
X4499727Y5431225D01*
X4498693Y5433812D01*
X4497916Y5434588D01*
X4496623Y5437951D01*
X4495588Y5438986D01*
X4493518Y5442608D01*
X4491966Y5445195D01*
X4483428Y5453733D01*
X4482394Y5454250D01*
X4480841Y5455802D01*
X4479807Y5456320D01*
X4476702Y5458389D01*
X4475667Y5458907D01*
X4473597Y5459424D01*
X4472563Y5460459D01*
X4468423Y5462011D01*
X4465577Y5463305D01*
X4461697Y5464081D01*
X4459627Y5464598D01*
X4456005Y5465116D01*
X4454453Y5465633D01*
X4439965Y5466151D01*
D02*
G37*
G36*
X2859757Y5250385D02*
X2855618Y5249351D01*
X2854842Y5248574D01*
X2851996Y5247798D01*
X2851737Y5247540D01*
X2850961Y5246764D01*
X2849926Y5246246D01*
X2846046Y5242365D01*
X2845528Y5241331D01*
X2844752Y5240554D01*
X2842165Y5236415D01*
X2840613Y5232276D01*
X2839836Y5228913D01*
X2840613Y5228136D01*
X2887698Y5227619D01*
X2888733Y5229171D01*
X2887957Y5232017D01*
X2887439Y5234087D01*
X2884852Y5239778D01*
X2884335Y5240813D01*
X2881230Y5243918D01*
X2878384Y5246246D01*
X2871658Y5249868D01*
X2859757Y5250385D01*
D02*
G37*
G36*
X2750581D02*
X2746959Y5249868D01*
X2744372Y5248833D01*
X2743337Y5248316D01*
X2740750Y5247281D01*
X2739715Y5246764D01*
X2738680Y5245729D01*
X2737646Y5245211D01*
X2735835Y5243400D01*
X2731954Y5237967D01*
X2730660Y5234604D01*
X2728591Y5229947D01*
X2729108Y5227878D01*
X2730143Y5227360D01*
X2776970Y5227619D01*
X2778004Y5229171D01*
X2777746Y5231500D01*
X2776711Y5232534D01*
X2776194Y5235122D01*
X2775159Y5237709D01*
X2773089Y5241331D01*
X2772054Y5242365D01*
X2770761Y5244176D01*
X2768174Y5245729D01*
X2766880Y5247022D01*
X2763517Y5248316D01*
X2762482Y5249351D01*
X2758860Y5249868D01*
X2758601Y5250127D01*
X2750581Y5250385D01*
D02*
G37*
G36*
X3348204Y4981843D02*
X3347428Y4981067D01*
X3347686Y4978221D01*
X3347428Y4971754D01*
X3347945Y4969684D01*
X3350015Y4962957D01*
X3352602Y4959336D01*
X3353119Y4958301D01*
X3354413Y4957525D01*
X3355448Y4957007D01*
X3356483Y4955972D01*
X3359329Y4954161D01*
X3359587Y4953902D01*
X3362692Y4952350D01*
X3364761Y4951833D01*
X3366314Y4951315D01*
X3370453Y4950798D01*
X3372005Y4950281D01*
X3377179Y4950798D01*
X3379508Y4951574D01*
X3383389Y4952350D01*
X3385458Y4954420D01*
X3386493Y4954938D01*
X3386752Y4955713D01*
X3387787Y4956748D01*
X3389080Y4958559D01*
X3389856Y4964510D01*
X3389339Y4968132D01*
X3388822Y4969684D01*
X3388304Y4970719D01*
X3386752Y4972271D01*
X3386235Y4973306D01*
X3384941Y4974082D01*
X3380543Y4976410D01*
X3376662Y4977187D01*
X3375110Y4977704D01*
X3368901Y4978221D01*
X3366572Y4978997D01*
X3357000Y4979774D01*
X3354930Y4980291D01*
X3352343Y4981326D01*
X3348204Y4981843D01*
D02*
G37*
G36*
X2591732Y5017028D02*
X2588110Y5016511D01*
X2582419Y5013923D01*
X2581384Y5013406D01*
X2580349Y5012371D01*
X2579314Y5011854D01*
X2578021Y5010560D01*
X2577503Y5009525D01*
X2576469Y5008491D01*
X2573881Y5003834D01*
X2573105Y5003058D01*
X2571812Y4997625D01*
X2570777Y4995038D01*
X2570259Y4981585D01*
X2571035Y4978739D01*
X2571812Y4975376D01*
X2572329Y4973306D01*
X2575434Y4966579D01*
X2575951Y4965545D01*
X2576986Y4964510D01*
X2577245Y4964251D01*
X2577762Y4963216D01*
X2578797Y4962699D01*
X2580349Y4961147D01*
X2585006Y4958559D01*
X2585782Y4957783D01*
X2589663Y4957007D01*
X2591215Y4956490D01*
X2596907Y4955972D01*
X2598459Y4956490D01*
X2603633Y4957007D01*
X2610360Y4960111D01*
X2614240Y4963992D01*
X2614758Y4965027D01*
X2615793Y4966062D01*
X2617345Y4968649D01*
X2619156Y4972012D01*
X2619673Y4974599D01*
X2620191Y4976669D01*
X2620967Y4979515D01*
X2621484Y4981067D01*
X2621225Y4992192D01*
X2620708Y4994779D01*
X2620191Y4996849D01*
X2619415Y5000212D01*
X2617862Y5003834D01*
X2616827Y5006421D01*
X2613205Y5010043D01*
X2612688Y5011078D01*
X2610360Y5012889D01*
X2605703Y5015476D01*
X2604668Y5016511D01*
X2591732Y5017028D01*
D02*
G37*
G36*
X2847856Y5019098D02*
X2842682Y5017545D01*
X2840613Y5017028D01*
X2838026Y5015993D01*
X2835438Y5014441D01*
X2831558Y5010560D01*
X2830006Y5007973D01*
X2829229Y5007197D01*
X2826125Y5000988D01*
X2825349Y4996073D01*
X2826125Y4995296D01*
X2872175Y4994779D01*
X2874245Y4995296D01*
X2874504Y4996590D01*
X2873469Y5000212D01*
X2872952Y5002282D01*
X2871399Y5005903D01*
X2870882Y5006938D01*
X2870623Y5007197D01*
X2870364Y5008491D01*
X2868812Y5010043D01*
X2867519Y5011854D01*
X2866484Y5012371D01*
X2865449Y5013406D01*
X2862862Y5014958D01*
X2861568Y5016252D01*
X2858722Y5017028D01*
X2855100Y5018580D01*
X2847856Y5019098D01*
D02*
G37*
G36*
X2976177Y5051178D02*
X2974625Y5050660D01*
X2970227Y5049884D01*
X2966346Y5049108D01*
X2962724Y5047556D01*
X2959361Y5046262D01*
X2955222Y5043675D01*
X2954704Y5042640D01*
X2952376Y5041347D01*
X2951082Y5040053D01*
X2950565Y5039019D01*
X2949013Y5037466D01*
X2945132Y5032033D01*
X2944356Y5029188D01*
X2943321Y5028153D01*
X2942803Y5027118D01*
X2942286Y5025048D01*
X2940993Y5020650D01*
X2939958Y5016511D01*
X2939440Y5010302D01*
X2939699Y4999177D01*
X2940216Y4990898D01*
X2941510Y4987535D01*
X2942286Y4983654D01*
X2945908Y4975893D01*
X2947460Y4973306D01*
X2949013Y4971754D01*
X2949530Y4970719D01*
X2950306Y4969943D01*
X2951341Y4969425D01*
X2952376Y4967873D01*
X2953411Y4967356D01*
X2954963Y4965803D01*
X2957550Y4964251D01*
X2959102Y4962699D01*
X2961172Y4962181D01*
X2965829Y4960111D01*
X2969451Y4959594D01*
X2971003Y4959077D01*
X2975660Y4958559D01*
X2977212Y4958042D01*
X3004635Y4957525D01*
X3006964Y4958301D01*
X3007481Y5023496D01*
Y5024013D01*
Y5048332D01*
X3006705Y5050660D01*
X2976177Y5051178D01*
D02*
G37*
G36*
X3142270Y5017028D02*
X3138130Y5015993D01*
X3137354Y5015217D01*
X3133991Y5013923D01*
X3132956Y5012889D01*
X3131145Y5011595D01*
X3127523Y5006938D01*
X3124419Y5001247D01*
X3123384Y4996590D01*
X3122866Y4995038D01*
X3122349Y4978997D01*
X3123384Y4975376D01*
X3124419Y4969167D01*
X3125195Y4968390D01*
X3126488Y4965027D01*
X3127523Y4963992D01*
X3129076Y4961405D01*
X3130369Y4960111D01*
X3131404Y4959594D01*
X3133474Y4957525D01*
X3134508Y4957007D01*
X3137613Y4954938D01*
X3140718Y4954420D01*
X3142270Y4953902D01*
X3147961Y4953385D01*
X3153136Y4953902D01*
X3156758Y4954938D01*
X3159086Y4955713D01*
X3159345Y4955972D01*
X3162449Y4957525D01*
X3164002Y4959077D01*
X3165036Y4959594D01*
X3166847Y4961923D01*
X3168400Y4964510D01*
X3170469Y4967614D01*
X3170987Y4970201D01*
X3172280Y4973565D01*
X3172798Y4976669D01*
X3173574Y4982619D01*
X3173056Y4992451D01*
X3171763Y4996849D01*
X3170987Y5000212D01*
X3168400Y5005903D01*
X3165813Y5009525D01*
X3165295Y5010560D01*
X3161932Y5012889D01*
X3158310Y5014958D01*
X3156758Y5016511D01*
X3142270Y5017028D01*
D02*
G37*
G36*
X5453595Y4972530D02*
X5443247Y4972012D01*
X5439884Y4970719D01*
X5435744Y4969167D01*
X5431605Y4966579D01*
X5431087Y4965545D01*
X5430311Y4964768D01*
X5427983Y4961923D01*
X5425913Y4958301D01*
X5424102Y4954938D01*
X5423585Y4952868D01*
X5423067Y4950281D01*
X5422291Y4947435D01*
X5421774Y4945365D01*
X5421256Y4943813D01*
X5421515Y4940450D01*
X5421256Y4936052D01*
X5422550Y4934758D01*
X5477397Y4934241D01*
X5481019Y4934758D01*
X5481795Y4935534D01*
X5481536Y4938897D01*
X5480243Y4946917D01*
X5479984Y4947176D01*
X5479725Y4947952D01*
X5478690Y4948987D01*
X5478173Y4952091D01*
X5477138Y4954679D01*
X5476362Y4955455D01*
X5475068Y4958818D01*
X5474292Y4959077D01*
X5473516Y4960370D01*
X5472999Y4961405D01*
X5471447Y4962957D01*
X5470929Y4963992D01*
X5470153Y4964768D01*
X5465496Y4968390D01*
X5459804Y4971495D01*
X5455148Y4972012D01*
X5453595Y4972530D01*
D02*
G37*
%LPD*%
D14*
X2367684Y8855400D02*
X2267716D01*
Y8922045D01*
X2367684Y9022013D02*
Y8955368D01*
X2267716D01*
Y9022013D01*
X2317700Y8955368D02*
Y8988690D01*
X2367684Y9055336D02*
X2267716D01*
Y9105320D01*
X2284377Y9121981D01*
X2351022D01*
X2367684Y9105320D01*
Y9055336D01*
X2317700Y9155304D02*
Y9221949D01*
X2267716Y9255271D02*
X2317700Y9305255D01*
X2367684Y9255271D01*
%TF.MD5,56af277642ddfdac79deacb59b1863eb*%
M02*
