%TF.GenerationSoftware,Altium Limited,Altium Designer,22.11.1 (43)*%
G04 Layer_Color=0*
%FSLAX45Y45*%
%MOMM*%
%TF.SameCoordinates,CC3570FD-A2D7-4FBA-AFAC-830B96578B4B*%
%TF.FilePolarity,Positive*%
%TF.FileFunction,Plated,1,2,PTH,Drill*%
%TF.Part,Single*%
G01*
G75*
%TA.AperFunction,ComponentDrill*%
%ADD40C,1.80000*%
%ADD41C,1.32000*%
%ADD42C,2.38000*%
%ADD43C,3.55000*%
%ADD44C,3.18000*%
%TA.AperFunction,ViaDrill,NotFilled*%
%ADD45C,0.25400*%
%ADD46C,0.35600*%
D40*
X7298500Y2450000D02*
D03*
X6878500D02*
D03*
X3780000D02*
D03*
X3360000D02*
D03*
X2710000D02*
D03*
X2290000D02*
D03*
D41*
X8405250Y6979000D02*
D03*
Y5066000D02*
D03*
X1183250Y6979000D02*
D03*
Y5066000D02*
D03*
D42*
X8405250Y4229000D02*
D03*
D43*
X7554250Y7771000D02*
D03*
Y6024000D02*
D03*
D44*
X2034250Y4271000D02*
D03*
Y6024000D02*
D03*
D45*
X7016700Y9410000D02*
D03*
X6254700D02*
D03*
X6000700D02*
D03*
X5873700D02*
D03*
X5746700D02*
D03*
X5238700D02*
D03*
X4984700D02*
D03*
X4730700D02*
D03*
X4476700D02*
D03*
X4349700D02*
D03*
X3460700D02*
D03*
X3206700D02*
D03*
X2952700D02*
D03*
X2698700D02*
D03*
X2317700D02*
D03*
D46*
X2444700Y9460000D02*
D03*
X2571700D02*
D03*
X7270700D02*
D03*
X7143700D02*
D03*
%TF.MD5,ddd855d38ac84397b87c4362e5987f54*%
M02*
