%TF.GenerationSoftware,Altium Limited,Altium Designer,22.11.1 (43)*%
G04 Layer_Color=2752767*
%FSLAX45Y45*%
%MOMM*%
%TF.SameCoordinates,CC3570FD-A2D7-4FBA-AFAC-830B96578B4B*%
%TF.FilePolarity,Positive*%
%TF.FileFunction,Drawing*%
%TF.Part,Single*%
G01*
G75*
%TA.AperFunction,NonConductor*%
%ADD48C,0.12700*%
%ADD49C,0.16933*%
%ADD50C,0.10160*%
D48*
X7037700Y1669200D02*
Y1770800D01*
X7139300D01*
Y1669200D01*
X7037700D01*
X7298500Y2399200D02*
X7323900Y2424600D01*
X7349300D01*
X7323900Y2450000D01*
X7349300Y2475400D01*
X7323900D01*
X7298500Y2500800D01*
X7273100Y2475400D01*
X7247700D01*
X7273100Y2450000D01*
X7247700Y2424600D01*
X7273100D01*
X7298500Y2399200D01*
X6878500D02*
X6903900Y2424600D01*
X6929300D01*
X6903900Y2450000D01*
X6929300Y2475400D01*
X6903900D01*
X6878500Y2500800D01*
X6853100Y2475400D01*
X6827700D01*
X6853100Y2450000D01*
X6827700Y2424600D01*
X6853100D01*
X6878500Y2399200D01*
X3519200Y1669200D02*
Y1770800D01*
X3620800D01*
Y1669200D01*
X3519200D01*
X3780000Y2399200D02*
X3805400Y2424600D01*
X3830800D01*
X3805400Y2450000D01*
X3830800Y2475400D01*
X3805400D01*
X3780000Y2500800D01*
X3754600Y2475400D01*
X3729200D01*
X3754600Y2450000D01*
X3729200Y2424600D01*
X3754600D01*
X3780000Y2399200D01*
X3360000D02*
X3385400Y2424600D01*
X3410800D01*
X3385400Y2450000D01*
X3410800Y2475400D01*
X3385400D01*
X3360000Y2500800D01*
X3334600Y2475400D01*
X3309200D01*
X3334600Y2450000D01*
X3309200Y2424600D01*
X3334600D01*
X3360000Y2399200D01*
X2449200Y1669200D02*
Y1770800D01*
X2550800D01*
Y1669200D01*
X2449200D01*
X2710000Y2399200D02*
X2735400Y2424600D01*
X2760800D01*
X2735400Y2450000D01*
X2760800Y2475400D01*
X2735400D01*
X2710000Y2500800D01*
X2684600Y2475400D01*
X2659200D01*
X2684600Y2450000D01*
X2659200Y2424600D01*
X2684600D01*
X2710000Y2399200D01*
X2290000D02*
X2315400Y2424600D01*
X2340800D01*
X2315400Y2450000D01*
X2340800Y2475400D01*
X2315400D01*
X2290000Y2500800D01*
X2264600Y2475400D01*
X2239200D01*
X2264600Y2450000D01*
X2239200Y2424600D01*
X2264600D01*
X2290000Y2399200D01*
X8354450Y6928200D02*
Y7029800D01*
X8456050D01*
Y6928200D01*
X8354450D01*
X8374770Y6948520D02*
Y7009480D01*
X8435730D01*
Y6948520D01*
X8374770D01*
X8354450Y5015200D02*
Y5116800D01*
X8456050D01*
Y5015200D01*
X8354450D01*
X8374770Y5035520D02*
Y5096480D01*
X8435730D01*
Y5035520D01*
X8374770D01*
X1132450Y6928200D02*
Y7029800D01*
X1234050D01*
Y6928200D01*
X1132450D01*
X1152770Y6948520D02*
Y7009480D01*
X1213730D01*
Y6948520D01*
X1152770D01*
X1132450Y5015200D02*
Y5116800D01*
X1234050D01*
Y5015200D01*
X1132450D01*
X1152770Y5035520D02*
Y5096480D01*
X1213730D01*
Y5035520D01*
X1152770D01*
X7554250Y7720200D02*
X7503450Y7821800D01*
X7605050D01*
X7554250Y7720200D01*
Y7740520D02*
X7523770Y7801480D01*
X7584730D01*
X7554250Y7740520D01*
Y5973200D02*
X7503450Y6074800D01*
X7605050D01*
X7554250Y5973200D01*
Y5993520D02*
X7523770Y6054480D01*
X7584730D01*
X7554250Y5993520D01*
X2034250Y4220200D02*
X2059650Y4245600D01*
X2085050D01*
X2059650Y4271000D01*
X2085050Y4296400D01*
X2059650D01*
X2034250Y4321800D01*
X2008850Y4296400D01*
X1983450D01*
X2008850Y4271000D01*
X1983450Y4245600D01*
X2008850D01*
X2034250Y4220200D01*
Y4240520D02*
X2049490Y4255760D01*
X2064730D01*
X2049490Y4271000D01*
X2064730Y4286240D01*
X2049490D01*
X2034250Y4301480D01*
X2019010Y4286240D01*
X2003770D01*
X2019010Y4271000D01*
X2003770Y4255760D01*
X2019010D01*
X2034250Y4240520D01*
Y5973200D02*
X2059650Y5998600D01*
X2085050D01*
X2059650Y6024000D01*
X2085050Y6049400D01*
X2059650D01*
X2034250Y6074800D01*
X2008850Y6049400D01*
X1983450D01*
X2008850Y6024000D01*
X1983450Y5998600D01*
X2008850D01*
X2034250Y5973200D01*
Y5993520D02*
X2049490Y6008760D01*
X2064730D01*
X2049490Y6024000D01*
X2064730Y6039240D01*
X2049490D01*
X2034250Y6054480D01*
X2019010Y6039240D01*
X2003770D01*
X2019010Y6024000D01*
X2003770Y6008760D01*
X2019010D01*
X2034250Y5993520D01*
X7016700Y9359200D02*
X6965900Y9460800D01*
X7067500D01*
X7016700Y9359200D01*
X6254700D02*
X6203900Y9460800D01*
X6305500D01*
X6254700Y9359200D01*
X6000700D02*
X5949900Y9460800D01*
X6051500D01*
X6000700Y9359200D01*
X5873700D02*
X5822900Y9460800D01*
X5924500D01*
X5873700Y9359200D01*
X5746700D02*
X5695900Y9460800D01*
X5797500D01*
X5746700Y9359200D01*
X5238700D02*
X5187900Y9460800D01*
X5289500D01*
X5238700Y9359200D01*
X4984700D02*
X4933900Y9460800D01*
X5035500D01*
X4984700Y9359200D01*
X4730700D02*
X4679900Y9460800D01*
X4781500D01*
X4730700Y9359200D01*
X4476700D02*
X4425900Y9460800D01*
X4527500D01*
X4476700Y9359200D01*
X4349700D02*
X4298900Y9460800D01*
X4400500D01*
X4349700Y9359200D01*
X3460700D02*
X3409900Y9460800D01*
X3511500D01*
X3460700Y9359200D01*
X3206700D02*
X3155900Y9460800D01*
X3257500D01*
X3206700Y9359200D01*
X2952700D02*
X2901900Y9460800D01*
X3003500D01*
X2952700Y9359200D01*
X2698700D02*
X2647900Y9460800D01*
X2749500D01*
X2698700Y9359200D01*
X2317700D02*
X2266900Y9460800D01*
X2368500D01*
X2317700Y9359200D01*
D49*
X8456050Y4229000D02*
G03*
X8456050Y4229000I-50800J0D01*
G01*
X2495500Y9460000D02*
G03*
X2495500Y9460000I-50800J0D01*
G01*
X2622500D02*
G03*
X2622500Y9460000I-50800J0D01*
G01*
X7321500D02*
G03*
X7321500Y9460000I-50800J0D01*
G01*
X7194500D02*
G03*
X7194500Y9460000I-50800J0D01*
G01*
D50*
X8435730Y4229000D02*
G03*
X8435730Y4229000I-30480J0D01*
G01*
%TF.MD5,aec8fcb878a5309c463d6d30451411db*%
M02*
