%TF.GenerationSoftware,Altium Limited,Altium Designer,22.11.1 (43)*%
G04 Layer_Color=32896*
%FSLAX45Y45*%
%MOMM*%
%TF.SameCoordinates,CC3570FD-A2D7-4FBA-AFAC-830B96578B4B*%
%TF.FilePolarity,Positive*%
%TF.FileFunction,Other,Top_Assembly*%
%TF.Part,Single*%
G01*
G75*
%TA.AperFunction,NonConductor*%
%ADD25C,0.20000*%
G36*
X7388427Y1861531D02*
X7389074D01*
X7390831Y1861347D01*
X7392773Y1861069D01*
X7394807Y1860607D01*
X7397026Y1860052D01*
X7399060Y1859313D01*
X7399152D01*
X7399337Y1859220D01*
X7399614Y1859035D01*
X7399984Y1858850D01*
X7400909Y1858388D01*
X7402111Y1857556D01*
X7403498Y1856631D01*
X7404884Y1855429D01*
X7406179Y1854043D01*
X7407381Y1852471D01*
Y1852378D01*
X7407473Y1852286D01*
X7407658Y1852008D01*
X7407843Y1851731D01*
X7408305Y1850807D01*
X7408860Y1849605D01*
X7409507Y1848125D01*
X7409969Y1846369D01*
X7410432Y1844520D01*
X7410617Y1842486D01*
X7402480Y1841838D01*
Y1841931D01*
Y1842116D01*
X7402388Y1842393D01*
X7402296Y1842855D01*
X7402018Y1843872D01*
X7401648Y1845259D01*
X7401094Y1846738D01*
X7400262Y1848218D01*
X7399245Y1849605D01*
X7397950Y1850899D01*
X7397765Y1850991D01*
X7397303Y1851361D01*
X7396378Y1851916D01*
X7395176Y1852471D01*
X7393605Y1853026D01*
X7391756Y1853580D01*
X7389444Y1853950D01*
X7386855Y1854043D01*
X7385561D01*
X7385006Y1853950D01*
X7384267Y1853858D01*
X7382602Y1853673D01*
X7380753Y1853303D01*
X7378904Y1852841D01*
X7377148Y1852101D01*
X7376408Y1851639D01*
X7375668Y1851176D01*
X7375483Y1851084D01*
X7375114Y1850714D01*
X7374559Y1850067D01*
X7374004Y1849327D01*
X7373357Y1848310D01*
X7372802Y1847201D01*
X7372432Y1845906D01*
X7372247Y1844427D01*
Y1844242D01*
Y1843872D01*
X7372340Y1843225D01*
X7372525Y1842486D01*
X7372802Y1841561D01*
X7373264Y1840636D01*
X7373819Y1839712D01*
X7374651Y1838787D01*
X7374744Y1838695D01*
X7375206Y1838417D01*
X7375576Y1838140D01*
X7375946Y1837955D01*
X7376500Y1837678D01*
X7377148Y1837308D01*
X7377980Y1837031D01*
X7378904Y1836661D01*
X7379921Y1836291D01*
X7381123Y1835829D01*
X7382418Y1835459D01*
X7383897Y1834997D01*
X7385561Y1834627D01*
X7387410Y1834164D01*
X7387503D01*
X7387872Y1834072D01*
X7388427Y1833980D01*
X7389074Y1833795D01*
X7389906Y1833610D01*
X7390923Y1833332D01*
X7391941Y1833055D01*
X7393050Y1832778D01*
X7395454Y1832130D01*
X7397765Y1831483D01*
X7398875Y1831113D01*
X7399892Y1830744D01*
X7400816Y1830466D01*
X7401556Y1830096D01*
X7401648D01*
X7401833Y1830004D01*
X7402111Y1829819D01*
X7402480Y1829634D01*
X7403498Y1829079D01*
X7404699Y1828340D01*
X7406086Y1827323D01*
X7407473Y1826213D01*
X7408768Y1824919D01*
X7409877Y1823532D01*
X7409969Y1823347D01*
X7410339Y1822885D01*
X7410709Y1822053D01*
X7411264Y1820943D01*
X7411726Y1819649D01*
X7412188Y1818077D01*
X7412466Y1816320D01*
X7412558Y1814471D01*
Y1814379D01*
Y1814286D01*
Y1814009D01*
Y1813639D01*
X7412373Y1812622D01*
X7412188Y1811328D01*
X7411819Y1809849D01*
X7411356Y1808277D01*
X7410617Y1806613D01*
X7409600Y1804856D01*
Y1804763D01*
X7409507Y1804671D01*
X7409045Y1804116D01*
X7408398Y1803284D01*
X7407473Y1802360D01*
X7406271Y1801250D01*
X7404792Y1800048D01*
X7403128Y1798939D01*
X7401186Y1797922D01*
X7401094D01*
X7400909Y1797829D01*
X7400631Y1797737D01*
X7400262Y1797552D01*
X7399707Y1797367D01*
X7399060Y1797090D01*
X7397580Y1796720D01*
X7395824Y1796258D01*
X7393697Y1795795D01*
X7391386Y1795518D01*
X7388889Y1795425D01*
X7387410D01*
X7386671Y1795518D01*
X7385838D01*
X7384914Y1795610D01*
X7383804Y1795703D01*
X7381493Y1796073D01*
X7379089Y1796442D01*
X7376685Y1797090D01*
X7374374Y1797922D01*
X7374281D01*
X7374097Y1798014D01*
X7373819Y1798199D01*
X7373449Y1798384D01*
X7372340Y1798939D01*
X7371045Y1799771D01*
X7369566Y1800880D01*
X7367994Y1802175D01*
X7366515Y1803746D01*
X7365128Y1805503D01*
Y1805596D01*
X7364943Y1805780D01*
X7364851Y1806058D01*
X7364574Y1806428D01*
X7364389Y1806890D01*
X7364111Y1807445D01*
X7363464Y1808832D01*
X7362817Y1810588D01*
X7362262Y1812530D01*
X7361892Y1814749D01*
X7361707Y1817060D01*
X7369659Y1817800D01*
Y1817707D01*
Y1817615D01*
X7369751Y1817337D01*
Y1816968D01*
X7369936Y1816136D01*
X7370213Y1814934D01*
X7370583Y1813732D01*
X7370953Y1812345D01*
X7371600Y1811050D01*
X7372247Y1809849D01*
X7372340Y1809756D01*
X7372617Y1809386D01*
X7373079Y1808739D01*
X7373819Y1808092D01*
X7374744Y1807260D01*
X7375761Y1806428D01*
X7377148Y1805596D01*
X7378627Y1804856D01*
X7378719D01*
X7378812Y1804763D01*
X7379089Y1804671D01*
X7379366Y1804579D01*
X7380291Y1804301D01*
X7381493Y1803931D01*
X7382972Y1803562D01*
X7384636Y1803284D01*
X7386486Y1803099D01*
X7388520Y1803007D01*
X7389352D01*
X7390276Y1803099D01*
X7391386Y1803192D01*
X7392680Y1803377D01*
X7394159Y1803562D01*
X7395639Y1803931D01*
X7397026Y1804394D01*
X7397211Y1804486D01*
X7397673Y1804671D01*
X7398320Y1805041D01*
X7399152Y1805411D01*
X7399984Y1806058D01*
X7400909Y1806705D01*
X7401833Y1807445D01*
X7402573Y1808369D01*
X7402665Y1808462D01*
X7402850Y1808832D01*
X7403128Y1809294D01*
X7403498Y1810033D01*
X7403867Y1810773D01*
X7404145Y1811698D01*
X7404330Y1812715D01*
X7404422Y1813824D01*
Y1813917D01*
Y1814379D01*
X7404330Y1814934D01*
X7404237Y1815673D01*
X7403960Y1816413D01*
X7403682Y1817337D01*
X7403220Y1818262D01*
X7402573Y1819094D01*
X7402480Y1819187D01*
X7402203Y1819464D01*
X7401833Y1819834D01*
X7401186Y1820389D01*
X7400446Y1820943D01*
X7399429Y1821590D01*
X7398228Y1822238D01*
X7396841Y1822792D01*
X7396748Y1822885D01*
X7396286Y1822977D01*
X7395546Y1823255D01*
X7395084Y1823347D01*
X7394437Y1823532D01*
X7393790Y1823809D01*
X7392958Y1823994D01*
X7392033Y1824272D01*
X7390923Y1824549D01*
X7389814Y1824826D01*
X7388520Y1825196D01*
X7387040Y1825566D01*
X7385469Y1825936D01*
X7385376D01*
X7385099Y1826028D01*
X7384636Y1826121D01*
X7384082Y1826306D01*
X7383342Y1826491D01*
X7382510Y1826676D01*
X7380661Y1827230D01*
X7378627Y1827877D01*
X7376500Y1828525D01*
X7374651Y1829172D01*
X7373819Y1829542D01*
X7373079Y1829912D01*
X7372987D01*
X7372895Y1830004D01*
X7372340Y1830374D01*
X7371508Y1830836D01*
X7370583Y1831576D01*
X7369474Y1832408D01*
X7368364Y1833425D01*
X7367255Y1834627D01*
X7366330Y1835921D01*
X7366238Y1836106D01*
X7365960Y1836568D01*
X7365591Y1837308D01*
X7365221Y1838233D01*
X7364851Y1839434D01*
X7364481Y1840821D01*
X7364204Y1842301D01*
X7364111Y1843872D01*
Y1843965D01*
Y1844057D01*
Y1844335D01*
Y1844704D01*
X7364296Y1845629D01*
X7364481Y1846831D01*
X7364758Y1848218D01*
X7365221Y1849790D01*
X7365868Y1851361D01*
X7366792Y1852933D01*
Y1853026D01*
X7366885Y1853118D01*
X7367347Y1853673D01*
X7367994Y1854412D01*
X7368827Y1855337D01*
X7369936Y1856354D01*
X7371323Y1857463D01*
X7372987Y1858480D01*
X7374836Y1859405D01*
X7374929D01*
X7375114Y1859497D01*
X7375391Y1859590D01*
X7375761Y1859775D01*
X7376223Y1859960D01*
X7376870Y1860145D01*
X7378257Y1860514D01*
X7380014Y1860884D01*
X7382048Y1861254D01*
X7384174Y1861531D01*
X7386578Y1861624D01*
X7387780D01*
X7388427Y1861531D01*
D02*
G37*
G36*
X7115220D02*
X7115867D01*
X7117624Y1861347D01*
X7119565Y1861069D01*
X7121599Y1860607D01*
X7123818Y1860052D01*
X7125852Y1859313D01*
X7125945D01*
X7126130Y1859220D01*
X7126407Y1859035D01*
X7126777Y1858850D01*
X7127701Y1858388D01*
X7128903Y1857556D01*
X7130290Y1856631D01*
X7131677Y1855429D01*
X7132971Y1854043D01*
X7134173Y1852471D01*
Y1852378D01*
X7134266Y1852286D01*
X7134451Y1852008D01*
X7134635Y1851731D01*
X7135098Y1850807D01*
X7135652Y1849605D01*
X7136300Y1848125D01*
X7136762Y1846369D01*
X7137224Y1844520D01*
X7137409Y1842486D01*
X7129273Y1841838D01*
Y1841931D01*
Y1842116D01*
X7129181Y1842393D01*
X7129088Y1842855D01*
X7128811Y1843872D01*
X7128441Y1845259D01*
X7127886Y1846738D01*
X7127054Y1848218D01*
X7126037Y1849605D01*
X7124743Y1850899D01*
X7124558Y1850991D01*
X7124095Y1851361D01*
X7123171Y1851916D01*
X7121969Y1852471D01*
X7120397Y1853026D01*
X7118548Y1853580D01*
X7116237Y1853950D01*
X7113648Y1854043D01*
X7112354D01*
X7111799Y1853950D01*
X7111059Y1853858D01*
X7109395Y1853673D01*
X7107546Y1853303D01*
X7105697Y1852841D01*
X7103940Y1852101D01*
X7103200Y1851639D01*
X7102461Y1851176D01*
X7102276Y1851084D01*
X7101906Y1850714D01*
X7101351Y1850067D01*
X7100797Y1849327D01*
X7100149Y1848310D01*
X7099595Y1847201D01*
X7099225Y1845906D01*
X7099040Y1844427D01*
Y1844242D01*
Y1843872D01*
X7099132Y1843225D01*
X7099317Y1842486D01*
X7099595Y1841561D01*
X7100057Y1840636D01*
X7100612Y1839712D01*
X7101444Y1838787D01*
X7101536Y1838695D01*
X7101998Y1838417D01*
X7102368Y1838140D01*
X7102738Y1837955D01*
X7103293Y1837678D01*
X7103940Y1837308D01*
X7104772Y1837031D01*
X7105697Y1836661D01*
X7106714Y1836291D01*
X7107916Y1835829D01*
X7109210Y1835459D01*
X7110689Y1834997D01*
X7112354Y1834627D01*
X7114203Y1834164D01*
X7114295D01*
X7114665Y1834072D01*
X7115220Y1833980D01*
X7115867Y1833795D01*
X7116699Y1833610D01*
X7117716Y1833332D01*
X7118733Y1833055D01*
X7119843Y1832778D01*
X7122246Y1832130D01*
X7124558Y1831483D01*
X7125667Y1831113D01*
X7126684Y1830744D01*
X7127609Y1830466D01*
X7128348Y1830096D01*
X7128441D01*
X7128626Y1830004D01*
X7128903Y1829819D01*
X7129273Y1829634D01*
X7130290Y1829079D01*
X7131492Y1828340D01*
X7132879Y1827323D01*
X7134266Y1826213D01*
X7135560Y1824919D01*
X7136669Y1823532D01*
X7136762Y1823347D01*
X7137132Y1822885D01*
X7137502Y1822053D01*
X7138056Y1820943D01*
X7138519Y1819649D01*
X7138981Y1818077D01*
X7139258Y1816320D01*
X7139351Y1814471D01*
Y1814379D01*
Y1814286D01*
Y1814009D01*
Y1813639D01*
X7139166Y1812622D01*
X7138981Y1811328D01*
X7138611Y1809849D01*
X7138149Y1808277D01*
X7137409Y1806613D01*
X7136392Y1804856D01*
Y1804763D01*
X7136300Y1804671D01*
X7135837Y1804116D01*
X7135190Y1803284D01*
X7134266Y1802360D01*
X7133064Y1801250D01*
X7131584Y1800048D01*
X7129920Y1798939D01*
X7127979Y1797922D01*
X7127886D01*
X7127701Y1797829D01*
X7127424Y1797737D01*
X7127054Y1797552D01*
X7126499Y1797367D01*
X7125852Y1797090D01*
X7124373Y1796720D01*
X7122616Y1796258D01*
X7120490Y1795795D01*
X7118178Y1795518D01*
X7115682Y1795425D01*
X7114203D01*
X7113463Y1795518D01*
X7112631D01*
X7111706Y1795610D01*
X7110597Y1795703D01*
X7108286Y1796073D01*
X7105882Y1796442D01*
X7103478Y1797090D01*
X7101166Y1797922D01*
X7101074D01*
X7100889Y1798014D01*
X7100612Y1798199D01*
X7100242Y1798384D01*
X7099132Y1798939D01*
X7097838Y1799771D01*
X7096359Y1800880D01*
X7094787Y1802175D01*
X7093308Y1803746D01*
X7091921Y1805503D01*
Y1805596D01*
X7091736Y1805780D01*
X7091643Y1806058D01*
X7091366Y1806428D01*
X7091181Y1806890D01*
X7090904Y1807445D01*
X7090257Y1808832D01*
X7089609Y1810588D01*
X7089055Y1812530D01*
X7088685Y1814749D01*
X7088500Y1817060D01*
X7096451Y1817800D01*
Y1817707D01*
Y1817615D01*
X7096544Y1817337D01*
Y1816968D01*
X7096729Y1816136D01*
X7097006Y1814934D01*
X7097376Y1813732D01*
X7097746Y1812345D01*
X7098393Y1811050D01*
X7099040Y1809849D01*
X7099132Y1809756D01*
X7099410Y1809386D01*
X7099872Y1808739D01*
X7100612Y1808092D01*
X7101536Y1807260D01*
X7102553Y1806428D01*
X7103940Y1805596D01*
X7105419Y1804856D01*
X7105512D01*
X7105604Y1804763D01*
X7105882Y1804671D01*
X7106159Y1804579D01*
X7107084Y1804301D01*
X7108286Y1803931D01*
X7109765Y1803562D01*
X7111429Y1803284D01*
X7113278Y1803099D01*
X7115312Y1803007D01*
X7116144D01*
X7117069Y1803099D01*
X7118178Y1803192D01*
X7119473Y1803377D01*
X7120952Y1803562D01*
X7122431Y1803931D01*
X7123818Y1804394D01*
X7124003Y1804486D01*
X7124465Y1804671D01*
X7125112Y1805041D01*
X7125945Y1805411D01*
X7126777Y1806058D01*
X7127701Y1806705D01*
X7128626Y1807445D01*
X7129365Y1808369D01*
X7129458Y1808462D01*
X7129643Y1808832D01*
X7129920Y1809294D01*
X7130290Y1810033D01*
X7130660Y1810773D01*
X7130937Y1811698D01*
X7131122Y1812715D01*
X7131215Y1813824D01*
Y1813917D01*
Y1814379D01*
X7131122Y1814934D01*
X7131030Y1815673D01*
X7130752Y1816413D01*
X7130475Y1817337D01*
X7130013Y1818262D01*
X7129365Y1819094D01*
X7129273Y1819187D01*
X7128996Y1819464D01*
X7128626Y1819834D01*
X7127979Y1820389D01*
X7127239Y1820943D01*
X7126222Y1821590D01*
X7125020Y1822238D01*
X7123633Y1822792D01*
X7123541Y1822885D01*
X7123078Y1822977D01*
X7122339Y1823255D01*
X7121877Y1823347D01*
X7121229Y1823532D01*
X7120582Y1823809D01*
X7119750Y1823994D01*
X7118825Y1824272D01*
X7117716Y1824549D01*
X7116607Y1824826D01*
X7115312Y1825196D01*
X7113833Y1825566D01*
X7112261Y1825936D01*
X7112169D01*
X7111891Y1826028D01*
X7111429Y1826121D01*
X7110874Y1826306D01*
X7110135Y1826491D01*
X7109303Y1826676D01*
X7107453Y1827230D01*
X7105419Y1827877D01*
X7103293Y1828525D01*
X7101444Y1829172D01*
X7100612Y1829542D01*
X7099872Y1829912D01*
X7099780D01*
X7099687Y1830004D01*
X7099132Y1830374D01*
X7098300Y1830836D01*
X7097376Y1831576D01*
X7096266Y1832408D01*
X7095157Y1833425D01*
X7094047Y1834627D01*
X7093123Y1835921D01*
X7093030Y1836106D01*
X7092753Y1836568D01*
X7092383Y1837308D01*
X7092013Y1838233D01*
X7091643Y1839434D01*
X7091274Y1840821D01*
X7090996Y1842301D01*
X7090904Y1843872D01*
Y1843965D01*
Y1844057D01*
Y1844335D01*
Y1844704D01*
X7091089Y1845629D01*
X7091274Y1846831D01*
X7091551Y1848218D01*
X7092013Y1849790D01*
X7092660Y1851361D01*
X7093585Y1852933D01*
Y1853026D01*
X7093677Y1853118D01*
X7094140Y1853673D01*
X7094787Y1854412D01*
X7095619Y1855337D01*
X7096729Y1856354D01*
X7098115Y1857463D01*
X7099780Y1858480D01*
X7101629Y1859405D01*
X7101721D01*
X7101906Y1859497D01*
X7102183Y1859590D01*
X7102553Y1859775D01*
X7103016Y1859960D01*
X7103663Y1860145D01*
X7105050Y1860514D01*
X7106806Y1860884D01*
X7108840Y1861254D01*
X7110967Y1861531D01*
X7113371Y1861624D01*
X7114573D01*
X7115220Y1861531D01*
D02*
G37*
G36*
X7617348D02*
X7618180Y1861439D01*
X7619197Y1861347D01*
X7620214Y1861254D01*
X7621416Y1860977D01*
X7623913Y1860422D01*
X7626686Y1859590D01*
X7628073Y1859035D01*
X7629368Y1858388D01*
X7630662Y1857556D01*
X7631956Y1856724D01*
X7632049Y1856631D01*
X7632234Y1856539D01*
X7632603Y1856261D01*
X7633066Y1855799D01*
X7633528Y1855337D01*
X7634175Y1854690D01*
X7634822Y1853950D01*
X7635562Y1853210D01*
X7636302Y1852286D01*
X7637041Y1851176D01*
X7637873Y1850067D01*
X7638613Y1848865D01*
X7639260Y1847478D01*
X7640000Y1846091D01*
X7640555Y1844612D01*
X7641109Y1842948D01*
X7632788Y1841006D01*
Y1841099D01*
X7632696Y1841284D01*
X7632511Y1841653D01*
X7632326Y1842116D01*
X7632141Y1842670D01*
X7631864Y1843410D01*
X7631124Y1844889D01*
X7630200Y1846554D01*
X7629090Y1848218D01*
X7627703Y1849790D01*
X7626224Y1851176D01*
X7626039Y1851361D01*
X7625484Y1851731D01*
X7624560Y1852193D01*
X7623358Y1852841D01*
X7621786Y1853395D01*
X7620029Y1853950D01*
X7617903Y1854320D01*
X7615592Y1854412D01*
X7614852D01*
X7614390Y1854320D01*
X7613742D01*
X7613003Y1854227D01*
X7611246Y1853950D01*
X7609305Y1853580D01*
X7607271Y1852933D01*
X7605144Y1852008D01*
X7603202Y1850807D01*
X7603110D01*
X7603018Y1850622D01*
X7602370Y1850159D01*
X7601538Y1849420D01*
X7600521Y1848310D01*
X7599319Y1846923D01*
X7598210Y1845352D01*
X7597193Y1843410D01*
X7596268Y1841284D01*
Y1841191D01*
X7596176Y1841006D01*
X7596083Y1840729D01*
X7595991Y1840267D01*
X7595806Y1839712D01*
X7595621Y1839065D01*
X7595344Y1837493D01*
X7594974Y1835644D01*
X7594604Y1833610D01*
X7594419Y1831391D01*
X7594327Y1828987D01*
Y1828894D01*
Y1828617D01*
Y1828155D01*
Y1827600D01*
X7594419Y1826953D01*
Y1826121D01*
X7594512Y1825196D01*
X7594604Y1824179D01*
X7594881Y1821960D01*
X7595344Y1819556D01*
X7595898Y1817153D01*
X7596638Y1814749D01*
Y1814656D01*
X7596731Y1814471D01*
X7596915Y1814194D01*
X7597100Y1813732D01*
X7597655Y1812622D01*
X7598487Y1811328D01*
X7599504Y1809849D01*
X7600799Y1808277D01*
X7602278Y1806890D01*
X7604035Y1805596D01*
X7604127D01*
X7604312Y1805503D01*
X7604589Y1805318D01*
X7604959Y1805133D01*
X7605421Y1804948D01*
X7605976Y1804671D01*
X7607271Y1804116D01*
X7608935Y1803562D01*
X7610784Y1803099D01*
X7612818Y1802729D01*
X7614944Y1802637D01*
X7615592D01*
X7616146Y1802729D01*
X7616794D01*
X7617441Y1802822D01*
X7619105Y1803192D01*
X7621046Y1803654D01*
X7622988Y1804394D01*
X7625022Y1805411D01*
X7626039Y1805965D01*
X7626964Y1806705D01*
X7627056Y1806798D01*
X7627149Y1806890D01*
X7627426Y1807167D01*
X7627796Y1807445D01*
X7628166Y1807907D01*
X7628628Y1808462D01*
X7629183Y1809016D01*
X7629645Y1809756D01*
X7630200Y1810588D01*
X7630847Y1811513D01*
X7631402Y1812437D01*
X7631956Y1813547D01*
X7632419Y1814749D01*
X7632881Y1816043D01*
X7633343Y1817430D01*
X7633713Y1818909D01*
X7642219Y1816783D01*
Y1816690D01*
X7642126Y1816320D01*
X7641942Y1815766D01*
X7641664Y1815026D01*
X7641387Y1814194D01*
X7641017Y1813177D01*
X7640555Y1812067D01*
X7640000Y1810866D01*
X7638706Y1808277D01*
X7637041Y1805688D01*
X7636024Y1804394D01*
X7635007Y1803099D01*
X7633898Y1801990D01*
X7632603Y1800880D01*
X7632511Y1800788D01*
X7632326Y1800603D01*
X7631864Y1800418D01*
X7631402Y1800048D01*
X7630662Y1799586D01*
X7629922Y1799124D01*
X7628905Y1798661D01*
X7627888Y1798199D01*
X7626686Y1797644D01*
X7625392Y1797182D01*
X7624005Y1796720D01*
X7622526Y1796258D01*
X7620954Y1795888D01*
X7619290Y1795703D01*
X7617533Y1795518D01*
X7615684Y1795425D01*
X7614667D01*
X7613927Y1795518D01*
X7613095D01*
X7612078Y1795610D01*
X7610969Y1795795D01*
X7609674Y1795980D01*
X7606993Y1796442D01*
X7604219Y1797182D01*
X7601446Y1798199D01*
X7600151Y1798846D01*
X7598857Y1799586D01*
X7598765Y1799678D01*
X7598580Y1799771D01*
X7598210Y1800048D01*
X7597840Y1800418D01*
X7597285Y1800788D01*
X7596638Y1801343D01*
X7595898Y1801990D01*
X7595159Y1802729D01*
X7594419Y1803562D01*
X7593587Y1804394D01*
X7591923Y1806520D01*
X7590351Y1809016D01*
X7588964Y1811790D01*
Y1811883D01*
X7588779Y1812160D01*
X7588687Y1812622D01*
X7588410Y1813177D01*
X7588225Y1813917D01*
X7587947Y1814841D01*
X7587577Y1815858D01*
X7587300Y1816968D01*
X7587023Y1818170D01*
X7586653Y1819556D01*
X7586191Y1822423D01*
X7585821Y1825659D01*
X7585636Y1828987D01*
Y1829079D01*
Y1829449D01*
Y1830004D01*
X7585728Y1830651D01*
Y1831576D01*
X7585821Y1832500D01*
X7585913Y1833702D01*
X7586098Y1834904D01*
X7586560Y1837585D01*
X7587208Y1840544D01*
X7588132Y1843503D01*
X7589427Y1846369D01*
X7589519Y1846461D01*
X7589611Y1846738D01*
X7589796Y1847108D01*
X7590166Y1847571D01*
X7590536Y1848218D01*
X7590998Y1848957D01*
X7592200Y1850622D01*
X7593772Y1852471D01*
X7595621Y1854320D01*
X7597748Y1856169D01*
X7600244Y1857741D01*
X7600336Y1857833D01*
X7600614Y1857926D01*
X7600984Y1858111D01*
X7601446Y1858388D01*
X7602185Y1858665D01*
X7602925Y1858943D01*
X7603850Y1859313D01*
X7604867Y1859682D01*
X7605976Y1860052D01*
X7607178Y1860422D01*
X7609767Y1860977D01*
X7612725Y1861439D01*
X7615776Y1861624D01*
X7616701D01*
X7617348Y1861531D01*
D02*
G37*
G36*
X7703055Y1796535D02*
X7694549D01*
Y1826676D01*
X7661450D01*
Y1796535D01*
X7652944D01*
Y1860514D01*
X7661450D01*
Y1834257D01*
X7694549D01*
Y1860514D01*
X7703055D01*
Y1796535D01*
D02*
G37*
G36*
X7483102D02*
X7474781D01*
X7461375Y1845259D01*
Y1845352D01*
X7461283Y1845537D01*
X7461190Y1845814D01*
X7461098Y1846276D01*
X7460820Y1847293D01*
X7460543Y1848495D01*
X7460173Y1849790D01*
X7459803Y1850991D01*
X7459526Y1852008D01*
X7459433Y1852471D01*
X7459341Y1852748D01*
Y1852656D01*
X7459248Y1852563D01*
X7459156Y1852008D01*
X7458971Y1851176D01*
X7458694Y1850159D01*
X7458416Y1849050D01*
X7458047Y1847756D01*
X7457769Y1846461D01*
X7457399Y1845259D01*
X7443901Y1796535D01*
X7435025D01*
X7418290Y1860514D01*
X7427074D01*
X7436597Y1818539D01*
Y1818447D01*
X7436689Y1818262D01*
X7436782Y1817892D01*
X7436874Y1817430D01*
X7436967Y1816783D01*
X7437151Y1816136D01*
X7437336Y1815303D01*
X7437521Y1814379D01*
X7437984Y1812437D01*
X7438446Y1810218D01*
X7438908Y1807815D01*
X7439370Y1805411D01*
Y1805503D01*
X7439463Y1805873D01*
X7439648Y1806335D01*
X7439740Y1807075D01*
X7439925Y1807815D01*
X7440203Y1808739D01*
X7440665Y1810773D01*
X7441220Y1812807D01*
X7441404Y1813824D01*
X7441682Y1814749D01*
X7441867Y1815581D01*
X7442052Y1816320D01*
X7442237Y1816875D01*
X7442329Y1817245D01*
X7454441Y1860514D01*
X7464703D01*
X7473764Y1828062D01*
Y1827970D01*
X7473949Y1827508D01*
X7474134Y1826860D01*
X7474319Y1826028D01*
X7474596Y1824919D01*
X7474966Y1823717D01*
X7475336Y1822330D01*
X7475706Y1820758D01*
X7476168Y1819002D01*
X7476538Y1817245D01*
X7477370Y1813454D01*
X7478202Y1809479D01*
X7478849Y1805411D01*
Y1805503D01*
X7478942Y1805688D01*
Y1806058D01*
X7479127Y1806520D01*
X7479219Y1807075D01*
X7479404Y1807722D01*
X7479496Y1808554D01*
X7479774Y1809479D01*
X7480236Y1811513D01*
X7480791Y1813917D01*
X7481345Y1816505D01*
X7482085Y1819372D01*
X7492070Y1860514D01*
X7500669D01*
X7483102Y1796535D01*
D02*
G37*
G36*
X7579349Y1852933D02*
X7558269D01*
Y1796535D01*
X7549763D01*
Y1852933D01*
X7528683D01*
Y1860514D01*
X7579349D01*
Y1852933D01*
D02*
G37*
G36*
X7518513Y1796535D02*
X7510007D01*
Y1860514D01*
X7518513D01*
Y1796535D01*
D02*
G37*
G36*
X7301426Y1860422D02*
X7303275Y1860330D01*
X7305124Y1860145D01*
X7306973Y1859867D01*
X7308545Y1859590D01*
X7308638D01*
X7308823Y1859497D01*
X7309100D01*
X7309470Y1859313D01*
X7310487Y1859035D01*
X7311781Y1858573D01*
X7313260Y1857926D01*
X7314832Y1857094D01*
X7316404Y1856169D01*
X7317883Y1854967D01*
X7317976Y1854875D01*
X7318068Y1854782D01*
X7318346Y1854505D01*
X7318715Y1854227D01*
X7319640Y1853303D01*
X7320749Y1852008D01*
X7321951Y1850437D01*
X7323246Y1848588D01*
X7324448Y1846461D01*
X7325465Y1844057D01*
Y1843965D01*
X7325557Y1843780D01*
X7325742Y1843410D01*
X7325834Y1842855D01*
X7326112Y1842208D01*
X7326297Y1841469D01*
X7326482Y1840636D01*
X7326759Y1839619D01*
X7327036Y1838602D01*
X7327221Y1837400D01*
X7327684Y1834812D01*
X7327961Y1831946D01*
X7328053Y1828802D01*
Y1828710D01*
Y1828525D01*
Y1828062D01*
Y1827600D01*
X7327961Y1826953D01*
Y1826213D01*
X7327869Y1824457D01*
X7327591Y1822423D01*
X7327314Y1820296D01*
X7326851Y1818077D01*
X7326297Y1815858D01*
Y1815766D01*
X7326204Y1815581D01*
X7326112Y1815303D01*
X7326019Y1814934D01*
X7325650Y1813917D01*
X7325095Y1812622D01*
X7324540Y1811143D01*
X7323800Y1809664D01*
X7322876Y1808092D01*
X7321951Y1806613D01*
X7321859Y1806428D01*
X7321489Y1805965D01*
X7320934Y1805318D01*
X7320195Y1804486D01*
X7319363Y1803562D01*
X7318346Y1802637D01*
X7317329Y1801620D01*
X7316127Y1800788D01*
X7315942Y1800695D01*
X7315572Y1800418D01*
X7314925Y1800048D01*
X7314000Y1799586D01*
X7312891Y1799031D01*
X7311596Y1798569D01*
X7310117Y1798014D01*
X7308453Y1797552D01*
X7308268D01*
X7307990Y1797459D01*
X7307713Y1797367D01*
X7306789Y1797275D01*
X7305494Y1797090D01*
X7304015Y1796905D01*
X7302258Y1796720D01*
X7300317Y1796627D01*
X7298190Y1796535D01*
X7275169D01*
Y1860514D01*
X7299762D01*
X7301426Y1860422D01*
D02*
G37*
G36*
X7268327Y1796535D02*
X7258711D01*
X7251222Y1815951D01*
X7224410D01*
X7217476Y1796535D01*
X7208508D01*
X7232916Y1860514D01*
X7242162D01*
X7268327Y1796535D01*
D02*
G37*
G36*
X7181511Y1860422D02*
X7182343D01*
X7184284Y1860330D01*
X7186318Y1860052D01*
X7188537Y1859775D01*
X7190571Y1859313D01*
X7191588Y1859035D01*
X7192420Y1858758D01*
X7192513D01*
X7192605Y1858665D01*
X7193160Y1858388D01*
X7193992Y1858018D01*
X7195009Y1857371D01*
X7196119Y1856539D01*
X7197321Y1855429D01*
X7198430Y1854135D01*
X7199540Y1852656D01*
Y1852563D01*
X7199632Y1852471D01*
X7200002Y1851916D01*
X7200372Y1850991D01*
X7200926Y1849790D01*
X7201389Y1848403D01*
X7201851Y1846738D01*
X7202128Y1844982D01*
X7202221Y1843040D01*
Y1842948D01*
Y1842763D01*
Y1842393D01*
X7202128Y1841931D01*
Y1841284D01*
X7202036Y1840636D01*
X7201666Y1839065D01*
X7201111Y1837216D01*
X7200372Y1835274D01*
X7199262Y1833332D01*
X7198523Y1832408D01*
X7197783Y1831483D01*
X7197690Y1831391D01*
X7197598Y1831298D01*
X7197321Y1831021D01*
X7196951Y1830744D01*
X7196489Y1830374D01*
X7195934Y1830004D01*
X7195194Y1829542D01*
X7194454Y1828987D01*
X7193530Y1828525D01*
X7192513Y1828062D01*
X7191403Y1827508D01*
X7190202Y1827045D01*
X7188815Y1826676D01*
X7187428Y1826213D01*
X7185856Y1825936D01*
X7184192Y1825659D01*
X7184377Y1825566D01*
X7184747Y1825381D01*
X7185301Y1825011D01*
X7186041Y1824642D01*
X7187705Y1823624D01*
X7188537Y1822977D01*
X7189277Y1822423D01*
X7189462Y1822238D01*
X7189924Y1821775D01*
X7190664Y1821036D01*
X7191588Y1820111D01*
X7192605Y1818817D01*
X7193807Y1817430D01*
X7195009Y1815766D01*
X7196304Y1813917D01*
X7207306Y1796535D01*
X7196766D01*
X7188352Y1809849D01*
Y1809941D01*
X7188167Y1810126D01*
X7187983Y1810403D01*
X7187705Y1810773D01*
X7187058Y1811790D01*
X7186226Y1813085D01*
X7185209Y1814471D01*
X7184192Y1815951D01*
X7183175Y1817337D01*
X7182250Y1818632D01*
X7182158Y1818724D01*
X7181880Y1819094D01*
X7181418Y1819649D01*
X7180771Y1820296D01*
X7179384Y1821683D01*
X7178645Y1822330D01*
X7177905Y1822885D01*
X7177812Y1822977D01*
X7177628Y1823070D01*
X7177258Y1823255D01*
X7176703Y1823532D01*
X7176148Y1823809D01*
X7175501Y1824087D01*
X7174022Y1824549D01*
X7173929D01*
X7173744Y1824642D01*
X7173375D01*
X7172912Y1824734D01*
X7172265Y1824826D01*
X7171525D01*
X7170508Y1824919D01*
X7159599D01*
Y1796535D01*
X7151093D01*
Y1860514D01*
X7180771D01*
X7181511Y1860422D01*
D02*
G37*
G36*
X3943707Y1823532D02*
Y1823440D01*
Y1823070D01*
Y1822607D01*
Y1821960D01*
X3943615Y1821128D01*
Y1820204D01*
X3943522Y1819094D01*
X3943430Y1817985D01*
X3943152Y1815488D01*
X3942783Y1812900D01*
X3942228Y1810403D01*
X3941858Y1809201D01*
X3941488Y1808092D01*
Y1807999D01*
X3941396Y1807815D01*
X3941211Y1807537D01*
X3941026Y1807167D01*
X3940471Y1806150D01*
X3939639Y1804856D01*
X3938530Y1803377D01*
X3937235Y1801897D01*
X3935571Y1800326D01*
X3933537Y1798939D01*
X3933445D01*
X3933260Y1798754D01*
X3932982Y1798661D01*
X3932520Y1798384D01*
X3931965Y1798107D01*
X3931226Y1797829D01*
X3930486Y1797552D01*
X3929561Y1797182D01*
X3928544Y1796812D01*
X3927435Y1796535D01*
X3926233Y1796258D01*
X3924846Y1795980D01*
X3923459Y1795795D01*
X3921980Y1795610D01*
X3918652Y1795425D01*
X3917819D01*
X3917172Y1795518D01*
X3916433D01*
X3915508Y1795610D01*
X3914491Y1795703D01*
X3913474Y1795795D01*
X3911163Y1796165D01*
X3908666Y1796720D01*
X3906262Y1797459D01*
X3903951Y1798476D01*
X3903859D01*
X3903674Y1798661D01*
X3903396Y1798846D01*
X3903026Y1799031D01*
X3902009Y1799771D01*
X3900808Y1800788D01*
X3899421Y1802082D01*
X3898126Y1803562D01*
X3896832Y1805411D01*
X3895815Y1807445D01*
Y1807537D01*
X3895722Y1807722D01*
X3895630Y1808092D01*
X3895445Y1808554D01*
X3895260Y1809109D01*
X3895075Y1809849D01*
X3894798Y1810681D01*
X3894613Y1811698D01*
X3894428Y1812807D01*
X3894151Y1814009D01*
X3893966Y1815303D01*
X3893781Y1816690D01*
X3893596Y1818262D01*
X3893504Y1819926D01*
X3893411Y1821683D01*
Y1823532D01*
Y1860514D01*
X3901917D01*
Y1823532D01*
Y1823440D01*
Y1823162D01*
Y1822700D01*
Y1822145D01*
X3902009Y1821498D01*
Y1820666D01*
X3902102Y1818909D01*
X3902287Y1816875D01*
X3902564Y1814841D01*
X3902934Y1812900D01*
X3903119Y1812067D01*
X3903396Y1811235D01*
X3903489Y1811050D01*
X3903674Y1810588D01*
X3904136Y1809941D01*
X3904691Y1809016D01*
X3905338Y1808092D01*
X3906262Y1807075D01*
X3907372Y1806058D01*
X3908666Y1805226D01*
X3908851Y1805133D01*
X3909313Y1804856D01*
X3910146Y1804579D01*
X3911255Y1804209D01*
X3912549Y1803746D01*
X3914214Y1803469D01*
X3915970Y1803192D01*
X3917912Y1803099D01*
X3918836D01*
X3919391Y1803192D01*
X3920223D01*
X3921055Y1803284D01*
X3923089Y1803654D01*
X3925308Y1804116D01*
X3927435Y1804856D01*
X3929469Y1805873D01*
X3930393Y1806520D01*
X3931226Y1807260D01*
X3931318Y1807352D01*
X3931410Y1807445D01*
X3931595Y1807722D01*
X3931873Y1808092D01*
X3932150Y1808647D01*
X3932520Y1809201D01*
X3932890Y1810033D01*
X3933260Y1810866D01*
X3933629Y1811883D01*
X3933907Y1813085D01*
X3934277Y1814471D01*
X3934554Y1815951D01*
X3934831Y1817615D01*
X3935016Y1819372D01*
X3935201Y1821406D01*
Y1823532D01*
Y1860514D01*
X3943707D01*
Y1823532D01*
D02*
G37*
G36*
X4003711Y1852933D02*
X3982631D01*
Y1796535D01*
X3974125D01*
Y1852933D01*
X3953045D01*
Y1860514D01*
X4003711D01*
Y1852933D01*
D02*
G37*
G36*
X3790138D02*
X3769058D01*
Y1796535D01*
X3760552D01*
Y1852933D01*
X3739472D01*
Y1860514D01*
X3790138D01*
Y1852933D01*
D02*
G37*
G36*
X3735496D02*
X3714416D01*
Y1796535D01*
X3705910D01*
Y1852933D01*
X3684830D01*
Y1860514D01*
X3735496D01*
Y1852933D01*
D02*
G37*
G36*
X3682796Y1796535D02*
X3673181D01*
X3665692Y1815951D01*
X3638880D01*
X3631945Y1796535D01*
X3622977D01*
X3647386Y1860514D01*
X3656631D01*
X3682796Y1796535D01*
D02*
G37*
G36*
X3595795Y1860422D02*
X3596535D01*
X3598199Y1860237D01*
X3600048Y1860052D01*
X3601990Y1859682D01*
X3603931Y1859220D01*
X3605688Y1858573D01*
X3605780D01*
X3605873Y1858480D01*
X3606428Y1858203D01*
X3607260Y1857741D01*
X3608184Y1857094D01*
X3609294Y1856261D01*
X3610496Y1855244D01*
X3611605Y1853950D01*
X3612622Y1852563D01*
X3612715Y1852378D01*
X3612992Y1851824D01*
X3613454Y1851084D01*
X3613917Y1849974D01*
X3614379Y1848680D01*
X3614841Y1847293D01*
X3615118Y1845721D01*
X3615211Y1844150D01*
Y1843965D01*
Y1843503D01*
X3615118Y1842670D01*
X3614934Y1841653D01*
X3614656Y1840451D01*
X3614194Y1839157D01*
X3613639Y1837863D01*
X3612900Y1836476D01*
X3612807Y1836291D01*
X3612530Y1835921D01*
X3611975Y1835181D01*
X3611235Y1834442D01*
X3610311Y1833517D01*
X3609201Y1832500D01*
X3607814Y1831576D01*
X3606243Y1830651D01*
X3606335D01*
X3606520Y1830559D01*
X3606797Y1830466D01*
X3607167Y1830281D01*
X3608277Y1829912D01*
X3609571Y1829264D01*
X3610958Y1828432D01*
X3612530Y1827415D01*
X3613917Y1826213D01*
X3615211Y1824734D01*
X3615303Y1824549D01*
X3615673Y1823994D01*
X3616228Y1823162D01*
X3616783Y1822053D01*
X3617337Y1820573D01*
X3617892Y1819002D01*
X3618262Y1817153D01*
X3618354Y1815119D01*
Y1815026D01*
Y1814934D01*
Y1814379D01*
X3618262Y1813454D01*
X3618077Y1812345D01*
X3617892Y1811050D01*
X3617522Y1809664D01*
X3617060Y1808184D01*
X3616413Y1806705D01*
X3616320Y1806520D01*
X3616043Y1806058D01*
X3615673Y1805411D01*
X3615118Y1804486D01*
X3614379Y1803562D01*
X3613639Y1802545D01*
X3612715Y1801528D01*
X3611698Y1800695D01*
X3611605Y1800603D01*
X3611235Y1800326D01*
X3610588Y1799956D01*
X3609756Y1799586D01*
X3608739Y1799031D01*
X3607537Y1798476D01*
X3606243Y1798014D01*
X3604671Y1797552D01*
X3604486D01*
X3603931Y1797367D01*
X3603007Y1797275D01*
X3601805Y1797090D01*
X3600326Y1796905D01*
X3598569Y1796720D01*
X3596627Y1796627D01*
X3594408Y1796535D01*
X3570000D01*
Y1860514D01*
X3595148D01*
X3595795Y1860422D01*
D02*
G37*
G36*
X3853285Y1861531D02*
X3854117D01*
X3854949Y1861439D01*
X3856059Y1861254D01*
X3857168Y1861069D01*
X3859572Y1860607D01*
X3862346Y1859867D01*
X3865027Y1858758D01*
X3866414Y1858111D01*
X3867801Y1857371D01*
X3867893Y1857278D01*
X3868078Y1857186D01*
X3868448Y1856909D01*
X3869003Y1856631D01*
X3869557Y1856169D01*
X3870297Y1855614D01*
X3871869Y1854320D01*
X3873533Y1852656D01*
X3875382Y1850622D01*
X3877139Y1848218D01*
X3878618Y1845537D01*
Y1845444D01*
X3878803Y1845167D01*
X3878988Y1844797D01*
X3879173Y1844242D01*
X3879543Y1843503D01*
X3879820Y1842670D01*
X3880190Y1841653D01*
X3880560Y1840544D01*
X3880837Y1839342D01*
X3881207Y1838048D01*
X3881577Y1836568D01*
X3881854Y1835089D01*
X3882224Y1831853D01*
X3882409Y1828340D01*
Y1828247D01*
Y1827877D01*
Y1827415D01*
X3882316Y1826676D01*
Y1825843D01*
X3882224Y1824826D01*
X3882039Y1823717D01*
X3881947Y1822515D01*
X3881484Y1819834D01*
X3880745Y1816875D01*
X3879728Y1813917D01*
X3879173Y1812437D01*
X3878433Y1810958D01*
Y1810866D01*
X3878248Y1810588D01*
X3878063Y1810218D01*
X3877694Y1809664D01*
X3877324Y1809016D01*
X3876861Y1808369D01*
X3875567Y1806613D01*
X3873995Y1804763D01*
X3872146Y1802822D01*
X3869927Y1800973D01*
X3867338Y1799309D01*
X3867246D01*
X3867061Y1799124D01*
X3866599Y1798939D01*
X3866044Y1798661D01*
X3865397Y1798384D01*
X3864657Y1798107D01*
X3863733Y1797737D01*
X3862716Y1797367D01*
X3861606Y1796997D01*
X3860404Y1796627D01*
X3857723Y1796073D01*
X3854857Y1795610D01*
X3851806Y1795425D01*
X3850881D01*
X3850327Y1795518D01*
X3849494D01*
X3848570Y1795703D01*
X3847553Y1795795D01*
X3846351Y1795980D01*
X3843855Y1796535D01*
X3841173Y1797275D01*
X3838400Y1798384D01*
X3837013Y1799031D01*
X3835626Y1799771D01*
X3835534Y1799863D01*
X3835349Y1799956D01*
X3834979Y1800233D01*
X3834424Y1800603D01*
X3833869Y1800973D01*
X3833222Y1801528D01*
X3831650Y1802914D01*
X3829894Y1804579D01*
X3828045Y1806613D01*
X3826380Y1808924D01*
X3824809Y1811605D01*
Y1811698D01*
X3824624Y1811975D01*
X3824439Y1812345D01*
X3824254Y1812900D01*
X3823977Y1813639D01*
X3823699Y1814471D01*
X3823329Y1815396D01*
X3823052Y1816413D01*
X3822682Y1817615D01*
X3822312Y1818817D01*
X3821758Y1821590D01*
X3821388Y1824457D01*
X3821203Y1827600D01*
Y1827693D01*
Y1827785D01*
Y1828340D01*
X3821295Y1829172D01*
Y1830281D01*
X3821480Y1831576D01*
X3821665Y1833147D01*
X3821943Y1834904D01*
X3822312Y1836753D01*
X3822682Y1838695D01*
X3823237Y1840729D01*
X3823977Y1842763D01*
X3824809Y1844889D01*
X3825733Y1846923D01*
X3826935Y1848957D01*
X3828230Y1850807D01*
X3829709Y1852563D01*
X3829801Y1852656D01*
X3830079Y1852933D01*
X3830633Y1853395D01*
X3831281Y1853950D01*
X3832113Y1854690D01*
X3833130Y1855429D01*
X3834332Y1856261D01*
X3835719Y1857094D01*
X3837198Y1857926D01*
X3838862Y1858758D01*
X3840711Y1859497D01*
X3842653Y1860237D01*
X3844779Y1860792D01*
X3846998Y1861254D01*
X3849310Y1861531D01*
X3851806Y1861624D01*
X3852638D01*
X3853285Y1861531D01*
D02*
G37*
G36*
X2873707Y1823532D02*
Y1823440D01*
Y1823070D01*
Y1822607D01*
Y1821960D01*
X2873615Y1821128D01*
Y1820204D01*
X2873522Y1819094D01*
X2873430Y1817985D01*
X2873152Y1815488D01*
X2872783Y1812900D01*
X2872228Y1810403D01*
X2871858Y1809201D01*
X2871488Y1808092D01*
Y1807999D01*
X2871396Y1807815D01*
X2871211Y1807537D01*
X2871026Y1807167D01*
X2870471Y1806150D01*
X2869639Y1804856D01*
X2868530Y1803377D01*
X2867235Y1801897D01*
X2865571Y1800326D01*
X2863537Y1798939D01*
X2863445D01*
X2863260Y1798754D01*
X2862982Y1798661D01*
X2862520Y1798384D01*
X2861965Y1798107D01*
X2861226Y1797829D01*
X2860486Y1797552D01*
X2859561Y1797182D01*
X2858544Y1796812D01*
X2857435Y1796535D01*
X2856233Y1796258D01*
X2854846Y1795980D01*
X2853459Y1795795D01*
X2851980Y1795610D01*
X2848652Y1795425D01*
X2847820D01*
X2847172Y1795518D01*
X2846433D01*
X2845508Y1795610D01*
X2844491Y1795703D01*
X2843474Y1795795D01*
X2841163Y1796165D01*
X2838666Y1796720D01*
X2836263Y1797459D01*
X2833951Y1798476D01*
X2833859D01*
X2833674Y1798661D01*
X2833396Y1798846D01*
X2833027Y1799031D01*
X2832010Y1799771D01*
X2830808Y1800788D01*
X2829421Y1802082D01*
X2828126Y1803562D01*
X2826832Y1805411D01*
X2825815Y1807445D01*
Y1807537D01*
X2825723Y1807722D01*
X2825630Y1808092D01*
X2825445Y1808554D01*
X2825260Y1809109D01*
X2825075Y1809849D01*
X2824798Y1810681D01*
X2824613Y1811698D01*
X2824428Y1812807D01*
X2824151Y1814009D01*
X2823966Y1815303D01*
X2823781Y1816690D01*
X2823596Y1818262D01*
X2823504Y1819926D01*
X2823411Y1821683D01*
Y1823532D01*
Y1860514D01*
X2831917D01*
Y1823532D01*
Y1823440D01*
Y1823162D01*
Y1822700D01*
Y1822145D01*
X2832010Y1821498D01*
Y1820666D01*
X2832102Y1818909D01*
X2832287Y1816875D01*
X2832564Y1814841D01*
X2832934Y1812900D01*
X2833119Y1812067D01*
X2833396Y1811235D01*
X2833489Y1811050D01*
X2833674Y1810588D01*
X2834136Y1809941D01*
X2834691Y1809016D01*
X2835338Y1808092D01*
X2836263Y1807075D01*
X2837372Y1806058D01*
X2838666Y1805226D01*
X2838851Y1805133D01*
X2839314Y1804856D01*
X2840146Y1804579D01*
X2841255Y1804209D01*
X2842550Y1803746D01*
X2844214Y1803469D01*
X2845970Y1803192D01*
X2847912Y1803099D01*
X2848837D01*
X2849391Y1803192D01*
X2850223D01*
X2851056Y1803284D01*
X2853090Y1803654D01*
X2855308Y1804116D01*
X2857435Y1804856D01*
X2859469Y1805873D01*
X2860394Y1806520D01*
X2861226Y1807260D01*
X2861318Y1807352D01*
X2861411Y1807445D01*
X2861595Y1807722D01*
X2861873Y1808092D01*
X2862150Y1808647D01*
X2862520Y1809201D01*
X2862890Y1810033D01*
X2863260Y1810866D01*
X2863630Y1811883D01*
X2863907Y1813085D01*
X2864277Y1814471D01*
X2864554Y1815951D01*
X2864831Y1817615D01*
X2865016Y1819372D01*
X2865201Y1821406D01*
Y1823532D01*
Y1860514D01*
X2873707D01*
Y1823532D01*
D02*
G37*
G36*
X2933711Y1852933D02*
X2912631D01*
Y1796535D01*
X2904125D01*
Y1852933D01*
X2883045D01*
Y1860514D01*
X2933711D01*
Y1852933D01*
D02*
G37*
G36*
X2720138D02*
X2699058D01*
Y1796535D01*
X2690552D01*
Y1852933D01*
X2669472D01*
Y1860514D01*
X2720138D01*
Y1852933D01*
D02*
G37*
G36*
X2665496D02*
X2644416D01*
Y1796535D01*
X2635910D01*
Y1852933D01*
X2614830D01*
Y1860514D01*
X2665496D01*
Y1852933D01*
D02*
G37*
G36*
X2612796Y1796535D02*
X2603181D01*
X2595692Y1815951D01*
X2568880D01*
X2561946Y1796535D01*
X2552977D01*
X2577386Y1860514D01*
X2586631D01*
X2612796Y1796535D01*
D02*
G37*
G36*
X2525795Y1860422D02*
X2526535D01*
X2528199Y1860237D01*
X2530048Y1860052D01*
X2531990Y1859682D01*
X2533931Y1859220D01*
X2535688Y1858573D01*
X2535781D01*
X2535873Y1858480D01*
X2536428Y1858203D01*
X2537260Y1857741D01*
X2538184Y1857094D01*
X2539294Y1856261D01*
X2540496Y1855244D01*
X2541605Y1853950D01*
X2542622Y1852563D01*
X2542715Y1852378D01*
X2542992Y1851824D01*
X2543454Y1851084D01*
X2543917Y1849974D01*
X2544379Y1848680D01*
X2544841Y1847293D01*
X2545119Y1845721D01*
X2545211Y1844150D01*
Y1843965D01*
Y1843503D01*
X2545119Y1842670D01*
X2544934Y1841653D01*
X2544656Y1840451D01*
X2544194Y1839157D01*
X2543639Y1837863D01*
X2542900Y1836476D01*
X2542807Y1836291D01*
X2542530Y1835921D01*
X2541975Y1835181D01*
X2541235Y1834442D01*
X2540311Y1833517D01*
X2539201Y1832500D01*
X2537815Y1831576D01*
X2536243Y1830651D01*
X2536335D01*
X2536520Y1830559D01*
X2536798Y1830466D01*
X2537167Y1830281D01*
X2538277Y1829912D01*
X2539571Y1829264D01*
X2540958Y1828432D01*
X2542530Y1827415D01*
X2543917Y1826213D01*
X2545211Y1824734D01*
X2545304Y1824549D01*
X2545673Y1823994D01*
X2546228Y1823162D01*
X2546783Y1822053D01*
X2547338Y1820573D01*
X2547892Y1819002D01*
X2548262Y1817153D01*
X2548355Y1815119D01*
Y1815026D01*
Y1814934D01*
Y1814379D01*
X2548262Y1813454D01*
X2548077Y1812345D01*
X2547892Y1811050D01*
X2547522Y1809664D01*
X2547060Y1808184D01*
X2546413Y1806705D01*
X2546321Y1806520D01*
X2546043Y1806058D01*
X2545673Y1805411D01*
X2545119Y1804486D01*
X2544379Y1803562D01*
X2543639Y1802545D01*
X2542715Y1801528D01*
X2541698Y1800695D01*
X2541605Y1800603D01*
X2541235Y1800326D01*
X2540588Y1799956D01*
X2539756Y1799586D01*
X2538739Y1799031D01*
X2537537Y1798476D01*
X2536243Y1798014D01*
X2534671Y1797552D01*
X2534486D01*
X2533931Y1797367D01*
X2533007Y1797275D01*
X2531805Y1797090D01*
X2530326Y1796905D01*
X2528569Y1796720D01*
X2526627Y1796627D01*
X2524408Y1796535D01*
X2500000D01*
Y1860514D01*
X2525148D01*
X2525795Y1860422D01*
D02*
G37*
G36*
X2783285Y1861531D02*
X2784117D01*
X2784949Y1861439D01*
X2786059Y1861254D01*
X2787168Y1861069D01*
X2789572Y1860607D01*
X2792346Y1859867D01*
X2795027Y1858758D01*
X2796414Y1858111D01*
X2797801Y1857371D01*
X2797893Y1857278D01*
X2798078Y1857186D01*
X2798448Y1856909D01*
X2799003Y1856631D01*
X2799558Y1856169D01*
X2800297Y1855614D01*
X2801869Y1854320D01*
X2803533Y1852656D01*
X2805382Y1850622D01*
X2807139Y1848218D01*
X2808618Y1845537D01*
Y1845444D01*
X2808803Y1845167D01*
X2808988Y1844797D01*
X2809173Y1844242D01*
X2809543Y1843503D01*
X2809820Y1842670D01*
X2810190Y1841653D01*
X2810560Y1840544D01*
X2810837Y1839342D01*
X2811207Y1838048D01*
X2811577Y1836568D01*
X2811854Y1835089D01*
X2812224Y1831853D01*
X2812409Y1828340D01*
Y1828247D01*
Y1827877D01*
Y1827415D01*
X2812316Y1826676D01*
Y1825843D01*
X2812224Y1824826D01*
X2812039Y1823717D01*
X2811947Y1822515D01*
X2811484Y1819834D01*
X2810745Y1816875D01*
X2809728Y1813917D01*
X2809173Y1812437D01*
X2808433Y1810958D01*
Y1810866D01*
X2808248Y1810588D01*
X2808063Y1810218D01*
X2807694Y1809664D01*
X2807324Y1809016D01*
X2806862Y1808369D01*
X2805567Y1806613D01*
X2803995Y1804763D01*
X2802146Y1802822D01*
X2799927Y1800973D01*
X2797339Y1799309D01*
X2797246D01*
X2797061Y1799124D01*
X2796599Y1798939D01*
X2796044Y1798661D01*
X2795397Y1798384D01*
X2794657Y1798107D01*
X2793733Y1797737D01*
X2792716Y1797367D01*
X2791606Y1796997D01*
X2790404Y1796627D01*
X2787723Y1796073D01*
X2784857Y1795610D01*
X2781806Y1795425D01*
X2780881D01*
X2780327Y1795518D01*
X2779495D01*
X2778570Y1795703D01*
X2777553Y1795795D01*
X2776351Y1795980D01*
X2773855Y1796535D01*
X2771174Y1797275D01*
X2768400Y1798384D01*
X2767013Y1799031D01*
X2765626Y1799771D01*
X2765534Y1799863D01*
X2765349Y1799956D01*
X2764979Y1800233D01*
X2764424Y1800603D01*
X2763870Y1800973D01*
X2763222Y1801528D01*
X2761651Y1802914D01*
X2759894Y1804579D01*
X2758045Y1806613D01*
X2756381Y1808924D01*
X2754809Y1811605D01*
Y1811698D01*
X2754624Y1811975D01*
X2754439Y1812345D01*
X2754254Y1812900D01*
X2753977Y1813639D01*
X2753699Y1814471D01*
X2753330Y1815396D01*
X2753052Y1816413D01*
X2752682Y1817615D01*
X2752313Y1818817D01*
X2751758Y1821590D01*
X2751388Y1824457D01*
X2751203Y1827600D01*
Y1827693D01*
Y1827785D01*
Y1828340D01*
X2751295Y1829172D01*
Y1830281D01*
X2751480Y1831576D01*
X2751665Y1833147D01*
X2751943Y1834904D01*
X2752313Y1836753D01*
X2752682Y1838695D01*
X2753237Y1840729D01*
X2753977Y1842763D01*
X2754809Y1844889D01*
X2755733Y1846923D01*
X2756935Y1848957D01*
X2758230Y1850807D01*
X2759709Y1852563D01*
X2759801Y1852656D01*
X2760079Y1852933D01*
X2760634Y1853395D01*
X2761281Y1853950D01*
X2762113Y1854690D01*
X2763130Y1855429D01*
X2764332Y1856261D01*
X2765719Y1857094D01*
X2767198Y1857926D01*
X2768862Y1858758D01*
X2770711Y1859497D01*
X2772653Y1860237D01*
X2774779Y1860792D01*
X2776998Y1861254D01*
X2779310Y1861531D01*
X2781806Y1861624D01*
X2782638D01*
X2783285Y1861531D01*
D02*
G37*
%LPC*%
G36*
X7298467Y1852933D02*
X7283675D01*
Y1804116D01*
X7298837D01*
X7299485Y1804209D01*
X7300871Y1804301D01*
X7302443Y1804394D01*
X7304107Y1804579D01*
X7305772Y1804856D01*
X7307158Y1805226D01*
X7307343Y1805318D01*
X7307806Y1805411D01*
X7308453Y1805688D01*
X7309285Y1806058D01*
X7310209Y1806613D01*
X7311134Y1807167D01*
X7312059Y1807815D01*
X7312983Y1808554D01*
X7313076Y1808739D01*
X7313445Y1809109D01*
X7314000Y1809756D01*
X7314647Y1810681D01*
X7315387Y1811883D01*
X7316219Y1813269D01*
X7316959Y1814841D01*
X7317606Y1816598D01*
Y1816690D01*
X7317698Y1816875D01*
X7317791Y1817153D01*
X7317883Y1817522D01*
X7317976Y1817985D01*
X7318161Y1818632D01*
X7318346Y1819279D01*
X7318530Y1820019D01*
X7318808Y1821868D01*
X7319085Y1823994D01*
X7319270Y1826398D01*
X7319363Y1828987D01*
Y1829079D01*
Y1829449D01*
Y1829912D01*
X7319270Y1830651D01*
Y1831483D01*
X7319178Y1832408D01*
X7319085Y1833517D01*
X7318993Y1834627D01*
X7318530Y1837123D01*
X7317976Y1839712D01*
X7317144Y1842116D01*
X7316589Y1843318D01*
X7316034Y1844335D01*
Y1844427D01*
X7315849Y1844612D01*
X7315664Y1844889D01*
X7315479Y1845259D01*
X7314740Y1846184D01*
X7313815Y1847293D01*
X7312613Y1848495D01*
X7311226Y1849697D01*
X7309655Y1850714D01*
X7307990Y1851546D01*
X7307806Y1851639D01*
X7307343Y1851731D01*
X7306511Y1852008D01*
X7305309Y1852286D01*
X7303830Y1852471D01*
X7301981Y1852748D01*
X7300871Y1852841D01*
X7299669D01*
X7298467Y1852933D01*
D02*
G37*
G36*
X7237354Y1853858D02*
Y1853765D01*
X7237262Y1853580D01*
Y1853210D01*
X7237077Y1852841D01*
X7236984Y1852193D01*
X7236799Y1851546D01*
X7236430Y1849974D01*
X7235967Y1848125D01*
X7235320Y1846091D01*
X7234673Y1843872D01*
X7233841Y1841561D01*
X7226907Y1822885D01*
X7248541D01*
X7241884Y1840451D01*
Y1840544D01*
X7241792Y1840821D01*
X7241607Y1841284D01*
X7241422Y1841838D01*
X7241145Y1842486D01*
X7240867Y1843318D01*
X7240590Y1844242D01*
X7240220Y1845167D01*
X7239481Y1847293D01*
X7238741Y1849512D01*
X7238001Y1851731D01*
X7237354Y1853858D01*
D02*
G37*
G36*
X7179754Y1853395D02*
X7159599D01*
Y1832223D01*
X7178645D01*
X7179754Y1832315D01*
X7181048Y1832408D01*
X7182528Y1832500D01*
X7184007Y1832685D01*
X7185486Y1832963D01*
X7186781Y1833332D01*
X7186966Y1833425D01*
X7187335Y1833610D01*
X7187890Y1833887D01*
X7188630Y1834257D01*
X7189462Y1834812D01*
X7190294Y1835459D01*
X7191126Y1836291D01*
X7191773Y1837216D01*
X7191866Y1837308D01*
X7192051Y1837678D01*
X7192328Y1838233D01*
X7192698Y1838972D01*
X7192975Y1839804D01*
X7193253Y1840729D01*
X7193437Y1841838D01*
X7193530Y1842948D01*
Y1843040D01*
Y1843133D01*
X7193437Y1843687D01*
X7193345Y1844520D01*
X7193160Y1845629D01*
X7192698Y1846738D01*
X7192143Y1848033D01*
X7191311Y1849235D01*
X7190202Y1850437D01*
X7190017Y1850529D01*
X7189554Y1850899D01*
X7188815Y1851361D01*
X7187613Y1851916D01*
X7186226Y1852471D01*
X7184377Y1852933D01*
X7182250Y1853303D01*
X7179754Y1853395D01*
D02*
G37*
G36*
X3651824Y1853858D02*
Y1853765D01*
X3651731Y1853580D01*
Y1853210D01*
X3651546Y1852841D01*
X3651454Y1852193D01*
X3651269Y1851546D01*
X3650899Y1849974D01*
X3650437Y1848125D01*
X3649789Y1846091D01*
X3649142Y1843872D01*
X3648310Y1841561D01*
X3641376Y1822885D01*
X3663011D01*
X3656354Y1840451D01*
Y1840544D01*
X3656261Y1840821D01*
X3656077Y1841284D01*
X3655892Y1841838D01*
X3655614Y1842486D01*
X3655337Y1843318D01*
X3655059Y1844242D01*
X3654690Y1845167D01*
X3653950Y1847293D01*
X3653210Y1849512D01*
X3652471Y1851731D01*
X3651824Y1853858D01*
D02*
G37*
G36*
X3593669Y1852933D02*
X3578506D01*
Y1833702D01*
X3594223D01*
X3595425Y1833795D01*
X3596720Y1833887D01*
X3598014Y1833980D01*
X3599309Y1834164D01*
X3600326Y1834349D01*
X3600510Y1834442D01*
X3600880Y1834534D01*
X3601435Y1834812D01*
X3602175Y1835181D01*
X3602914Y1835551D01*
X3603746Y1836106D01*
X3604579Y1836846D01*
X3605226Y1837585D01*
X3605318Y1837678D01*
X3605503Y1837955D01*
X3605780Y1838510D01*
X3606058Y1839157D01*
X3606335Y1839897D01*
X3606613Y1840821D01*
X3606797Y1841931D01*
X3606890Y1843133D01*
Y1843318D01*
Y1843687D01*
X3606797Y1844242D01*
X3606705Y1844982D01*
X3606520Y1845906D01*
X3606243Y1846831D01*
X3605873Y1847756D01*
X3605318Y1848680D01*
X3605226Y1848773D01*
X3605041Y1849050D01*
X3604671Y1849512D01*
X3604209Y1849974D01*
X3603561Y1850529D01*
X3602822Y1851084D01*
X3601897Y1851639D01*
X3600880Y1852008D01*
X3600788D01*
X3600326Y1852193D01*
X3599678Y1852286D01*
X3598661Y1852471D01*
X3597274Y1852656D01*
X3595703Y1852748D01*
X3593669Y1852933D01*
D02*
G37*
G36*
X3595333Y1826121D02*
X3578506D01*
Y1804116D01*
X3596720D01*
X3598661Y1804209D01*
X3599493Y1804301D01*
X3600233Y1804394D01*
X3600326D01*
X3600695Y1804486D01*
X3601250Y1804579D01*
X3601897Y1804763D01*
X3603469Y1805318D01*
X3605041Y1806058D01*
X3605133Y1806150D01*
X3605411Y1806335D01*
X3605780Y1806613D01*
X3606243Y1806982D01*
X3606705Y1807537D01*
X3607352Y1808092D01*
X3607814Y1808832D01*
X3608369Y1809664D01*
X3608462Y1809756D01*
X3608554Y1810033D01*
X3608739Y1810588D01*
X3609016Y1811235D01*
X3609294Y1811975D01*
X3609479Y1812900D01*
X3609571Y1814009D01*
X3609664Y1815119D01*
Y1815303D01*
Y1815673D01*
X3609571Y1816413D01*
X3609386Y1817245D01*
X3609201Y1818170D01*
X3608831Y1819187D01*
X3608369Y1820204D01*
X3607722Y1821221D01*
X3607630Y1821313D01*
X3607352Y1821683D01*
X3606982Y1822145D01*
X3606428Y1822700D01*
X3605688Y1823347D01*
X3604763Y1823994D01*
X3603746Y1824549D01*
X3602544Y1825011D01*
X3602360Y1825104D01*
X3601990Y1825196D01*
X3601158Y1825381D01*
X3600141Y1825566D01*
X3598846Y1825751D01*
X3597274Y1825936D01*
X3595333Y1826121D01*
D02*
G37*
G36*
X3851806Y1854320D02*
X3850974D01*
X3850327Y1854227D01*
X3849494Y1854135D01*
X3848662Y1853950D01*
X3847645Y1853765D01*
X3846536Y1853580D01*
X3844132Y1852841D01*
X3842838Y1852286D01*
X3841543Y1851731D01*
X3840156Y1850991D01*
X3838862Y1850159D01*
X3837568Y1849235D01*
X3836366Y1848125D01*
X3836273Y1848033D01*
X3836088Y1847848D01*
X3835811Y1847478D01*
X3835349Y1846923D01*
X3834886Y1846276D01*
X3834332Y1845444D01*
X3833777Y1844427D01*
X3833130Y1843225D01*
X3832575Y1841931D01*
X3831928Y1840359D01*
X3831373Y1838695D01*
X3830911Y1836846D01*
X3830449Y1834812D01*
X3830171Y1832500D01*
X3829986Y1830096D01*
X3829894Y1827508D01*
Y1827415D01*
Y1827045D01*
Y1826398D01*
X3829986Y1825566D01*
X3830079Y1824642D01*
X3830264Y1823532D01*
X3830449Y1822238D01*
X3830633Y1820943D01*
X3831373Y1817985D01*
X3831928Y1816505D01*
X3832483Y1814934D01*
X3833222Y1813454D01*
X3834054Y1811975D01*
X3834979Y1810588D01*
X3836088Y1809294D01*
X3836181Y1809201D01*
X3836366Y1809016D01*
X3836736Y1808647D01*
X3837198Y1808277D01*
X3837845Y1807722D01*
X3838585Y1807167D01*
X3839417Y1806613D01*
X3840341Y1805965D01*
X3841451Y1805318D01*
X3842653Y1804763D01*
X3843947Y1804209D01*
X3845334Y1803654D01*
X3846813Y1803284D01*
X3848293Y1802914D01*
X3849957Y1802729D01*
X3851713Y1802637D01*
X3852176D01*
X3852638Y1802729D01*
X3853285D01*
X3854117Y1802822D01*
X3855042Y1803007D01*
X3856151Y1803192D01*
X3857261Y1803469D01*
X3858555Y1803839D01*
X3859757Y1804301D01*
X3861144Y1804763D01*
X3862438Y1805411D01*
X3863733Y1806243D01*
X3865027Y1807075D01*
X3866321Y1808092D01*
X3867523Y1809294D01*
X3867616Y1809386D01*
X3867801Y1809571D01*
X3868078Y1810033D01*
X3868540Y1810588D01*
X3869003Y1811235D01*
X3869465Y1812067D01*
X3870020Y1813085D01*
X3870667Y1814194D01*
X3871222Y1815488D01*
X3871776Y1816968D01*
X3872239Y1818539D01*
X3872793Y1820204D01*
X3873163Y1822053D01*
X3873441Y1824087D01*
X3873625Y1826213D01*
X3873718Y1828432D01*
Y1828525D01*
Y1828802D01*
Y1829172D01*
Y1829727D01*
X3873625Y1830374D01*
Y1831206D01*
X3873533Y1832038D01*
X3873348Y1833055D01*
X3873071Y1835181D01*
X3872608Y1837400D01*
X3871961Y1839804D01*
X3871037Y1842023D01*
Y1842116D01*
X3870944Y1842301D01*
X3870759Y1842578D01*
X3870574Y1842948D01*
X3869927Y1844057D01*
X3869095Y1845352D01*
X3867986Y1846831D01*
X3866599Y1848310D01*
X3865027Y1849790D01*
X3863270Y1851084D01*
X3863178D01*
X3863085Y1851269D01*
X3862808Y1851361D01*
X3862346Y1851639D01*
X3861884Y1851824D01*
X3861329Y1852101D01*
X3859942Y1852748D01*
X3858278Y1853303D01*
X3856336Y1853858D01*
X3854117Y1854227D01*
X3851806Y1854320D01*
D02*
G37*
G36*
X2581824Y1853858D02*
Y1853765D01*
X2581731Y1853580D01*
Y1853210D01*
X2581546Y1852841D01*
X2581454Y1852193D01*
X2581269Y1851546D01*
X2580899Y1849974D01*
X2580437Y1848125D01*
X2579790Y1846091D01*
X2579142Y1843872D01*
X2578310Y1841561D01*
X2571376Y1822885D01*
X2593011D01*
X2586354Y1840451D01*
Y1840544D01*
X2586262Y1840821D01*
X2586077Y1841284D01*
X2585892Y1841838D01*
X2585614Y1842486D01*
X2585337Y1843318D01*
X2585060Y1844242D01*
X2584690Y1845167D01*
X2583950Y1847293D01*
X2583210Y1849512D01*
X2582471Y1851731D01*
X2581824Y1853858D01*
D02*
G37*
G36*
X2523669Y1852933D02*
X2508506D01*
Y1833702D01*
X2524224D01*
X2525425Y1833795D01*
X2526720Y1833887D01*
X2528014Y1833980D01*
X2529309Y1834164D01*
X2530326Y1834349D01*
X2530511Y1834442D01*
X2530880Y1834534D01*
X2531435Y1834812D01*
X2532175Y1835181D01*
X2532914Y1835551D01*
X2533747Y1836106D01*
X2534579Y1836846D01*
X2535226Y1837585D01*
X2535318Y1837678D01*
X2535503Y1837955D01*
X2535781Y1838510D01*
X2536058Y1839157D01*
X2536335Y1839897D01*
X2536613Y1840821D01*
X2536798Y1841931D01*
X2536890Y1843133D01*
Y1843318D01*
Y1843687D01*
X2536798Y1844242D01*
X2536705Y1844982D01*
X2536520Y1845906D01*
X2536243Y1846831D01*
X2535873Y1847756D01*
X2535318Y1848680D01*
X2535226Y1848773D01*
X2535041Y1849050D01*
X2534671Y1849512D01*
X2534209Y1849974D01*
X2533562Y1850529D01*
X2532822Y1851084D01*
X2531897Y1851639D01*
X2530880Y1852008D01*
X2530788D01*
X2530326Y1852193D01*
X2529678Y1852286D01*
X2528661Y1852471D01*
X2527275Y1852656D01*
X2525703Y1852748D01*
X2523669Y1852933D01*
D02*
G37*
G36*
X2525333Y1826121D02*
X2508506D01*
Y1804116D01*
X2526720D01*
X2528661Y1804209D01*
X2529494Y1804301D01*
X2530233Y1804394D01*
X2530326D01*
X2530695Y1804486D01*
X2531250Y1804579D01*
X2531897Y1804763D01*
X2533469Y1805318D01*
X2535041Y1806058D01*
X2535133Y1806150D01*
X2535411Y1806335D01*
X2535781Y1806613D01*
X2536243Y1806982D01*
X2536705Y1807537D01*
X2537352Y1808092D01*
X2537815Y1808832D01*
X2538369Y1809664D01*
X2538462Y1809756D01*
X2538554Y1810033D01*
X2538739Y1810588D01*
X2539017Y1811235D01*
X2539294Y1811975D01*
X2539479Y1812900D01*
X2539571Y1814009D01*
X2539664Y1815119D01*
Y1815303D01*
Y1815673D01*
X2539571Y1816413D01*
X2539386Y1817245D01*
X2539201Y1818170D01*
X2538832Y1819187D01*
X2538369Y1820204D01*
X2537722Y1821221D01*
X2537630Y1821313D01*
X2537352Y1821683D01*
X2536982Y1822145D01*
X2536428Y1822700D01*
X2535688Y1823347D01*
X2534764Y1823994D01*
X2533747Y1824549D01*
X2532545Y1825011D01*
X2532360Y1825104D01*
X2531990Y1825196D01*
X2531158Y1825381D01*
X2530141Y1825566D01*
X2528846Y1825751D01*
X2527275Y1825936D01*
X2525333Y1826121D01*
D02*
G37*
G36*
X2781806Y1854320D02*
X2780974D01*
X2780327Y1854227D01*
X2779495Y1854135D01*
X2778662Y1853950D01*
X2777645Y1853765D01*
X2776536Y1853580D01*
X2774132Y1852841D01*
X2772838Y1852286D01*
X2771543Y1851731D01*
X2770157Y1850991D01*
X2768862Y1850159D01*
X2767568Y1849235D01*
X2766366Y1848125D01*
X2766273Y1848033D01*
X2766088Y1847848D01*
X2765811Y1847478D01*
X2765349Y1846923D01*
X2764887Y1846276D01*
X2764332Y1845444D01*
X2763777Y1844427D01*
X2763130Y1843225D01*
X2762575Y1841931D01*
X2761928Y1840359D01*
X2761373Y1838695D01*
X2760911Y1836846D01*
X2760449Y1834812D01*
X2760171Y1832500D01*
X2759986Y1830096D01*
X2759894Y1827508D01*
Y1827415D01*
Y1827045D01*
Y1826398D01*
X2759986Y1825566D01*
X2760079Y1824642D01*
X2760264Y1823532D01*
X2760449Y1822238D01*
X2760634Y1820943D01*
X2761373Y1817985D01*
X2761928Y1816505D01*
X2762483Y1814934D01*
X2763222Y1813454D01*
X2764054Y1811975D01*
X2764979Y1810588D01*
X2766088Y1809294D01*
X2766181Y1809201D01*
X2766366Y1809016D01*
X2766736Y1808647D01*
X2767198Y1808277D01*
X2767845Y1807722D01*
X2768585Y1807167D01*
X2769417Y1806613D01*
X2770341Y1805965D01*
X2771451Y1805318D01*
X2772653Y1804763D01*
X2773947Y1804209D01*
X2775334Y1803654D01*
X2776813Y1803284D01*
X2778293Y1802914D01*
X2779957Y1802729D01*
X2781714Y1802637D01*
X2782176D01*
X2782638Y1802729D01*
X2783285D01*
X2784117Y1802822D01*
X2785042Y1803007D01*
X2786151Y1803192D01*
X2787261Y1803469D01*
X2788555Y1803839D01*
X2789757Y1804301D01*
X2791144Y1804763D01*
X2792438Y1805411D01*
X2793733Y1806243D01*
X2795027Y1807075D01*
X2796322Y1808092D01*
X2797523Y1809294D01*
X2797616Y1809386D01*
X2797801Y1809571D01*
X2798078Y1810033D01*
X2798541Y1810588D01*
X2799003Y1811235D01*
X2799465Y1812067D01*
X2800020Y1813085D01*
X2800667Y1814194D01*
X2801222Y1815488D01*
X2801776Y1816968D01*
X2802239Y1818539D01*
X2802793Y1820204D01*
X2803163Y1822053D01*
X2803441Y1824087D01*
X2803626Y1826213D01*
X2803718Y1828432D01*
Y1828525D01*
Y1828802D01*
Y1829172D01*
Y1829727D01*
X2803626Y1830374D01*
Y1831206D01*
X2803533Y1832038D01*
X2803348Y1833055D01*
X2803071Y1835181D01*
X2802609Y1837400D01*
X2801961Y1839804D01*
X2801037Y1842023D01*
Y1842116D01*
X2800944Y1842301D01*
X2800759Y1842578D01*
X2800575Y1842948D01*
X2799927Y1844057D01*
X2799095Y1845352D01*
X2797986Y1846831D01*
X2796599Y1848310D01*
X2795027Y1849790D01*
X2793271Y1851084D01*
X2793178D01*
X2793086Y1851269D01*
X2792808Y1851361D01*
X2792346Y1851639D01*
X2791884Y1851824D01*
X2791329Y1852101D01*
X2789942Y1852748D01*
X2788278Y1853303D01*
X2786336Y1853858D01*
X2784117Y1854227D01*
X2781806Y1854320D01*
D02*
G37*
%LPD*%
D25*
X6579500Y1031000D02*
Y2597500D01*
Y1031000D02*
X7597500D01*
Y2597500D01*
X6579500D02*
X7597500D01*
X3061000Y1031000D02*
Y2597500D01*
Y1031000D02*
X4079000D01*
Y2597500D01*
X3061000D02*
X4079000D01*
X1991000Y1031000D02*
Y2597500D01*
Y1031000D02*
X3009000D01*
Y2597500D01*
X1991000D02*
X3009000D01*
%TF.MD5,c3ee8b9d7ed215f7663db5027d483eea*%
M02*
